%TF.GenerationSoftware,KiCad,Pcbnew,(6.0.8)*%
%TF.CreationDate,2023-04-06T15:31:32+10:00*%
%TF.ProjectId,drazie,6472617a-6965-42e6-9b69-6361645f7063,rev?*%
%TF.SameCoordinates,Original*%
%TF.FileFunction,Profile,NP*%
%FSLAX46Y46*%
G04 Gerber Fmt 4.6, Leading zero omitted, Abs format (unit mm)*
G04 Created by KiCad (PCBNEW (6.0.8)) date 2023-04-06 15:31:32*
%MOMM*%
%LPD*%
G01*
G04 APERTURE LIST*
%TA.AperFunction,Profile*%
%ADD10C,0.100000*%
%TD*%
G04 APERTURE END LIST*
D10*
X59000000Y-90500000D02*
X59000000Y-92000000D01*
X13500000Y-89500000D02*
X58000000Y-89500000D01*
X12500000Y-13500000D02*
X12500000Y-88500000D01*
X208000000Y-12500000D02*
X13500000Y-12500000D01*
X209000000Y-13500000D02*
X209000000Y-111500000D01*
X152000000Y-112500000D02*
X208000000Y-112500000D01*
X151000000Y-106000000D02*
X151000000Y-111500000D01*
X117000000Y-105000000D02*
X150000000Y-105000000D01*
X116000000Y-103000000D02*
X116000000Y-104000000D01*
X115000000Y-102000000D02*
X58000000Y-102000000D01*
X208000000Y-112500000D02*
G75*
G03*
X209000000Y-111500000I0J1000000D01*
G01*
X209000000Y-13500000D02*
G75*
G03*
X208000000Y-12500000I-1000000J0D01*
G01*
X13500000Y-12500000D02*
G75*
G03*
X12500000Y-13500000I0J-1000000D01*
G01*
X12500000Y-88500000D02*
G75*
G03*
X13500000Y-89500000I1000000J0D01*
G01*
X59000000Y-90500000D02*
G75*
G03*
X58000000Y-89500000I-1000000J0D01*
G01*
X57000000Y-98500000D02*
X57000000Y-101000000D01*
X58894427Y-92447214D02*
X57105573Y-98052786D01*
X58894427Y-92447214D02*
G75*
G03*
X59000000Y-92000000I-894427J447214D01*
G01*
X57105573Y-98052786D02*
G75*
G03*
X57000000Y-98500000I894427J-447214D01*
G01*
X57000000Y-101000000D02*
G75*
G03*
X58000000Y-102000000I1000000J0D01*
G01*
X116000000Y-103000000D02*
G75*
G03*
X115000000Y-102000000I-1000000J0D01*
G01*
X116000000Y-104000000D02*
G75*
G03*
X117000000Y-105000000I1000000J0D01*
G01*
X151000000Y-106000000D02*
G75*
G03*
X150000000Y-105000000I-1000000J0D01*
G01*
X151000000Y-111500000D02*
G75*
G03*
X152000000Y-112500000I1000000J0D01*
G01*
M02*
