%TF.GenerationSoftware,KiCad,Pcbnew,(6.0.8)*%
%TF.CreationDate,2023-04-06T15:32:16+10:00*%
%TF.ProjectId,drazie,6472617a-6965-42e6-9b69-6361645f7063,rev?*%
%TF.SameCoordinates,Original*%
%TF.FileFunction,Drillmap*%
%TF.FilePolarity,Positive*%
%FSLAX45Y45*%
G04 Gerber Fmt 4.5, Leading zero omitted, Abs format (unit mm)*
G04 Created by KiCad (PCBNEW (6.0.8)) date 2023-04-06 15:32:16*
%MOMM*%
%LPD*%
G01*
G04 APERTURE LIST*
%ADD10C,0.100000*%
%ADD11C,0.200000*%
%ADD12C,0.040000*%
%ADD13C,0.080000*%
%ADD14C,0.090000*%
%ADD15C,0.110000*%
%ADD16C,0.149860*%
G04 APERTURE END LIST*
D10*
X5900000Y-9050000D02*
X5900000Y-9200000D01*
X1350000Y-8950000D02*
X5800000Y-8950000D01*
X1250000Y-1350000D02*
X1250000Y-8850000D01*
X20800000Y-1250000D02*
X1350000Y-1250000D01*
X20900000Y-1350000D02*
X20900000Y-11150000D01*
X15200000Y-11250000D02*
X20800000Y-11250000D01*
X15100000Y-10600000D02*
X15100000Y-11150000D01*
X11700000Y-10500000D02*
X15000000Y-10500000D01*
X11600000Y-10300000D02*
X11600000Y-10400000D01*
X11500000Y-10200000D02*
X5800000Y-10200000D01*
X20800000Y-11250000D02*
G75*
G03*
X20900000Y-11150000I0J100000D01*
G01*
X20900000Y-1350000D02*
G75*
G03*
X20800000Y-1250000I-100000J0D01*
G01*
X1350000Y-1250000D02*
G75*
G03*
X1250000Y-1350000I0J-100000D01*
G01*
X1250000Y-8850000D02*
G75*
G03*
X1350000Y-8950000I100000J0D01*
G01*
X5900000Y-9050000D02*
G75*
G03*
X5800000Y-8950000I-100000J0D01*
G01*
X5700000Y-9850000D02*
X5700000Y-10100000D01*
X5889443Y-9244721D02*
X5710557Y-9805279D01*
X5889443Y-9244721D02*
G75*
G03*
X5900000Y-9200000I-89443J44721D01*
G01*
X5710557Y-9805279D02*
G75*
G03*
X5700000Y-9850000I89443J-44721D01*
G01*
X5700000Y-10100000D02*
G75*
G03*
X5800000Y-10200000I100000J0D01*
G01*
X11600000Y-10300000D02*
G75*
G03*
X11500000Y-10200000I-100000J0D01*
G01*
X11600000Y-10400000D02*
G75*
G03*
X11700000Y-10500000I100000J0D01*
G01*
X15100000Y-10600000D02*
G75*
G03*
X15000000Y-10500000I-100000J0D01*
G01*
X15100000Y-11150000D02*
G75*
G03*
X15200000Y-11250000I100000J0D01*
G01*
D11*
D12*
X15580000Y-8280000D02*
X15620000Y-8320000D01*
X15620000Y-8280000D02*
X15580000Y-8320000D01*
X15580000Y-8930000D02*
X15620000Y-8970000D01*
X15620000Y-8930000D02*
X15580000Y-8970000D01*
X17480000Y-8530000D02*
X17520000Y-8570000D01*
X17520000Y-8530000D02*
X17480000Y-8570000D01*
X17480000Y-8930000D02*
X17520000Y-8970000D01*
X17520000Y-8930000D02*
X17480000Y-8970000D01*
X18930000Y-8730000D02*
X18970000Y-8770000D01*
X18970000Y-8730000D02*
X18930000Y-8770000D01*
X19030000Y-8730000D02*
X19070000Y-8770000D01*
X19070000Y-8730000D02*
X19030000Y-8770000D01*
X19130000Y-8730000D02*
X19170000Y-8770000D01*
X19170000Y-8730000D02*
X19130000Y-8770000D01*
X19230000Y-8730000D02*
X19270000Y-8770000D01*
X19270000Y-8730000D02*
X19230000Y-8770000D01*
X19770000Y-1828900D02*
G75*
G03*
X19770000Y-1828900I-20000J0D01*
G01*
X19770000Y-2082900D02*
G75*
G03*
X19770000Y-2082900I-20000J0D01*
G01*
X19770000Y-2336900D02*
G75*
G03*
X19770000Y-2336900I-20000J0D01*
G01*
X19770000Y-2590900D02*
G75*
G03*
X19770000Y-2590900I-20000J0D01*
G01*
X19770000Y-2844900D02*
G75*
G03*
X19770000Y-2844900I-20000J0D01*
G01*
X19770000Y-3098900D02*
G75*
G03*
X19770000Y-3098900I-20000J0D01*
G01*
X19770000Y-3352900D02*
G75*
G03*
X19770000Y-3352900I-20000J0D01*
G01*
X19770000Y-3606900D02*
G75*
G03*
X19770000Y-3606900I-20000J0D01*
G01*
X19770000Y-3860900D02*
G75*
G03*
X19770000Y-3860900I-20000J0D01*
G01*
X19770000Y-4114900D02*
G75*
G03*
X19770000Y-4114900I-20000J0D01*
G01*
X19770000Y-4368900D02*
G75*
G03*
X19770000Y-4368900I-20000J0D01*
G01*
X19770000Y-4622900D02*
G75*
G03*
X19770000Y-4622900I-20000J0D01*
G01*
X19922400Y-1828900D02*
G75*
G03*
X19922400Y-1828900I-20000J0D01*
G01*
X19922400Y-2082900D02*
G75*
G03*
X19922400Y-2082900I-20000J0D01*
G01*
X19922400Y-2336900D02*
G75*
G03*
X19922400Y-2336900I-20000J0D01*
G01*
X19922400Y-2590900D02*
G75*
G03*
X19922400Y-2590900I-20000J0D01*
G01*
X19922400Y-2844900D02*
G75*
G03*
X19922400Y-2844900I-20000J0D01*
G01*
X19922400Y-3098900D02*
G75*
G03*
X19922400Y-3098900I-20000J0D01*
G01*
X19922400Y-3352900D02*
G75*
G03*
X19922400Y-3352900I-20000J0D01*
G01*
X19922400Y-3606900D02*
G75*
G03*
X19922400Y-3606900I-20000J0D01*
G01*
X19922400Y-3860900D02*
G75*
G03*
X19922400Y-3860900I-20000J0D01*
G01*
X19922400Y-4114900D02*
G75*
G03*
X19922400Y-4114900I-20000J0D01*
G01*
X19922400Y-4368900D02*
G75*
G03*
X19922400Y-4368900I-20000J0D01*
G01*
X19922400Y-4622900D02*
G75*
G03*
X19922400Y-4622900I-20000J0D01*
G01*
D13*
X5888000Y-9960000D02*
X5888000Y-10040000D01*
X5848000Y-10000000D02*
X5928000Y-10000000D01*
X5988000Y-9660000D02*
X5988000Y-9740000D01*
X5948000Y-9700000D02*
X6028000Y-9700000D01*
X6088000Y-9360000D02*
X6088000Y-9440000D01*
X6048000Y-9400000D02*
X6128000Y-9400000D01*
X6188000Y-9060000D02*
X6188000Y-9140000D01*
X6148000Y-9100000D02*
X6228000Y-9100000D01*
X6650000Y-9960000D02*
X6650000Y-10040000D01*
X6610000Y-10000000D02*
X6690000Y-10000000D01*
X6750000Y-9660000D02*
X6750000Y-9740000D01*
X6710000Y-9700000D02*
X6790000Y-9700000D01*
X6850000Y-9360000D02*
X6850000Y-9440000D01*
X6810000Y-9400000D02*
X6890000Y-9400000D01*
X6888000Y-9960000D02*
X6888000Y-10040000D01*
X6848000Y-10000000D02*
X6928000Y-10000000D01*
X6950000Y-9060000D02*
X6950000Y-9140000D01*
X6910000Y-9100000D02*
X6990000Y-9100000D01*
X6988000Y-9660000D02*
X6988000Y-9740000D01*
X6948000Y-9700000D02*
X7028000Y-9700000D01*
X7088000Y-9360000D02*
X7088000Y-9440000D01*
X7048000Y-9400000D02*
X7128000Y-9400000D01*
X7188000Y-9060000D02*
X7188000Y-9140000D01*
X7148000Y-9100000D02*
X7228000Y-9100000D01*
X7650000Y-9960000D02*
X7650000Y-10040000D01*
X7610000Y-10000000D02*
X7690000Y-10000000D01*
X7750000Y-9660000D02*
X7750000Y-9740000D01*
X7710000Y-9700000D02*
X7790000Y-9700000D01*
X7850000Y-9360000D02*
X7850000Y-9440000D01*
X7810000Y-9400000D02*
X7890000Y-9400000D01*
X7888000Y-9960000D02*
X7888000Y-10040000D01*
X7848000Y-10000000D02*
X7928000Y-10000000D01*
X7950000Y-9060000D02*
X7950000Y-9140000D01*
X7910000Y-9100000D02*
X7990000Y-9100000D01*
X7988000Y-9660000D02*
X7988000Y-9740000D01*
X7948000Y-9700000D02*
X8028000Y-9700000D01*
X8088000Y-9360000D02*
X8088000Y-9440000D01*
X8048000Y-9400000D02*
X8128000Y-9400000D01*
X8188000Y-9060000D02*
X8188000Y-9140000D01*
X8148000Y-9100000D02*
X8228000Y-9100000D01*
X8650000Y-9960000D02*
X8650000Y-10040000D01*
X8610000Y-10000000D02*
X8690000Y-10000000D01*
X8750000Y-9660000D02*
X8750000Y-9740000D01*
X8710000Y-9700000D02*
X8790000Y-9700000D01*
X8850000Y-9360000D02*
X8850000Y-9440000D01*
X8810000Y-9400000D02*
X8890000Y-9400000D01*
X8888000Y-9959283D02*
X8888000Y-10039283D01*
X8848000Y-9999283D02*
X8928000Y-9999283D01*
X8950000Y-9060000D02*
X8950000Y-9140000D01*
X8910000Y-9100000D02*
X8990000Y-9100000D01*
X8988000Y-9659283D02*
X8988000Y-9739283D01*
X8948000Y-9699283D02*
X9028000Y-9699283D01*
X9088000Y-9359283D02*
X9088000Y-9439283D01*
X9048000Y-9399283D02*
X9128000Y-9399283D01*
X9188000Y-9059283D02*
X9188000Y-9139283D01*
X9148000Y-9099283D02*
X9228000Y-9099283D01*
X9650000Y-9959283D02*
X9650000Y-10039283D01*
X9610000Y-9999283D02*
X9690000Y-9999283D01*
X9750000Y-9659283D02*
X9750000Y-9739283D01*
X9710000Y-9699283D02*
X9790000Y-9699283D01*
X9850000Y-9359283D02*
X9850000Y-9439283D01*
X9810000Y-9399283D02*
X9890000Y-9399283D01*
X9888000Y-9960000D02*
X9888000Y-10040000D01*
X9848000Y-10000000D02*
X9928000Y-10000000D01*
X9950000Y-9059283D02*
X9950000Y-9139283D01*
X9910000Y-9099283D02*
X9990000Y-9099283D01*
X9988000Y-9660000D02*
X9988000Y-9740000D01*
X9948000Y-9700000D02*
X10028000Y-9700000D01*
X10088000Y-9360000D02*
X10088000Y-9440000D01*
X10048000Y-9400000D02*
X10128000Y-9400000D01*
X10188000Y-9060000D02*
X10188000Y-9140000D01*
X10148000Y-9100000D02*
X10228000Y-9100000D01*
X10650000Y-9960000D02*
X10650000Y-10040000D01*
X10610000Y-10000000D02*
X10690000Y-10000000D01*
X10750000Y-9660000D02*
X10750000Y-9740000D01*
X10710000Y-9700000D02*
X10790000Y-9700000D01*
X10850000Y-9360000D02*
X10850000Y-9440000D01*
X10810000Y-9400000D02*
X10890000Y-9400000D01*
X10888000Y-9960000D02*
X10888000Y-10040000D01*
X10848000Y-10000000D02*
X10928000Y-10000000D01*
X10950000Y-9060000D02*
X10950000Y-9140000D01*
X10910000Y-9100000D02*
X10990000Y-9100000D01*
X10988000Y-9660000D02*
X10988000Y-9740000D01*
X10948000Y-9700000D02*
X11028000Y-9700000D01*
X11088000Y-9360000D02*
X11088000Y-9440000D01*
X11048000Y-9400000D02*
X11128000Y-9400000D01*
X11188000Y-9060000D02*
X11188000Y-9140000D01*
X11148000Y-9100000D02*
X11228000Y-9100000D01*
X11650000Y-9960000D02*
X11650000Y-10040000D01*
X11610000Y-10000000D02*
X11690000Y-10000000D01*
X11750000Y-9660000D02*
X11750000Y-9740000D01*
X11710000Y-9700000D02*
X11790000Y-9700000D01*
X11788000Y-10260000D02*
X11788000Y-10340000D01*
X11748000Y-10300000D02*
X11828000Y-10300000D01*
X11850000Y-9360000D02*
X11850000Y-9440000D01*
X11810000Y-9400000D02*
X11890000Y-9400000D01*
X11888000Y-9960000D02*
X11888000Y-10040000D01*
X11848000Y-10000000D02*
X11928000Y-10000000D01*
X11950000Y-9060000D02*
X11950000Y-9140000D01*
X11910000Y-9100000D02*
X11990000Y-9100000D01*
X11988000Y-9660000D02*
X11988000Y-9740000D01*
X11948000Y-9700000D02*
X12028000Y-9700000D01*
X12088000Y-9360000D02*
X12088000Y-9440000D01*
X12048000Y-9400000D02*
X12128000Y-9400000D01*
X12188000Y-9060000D02*
X12188000Y-9140000D01*
X12148000Y-9100000D02*
X12228000Y-9100000D01*
X12550000Y-10260000D02*
X12550000Y-10340000D01*
X12510000Y-10300000D02*
X12590000Y-10300000D01*
X12650000Y-9960000D02*
X12650000Y-10040000D01*
X12610000Y-10000000D02*
X12690000Y-10000000D01*
X12750000Y-9660000D02*
X12750000Y-9740000D01*
X12710000Y-9700000D02*
X12790000Y-9700000D01*
X12788000Y-10260000D02*
X12788000Y-10340000D01*
X12748000Y-10300000D02*
X12828000Y-10300000D01*
X12850000Y-9360000D02*
X12850000Y-9440000D01*
X12810000Y-9400000D02*
X12890000Y-9400000D01*
X12888000Y-9960000D02*
X12888000Y-10040000D01*
X12848000Y-10000000D02*
X12928000Y-10000000D01*
X12950000Y-9060000D02*
X12950000Y-9140000D01*
X12910000Y-9100000D02*
X12990000Y-9100000D01*
X12988000Y-9660000D02*
X12988000Y-9740000D01*
X12948000Y-9700000D02*
X13028000Y-9700000D01*
X13088000Y-9360000D02*
X13088000Y-9440000D01*
X13048000Y-9400000D02*
X13128000Y-9400000D01*
X13188000Y-9060000D02*
X13188000Y-9140000D01*
X13148000Y-9100000D02*
X13228000Y-9100000D01*
X13550000Y-10260000D02*
X13550000Y-10340000D01*
X13510000Y-10300000D02*
X13590000Y-10300000D01*
X13650000Y-9960000D02*
X13650000Y-10040000D01*
X13610000Y-10000000D02*
X13690000Y-10000000D01*
X13750000Y-9660000D02*
X13750000Y-9740000D01*
X13710000Y-9700000D02*
X13790000Y-9700000D01*
X13788000Y-10260000D02*
X13788000Y-10340000D01*
X13748000Y-10300000D02*
X13828000Y-10300000D01*
X13850000Y-9360000D02*
X13850000Y-9440000D01*
X13810000Y-9400000D02*
X13890000Y-9400000D01*
X13888000Y-9960000D02*
X13888000Y-10040000D01*
X13848000Y-10000000D02*
X13928000Y-10000000D01*
X13950000Y-9060000D02*
X13950000Y-9140000D01*
X13910000Y-9100000D02*
X13990000Y-9100000D01*
X13988000Y-9660000D02*
X13988000Y-9740000D01*
X13948000Y-9700000D02*
X14028000Y-9700000D01*
X14088000Y-9360000D02*
X14088000Y-9440000D01*
X14048000Y-9400000D02*
X14128000Y-9400000D01*
X14188000Y-9060000D02*
X14188000Y-9140000D01*
X14148000Y-9100000D02*
X14228000Y-9100000D01*
X14550000Y-10260000D02*
X14550000Y-10340000D01*
X14510000Y-10300000D02*
X14590000Y-10300000D01*
X14650000Y-9960000D02*
X14650000Y-10040000D01*
X14610000Y-10000000D02*
X14690000Y-10000000D01*
X14750000Y-9660000D02*
X14750000Y-9740000D01*
X14710000Y-9700000D02*
X14790000Y-9700000D01*
X14850000Y-9360000D02*
X14850000Y-9440000D01*
X14810000Y-9400000D02*
X14890000Y-9400000D01*
X14950000Y-9060000D02*
X14950000Y-9140000D01*
X14910000Y-9100000D02*
X14990000Y-9100000D01*
D14*
X19621820Y-5071820D02*
X19621820Y-5008180D01*
X19558180Y-5008180D01*
X19558180Y-5071820D01*
X19621820Y-5071820D01*
D11*
X19620000Y-4995000D02*
X19560000Y-4995000D01*
X19620000Y-5085000D02*
X19560000Y-5085000D01*
X19560000Y-4995000D02*
G75*
G03*
X19560000Y-5085000I0J-45000D01*
G01*
X19620000Y-5085000D02*
G75*
G03*
X19620000Y-4995000I0J45000D01*
G01*
D14*
X19731820Y-5531820D02*
X19731820Y-5468180D01*
X19668180Y-5468180D01*
X19668180Y-5531820D01*
X19731820Y-5531820D01*
D11*
X19730000Y-5455000D02*
X19670000Y-5455000D01*
X19730000Y-5545000D02*
X19670000Y-5545000D01*
X19670000Y-5455000D02*
G75*
G03*
X19670000Y-5545000I0J-45000D01*
G01*
X19730000Y-5545000D02*
G75*
G03*
X19730000Y-5455000I0J45000D01*
G01*
D14*
X20131820Y-5531820D02*
X20131820Y-5468180D01*
X20068180Y-5468180D01*
X20068180Y-5531820D01*
X20131820Y-5531820D01*
D11*
X20130000Y-5455000D02*
X20070000Y-5455000D01*
X20130000Y-5545000D02*
X20070000Y-5545000D01*
X20070000Y-5455000D02*
G75*
G03*
X20070000Y-5545000I0J-45000D01*
G01*
X20130000Y-5545000D02*
G75*
G03*
X20130000Y-5455000I0J45000D01*
G01*
D14*
X20431820Y-5531820D02*
X20431820Y-5468180D01*
X20368180Y-5468180D01*
X20368180Y-5531820D01*
X20431820Y-5531820D01*
D11*
X20430000Y-5455000D02*
X20370000Y-5455000D01*
X20430000Y-5545000D02*
X20370000Y-5545000D01*
X20370000Y-5455000D02*
G75*
G03*
X20370000Y-5545000I0J-45000D01*
G01*
X20430000Y-5545000D02*
G75*
G03*
X20430000Y-5455000I0J45000D01*
G01*
D10*
X19650000Y-6250000D02*
X19700000Y-6200000D01*
X19650000Y-6150000D01*
X19600000Y-6200000D01*
X19650000Y-6250000D01*
X19650000Y-7700000D02*
X19700000Y-7650000D01*
X19650000Y-7600000D01*
X19600000Y-7650000D01*
X19650000Y-7700000D01*
X19900000Y-6250000D02*
X19950000Y-6200000D01*
X19900000Y-6150000D01*
X19850000Y-6200000D01*
X19900000Y-6250000D01*
X20150000Y-6250000D02*
X20200000Y-6200000D01*
X20150000Y-6150000D01*
X20100000Y-6200000D01*
X20150000Y-6250000D01*
X20150000Y-7700000D02*
X20200000Y-7650000D01*
X20150000Y-7600000D01*
X20100000Y-7650000D01*
X20150000Y-7700000D01*
D15*
X19009200Y-1773900D02*
X19119200Y-1883900D01*
X19119200Y-1773900D02*
X19009200Y-1883900D01*
X19119200Y-1828900D02*
G75*
G03*
X19119200Y-1828900I-55000J0D01*
G01*
X19009200Y-1773900D02*
X19119200Y-1883900D01*
X19119200Y-1773900D02*
X19009200Y-1883900D01*
X19119200Y-1828900D02*
G75*
G03*
X19119200Y-1828900I-55000J0D01*
G01*
X19009200Y-2027900D02*
X19119200Y-2137900D01*
X19119200Y-2027900D02*
X19009200Y-2137900D01*
X19119200Y-2082900D02*
G75*
G03*
X19119200Y-2082900I-55000J0D01*
G01*
X19009200Y-2281900D02*
X19119200Y-2391900D01*
X19119200Y-2281900D02*
X19009200Y-2391900D01*
X19119200Y-2336900D02*
G75*
G03*
X19119200Y-2336900I-55000J0D01*
G01*
X19009200Y-2535900D02*
X19119200Y-2645900D01*
X19119200Y-2535900D02*
X19009200Y-2645900D01*
X19119200Y-2590900D02*
G75*
G03*
X19119200Y-2590900I-55000J0D01*
G01*
X19009200Y-2789900D02*
X19119200Y-2899900D01*
X19119200Y-2789900D02*
X19009200Y-2899900D01*
X19119200Y-2844900D02*
G75*
G03*
X19119200Y-2844900I-55000J0D01*
G01*
X19009200Y-3043900D02*
X19119200Y-3153900D01*
X19119200Y-3043900D02*
X19009200Y-3153900D01*
X19119200Y-3098900D02*
G75*
G03*
X19119200Y-3098900I-55000J0D01*
G01*
X19009200Y-3297900D02*
X19119200Y-3407900D01*
X19119200Y-3297900D02*
X19009200Y-3407900D01*
X19119200Y-3352900D02*
G75*
G03*
X19119200Y-3352900I-55000J0D01*
G01*
X19009200Y-3551900D02*
X19119200Y-3661900D01*
X19119200Y-3551900D02*
X19009200Y-3661900D01*
X19119200Y-3606900D02*
G75*
G03*
X19119200Y-3606900I-55000J0D01*
G01*
X19009200Y-3805900D02*
X19119200Y-3915900D01*
X19119200Y-3805900D02*
X19009200Y-3915900D01*
X19119200Y-3860900D02*
G75*
G03*
X19119200Y-3860900I-55000J0D01*
G01*
X19009200Y-4059900D02*
X19119200Y-4169900D01*
X19119200Y-4059900D02*
X19009200Y-4169900D01*
X19119200Y-4114900D02*
G75*
G03*
X19119200Y-4114900I-55000J0D01*
G01*
X19009200Y-4313900D02*
X19119200Y-4423900D01*
X19119200Y-4313900D02*
X19009200Y-4423900D01*
X19119200Y-4368900D02*
G75*
G03*
X19119200Y-4368900I-55000J0D01*
G01*
X19009200Y-4567900D02*
X19119200Y-4677900D01*
X19119200Y-4567900D02*
X19009200Y-4677900D01*
X19119200Y-4622900D02*
G75*
G03*
X19119200Y-4622900I-55000J0D01*
G01*
X20533200Y-1773900D02*
X20643200Y-1883900D01*
X20643200Y-1773900D02*
X20533200Y-1883900D01*
X20643200Y-1828900D02*
G75*
G03*
X20643200Y-1828900I-55000J0D01*
G01*
X20533200Y-1773900D02*
X20643200Y-1883900D01*
X20643200Y-1773900D02*
X20533200Y-1883900D01*
X20643200Y-1828900D02*
G75*
G03*
X20643200Y-1828900I-55000J0D01*
G01*
X20533200Y-2027900D02*
X20643200Y-2137900D01*
X20643200Y-2027900D02*
X20533200Y-2137900D01*
X20643200Y-2082900D02*
G75*
G03*
X20643200Y-2082900I-55000J0D01*
G01*
X20533200Y-2281900D02*
X20643200Y-2391900D01*
X20643200Y-2281900D02*
X20533200Y-2391900D01*
X20643200Y-2336900D02*
G75*
G03*
X20643200Y-2336900I-55000J0D01*
G01*
X20533200Y-2535900D02*
X20643200Y-2645900D01*
X20643200Y-2535900D02*
X20533200Y-2645900D01*
X20643200Y-2590900D02*
G75*
G03*
X20643200Y-2590900I-55000J0D01*
G01*
X20533200Y-2789900D02*
X20643200Y-2899900D01*
X20643200Y-2789900D02*
X20533200Y-2899900D01*
X20643200Y-2844900D02*
G75*
G03*
X20643200Y-2844900I-55000J0D01*
G01*
X20533200Y-3043900D02*
X20643200Y-3153900D01*
X20643200Y-3043900D02*
X20533200Y-3153900D01*
X20643200Y-3098900D02*
G75*
G03*
X20643200Y-3098900I-55000J0D01*
G01*
X20533200Y-3297900D02*
X20643200Y-3407900D01*
X20643200Y-3297900D02*
X20533200Y-3407900D01*
X20643200Y-3352900D02*
G75*
G03*
X20643200Y-3352900I-55000J0D01*
G01*
X20533200Y-3551900D02*
X20643200Y-3661900D01*
X20643200Y-3551900D02*
X20533200Y-3661900D01*
X20643200Y-3606900D02*
G75*
G03*
X20643200Y-3606900I-55000J0D01*
G01*
X20533200Y-3805900D02*
X20643200Y-3915900D01*
X20643200Y-3805900D02*
X20533200Y-3915900D01*
X20643200Y-3860900D02*
G75*
G03*
X20643200Y-3860900I-55000J0D01*
G01*
X20533200Y-4059900D02*
X20643200Y-4169900D01*
X20643200Y-4059900D02*
X20533200Y-4169900D01*
X20643200Y-4114900D02*
G75*
G03*
X20643200Y-4114900I-55000J0D01*
G01*
X20533200Y-4313900D02*
X20643200Y-4423900D01*
X20643200Y-4313900D02*
X20533200Y-4423900D01*
X20643200Y-4368900D02*
G75*
G03*
X20643200Y-4368900I-55000J0D01*
G01*
X20533200Y-4567900D02*
X20643200Y-4677900D01*
X20643200Y-4567900D02*
X20533200Y-4677900D01*
X20643200Y-4622900D02*
G75*
G03*
X20643200Y-4622900I-55000J0D01*
G01*
D16*
X1744070Y-1871070D02*
X1893930Y-2020930D01*
X1893930Y-1871070D02*
X1744070Y-2020930D01*
X1819000Y-1871070D02*
X1819000Y-2020930D01*
X1744070Y-1946000D02*
X1893930Y-1946000D01*
X1744070Y-3771070D02*
X1893930Y-3920930D01*
X1893930Y-3771070D02*
X1744070Y-3920930D01*
X1819000Y-3771070D02*
X1819000Y-3920930D01*
X1744070Y-3846000D02*
X1893930Y-3846000D01*
X1744070Y-5671070D02*
X1893930Y-5820930D01*
X1893930Y-5671070D02*
X1744070Y-5820930D01*
X1819000Y-5671070D02*
X1819000Y-5820930D01*
X1744070Y-5746000D02*
X1893930Y-5746000D01*
X1744070Y-7571070D02*
X1893930Y-7720930D01*
X1893930Y-7571070D02*
X1744070Y-7720930D01*
X1819000Y-7571070D02*
X1819000Y-7720930D01*
X1744070Y-7646000D02*
X1893930Y-7646000D01*
X1871070Y-1617070D02*
X2020930Y-1766930D01*
X2020930Y-1617070D02*
X1871070Y-1766930D01*
X1946000Y-1617070D02*
X1946000Y-1766930D01*
X1871070Y-1692000D02*
X2020930Y-1692000D01*
X1871070Y-3517070D02*
X2020930Y-3666930D01*
X2020930Y-3517070D02*
X1871070Y-3666930D01*
X1946000Y-3517070D02*
X1946000Y-3666930D01*
X1871070Y-3592000D02*
X2020930Y-3592000D01*
X1871070Y-5417070D02*
X2020930Y-5566930D01*
X2020930Y-5417070D02*
X1871070Y-5566930D01*
X1946000Y-5417070D02*
X1946000Y-5566930D01*
X1871070Y-5492000D02*
X2020930Y-5492000D01*
X1871070Y-7317070D02*
X2020930Y-7466930D01*
X2020930Y-7317070D02*
X1871070Y-7466930D01*
X1946000Y-7317070D02*
X1946000Y-7466930D01*
X1871070Y-7392000D02*
X2020930Y-7392000D01*
X2379070Y-1617070D02*
X2528930Y-1766930D01*
X2528930Y-1617070D02*
X2379070Y-1766930D01*
X2454000Y-1617070D02*
X2454000Y-1766930D01*
X2379070Y-1692000D02*
X2528930Y-1692000D01*
X2379070Y-3517070D02*
X2528930Y-3666930D01*
X2528930Y-3517070D02*
X2379070Y-3666930D01*
X2454000Y-3517070D02*
X2454000Y-3666930D01*
X2379070Y-3592000D02*
X2528930Y-3592000D01*
X2379070Y-5417070D02*
X2528930Y-5566930D01*
X2528930Y-5417070D02*
X2379070Y-5566930D01*
X2454000Y-5417070D02*
X2454000Y-5566930D01*
X2379070Y-5492000D02*
X2528930Y-5492000D01*
X2379070Y-7317070D02*
X2528930Y-7466930D01*
X2528930Y-7317070D02*
X2379070Y-7466930D01*
X2454000Y-7317070D02*
X2454000Y-7466930D01*
X2379070Y-7392000D02*
X2528930Y-7392000D01*
X2506070Y-1871070D02*
X2655930Y-2020930D01*
X2655930Y-1871070D02*
X2506070Y-2020930D01*
X2581000Y-1871070D02*
X2581000Y-2020930D01*
X2506070Y-1946000D02*
X2655930Y-1946000D01*
X2506070Y-3771070D02*
X2655930Y-3920930D01*
X2655930Y-3771070D02*
X2506070Y-3920930D01*
X2581000Y-3771070D02*
X2581000Y-3920930D01*
X2506070Y-3846000D02*
X2655930Y-3846000D01*
X2506070Y-5671070D02*
X2655930Y-5820930D01*
X2655930Y-5671070D02*
X2506070Y-5820930D01*
X2581000Y-5671070D02*
X2581000Y-5820930D01*
X2506070Y-5746000D02*
X2655930Y-5746000D01*
X2506070Y-7571070D02*
X2655930Y-7720930D01*
X2655930Y-7571070D02*
X2506070Y-7720930D01*
X2581000Y-7571070D02*
X2581000Y-7720930D01*
X2506070Y-7646000D02*
X2655930Y-7646000D01*
X3644070Y-1871070D02*
X3793930Y-2020930D01*
X3793930Y-1871070D02*
X3644070Y-2020930D01*
X3719000Y-1871070D02*
X3719000Y-2020930D01*
X3644070Y-1946000D02*
X3793930Y-1946000D01*
X3644070Y-3771070D02*
X3793930Y-3920930D01*
X3793930Y-3771070D02*
X3644070Y-3920930D01*
X3719000Y-3771070D02*
X3719000Y-3920930D01*
X3644070Y-3846000D02*
X3793930Y-3846000D01*
X3644070Y-5671070D02*
X3793930Y-5820930D01*
X3793930Y-5671070D02*
X3644070Y-5820930D01*
X3719000Y-5671070D02*
X3719000Y-5820930D01*
X3644070Y-5746000D02*
X3793930Y-5746000D01*
X3644070Y-7571070D02*
X3793930Y-7720930D01*
X3793930Y-7571070D02*
X3644070Y-7720930D01*
X3719000Y-7571070D02*
X3719000Y-7720930D01*
X3644070Y-7646000D02*
X3793930Y-7646000D01*
X3771070Y-1617070D02*
X3920930Y-1766930D01*
X3920930Y-1617070D02*
X3771070Y-1766930D01*
X3846000Y-1617070D02*
X3846000Y-1766930D01*
X3771070Y-1692000D02*
X3920930Y-1692000D01*
X3771070Y-3517070D02*
X3920930Y-3666930D01*
X3920930Y-3517070D02*
X3771070Y-3666930D01*
X3846000Y-3517070D02*
X3846000Y-3666930D01*
X3771070Y-3592000D02*
X3920930Y-3592000D01*
X3771070Y-5417070D02*
X3920930Y-5566930D01*
X3920930Y-5417070D02*
X3771070Y-5566930D01*
X3846000Y-5417070D02*
X3846000Y-5566930D01*
X3771070Y-5492000D02*
X3920930Y-5492000D01*
X3771070Y-7317070D02*
X3920930Y-7466930D01*
X3920930Y-7317070D02*
X3771070Y-7466930D01*
X3846000Y-7317070D02*
X3846000Y-7466930D01*
X3771070Y-7392000D02*
X3920930Y-7392000D01*
X4279070Y-1617070D02*
X4428930Y-1766930D01*
X4428930Y-1617070D02*
X4279070Y-1766930D01*
X4354000Y-1617070D02*
X4354000Y-1766930D01*
X4279070Y-1692000D02*
X4428930Y-1692000D01*
X4279070Y-3517070D02*
X4428930Y-3666930D01*
X4428930Y-3517070D02*
X4279070Y-3666930D01*
X4354000Y-3517070D02*
X4354000Y-3666930D01*
X4279070Y-3592000D02*
X4428930Y-3592000D01*
X4279070Y-5417070D02*
X4428930Y-5566930D01*
X4428930Y-5417070D02*
X4279070Y-5566930D01*
X4354000Y-5417070D02*
X4354000Y-5566930D01*
X4279070Y-5492000D02*
X4428930Y-5492000D01*
X4279070Y-7317070D02*
X4428930Y-7466930D01*
X4428930Y-7317070D02*
X4279070Y-7466930D01*
X4354000Y-7317070D02*
X4354000Y-7466930D01*
X4279070Y-7392000D02*
X4428930Y-7392000D01*
X4406070Y-1871070D02*
X4555930Y-2020930D01*
X4555930Y-1871070D02*
X4406070Y-2020930D01*
X4481000Y-1871070D02*
X4481000Y-2020930D01*
X4406070Y-1946000D02*
X4555930Y-1946000D01*
X4406070Y-3771070D02*
X4555930Y-3920930D01*
X4555930Y-3771070D02*
X4406070Y-3920930D01*
X4481000Y-3771070D02*
X4481000Y-3920930D01*
X4406070Y-3846000D02*
X4555930Y-3846000D01*
X4406070Y-5671070D02*
X4555930Y-5820930D01*
X4555930Y-5671070D02*
X4406070Y-5820930D01*
X4481000Y-5671070D02*
X4481000Y-5820930D01*
X4406070Y-5746000D02*
X4555930Y-5746000D01*
X4406070Y-7571070D02*
X4555930Y-7720930D01*
X4555930Y-7571070D02*
X4406070Y-7720930D01*
X4481000Y-7571070D02*
X4481000Y-7720930D01*
X4406070Y-7646000D02*
X4555930Y-7646000D01*
X5544070Y-1871070D02*
X5693930Y-2020930D01*
X5693930Y-1871070D02*
X5544070Y-2020930D01*
X5619000Y-1871070D02*
X5619000Y-2020930D01*
X5544070Y-1946000D02*
X5693930Y-1946000D01*
X5544070Y-3771070D02*
X5693930Y-3920930D01*
X5693930Y-3771070D02*
X5544070Y-3920930D01*
X5619000Y-3771070D02*
X5619000Y-3920930D01*
X5544070Y-3846000D02*
X5693930Y-3846000D01*
X5544070Y-5671070D02*
X5693930Y-5820930D01*
X5693930Y-5671070D02*
X5544070Y-5820930D01*
X5619000Y-5671070D02*
X5619000Y-5820930D01*
X5544070Y-5746000D02*
X5693930Y-5746000D01*
X5544070Y-7571070D02*
X5693930Y-7720930D01*
X5693930Y-7571070D02*
X5544070Y-7720930D01*
X5619000Y-7571070D02*
X5619000Y-7720930D01*
X5544070Y-7646000D02*
X5693930Y-7646000D01*
X5671070Y-1617070D02*
X5820930Y-1766930D01*
X5820930Y-1617070D02*
X5671070Y-1766930D01*
X5746000Y-1617070D02*
X5746000Y-1766930D01*
X5671070Y-1692000D02*
X5820930Y-1692000D01*
X5671070Y-3517070D02*
X5820930Y-3666930D01*
X5820930Y-3517070D02*
X5671070Y-3666930D01*
X5746000Y-3517070D02*
X5746000Y-3666930D01*
X5671070Y-3592000D02*
X5820930Y-3592000D01*
X5671070Y-5417070D02*
X5820930Y-5566930D01*
X5820930Y-5417070D02*
X5671070Y-5566930D01*
X5746000Y-5417070D02*
X5746000Y-5566930D01*
X5671070Y-5492000D02*
X5820930Y-5492000D01*
X5671070Y-7317070D02*
X5820930Y-7466930D01*
X5820930Y-7317070D02*
X5671070Y-7466930D01*
X5746000Y-7317070D02*
X5746000Y-7466930D01*
X5671070Y-7392000D02*
X5820930Y-7392000D01*
X6179070Y-1617070D02*
X6328930Y-1766930D01*
X6328930Y-1617070D02*
X6179070Y-1766930D01*
X6254000Y-1617070D02*
X6254000Y-1766930D01*
X6179070Y-1692000D02*
X6328930Y-1692000D01*
X6179070Y-3517070D02*
X6328930Y-3666930D01*
X6328930Y-3517070D02*
X6179070Y-3666930D01*
X6254000Y-3517070D02*
X6254000Y-3666930D01*
X6179070Y-3592000D02*
X6328930Y-3592000D01*
X6179070Y-5417070D02*
X6328930Y-5566930D01*
X6328930Y-5417070D02*
X6179070Y-5566930D01*
X6254000Y-5417070D02*
X6254000Y-5566930D01*
X6179070Y-5492000D02*
X6328930Y-5492000D01*
X6179070Y-7317070D02*
X6328930Y-7466930D01*
X6328930Y-7317070D02*
X6179070Y-7466930D01*
X6254000Y-7317070D02*
X6254000Y-7466930D01*
X6179070Y-7392000D02*
X6328930Y-7392000D01*
X6306070Y-1871070D02*
X6455930Y-2020930D01*
X6455930Y-1871070D02*
X6306070Y-2020930D01*
X6381000Y-1871070D02*
X6381000Y-2020930D01*
X6306070Y-1946000D02*
X6455930Y-1946000D01*
X6306070Y-3771070D02*
X6455930Y-3920930D01*
X6455930Y-3771070D02*
X6306070Y-3920930D01*
X6381000Y-3771070D02*
X6381000Y-3920930D01*
X6306070Y-3846000D02*
X6455930Y-3846000D01*
X6306070Y-5671070D02*
X6455930Y-5820930D01*
X6455930Y-5671070D02*
X6306070Y-5820930D01*
X6381000Y-5671070D02*
X6381000Y-5820930D01*
X6306070Y-5746000D02*
X6455930Y-5746000D01*
X6306070Y-7571070D02*
X6455930Y-7720930D01*
X6455930Y-7571070D02*
X6306070Y-7720930D01*
X6381000Y-7571070D02*
X6381000Y-7720930D01*
X6306070Y-7646000D02*
X6455930Y-7646000D01*
X7944070Y-1871070D02*
X8093930Y-2020930D01*
X8093930Y-1871070D02*
X7944070Y-2020930D01*
X8019000Y-1871070D02*
X8019000Y-2020930D01*
X7944070Y-1946000D02*
X8093930Y-1946000D01*
X7944070Y-3771070D02*
X8093930Y-3920930D01*
X8093930Y-3771070D02*
X7944070Y-3920930D01*
X8019000Y-3771070D02*
X8019000Y-3920930D01*
X7944070Y-3846000D02*
X8093930Y-3846000D01*
X7944070Y-5671070D02*
X8093930Y-5820930D01*
X8093930Y-5671070D02*
X7944070Y-5820930D01*
X8019000Y-5671070D02*
X8019000Y-5820930D01*
X7944070Y-5746000D02*
X8093930Y-5746000D01*
X7944070Y-7571070D02*
X8093930Y-7720930D01*
X8093930Y-7571070D02*
X7944070Y-7720930D01*
X8019000Y-7571070D02*
X8019000Y-7720930D01*
X7944070Y-7646000D02*
X8093930Y-7646000D01*
X8071070Y-1617070D02*
X8220930Y-1766930D01*
X8220930Y-1617070D02*
X8071070Y-1766930D01*
X8146000Y-1617070D02*
X8146000Y-1766930D01*
X8071070Y-1692000D02*
X8220930Y-1692000D01*
X8071070Y-3517070D02*
X8220930Y-3666930D01*
X8220930Y-3517070D02*
X8071070Y-3666930D01*
X8146000Y-3517070D02*
X8146000Y-3666930D01*
X8071070Y-3592000D02*
X8220930Y-3592000D01*
X8071070Y-5417070D02*
X8220930Y-5566930D01*
X8220930Y-5417070D02*
X8071070Y-5566930D01*
X8146000Y-5417070D02*
X8146000Y-5566930D01*
X8071070Y-5492000D02*
X8220930Y-5492000D01*
X8071070Y-7317070D02*
X8220930Y-7466930D01*
X8220930Y-7317070D02*
X8071070Y-7466930D01*
X8146000Y-7317070D02*
X8146000Y-7466930D01*
X8071070Y-7392000D02*
X8220930Y-7392000D01*
X8579070Y-1617070D02*
X8728930Y-1766930D01*
X8728930Y-1617070D02*
X8579070Y-1766930D01*
X8654000Y-1617070D02*
X8654000Y-1766930D01*
X8579070Y-1692000D02*
X8728930Y-1692000D01*
X8579070Y-3517070D02*
X8728930Y-3666930D01*
X8728930Y-3517070D02*
X8579070Y-3666930D01*
X8654000Y-3517070D02*
X8654000Y-3666930D01*
X8579070Y-3592000D02*
X8728930Y-3592000D01*
X8579070Y-5417070D02*
X8728930Y-5566930D01*
X8728930Y-5417070D02*
X8579070Y-5566930D01*
X8654000Y-5417070D02*
X8654000Y-5566930D01*
X8579070Y-5492000D02*
X8728930Y-5492000D01*
X8579070Y-7317070D02*
X8728930Y-7466930D01*
X8728930Y-7317070D02*
X8579070Y-7466930D01*
X8654000Y-7317070D02*
X8654000Y-7466930D01*
X8579070Y-7392000D02*
X8728930Y-7392000D01*
X8706070Y-1871070D02*
X8855930Y-2020930D01*
X8855930Y-1871070D02*
X8706070Y-2020930D01*
X8781000Y-1871070D02*
X8781000Y-2020930D01*
X8706070Y-1946000D02*
X8855930Y-1946000D01*
X8706070Y-3771070D02*
X8855930Y-3920930D01*
X8855930Y-3771070D02*
X8706070Y-3920930D01*
X8781000Y-3771070D02*
X8781000Y-3920930D01*
X8706070Y-3846000D02*
X8855930Y-3846000D01*
X8706070Y-5671070D02*
X8855930Y-5820930D01*
X8855930Y-5671070D02*
X8706070Y-5820930D01*
X8781000Y-5671070D02*
X8781000Y-5820930D01*
X8706070Y-5746000D02*
X8855930Y-5746000D01*
X8706070Y-7571070D02*
X8855930Y-7720930D01*
X8855930Y-7571070D02*
X8706070Y-7720930D01*
X8781000Y-7571070D02*
X8781000Y-7720930D01*
X8706070Y-7646000D02*
X8855930Y-7646000D01*
X9844070Y-1871070D02*
X9993930Y-2020930D01*
X9993930Y-1871070D02*
X9844070Y-2020930D01*
X9919000Y-1871070D02*
X9919000Y-2020930D01*
X9844070Y-1946000D02*
X9993930Y-1946000D01*
X9844070Y-3771070D02*
X9993930Y-3920930D01*
X9993930Y-3771070D02*
X9844070Y-3920930D01*
X9919000Y-3771070D02*
X9919000Y-3920930D01*
X9844070Y-3846000D02*
X9993930Y-3846000D01*
X9844070Y-5671070D02*
X9993930Y-5820930D01*
X9993930Y-5671070D02*
X9844070Y-5820930D01*
X9919000Y-5671070D02*
X9919000Y-5820930D01*
X9844070Y-5746000D02*
X9993930Y-5746000D01*
X9844070Y-7571070D02*
X9993930Y-7720930D01*
X9993930Y-7571070D02*
X9844070Y-7720930D01*
X9919000Y-7571070D02*
X9919000Y-7720930D01*
X9844070Y-7646000D02*
X9993930Y-7646000D01*
X9971070Y-1617070D02*
X10120930Y-1766930D01*
X10120930Y-1617070D02*
X9971070Y-1766930D01*
X10046000Y-1617070D02*
X10046000Y-1766930D01*
X9971070Y-1692000D02*
X10120930Y-1692000D01*
X9971070Y-3517070D02*
X10120930Y-3666930D01*
X10120930Y-3517070D02*
X9971070Y-3666930D01*
X10046000Y-3517070D02*
X10046000Y-3666930D01*
X9971070Y-3592000D02*
X10120930Y-3592000D01*
X9971070Y-5417070D02*
X10120930Y-5566930D01*
X10120930Y-5417070D02*
X9971070Y-5566930D01*
X10046000Y-5417070D02*
X10046000Y-5566930D01*
X9971070Y-5492000D02*
X10120930Y-5492000D01*
X9971070Y-7317070D02*
X10120930Y-7466930D01*
X10120930Y-7317070D02*
X9971070Y-7466930D01*
X10046000Y-7317070D02*
X10046000Y-7466930D01*
X9971070Y-7392000D02*
X10120930Y-7392000D01*
X10479070Y-1617070D02*
X10628930Y-1766930D01*
X10628930Y-1617070D02*
X10479070Y-1766930D01*
X10554000Y-1617070D02*
X10554000Y-1766930D01*
X10479070Y-1692000D02*
X10628930Y-1692000D01*
X10479070Y-3517070D02*
X10628930Y-3666930D01*
X10628930Y-3517070D02*
X10479070Y-3666930D01*
X10554000Y-3517070D02*
X10554000Y-3666930D01*
X10479070Y-3592000D02*
X10628930Y-3592000D01*
X10479070Y-5417070D02*
X10628930Y-5566930D01*
X10628930Y-5417070D02*
X10479070Y-5566930D01*
X10554000Y-5417070D02*
X10554000Y-5566930D01*
X10479070Y-5492000D02*
X10628930Y-5492000D01*
X10479070Y-7317070D02*
X10628930Y-7466930D01*
X10628930Y-7317070D02*
X10479070Y-7466930D01*
X10554000Y-7317070D02*
X10554000Y-7466930D01*
X10479070Y-7392000D02*
X10628930Y-7392000D01*
X10606070Y-1871070D02*
X10755930Y-2020930D01*
X10755930Y-1871070D02*
X10606070Y-2020930D01*
X10681000Y-1871070D02*
X10681000Y-2020930D01*
X10606070Y-1946000D02*
X10755930Y-1946000D01*
X10606070Y-3771070D02*
X10755930Y-3920930D01*
X10755930Y-3771070D02*
X10606070Y-3920930D01*
X10681000Y-3771070D02*
X10681000Y-3920930D01*
X10606070Y-3846000D02*
X10755930Y-3846000D01*
X10606070Y-5671070D02*
X10755930Y-5820930D01*
X10755930Y-5671070D02*
X10606070Y-5820930D01*
X10681000Y-5671070D02*
X10681000Y-5820930D01*
X10606070Y-5746000D02*
X10755930Y-5746000D01*
X10606070Y-7571070D02*
X10755930Y-7720930D01*
X10755930Y-7571070D02*
X10606070Y-7720930D01*
X10681000Y-7571070D02*
X10681000Y-7720930D01*
X10606070Y-7646000D02*
X10755930Y-7646000D01*
X11744070Y-1871070D02*
X11893930Y-2020930D01*
X11893930Y-1871070D02*
X11744070Y-2020930D01*
X11819000Y-1871070D02*
X11819000Y-2020930D01*
X11744070Y-1946000D02*
X11893930Y-1946000D01*
X11744070Y-3771070D02*
X11893930Y-3920930D01*
X11893930Y-3771070D02*
X11744070Y-3920930D01*
X11819000Y-3771070D02*
X11819000Y-3920930D01*
X11744070Y-3846000D02*
X11893930Y-3846000D01*
X11744070Y-5671070D02*
X11893930Y-5820930D01*
X11893930Y-5671070D02*
X11744070Y-5820930D01*
X11819000Y-5671070D02*
X11819000Y-5820930D01*
X11744070Y-5746000D02*
X11893930Y-5746000D01*
X11744070Y-7571070D02*
X11893930Y-7720930D01*
X11893930Y-7571070D02*
X11744070Y-7720930D01*
X11819000Y-7571070D02*
X11819000Y-7720930D01*
X11744070Y-7646000D02*
X11893930Y-7646000D01*
X11871070Y-1617070D02*
X12020930Y-1766930D01*
X12020930Y-1617070D02*
X11871070Y-1766930D01*
X11946000Y-1617070D02*
X11946000Y-1766930D01*
X11871070Y-1692000D02*
X12020930Y-1692000D01*
X11871070Y-3517070D02*
X12020930Y-3666930D01*
X12020930Y-3517070D02*
X11871070Y-3666930D01*
X11946000Y-3517070D02*
X11946000Y-3666930D01*
X11871070Y-3592000D02*
X12020930Y-3592000D01*
X11871070Y-5417070D02*
X12020930Y-5566930D01*
X12020930Y-5417070D02*
X11871070Y-5566930D01*
X11946000Y-5417070D02*
X11946000Y-5566930D01*
X11871070Y-5492000D02*
X12020930Y-5492000D01*
X11871070Y-7317070D02*
X12020930Y-7466930D01*
X12020930Y-7317070D02*
X11871070Y-7466930D01*
X11946000Y-7317070D02*
X11946000Y-7466930D01*
X11871070Y-7392000D02*
X12020930Y-7392000D01*
X12379070Y-1617070D02*
X12528930Y-1766930D01*
X12528930Y-1617070D02*
X12379070Y-1766930D01*
X12454000Y-1617070D02*
X12454000Y-1766930D01*
X12379070Y-1692000D02*
X12528930Y-1692000D01*
X12379070Y-3517070D02*
X12528930Y-3666930D01*
X12528930Y-3517070D02*
X12379070Y-3666930D01*
X12454000Y-3517070D02*
X12454000Y-3666930D01*
X12379070Y-3592000D02*
X12528930Y-3592000D01*
X12379070Y-5417070D02*
X12528930Y-5566930D01*
X12528930Y-5417070D02*
X12379070Y-5566930D01*
X12454000Y-5417070D02*
X12454000Y-5566930D01*
X12379070Y-5492000D02*
X12528930Y-5492000D01*
X12379070Y-7317070D02*
X12528930Y-7466930D01*
X12528930Y-7317070D02*
X12379070Y-7466930D01*
X12454000Y-7317070D02*
X12454000Y-7466930D01*
X12379070Y-7392000D02*
X12528930Y-7392000D01*
X12506070Y-1871070D02*
X12655930Y-2020930D01*
X12655930Y-1871070D02*
X12506070Y-2020930D01*
X12581000Y-1871070D02*
X12581000Y-2020930D01*
X12506070Y-1946000D02*
X12655930Y-1946000D01*
X12506070Y-3771070D02*
X12655930Y-3920930D01*
X12655930Y-3771070D02*
X12506070Y-3920930D01*
X12581000Y-3771070D02*
X12581000Y-3920930D01*
X12506070Y-3846000D02*
X12655930Y-3846000D01*
X12506070Y-5671070D02*
X12655930Y-5820930D01*
X12655930Y-5671070D02*
X12506070Y-5820930D01*
X12581000Y-5671070D02*
X12581000Y-5820930D01*
X12506070Y-5746000D02*
X12655930Y-5746000D01*
X12506070Y-7571070D02*
X12655930Y-7720930D01*
X12655930Y-7571070D02*
X12506070Y-7720930D01*
X12581000Y-7571070D02*
X12581000Y-7720930D01*
X12506070Y-7646000D02*
X12655930Y-7646000D01*
X13644070Y-1871070D02*
X13793930Y-2020930D01*
X13793930Y-1871070D02*
X13644070Y-2020930D01*
X13719000Y-1871070D02*
X13719000Y-2020930D01*
X13644070Y-1946000D02*
X13793930Y-1946000D01*
X13644070Y-3771070D02*
X13793930Y-3920930D01*
X13793930Y-3771070D02*
X13644070Y-3920930D01*
X13719000Y-3771070D02*
X13719000Y-3920930D01*
X13644070Y-3846000D02*
X13793930Y-3846000D01*
X13644070Y-5671070D02*
X13793930Y-5820930D01*
X13793930Y-5671070D02*
X13644070Y-5820930D01*
X13719000Y-5671070D02*
X13719000Y-5820930D01*
X13644070Y-5746000D02*
X13793930Y-5746000D01*
X13644070Y-7571070D02*
X13793930Y-7720930D01*
X13793930Y-7571070D02*
X13644070Y-7720930D01*
X13719000Y-7571070D02*
X13719000Y-7720930D01*
X13644070Y-7646000D02*
X13793930Y-7646000D01*
X13771070Y-1617070D02*
X13920930Y-1766930D01*
X13920930Y-1617070D02*
X13771070Y-1766930D01*
X13846000Y-1617070D02*
X13846000Y-1766930D01*
X13771070Y-1692000D02*
X13920930Y-1692000D01*
X13771070Y-3517070D02*
X13920930Y-3666930D01*
X13920930Y-3517070D02*
X13771070Y-3666930D01*
X13846000Y-3517070D02*
X13846000Y-3666930D01*
X13771070Y-3592000D02*
X13920930Y-3592000D01*
X13771070Y-5417070D02*
X13920930Y-5566930D01*
X13920930Y-5417070D02*
X13771070Y-5566930D01*
X13846000Y-5417070D02*
X13846000Y-5566930D01*
X13771070Y-5492000D02*
X13920930Y-5492000D01*
X13771070Y-7317070D02*
X13920930Y-7466930D01*
X13920930Y-7317070D02*
X13771070Y-7466930D01*
X13846000Y-7317070D02*
X13846000Y-7466930D01*
X13771070Y-7392000D02*
X13920930Y-7392000D01*
X14279070Y-1617070D02*
X14428930Y-1766930D01*
X14428930Y-1617070D02*
X14279070Y-1766930D01*
X14354000Y-1617070D02*
X14354000Y-1766930D01*
X14279070Y-1692000D02*
X14428930Y-1692000D01*
X14279070Y-3517070D02*
X14428930Y-3666930D01*
X14428930Y-3517070D02*
X14279070Y-3666930D01*
X14354000Y-3517070D02*
X14354000Y-3666930D01*
X14279070Y-3592000D02*
X14428930Y-3592000D01*
X14279070Y-5417070D02*
X14428930Y-5566930D01*
X14428930Y-5417070D02*
X14279070Y-5566930D01*
X14354000Y-5417070D02*
X14354000Y-5566930D01*
X14279070Y-5492000D02*
X14428930Y-5492000D01*
X14279070Y-7317070D02*
X14428930Y-7466930D01*
X14428930Y-7317070D02*
X14279070Y-7466930D01*
X14354000Y-7317070D02*
X14354000Y-7466930D01*
X14279070Y-7392000D02*
X14428930Y-7392000D01*
X14406070Y-1871070D02*
X14555930Y-2020930D01*
X14555930Y-1871070D02*
X14406070Y-2020930D01*
X14481000Y-1871070D02*
X14481000Y-2020930D01*
X14406070Y-1946000D02*
X14555930Y-1946000D01*
X14406070Y-3771070D02*
X14555930Y-3920930D01*
X14555930Y-3771070D02*
X14406070Y-3920930D01*
X14481000Y-3771070D02*
X14481000Y-3920930D01*
X14406070Y-3846000D02*
X14555930Y-3846000D01*
X14406070Y-5671070D02*
X14555930Y-5820930D01*
X14555930Y-5671070D02*
X14406070Y-5820930D01*
X14481000Y-5671070D02*
X14481000Y-5820930D01*
X14406070Y-5746000D02*
X14555930Y-5746000D01*
X14406070Y-7571070D02*
X14555930Y-7720930D01*
X14555930Y-7571070D02*
X14406070Y-7720930D01*
X14481000Y-7571070D02*
X14481000Y-7720930D01*
X14406070Y-7646000D02*
X14555930Y-7646000D01*
X15544070Y-1871070D02*
X15693930Y-2020930D01*
X15693930Y-1871070D02*
X15544070Y-2020930D01*
X15619000Y-1871070D02*
X15619000Y-2020930D01*
X15544070Y-1946000D02*
X15693930Y-1946000D01*
X15544070Y-3771070D02*
X15693930Y-3920930D01*
X15693930Y-3771070D02*
X15544070Y-3920930D01*
X15619000Y-3771070D02*
X15619000Y-3920930D01*
X15544070Y-3846000D02*
X15693930Y-3846000D01*
X15544070Y-5671070D02*
X15693930Y-5820930D01*
X15693930Y-5671070D02*
X15544070Y-5820930D01*
X15619000Y-5671070D02*
X15619000Y-5820930D01*
X15544070Y-5746000D02*
X15693930Y-5746000D01*
X15544070Y-7571070D02*
X15693930Y-7720930D01*
X15693930Y-7571070D02*
X15544070Y-7720930D01*
X15619000Y-7571070D02*
X15619000Y-7720930D01*
X15544070Y-7646000D02*
X15693930Y-7646000D01*
X15594070Y-9971070D02*
X15743930Y-10120930D01*
X15743930Y-9971070D02*
X15594070Y-10120930D01*
X15669000Y-9971070D02*
X15669000Y-10120930D01*
X15594070Y-10046000D02*
X15743930Y-10046000D01*
X15671070Y-1617070D02*
X15820930Y-1766930D01*
X15820930Y-1617070D02*
X15671070Y-1766930D01*
X15746000Y-1617070D02*
X15746000Y-1766930D01*
X15671070Y-1692000D02*
X15820930Y-1692000D01*
X15671070Y-3517070D02*
X15820930Y-3666930D01*
X15820930Y-3517070D02*
X15671070Y-3666930D01*
X15746000Y-3517070D02*
X15746000Y-3666930D01*
X15671070Y-3592000D02*
X15820930Y-3592000D01*
X15671070Y-5417070D02*
X15820930Y-5566930D01*
X15820930Y-5417070D02*
X15671070Y-5566930D01*
X15746000Y-5417070D02*
X15746000Y-5566930D01*
X15671070Y-5492000D02*
X15820930Y-5492000D01*
X15671070Y-7317070D02*
X15820930Y-7466930D01*
X15820930Y-7317070D02*
X15671070Y-7466930D01*
X15746000Y-7317070D02*
X15746000Y-7466930D01*
X15671070Y-7392000D02*
X15820930Y-7392000D01*
X15721070Y-9717070D02*
X15870930Y-9866930D01*
X15870930Y-9717070D02*
X15721070Y-9866930D01*
X15796000Y-9717070D02*
X15796000Y-9866930D01*
X15721070Y-9792000D02*
X15870930Y-9792000D01*
X16179070Y-1617070D02*
X16328930Y-1766930D01*
X16328930Y-1617070D02*
X16179070Y-1766930D01*
X16254000Y-1617070D02*
X16254000Y-1766930D01*
X16179070Y-1692000D02*
X16328930Y-1692000D01*
X16179070Y-3517070D02*
X16328930Y-3666930D01*
X16328930Y-3517070D02*
X16179070Y-3666930D01*
X16254000Y-3517070D02*
X16254000Y-3666930D01*
X16179070Y-3592000D02*
X16328930Y-3592000D01*
X16179070Y-5417070D02*
X16328930Y-5566930D01*
X16328930Y-5417070D02*
X16179070Y-5566930D01*
X16254000Y-5417070D02*
X16254000Y-5566930D01*
X16179070Y-5492000D02*
X16328930Y-5492000D01*
X16179070Y-7317070D02*
X16328930Y-7466930D01*
X16328930Y-7317070D02*
X16179070Y-7466930D01*
X16254000Y-7317070D02*
X16254000Y-7466930D01*
X16179070Y-7392000D02*
X16328930Y-7392000D01*
X16229070Y-9717070D02*
X16378930Y-9866930D01*
X16378930Y-9717070D02*
X16229070Y-9866930D01*
X16304000Y-9717070D02*
X16304000Y-9866930D01*
X16229070Y-9792000D02*
X16378930Y-9792000D01*
X16306070Y-1871070D02*
X16455930Y-2020930D01*
X16455930Y-1871070D02*
X16306070Y-2020930D01*
X16381000Y-1871070D02*
X16381000Y-2020930D01*
X16306070Y-1946000D02*
X16455930Y-1946000D01*
X16306070Y-3771070D02*
X16455930Y-3920930D01*
X16455930Y-3771070D02*
X16306070Y-3920930D01*
X16381000Y-3771070D02*
X16381000Y-3920930D01*
X16306070Y-3846000D02*
X16455930Y-3846000D01*
X16306070Y-5671070D02*
X16455930Y-5820930D01*
X16455930Y-5671070D02*
X16306070Y-5820930D01*
X16381000Y-5671070D02*
X16381000Y-5820930D01*
X16306070Y-5746000D02*
X16455930Y-5746000D01*
X16306070Y-7571070D02*
X16455930Y-7720930D01*
X16455930Y-7571070D02*
X16306070Y-7720930D01*
X16381000Y-7571070D02*
X16381000Y-7720930D01*
X16306070Y-7646000D02*
X16455930Y-7646000D01*
X16356070Y-9971070D02*
X16505930Y-10120930D01*
X16505930Y-9971070D02*
X16356070Y-10120930D01*
X16431000Y-9971070D02*
X16431000Y-10120930D01*
X16356070Y-10046000D02*
X16505930Y-10046000D01*
X17444070Y-1871070D02*
X17593930Y-2020930D01*
X17593930Y-1871070D02*
X17444070Y-2020930D01*
X17519000Y-1871070D02*
X17519000Y-2020930D01*
X17444070Y-1946000D02*
X17593930Y-1946000D01*
X17444070Y-3771070D02*
X17593930Y-3920930D01*
X17593930Y-3771070D02*
X17444070Y-3920930D01*
X17519000Y-3771070D02*
X17519000Y-3920930D01*
X17444070Y-3846000D02*
X17593930Y-3846000D01*
X17444070Y-5671070D02*
X17593930Y-5820930D01*
X17593930Y-5671070D02*
X17444070Y-5820930D01*
X17519000Y-5671070D02*
X17519000Y-5820930D01*
X17444070Y-5746000D02*
X17593930Y-5746000D01*
X17444070Y-7571070D02*
X17593930Y-7720930D01*
X17593930Y-7571070D02*
X17444070Y-7720930D01*
X17519000Y-7571070D02*
X17519000Y-7720930D01*
X17444070Y-7646000D02*
X17593930Y-7646000D01*
X17494070Y-9971070D02*
X17643930Y-10120930D01*
X17643930Y-9971070D02*
X17494070Y-10120930D01*
X17569000Y-9971070D02*
X17569000Y-10120930D01*
X17494070Y-10046000D02*
X17643930Y-10046000D01*
X17571070Y-1617070D02*
X17720930Y-1766930D01*
X17720930Y-1617070D02*
X17571070Y-1766930D01*
X17646000Y-1617070D02*
X17646000Y-1766930D01*
X17571070Y-1692000D02*
X17720930Y-1692000D01*
X17571070Y-3517070D02*
X17720930Y-3666930D01*
X17720930Y-3517070D02*
X17571070Y-3666930D01*
X17646000Y-3517070D02*
X17646000Y-3666930D01*
X17571070Y-3592000D02*
X17720930Y-3592000D01*
X17571070Y-5417070D02*
X17720930Y-5566930D01*
X17720930Y-5417070D02*
X17571070Y-5566930D01*
X17646000Y-5417070D02*
X17646000Y-5566930D01*
X17571070Y-5492000D02*
X17720930Y-5492000D01*
X17571070Y-7317070D02*
X17720930Y-7466930D01*
X17720930Y-7317070D02*
X17571070Y-7466930D01*
X17646000Y-7317070D02*
X17646000Y-7466930D01*
X17571070Y-7392000D02*
X17720930Y-7392000D01*
X17621070Y-9717070D02*
X17770930Y-9866930D01*
X17770930Y-9717070D02*
X17621070Y-9866930D01*
X17696000Y-9717070D02*
X17696000Y-9866930D01*
X17621070Y-9792000D02*
X17770930Y-9792000D01*
X18079070Y-1617070D02*
X18228930Y-1766930D01*
X18228930Y-1617070D02*
X18079070Y-1766930D01*
X18154000Y-1617070D02*
X18154000Y-1766930D01*
X18079070Y-1692000D02*
X18228930Y-1692000D01*
X18079070Y-3517070D02*
X18228930Y-3666930D01*
X18228930Y-3517070D02*
X18079070Y-3666930D01*
X18154000Y-3517070D02*
X18154000Y-3666930D01*
X18079070Y-3592000D02*
X18228930Y-3592000D01*
X18079070Y-5417070D02*
X18228930Y-5566930D01*
X18228930Y-5417070D02*
X18079070Y-5566930D01*
X18154000Y-5417070D02*
X18154000Y-5566930D01*
X18079070Y-5492000D02*
X18228930Y-5492000D01*
X18079070Y-7317070D02*
X18228930Y-7466930D01*
X18228930Y-7317070D02*
X18079070Y-7466930D01*
X18154000Y-7317070D02*
X18154000Y-7466930D01*
X18079070Y-7392000D02*
X18228930Y-7392000D01*
X18129070Y-9717070D02*
X18278930Y-9866930D01*
X18278930Y-9717070D02*
X18129070Y-9866930D01*
X18204000Y-9717070D02*
X18204000Y-9866930D01*
X18129070Y-9792000D02*
X18278930Y-9792000D01*
X18206070Y-1871070D02*
X18355930Y-2020930D01*
X18355930Y-1871070D02*
X18206070Y-2020930D01*
X18281000Y-1871070D02*
X18281000Y-2020930D01*
X18206070Y-1946000D02*
X18355930Y-1946000D01*
X18206070Y-3771070D02*
X18355930Y-3920930D01*
X18355930Y-3771070D02*
X18206070Y-3920930D01*
X18281000Y-3771070D02*
X18281000Y-3920930D01*
X18206070Y-3846000D02*
X18355930Y-3846000D01*
X18206070Y-5671070D02*
X18355930Y-5820930D01*
X18355930Y-5671070D02*
X18206070Y-5820930D01*
X18281000Y-5671070D02*
X18281000Y-5820930D01*
X18206070Y-5746000D02*
X18355930Y-5746000D01*
X18206070Y-7571070D02*
X18355930Y-7720930D01*
X18355930Y-7571070D02*
X18206070Y-7720930D01*
X18281000Y-7571070D02*
X18281000Y-7720930D01*
X18206070Y-7646000D02*
X18355930Y-7646000D01*
X18256070Y-9971070D02*
X18405930Y-10120930D01*
X18405930Y-9971070D02*
X18256070Y-10120930D01*
X18331000Y-9971070D02*
X18331000Y-10120930D01*
X18256070Y-10046000D02*
X18405930Y-10046000D01*
X19394070Y-9971070D02*
X19543930Y-10120930D01*
X19543930Y-9971070D02*
X19394070Y-10120930D01*
X19469000Y-9971070D02*
X19469000Y-10120930D01*
X19394070Y-10046000D02*
X19543930Y-10046000D01*
X19521070Y-9717070D02*
X19670930Y-9866930D01*
X19670930Y-9717070D02*
X19521070Y-9866930D01*
X19596000Y-9717070D02*
X19596000Y-9866930D01*
X19521070Y-9792000D02*
X19670930Y-9792000D01*
X20029070Y-9717070D02*
X20178930Y-9866930D01*
X20178930Y-9717070D02*
X20029070Y-9866930D01*
X20104000Y-9717070D02*
X20104000Y-9866930D01*
X20029070Y-9792000D02*
X20178930Y-9792000D01*
X20156070Y-9971070D02*
X20305930Y-10120930D01*
X20305930Y-9971070D02*
X20156070Y-10120930D01*
X20231000Y-9971070D02*
X20231000Y-10120930D01*
X20156070Y-10046000D02*
X20305930Y-10046000D01*
D11*
X19240000Y-6850000D02*
X19440000Y-7050000D01*
X19440000Y-6850000D02*
X19240000Y-7050000D01*
X19410711Y-7020711D02*
X19410711Y-6879289D01*
X19269289Y-6879289D01*
X19269289Y-7020711D01*
X19410711Y-7020711D01*
X19240000Y-6925000D02*
X19240000Y-6975000D01*
X19440000Y-6925000D02*
X19440000Y-6975000D01*
X19240000Y-6975000D02*
G75*
G03*
X19440000Y-6975000I100000J0D01*
G01*
X19440000Y-6925000D02*
G75*
G03*
X19240000Y-6925000I-100000J0D01*
G01*
X20360000Y-6850000D02*
X20560000Y-7050000D01*
X20560000Y-6850000D02*
X20360000Y-7050000D01*
X20530711Y-7020711D02*
X20530711Y-6879289D01*
X20389289Y-6879289D01*
X20389289Y-7020711D01*
X20530711Y-7020711D01*
X20360000Y-6925000D02*
X20360000Y-6975000D01*
X20560000Y-6925000D02*
X20560000Y-6975000D01*
X20360000Y-6975000D02*
G75*
G03*
X20560000Y-6975000I100000J0D01*
G01*
X20560000Y-6925000D02*
G75*
G03*
X20360000Y-6925000I-100000J0D01*
G01*
X1502619Y-11565476D02*
X1502619Y-11365476D01*
X1550238Y-11365476D01*
X1578809Y-11375000D01*
X1597857Y-11394048D01*
X1607381Y-11413095D01*
X1616905Y-11451190D01*
X1616905Y-11479762D01*
X1607381Y-11517857D01*
X1597857Y-11536905D01*
X1578809Y-11555952D01*
X1550238Y-11565476D01*
X1502619Y-11565476D01*
X1702619Y-11565476D02*
X1702619Y-11432143D01*
X1702619Y-11470238D02*
X1712143Y-11451190D01*
X1721667Y-11441667D01*
X1740714Y-11432143D01*
X1759762Y-11432143D01*
X1826428Y-11565476D02*
X1826428Y-11432143D01*
X1826428Y-11365476D02*
X1816905Y-11375000D01*
X1826428Y-11384524D01*
X1835952Y-11375000D01*
X1826428Y-11365476D01*
X1826428Y-11384524D01*
X1950238Y-11565476D02*
X1931190Y-11555952D01*
X1921667Y-11536905D01*
X1921667Y-11365476D01*
X2055000Y-11565476D02*
X2035952Y-11555952D01*
X2026428Y-11536905D01*
X2026428Y-11365476D01*
X2283571Y-11565476D02*
X2283571Y-11365476D01*
X2350238Y-11508333D01*
X2416905Y-11365476D01*
X2416905Y-11565476D01*
X2597857Y-11565476D02*
X2597857Y-11460714D01*
X2588333Y-11441667D01*
X2569286Y-11432143D01*
X2531190Y-11432143D01*
X2512143Y-11441667D01*
X2597857Y-11555952D02*
X2578810Y-11565476D01*
X2531190Y-11565476D01*
X2512143Y-11555952D01*
X2502619Y-11536905D01*
X2502619Y-11517857D01*
X2512143Y-11498809D01*
X2531190Y-11489286D01*
X2578810Y-11489286D01*
X2597857Y-11479762D01*
X2693095Y-11432143D02*
X2693095Y-11632143D01*
X2693095Y-11441667D02*
X2712143Y-11432143D01*
X2750238Y-11432143D01*
X2769286Y-11441667D01*
X2778810Y-11451190D01*
X2788333Y-11470238D01*
X2788333Y-11527381D01*
X2778810Y-11546428D01*
X2769286Y-11555952D01*
X2750238Y-11565476D01*
X2712143Y-11565476D01*
X2693095Y-11555952D01*
X2874048Y-11546428D02*
X2883571Y-11555952D01*
X2874048Y-11565476D01*
X2864524Y-11555952D01*
X2874048Y-11546428D01*
X2874048Y-11565476D01*
X2874048Y-11441667D02*
X2883571Y-11451190D01*
X2874048Y-11460714D01*
X2864524Y-11451190D01*
X2874048Y-11441667D01*
X2874048Y-11460714D01*
D12*
X1205000Y-11875000D02*
X1245000Y-11915000D01*
X1245000Y-11875000D02*
X1205000Y-11915000D01*
D11*
X1540714Y-11785476D02*
X1559762Y-11785476D01*
X1578809Y-11795000D01*
X1588333Y-11804524D01*
X1597857Y-11823571D01*
X1607381Y-11861667D01*
X1607381Y-11909286D01*
X1597857Y-11947381D01*
X1588333Y-11966428D01*
X1578809Y-11975952D01*
X1559762Y-11985476D01*
X1540714Y-11985476D01*
X1521667Y-11975952D01*
X1512143Y-11966428D01*
X1502619Y-11947381D01*
X1493095Y-11909286D01*
X1493095Y-11861667D01*
X1502619Y-11823571D01*
X1512143Y-11804524D01*
X1521667Y-11795000D01*
X1540714Y-11785476D01*
X1693095Y-11966428D02*
X1702619Y-11975952D01*
X1693095Y-11985476D01*
X1683571Y-11975952D01*
X1693095Y-11966428D01*
X1693095Y-11985476D01*
X1874048Y-11852143D02*
X1874048Y-11985476D01*
X1826428Y-11775952D02*
X1778809Y-11918809D01*
X1902619Y-11918809D01*
X2016905Y-11785476D02*
X2035952Y-11785476D01*
X2055000Y-11795000D01*
X2064524Y-11804524D01*
X2074048Y-11823571D01*
X2083571Y-11861667D01*
X2083571Y-11909286D01*
X2074048Y-11947381D01*
X2064524Y-11966428D01*
X2055000Y-11975952D01*
X2035952Y-11985476D01*
X2016905Y-11985476D01*
X1997857Y-11975952D01*
X1988333Y-11966428D01*
X1978809Y-11947381D01*
X1969286Y-11909286D01*
X1969286Y-11861667D01*
X1978809Y-11823571D01*
X1988333Y-11804524D01*
X1997857Y-11795000D01*
X2016905Y-11785476D01*
X2207381Y-11785476D02*
X2226429Y-11785476D01*
X2245476Y-11795000D01*
X2255000Y-11804524D01*
X2264524Y-11823571D01*
X2274048Y-11861667D01*
X2274048Y-11909286D01*
X2264524Y-11947381D01*
X2255000Y-11966428D01*
X2245476Y-11975952D01*
X2226429Y-11985476D01*
X2207381Y-11985476D01*
X2188333Y-11975952D01*
X2178810Y-11966428D01*
X2169286Y-11947381D01*
X2159762Y-11909286D01*
X2159762Y-11861667D01*
X2169286Y-11823571D01*
X2178810Y-11804524D01*
X2188333Y-11795000D01*
X2207381Y-11785476D01*
X2359762Y-11985476D02*
X2359762Y-11852143D01*
X2359762Y-11871190D02*
X2369286Y-11861667D01*
X2388333Y-11852143D01*
X2416905Y-11852143D01*
X2435952Y-11861667D01*
X2445476Y-11880714D01*
X2445476Y-11985476D01*
X2445476Y-11880714D02*
X2455000Y-11861667D01*
X2474048Y-11852143D01*
X2502619Y-11852143D01*
X2521667Y-11861667D01*
X2531190Y-11880714D01*
X2531190Y-11985476D01*
X2626429Y-11985476D02*
X2626429Y-11852143D01*
X2626429Y-11871190D02*
X2635952Y-11861667D01*
X2655000Y-11852143D01*
X2683571Y-11852143D01*
X2702619Y-11861667D01*
X2712143Y-11880714D01*
X2712143Y-11985476D01*
X2712143Y-11880714D02*
X2721667Y-11861667D01*
X2740714Y-11852143D01*
X2769286Y-11852143D01*
X2788333Y-11861667D01*
X2797857Y-11880714D01*
X2797857Y-11985476D01*
X3188333Y-11775952D02*
X3016905Y-12033095D01*
X3445476Y-11785476D02*
X3464524Y-11785476D01*
X3483571Y-11795000D01*
X3493095Y-11804524D01*
X3502619Y-11823571D01*
X3512143Y-11861667D01*
X3512143Y-11909286D01*
X3502619Y-11947381D01*
X3493095Y-11966428D01*
X3483571Y-11975952D01*
X3464524Y-11985476D01*
X3445476Y-11985476D01*
X3426428Y-11975952D01*
X3416905Y-11966428D01*
X3407381Y-11947381D01*
X3397857Y-11909286D01*
X3397857Y-11861667D01*
X3407381Y-11823571D01*
X3416905Y-11804524D01*
X3426428Y-11795000D01*
X3445476Y-11785476D01*
X3597857Y-11966428D02*
X3607381Y-11975952D01*
X3597857Y-11985476D01*
X3588333Y-11975952D01*
X3597857Y-11966428D01*
X3597857Y-11985476D01*
X3731190Y-11785476D02*
X3750238Y-11785476D01*
X3769286Y-11795000D01*
X3778809Y-11804524D01*
X3788333Y-11823571D01*
X3797857Y-11861667D01*
X3797857Y-11909286D01*
X3788333Y-11947381D01*
X3778809Y-11966428D01*
X3769286Y-11975952D01*
X3750238Y-11985476D01*
X3731190Y-11985476D01*
X3712143Y-11975952D01*
X3702619Y-11966428D01*
X3693095Y-11947381D01*
X3683571Y-11909286D01*
X3683571Y-11861667D01*
X3693095Y-11823571D01*
X3702619Y-11804524D01*
X3712143Y-11795000D01*
X3731190Y-11785476D01*
X3988333Y-11985476D02*
X3874048Y-11985476D01*
X3931190Y-11985476D02*
X3931190Y-11785476D01*
X3912143Y-11814048D01*
X3893095Y-11833095D01*
X3874048Y-11842619D01*
X4169286Y-11785476D02*
X4074048Y-11785476D01*
X4064524Y-11880714D01*
X4074048Y-11871190D01*
X4093095Y-11861667D01*
X4140714Y-11861667D01*
X4159762Y-11871190D01*
X4169286Y-11880714D01*
X4178809Y-11899762D01*
X4178809Y-11947381D01*
X4169286Y-11966428D01*
X4159762Y-11975952D01*
X4140714Y-11985476D01*
X4093095Y-11985476D01*
X4074048Y-11975952D01*
X4064524Y-11966428D01*
X4245476Y-11785476D02*
X4378810Y-11785476D01*
X4293095Y-11985476D01*
X4445476Y-11785476D02*
X4445476Y-11823571D01*
X4521667Y-11785476D02*
X4521667Y-11823571D01*
X4816905Y-12061667D02*
X4807381Y-12052143D01*
X4788333Y-12023571D01*
X4778810Y-12004524D01*
X4769286Y-11975952D01*
X4759762Y-11928333D01*
X4759762Y-11890238D01*
X4769286Y-11842619D01*
X4778810Y-11814048D01*
X4788333Y-11795000D01*
X4807381Y-11766428D01*
X4816905Y-11756905D01*
X4921667Y-11871190D02*
X4902619Y-11861667D01*
X4893095Y-11852143D01*
X4883571Y-11833095D01*
X4883571Y-11823571D01*
X4893095Y-11804524D01*
X4902619Y-11795000D01*
X4921667Y-11785476D01*
X4959762Y-11785476D01*
X4978810Y-11795000D01*
X4988333Y-11804524D01*
X4997857Y-11823571D01*
X4997857Y-11833095D01*
X4988333Y-11852143D01*
X4978810Y-11861667D01*
X4959762Y-11871190D01*
X4921667Y-11871190D01*
X4902619Y-11880714D01*
X4893095Y-11890238D01*
X4883571Y-11909286D01*
X4883571Y-11947381D01*
X4893095Y-11966428D01*
X4902619Y-11975952D01*
X4921667Y-11985476D01*
X4959762Y-11985476D01*
X4978810Y-11975952D01*
X4988333Y-11966428D01*
X4997857Y-11947381D01*
X4997857Y-11909286D01*
X4988333Y-11890238D01*
X4978810Y-11880714D01*
X4959762Y-11871190D01*
X5235952Y-11985476D02*
X5235952Y-11785476D01*
X5321667Y-11985476D02*
X5321667Y-11880714D01*
X5312143Y-11861667D01*
X5293095Y-11852143D01*
X5264524Y-11852143D01*
X5245476Y-11861667D01*
X5235952Y-11871190D01*
X5445476Y-11985476D02*
X5426429Y-11975952D01*
X5416905Y-11966428D01*
X5407381Y-11947381D01*
X5407381Y-11890238D01*
X5416905Y-11871190D01*
X5426429Y-11861667D01*
X5445476Y-11852143D01*
X5474048Y-11852143D01*
X5493095Y-11861667D01*
X5502619Y-11871190D01*
X5512143Y-11890238D01*
X5512143Y-11947381D01*
X5502619Y-11966428D01*
X5493095Y-11975952D01*
X5474048Y-11985476D01*
X5445476Y-11985476D01*
X5626428Y-11985476D02*
X5607381Y-11975952D01*
X5597857Y-11956905D01*
X5597857Y-11785476D01*
X5778809Y-11975952D02*
X5759762Y-11985476D01*
X5721667Y-11985476D01*
X5702619Y-11975952D01*
X5693095Y-11956905D01*
X5693095Y-11880714D01*
X5702619Y-11861667D01*
X5721667Y-11852143D01*
X5759762Y-11852143D01*
X5778809Y-11861667D01*
X5788333Y-11880714D01*
X5788333Y-11899762D01*
X5693095Y-11918809D01*
X5864524Y-11975952D02*
X5883571Y-11985476D01*
X5921667Y-11985476D01*
X5940714Y-11975952D01*
X5950238Y-11956905D01*
X5950238Y-11947381D01*
X5940714Y-11928333D01*
X5921667Y-11918809D01*
X5893095Y-11918809D01*
X5874048Y-11909286D01*
X5864524Y-11890238D01*
X5864524Y-11880714D01*
X5874048Y-11861667D01*
X5893095Y-11852143D01*
X5921667Y-11852143D01*
X5940714Y-11861667D01*
X6016905Y-12061667D02*
X6026428Y-12052143D01*
X6045476Y-12023571D01*
X6055000Y-12004524D01*
X6064524Y-11975952D01*
X6074048Y-11928333D01*
X6074048Y-11890238D01*
X6064524Y-11842619D01*
X6055000Y-11814048D01*
X6045476Y-11795000D01*
X6026428Y-11766428D01*
X6016905Y-11756905D01*
D12*
X1245000Y-12159000D02*
G75*
G03*
X1245000Y-12159000I-20000J0D01*
G01*
D11*
X1540714Y-12049476D02*
X1559762Y-12049476D01*
X1578809Y-12059000D01*
X1588333Y-12068524D01*
X1597857Y-12087571D01*
X1607381Y-12125667D01*
X1607381Y-12173286D01*
X1597857Y-12211381D01*
X1588333Y-12230428D01*
X1578809Y-12239952D01*
X1559762Y-12249476D01*
X1540714Y-12249476D01*
X1521667Y-12239952D01*
X1512143Y-12230428D01*
X1502619Y-12211381D01*
X1493095Y-12173286D01*
X1493095Y-12125667D01*
X1502619Y-12087571D01*
X1512143Y-12068524D01*
X1521667Y-12059000D01*
X1540714Y-12049476D01*
X1693095Y-12230428D02*
X1702619Y-12239952D01*
X1693095Y-12249476D01*
X1683571Y-12239952D01*
X1693095Y-12230428D01*
X1693095Y-12249476D01*
X1874048Y-12116143D02*
X1874048Y-12249476D01*
X1826428Y-12039952D02*
X1778809Y-12182809D01*
X1902619Y-12182809D01*
X2016905Y-12049476D02*
X2035952Y-12049476D01*
X2055000Y-12059000D01*
X2064524Y-12068524D01*
X2074048Y-12087571D01*
X2083571Y-12125667D01*
X2083571Y-12173286D01*
X2074048Y-12211381D01*
X2064524Y-12230428D01*
X2055000Y-12239952D01*
X2035952Y-12249476D01*
X2016905Y-12249476D01*
X1997857Y-12239952D01*
X1988333Y-12230428D01*
X1978809Y-12211381D01*
X1969286Y-12173286D01*
X1969286Y-12125667D01*
X1978809Y-12087571D01*
X1988333Y-12068524D01*
X1997857Y-12059000D01*
X2016905Y-12049476D01*
X2207381Y-12049476D02*
X2226429Y-12049476D01*
X2245476Y-12059000D01*
X2255000Y-12068524D01*
X2264524Y-12087571D01*
X2274048Y-12125667D01*
X2274048Y-12173286D01*
X2264524Y-12211381D01*
X2255000Y-12230428D01*
X2245476Y-12239952D01*
X2226429Y-12249476D01*
X2207381Y-12249476D01*
X2188333Y-12239952D01*
X2178810Y-12230428D01*
X2169286Y-12211381D01*
X2159762Y-12173286D01*
X2159762Y-12125667D01*
X2169286Y-12087571D01*
X2178810Y-12068524D01*
X2188333Y-12059000D01*
X2207381Y-12049476D01*
X2359762Y-12249476D02*
X2359762Y-12116143D01*
X2359762Y-12135190D02*
X2369286Y-12125667D01*
X2388333Y-12116143D01*
X2416905Y-12116143D01*
X2435952Y-12125667D01*
X2445476Y-12144714D01*
X2445476Y-12249476D01*
X2445476Y-12144714D02*
X2455000Y-12125667D01*
X2474048Y-12116143D01*
X2502619Y-12116143D01*
X2521667Y-12125667D01*
X2531190Y-12144714D01*
X2531190Y-12249476D01*
X2626429Y-12249476D02*
X2626429Y-12116143D01*
X2626429Y-12135190D02*
X2635952Y-12125667D01*
X2655000Y-12116143D01*
X2683571Y-12116143D01*
X2702619Y-12125667D01*
X2712143Y-12144714D01*
X2712143Y-12249476D01*
X2712143Y-12144714D02*
X2721667Y-12125667D01*
X2740714Y-12116143D01*
X2769286Y-12116143D01*
X2788333Y-12125667D01*
X2797857Y-12144714D01*
X2797857Y-12249476D01*
X3188333Y-12039952D02*
X3016905Y-12297095D01*
X3445476Y-12049476D02*
X3464524Y-12049476D01*
X3483571Y-12059000D01*
X3493095Y-12068524D01*
X3502619Y-12087571D01*
X3512143Y-12125667D01*
X3512143Y-12173286D01*
X3502619Y-12211381D01*
X3493095Y-12230428D01*
X3483571Y-12239952D01*
X3464524Y-12249476D01*
X3445476Y-12249476D01*
X3426428Y-12239952D01*
X3416905Y-12230428D01*
X3407381Y-12211381D01*
X3397857Y-12173286D01*
X3397857Y-12125667D01*
X3407381Y-12087571D01*
X3416905Y-12068524D01*
X3426428Y-12059000D01*
X3445476Y-12049476D01*
X3597857Y-12230428D02*
X3607381Y-12239952D01*
X3597857Y-12249476D01*
X3588333Y-12239952D01*
X3597857Y-12230428D01*
X3597857Y-12249476D01*
X3731190Y-12049476D02*
X3750238Y-12049476D01*
X3769286Y-12059000D01*
X3778809Y-12068524D01*
X3788333Y-12087571D01*
X3797857Y-12125667D01*
X3797857Y-12173286D01*
X3788333Y-12211381D01*
X3778809Y-12230428D01*
X3769286Y-12239952D01*
X3750238Y-12249476D01*
X3731190Y-12249476D01*
X3712143Y-12239952D01*
X3702619Y-12230428D01*
X3693095Y-12211381D01*
X3683571Y-12173286D01*
X3683571Y-12125667D01*
X3693095Y-12087571D01*
X3702619Y-12068524D01*
X3712143Y-12059000D01*
X3731190Y-12049476D01*
X3988333Y-12249476D02*
X3874048Y-12249476D01*
X3931190Y-12249476D02*
X3931190Y-12049476D01*
X3912143Y-12078048D01*
X3893095Y-12097095D01*
X3874048Y-12106619D01*
X4169286Y-12049476D02*
X4074048Y-12049476D01*
X4064524Y-12144714D01*
X4074048Y-12135190D01*
X4093095Y-12125667D01*
X4140714Y-12125667D01*
X4159762Y-12135190D01*
X4169286Y-12144714D01*
X4178809Y-12163762D01*
X4178809Y-12211381D01*
X4169286Y-12230428D01*
X4159762Y-12239952D01*
X4140714Y-12249476D01*
X4093095Y-12249476D01*
X4074048Y-12239952D01*
X4064524Y-12230428D01*
X4245476Y-12049476D02*
X4378810Y-12049476D01*
X4293095Y-12249476D01*
X4445476Y-12049476D02*
X4445476Y-12087571D01*
X4521667Y-12049476D02*
X4521667Y-12087571D01*
X4816905Y-12325667D02*
X4807381Y-12316143D01*
X4788333Y-12287571D01*
X4778810Y-12268524D01*
X4769286Y-12239952D01*
X4759762Y-12192333D01*
X4759762Y-12154238D01*
X4769286Y-12106619D01*
X4778810Y-12078048D01*
X4788333Y-12059000D01*
X4807381Y-12030428D01*
X4816905Y-12020905D01*
X4883571Y-12068524D02*
X4893095Y-12059000D01*
X4912143Y-12049476D01*
X4959762Y-12049476D01*
X4978810Y-12059000D01*
X4988333Y-12068524D01*
X4997857Y-12087571D01*
X4997857Y-12106619D01*
X4988333Y-12135190D01*
X4874048Y-12249476D01*
X4997857Y-12249476D01*
X5169286Y-12116143D02*
X5169286Y-12249476D01*
X5121667Y-12039952D02*
X5074048Y-12182809D01*
X5197857Y-12182809D01*
X5426429Y-12249476D02*
X5426429Y-12049476D01*
X5512143Y-12249476D02*
X5512143Y-12144714D01*
X5502619Y-12125667D01*
X5483571Y-12116143D01*
X5455000Y-12116143D01*
X5435952Y-12125667D01*
X5426429Y-12135190D01*
X5635952Y-12249476D02*
X5616905Y-12239952D01*
X5607381Y-12230428D01*
X5597857Y-12211381D01*
X5597857Y-12154238D01*
X5607381Y-12135190D01*
X5616905Y-12125667D01*
X5635952Y-12116143D01*
X5664524Y-12116143D01*
X5683571Y-12125667D01*
X5693095Y-12135190D01*
X5702619Y-12154238D01*
X5702619Y-12211381D01*
X5693095Y-12230428D01*
X5683571Y-12239952D01*
X5664524Y-12249476D01*
X5635952Y-12249476D01*
X5816905Y-12249476D02*
X5797857Y-12239952D01*
X5788333Y-12220905D01*
X5788333Y-12049476D01*
X5969286Y-12239952D02*
X5950238Y-12249476D01*
X5912143Y-12249476D01*
X5893095Y-12239952D01*
X5883571Y-12220905D01*
X5883571Y-12144714D01*
X5893095Y-12125667D01*
X5912143Y-12116143D01*
X5950238Y-12116143D01*
X5969286Y-12125667D01*
X5978809Y-12144714D01*
X5978809Y-12163762D01*
X5883571Y-12182809D01*
X6055000Y-12239952D02*
X6074048Y-12249476D01*
X6112143Y-12249476D01*
X6131190Y-12239952D01*
X6140714Y-12220905D01*
X6140714Y-12211381D01*
X6131190Y-12192333D01*
X6112143Y-12182809D01*
X6083571Y-12182809D01*
X6064524Y-12173286D01*
X6055000Y-12154238D01*
X6055000Y-12144714D01*
X6064524Y-12125667D01*
X6083571Y-12116143D01*
X6112143Y-12116143D01*
X6131190Y-12125667D01*
X6207381Y-12325667D02*
X6216905Y-12316143D01*
X6235952Y-12287571D01*
X6245476Y-12268524D01*
X6255000Y-12239952D01*
X6264524Y-12192333D01*
X6264524Y-12154238D01*
X6255000Y-12106619D01*
X6245476Y-12078048D01*
X6235952Y-12059000D01*
X6216905Y-12030428D01*
X6207381Y-12020905D01*
D13*
X1205000Y-12383000D02*
X1205000Y-12463000D01*
X1165000Y-12423000D02*
X1245000Y-12423000D01*
D11*
X1540714Y-12313476D02*
X1559762Y-12313476D01*
X1578809Y-12323000D01*
X1588333Y-12332524D01*
X1597857Y-12351571D01*
X1607381Y-12389667D01*
X1607381Y-12437286D01*
X1597857Y-12475381D01*
X1588333Y-12494428D01*
X1578809Y-12503952D01*
X1559762Y-12513476D01*
X1540714Y-12513476D01*
X1521667Y-12503952D01*
X1512143Y-12494428D01*
X1502619Y-12475381D01*
X1493095Y-12437286D01*
X1493095Y-12389667D01*
X1502619Y-12351571D01*
X1512143Y-12332524D01*
X1521667Y-12323000D01*
X1540714Y-12313476D01*
X1693095Y-12494428D02*
X1702619Y-12503952D01*
X1693095Y-12513476D01*
X1683571Y-12503952D01*
X1693095Y-12494428D01*
X1693095Y-12513476D01*
X1816905Y-12399190D02*
X1797857Y-12389667D01*
X1788333Y-12380143D01*
X1778809Y-12361095D01*
X1778809Y-12351571D01*
X1788333Y-12332524D01*
X1797857Y-12323000D01*
X1816905Y-12313476D01*
X1855000Y-12313476D01*
X1874048Y-12323000D01*
X1883571Y-12332524D01*
X1893095Y-12351571D01*
X1893095Y-12361095D01*
X1883571Y-12380143D01*
X1874048Y-12389667D01*
X1855000Y-12399190D01*
X1816905Y-12399190D01*
X1797857Y-12408714D01*
X1788333Y-12418238D01*
X1778809Y-12437286D01*
X1778809Y-12475381D01*
X1788333Y-12494428D01*
X1797857Y-12503952D01*
X1816905Y-12513476D01*
X1855000Y-12513476D01*
X1874048Y-12503952D01*
X1883571Y-12494428D01*
X1893095Y-12475381D01*
X1893095Y-12437286D01*
X1883571Y-12418238D01*
X1874048Y-12408714D01*
X1855000Y-12399190D01*
X2016905Y-12313476D02*
X2035952Y-12313476D01*
X2055000Y-12323000D01*
X2064524Y-12332524D01*
X2074048Y-12351571D01*
X2083571Y-12389667D01*
X2083571Y-12437286D01*
X2074048Y-12475381D01*
X2064524Y-12494428D01*
X2055000Y-12503952D01*
X2035952Y-12513476D01*
X2016905Y-12513476D01*
X1997857Y-12503952D01*
X1988333Y-12494428D01*
X1978809Y-12475381D01*
X1969286Y-12437286D01*
X1969286Y-12389667D01*
X1978809Y-12351571D01*
X1988333Y-12332524D01*
X1997857Y-12323000D01*
X2016905Y-12313476D01*
X2207381Y-12313476D02*
X2226429Y-12313476D01*
X2245476Y-12323000D01*
X2255000Y-12332524D01*
X2264524Y-12351571D01*
X2274048Y-12389667D01*
X2274048Y-12437286D01*
X2264524Y-12475381D01*
X2255000Y-12494428D01*
X2245476Y-12503952D01*
X2226429Y-12513476D01*
X2207381Y-12513476D01*
X2188333Y-12503952D01*
X2178810Y-12494428D01*
X2169286Y-12475381D01*
X2159762Y-12437286D01*
X2159762Y-12389667D01*
X2169286Y-12351571D01*
X2178810Y-12332524D01*
X2188333Y-12323000D01*
X2207381Y-12313476D01*
X2359762Y-12513476D02*
X2359762Y-12380143D01*
X2359762Y-12399190D02*
X2369286Y-12389667D01*
X2388333Y-12380143D01*
X2416905Y-12380143D01*
X2435952Y-12389667D01*
X2445476Y-12408714D01*
X2445476Y-12513476D01*
X2445476Y-12408714D02*
X2455000Y-12389667D01*
X2474048Y-12380143D01*
X2502619Y-12380143D01*
X2521667Y-12389667D01*
X2531190Y-12408714D01*
X2531190Y-12513476D01*
X2626429Y-12513476D02*
X2626429Y-12380143D01*
X2626429Y-12399190D02*
X2635952Y-12389667D01*
X2655000Y-12380143D01*
X2683571Y-12380143D01*
X2702619Y-12389667D01*
X2712143Y-12408714D01*
X2712143Y-12513476D01*
X2712143Y-12408714D02*
X2721667Y-12389667D01*
X2740714Y-12380143D01*
X2769286Y-12380143D01*
X2788333Y-12389667D01*
X2797857Y-12408714D01*
X2797857Y-12513476D01*
X3188333Y-12303952D02*
X3016905Y-12561095D01*
X3445476Y-12313476D02*
X3464524Y-12313476D01*
X3483571Y-12323000D01*
X3493095Y-12332524D01*
X3502619Y-12351571D01*
X3512143Y-12389667D01*
X3512143Y-12437286D01*
X3502619Y-12475381D01*
X3493095Y-12494428D01*
X3483571Y-12503952D01*
X3464524Y-12513476D01*
X3445476Y-12513476D01*
X3426428Y-12503952D01*
X3416905Y-12494428D01*
X3407381Y-12475381D01*
X3397857Y-12437286D01*
X3397857Y-12389667D01*
X3407381Y-12351571D01*
X3416905Y-12332524D01*
X3426428Y-12323000D01*
X3445476Y-12313476D01*
X3597857Y-12494428D02*
X3607381Y-12503952D01*
X3597857Y-12513476D01*
X3588333Y-12503952D01*
X3597857Y-12494428D01*
X3597857Y-12513476D01*
X3731190Y-12313476D02*
X3750238Y-12313476D01*
X3769286Y-12323000D01*
X3778809Y-12332524D01*
X3788333Y-12351571D01*
X3797857Y-12389667D01*
X3797857Y-12437286D01*
X3788333Y-12475381D01*
X3778809Y-12494428D01*
X3769286Y-12503952D01*
X3750238Y-12513476D01*
X3731190Y-12513476D01*
X3712143Y-12503952D01*
X3702619Y-12494428D01*
X3693095Y-12475381D01*
X3683571Y-12437286D01*
X3683571Y-12389667D01*
X3693095Y-12351571D01*
X3702619Y-12332524D01*
X3712143Y-12323000D01*
X3731190Y-12313476D01*
X3864524Y-12313476D02*
X3988333Y-12313476D01*
X3921667Y-12389667D01*
X3950238Y-12389667D01*
X3969286Y-12399190D01*
X3978809Y-12408714D01*
X3988333Y-12427762D01*
X3988333Y-12475381D01*
X3978809Y-12494428D01*
X3969286Y-12503952D01*
X3950238Y-12513476D01*
X3893095Y-12513476D01*
X3874048Y-12503952D01*
X3864524Y-12494428D01*
X4178809Y-12513476D02*
X4064524Y-12513476D01*
X4121667Y-12513476D02*
X4121667Y-12313476D01*
X4102619Y-12342048D01*
X4083571Y-12361095D01*
X4064524Y-12370619D01*
X4359762Y-12313476D02*
X4264524Y-12313476D01*
X4255000Y-12408714D01*
X4264524Y-12399190D01*
X4283571Y-12389667D01*
X4331190Y-12389667D01*
X4350238Y-12399190D01*
X4359762Y-12408714D01*
X4369286Y-12427762D01*
X4369286Y-12475381D01*
X4359762Y-12494428D01*
X4350238Y-12503952D01*
X4331190Y-12513476D01*
X4283571Y-12513476D01*
X4264524Y-12503952D01*
X4255000Y-12494428D01*
X4445476Y-12313476D02*
X4445476Y-12351571D01*
X4521667Y-12313476D02*
X4521667Y-12351571D01*
X4816905Y-12589667D02*
X4807381Y-12580143D01*
X4788333Y-12551571D01*
X4778810Y-12532524D01*
X4769286Y-12503952D01*
X4759762Y-12456333D01*
X4759762Y-12418238D01*
X4769286Y-12370619D01*
X4778810Y-12342048D01*
X4788333Y-12323000D01*
X4807381Y-12294428D01*
X4816905Y-12284905D01*
X4874048Y-12313476D02*
X5007381Y-12313476D01*
X4921667Y-12513476D01*
X5112143Y-12399190D02*
X5093095Y-12389667D01*
X5083571Y-12380143D01*
X5074048Y-12361095D01*
X5074048Y-12351571D01*
X5083571Y-12332524D01*
X5093095Y-12323000D01*
X5112143Y-12313476D01*
X5150238Y-12313476D01*
X5169286Y-12323000D01*
X5178810Y-12332524D01*
X5188333Y-12351571D01*
X5188333Y-12361095D01*
X5178810Y-12380143D01*
X5169286Y-12389667D01*
X5150238Y-12399190D01*
X5112143Y-12399190D01*
X5093095Y-12408714D01*
X5083571Y-12418238D01*
X5074048Y-12437286D01*
X5074048Y-12475381D01*
X5083571Y-12494428D01*
X5093095Y-12503952D01*
X5112143Y-12513476D01*
X5150238Y-12513476D01*
X5169286Y-12503952D01*
X5178810Y-12494428D01*
X5188333Y-12475381D01*
X5188333Y-12437286D01*
X5178810Y-12418238D01*
X5169286Y-12408714D01*
X5150238Y-12399190D01*
X5426429Y-12513476D02*
X5426429Y-12313476D01*
X5512143Y-12513476D02*
X5512143Y-12408714D01*
X5502619Y-12389667D01*
X5483571Y-12380143D01*
X5455000Y-12380143D01*
X5435952Y-12389667D01*
X5426429Y-12399190D01*
X5635952Y-12513476D02*
X5616905Y-12503952D01*
X5607381Y-12494428D01*
X5597857Y-12475381D01*
X5597857Y-12418238D01*
X5607381Y-12399190D01*
X5616905Y-12389667D01*
X5635952Y-12380143D01*
X5664524Y-12380143D01*
X5683571Y-12389667D01*
X5693095Y-12399190D01*
X5702619Y-12418238D01*
X5702619Y-12475381D01*
X5693095Y-12494428D01*
X5683571Y-12503952D01*
X5664524Y-12513476D01*
X5635952Y-12513476D01*
X5816905Y-12513476D02*
X5797857Y-12503952D01*
X5788333Y-12484905D01*
X5788333Y-12313476D01*
X5969286Y-12503952D02*
X5950238Y-12513476D01*
X5912143Y-12513476D01*
X5893095Y-12503952D01*
X5883571Y-12484905D01*
X5883571Y-12408714D01*
X5893095Y-12389667D01*
X5912143Y-12380143D01*
X5950238Y-12380143D01*
X5969286Y-12389667D01*
X5978809Y-12408714D01*
X5978809Y-12427762D01*
X5883571Y-12446809D01*
X6055000Y-12503952D02*
X6074048Y-12513476D01*
X6112143Y-12513476D01*
X6131190Y-12503952D01*
X6140714Y-12484905D01*
X6140714Y-12475381D01*
X6131190Y-12456333D01*
X6112143Y-12446809D01*
X6083571Y-12446809D01*
X6064524Y-12437286D01*
X6055000Y-12418238D01*
X6055000Y-12408714D01*
X6064524Y-12389667D01*
X6083571Y-12380143D01*
X6112143Y-12380143D01*
X6131190Y-12389667D01*
X6207381Y-12589667D02*
X6216905Y-12580143D01*
X6235952Y-12551571D01*
X6245476Y-12532524D01*
X6255000Y-12503952D01*
X6264524Y-12456333D01*
X6264524Y-12418238D01*
X6255000Y-12370619D01*
X6245476Y-12342048D01*
X6235952Y-12323000D01*
X6216905Y-12294428D01*
X6207381Y-12284905D01*
D14*
X1231820Y-12718820D02*
X1231820Y-12655180D01*
X1168180Y-12655180D01*
X1168180Y-12718820D01*
X1231820Y-12718820D01*
D11*
X1540714Y-12577476D02*
X1559762Y-12577476D01*
X1578809Y-12587000D01*
X1588333Y-12596524D01*
X1597857Y-12615571D01*
X1607381Y-12653667D01*
X1607381Y-12701286D01*
X1597857Y-12739381D01*
X1588333Y-12758428D01*
X1578809Y-12767952D01*
X1559762Y-12777476D01*
X1540714Y-12777476D01*
X1521667Y-12767952D01*
X1512143Y-12758428D01*
X1502619Y-12739381D01*
X1493095Y-12701286D01*
X1493095Y-12653667D01*
X1502619Y-12615571D01*
X1512143Y-12596524D01*
X1521667Y-12587000D01*
X1540714Y-12577476D01*
X1693095Y-12758428D02*
X1702619Y-12767952D01*
X1693095Y-12777476D01*
X1683571Y-12767952D01*
X1693095Y-12758428D01*
X1693095Y-12777476D01*
X1797857Y-12777476D02*
X1835952Y-12777476D01*
X1855000Y-12767952D01*
X1864524Y-12758428D01*
X1883571Y-12729857D01*
X1893095Y-12691762D01*
X1893095Y-12615571D01*
X1883571Y-12596524D01*
X1874048Y-12587000D01*
X1855000Y-12577476D01*
X1816905Y-12577476D01*
X1797857Y-12587000D01*
X1788333Y-12596524D01*
X1778809Y-12615571D01*
X1778809Y-12663190D01*
X1788333Y-12682238D01*
X1797857Y-12691762D01*
X1816905Y-12701286D01*
X1855000Y-12701286D01*
X1874048Y-12691762D01*
X1883571Y-12682238D01*
X1893095Y-12663190D01*
X2016905Y-12577476D02*
X2035952Y-12577476D01*
X2055000Y-12587000D01*
X2064524Y-12596524D01*
X2074048Y-12615571D01*
X2083571Y-12653667D01*
X2083571Y-12701286D01*
X2074048Y-12739381D01*
X2064524Y-12758428D01*
X2055000Y-12767952D01*
X2035952Y-12777476D01*
X2016905Y-12777476D01*
X1997857Y-12767952D01*
X1988333Y-12758428D01*
X1978809Y-12739381D01*
X1969286Y-12701286D01*
X1969286Y-12653667D01*
X1978809Y-12615571D01*
X1988333Y-12596524D01*
X1997857Y-12587000D01*
X2016905Y-12577476D01*
X2207381Y-12577476D02*
X2226429Y-12577476D01*
X2245476Y-12587000D01*
X2255000Y-12596524D01*
X2264524Y-12615571D01*
X2274048Y-12653667D01*
X2274048Y-12701286D01*
X2264524Y-12739381D01*
X2255000Y-12758428D01*
X2245476Y-12767952D01*
X2226429Y-12777476D01*
X2207381Y-12777476D01*
X2188333Y-12767952D01*
X2178810Y-12758428D01*
X2169286Y-12739381D01*
X2159762Y-12701286D01*
X2159762Y-12653667D01*
X2169286Y-12615571D01*
X2178810Y-12596524D01*
X2188333Y-12587000D01*
X2207381Y-12577476D01*
X2359762Y-12777476D02*
X2359762Y-12644143D01*
X2359762Y-12663190D02*
X2369286Y-12653667D01*
X2388333Y-12644143D01*
X2416905Y-12644143D01*
X2435952Y-12653667D01*
X2445476Y-12672714D01*
X2445476Y-12777476D01*
X2445476Y-12672714D02*
X2455000Y-12653667D01*
X2474048Y-12644143D01*
X2502619Y-12644143D01*
X2521667Y-12653667D01*
X2531190Y-12672714D01*
X2531190Y-12777476D01*
X2626429Y-12777476D02*
X2626429Y-12644143D01*
X2626429Y-12663190D02*
X2635952Y-12653667D01*
X2655000Y-12644143D01*
X2683571Y-12644143D01*
X2702619Y-12653667D01*
X2712143Y-12672714D01*
X2712143Y-12777476D01*
X2712143Y-12672714D02*
X2721667Y-12653667D01*
X2740714Y-12644143D01*
X2769286Y-12644143D01*
X2788333Y-12653667D01*
X2797857Y-12672714D01*
X2797857Y-12777476D01*
X3188333Y-12567952D02*
X3016905Y-12825095D01*
X3445476Y-12577476D02*
X3464524Y-12577476D01*
X3483571Y-12587000D01*
X3493095Y-12596524D01*
X3502619Y-12615571D01*
X3512143Y-12653667D01*
X3512143Y-12701286D01*
X3502619Y-12739381D01*
X3493095Y-12758428D01*
X3483571Y-12767952D01*
X3464524Y-12777476D01*
X3445476Y-12777476D01*
X3426428Y-12767952D01*
X3416905Y-12758428D01*
X3407381Y-12739381D01*
X3397857Y-12701286D01*
X3397857Y-12653667D01*
X3407381Y-12615571D01*
X3416905Y-12596524D01*
X3426428Y-12587000D01*
X3445476Y-12577476D01*
X3597857Y-12758428D02*
X3607381Y-12767952D01*
X3597857Y-12777476D01*
X3588333Y-12767952D01*
X3597857Y-12758428D01*
X3597857Y-12777476D01*
X3731190Y-12577476D02*
X3750238Y-12577476D01*
X3769286Y-12587000D01*
X3778809Y-12596524D01*
X3788333Y-12615571D01*
X3797857Y-12653667D01*
X3797857Y-12701286D01*
X3788333Y-12739381D01*
X3778809Y-12758428D01*
X3769286Y-12767952D01*
X3750238Y-12777476D01*
X3731190Y-12777476D01*
X3712143Y-12767952D01*
X3702619Y-12758428D01*
X3693095Y-12739381D01*
X3683571Y-12701286D01*
X3683571Y-12653667D01*
X3693095Y-12615571D01*
X3702619Y-12596524D01*
X3712143Y-12587000D01*
X3731190Y-12577476D01*
X3864524Y-12577476D02*
X3988333Y-12577476D01*
X3921667Y-12653667D01*
X3950238Y-12653667D01*
X3969286Y-12663190D01*
X3978809Y-12672714D01*
X3988333Y-12691762D01*
X3988333Y-12739381D01*
X3978809Y-12758428D01*
X3969286Y-12767952D01*
X3950238Y-12777476D01*
X3893095Y-12777476D01*
X3874048Y-12767952D01*
X3864524Y-12758428D01*
X4169286Y-12577476D02*
X4074048Y-12577476D01*
X4064524Y-12672714D01*
X4074048Y-12663190D01*
X4093095Y-12653667D01*
X4140714Y-12653667D01*
X4159762Y-12663190D01*
X4169286Y-12672714D01*
X4178809Y-12691762D01*
X4178809Y-12739381D01*
X4169286Y-12758428D01*
X4159762Y-12767952D01*
X4140714Y-12777476D01*
X4093095Y-12777476D01*
X4074048Y-12767952D01*
X4064524Y-12758428D01*
X4350238Y-12644143D02*
X4350238Y-12777476D01*
X4302619Y-12567952D02*
X4255000Y-12710809D01*
X4378810Y-12710809D01*
X4445476Y-12577476D02*
X4445476Y-12615571D01*
X4521667Y-12577476D02*
X4521667Y-12615571D01*
X4816905Y-12853667D02*
X4807381Y-12844143D01*
X4788333Y-12815571D01*
X4778810Y-12796524D01*
X4769286Y-12767952D01*
X4759762Y-12720333D01*
X4759762Y-12682238D01*
X4769286Y-12634619D01*
X4778810Y-12606048D01*
X4788333Y-12587000D01*
X4807381Y-12558428D01*
X4816905Y-12548905D01*
X4931190Y-12577476D02*
X4950238Y-12577476D01*
X4969286Y-12587000D01*
X4978810Y-12596524D01*
X4988333Y-12615571D01*
X4997857Y-12653667D01*
X4997857Y-12701286D01*
X4988333Y-12739381D01*
X4978810Y-12758428D01*
X4969286Y-12767952D01*
X4950238Y-12777476D01*
X4931190Y-12777476D01*
X4912143Y-12767952D01*
X4902619Y-12758428D01*
X4893095Y-12739381D01*
X4883571Y-12701286D01*
X4883571Y-12653667D01*
X4893095Y-12615571D01*
X4902619Y-12596524D01*
X4912143Y-12587000D01*
X4931190Y-12577476D01*
X5235952Y-12777476D02*
X5235952Y-12577476D01*
X5321667Y-12777476D02*
X5321667Y-12672714D01*
X5312143Y-12653667D01*
X5293095Y-12644143D01*
X5264524Y-12644143D01*
X5245476Y-12653667D01*
X5235952Y-12663190D01*
X5445476Y-12777476D02*
X5426429Y-12767952D01*
X5416905Y-12758428D01*
X5407381Y-12739381D01*
X5407381Y-12682238D01*
X5416905Y-12663190D01*
X5426429Y-12653667D01*
X5445476Y-12644143D01*
X5474048Y-12644143D01*
X5493095Y-12653667D01*
X5502619Y-12663190D01*
X5512143Y-12682238D01*
X5512143Y-12739381D01*
X5502619Y-12758428D01*
X5493095Y-12767952D01*
X5474048Y-12777476D01*
X5445476Y-12777476D01*
X5626428Y-12777476D02*
X5607381Y-12767952D01*
X5597857Y-12748905D01*
X5597857Y-12577476D01*
X5778809Y-12767952D02*
X5759762Y-12777476D01*
X5721667Y-12777476D01*
X5702619Y-12767952D01*
X5693095Y-12748905D01*
X5693095Y-12672714D01*
X5702619Y-12653667D01*
X5721667Y-12644143D01*
X5759762Y-12644143D01*
X5778809Y-12653667D01*
X5788333Y-12672714D01*
X5788333Y-12691762D01*
X5693095Y-12710809D01*
X5864524Y-12767952D02*
X5883571Y-12777476D01*
X5921667Y-12777476D01*
X5940714Y-12767952D01*
X5950238Y-12748905D01*
X5950238Y-12739381D01*
X5940714Y-12720333D01*
X5921667Y-12710809D01*
X5893095Y-12710809D01*
X5874048Y-12701286D01*
X5864524Y-12682238D01*
X5864524Y-12672714D01*
X5874048Y-12653667D01*
X5893095Y-12644143D01*
X5921667Y-12644143D01*
X5940714Y-12653667D01*
X6188333Y-12701286D02*
X6340714Y-12701286D01*
X6264524Y-12777476D02*
X6264524Y-12625095D01*
X6674048Y-12644143D02*
X6674048Y-12777476D01*
X6626428Y-12567952D02*
X6578809Y-12710809D01*
X6702619Y-12710809D01*
X6921667Y-12767952D02*
X6940714Y-12777476D01*
X6978809Y-12777476D01*
X6997857Y-12767952D01*
X7007381Y-12748905D01*
X7007381Y-12739381D01*
X6997857Y-12720333D01*
X6978809Y-12710809D01*
X6950238Y-12710809D01*
X6931190Y-12701286D01*
X6921667Y-12682238D01*
X6921667Y-12672714D01*
X6931190Y-12653667D01*
X6950238Y-12644143D01*
X6978809Y-12644143D01*
X6997857Y-12653667D01*
X7121667Y-12777476D02*
X7102619Y-12767952D01*
X7093095Y-12748905D01*
X7093095Y-12577476D01*
X7226428Y-12777476D02*
X7207381Y-12767952D01*
X7197857Y-12758428D01*
X7188333Y-12739381D01*
X7188333Y-12682238D01*
X7197857Y-12663190D01*
X7207381Y-12653667D01*
X7226428Y-12644143D01*
X7255000Y-12644143D01*
X7274048Y-12653667D01*
X7283571Y-12663190D01*
X7293095Y-12682238D01*
X7293095Y-12739381D01*
X7283571Y-12758428D01*
X7274048Y-12767952D01*
X7255000Y-12777476D01*
X7226428Y-12777476D01*
X7350238Y-12644143D02*
X7426428Y-12644143D01*
X7378809Y-12577476D02*
X7378809Y-12748905D01*
X7388333Y-12767952D01*
X7407381Y-12777476D01*
X7426428Y-12777476D01*
X7483571Y-12767952D02*
X7502619Y-12777476D01*
X7540714Y-12777476D01*
X7559762Y-12767952D01*
X7569286Y-12748905D01*
X7569286Y-12739381D01*
X7559762Y-12720333D01*
X7540714Y-12710809D01*
X7512143Y-12710809D01*
X7493095Y-12701286D01*
X7483571Y-12682238D01*
X7483571Y-12672714D01*
X7493095Y-12653667D01*
X7512143Y-12644143D01*
X7540714Y-12644143D01*
X7559762Y-12653667D01*
X7635952Y-12853667D02*
X7645476Y-12844143D01*
X7664524Y-12815571D01*
X7674048Y-12796524D01*
X7683571Y-12767952D01*
X7693095Y-12720333D01*
X7693095Y-12682238D01*
X7683571Y-12634619D01*
X7674048Y-12606048D01*
X7664524Y-12587000D01*
X7645476Y-12558428D01*
X7635952Y-12548905D01*
D10*
X1195000Y-13001000D02*
X1245000Y-12951000D01*
X1195000Y-12901000D01*
X1145000Y-12951000D01*
X1195000Y-13001000D01*
D11*
X1607381Y-13041476D02*
X1493095Y-13041476D01*
X1550238Y-13041476D02*
X1550238Y-12841476D01*
X1531190Y-12870048D01*
X1512143Y-12889095D01*
X1493095Y-12898619D01*
X1693095Y-13022428D02*
X1702619Y-13031952D01*
X1693095Y-13041476D01*
X1683571Y-13031952D01*
X1693095Y-13022428D01*
X1693095Y-13041476D01*
X1826428Y-12841476D02*
X1845476Y-12841476D01*
X1864524Y-12851000D01*
X1874048Y-12860524D01*
X1883571Y-12879571D01*
X1893095Y-12917667D01*
X1893095Y-12965286D01*
X1883571Y-13003381D01*
X1874048Y-13022428D01*
X1864524Y-13031952D01*
X1845476Y-13041476D01*
X1826428Y-13041476D01*
X1807381Y-13031952D01*
X1797857Y-13022428D01*
X1788333Y-13003381D01*
X1778809Y-12965286D01*
X1778809Y-12917667D01*
X1788333Y-12879571D01*
X1797857Y-12860524D01*
X1807381Y-12851000D01*
X1826428Y-12841476D01*
X2016905Y-12841476D02*
X2035952Y-12841476D01*
X2055000Y-12851000D01*
X2064524Y-12860524D01*
X2074048Y-12879571D01*
X2083571Y-12917667D01*
X2083571Y-12965286D01*
X2074048Y-13003381D01*
X2064524Y-13022428D01*
X2055000Y-13031952D01*
X2035952Y-13041476D01*
X2016905Y-13041476D01*
X1997857Y-13031952D01*
X1988333Y-13022428D01*
X1978809Y-13003381D01*
X1969286Y-12965286D01*
X1969286Y-12917667D01*
X1978809Y-12879571D01*
X1988333Y-12860524D01*
X1997857Y-12851000D01*
X2016905Y-12841476D01*
X2207381Y-12841476D02*
X2226429Y-12841476D01*
X2245476Y-12851000D01*
X2255000Y-12860524D01*
X2264524Y-12879571D01*
X2274048Y-12917667D01*
X2274048Y-12965286D01*
X2264524Y-13003381D01*
X2255000Y-13022428D01*
X2245476Y-13031952D01*
X2226429Y-13041476D01*
X2207381Y-13041476D01*
X2188333Y-13031952D01*
X2178810Y-13022428D01*
X2169286Y-13003381D01*
X2159762Y-12965286D01*
X2159762Y-12917667D01*
X2169286Y-12879571D01*
X2178810Y-12860524D01*
X2188333Y-12851000D01*
X2207381Y-12841476D01*
X2359762Y-13041476D02*
X2359762Y-12908143D01*
X2359762Y-12927190D02*
X2369286Y-12917667D01*
X2388333Y-12908143D01*
X2416905Y-12908143D01*
X2435952Y-12917667D01*
X2445476Y-12936714D01*
X2445476Y-13041476D01*
X2445476Y-12936714D02*
X2455000Y-12917667D01*
X2474048Y-12908143D01*
X2502619Y-12908143D01*
X2521667Y-12917667D01*
X2531190Y-12936714D01*
X2531190Y-13041476D01*
X2626429Y-13041476D02*
X2626429Y-12908143D01*
X2626429Y-12927190D02*
X2635952Y-12917667D01*
X2655000Y-12908143D01*
X2683571Y-12908143D01*
X2702619Y-12917667D01*
X2712143Y-12936714D01*
X2712143Y-13041476D01*
X2712143Y-12936714D02*
X2721667Y-12917667D01*
X2740714Y-12908143D01*
X2769286Y-12908143D01*
X2788333Y-12917667D01*
X2797857Y-12936714D01*
X2797857Y-13041476D01*
X3188333Y-12831952D02*
X3016905Y-13089095D01*
X3445476Y-12841476D02*
X3464524Y-12841476D01*
X3483571Y-12851000D01*
X3493095Y-12860524D01*
X3502619Y-12879571D01*
X3512143Y-12917667D01*
X3512143Y-12965286D01*
X3502619Y-13003381D01*
X3493095Y-13022428D01*
X3483571Y-13031952D01*
X3464524Y-13041476D01*
X3445476Y-13041476D01*
X3426428Y-13031952D01*
X3416905Y-13022428D01*
X3407381Y-13003381D01*
X3397857Y-12965286D01*
X3397857Y-12917667D01*
X3407381Y-12879571D01*
X3416905Y-12860524D01*
X3426428Y-12851000D01*
X3445476Y-12841476D01*
X3597857Y-13022428D02*
X3607381Y-13031952D01*
X3597857Y-13041476D01*
X3588333Y-13031952D01*
X3597857Y-13022428D01*
X3597857Y-13041476D01*
X3731190Y-12841476D02*
X3750238Y-12841476D01*
X3769286Y-12851000D01*
X3778809Y-12860524D01*
X3788333Y-12879571D01*
X3797857Y-12917667D01*
X3797857Y-12965286D01*
X3788333Y-13003381D01*
X3778809Y-13022428D01*
X3769286Y-13031952D01*
X3750238Y-13041476D01*
X3731190Y-13041476D01*
X3712143Y-13031952D01*
X3702619Y-13022428D01*
X3693095Y-13003381D01*
X3683571Y-12965286D01*
X3683571Y-12917667D01*
X3693095Y-12879571D01*
X3702619Y-12860524D01*
X3712143Y-12851000D01*
X3731190Y-12841476D01*
X3864524Y-12841476D02*
X3988333Y-12841476D01*
X3921667Y-12917667D01*
X3950238Y-12917667D01*
X3969286Y-12927190D01*
X3978809Y-12936714D01*
X3988333Y-12955762D01*
X3988333Y-13003381D01*
X3978809Y-13022428D01*
X3969286Y-13031952D01*
X3950238Y-13041476D01*
X3893095Y-13041476D01*
X3874048Y-13031952D01*
X3864524Y-13022428D01*
X4083571Y-13041476D02*
X4121667Y-13041476D01*
X4140714Y-13031952D01*
X4150238Y-13022428D01*
X4169286Y-12993857D01*
X4178809Y-12955762D01*
X4178809Y-12879571D01*
X4169286Y-12860524D01*
X4159762Y-12851000D01*
X4140714Y-12841476D01*
X4102619Y-12841476D01*
X4083571Y-12851000D01*
X4074048Y-12860524D01*
X4064524Y-12879571D01*
X4064524Y-12927190D01*
X4074048Y-12946238D01*
X4083571Y-12955762D01*
X4102619Y-12965286D01*
X4140714Y-12965286D01*
X4159762Y-12955762D01*
X4169286Y-12946238D01*
X4178809Y-12927190D01*
X4350238Y-12908143D02*
X4350238Y-13041476D01*
X4302619Y-12831952D02*
X4255000Y-12974809D01*
X4378810Y-12974809D01*
X4445476Y-12841476D02*
X4445476Y-12879571D01*
X4521667Y-12841476D02*
X4521667Y-12879571D01*
X4816905Y-13117667D02*
X4807381Y-13108143D01*
X4788333Y-13079571D01*
X4778810Y-13060524D01*
X4769286Y-13031952D01*
X4759762Y-12984333D01*
X4759762Y-12946238D01*
X4769286Y-12898619D01*
X4778810Y-12870048D01*
X4788333Y-12851000D01*
X4807381Y-12822428D01*
X4816905Y-12812905D01*
X4988333Y-12841476D02*
X4893095Y-12841476D01*
X4883571Y-12936714D01*
X4893095Y-12927190D01*
X4912143Y-12917667D01*
X4959762Y-12917667D01*
X4978810Y-12927190D01*
X4988333Y-12936714D01*
X4997857Y-12955762D01*
X4997857Y-13003381D01*
X4988333Y-13022428D01*
X4978810Y-13031952D01*
X4959762Y-13041476D01*
X4912143Y-13041476D01*
X4893095Y-13031952D01*
X4883571Y-13022428D01*
X5235952Y-13041476D02*
X5235952Y-12841476D01*
X5321667Y-13041476D02*
X5321667Y-12936714D01*
X5312143Y-12917667D01*
X5293095Y-12908143D01*
X5264524Y-12908143D01*
X5245476Y-12917667D01*
X5235952Y-12927190D01*
X5445476Y-13041476D02*
X5426429Y-13031952D01*
X5416905Y-13022428D01*
X5407381Y-13003381D01*
X5407381Y-12946238D01*
X5416905Y-12927190D01*
X5426429Y-12917667D01*
X5445476Y-12908143D01*
X5474048Y-12908143D01*
X5493095Y-12917667D01*
X5502619Y-12927190D01*
X5512143Y-12946238D01*
X5512143Y-13003381D01*
X5502619Y-13022428D01*
X5493095Y-13031952D01*
X5474048Y-13041476D01*
X5445476Y-13041476D01*
X5626428Y-13041476D02*
X5607381Y-13031952D01*
X5597857Y-13012905D01*
X5597857Y-12841476D01*
X5778809Y-13031952D02*
X5759762Y-13041476D01*
X5721667Y-13041476D01*
X5702619Y-13031952D01*
X5693095Y-13012905D01*
X5693095Y-12936714D01*
X5702619Y-12917667D01*
X5721667Y-12908143D01*
X5759762Y-12908143D01*
X5778809Y-12917667D01*
X5788333Y-12936714D01*
X5788333Y-12955762D01*
X5693095Y-12974809D01*
X5864524Y-13031952D02*
X5883571Y-13041476D01*
X5921667Y-13041476D01*
X5940714Y-13031952D01*
X5950238Y-13012905D01*
X5950238Y-13003381D01*
X5940714Y-12984333D01*
X5921667Y-12974809D01*
X5893095Y-12974809D01*
X5874048Y-12965286D01*
X5864524Y-12946238D01*
X5864524Y-12936714D01*
X5874048Y-12917667D01*
X5893095Y-12908143D01*
X5921667Y-12908143D01*
X5940714Y-12917667D01*
X6016905Y-13117667D02*
X6026428Y-13108143D01*
X6045476Y-13079571D01*
X6055000Y-13060524D01*
X6064524Y-13031952D01*
X6074048Y-12984333D01*
X6074048Y-12946238D01*
X6064524Y-12898619D01*
X6055000Y-12870048D01*
X6045476Y-12851000D01*
X6026428Y-12822428D01*
X6016905Y-12812905D01*
D15*
X1135000Y-13160000D02*
X1245000Y-13270000D01*
X1245000Y-13160000D02*
X1135000Y-13270000D01*
X1245000Y-13215000D02*
G75*
G03*
X1245000Y-13215000I-55000J0D01*
G01*
D11*
X1607381Y-13305476D02*
X1493095Y-13305476D01*
X1550238Y-13305476D02*
X1550238Y-13105476D01*
X1531190Y-13134048D01*
X1512143Y-13153095D01*
X1493095Y-13162619D01*
X1693095Y-13286428D02*
X1702619Y-13295952D01*
X1693095Y-13305476D01*
X1683571Y-13295952D01*
X1693095Y-13286428D01*
X1693095Y-13305476D01*
X1893095Y-13305476D02*
X1778809Y-13305476D01*
X1835952Y-13305476D02*
X1835952Y-13105476D01*
X1816905Y-13134048D01*
X1797857Y-13153095D01*
X1778809Y-13162619D01*
X2016905Y-13105476D02*
X2035952Y-13105476D01*
X2055000Y-13115000D01*
X2064524Y-13124524D01*
X2074048Y-13143571D01*
X2083571Y-13181667D01*
X2083571Y-13229286D01*
X2074048Y-13267381D01*
X2064524Y-13286428D01*
X2055000Y-13295952D01*
X2035952Y-13305476D01*
X2016905Y-13305476D01*
X1997857Y-13295952D01*
X1988333Y-13286428D01*
X1978809Y-13267381D01*
X1969286Y-13229286D01*
X1969286Y-13181667D01*
X1978809Y-13143571D01*
X1988333Y-13124524D01*
X1997857Y-13115000D01*
X2016905Y-13105476D01*
X2207381Y-13105476D02*
X2226429Y-13105476D01*
X2245476Y-13115000D01*
X2255000Y-13124524D01*
X2264524Y-13143571D01*
X2274048Y-13181667D01*
X2274048Y-13229286D01*
X2264524Y-13267381D01*
X2255000Y-13286428D01*
X2245476Y-13295952D01*
X2226429Y-13305476D01*
X2207381Y-13305476D01*
X2188333Y-13295952D01*
X2178810Y-13286428D01*
X2169286Y-13267381D01*
X2159762Y-13229286D01*
X2159762Y-13181667D01*
X2169286Y-13143571D01*
X2178810Y-13124524D01*
X2188333Y-13115000D01*
X2207381Y-13105476D01*
X2359762Y-13305476D02*
X2359762Y-13172143D01*
X2359762Y-13191190D02*
X2369286Y-13181667D01*
X2388333Y-13172143D01*
X2416905Y-13172143D01*
X2435952Y-13181667D01*
X2445476Y-13200714D01*
X2445476Y-13305476D01*
X2445476Y-13200714D02*
X2455000Y-13181667D01*
X2474048Y-13172143D01*
X2502619Y-13172143D01*
X2521667Y-13181667D01*
X2531190Y-13200714D01*
X2531190Y-13305476D01*
X2626429Y-13305476D02*
X2626429Y-13172143D01*
X2626429Y-13191190D02*
X2635952Y-13181667D01*
X2655000Y-13172143D01*
X2683571Y-13172143D01*
X2702619Y-13181667D01*
X2712143Y-13200714D01*
X2712143Y-13305476D01*
X2712143Y-13200714D02*
X2721667Y-13181667D01*
X2740714Y-13172143D01*
X2769286Y-13172143D01*
X2788333Y-13181667D01*
X2797857Y-13200714D01*
X2797857Y-13305476D01*
X3188333Y-13095952D02*
X3016905Y-13353095D01*
X3445476Y-13105476D02*
X3464524Y-13105476D01*
X3483571Y-13115000D01*
X3493095Y-13124524D01*
X3502619Y-13143571D01*
X3512143Y-13181667D01*
X3512143Y-13229286D01*
X3502619Y-13267381D01*
X3493095Y-13286428D01*
X3483571Y-13295952D01*
X3464524Y-13305476D01*
X3445476Y-13305476D01*
X3426428Y-13295952D01*
X3416905Y-13286428D01*
X3407381Y-13267381D01*
X3397857Y-13229286D01*
X3397857Y-13181667D01*
X3407381Y-13143571D01*
X3416905Y-13124524D01*
X3426428Y-13115000D01*
X3445476Y-13105476D01*
X3597857Y-13286428D02*
X3607381Y-13295952D01*
X3597857Y-13305476D01*
X3588333Y-13295952D01*
X3597857Y-13286428D01*
X3597857Y-13305476D01*
X3731190Y-13105476D02*
X3750238Y-13105476D01*
X3769286Y-13115000D01*
X3778809Y-13124524D01*
X3788333Y-13143571D01*
X3797857Y-13181667D01*
X3797857Y-13229286D01*
X3788333Y-13267381D01*
X3778809Y-13286428D01*
X3769286Y-13295952D01*
X3750238Y-13305476D01*
X3731190Y-13305476D01*
X3712143Y-13295952D01*
X3702619Y-13286428D01*
X3693095Y-13267381D01*
X3683571Y-13229286D01*
X3683571Y-13181667D01*
X3693095Y-13143571D01*
X3702619Y-13124524D01*
X3712143Y-13115000D01*
X3731190Y-13105476D01*
X3969286Y-13172143D02*
X3969286Y-13305476D01*
X3921667Y-13095952D02*
X3874048Y-13238809D01*
X3997857Y-13238809D01*
X4055000Y-13105476D02*
X4178809Y-13105476D01*
X4112143Y-13181667D01*
X4140714Y-13181667D01*
X4159762Y-13191190D01*
X4169286Y-13200714D01*
X4178809Y-13219762D01*
X4178809Y-13267381D01*
X4169286Y-13286428D01*
X4159762Y-13295952D01*
X4140714Y-13305476D01*
X4083571Y-13305476D01*
X4064524Y-13295952D01*
X4055000Y-13286428D01*
X4245476Y-13105476D02*
X4369286Y-13105476D01*
X4302619Y-13181667D01*
X4331190Y-13181667D01*
X4350238Y-13191190D01*
X4359762Y-13200714D01*
X4369286Y-13219762D01*
X4369286Y-13267381D01*
X4359762Y-13286428D01*
X4350238Y-13295952D01*
X4331190Y-13305476D01*
X4274048Y-13305476D01*
X4255000Y-13295952D01*
X4245476Y-13286428D01*
X4445476Y-13105476D02*
X4445476Y-13143571D01*
X4521667Y-13105476D02*
X4521667Y-13143571D01*
X4816905Y-13381667D02*
X4807381Y-13372143D01*
X4788333Y-13343571D01*
X4778810Y-13324524D01*
X4769286Y-13295952D01*
X4759762Y-13248333D01*
X4759762Y-13210238D01*
X4769286Y-13162619D01*
X4778810Y-13134048D01*
X4788333Y-13115000D01*
X4807381Y-13086428D01*
X4816905Y-13076905D01*
X4883571Y-13124524D02*
X4893095Y-13115000D01*
X4912143Y-13105476D01*
X4959762Y-13105476D01*
X4978810Y-13115000D01*
X4988333Y-13124524D01*
X4997857Y-13143571D01*
X4997857Y-13162619D01*
X4988333Y-13191190D01*
X4874048Y-13305476D01*
X4997857Y-13305476D01*
X5169286Y-13105476D02*
X5131190Y-13105476D01*
X5112143Y-13115000D01*
X5102619Y-13124524D01*
X5083571Y-13153095D01*
X5074048Y-13191190D01*
X5074048Y-13267381D01*
X5083571Y-13286428D01*
X5093095Y-13295952D01*
X5112143Y-13305476D01*
X5150238Y-13305476D01*
X5169286Y-13295952D01*
X5178810Y-13286428D01*
X5188333Y-13267381D01*
X5188333Y-13219762D01*
X5178810Y-13200714D01*
X5169286Y-13191190D01*
X5150238Y-13181667D01*
X5112143Y-13181667D01*
X5093095Y-13191190D01*
X5083571Y-13200714D01*
X5074048Y-13219762D01*
X5426429Y-13305476D02*
X5426429Y-13105476D01*
X5512143Y-13305476D02*
X5512143Y-13200714D01*
X5502619Y-13181667D01*
X5483571Y-13172143D01*
X5455000Y-13172143D01*
X5435952Y-13181667D01*
X5426429Y-13191190D01*
X5635952Y-13305476D02*
X5616905Y-13295952D01*
X5607381Y-13286428D01*
X5597857Y-13267381D01*
X5597857Y-13210238D01*
X5607381Y-13191190D01*
X5616905Y-13181667D01*
X5635952Y-13172143D01*
X5664524Y-13172143D01*
X5683571Y-13181667D01*
X5693095Y-13191190D01*
X5702619Y-13210238D01*
X5702619Y-13267381D01*
X5693095Y-13286428D01*
X5683571Y-13295952D01*
X5664524Y-13305476D01*
X5635952Y-13305476D01*
X5816905Y-13305476D02*
X5797857Y-13295952D01*
X5788333Y-13276905D01*
X5788333Y-13105476D01*
X5969286Y-13295952D02*
X5950238Y-13305476D01*
X5912143Y-13305476D01*
X5893095Y-13295952D01*
X5883571Y-13276905D01*
X5883571Y-13200714D01*
X5893095Y-13181667D01*
X5912143Y-13172143D01*
X5950238Y-13172143D01*
X5969286Y-13181667D01*
X5978809Y-13200714D01*
X5978809Y-13219762D01*
X5883571Y-13238809D01*
X6055000Y-13295952D02*
X6074048Y-13305476D01*
X6112143Y-13305476D01*
X6131190Y-13295952D01*
X6140714Y-13276905D01*
X6140714Y-13267381D01*
X6131190Y-13248333D01*
X6112143Y-13238809D01*
X6083571Y-13238809D01*
X6064524Y-13229286D01*
X6055000Y-13210238D01*
X6055000Y-13200714D01*
X6064524Y-13181667D01*
X6083571Y-13172143D01*
X6112143Y-13172143D01*
X6131190Y-13181667D01*
X6207381Y-13381667D02*
X6216905Y-13372143D01*
X6235952Y-13343571D01*
X6245476Y-13324524D01*
X6255000Y-13295952D01*
X6264524Y-13248333D01*
X6264524Y-13210238D01*
X6255000Y-13162619D01*
X6245476Y-13134048D01*
X6235952Y-13115000D01*
X6216905Y-13086428D01*
X6207381Y-13076905D01*
D16*
X1095140Y-13404070D02*
X1245000Y-13553930D01*
X1245000Y-13404070D02*
X1095140Y-13553930D01*
X1170070Y-13404070D02*
X1170070Y-13553930D01*
X1095140Y-13479000D02*
X1245000Y-13479000D01*
D11*
X1607381Y-13569476D02*
X1493095Y-13569476D01*
X1550238Y-13569476D02*
X1550238Y-13369476D01*
X1531190Y-13398048D01*
X1512143Y-13417095D01*
X1493095Y-13426619D01*
X1693095Y-13550428D02*
X1702619Y-13559952D01*
X1693095Y-13569476D01*
X1683571Y-13559952D01*
X1693095Y-13550428D01*
X1693095Y-13569476D01*
X1874048Y-13436143D02*
X1874048Y-13569476D01*
X1826428Y-13359952D02*
X1778809Y-13502809D01*
X1902619Y-13502809D01*
X1988333Y-13569476D02*
X2026428Y-13569476D01*
X2045476Y-13559952D01*
X2055000Y-13550428D01*
X2074048Y-13521857D01*
X2083571Y-13483762D01*
X2083571Y-13407571D01*
X2074048Y-13388524D01*
X2064524Y-13379000D01*
X2045476Y-13369476D01*
X2007381Y-13369476D01*
X1988333Y-13379000D01*
X1978809Y-13388524D01*
X1969286Y-13407571D01*
X1969286Y-13455190D01*
X1978809Y-13474238D01*
X1988333Y-13483762D01*
X2007381Y-13493286D01*
X2045476Y-13493286D01*
X2064524Y-13483762D01*
X2074048Y-13474238D01*
X2083571Y-13455190D01*
X2178810Y-13569476D02*
X2216905Y-13569476D01*
X2235952Y-13559952D01*
X2245476Y-13550428D01*
X2264524Y-13521857D01*
X2274048Y-13483762D01*
X2274048Y-13407571D01*
X2264524Y-13388524D01*
X2255000Y-13379000D01*
X2235952Y-13369476D01*
X2197857Y-13369476D01*
X2178810Y-13379000D01*
X2169286Y-13388524D01*
X2159762Y-13407571D01*
X2159762Y-13455190D01*
X2169286Y-13474238D01*
X2178810Y-13483762D01*
X2197857Y-13493286D01*
X2235952Y-13493286D01*
X2255000Y-13483762D01*
X2264524Y-13474238D01*
X2274048Y-13455190D01*
X2359762Y-13569476D02*
X2359762Y-13436143D01*
X2359762Y-13455190D02*
X2369286Y-13445667D01*
X2388333Y-13436143D01*
X2416905Y-13436143D01*
X2435952Y-13445667D01*
X2445476Y-13464714D01*
X2445476Y-13569476D01*
X2445476Y-13464714D02*
X2455000Y-13445667D01*
X2474048Y-13436143D01*
X2502619Y-13436143D01*
X2521667Y-13445667D01*
X2531190Y-13464714D01*
X2531190Y-13569476D01*
X2626429Y-13569476D02*
X2626429Y-13436143D01*
X2626429Y-13455190D02*
X2635952Y-13445667D01*
X2655000Y-13436143D01*
X2683571Y-13436143D01*
X2702619Y-13445667D01*
X2712143Y-13464714D01*
X2712143Y-13569476D01*
X2712143Y-13464714D02*
X2721667Y-13445667D01*
X2740714Y-13436143D01*
X2769286Y-13436143D01*
X2788333Y-13445667D01*
X2797857Y-13464714D01*
X2797857Y-13569476D01*
X3188333Y-13359952D02*
X3016905Y-13617095D01*
X3445476Y-13369476D02*
X3464524Y-13369476D01*
X3483571Y-13379000D01*
X3493095Y-13388524D01*
X3502619Y-13407571D01*
X3512143Y-13445667D01*
X3512143Y-13493286D01*
X3502619Y-13531381D01*
X3493095Y-13550428D01*
X3483571Y-13559952D01*
X3464524Y-13569476D01*
X3445476Y-13569476D01*
X3426428Y-13559952D01*
X3416905Y-13550428D01*
X3407381Y-13531381D01*
X3397857Y-13493286D01*
X3397857Y-13445667D01*
X3407381Y-13407571D01*
X3416905Y-13388524D01*
X3426428Y-13379000D01*
X3445476Y-13369476D01*
X3597857Y-13550428D02*
X3607381Y-13559952D01*
X3597857Y-13569476D01*
X3588333Y-13559952D01*
X3597857Y-13550428D01*
X3597857Y-13569476D01*
X3731190Y-13369476D02*
X3750238Y-13369476D01*
X3769286Y-13379000D01*
X3778809Y-13388524D01*
X3788333Y-13407571D01*
X3797857Y-13445667D01*
X3797857Y-13493286D01*
X3788333Y-13531381D01*
X3778809Y-13550428D01*
X3769286Y-13559952D01*
X3750238Y-13569476D01*
X3731190Y-13569476D01*
X3712143Y-13559952D01*
X3702619Y-13550428D01*
X3693095Y-13531381D01*
X3683571Y-13493286D01*
X3683571Y-13445667D01*
X3693095Y-13407571D01*
X3702619Y-13388524D01*
X3712143Y-13379000D01*
X3731190Y-13369476D01*
X3978809Y-13369476D02*
X3883571Y-13369476D01*
X3874048Y-13464714D01*
X3883571Y-13455190D01*
X3902619Y-13445667D01*
X3950238Y-13445667D01*
X3969286Y-13455190D01*
X3978809Y-13464714D01*
X3988333Y-13483762D01*
X3988333Y-13531381D01*
X3978809Y-13550428D01*
X3969286Y-13559952D01*
X3950238Y-13569476D01*
X3902619Y-13569476D01*
X3883571Y-13559952D01*
X3874048Y-13550428D01*
X4083571Y-13569476D02*
X4121667Y-13569476D01*
X4140714Y-13559952D01*
X4150238Y-13550428D01*
X4169286Y-13521857D01*
X4178809Y-13483762D01*
X4178809Y-13407571D01*
X4169286Y-13388524D01*
X4159762Y-13379000D01*
X4140714Y-13369476D01*
X4102619Y-13369476D01*
X4083571Y-13379000D01*
X4074048Y-13388524D01*
X4064524Y-13407571D01*
X4064524Y-13455190D01*
X4074048Y-13474238D01*
X4083571Y-13483762D01*
X4102619Y-13493286D01*
X4140714Y-13493286D01*
X4159762Y-13483762D01*
X4169286Y-13474238D01*
X4178809Y-13455190D01*
X4302619Y-13369476D02*
X4321667Y-13369476D01*
X4340714Y-13379000D01*
X4350238Y-13388524D01*
X4359762Y-13407571D01*
X4369286Y-13445667D01*
X4369286Y-13493286D01*
X4359762Y-13531381D01*
X4350238Y-13550428D01*
X4340714Y-13559952D01*
X4321667Y-13569476D01*
X4302619Y-13569476D01*
X4283571Y-13559952D01*
X4274048Y-13550428D01*
X4264524Y-13531381D01*
X4255000Y-13493286D01*
X4255000Y-13445667D01*
X4264524Y-13407571D01*
X4274048Y-13388524D01*
X4283571Y-13379000D01*
X4302619Y-13369476D01*
X4445476Y-13369476D02*
X4445476Y-13407571D01*
X4521667Y-13369476D02*
X4521667Y-13407571D01*
X4816905Y-13645667D02*
X4807381Y-13636143D01*
X4788333Y-13607571D01*
X4778810Y-13588524D01*
X4769286Y-13559952D01*
X4759762Y-13512333D01*
X4759762Y-13474238D01*
X4769286Y-13426619D01*
X4778810Y-13398048D01*
X4788333Y-13379000D01*
X4807381Y-13350428D01*
X4816905Y-13340905D01*
X4997857Y-13569476D02*
X4883571Y-13569476D01*
X4940714Y-13569476D02*
X4940714Y-13369476D01*
X4921667Y-13398048D01*
X4902619Y-13417095D01*
X4883571Y-13426619D01*
X5178810Y-13369476D02*
X5083571Y-13369476D01*
X5074048Y-13464714D01*
X5083571Y-13455190D01*
X5102619Y-13445667D01*
X5150238Y-13445667D01*
X5169286Y-13455190D01*
X5178810Y-13464714D01*
X5188333Y-13483762D01*
X5188333Y-13531381D01*
X5178810Y-13550428D01*
X5169286Y-13559952D01*
X5150238Y-13569476D01*
X5102619Y-13569476D01*
X5083571Y-13559952D01*
X5074048Y-13550428D01*
X5359762Y-13369476D02*
X5321667Y-13369476D01*
X5302619Y-13379000D01*
X5293095Y-13388524D01*
X5274048Y-13417095D01*
X5264524Y-13455190D01*
X5264524Y-13531381D01*
X5274048Y-13550428D01*
X5283571Y-13559952D01*
X5302619Y-13569476D01*
X5340714Y-13569476D01*
X5359762Y-13559952D01*
X5369286Y-13550428D01*
X5378810Y-13531381D01*
X5378810Y-13483762D01*
X5369286Y-13464714D01*
X5359762Y-13455190D01*
X5340714Y-13445667D01*
X5302619Y-13445667D01*
X5283571Y-13455190D01*
X5274048Y-13464714D01*
X5264524Y-13483762D01*
X5616905Y-13569476D02*
X5616905Y-13369476D01*
X5702619Y-13569476D02*
X5702619Y-13464714D01*
X5693095Y-13445667D01*
X5674048Y-13436143D01*
X5645476Y-13436143D01*
X5626428Y-13445667D01*
X5616905Y-13455190D01*
X5826428Y-13569476D02*
X5807381Y-13559952D01*
X5797857Y-13550428D01*
X5788333Y-13531381D01*
X5788333Y-13474238D01*
X5797857Y-13455190D01*
X5807381Y-13445667D01*
X5826428Y-13436143D01*
X5855000Y-13436143D01*
X5874048Y-13445667D01*
X5883571Y-13455190D01*
X5893095Y-13474238D01*
X5893095Y-13531381D01*
X5883571Y-13550428D01*
X5874048Y-13559952D01*
X5855000Y-13569476D01*
X5826428Y-13569476D01*
X6007381Y-13569476D02*
X5988333Y-13559952D01*
X5978809Y-13540905D01*
X5978809Y-13369476D01*
X6159762Y-13559952D02*
X6140714Y-13569476D01*
X6102619Y-13569476D01*
X6083571Y-13559952D01*
X6074048Y-13540905D01*
X6074048Y-13464714D01*
X6083571Y-13445667D01*
X6102619Y-13436143D01*
X6140714Y-13436143D01*
X6159762Y-13445667D01*
X6169286Y-13464714D01*
X6169286Y-13483762D01*
X6074048Y-13502809D01*
X6245476Y-13559952D02*
X6264524Y-13569476D01*
X6302619Y-13569476D01*
X6321667Y-13559952D01*
X6331190Y-13540905D01*
X6331190Y-13531381D01*
X6321667Y-13512333D01*
X6302619Y-13502809D01*
X6274048Y-13502809D01*
X6255000Y-13493286D01*
X6245476Y-13474238D01*
X6245476Y-13464714D01*
X6255000Y-13445667D01*
X6274048Y-13436143D01*
X6302619Y-13436143D01*
X6321667Y-13445667D01*
X6397857Y-13645667D02*
X6407381Y-13636143D01*
X6426428Y-13607571D01*
X6435952Y-13588524D01*
X6445476Y-13559952D01*
X6455000Y-13512333D01*
X6455000Y-13474238D01*
X6445476Y-13426619D01*
X6435952Y-13398048D01*
X6426428Y-13379000D01*
X6407381Y-13350428D01*
X6397857Y-13340905D01*
X1045000Y-13648860D02*
X1245000Y-13848860D01*
X1245000Y-13648860D02*
X1045000Y-13848860D01*
X1215711Y-13819571D02*
X1215711Y-13678149D01*
X1074289Y-13678149D01*
X1074289Y-13819571D01*
X1215711Y-13819571D01*
X1493095Y-13658384D02*
X1502619Y-13648860D01*
X1521667Y-13639336D01*
X1569286Y-13639336D01*
X1588333Y-13648860D01*
X1597857Y-13658384D01*
X1607381Y-13677431D01*
X1607381Y-13696479D01*
X1597857Y-13725050D01*
X1483571Y-13839336D01*
X1607381Y-13839336D01*
X1693095Y-13820288D02*
X1702619Y-13829812D01*
X1693095Y-13839336D01*
X1683571Y-13829812D01*
X1693095Y-13820288D01*
X1693095Y-13839336D01*
X1826428Y-13639336D02*
X1845476Y-13639336D01*
X1864524Y-13648860D01*
X1874048Y-13658384D01*
X1883571Y-13677431D01*
X1893095Y-13715527D01*
X1893095Y-13763146D01*
X1883571Y-13801241D01*
X1874048Y-13820288D01*
X1864524Y-13829812D01*
X1845476Y-13839336D01*
X1826428Y-13839336D01*
X1807381Y-13829812D01*
X1797857Y-13820288D01*
X1788333Y-13801241D01*
X1778809Y-13763146D01*
X1778809Y-13715527D01*
X1788333Y-13677431D01*
X1797857Y-13658384D01*
X1807381Y-13648860D01*
X1826428Y-13639336D01*
X2016905Y-13639336D02*
X2035952Y-13639336D01*
X2055000Y-13648860D01*
X2064524Y-13658384D01*
X2074048Y-13677431D01*
X2083571Y-13715527D01*
X2083571Y-13763146D01*
X2074048Y-13801241D01*
X2064524Y-13820288D01*
X2055000Y-13829812D01*
X2035952Y-13839336D01*
X2016905Y-13839336D01*
X1997857Y-13829812D01*
X1988333Y-13820288D01*
X1978809Y-13801241D01*
X1969286Y-13763146D01*
X1969286Y-13715527D01*
X1978809Y-13677431D01*
X1988333Y-13658384D01*
X1997857Y-13648860D01*
X2016905Y-13639336D01*
X2207381Y-13639336D02*
X2226429Y-13639336D01*
X2245476Y-13648860D01*
X2255000Y-13658384D01*
X2264524Y-13677431D01*
X2274048Y-13715527D01*
X2274048Y-13763146D01*
X2264524Y-13801241D01*
X2255000Y-13820288D01*
X2245476Y-13829812D01*
X2226429Y-13839336D01*
X2207381Y-13839336D01*
X2188333Y-13829812D01*
X2178810Y-13820288D01*
X2169286Y-13801241D01*
X2159762Y-13763146D01*
X2159762Y-13715527D01*
X2169286Y-13677431D01*
X2178810Y-13658384D01*
X2188333Y-13648860D01*
X2207381Y-13639336D01*
X2359762Y-13839336D02*
X2359762Y-13706003D01*
X2359762Y-13725050D02*
X2369286Y-13715527D01*
X2388333Y-13706003D01*
X2416905Y-13706003D01*
X2435952Y-13715527D01*
X2445476Y-13734574D01*
X2445476Y-13839336D01*
X2445476Y-13734574D02*
X2455000Y-13715527D01*
X2474048Y-13706003D01*
X2502619Y-13706003D01*
X2521667Y-13715527D01*
X2531190Y-13734574D01*
X2531190Y-13839336D01*
X2626429Y-13839336D02*
X2626429Y-13706003D01*
X2626429Y-13725050D02*
X2635952Y-13715527D01*
X2655000Y-13706003D01*
X2683571Y-13706003D01*
X2702619Y-13715527D01*
X2712143Y-13734574D01*
X2712143Y-13839336D01*
X2712143Y-13734574D02*
X2721667Y-13715527D01*
X2740714Y-13706003D01*
X2769286Y-13706003D01*
X2788333Y-13715527D01*
X2797857Y-13734574D01*
X2797857Y-13839336D01*
X3188333Y-13629812D02*
X3016905Y-13886955D01*
X3445476Y-13639336D02*
X3464524Y-13639336D01*
X3483571Y-13648860D01*
X3493095Y-13658384D01*
X3502619Y-13677431D01*
X3512143Y-13715527D01*
X3512143Y-13763146D01*
X3502619Y-13801241D01*
X3493095Y-13820288D01*
X3483571Y-13829812D01*
X3464524Y-13839336D01*
X3445476Y-13839336D01*
X3426428Y-13829812D01*
X3416905Y-13820288D01*
X3407381Y-13801241D01*
X3397857Y-13763146D01*
X3397857Y-13715527D01*
X3407381Y-13677431D01*
X3416905Y-13658384D01*
X3426428Y-13648860D01*
X3445476Y-13639336D01*
X3597857Y-13820288D02*
X3607381Y-13829812D01*
X3597857Y-13839336D01*
X3588333Y-13829812D01*
X3597857Y-13820288D01*
X3597857Y-13839336D01*
X3731190Y-13639336D02*
X3750238Y-13639336D01*
X3769286Y-13648860D01*
X3778809Y-13658384D01*
X3788333Y-13677431D01*
X3797857Y-13715527D01*
X3797857Y-13763146D01*
X3788333Y-13801241D01*
X3778809Y-13820288D01*
X3769286Y-13829812D01*
X3750238Y-13839336D01*
X3731190Y-13839336D01*
X3712143Y-13829812D01*
X3702619Y-13820288D01*
X3693095Y-13801241D01*
X3683571Y-13763146D01*
X3683571Y-13715527D01*
X3693095Y-13677431D01*
X3702619Y-13658384D01*
X3712143Y-13648860D01*
X3731190Y-13639336D01*
X3864524Y-13639336D02*
X3997857Y-13639336D01*
X3912143Y-13839336D01*
X4102619Y-13725050D02*
X4083571Y-13715527D01*
X4074048Y-13706003D01*
X4064524Y-13686955D01*
X4064524Y-13677431D01*
X4074048Y-13658384D01*
X4083571Y-13648860D01*
X4102619Y-13639336D01*
X4140714Y-13639336D01*
X4159762Y-13648860D01*
X4169286Y-13658384D01*
X4178809Y-13677431D01*
X4178809Y-13686955D01*
X4169286Y-13706003D01*
X4159762Y-13715527D01*
X4140714Y-13725050D01*
X4102619Y-13725050D01*
X4083571Y-13734574D01*
X4074048Y-13744098D01*
X4064524Y-13763146D01*
X4064524Y-13801241D01*
X4074048Y-13820288D01*
X4083571Y-13829812D01*
X4102619Y-13839336D01*
X4140714Y-13839336D01*
X4159762Y-13829812D01*
X4169286Y-13820288D01*
X4178809Y-13801241D01*
X4178809Y-13763146D01*
X4169286Y-13744098D01*
X4159762Y-13734574D01*
X4140714Y-13725050D01*
X4245476Y-13639336D02*
X4378810Y-13639336D01*
X4293095Y-13839336D01*
X4445476Y-13639336D02*
X4445476Y-13677431D01*
X4521667Y-13639336D02*
X4521667Y-13677431D01*
X4816905Y-13915527D02*
X4807381Y-13906003D01*
X4788333Y-13877431D01*
X4778810Y-13858384D01*
X4769286Y-13829812D01*
X4759762Y-13782193D01*
X4759762Y-13744098D01*
X4769286Y-13696479D01*
X4778810Y-13667908D01*
X4788333Y-13648860D01*
X4807381Y-13620288D01*
X4816905Y-13610765D01*
X4931190Y-13639336D02*
X4950238Y-13639336D01*
X4969286Y-13648860D01*
X4978810Y-13658384D01*
X4988333Y-13677431D01*
X4997857Y-13715527D01*
X4997857Y-13763146D01*
X4988333Y-13801241D01*
X4978810Y-13820288D01*
X4969286Y-13829812D01*
X4950238Y-13839336D01*
X4931190Y-13839336D01*
X4912143Y-13829812D01*
X4902619Y-13820288D01*
X4893095Y-13801241D01*
X4883571Y-13763146D01*
X4883571Y-13715527D01*
X4893095Y-13677431D01*
X4902619Y-13658384D01*
X4912143Y-13648860D01*
X4931190Y-13639336D01*
X5235952Y-13839336D02*
X5235952Y-13639336D01*
X5321667Y-13839336D02*
X5321667Y-13734574D01*
X5312143Y-13715527D01*
X5293095Y-13706003D01*
X5264524Y-13706003D01*
X5245476Y-13715527D01*
X5235952Y-13725050D01*
X5445476Y-13839336D02*
X5426429Y-13829812D01*
X5416905Y-13820288D01*
X5407381Y-13801241D01*
X5407381Y-13744098D01*
X5416905Y-13725050D01*
X5426429Y-13715527D01*
X5445476Y-13706003D01*
X5474048Y-13706003D01*
X5493095Y-13715527D01*
X5502619Y-13725050D01*
X5512143Y-13744098D01*
X5512143Y-13801241D01*
X5502619Y-13820288D01*
X5493095Y-13829812D01*
X5474048Y-13839336D01*
X5445476Y-13839336D01*
X5626428Y-13839336D02*
X5607381Y-13829812D01*
X5597857Y-13810765D01*
X5597857Y-13639336D01*
X5778809Y-13829812D02*
X5759762Y-13839336D01*
X5721667Y-13839336D01*
X5702619Y-13829812D01*
X5693095Y-13810765D01*
X5693095Y-13734574D01*
X5702619Y-13715527D01*
X5721667Y-13706003D01*
X5759762Y-13706003D01*
X5778809Y-13715527D01*
X5788333Y-13734574D01*
X5788333Y-13753622D01*
X5693095Y-13772669D01*
X5864524Y-13829812D02*
X5883571Y-13839336D01*
X5921667Y-13839336D01*
X5940714Y-13829812D01*
X5950238Y-13810765D01*
X5950238Y-13801241D01*
X5940714Y-13782193D01*
X5921667Y-13772669D01*
X5893095Y-13772669D01*
X5874048Y-13763146D01*
X5864524Y-13744098D01*
X5864524Y-13734574D01*
X5874048Y-13715527D01*
X5893095Y-13706003D01*
X5921667Y-13706003D01*
X5940714Y-13715527D01*
X6188333Y-13763146D02*
X6340714Y-13763146D01*
X6264524Y-13839336D02*
X6264524Y-13686955D01*
X6578809Y-13658384D02*
X6588333Y-13648860D01*
X6607381Y-13639336D01*
X6655000Y-13639336D01*
X6674048Y-13648860D01*
X6683571Y-13658384D01*
X6693095Y-13677431D01*
X6693095Y-13696479D01*
X6683571Y-13725050D01*
X6569286Y-13839336D01*
X6693095Y-13839336D01*
X6921667Y-13829812D02*
X6940714Y-13839336D01*
X6978809Y-13839336D01*
X6997857Y-13829812D01*
X7007381Y-13810765D01*
X7007381Y-13801241D01*
X6997857Y-13782193D01*
X6978809Y-13772669D01*
X6950238Y-13772669D01*
X6931190Y-13763146D01*
X6921667Y-13744098D01*
X6921667Y-13734574D01*
X6931190Y-13715527D01*
X6950238Y-13706003D01*
X6978809Y-13706003D01*
X6997857Y-13715527D01*
X7121667Y-13839336D02*
X7102619Y-13829812D01*
X7093095Y-13810765D01*
X7093095Y-13639336D01*
X7226428Y-13839336D02*
X7207381Y-13829812D01*
X7197857Y-13820288D01*
X7188333Y-13801241D01*
X7188333Y-13744098D01*
X7197857Y-13725050D01*
X7207381Y-13715527D01*
X7226428Y-13706003D01*
X7255000Y-13706003D01*
X7274048Y-13715527D01*
X7283571Y-13725050D01*
X7293095Y-13744098D01*
X7293095Y-13801241D01*
X7283571Y-13820288D01*
X7274048Y-13829812D01*
X7255000Y-13839336D01*
X7226428Y-13839336D01*
X7350238Y-13706003D02*
X7426428Y-13706003D01*
X7378809Y-13639336D02*
X7378809Y-13810765D01*
X7388333Y-13829812D01*
X7407381Y-13839336D01*
X7426428Y-13839336D01*
X7483571Y-13829812D02*
X7502619Y-13839336D01*
X7540714Y-13839336D01*
X7559762Y-13829812D01*
X7569286Y-13810765D01*
X7569286Y-13801241D01*
X7559762Y-13782193D01*
X7540714Y-13772669D01*
X7512143Y-13772669D01*
X7493095Y-13763146D01*
X7483571Y-13744098D01*
X7483571Y-13734574D01*
X7493095Y-13715527D01*
X7512143Y-13706003D01*
X7540714Y-13706003D01*
X7559762Y-13715527D01*
X7635952Y-13915527D02*
X7645476Y-13906003D01*
X7664524Y-13877431D01*
X7674048Y-13858384D01*
X7683571Y-13829812D01*
X7693095Y-13782193D01*
X7693095Y-13744098D01*
X7683571Y-13696479D01*
X7674048Y-13667908D01*
X7664524Y-13648860D01*
X7645476Y-13620288D01*
X7635952Y-13610765D01*
M02*
