%TF.GenerationSoftware,KiCad,Pcbnew,(6.0.8)*%
%TF.CreationDate,2023-04-06T15:31:32+10:00*%
%TF.ProjectId,drazie,6472617a-6965-42e6-9b69-6361645f7063,rev?*%
%TF.SameCoordinates,Original*%
%TF.FileFunction,Legend,Top*%
%TF.FilePolarity,Positive*%
%FSLAX46Y46*%
G04 Gerber Fmt 4.6, Leading zero omitted, Abs format (unit mm)*
G04 Created by KiCad (PCBNEW (6.0.8)) date 2023-04-06 15:31:32*
%MOMM*%
%LPD*%
G01*
G04 APERTURE LIST*
G04 Aperture macros list*
%AMFreePoly0*
4,1,6,0.600000,0.200000,0.000000,-0.400000,-0.600000,0.200000,-0.600000,0.400000,0.600000,0.400000,0.600000,0.200000,0.600000,0.200000,$1*%
%AMFreePoly1*
4,1,6,0.600000,-0.250000,-0.600000,-0.250000,-0.600000,1.000000,0.000000,0.400000,0.600000,1.000000,0.600000,-0.250000,0.600000,-0.250000,$1*%
G04 Aperture macros list end*
%ADD10C,0.150000*%
%ADD11C,0.120000*%
%ADD12C,0.450000*%
%ADD13C,0.250000*%
%ADD14C,0.100000*%
%ADD15O,1.600000X1.600000*%
%ADD16R,1.600000X1.600000*%
%ADD17C,2.000000*%
%ADD18R,2.500000X3.000000*%
%ADD19R,2.000000X2.000000*%
%ADD20C,1.600000*%
%ADD21FreePoly0,270.000000*%
%ADD22FreePoly0,90.000000*%
%ADD23FreePoly1,270.000000*%
%ADD24FreePoly1,90.000000*%
%ADD25C,2.286000*%
%ADD26C,1.701800*%
%ADD27C,3.987800*%
%ADD28C,1.500000*%
%ADD29O,2.200000X1.600000*%
G04 APERTURE END LIST*
D10*
X194238095Y-23952380D02*
X194238095Y-23285714D01*
X194238095Y-23476190D02*
X194285714Y-23380952D01*
X194333333Y-23333333D01*
X194428571Y-23285714D01*
X194523809Y-23285714D01*
X194809523Y-23904761D02*
X194904761Y-23952380D01*
X195095238Y-23952380D01*
X195190476Y-23904761D01*
X195238095Y-23809523D01*
X195238095Y-23761904D01*
X195190476Y-23666666D01*
X195095238Y-23619047D01*
X194952380Y-23619047D01*
X194857142Y-23571428D01*
X194809523Y-23476190D01*
X194809523Y-23428571D01*
X194857142Y-23333333D01*
X194952380Y-23285714D01*
X195095238Y-23285714D01*
X195190476Y-23333333D01*
X195523809Y-23285714D02*
X195904761Y-23285714D01*
X195666666Y-22952380D02*
X195666666Y-23809523D01*
X195714285Y-23904761D01*
X195809523Y-23952380D01*
X195904761Y-23952380D01*
X189357142Y-15404761D02*
X189452380Y-15452380D01*
X189642857Y-15452380D01*
X189738095Y-15404761D01*
X189785714Y-15309523D01*
X189785714Y-15261904D01*
X189738095Y-15166666D01*
X189642857Y-15119047D01*
X189500000Y-15119047D01*
X189404761Y-15071428D01*
X189357142Y-14976190D01*
X189357142Y-14928571D01*
X189404761Y-14833333D01*
X189500000Y-14785714D01*
X189642857Y-14785714D01*
X189738095Y-14833333D01*
X190214285Y-15452380D02*
X190214285Y-14452380D01*
X190642857Y-15452380D02*
X190642857Y-14928571D01*
X190595238Y-14833333D01*
X190500000Y-14785714D01*
X190357142Y-14785714D01*
X190261904Y-14833333D01*
X190214285Y-14880952D01*
X191261904Y-15452380D02*
X191166666Y-15404761D01*
X191119047Y-15357142D01*
X191071428Y-15261904D01*
X191071428Y-14976190D01*
X191119047Y-14880952D01*
X191166666Y-14833333D01*
X191261904Y-14785714D01*
X191404761Y-14785714D01*
X191500000Y-14833333D01*
X191547619Y-14880952D01*
X191595238Y-14976190D01*
X191595238Y-15261904D01*
X191547619Y-15357142D01*
X191500000Y-15404761D01*
X191404761Y-15452380D01*
X191261904Y-15452380D01*
X192023809Y-15452380D02*
X192023809Y-14785714D01*
X192023809Y-14976190D02*
X192071428Y-14880952D01*
X192119047Y-14833333D01*
X192214285Y-14785714D01*
X192309523Y-14785714D01*
X192500000Y-14785714D02*
X192880952Y-14785714D01*
X192642857Y-14452380D02*
X192642857Y-15309523D01*
X192690476Y-15404761D01*
X192785714Y-15452380D01*
X192880952Y-15452380D01*
X193976190Y-14785714D02*
X193976190Y-15785714D01*
X193976190Y-14833333D02*
X194071428Y-14785714D01*
X194261904Y-14785714D01*
X194357142Y-14833333D01*
X194404761Y-14880952D01*
X194452380Y-14976190D01*
X194452380Y-15261904D01*
X194404761Y-15357142D01*
X194357142Y-15404761D01*
X194261904Y-15452380D01*
X194071428Y-15452380D01*
X193976190Y-15404761D01*
X195309523Y-15452380D02*
X195309523Y-14928571D01*
X195261904Y-14833333D01*
X195166666Y-14785714D01*
X194976190Y-14785714D01*
X194880952Y-14833333D01*
X195309523Y-15404761D02*
X195214285Y-15452380D01*
X194976190Y-15452380D01*
X194880952Y-15404761D01*
X194833333Y-15309523D01*
X194833333Y-15214285D01*
X194880952Y-15119047D01*
X194976190Y-15071428D01*
X195214285Y-15071428D01*
X195309523Y-15023809D01*
X196214285Y-15452380D02*
X196214285Y-14452380D01*
X196214285Y-15404761D02*
X196119047Y-15452380D01*
X195928571Y-15452380D01*
X195833333Y-15404761D01*
X195785714Y-15357142D01*
X195738095Y-15261904D01*
X195738095Y-14976190D01*
X195785714Y-14880952D01*
X195833333Y-14833333D01*
X195928571Y-14785714D01*
X196119047Y-14785714D01*
X196214285Y-14833333D01*
X196642857Y-15404761D02*
X196738095Y-15452380D01*
X196928571Y-15452380D01*
X197023809Y-15404761D01*
X197071428Y-15309523D01*
X197071428Y-15261904D01*
X197023809Y-15166666D01*
X196928571Y-15119047D01*
X196785714Y-15119047D01*
X196690476Y-15071428D01*
X196642857Y-14976190D01*
X196642857Y-14928571D01*
X196690476Y-14833333D01*
X196785714Y-14785714D01*
X196928571Y-14785714D01*
X197023809Y-14833333D01*
X198404761Y-15452380D02*
X198309523Y-15404761D01*
X198261904Y-15357142D01*
X198214285Y-15261904D01*
X198214285Y-14976190D01*
X198261904Y-14880952D01*
X198309523Y-14833333D01*
X198404761Y-14785714D01*
X198547619Y-14785714D01*
X198642857Y-14833333D01*
X198690476Y-14880952D01*
X198738095Y-14976190D01*
X198738095Y-15261904D01*
X198690476Y-15357142D01*
X198642857Y-15404761D01*
X198547619Y-15452380D01*
X198404761Y-15452380D01*
X199166666Y-14785714D02*
X199166666Y-15452380D01*
X199166666Y-14880952D02*
X199214285Y-14833333D01*
X199309523Y-14785714D01*
X199452380Y-14785714D01*
X199547619Y-14833333D01*
X199595238Y-14928571D01*
X199595238Y-15452380D01*
X201261904Y-14785714D02*
X201261904Y-15452380D01*
X200833333Y-14785714D02*
X200833333Y-15309523D01*
X200880952Y-15404761D01*
X200976190Y-15452380D01*
X201119047Y-15452380D01*
X201214285Y-15404761D01*
X201261904Y-15357142D01*
X201738095Y-14785714D02*
X201738095Y-15452380D01*
X201738095Y-14880952D02*
X201785714Y-14833333D01*
X201880952Y-14785714D01*
X202023809Y-14785714D01*
X202119047Y-14833333D01*
X202166666Y-14928571D01*
X202166666Y-15452380D01*
X203071428Y-15452380D02*
X203071428Y-14452380D01*
X203071428Y-15404761D02*
X202976190Y-15452380D01*
X202785714Y-15452380D01*
X202690476Y-15404761D01*
X202642857Y-15357142D01*
X202595238Y-15261904D01*
X202595238Y-14976190D01*
X202642857Y-14880952D01*
X202690476Y-14833333D01*
X202785714Y-14785714D01*
X202976190Y-14785714D01*
X203071428Y-14833333D01*
X203928571Y-15404761D02*
X203833333Y-15452380D01*
X203642857Y-15452380D01*
X203547619Y-15404761D01*
X203500000Y-15309523D01*
X203500000Y-14928571D01*
X203547619Y-14833333D01*
X203642857Y-14785714D01*
X203833333Y-14785714D01*
X203928571Y-14833333D01*
X203976190Y-14928571D01*
X203976190Y-15023809D01*
X203500000Y-15119047D01*
X204404761Y-15452380D02*
X204404761Y-14785714D01*
X204404761Y-14976190D02*
X204452380Y-14880952D01*
X204500000Y-14833333D01*
X204595238Y-14785714D01*
X204690476Y-14785714D01*
X204976190Y-15404761D02*
X205071428Y-15452380D01*
X205261904Y-15452380D01*
X205357142Y-15404761D01*
X205404761Y-15309523D01*
X205404761Y-15261904D01*
X205357142Y-15166666D01*
X205261904Y-15119047D01*
X205119047Y-15119047D01*
X205023809Y-15071428D01*
X204976190Y-14976190D01*
X204976190Y-14928571D01*
X205023809Y-14833333D01*
X205119047Y-14785714D01*
X205261904Y-14785714D01*
X205357142Y-14833333D01*
X205833333Y-15452380D02*
X205833333Y-14785714D01*
X205833333Y-14452380D02*
X205785714Y-14500000D01*
X205833333Y-14547619D01*
X205880952Y-14500000D01*
X205833333Y-14452380D01*
X205833333Y-14547619D01*
X206738095Y-15452380D02*
X206738095Y-14452380D01*
X206738095Y-15404761D02*
X206642857Y-15452380D01*
X206452380Y-15452380D01*
X206357142Y-15404761D01*
X206309523Y-15357142D01*
X206261904Y-15261904D01*
X206261904Y-14976190D01*
X206309523Y-14880952D01*
X206357142Y-14833333D01*
X206452380Y-14785714D01*
X206642857Y-14785714D01*
X206738095Y-14833333D01*
X207595238Y-15404761D02*
X207500000Y-15452380D01*
X207309523Y-15452380D01*
X207214285Y-15404761D01*
X207166666Y-15309523D01*
X207166666Y-14928571D01*
X207214285Y-14833333D01*
X207309523Y-14785714D01*
X207500000Y-14785714D01*
X207595238Y-14833333D01*
X207642857Y-14928571D01*
X207642857Y-15023809D01*
X207166666Y-15119047D01*
%TO.C,rotary encoder*%
X195702380Y-74785714D02*
X195035714Y-74785714D01*
X195226190Y-74785714D02*
X195130952Y-74738095D01*
X195083333Y-74690476D01*
X195035714Y-74595238D01*
X195035714Y-74500000D01*
X195702380Y-74023809D02*
X195654761Y-74119047D01*
X195607142Y-74166666D01*
X195511904Y-74214285D01*
X195226190Y-74214285D01*
X195130952Y-74166666D01*
X195083333Y-74119047D01*
X195035714Y-74023809D01*
X195035714Y-73880952D01*
X195083333Y-73785714D01*
X195130952Y-73738095D01*
X195226190Y-73690476D01*
X195511904Y-73690476D01*
X195607142Y-73738095D01*
X195654761Y-73785714D01*
X195702380Y-73880952D01*
X195702380Y-74023809D01*
X195035714Y-73404761D02*
X195035714Y-73023809D01*
X194702380Y-73261904D02*
X195559523Y-73261904D01*
X195654761Y-73214285D01*
X195702380Y-73119047D01*
X195702380Y-73023809D01*
X195702380Y-72261904D02*
X195178571Y-72261904D01*
X195083333Y-72309523D01*
X195035714Y-72404761D01*
X195035714Y-72595238D01*
X195083333Y-72690476D01*
X195654761Y-72261904D02*
X195702380Y-72357142D01*
X195702380Y-72595238D01*
X195654761Y-72690476D01*
X195559523Y-72738095D01*
X195464285Y-72738095D01*
X195369047Y-72690476D01*
X195321428Y-72595238D01*
X195321428Y-72357142D01*
X195273809Y-72261904D01*
X195702380Y-71785714D02*
X195035714Y-71785714D01*
X195226190Y-71785714D02*
X195130952Y-71738095D01*
X195083333Y-71690476D01*
X195035714Y-71595238D01*
X195035714Y-71500000D01*
X195035714Y-71261904D02*
X195702380Y-71023809D01*
X195035714Y-70785714D02*
X195702380Y-71023809D01*
X195940476Y-71119047D01*
X195988095Y-71166666D01*
X196035714Y-71261904D01*
X195654761Y-69261904D02*
X195702380Y-69357142D01*
X195702380Y-69547619D01*
X195654761Y-69642857D01*
X195559523Y-69690476D01*
X195178571Y-69690476D01*
X195083333Y-69642857D01*
X195035714Y-69547619D01*
X195035714Y-69357142D01*
X195083333Y-69261904D01*
X195178571Y-69214285D01*
X195273809Y-69214285D01*
X195369047Y-69690476D01*
X195035714Y-68785714D02*
X195702380Y-68785714D01*
X195130952Y-68785714D02*
X195083333Y-68738095D01*
X195035714Y-68642857D01*
X195035714Y-68500000D01*
X195083333Y-68404761D01*
X195178571Y-68357142D01*
X195702380Y-68357142D01*
X195654761Y-67452380D02*
X195702380Y-67547619D01*
X195702380Y-67738095D01*
X195654761Y-67833333D01*
X195607142Y-67880952D01*
X195511904Y-67928571D01*
X195226190Y-67928571D01*
X195130952Y-67880952D01*
X195083333Y-67833333D01*
X195035714Y-67738095D01*
X195035714Y-67547619D01*
X195083333Y-67452380D01*
X195702380Y-66880952D02*
X195654761Y-66976190D01*
X195607142Y-67023809D01*
X195511904Y-67071428D01*
X195226190Y-67071428D01*
X195130952Y-67023809D01*
X195083333Y-66976190D01*
X195035714Y-66880952D01*
X195035714Y-66738095D01*
X195083333Y-66642857D01*
X195130952Y-66595238D01*
X195226190Y-66547619D01*
X195511904Y-66547619D01*
X195607142Y-66595238D01*
X195654761Y-66642857D01*
X195702380Y-66738095D01*
X195702380Y-66880952D01*
X195702380Y-65690476D02*
X194702380Y-65690476D01*
X195654761Y-65690476D02*
X195702380Y-65785714D01*
X195702380Y-65976190D01*
X195654761Y-66071428D01*
X195607142Y-66119047D01*
X195511904Y-66166666D01*
X195226190Y-66166666D01*
X195130952Y-66119047D01*
X195083333Y-66071428D01*
X195035714Y-65976190D01*
X195035714Y-65785714D01*
X195083333Y-65690476D01*
X195654761Y-64833333D02*
X195702380Y-64928571D01*
X195702380Y-65119047D01*
X195654761Y-65214285D01*
X195559523Y-65261904D01*
X195178571Y-65261904D01*
X195083333Y-65214285D01*
X195035714Y-65119047D01*
X195035714Y-64928571D01*
X195083333Y-64833333D01*
X195178571Y-64785714D01*
X195273809Y-64785714D01*
X195369047Y-65261904D01*
X195702380Y-64357142D02*
X195035714Y-64357142D01*
X195226190Y-64357142D02*
X195130952Y-64309523D01*
X195083333Y-64261904D01*
X195035714Y-64166666D01*
X195035714Y-64071428D01*
%TO.C,MCU1*%
%TO.C,trrs jack*%
X199380952Y-50285714D02*
X199761904Y-50285714D01*
X199523809Y-49952380D02*
X199523809Y-50809523D01*
X199571428Y-50904761D01*
X199666666Y-50952380D01*
X199761904Y-50952380D01*
X200095238Y-50952380D02*
X200095238Y-50285714D01*
X200095238Y-50476190D02*
X200142857Y-50380952D01*
X200190476Y-50333333D01*
X200285714Y-50285714D01*
X200380952Y-50285714D01*
X200714285Y-50952380D02*
X200714285Y-50285714D01*
X200714285Y-50476190D02*
X200761904Y-50380952D01*
X200809523Y-50333333D01*
X200904761Y-50285714D01*
X201000000Y-50285714D01*
X201285714Y-50904761D02*
X201380952Y-50952380D01*
X201571428Y-50952380D01*
X201666666Y-50904761D01*
X201714285Y-50809523D01*
X201714285Y-50761904D01*
X201666666Y-50666666D01*
X201571428Y-50619047D01*
X201428571Y-50619047D01*
X201333333Y-50571428D01*
X201285714Y-50476190D01*
X201285714Y-50428571D01*
X201333333Y-50333333D01*
X201428571Y-50285714D01*
X201571428Y-50285714D01*
X201666666Y-50333333D01*
X202904761Y-50285714D02*
X202904761Y-51142857D01*
X202857142Y-51238095D01*
X202761904Y-51285714D01*
X202714285Y-51285714D01*
X202904761Y-49952380D02*
X202857142Y-50000000D01*
X202904761Y-50047619D01*
X202952380Y-50000000D01*
X202904761Y-49952380D01*
X202904761Y-50047619D01*
X203809523Y-50952380D02*
X203809523Y-50428571D01*
X203761904Y-50333333D01*
X203666666Y-50285714D01*
X203476190Y-50285714D01*
X203380952Y-50333333D01*
X203809523Y-50904761D02*
X203714285Y-50952380D01*
X203476190Y-50952380D01*
X203380952Y-50904761D01*
X203333333Y-50809523D01*
X203333333Y-50714285D01*
X203380952Y-50619047D01*
X203476190Y-50571428D01*
X203714285Y-50571428D01*
X203809523Y-50523809D01*
X204714285Y-50904761D02*
X204619047Y-50952380D01*
X204428571Y-50952380D01*
X204333333Y-50904761D01*
X204285714Y-50857142D01*
X204238095Y-50761904D01*
X204238095Y-50476190D01*
X204285714Y-50380952D01*
X204333333Y-50333333D01*
X204428571Y-50285714D01*
X204619047Y-50285714D01*
X204714285Y-50333333D01*
X205142857Y-50952380D02*
X205142857Y-49952380D01*
X205238095Y-50571428D02*
X205523809Y-50952380D01*
X205523809Y-50285714D02*
X205142857Y-50666666D01*
D11*
%TO.C,R*%
X128920000Y-103000000D02*
X129570000Y-103000000D01*
X133810000Y-101880000D02*
X129570000Y-101880000D01*
X133810000Y-104120000D02*
X133810000Y-101880000D01*
X134460000Y-103000000D02*
X133810000Y-103000000D01*
X132970000Y-104120000D02*
X132970000Y-101880000D01*
X129570000Y-101880000D02*
X129570000Y-104120000D01*
X133210000Y-104120000D02*
X133210000Y-101880000D01*
X133090000Y-104120000D02*
X133090000Y-101880000D01*
X129570000Y-104120000D02*
X133810000Y-104120000D01*
X118920000Y-103000000D02*
X119570000Y-103000000D01*
X123810000Y-101880000D02*
X119570000Y-101880000D01*
X123810000Y-104120000D02*
X123810000Y-101880000D01*
X124460000Y-103000000D02*
X123810000Y-103000000D01*
X122970000Y-104120000D02*
X122970000Y-101880000D01*
X119570000Y-101880000D02*
X119570000Y-104120000D01*
X123210000Y-104120000D02*
X123210000Y-101880000D01*
X123090000Y-104120000D02*
X123090000Y-101880000D01*
X119570000Y-104120000D02*
X123810000Y-104120000D01*
X138920000Y-103000000D02*
X139570000Y-103000000D01*
X143810000Y-101880000D02*
X139570000Y-101880000D01*
X143810000Y-104120000D02*
X143810000Y-101880000D01*
X144460000Y-103000000D02*
X143810000Y-103000000D01*
X142970000Y-104120000D02*
X142970000Y-101880000D01*
X139570000Y-101880000D02*
X139570000Y-104120000D01*
X143210000Y-104120000D02*
X143210000Y-101880000D01*
X143090000Y-104120000D02*
X143090000Y-101880000D01*
X139570000Y-104120000D02*
X143810000Y-104120000D01*
%TO.C,rotary encoder*%
X202000000Y-69500000D02*
G75*
G03*
X202000000Y-69500000I-3000000J0D01*
G01*
X199000000Y-69000000D02*
X199000000Y-70000000D01*
X192700000Y-62800000D02*
X195500000Y-62800000D01*
X192700000Y-67700000D02*
X192700000Y-62800000D01*
X202800000Y-62000000D02*
X203100000Y-61700000D01*
X200300000Y-76200000D02*
X197700000Y-76200000D01*
X205300000Y-71300000D02*
X205300000Y-76200000D01*
X203100000Y-61700000D02*
X203100000Y-62300000D01*
X205300000Y-62800000D02*
X202800000Y-62800000D01*
X199500000Y-69500000D02*
X198500000Y-69500000D01*
X205300000Y-76200000D02*
X202700000Y-76200000D01*
X192700000Y-76200000D02*
X192700000Y-71300000D01*
X203100000Y-62300000D02*
X202800000Y-62000000D01*
X205300000Y-67600000D02*
X205300000Y-62800000D01*
X195300000Y-76200000D02*
X192700000Y-76200000D01*
%TO.C,R*%
X140920000Y-97000000D02*
X141570000Y-97000000D01*
X145810000Y-95880000D02*
X141570000Y-95880000D01*
X145810000Y-98120000D02*
X145810000Y-95880000D01*
X146460000Y-97000000D02*
X145810000Y-97000000D01*
X144970000Y-98120000D02*
X144970000Y-95880000D01*
X141570000Y-95880000D02*
X141570000Y-98120000D01*
X145210000Y-98120000D02*
X145210000Y-95880000D01*
X145090000Y-98120000D02*
X145090000Y-95880000D01*
X141570000Y-98120000D02*
X145810000Y-98120000D01*
X142920000Y-91000000D02*
X143570000Y-91000000D01*
X147810000Y-89880000D02*
X143570000Y-89880000D01*
X147810000Y-92120000D02*
X147810000Y-89880000D01*
X148460000Y-91000000D02*
X147810000Y-91000000D01*
X146970000Y-92120000D02*
X146970000Y-89880000D01*
X143570000Y-89880000D02*
X143570000Y-92120000D01*
X147210000Y-92120000D02*
X147210000Y-89880000D01*
X147090000Y-92120000D02*
X147090000Y-89880000D01*
X143570000Y-92120000D02*
X147810000Y-92120000D01*
X141920000Y-94000000D02*
X142570000Y-94000000D01*
X146810000Y-92880000D02*
X142570000Y-92880000D01*
X146810000Y-95120000D02*
X146810000Y-92880000D01*
X147460000Y-94000000D02*
X146810000Y-94000000D01*
X145970000Y-95120000D02*
X145970000Y-92880000D01*
X142570000Y-92880000D02*
X142570000Y-95120000D01*
X146210000Y-95120000D02*
X146210000Y-92880000D01*
X146090000Y-95120000D02*
X146090000Y-92880000D01*
X142570000Y-95120000D02*
X146810000Y-95120000D01*
X139920000Y-100000000D02*
X140570000Y-100000000D01*
X144810000Y-98880000D02*
X140570000Y-98880000D01*
X144810000Y-101120000D02*
X144810000Y-98880000D01*
X145460000Y-100000000D02*
X144810000Y-100000000D01*
X143970000Y-101120000D02*
X143970000Y-98880000D01*
X140570000Y-98880000D02*
X140570000Y-101120000D01*
X144210000Y-101120000D02*
X144210000Y-98880000D01*
X144090000Y-101120000D02*
X144090000Y-98880000D01*
X140570000Y-101120000D02*
X144810000Y-101120000D01*
X130920000Y-97000000D02*
X131570000Y-97000000D01*
X135810000Y-95880000D02*
X131570000Y-95880000D01*
X135810000Y-98120000D02*
X135810000Y-95880000D01*
X136460000Y-97000000D02*
X135810000Y-97000000D01*
X134970000Y-98120000D02*
X134970000Y-95880000D01*
X131570000Y-95880000D02*
X131570000Y-98120000D01*
X135210000Y-98120000D02*
X135210000Y-95880000D01*
X135090000Y-98120000D02*
X135090000Y-95880000D01*
X131570000Y-98120000D02*
X135810000Y-98120000D01*
X132920000Y-91000000D02*
X133570000Y-91000000D01*
X137810000Y-89880000D02*
X133570000Y-89880000D01*
X137810000Y-92120000D02*
X137810000Y-89880000D01*
X138460000Y-91000000D02*
X137810000Y-91000000D01*
X136970000Y-92120000D02*
X136970000Y-89880000D01*
X133570000Y-89880000D02*
X133570000Y-92120000D01*
X137210000Y-92120000D02*
X137210000Y-89880000D01*
X137090000Y-92120000D02*
X137090000Y-89880000D01*
X133570000Y-92120000D02*
X137810000Y-92120000D01*
X131920000Y-94000000D02*
X132570000Y-94000000D01*
X136810000Y-92880000D02*
X132570000Y-92880000D01*
X136810000Y-95120000D02*
X136810000Y-92880000D01*
X137460000Y-94000000D02*
X136810000Y-94000000D01*
X135970000Y-95120000D02*
X135970000Y-92880000D01*
X132570000Y-92880000D02*
X132570000Y-95120000D01*
X136210000Y-95120000D02*
X136210000Y-92880000D01*
X136090000Y-95120000D02*
X136090000Y-92880000D01*
X132570000Y-95120000D02*
X136810000Y-95120000D01*
X129920000Y-100000000D02*
X130570000Y-100000000D01*
X134810000Y-98880000D02*
X130570000Y-98880000D01*
X134810000Y-101120000D02*
X134810000Y-98880000D01*
X135460000Y-100000000D02*
X134810000Y-100000000D01*
X133970000Y-101120000D02*
X133970000Y-98880000D01*
X130570000Y-98880000D02*
X130570000Y-101120000D01*
X134210000Y-101120000D02*
X134210000Y-98880000D01*
X134090000Y-101120000D02*
X134090000Y-98880000D01*
X130570000Y-101120000D02*
X134810000Y-101120000D01*
X120920000Y-97000000D02*
X121570000Y-97000000D01*
X125810000Y-95880000D02*
X121570000Y-95880000D01*
X125810000Y-98120000D02*
X125810000Y-95880000D01*
X126460000Y-97000000D02*
X125810000Y-97000000D01*
X124970000Y-98120000D02*
X124970000Y-95880000D01*
X121570000Y-95880000D02*
X121570000Y-98120000D01*
X125210000Y-98120000D02*
X125210000Y-95880000D01*
X125090000Y-98120000D02*
X125090000Y-95880000D01*
X121570000Y-98120000D02*
X125810000Y-98120000D01*
X122920000Y-91000000D02*
X123570000Y-91000000D01*
X127810000Y-89880000D02*
X123570000Y-89880000D01*
X127810000Y-92120000D02*
X127810000Y-89880000D01*
X128460000Y-91000000D02*
X127810000Y-91000000D01*
X126970000Y-92120000D02*
X126970000Y-89880000D01*
X123570000Y-89880000D02*
X123570000Y-92120000D01*
X127210000Y-92120000D02*
X127210000Y-89880000D01*
X127090000Y-92120000D02*
X127090000Y-89880000D01*
X123570000Y-92120000D02*
X127810000Y-92120000D01*
X121920000Y-94000000D02*
X122570000Y-94000000D01*
X126810000Y-92880000D02*
X122570000Y-92880000D01*
X126810000Y-95120000D02*
X126810000Y-92880000D01*
X127460000Y-94000000D02*
X126810000Y-94000000D01*
X125970000Y-95120000D02*
X125970000Y-92880000D01*
X122570000Y-92880000D02*
X122570000Y-95120000D01*
X126210000Y-95120000D02*
X126210000Y-92880000D01*
X126090000Y-95120000D02*
X126090000Y-92880000D01*
X122570000Y-95120000D02*
X126810000Y-95120000D01*
X119920000Y-100000000D02*
X120570000Y-100000000D01*
X124810000Y-98880000D02*
X120570000Y-98880000D01*
X124810000Y-101120000D02*
X124810000Y-98880000D01*
X125460000Y-100000000D02*
X124810000Y-100000000D01*
X123970000Y-101120000D02*
X123970000Y-98880000D01*
X120570000Y-98880000D02*
X120570000Y-101120000D01*
X124210000Y-101120000D02*
X124210000Y-98880000D01*
X124090000Y-101120000D02*
X124090000Y-98880000D01*
X120570000Y-101120000D02*
X124810000Y-101120000D01*
X110920000Y-97000000D02*
X111570000Y-97000000D01*
X115810000Y-95880000D02*
X111570000Y-95880000D01*
X115810000Y-98120000D02*
X115810000Y-95880000D01*
X116460000Y-97000000D02*
X115810000Y-97000000D01*
X114970000Y-98120000D02*
X114970000Y-95880000D01*
X111570000Y-95880000D02*
X111570000Y-98120000D01*
X115210000Y-98120000D02*
X115210000Y-95880000D01*
X115090000Y-98120000D02*
X115090000Y-95880000D01*
X111570000Y-98120000D02*
X115810000Y-98120000D01*
X112920000Y-91000000D02*
X113570000Y-91000000D01*
X117810000Y-89880000D02*
X113570000Y-89880000D01*
X117810000Y-92120000D02*
X117810000Y-89880000D01*
X118460000Y-91000000D02*
X117810000Y-91000000D01*
X116970000Y-92120000D02*
X116970000Y-89880000D01*
X113570000Y-89880000D02*
X113570000Y-92120000D01*
X117210000Y-92120000D02*
X117210000Y-89880000D01*
X117090000Y-92120000D02*
X117090000Y-89880000D01*
X113570000Y-92120000D02*
X117810000Y-92120000D01*
X111920000Y-94000000D02*
X112570000Y-94000000D01*
X116810000Y-92880000D02*
X112570000Y-92880000D01*
X116810000Y-95120000D02*
X116810000Y-92880000D01*
X117460000Y-94000000D02*
X116810000Y-94000000D01*
X115970000Y-95120000D02*
X115970000Y-92880000D01*
X112570000Y-92880000D02*
X112570000Y-95120000D01*
X116210000Y-95120000D02*
X116210000Y-92880000D01*
X116090000Y-95120000D02*
X116090000Y-92880000D01*
X112570000Y-95120000D02*
X116810000Y-95120000D01*
X109920000Y-100000000D02*
X110570000Y-100000000D01*
X114810000Y-98880000D02*
X110570000Y-98880000D01*
X114810000Y-101120000D02*
X114810000Y-98880000D01*
X115460000Y-100000000D02*
X114810000Y-100000000D01*
X113970000Y-101120000D02*
X113970000Y-98880000D01*
X110570000Y-98880000D02*
X110570000Y-101120000D01*
X114210000Y-101120000D02*
X114210000Y-98880000D01*
X114090000Y-101120000D02*
X114090000Y-98880000D01*
X110570000Y-101120000D02*
X114810000Y-101120000D01*
X100920000Y-97000000D02*
X101570000Y-97000000D01*
X105810000Y-95880000D02*
X101570000Y-95880000D01*
X105810000Y-98120000D02*
X105810000Y-95880000D01*
X106460000Y-97000000D02*
X105810000Y-97000000D01*
X104970000Y-98120000D02*
X104970000Y-95880000D01*
X101570000Y-95880000D02*
X101570000Y-98120000D01*
X105210000Y-98120000D02*
X105210000Y-95880000D01*
X105090000Y-98120000D02*
X105090000Y-95880000D01*
X101570000Y-98120000D02*
X105810000Y-98120000D01*
X102920000Y-91000000D02*
X103570000Y-91000000D01*
X107810000Y-89880000D02*
X103570000Y-89880000D01*
X107810000Y-92120000D02*
X107810000Y-89880000D01*
X108460000Y-91000000D02*
X107810000Y-91000000D01*
X106970000Y-92120000D02*
X106970000Y-89880000D01*
X103570000Y-89880000D02*
X103570000Y-92120000D01*
X107210000Y-92120000D02*
X107210000Y-89880000D01*
X107090000Y-92120000D02*
X107090000Y-89880000D01*
X103570000Y-92120000D02*
X107810000Y-92120000D01*
X101920000Y-94000000D02*
X102570000Y-94000000D01*
X106810000Y-92880000D02*
X102570000Y-92880000D01*
X106810000Y-95120000D02*
X106810000Y-92880000D01*
X107460000Y-94000000D02*
X106810000Y-94000000D01*
X105970000Y-95120000D02*
X105970000Y-92880000D01*
X102570000Y-92880000D02*
X102570000Y-95120000D01*
X106210000Y-95120000D02*
X106210000Y-92880000D01*
X106090000Y-95120000D02*
X106090000Y-92880000D01*
X102570000Y-95120000D02*
X106810000Y-95120000D01*
X99920000Y-100000000D02*
X100570000Y-100000000D01*
X104810000Y-98880000D02*
X100570000Y-98880000D01*
X104810000Y-101120000D02*
X104810000Y-98880000D01*
X105460000Y-100000000D02*
X104810000Y-100000000D01*
X103970000Y-101120000D02*
X103970000Y-98880000D01*
X100570000Y-98880000D02*
X100570000Y-101120000D01*
X104210000Y-101120000D02*
X104210000Y-98880000D01*
X104090000Y-101120000D02*
X104090000Y-98880000D01*
X100570000Y-101120000D02*
X104810000Y-101120000D01*
X90920000Y-96992834D02*
X91570000Y-96992834D01*
X95810000Y-95872834D02*
X91570000Y-95872834D01*
X95810000Y-98112834D02*
X95810000Y-95872834D01*
X96460000Y-96992834D02*
X95810000Y-96992834D01*
X94970000Y-98112834D02*
X94970000Y-95872834D01*
X91570000Y-95872834D02*
X91570000Y-98112834D01*
X95210000Y-98112834D02*
X95210000Y-95872834D01*
X95090000Y-98112834D02*
X95090000Y-95872834D01*
X91570000Y-98112834D02*
X95810000Y-98112834D01*
X92920000Y-90992834D02*
X93570000Y-90992834D01*
X97810000Y-89872834D02*
X93570000Y-89872834D01*
X97810000Y-92112834D02*
X97810000Y-89872834D01*
X98460000Y-90992834D02*
X97810000Y-90992834D01*
X96970000Y-92112834D02*
X96970000Y-89872834D01*
X93570000Y-89872834D02*
X93570000Y-92112834D01*
X97210000Y-92112834D02*
X97210000Y-89872834D01*
X97090000Y-92112834D02*
X97090000Y-89872834D01*
X93570000Y-92112834D02*
X97810000Y-92112834D01*
X91920000Y-93992834D02*
X92570000Y-93992834D01*
X96810000Y-92872834D02*
X92570000Y-92872834D01*
X96810000Y-95112834D02*
X96810000Y-92872834D01*
X97460000Y-93992834D02*
X96810000Y-93992834D01*
X95970000Y-95112834D02*
X95970000Y-92872834D01*
X92570000Y-92872834D02*
X92570000Y-95112834D01*
X96210000Y-95112834D02*
X96210000Y-92872834D01*
X96090000Y-95112834D02*
X96090000Y-92872834D01*
X92570000Y-95112834D02*
X96810000Y-95112834D01*
X89920000Y-99992834D02*
X90570000Y-99992834D01*
X94810000Y-98872834D02*
X90570000Y-98872834D01*
X94810000Y-101112834D02*
X94810000Y-98872834D01*
X95460000Y-99992834D02*
X94810000Y-99992834D01*
X93970000Y-101112834D02*
X93970000Y-98872834D01*
X90570000Y-98872834D02*
X90570000Y-101112834D01*
X94210000Y-101112834D02*
X94210000Y-98872834D01*
X94090000Y-101112834D02*
X94090000Y-98872834D01*
X90570000Y-101112834D02*
X94810000Y-101112834D01*
X59920000Y-100000000D02*
X60570000Y-100000000D01*
X64810000Y-98880000D02*
X60570000Y-98880000D01*
X64810000Y-101120000D02*
X64810000Y-98880000D01*
X65460000Y-100000000D02*
X64810000Y-100000000D01*
X63970000Y-101120000D02*
X63970000Y-98880000D01*
X60570000Y-98880000D02*
X60570000Y-101120000D01*
X64210000Y-101120000D02*
X64210000Y-98880000D01*
X64090000Y-101120000D02*
X64090000Y-98880000D01*
X60570000Y-101120000D02*
X64810000Y-101120000D01*
X60920000Y-97000000D02*
X61570000Y-97000000D01*
X65810000Y-95880000D02*
X61570000Y-95880000D01*
X65810000Y-98120000D02*
X65810000Y-95880000D01*
X66460000Y-97000000D02*
X65810000Y-97000000D01*
X64970000Y-98120000D02*
X64970000Y-95880000D01*
X61570000Y-95880000D02*
X61570000Y-98120000D01*
X65210000Y-98120000D02*
X65210000Y-95880000D01*
X65090000Y-98120000D02*
X65090000Y-95880000D01*
X61570000Y-98120000D02*
X65810000Y-98120000D01*
X61920000Y-94000000D02*
X62570000Y-94000000D01*
X66810000Y-92880000D02*
X62570000Y-92880000D01*
X66810000Y-95120000D02*
X66810000Y-92880000D01*
X67460000Y-94000000D02*
X66810000Y-94000000D01*
X65970000Y-95120000D02*
X65970000Y-92880000D01*
X62570000Y-92880000D02*
X62570000Y-95120000D01*
X66210000Y-95120000D02*
X66210000Y-92880000D01*
X66090000Y-95120000D02*
X66090000Y-92880000D01*
X62570000Y-95120000D02*
X66810000Y-95120000D01*
X62920000Y-91000000D02*
X63570000Y-91000000D01*
X67810000Y-89880000D02*
X63570000Y-89880000D01*
X67810000Y-92120000D02*
X67810000Y-89880000D01*
X68460000Y-91000000D02*
X67810000Y-91000000D01*
X66970000Y-92120000D02*
X66970000Y-89880000D01*
X63570000Y-89880000D02*
X63570000Y-92120000D01*
X67210000Y-92120000D02*
X67210000Y-89880000D01*
X67090000Y-92120000D02*
X67090000Y-89880000D01*
X63570000Y-92120000D02*
X67810000Y-92120000D01*
X69920000Y-100000000D02*
X70570000Y-100000000D01*
X74810000Y-98880000D02*
X70570000Y-98880000D01*
X74810000Y-101120000D02*
X74810000Y-98880000D01*
X75460000Y-100000000D02*
X74810000Y-100000000D01*
X73970000Y-101120000D02*
X73970000Y-98880000D01*
X70570000Y-98880000D02*
X70570000Y-101120000D01*
X74210000Y-101120000D02*
X74210000Y-98880000D01*
X74090000Y-101120000D02*
X74090000Y-98880000D01*
X70570000Y-101120000D02*
X74810000Y-101120000D01*
X70920000Y-97000000D02*
X71570000Y-97000000D01*
X75810000Y-95880000D02*
X71570000Y-95880000D01*
X75810000Y-98120000D02*
X75810000Y-95880000D01*
X76460000Y-97000000D02*
X75810000Y-97000000D01*
X74970000Y-98120000D02*
X74970000Y-95880000D01*
X71570000Y-95880000D02*
X71570000Y-98120000D01*
X75210000Y-98120000D02*
X75210000Y-95880000D01*
X75090000Y-98120000D02*
X75090000Y-95880000D01*
X71570000Y-98120000D02*
X75810000Y-98120000D01*
X71920000Y-94000000D02*
X72570000Y-94000000D01*
X76810000Y-92880000D02*
X72570000Y-92880000D01*
X76810000Y-95120000D02*
X76810000Y-92880000D01*
X77460000Y-94000000D02*
X76810000Y-94000000D01*
X75970000Y-95120000D02*
X75970000Y-92880000D01*
X72570000Y-92880000D02*
X72570000Y-95120000D01*
X76210000Y-95120000D02*
X76210000Y-92880000D01*
X76090000Y-95120000D02*
X76090000Y-92880000D01*
X72570000Y-95120000D02*
X76810000Y-95120000D01*
X72920000Y-91000000D02*
X73570000Y-91000000D01*
X77810000Y-89880000D02*
X73570000Y-89880000D01*
X77810000Y-92120000D02*
X77810000Y-89880000D01*
X78460000Y-91000000D02*
X77810000Y-91000000D01*
X76970000Y-92120000D02*
X76970000Y-89880000D01*
X73570000Y-89880000D02*
X73570000Y-92120000D01*
X77210000Y-92120000D02*
X77210000Y-89880000D01*
X77090000Y-92120000D02*
X77090000Y-89880000D01*
X73570000Y-92120000D02*
X77810000Y-92120000D01*
X79920000Y-100000000D02*
X80570000Y-100000000D01*
X84810000Y-98880000D02*
X80570000Y-98880000D01*
X84810000Y-101120000D02*
X84810000Y-98880000D01*
X85460000Y-100000000D02*
X84810000Y-100000000D01*
X83970000Y-101120000D02*
X83970000Y-98880000D01*
X80570000Y-98880000D02*
X80570000Y-101120000D01*
X84210000Y-101120000D02*
X84210000Y-98880000D01*
X84090000Y-101120000D02*
X84090000Y-98880000D01*
X80570000Y-101120000D02*
X84810000Y-101120000D01*
X80920000Y-97000000D02*
X81570000Y-97000000D01*
X85810000Y-95880000D02*
X81570000Y-95880000D01*
X85810000Y-98120000D02*
X85810000Y-95880000D01*
X86460000Y-97000000D02*
X85810000Y-97000000D01*
X84970000Y-98120000D02*
X84970000Y-95880000D01*
X81570000Y-95880000D02*
X81570000Y-98120000D01*
X85210000Y-98120000D02*
X85210000Y-95880000D01*
X85090000Y-98120000D02*
X85090000Y-95880000D01*
X81570000Y-98120000D02*
X85810000Y-98120000D01*
X81920000Y-94000000D02*
X82570000Y-94000000D01*
X86810000Y-92880000D02*
X82570000Y-92880000D01*
X86810000Y-95120000D02*
X86810000Y-92880000D01*
X87460000Y-94000000D02*
X86810000Y-94000000D01*
X85970000Y-95120000D02*
X85970000Y-92880000D01*
X82570000Y-92880000D02*
X82570000Y-95120000D01*
X86210000Y-95120000D02*
X86210000Y-92880000D01*
X86090000Y-95120000D02*
X86090000Y-92880000D01*
X82570000Y-95120000D02*
X86810000Y-95120000D01*
X82920000Y-91000000D02*
X83570000Y-91000000D01*
X87810000Y-89880000D02*
X83570000Y-89880000D01*
X87810000Y-92120000D02*
X87810000Y-89880000D01*
X88460000Y-91000000D02*
X87810000Y-91000000D01*
X86970000Y-92120000D02*
X86970000Y-89880000D01*
X83570000Y-89880000D02*
X83570000Y-92120000D01*
X87210000Y-92120000D02*
X87210000Y-89880000D01*
X87090000Y-92120000D02*
X87090000Y-89880000D01*
X83570000Y-92120000D02*
X87810000Y-92120000D01*
D10*
%TO.C,MCU1*%
X191912000Y-17019000D02*
X189372000Y-17019000D01*
X191912000Y-19559000D02*
X189372000Y-19559000D01*
X189372000Y-19559000D02*
X189372000Y-17019000D01*
X191912000Y-17019000D02*
X191912000Y-19559000D01*
%TD*%
%LPC*%
X196071428Y-90952380D02*
X196071428Y-89952380D01*
X196071428Y-90333333D02*
X196166666Y-90285714D01*
X196357142Y-90285714D01*
X196452380Y-90333333D01*
X196500000Y-90380952D01*
X196547619Y-90476190D01*
X196547619Y-90761904D01*
X196500000Y-90857142D01*
X196452380Y-90904761D01*
X196357142Y-90952380D01*
X196166666Y-90952380D01*
X196071428Y-90904761D01*
X196880952Y-90285714D02*
X197119047Y-90952380D01*
X197357142Y-90285714D02*
X197119047Y-90952380D01*
X197023809Y-91190476D01*
X196976190Y-91238095D01*
X196880952Y-91285714D01*
X198928571Y-90285714D02*
X198928571Y-91095238D01*
X198880952Y-91190476D01*
X198833333Y-91238095D01*
X198738095Y-91285714D01*
X198595238Y-91285714D01*
X198500000Y-91238095D01*
X198928571Y-90904761D02*
X198833333Y-90952380D01*
X198642857Y-90952380D01*
X198547619Y-90904761D01*
X198500000Y-90857142D01*
X198452380Y-90761904D01*
X198452380Y-90476190D01*
X198500000Y-90380952D01*
X198547619Y-90333333D01*
X198642857Y-90285714D01*
X198833333Y-90285714D01*
X198928571Y-90333333D01*
X199404761Y-90285714D02*
X199404761Y-90952380D01*
X199404761Y-90380952D02*
X199452380Y-90333333D01*
X199547619Y-90285714D01*
X199690476Y-90285714D01*
X199785714Y-90333333D01*
X199833333Y-90428571D01*
X199833333Y-90952380D01*
X200738095Y-90952380D02*
X200738095Y-90428571D01*
X200690476Y-90333333D01*
X200595238Y-90285714D01*
X200404761Y-90285714D01*
X200309523Y-90333333D01*
X200738095Y-90904761D02*
X200642857Y-90952380D01*
X200404761Y-90952380D01*
X200309523Y-90904761D01*
X200261904Y-90809523D01*
X200261904Y-90714285D01*
X200309523Y-90619047D01*
X200404761Y-90571428D01*
X200642857Y-90571428D01*
X200738095Y-90523809D01*
X201119047Y-90285714D02*
X201309523Y-90952380D01*
X201500000Y-90476190D01*
X201690476Y-90952380D01*
X201880952Y-90285714D01*
X202261904Y-90952380D02*
X202261904Y-90285714D01*
X202261904Y-90380952D02*
X202309523Y-90333333D01*
X202404761Y-90285714D01*
X202547619Y-90285714D01*
X202642857Y-90333333D01*
X202690476Y-90428571D01*
X202690476Y-90952380D01*
X202690476Y-90428571D02*
X202738095Y-90333333D01*
X202833333Y-90285714D01*
X202976190Y-90285714D01*
X203071428Y-90333333D01*
X203119047Y-90428571D01*
X203119047Y-90952380D01*
X204023809Y-90952380D02*
X204023809Y-90428571D01*
X203976190Y-90333333D01*
X203880952Y-90285714D01*
X203690476Y-90285714D01*
X203595238Y-90333333D01*
X204023809Y-90904761D02*
X203928571Y-90952380D01*
X203690476Y-90952380D01*
X203595238Y-90904761D01*
X203547619Y-90809523D01*
X203547619Y-90714285D01*
X203595238Y-90619047D01*
X203690476Y-90571428D01*
X203928571Y-90571428D01*
X204023809Y-90523809D01*
X204500000Y-90285714D02*
X204500000Y-90952380D01*
X204500000Y-90380952D02*
X204547619Y-90333333D01*
X204642857Y-90285714D01*
X204785714Y-90285714D01*
X204880952Y-90333333D01*
X204928571Y-90428571D01*
X204928571Y-90952380D01*
D12*
X193493214Y-82442142D02*
X193493214Y-79442142D01*
X193493214Y-82299285D02*
X193207500Y-82442142D01*
X192636071Y-82442142D01*
X192350357Y-82299285D01*
X192207500Y-82156428D01*
X192064642Y-81870714D01*
X192064642Y-81013571D01*
X192207500Y-80727857D01*
X192350357Y-80585000D01*
X192636071Y-80442142D01*
X193207500Y-80442142D01*
X193493214Y-80585000D01*
X194921785Y-82442142D02*
X194921785Y-80442142D01*
X194921785Y-81013571D02*
X195064642Y-80727857D01*
X195207500Y-80585000D01*
X195493214Y-80442142D01*
X195778928Y-80442142D01*
X198064642Y-82442142D02*
X198064642Y-80870714D01*
X197921785Y-80585000D01*
X197636071Y-80442142D01*
X197064642Y-80442142D01*
X196778928Y-80585000D01*
X198064642Y-82299285D02*
X197778928Y-82442142D01*
X197064642Y-82442142D01*
X196778928Y-82299285D01*
X196636071Y-82013571D01*
X196636071Y-81727857D01*
X196778928Y-81442142D01*
X197064642Y-81299285D01*
X197778928Y-81299285D01*
X198064642Y-81156428D01*
X199207500Y-80442142D02*
X200778928Y-80442142D01*
X199207500Y-82442142D01*
X200778928Y-82442142D01*
X201921785Y-82442142D02*
X201921785Y-80442142D01*
X201921785Y-79442142D02*
X201778928Y-79585000D01*
X201921785Y-79727857D01*
X202064642Y-79585000D01*
X201921785Y-79442142D01*
X201921785Y-79727857D01*
X204493214Y-82299285D02*
X204207500Y-82442142D01*
X203636071Y-82442142D01*
X203350357Y-82299285D01*
X203207500Y-82013571D01*
X203207500Y-80870714D01*
X203350357Y-80585000D01*
X203636071Y-80442142D01*
X204207500Y-80442142D01*
X204493214Y-80585000D01*
X204636071Y-80870714D01*
X204636071Y-81156428D01*
X203207500Y-81442142D01*
X196350357Y-87272142D02*
X196350357Y-85272142D01*
X196350357Y-85843571D02*
X196493214Y-85557857D01*
X196636071Y-85415000D01*
X196921785Y-85272142D01*
X197207500Y-85272142D01*
X199350357Y-87129285D02*
X199064642Y-87272142D01*
X198493214Y-87272142D01*
X198207500Y-87129285D01*
X198064642Y-86843571D01*
X198064642Y-85700714D01*
X198207500Y-85415000D01*
X198493214Y-85272142D01*
X199064642Y-85272142D01*
X199350357Y-85415000D01*
X199493214Y-85700714D01*
X199493214Y-85986428D01*
X198064642Y-86272142D01*
X200493214Y-85272142D02*
X201207500Y-87272142D01*
X201921785Y-85272142D01*
X204636071Y-87272142D02*
X202921785Y-87272142D01*
X203778928Y-87272142D02*
X203778928Y-84272142D01*
X203493214Y-84700714D01*
X203207500Y-84986428D01*
X202921785Y-85129285D01*
D13*
%TO.C,MCU1*%
X197625000Y-25909000D02*
G75*
G03*
X197625000Y-25909000I-125000J0D01*
G01*
X199149000Y-25909000D02*
G75*
G03*
X199149000Y-25909000I-125000J0D01*
G01*
X197625000Y-28449000D02*
G75*
G03*
X197625000Y-28449000I-125000J0D01*
G01*
X197625000Y-30989000D02*
G75*
G03*
X197625000Y-30989000I-125000J0D01*
G01*
X199149000Y-43689000D02*
G75*
G03*
X199149000Y-43689000I-125000J0D01*
G01*
X199149000Y-18289000D02*
G75*
G03*
X199149000Y-18289000I-125000J0D01*
G01*
X197625000Y-23369000D02*
G75*
G03*
X197625000Y-23369000I-125000J0D01*
G01*
X199149000Y-28449000D02*
G75*
G03*
X199149000Y-28449000I-125000J0D01*
G01*
X197625000Y-18289000D02*
G75*
G03*
X197625000Y-18289000I-125000J0D01*
G01*
X197625000Y-43689000D02*
G75*
G03*
X197625000Y-43689000I-125000J0D01*
G01*
X199149000Y-38609000D02*
G75*
G03*
X199149000Y-38609000I-125000J0D01*
G01*
X199149000Y-33529000D02*
G75*
G03*
X199149000Y-33529000I-125000J0D01*
G01*
X197625000Y-41149000D02*
G75*
G03*
X197625000Y-41149000I-125000J0D01*
G01*
X199149000Y-41149000D02*
G75*
G03*
X199149000Y-41149000I-125000J0D01*
G01*
X197625000Y-38609000D02*
G75*
G03*
X197625000Y-38609000I-125000J0D01*
G01*
X199149000Y-36069000D02*
G75*
G03*
X199149000Y-36069000I-125000J0D01*
G01*
X197625000Y-46229000D02*
G75*
G03*
X197625000Y-46229000I-125000J0D01*
G01*
X197625000Y-36069000D02*
G75*
G03*
X197625000Y-36069000I-125000J0D01*
G01*
X197625000Y-20829000D02*
G75*
G03*
X197625000Y-20829000I-125000J0D01*
G01*
X197625000Y-33529000D02*
G75*
G03*
X197625000Y-33529000I-125000J0D01*
G01*
X199149000Y-30989000D02*
G75*
G03*
X199149000Y-30989000I-125000J0D01*
G01*
X199149000Y-20829000D02*
G75*
G03*
X199149000Y-20829000I-125000J0D01*
G01*
X199149000Y-46229000D02*
G75*
G03*
X199149000Y-46229000I-125000J0D01*
G01*
X199149000Y-23369000D02*
G75*
G03*
X199149000Y-23369000I-125000J0D01*
G01*
G36*
X204358000Y-34037000D02*
G01*
X203342000Y-34037000D01*
X203342000Y-33021000D01*
X204358000Y-33021000D01*
X204358000Y-34037000D01*
G37*
D14*
X204358000Y-34037000D02*
X203342000Y-34037000D01*
X203342000Y-33021000D01*
X204358000Y-33021000D01*
X204358000Y-34037000D01*
G36*
X193182000Y-44197000D02*
G01*
X192166000Y-44197000D01*
X192166000Y-43181000D01*
X193182000Y-43181000D01*
X193182000Y-44197000D01*
G37*
X193182000Y-44197000D02*
X192166000Y-44197000D01*
X192166000Y-43181000D01*
X193182000Y-43181000D01*
X193182000Y-44197000D01*
G36*
X193182000Y-28957000D02*
G01*
X192166000Y-28957000D01*
X192166000Y-27941000D01*
X193182000Y-27941000D01*
X193182000Y-28957000D01*
G37*
X193182000Y-28957000D02*
X192166000Y-28957000D01*
X192166000Y-27941000D01*
X193182000Y-27941000D01*
X193182000Y-28957000D01*
G36*
X204358000Y-18797000D02*
G01*
X203342000Y-18797000D01*
X203342000Y-17781000D01*
X204358000Y-17781000D01*
X204358000Y-18797000D01*
G37*
X204358000Y-18797000D02*
X203342000Y-18797000D01*
X203342000Y-17781000D01*
X204358000Y-17781000D01*
X204358000Y-18797000D01*
G36*
X193182000Y-39117000D02*
G01*
X192166000Y-39117000D01*
X192166000Y-38101000D01*
X193182000Y-38101000D01*
X193182000Y-39117000D01*
G37*
X193182000Y-39117000D02*
X192166000Y-39117000D01*
X192166000Y-38101000D01*
X193182000Y-38101000D01*
X193182000Y-39117000D01*
G36*
X204358000Y-21337000D02*
G01*
X203342000Y-21337000D01*
X203342000Y-20321000D01*
X204358000Y-20321000D01*
X204358000Y-21337000D01*
G37*
X204358000Y-21337000D02*
X203342000Y-21337000D01*
X203342000Y-20321000D01*
X204358000Y-20321000D01*
X204358000Y-21337000D01*
G36*
X193182000Y-21337000D02*
G01*
X192166000Y-21337000D01*
X192166000Y-20321000D01*
X193182000Y-20321000D01*
X193182000Y-21337000D01*
G37*
X193182000Y-21337000D02*
X192166000Y-21337000D01*
X192166000Y-20321000D01*
X193182000Y-20321000D01*
X193182000Y-21337000D01*
G36*
X204358000Y-41657000D02*
G01*
X203342000Y-41657000D01*
X203342000Y-40641000D01*
X204358000Y-40641000D01*
X204358000Y-41657000D01*
G37*
X204358000Y-41657000D02*
X203342000Y-41657000D01*
X203342000Y-40641000D01*
X204358000Y-40641000D01*
X204358000Y-41657000D01*
G36*
X193182000Y-36577000D02*
G01*
X192166000Y-36577000D01*
X192166000Y-35561000D01*
X193182000Y-35561000D01*
X193182000Y-36577000D01*
G37*
X193182000Y-36577000D02*
X192166000Y-36577000D01*
X192166000Y-35561000D01*
X193182000Y-35561000D01*
X193182000Y-36577000D01*
G36*
X204358000Y-39117000D02*
G01*
X203342000Y-39117000D01*
X203342000Y-38101000D01*
X204358000Y-38101000D01*
X204358000Y-39117000D01*
G37*
X204358000Y-39117000D02*
X203342000Y-39117000D01*
X203342000Y-38101000D01*
X204358000Y-38101000D01*
X204358000Y-39117000D01*
G36*
X193182000Y-26417000D02*
G01*
X192166000Y-26417000D01*
X192166000Y-25401000D01*
X193182000Y-25401000D01*
X193182000Y-26417000D01*
G37*
X193182000Y-26417000D02*
X192166000Y-26417000D01*
X192166000Y-25401000D01*
X193182000Y-25401000D01*
X193182000Y-26417000D01*
G36*
X193182000Y-46737000D02*
G01*
X192166000Y-46737000D01*
X192166000Y-45721000D01*
X193182000Y-45721000D01*
X193182000Y-46737000D01*
G37*
X193182000Y-46737000D02*
X192166000Y-46737000D01*
X192166000Y-45721000D01*
X193182000Y-45721000D01*
X193182000Y-46737000D01*
G36*
X204358000Y-46737000D02*
G01*
X203342000Y-46737000D01*
X203342000Y-45721000D01*
X204358000Y-45721000D01*
X204358000Y-46737000D01*
G37*
X204358000Y-46737000D02*
X203342000Y-46737000D01*
X203342000Y-45721000D01*
X204358000Y-45721000D01*
X204358000Y-46737000D01*
G36*
X193182000Y-23877000D02*
G01*
X192166000Y-23877000D01*
X192166000Y-22861000D01*
X193182000Y-22861000D01*
X193182000Y-23877000D01*
G37*
X193182000Y-23877000D02*
X192166000Y-23877000D01*
X192166000Y-22861000D01*
X193182000Y-22861000D01*
X193182000Y-23877000D01*
G36*
X193182000Y-31497000D02*
G01*
X192166000Y-31497000D01*
X192166000Y-30481000D01*
X193182000Y-30481000D01*
X193182000Y-31497000D01*
G37*
X193182000Y-31497000D02*
X192166000Y-31497000D01*
X192166000Y-30481000D01*
X193182000Y-30481000D01*
X193182000Y-31497000D01*
G36*
X204358000Y-23877000D02*
G01*
X203342000Y-23877000D01*
X203342000Y-22861000D01*
X204358000Y-22861000D01*
X204358000Y-23877000D01*
G37*
X204358000Y-23877000D02*
X203342000Y-23877000D01*
X203342000Y-22861000D01*
X204358000Y-22861000D01*
X204358000Y-23877000D01*
G36*
X193182000Y-18797000D02*
G01*
X192166000Y-18797000D01*
X192166000Y-17781000D01*
X193182000Y-17781000D01*
X193182000Y-18797000D01*
G37*
X193182000Y-18797000D02*
X192166000Y-18797000D01*
X192166000Y-17781000D01*
X193182000Y-17781000D01*
X193182000Y-18797000D01*
G36*
X193182000Y-41657000D02*
G01*
X192166000Y-41657000D01*
X192166000Y-40641000D01*
X193182000Y-40641000D01*
X193182000Y-41657000D01*
G37*
X193182000Y-41657000D02*
X192166000Y-41657000D01*
X192166000Y-40641000D01*
X193182000Y-40641000D01*
X193182000Y-41657000D01*
G36*
X204358000Y-36577000D02*
G01*
X203342000Y-36577000D01*
X203342000Y-35561000D01*
X204358000Y-35561000D01*
X204358000Y-36577000D01*
G37*
X204358000Y-36577000D02*
X203342000Y-36577000D01*
X203342000Y-35561000D01*
X204358000Y-35561000D01*
X204358000Y-36577000D01*
G36*
X204358000Y-44197000D02*
G01*
X203342000Y-44197000D01*
X203342000Y-43181000D01*
X204358000Y-43181000D01*
X204358000Y-44197000D01*
G37*
X204358000Y-44197000D02*
X203342000Y-44197000D01*
X203342000Y-43181000D01*
X204358000Y-43181000D01*
X204358000Y-44197000D01*
G36*
X204358000Y-31497000D02*
G01*
X203342000Y-31497000D01*
X203342000Y-30481000D01*
X204358000Y-30481000D01*
X204358000Y-31497000D01*
G37*
X204358000Y-31497000D02*
X203342000Y-31497000D01*
X203342000Y-30481000D01*
X204358000Y-30481000D01*
X204358000Y-31497000D01*
G36*
X193182000Y-34037000D02*
G01*
X192166000Y-34037000D01*
X192166000Y-33021000D01*
X193182000Y-33021000D01*
X193182000Y-34037000D01*
G37*
X193182000Y-34037000D02*
X192166000Y-34037000D01*
X192166000Y-33021000D01*
X193182000Y-33021000D01*
X193182000Y-34037000D01*
G36*
X204358000Y-28957000D02*
G01*
X203342000Y-28957000D01*
X203342000Y-27941000D01*
X204358000Y-27941000D01*
X204358000Y-28957000D01*
G37*
X204358000Y-28957000D02*
X203342000Y-28957000D01*
X203342000Y-27941000D01*
X204358000Y-27941000D01*
X204358000Y-28957000D01*
G36*
X204358000Y-26417000D02*
G01*
X203342000Y-26417000D01*
X203342000Y-25401000D01*
X204358000Y-25401000D01*
X204358000Y-26417000D01*
G37*
X204358000Y-26417000D02*
X203342000Y-26417000D01*
X203342000Y-25401000D01*
X204358000Y-25401000D01*
X204358000Y-26417000D01*
%TD*%
D15*
%TO.C,R*%
X127880000Y-103000000D03*
D16*
X135500000Y-103000000D03*
%TD*%
D15*
%TO.C,R*%
X117880000Y-103000000D03*
D16*
X125500000Y-103000000D03*
%TD*%
D15*
%TO.C,R*%
X137880000Y-103000000D03*
D16*
X145500000Y-103000000D03*
%TD*%
D17*
%TO.C,rotary encoder*%
X196500000Y-76500000D03*
X201500000Y-76500000D03*
D18*
X204600000Y-69500000D03*
X193400000Y-69500000D03*
D17*
X199000000Y-62000000D03*
X196500000Y-62000000D03*
D19*
X201500000Y-62000000D03*
%TD*%
D15*
%TO.C,R*%
X139880000Y-97000000D03*
D16*
X147500000Y-97000000D03*
%TD*%
D15*
%TO.C,R*%
X141880000Y-91000000D03*
D16*
X149500000Y-91000000D03*
%TD*%
D15*
%TO.C,R*%
X140880000Y-94000000D03*
D16*
X148500000Y-94000000D03*
%TD*%
D15*
%TO.C,R*%
X138880000Y-100000000D03*
D16*
X146500000Y-100000000D03*
%TD*%
D15*
%TO.C,R*%
X129880000Y-97000000D03*
D16*
X137500000Y-97000000D03*
%TD*%
D15*
%TO.C,R*%
X131880000Y-91000000D03*
D16*
X139500000Y-91000000D03*
%TD*%
D15*
%TO.C,R*%
X130880000Y-94000000D03*
D16*
X138500000Y-94000000D03*
%TD*%
D15*
%TO.C,R*%
X128880000Y-100000000D03*
D16*
X136500000Y-100000000D03*
%TD*%
D15*
%TO.C,R*%
X119880000Y-97000000D03*
D16*
X127500000Y-97000000D03*
%TD*%
D15*
%TO.C,R*%
X121880000Y-91000000D03*
D16*
X129500000Y-91000000D03*
%TD*%
D15*
%TO.C,R*%
X120880000Y-94000000D03*
D16*
X128500000Y-94000000D03*
%TD*%
D15*
%TO.C,R*%
X118880000Y-100000000D03*
D16*
X126500000Y-100000000D03*
%TD*%
D15*
%TO.C,R*%
X109880000Y-97000000D03*
D16*
X117500000Y-97000000D03*
%TD*%
D15*
%TO.C,R*%
X111880000Y-91000000D03*
D16*
X119500000Y-91000000D03*
%TD*%
D15*
%TO.C,R*%
X110880000Y-94000000D03*
D16*
X118500000Y-94000000D03*
%TD*%
D15*
%TO.C,R*%
X108880000Y-100000000D03*
D16*
X116500000Y-100000000D03*
%TD*%
D15*
%TO.C,R*%
X99880000Y-97000000D03*
D16*
X107500000Y-97000000D03*
%TD*%
D15*
%TO.C,R*%
X101880000Y-91000000D03*
D16*
X109500000Y-91000000D03*
%TD*%
D15*
%TO.C,R*%
X100880000Y-94000000D03*
D16*
X108500000Y-94000000D03*
%TD*%
D15*
%TO.C,R*%
X98880000Y-100000000D03*
D16*
X106500000Y-100000000D03*
%TD*%
D15*
%TO.C,R*%
X89880000Y-96992834D03*
D16*
X97500000Y-96992834D03*
%TD*%
D15*
%TO.C,R*%
X91880000Y-90992834D03*
D16*
X99500000Y-90992834D03*
%TD*%
D15*
%TO.C,R*%
X90880000Y-93992834D03*
D16*
X98500000Y-93992834D03*
%TD*%
D15*
%TO.C,R*%
X88880000Y-99992834D03*
D16*
X96500000Y-99992834D03*
%TD*%
D15*
%TO.C,R*%
X58880000Y-100000000D03*
D16*
X66500000Y-100000000D03*
%TD*%
D15*
%TO.C,R*%
X59880000Y-97000000D03*
D16*
X67500000Y-97000000D03*
%TD*%
D15*
%TO.C,R*%
X60880000Y-94000000D03*
D16*
X68500000Y-94000000D03*
%TD*%
D15*
%TO.C,R*%
X61880000Y-91000000D03*
D16*
X69500000Y-91000000D03*
%TD*%
D15*
%TO.C,R*%
X68880000Y-100000000D03*
D16*
X76500000Y-100000000D03*
%TD*%
D15*
%TO.C,R*%
X69880000Y-97000000D03*
D16*
X77500000Y-97000000D03*
%TD*%
D15*
%TO.C,R*%
X70880000Y-94000000D03*
D16*
X78500000Y-94000000D03*
%TD*%
D15*
%TO.C,R*%
X71880000Y-91000000D03*
D16*
X79500000Y-91000000D03*
%TD*%
D15*
%TO.C,R*%
X78880000Y-100000000D03*
D16*
X86500000Y-100000000D03*
%TD*%
D15*
%TO.C,R*%
X79880000Y-97000000D03*
D16*
X87500000Y-97000000D03*
%TD*%
D15*
%TO.C,R*%
X80880000Y-94000000D03*
D16*
X88500000Y-94000000D03*
%TD*%
D15*
%TO.C,R*%
X81880000Y-91000000D03*
D16*
X89500000Y-91000000D03*
%TD*%
D20*
%TO.C,MCU1*%
X190642000Y-28449000D03*
X190642000Y-41149000D03*
X190642000Y-18289000D03*
X205882000Y-18289000D03*
D21*
X204104000Y-30989000D03*
D20*
X190642000Y-43689000D03*
X190642000Y-20829000D03*
D21*
X204104000Y-38609000D03*
D20*
X205882000Y-36069000D03*
D22*
X192420000Y-20829000D03*
D20*
X190642000Y-23369000D03*
D22*
X192420000Y-41149000D03*
D20*
X190642000Y-46229000D03*
D21*
X204104000Y-43689000D03*
X204104000Y-46229000D03*
X204104000Y-41149000D03*
D20*
X190642000Y-33529000D03*
X205882000Y-33529000D03*
D22*
X192420000Y-23369000D03*
X192420000Y-25909000D03*
D20*
X190642000Y-25909000D03*
D22*
X192420000Y-38609000D03*
X192420000Y-46229000D03*
X192420000Y-30989000D03*
X192420000Y-43689000D03*
D20*
X205882000Y-46229000D03*
D22*
X192420000Y-33529000D03*
D20*
X205882000Y-41149000D03*
X205882000Y-30989000D03*
D21*
X204104000Y-33529000D03*
X204104000Y-25909000D03*
D20*
X205882000Y-20829000D03*
D21*
X204104000Y-36069000D03*
D20*
X190642000Y-36069000D03*
D21*
X204104000Y-18289000D03*
D20*
X205882000Y-38609000D03*
D22*
X192420000Y-28449000D03*
D16*
X190642000Y-18289000D03*
D21*
X204104000Y-28449000D03*
D22*
X192420000Y-18289000D03*
D20*
X190642000Y-30989000D03*
D22*
X192420000Y-36069000D03*
D20*
X205882000Y-25909000D03*
X205882000Y-23369000D03*
D21*
X204104000Y-20829000D03*
D20*
X190642000Y-38609000D03*
X205882000Y-43689000D03*
X205882000Y-28449000D03*
D21*
X204104000Y-23369000D03*
D23*
X203088000Y-18289000D03*
X203088000Y-20829000D03*
X203088000Y-23369000D03*
X203088000Y-25909000D03*
X203088000Y-28449000D03*
X203088000Y-30989000D03*
X203088000Y-33529000D03*
X203088000Y-36069000D03*
X203088000Y-38609000D03*
X203088000Y-41149000D03*
X203088000Y-43689000D03*
X203088000Y-46229000D03*
D24*
X193436000Y-46229000D03*
X193436000Y-43689000D03*
X193436000Y-41149000D03*
X193436000Y-38609000D03*
X193436000Y-36069000D03*
X193436000Y-33529000D03*
X193436000Y-30989000D03*
X193436000Y-28449000D03*
X193436000Y-25909000D03*
X193436000Y-23369000D03*
X193436000Y-20829000D03*
X193436000Y-18289000D03*
%TD*%
D25*
%TO.C,S14*%
X144810000Y-76460000D03*
X137190000Y-76460000D03*
X138460000Y-73920000D03*
X143540000Y-73920000D03*
D26*
X146080000Y-79000000D03*
D27*
X141000000Y-79000000D03*
D26*
X135920000Y-79000000D03*
%TD*%
D25*
%TO.C,S14*%
X106810000Y-76460000D03*
X99190000Y-76460000D03*
X100460000Y-73920000D03*
X105540000Y-73920000D03*
D26*
X108080000Y-79000000D03*
D27*
X103000000Y-79000000D03*
D26*
X97920000Y-79000000D03*
%TD*%
D25*
%TO.C,S14*%
X163810000Y-76460000D03*
X156190000Y-76460000D03*
X157460000Y-73920000D03*
X162540000Y-73920000D03*
D26*
X165080000Y-79000000D03*
D27*
X160000000Y-79000000D03*
D26*
X154920000Y-79000000D03*
%TD*%
D25*
%TO.C,S14*%
X87810000Y-76460000D03*
X80190000Y-76460000D03*
X81460000Y-73920000D03*
X86540000Y-73920000D03*
D26*
X89080000Y-79000000D03*
D27*
X84000000Y-79000000D03*
D26*
X78920000Y-79000000D03*
%TD*%
D25*
%TO.C,S14*%
X182810000Y-76460000D03*
X175190000Y-76460000D03*
X176460000Y-73920000D03*
X181540000Y-73920000D03*
D26*
X184080000Y-79000000D03*
D27*
X179000000Y-79000000D03*
D26*
X173920000Y-79000000D03*
%TD*%
D25*
%TO.C,S14*%
X125810000Y-76460000D03*
X118190000Y-76460000D03*
X119460000Y-73920000D03*
X124540000Y-73920000D03*
D26*
X127080000Y-79000000D03*
D27*
X122000000Y-79000000D03*
D26*
X116920000Y-79000000D03*
%TD*%
D25*
%TO.C,S14*%
X163810000Y-57460000D03*
X156190000Y-57460000D03*
X157460000Y-54920000D03*
X162540000Y-54920000D03*
D26*
X165080000Y-60000000D03*
D27*
X160000000Y-60000000D03*
D26*
X154920000Y-60000000D03*
%TD*%
D25*
%TO.C,S14*%
X87810000Y-57460000D03*
X80190000Y-57460000D03*
X81460000Y-54920000D03*
X86540000Y-54920000D03*
D26*
X89080000Y-60000000D03*
D27*
X84000000Y-60000000D03*
D26*
X78920000Y-60000000D03*
%TD*%
D25*
%TO.C,S14*%
X182810000Y-57460000D03*
X175190000Y-57460000D03*
X176460000Y-54920000D03*
X181540000Y-54920000D03*
D26*
X184080000Y-60000000D03*
D27*
X179000000Y-60000000D03*
D26*
X173920000Y-60000000D03*
%TD*%
D25*
%TO.C,S14*%
X144810000Y-57460000D03*
X137190000Y-57460000D03*
X138460000Y-54920000D03*
X143540000Y-54920000D03*
D26*
X146080000Y-60000000D03*
D27*
X141000000Y-60000000D03*
D26*
X135920000Y-60000000D03*
%TD*%
D25*
%TO.C,S14*%
X125810000Y-57460000D03*
X118190000Y-57460000D03*
X119460000Y-54920000D03*
X124540000Y-54920000D03*
D26*
X127080000Y-60000000D03*
D27*
X122000000Y-60000000D03*
D26*
X116920000Y-60000000D03*
%TD*%
D25*
%TO.C,S14*%
X106810000Y-57460000D03*
X99190000Y-57460000D03*
X100460000Y-54920000D03*
X105540000Y-54920000D03*
D26*
X108080000Y-60000000D03*
D27*
X103000000Y-60000000D03*
D26*
X97920000Y-60000000D03*
%TD*%
%TO.C,S14*%
X16920000Y-79000000D03*
D27*
X22000000Y-79000000D03*
D26*
X27080000Y-79000000D03*
D25*
X24540000Y-73920000D03*
X19460000Y-73920000D03*
X18190000Y-76460000D03*
X25810000Y-76460000D03*
%TD*%
%TO.C,S14*%
X183310000Y-100460000D03*
X175690000Y-100460000D03*
X176960000Y-97920000D03*
X182040000Y-97920000D03*
D26*
X184580000Y-103000000D03*
D27*
X179500000Y-103000000D03*
D26*
X174420000Y-103000000D03*
%TD*%
D25*
%TO.C,S14*%
X164310000Y-100460000D03*
X156690000Y-100460000D03*
X157960000Y-97920000D03*
X163040000Y-97920000D03*
D26*
X165580000Y-103000000D03*
D27*
X160500000Y-103000000D03*
D26*
X155420000Y-103000000D03*
%TD*%
D25*
%TO.C,S14*%
X202310000Y-100460000D03*
X194690000Y-100460000D03*
X195960000Y-97920000D03*
X201040000Y-97920000D03*
D26*
X203580000Y-103000000D03*
D27*
X198500000Y-103000000D03*
D26*
X193420000Y-103000000D03*
%TD*%
D25*
%TO.C,S14*%
X182810000Y-19460000D03*
X175190000Y-19460000D03*
X176460000Y-16920000D03*
X181540000Y-16920000D03*
D26*
X184080000Y-22000000D03*
D27*
X179000000Y-22000000D03*
D26*
X173920000Y-22000000D03*
%TD*%
D25*
%TO.C,S14*%
X182810000Y-38460000D03*
X175190000Y-38460000D03*
X176460000Y-35920000D03*
X181540000Y-35920000D03*
D26*
X184080000Y-41000000D03*
D27*
X179000000Y-41000000D03*
D26*
X173920000Y-41000000D03*
%TD*%
D25*
%TO.C,S14*%
X163810000Y-19460000D03*
X156190000Y-19460000D03*
X157460000Y-16920000D03*
X162540000Y-16920000D03*
D26*
X165080000Y-22000000D03*
D27*
X160000000Y-22000000D03*
D26*
X154920000Y-22000000D03*
%TD*%
D25*
%TO.C,S14*%
X163810000Y-38460000D03*
X156190000Y-38460000D03*
X157460000Y-35920000D03*
X162540000Y-35920000D03*
D26*
X165080000Y-41000000D03*
D27*
X160000000Y-41000000D03*
D26*
X154920000Y-41000000D03*
%TD*%
D25*
%TO.C,S14*%
X144810000Y-19460000D03*
X137190000Y-19460000D03*
X138460000Y-16920000D03*
X143540000Y-16920000D03*
D26*
X146080000Y-22000000D03*
D27*
X141000000Y-22000000D03*
D26*
X135920000Y-22000000D03*
%TD*%
D25*
%TO.C,S14*%
X144810000Y-38460000D03*
X137190000Y-38460000D03*
X138460000Y-35920000D03*
X143540000Y-35920000D03*
D26*
X146080000Y-41000000D03*
D27*
X141000000Y-41000000D03*
D26*
X135920000Y-41000000D03*
%TD*%
D25*
%TO.C,S14*%
X125810000Y-19460000D03*
X118190000Y-19460000D03*
X119460000Y-16920000D03*
X124540000Y-16920000D03*
D26*
X127080000Y-22000000D03*
D27*
X122000000Y-22000000D03*
D26*
X116920000Y-22000000D03*
%TD*%
D25*
%TO.C,S14*%
X125810000Y-38460000D03*
X118190000Y-38460000D03*
X119460000Y-35920000D03*
X124540000Y-35920000D03*
D26*
X127080000Y-41000000D03*
D27*
X122000000Y-41000000D03*
D26*
X116920000Y-41000000D03*
%TD*%
D25*
%TO.C,S14*%
X106810000Y-19460000D03*
X99190000Y-19460000D03*
X100460000Y-16920000D03*
X105540000Y-16920000D03*
D26*
X108080000Y-22000000D03*
D27*
X103000000Y-22000000D03*
D26*
X97920000Y-22000000D03*
%TD*%
D25*
%TO.C,S14*%
X106810000Y-38460000D03*
X99190000Y-38460000D03*
X100460000Y-35920000D03*
X105540000Y-35920000D03*
D26*
X108080000Y-41000000D03*
D27*
X103000000Y-41000000D03*
D26*
X97920000Y-41000000D03*
%TD*%
D25*
%TO.C,S14*%
X87810000Y-19460000D03*
X80190000Y-19460000D03*
X81460000Y-16920000D03*
X86540000Y-16920000D03*
D26*
X89080000Y-22000000D03*
D27*
X84000000Y-22000000D03*
D26*
X78920000Y-22000000D03*
%TD*%
D25*
%TO.C,S14*%
X87810000Y-38460000D03*
X80190000Y-38460000D03*
X81460000Y-35920000D03*
X86540000Y-35920000D03*
D26*
X89080000Y-41000000D03*
D27*
X84000000Y-41000000D03*
D26*
X78920000Y-41000000D03*
%TD*%
D25*
%TO.C,S14*%
X63810000Y-19460000D03*
X56190000Y-19460000D03*
X57460000Y-16920000D03*
X62540000Y-16920000D03*
D26*
X65080000Y-22000000D03*
D27*
X60000000Y-22000000D03*
D26*
X54920000Y-22000000D03*
%TD*%
D25*
%TO.C,S14*%
X63810000Y-38460000D03*
X56190000Y-38460000D03*
X57460000Y-35920000D03*
X62540000Y-35920000D03*
D26*
X65080000Y-41000000D03*
D27*
X60000000Y-41000000D03*
D26*
X54920000Y-41000000D03*
%TD*%
%TO.C,S14*%
X54920000Y-79000000D03*
D27*
X60000000Y-79000000D03*
D26*
X65080000Y-79000000D03*
D25*
X62540000Y-73920000D03*
X57460000Y-73920000D03*
X56190000Y-76460000D03*
X63810000Y-76460000D03*
%TD*%
D26*
%TO.C,S14*%
X54920000Y-60000000D03*
D27*
X60000000Y-60000000D03*
D26*
X65080000Y-60000000D03*
D25*
X62540000Y-54920000D03*
X57460000Y-54920000D03*
X56190000Y-57460000D03*
X63810000Y-57460000D03*
%TD*%
%TO.C,S14*%
X44810000Y-19460000D03*
X37190000Y-19460000D03*
X38460000Y-16920000D03*
X43540000Y-16920000D03*
D26*
X46080000Y-22000000D03*
D27*
X41000000Y-22000000D03*
D26*
X35920000Y-22000000D03*
%TD*%
D25*
%TO.C,S14*%
X44810000Y-38460000D03*
X37190000Y-38460000D03*
X38460000Y-35920000D03*
X43540000Y-35920000D03*
D26*
X46080000Y-41000000D03*
D27*
X41000000Y-41000000D03*
D26*
X35920000Y-41000000D03*
%TD*%
%TO.C,S14*%
X35920000Y-79000000D03*
D27*
X41000000Y-79000000D03*
D26*
X46080000Y-79000000D03*
D25*
X43540000Y-73920000D03*
X38460000Y-73920000D03*
X37190000Y-76460000D03*
X44810000Y-76460000D03*
%TD*%
D26*
%TO.C,S14*%
X35920000Y-60000000D03*
D27*
X41000000Y-60000000D03*
D26*
X46080000Y-60000000D03*
D25*
X43540000Y-54920000D03*
X38460000Y-54920000D03*
X37190000Y-57460000D03*
X44810000Y-57460000D03*
%TD*%
%TO.C,S14*%
X25810000Y-19460000D03*
X18190000Y-19460000D03*
X19460000Y-16920000D03*
X24540000Y-16920000D03*
D26*
X27080000Y-22000000D03*
D27*
X22000000Y-22000000D03*
D26*
X16920000Y-22000000D03*
%TD*%
D25*
%TO.C,S14*%
X25810000Y-38460000D03*
X18190000Y-38460000D03*
X19460000Y-35920000D03*
X24540000Y-35920000D03*
D26*
X27080000Y-41000000D03*
D27*
X22000000Y-41000000D03*
D26*
X16920000Y-41000000D03*
%TD*%
%TO.C,S14*%
X16920000Y-60000000D03*
D27*
X22000000Y-60000000D03*
D26*
X27080000Y-60000000D03*
D25*
X24540000Y-54920000D03*
X19460000Y-54920000D03*
X18190000Y-57460000D03*
X25810000Y-57460000D03*
%TD*%
D28*
%TO.C,trrs jack*%
X198600000Y-52700000D03*
X205600000Y-52700000D03*
D29*
X195900000Y-50400000D03*
X197000000Y-55000000D03*
X201000000Y-55000000D03*
X204000000Y-55000000D03*
%TD*%
M02*
