%TF.GenerationSoftware,KiCad,Pcbnew,(6.0.8)*%
%TF.CreationDate,2022-10-06T19:39:48+11:00*%
%TF.ProjectId,bevel,62657665-6c2e-46b6-9963-61645f706362,v1.0.0*%
%TF.SameCoordinates,Original*%
%TF.FileFunction,Drillmap*%
%TF.FilePolarity,Positive*%
%FSLAX45Y45*%
G04 Gerber Fmt 4.5, Leading zero omitted, Abs format (unit mm)*
G04 Created by KiCad (PCBNEW (6.0.8)) date 2022-10-06 19:39:48*
%MOMM*%
%LPD*%
G01*
G04 APERTURE LIST*
%ADD10C,0.150000*%
%ADD11C,0.200000*%
%ADD12C,0.040000*%
%ADD13C,0.090000*%
%ADD14C,0.110000*%
%ADD15C,0.149860*%
G04 APERTURE END LIST*
D10*
X12600000Y-6800000D02*
X12600000Y-1300000D01*
X3141421Y-6900000D02*
X12500000Y-6900000D01*
X12600000Y-1300000D02*
G75*
G03*
X12500000Y-1200000I-100000J0D01*
G01*
X3070712Y-6870709D02*
G75*
G03*
X3141421Y-6900000I70708J70699D01*
G01*
X1200001Y-4958579D02*
G75*
G03*
X1229289Y-5029289I99999J-1D01*
G01*
X12500000Y-6900000D02*
G75*
G03*
X12600000Y-6800000I0J100000D01*
G01*
X1229289Y-5029289D02*
X3070711Y-6870711D01*
X1300000Y-1200000D02*
X12500000Y-1200000D01*
X1300000Y-1200000D02*
G75*
G03*
X1200000Y-1300000I0J-100000D01*
G01*
X1200000Y-1300000D02*
X1200000Y-4958579D01*
D11*
D12*
X11553800Y-1588000D02*
X11593800Y-1628000D01*
X11593800Y-1588000D02*
X11553800Y-1628000D01*
X11553800Y-1842000D02*
X11593800Y-1882000D01*
X11593800Y-1842000D02*
X11553800Y-1882000D01*
X11553800Y-2096000D02*
X11593800Y-2136000D01*
X11593800Y-2096000D02*
X11553800Y-2136000D01*
X11553800Y-2350000D02*
X11593800Y-2390000D01*
X11593800Y-2350000D02*
X11553800Y-2390000D01*
X11553800Y-2604000D02*
X11593800Y-2644000D01*
X11593800Y-2604000D02*
X11553800Y-2644000D01*
X11553800Y-2858000D02*
X11593800Y-2898000D01*
X11593800Y-2858000D02*
X11553800Y-2898000D01*
X11553800Y-3112000D02*
X11593800Y-3152000D01*
X11593800Y-3112000D02*
X11553800Y-3152000D01*
X11553800Y-3366000D02*
X11593800Y-3406000D01*
X11593800Y-3366000D02*
X11553800Y-3406000D01*
X11553800Y-3620000D02*
X11593800Y-3660000D01*
X11593800Y-3620000D02*
X11553800Y-3660000D01*
X11553800Y-3874000D02*
X11593800Y-3914000D01*
X11593800Y-3874000D02*
X11553800Y-3914000D01*
X11553800Y-4128000D02*
X11593800Y-4168000D01*
X11593800Y-4128000D02*
X11553800Y-4168000D01*
X11553800Y-4382000D02*
X11593800Y-4422000D01*
X11593800Y-4382000D02*
X11553800Y-4422000D01*
X11706200Y-1588000D02*
X11746200Y-1628000D01*
X11746200Y-1588000D02*
X11706200Y-1628000D01*
X11706200Y-1842000D02*
X11746200Y-1882000D01*
X11746200Y-1842000D02*
X11706200Y-1882000D01*
X11706200Y-2096000D02*
X11746200Y-2136000D01*
X11746200Y-2096000D02*
X11706200Y-2136000D01*
X11706200Y-2350000D02*
X11746200Y-2390000D01*
X11746200Y-2350000D02*
X11706200Y-2390000D01*
X11706200Y-2604000D02*
X11746200Y-2644000D01*
X11746200Y-2604000D02*
X11706200Y-2644000D01*
X11706200Y-2858000D02*
X11746200Y-2898000D01*
X11746200Y-2858000D02*
X11706200Y-2898000D01*
X11706200Y-3112000D02*
X11746200Y-3152000D01*
X11746200Y-3112000D02*
X11706200Y-3152000D01*
X11706200Y-3366000D02*
X11746200Y-3406000D01*
X11746200Y-3366000D02*
X11706200Y-3406000D01*
X11706200Y-3620000D02*
X11746200Y-3660000D01*
X11746200Y-3620000D02*
X11706200Y-3660000D01*
X11706200Y-3874000D02*
X11746200Y-3914000D01*
X11746200Y-3874000D02*
X11706200Y-3914000D01*
X11706200Y-4128000D02*
X11746200Y-4168000D01*
X11746200Y-4128000D02*
X11706200Y-4168000D01*
X11706200Y-4382000D02*
X11746200Y-4422000D01*
X11746200Y-4382000D02*
X11706200Y-4422000D01*
D13*
X11040000Y-4635000D02*
G75*
G03*
X11040000Y-4635000I-45000J0D01*
G01*
D11*
X11025000Y-4590000D02*
X10965000Y-4590000D01*
X11025000Y-4680000D02*
X10965000Y-4680000D01*
X10965000Y-4590000D02*
G75*
G03*
X10965000Y-4680000I0J-45000D01*
G01*
X11025000Y-4680000D02*
G75*
G03*
X11025000Y-4590000I0J45000D01*
G01*
D13*
X11150000Y-5095000D02*
G75*
G03*
X11150000Y-5095000I-45000J0D01*
G01*
D11*
X11135000Y-5050000D02*
X11075000Y-5050000D01*
X11135000Y-5140000D02*
X11075000Y-5140000D01*
X11075000Y-5050000D02*
G75*
G03*
X11075000Y-5140000I0J-45000D01*
G01*
X11135000Y-5140000D02*
G75*
G03*
X11135000Y-5050000I0J45000D01*
G01*
D13*
X11550000Y-5095000D02*
G75*
G03*
X11550000Y-5095000I-45000J0D01*
G01*
D11*
X11535000Y-5050000D02*
X11475000Y-5050000D01*
X11535000Y-5140000D02*
X11475000Y-5140000D01*
X11475000Y-5050000D02*
G75*
G03*
X11475000Y-5140000I0J-45000D01*
G01*
X11535000Y-5140000D02*
G75*
G03*
X11535000Y-5050000I0J45000D01*
G01*
D13*
X11850000Y-5095000D02*
G75*
G03*
X11850000Y-5095000I-45000J0D01*
G01*
D11*
X11835000Y-5050000D02*
X11775000Y-5050000D01*
X11835000Y-5140000D02*
X11775000Y-5140000D01*
X11775000Y-5050000D02*
G75*
G03*
X11775000Y-5140000I0J-45000D01*
G01*
X11835000Y-5140000D02*
G75*
G03*
X11835000Y-5050000I0J45000D01*
G01*
D14*
X10888000Y-1553000D02*
X10888000Y-1663000D01*
X10833000Y-1608000D02*
X10943000Y-1608000D01*
X10888000Y-1553000D02*
X10888000Y-1663000D01*
X10833000Y-1608000D02*
X10943000Y-1608000D01*
X10888000Y-1807000D02*
X10888000Y-1917000D01*
X10833000Y-1862000D02*
X10943000Y-1862000D01*
X10888000Y-2061000D02*
X10888000Y-2171000D01*
X10833000Y-2116000D02*
X10943000Y-2116000D01*
X10888000Y-2315000D02*
X10888000Y-2425000D01*
X10833000Y-2370000D02*
X10943000Y-2370000D01*
X10888000Y-2569000D02*
X10888000Y-2679000D01*
X10833000Y-2624000D02*
X10943000Y-2624000D01*
X10888000Y-2823000D02*
X10888000Y-2933000D01*
X10833000Y-2878000D02*
X10943000Y-2878000D01*
X10888000Y-3077000D02*
X10888000Y-3187000D01*
X10833000Y-3132000D02*
X10943000Y-3132000D01*
X10888000Y-3331000D02*
X10888000Y-3441000D01*
X10833000Y-3386000D02*
X10943000Y-3386000D01*
X10888000Y-3585000D02*
X10888000Y-3695000D01*
X10833000Y-3640000D02*
X10943000Y-3640000D01*
X10888000Y-3839000D02*
X10888000Y-3949000D01*
X10833000Y-3894000D02*
X10943000Y-3894000D01*
X10888000Y-4093000D02*
X10888000Y-4203000D01*
X10833000Y-4148000D02*
X10943000Y-4148000D01*
X10888000Y-4347000D02*
X10888000Y-4457000D01*
X10833000Y-4402000D02*
X10943000Y-4402000D01*
X12412000Y-1553000D02*
X12412000Y-1663000D01*
X12357000Y-1608000D02*
X12467000Y-1608000D01*
X12412000Y-1553000D02*
X12412000Y-1663000D01*
X12357000Y-1608000D02*
X12467000Y-1608000D01*
X12412000Y-1807000D02*
X12412000Y-1917000D01*
X12357000Y-1862000D02*
X12467000Y-1862000D01*
X12412000Y-2061000D02*
X12412000Y-2171000D01*
X12357000Y-2116000D02*
X12467000Y-2116000D01*
X12412000Y-2315000D02*
X12412000Y-2425000D01*
X12357000Y-2370000D02*
X12467000Y-2370000D01*
X12412000Y-2569000D02*
X12412000Y-2679000D01*
X12357000Y-2624000D02*
X12467000Y-2624000D01*
X12412000Y-2823000D02*
X12412000Y-2933000D01*
X12357000Y-2878000D02*
X12467000Y-2878000D01*
X12412000Y-3077000D02*
X12412000Y-3187000D01*
X12357000Y-3132000D02*
X12467000Y-3132000D01*
X12412000Y-3331000D02*
X12412000Y-3441000D01*
X12357000Y-3386000D02*
X12467000Y-3386000D01*
X12412000Y-3585000D02*
X12412000Y-3695000D01*
X12357000Y-3640000D02*
X12467000Y-3640000D01*
X12412000Y-3839000D02*
X12412000Y-3949000D01*
X12357000Y-3894000D02*
X12467000Y-3894000D01*
X12412000Y-4093000D02*
X12412000Y-4203000D01*
X12357000Y-4148000D02*
X12467000Y-4148000D01*
X12412000Y-4347000D02*
X12412000Y-4457000D01*
X12357000Y-4402000D02*
X12467000Y-4402000D01*
D15*
X1821984Y-1948984D02*
X1821984Y-1843016D01*
X1716016Y-1843016D01*
X1716016Y-1948984D01*
X1821984Y-1948984D01*
X1821984Y-3848984D02*
X1821984Y-3743016D01*
X1716016Y-3743016D01*
X1716016Y-3848984D01*
X1821984Y-3848984D01*
X1948984Y-1694984D02*
X1948984Y-1589016D01*
X1843016Y-1589016D01*
X1843016Y-1694984D01*
X1948984Y-1694984D01*
X1948984Y-3594984D02*
X1948984Y-3489016D01*
X1843016Y-3489016D01*
X1843016Y-3594984D01*
X1948984Y-3594984D01*
X2456984Y-1694984D02*
X2456984Y-1589016D01*
X2351016Y-1589016D01*
X2351016Y-1694984D01*
X2456984Y-1694984D01*
X2456984Y-3594984D02*
X2456984Y-3489016D01*
X2351016Y-3489016D01*
X2351016Y-3594984D01*
X2456984Y-3594984D01*
X2583984Y-1948984D02*
X2583984Y-1843016D01*
X2478016Y-1843016D01*
X2478016Y-1948984D01*
X2583984Y-1948984D01*
X2583984Y-3848984D02*
X2583984Y-3743016D01*
X2478016Y-3743016D01*
X2478016Y-3848984D01*
X2583984Y-3848984D01*
X3721984Y-1948984D02*
X3721984Y-1843016D01*
X3616016Y-1843016D01*
X3616016Y-1948984D01*
X3721984Y-1948984D01*
X3721984Y-3848984D02*
X3721984Y-3743016D01*
X3616016Y-3743016D01*
X3616016Y-3848984D01*
X3721984Y-3848984D01*
X3721984Y-5748984D02*
X3721984Y-5643016D01*
X3616016Y-5643016D01*
X3616016Y-5748984D01*
X3721984Y-5748984D01*
X3848984Y-1694984D02*
X3848984Y-1589016D01*
X3743016Y-1589016D01*
X3743016Y-1694984D01*
X3848984Y-1694984D01*
X3848984Y-3594984D02*
X3848984Y-3489016D01*
X3743016Y-3489016D01*
X3743016Y-3594984D01*
X3848984Y-3594984D01*
X3848984Y-5494984D02*
X3848984Y-5389016D01*
X3743016Y-5389016D01*
X3743016Y-5494984D01*
X3848984Y-5494984D01*
X4356984Y-1694984D02*
X4356984Y-1589016D01*
X4251016Y-1589016D01*
X4251016Y-1694984D01*
X4356984Y-1694984D01*
X4356984Y-3594984D02*
X4356984Y-3489016D01*
X4251016Y-3489016D01*
X4251016Y-3594984D01*
X4356984Y-3594984D01*
X4356984Y-5494984D02*
X4356984Y-5389016D01*
X4251016Y-5389016D01*
X4251016Y-5494984D01*
X4356984Y-5494984D01*
X4483984Y-1948984D02*
X4483984Y-1843016D01*
X4378016Y-1843016D01*
X4378016Y-1948984D01*
X4483984Y-1948984D01*
X4483984Y-3848984D02*
X4483984Y-3743016D01*
X4378016Y-3743016D01*
X4378016Y-3848984D01*
X4483984Y-3848984D01*
X4483984Y-5748984D02*
X4483984Y-5643016D01*
X4378016Y-5643016D01*
X4378016Y-5748984D01*
X4483984Y-5748984D01*
X5621984Y-1948984D02*
X5621984Y-1843016D01*
X5516016Y-1843016D01*
X5516016Y-1948984D01*
X5621984Y-1948984D01*
X5621984Y-3848984D02*
X5621984Y-3743016D01*
X5516016Y-3743016D01*
X5516016Y-3848984D01*
X5621984Y-3848984D01*
X5621984Y-5748984D02*
X5621984Y-5643016D01*
X5516016Y-5643016D01*
X5516016Y-5748984D01*
X5621984Y-5748984D01*
X5748984Y-1694984D02*
X5748984Y-1589016D01*
X5643016Y-1589016D01*
X5643016Y-1694984D01*
X5748984Y-1694984D01*
X5748984Y-3594984D02*
X5748984Y-3489016D01*
X5643016Y-3489016D01*
X5643016Y-3594984D01*
X5748984Y-3594984D01*
X5748984Y-5494984D02*
X5748984Y-5389016D01*
X5643016Y-5389016D01*
X5643016Y-5494984D01*
X5748984Y-5494984D01*
X6256984Y-1694984D02*
X6256984Y-1589016D01*
X6151016Y-1589016D01*
X6151016Y-1694984D01*
X6256984Y-1694984D01*
X6256984Y-3594984D02*
X6256984Y-3489016D01*
X6151016Y-3489016D01*
X6151016Y-3594984D01*
X6256984Y-3594984D01*
X6256984Y-5494984D02*
X6256984Y-5389016D01*
X6151016Y-5389016D01*
X6151016Y-5494984D01*
X6256984Y-5494984D01*
X6383984Y-1948984D02*
X6383984Y-1843016D01*
X6278016Y-1843016D01*
X6278016Y-1948984D01*
X6383984Y-1948984D01*
X6383984Y-3848984D02*
X6383984Y-3743016D01*
X6278016Y-3743016D01*
X6278016Y-3848984D01*
X6383984Y-3848984D01*
X6383984Y-5748984D02*
X6383984Y-5643016D01*
X6278016Y-5643016D01*
X6278016Y-5748984D01*
X6383984Y-5748984D01*
X7521984Y-1948984D02*
X7521984Y-1843016D01*
X7416016Y-1843016D01*
X7416016Y-1948984D01*
X7521984Y-1948984D01*
X7521984Y-3848984D02*
X7521984Y-3743016D01*
X7416016Y-3743016D01*
X7416016Y-3848984D01*
X7521984Y-3848984D01*
X7521984Y-5748984D02*
X7521984Y-5643016D01*
X7416016Y-5643016D01*
X7416016Y-5748984D01*
X7521984Y-5748984D01*
X7648984Y-1694984D02*
X7648984Y-1589016D01*
X7543016Y-1589016D01*
X7543016Y-1694984D01*
X7648984Y-1694984D01*
X7648984Y-3594984D02*
X7648984Y-3489016D01*
X7543016Y-3489016D01*
X7543016Y-3594984D01*
X7648984Y-3594984D01*
X7648984Y-5494984D02*
X7648984Y-5389016D01*
X7543016Y-5389016D01*
X7543016Y-5494984D01*
X7648984Y-5494984D01*
X8156984Y-1694984D02*
X8156984Y-1589016D01*
X8051016Y-1589016D01*
X8051016Y-1694984D01*
X8156984Y-1694984D01*
X8156984Y-3594984D02*
X8156984Y-3489016D01*
X8051016Y-3489016D01*
X8051016Y-3594984D01*
X8156984Y-3594984D01*
X8156984Y-5494984D02*
X8156984Y-5389016D01*
X8051016Y-5389016D01*
X8051016Y-5494984D01*
X8156984Y-5494984D01*
X8283984Y-1948984D02*
X8283984Y-1843016D01*
X8178016Y-1843016D01*
X8178016Y-1948984D01*
X8283984Y-1948984D01*
X8283984Y-3848984D02*
X8283984Y-3743016D01*
X8178016Y-3743016D01*
X8178016Y-3848984D01*
X8283984Y-3848984D01*
X8283984Y-5748984D02*
X8283984Y-5643016D01*
X8178016Y-5643016D01*
X8178016Y-5748984D01*
X8283984Y-5748984D01*
X9421984Y-1948984D02*
X9421984Y-1843016D01*
X9316016Y-1843016D01*
X9316016Y-1948984D01*
X9421984Y-1948984D01*
X9421984Y-3848984D02*
X9421984Y-3743016D01*
X9316016Y-3743016D01*
X9316016Y-3848984D01*
X9421984Y-3848984D01*
X9421984Y-5748984D02*
X9421984Y-5643016D01*
X9316016Y-5643016D01*
X9316016Y-5748984D01*
X9421984Y-5748984D01*
X9548984Y-1694984D02*
X9548984Y-1589016D01*
X9443016Y-1589016D01*
X9443016Y-1694984D01*
X9548984Y-1694984D01*
X9548984Y-3594984D02*
X9548984Y-3489016D01*
X9443016Y-3489016D01*
X9443016Y-3594984D01*
X9548984Y-3594984D01*
X9548984Y-5494984D02*
X9548984Y-5389016D01*
X9443016Y-5389016D01*
X9443016Y-5494984D01*
X9548984Y-5494984D01*
X10056984Y-1694984D02*
X10056984Y-1589016D01*
X9951016Y-1589016D01*
X9951016Y-1694984D01*
X10056984Y-1694984D01*
X10056984Y-3594984D02*
X10056984Y-3489016D01*
X9951016Y-3489016D01*
X9951016Y-3594984D01*
X10056984Y-3594984D01*
X10056984Y-5494984D02*
X10056984Y-5389016D01*
X9951016Y-5389016D01*
X9951016Y-5494984D01*
X10056984Y-5494984D01*
X10183984Y-1948984D02*
X10183984Y-1843016D01*
X10078016Y-1843016D01*
X10078016Y-1948984D01*
X10183984Y-1948984D01*
X10183984Y-3848984D02*
X10183984Y-3743016D01*
X10078016Y-3743016D01*
X10078016Y-3848984D01*
X10183984Y-3848984D01*
X10183984Y-5748984D02*
X10183984Y-5643016D01*
X10078016Y-5643016D01*
X10078016Y-5748984D01*
X10183984Y-5748984D01*
X11321984Y-5748984D02*
X11321984Y-5643016D01*
X11216016Y-5643016D01*
X11216016Y-5748984D01*
X11321984Y-5748984D01*
X11448984Y-5494984D02*
X11448984Y-5389016D01*
X11343016Y-5389016D01*
X11343016Y-5494984D01*
X11448984Y-5494984D01*
X11956984Y-5494984D02*
X11956984Y-5389016D01*
X11851016Y-5389016D01*
X11851016Y-5494984D01*
X11956984Y-5494984D01*
X12083984Y-5748984D02*
X12083984Y-5643016D01*
X11978016Y-5643016D01*
X11978016Y-5748984D01*
X12083984Y-5748984D01*
D11*
X1450119Y-7217976D02*
X1450119Y-7017976D01*
X1497738Y-7017976D01*
X1526309Y-7027500D01*
X1545357Y-7046548D01*
X1554881Y-7065595D01*
X1564405Y-7103690D01*
X1564405Y-7132262D01*
X1554881Y-7170357D01*
X1545357Y-7189405D01*
X1526309Y-7208452D01*
X1497738Y-7217976D01*
X1450119Y-7217976D01*
X1650119Y-7217976D02*
X1650119Y-7084643D01*
X1650119Y-7122738D02*
X1659643Y-7103690D01*
X1669167Y-7094167D01*
X1688214Y-7084643D01*
X1707262Y-7084643D01*
X1773928Y-7217976D02*
X1773928Y-7084643D01*
X1773928Y-7017976D02*
X1764405Y-7027500D01*
X1773928Y-7037024D01*
X1783452Y-7027500D01*
X1773928Y-7017976D01*
X1773928Y-7037024D01*
X1897738Y-7217976D02*
X1878690Y-7208452D01*
X1869167Y-7189405D01*
X1869167Y-7017976D01*
X2002500Y-7217976D02*
X1983452Y-7208452D01*
X1973928Y-7189405D01*
X1973928Y-7017976D01*
X2231071Y-7217976D02*
X2231071Y-7017976D01*
X2297738Y-7160833D01*
X2364405Y-7017976D01*
X2364405Y-7217976D01*
X2545357Y-7217976D02*
X2545357Y-7113214D01*
X2535833Y-7094167D01*
X2516786Y-7084643D01*
X2478690Y-7084643D01*
X2459643Y-7094167D01*
X2545357Y-7208452D02*
X2526310Y-7217976D01*
X2478690Y-7217976D01*
X2459643Y-7208452D01*
X2450119Y-7189405D01*
X2450119Y-7170357D01*
X2459643Y-7151309D01*
X2478690Y-7141786D01*
X2526310Y-7141786D01*
X2545357Y-7132262D01*
X2640595Y-7084643D02*
X2640595Y-7284643D01*
X2640595Y-7094167D02*
X2659643Y-7084643D01*
X2697738Y-7084643D01*
X2716786Y-7094167D01*
X2726310Y-7103690D01*
X2735833Y-7122738D01*
X2735833Y-7179881D01*
X2726310Y-7198928D01*
X2716786Y-7208452D01*
X2697738Y-7217976D01*
X2659643Y-7217976D01*
X2640595Y-7208452D01*
X2821548Y-7198928D02*
X2831071Y-7208452D01*
X2821548Y-7217976D01*
X2812024Y-7208452D01*
X2821548Y-7198928D01*
X2821548Y-7217976D01*
X2821548Y-7094167D02*
X2831071Y-7103690D01*
X2821548Y-7113214D01*
X2812024Y-7103690D01*
X2821548Y-7094167D01*
X2821548Y-7113214D01*
D12*
X1152500Y-7527500D02*
X1192500Y-7567500D01*
X1192500Y-7527500D02*
X1152500Y-7567500D01*
D11*
X1488214Y-7437976D02*
X1507262Y-7437976D01*
X1526309Y-7447500D01*
X1535833Y-7457024D01*
X1545357Y-7476071D01*
X1554881Y-7514167D01*
X1554881Y-7561786D01*
X1545357Y-7599881D01*
X1535833Y-7618928D01*
X1526309Y-7628452D01*
X1507262Y-7637976D01*
X1488214Y-7637976D01*
X1469167Y-7628452D01*
X1459643Y-7618928D01*
X1450119Y-7599881D01*
X1440595Y-7561786D01*
X1440595Y-7514167D01*
X1450119Y-7476071D01*
X1459643Y-7457024D01*
X1469167Y-7447500D01*
X1488214Y-7437976D01*
X1640595Y-7618928D02*
X1650119Y-7628452D01*
X1640595Y-7637976D01*
X1631071Y-7628452D01*
X1640595Y-7618928D01*
X1640595Y-7637976D01*
X1821548Y-7504643D02*
X1821548Y-7637976D01*
X1773928Y-7428452D02*
X1726309Y-7571309D01*
X1850119Y-7571309D01*
X1964405Y-7437976D02*
X1983452Y-7437976D01*
X2002500Y-7447500D01*
X2012024Y-7457024D01*
X2021548Y-7476071D01*
X2031071Y-7514167D01*
X2031071Y-7561786D01*
X2021548Y-7599881D01*
X2012024Y-7618928D01*
X2002500Y-7628452D01*
X1983452Y-7637976D01*
X1964405Y-7637976D01*
X1945357Y-7628452D01*
X1935833Y-7618928D01*
X1926309Y-7599881D01*
X1916786Y-7561786D01*
X1916786Y-7514167D01*
X1926309Y-7476071D01*
X1935833Y-7457024D01*
X1945357Y-7447500D01*
X1964405Y-7437976D01*
X2154881Y-7437976D02*
X2173929Y-7437976D01*
X2192976Y-7447500D01*
X2202500Y-7457024D01*
X2212024Y-7476071D01*
X2221548Y-7514167D01*
X2221548Y-7561786D01*
X2212024Y-7599881D01*
X2202500Y-7618928D01*
X2192976Y-7628452D01*
X2173929Y-7637976D01*
X2154881Y-7637976D01*
X2135833Y-7628452D01*
X2126310Y-7618928D01*
X2116786Y-7599881D01*
X2107262Y-7561786D01*
X2107262Y-7514167D01*
X2116786Y-7476071D01*
X2126310Y-7457024D01*
X2135833Y-7447500D01*
X2154881Y-7437976D01*
X2307262Y-7637976D02*
X2307262Y-7504643D01*
X2307262Y-7523690D02*
X2316786Y-7514167D01*
X2335833Y-7504643D01*
X2364405Y-7504643D01*
X2383452Y-7514167D01*
X2392976Y-7533214D01*
X2392976Y-7637976D01*
X2392976Y-7533214D02*
X2402500Y-7514167D01*
X2421548Y-7504643D01*
X2450119Y-7504643D01*
X2469167Y-7514167D01*
X2478690Y-7533214D01*
X2478690Y-7637976D01*
X2573929Y-7637976D02*
X2573929Y-7504643D01*
X2573929Y-7523690D02*
X2583452Y-7514167D01*
X2602500Y-7504643D01*
X2631071Y-7504643D01*
X2650119Y-7514167D01*
X2659643Y-7533214D01*
X2659643Y-7637976D01*
X2659643Y-7533214D02*
X2669167Y-7514167D01*
X2688214Y-7504643D01*
X2716786Y-7504643D01*
X2735833Y-7514167D01*
X2745357Y-7533214D01*
X2745357Y-7637976D01*
X3135833Y-7428452D02*
X2964405Y-7685595D01*
X3392976Y-7437976D02*
X3412024Y-7437976D01*
X3431071Y-7447500D01*
X3440595Y-7457024D01*
X3450119Y-7476071D01*
X3459643Y-7514167D01*
X3459643Y-7561786D01*
X3450119Y-7599881D01*
X3440595Y-7618928D01*
X3431071Y-7628452D01*
X3412024Y-7637976D01*
X3392976Y-7637976D01*
X3373928Y-7628452D01*
X3364405Y-7618928D01*
X3354881Y-7599881D01*
X3345357Y-7561786D01*
X3345357Y-7514167D01*
X3354881Y-7476071D01*
X3364405Y-7457024D01*
X3373928Y-7447500D01*
X3392976Y-7437976D01*
X3545357Y-7618928D02*
X3554881Y-7628452D01*
X3545357Y-7637976D01*
X3535833Y-7628452D01*
X3545357Y-7618928D01*
X3545357Y-7637976D01*
X3678690Y-7437976D02*
X3697738Y-7437976D01*
X3716786Y-7447500D01*
X3726309Y-7457024D01*
X3735833Y-7476071D01*
X3745357Y-7514167D01*
X3745357Y-7561786D01*
X3735833Y-7599881D01*
X3726309Y-7618928D01*
X3716786Y-7628452D01*
X3697738Y-7637976D01*
X3678690Y-7637976D01*
X3659643Y-7628452D01*
X3650119Y-7618928D01*
X3640595Y-7599881D01*
X3631071Y-7561786D01*
X3631071Y-7514167D01*
X3640595Y-7476071D01*
X3650119Y-7457024D01*
X3659643Y-7447500D01*
X3678690Y-7437976D01*
X3935833Y-7637976D02*
X3821548Y-7637976D01*
X3878690Y-7637976D02*
X3878690Y-7437976D01*
X3859643Y-7466548D01*
X3840595Y-7485595D01*
X3821548Y-7495119D01*
X4116786Y-7437976D02*
X4021548Y-7437976D01*
X4012024Y-7533214D01*
X4021548Y-7523690D01*
X4040595Y-7514167D01*
X4088214Y-7514167D01*
X4107262Y-7523690D01*
X4116786Y-7533214D01*
X4126309Y-7552262D01*
X4126309Y-7599881D01*
X4116786Y-7618928D01*
X4107262Y-7628452D01*
X4088214Y-7637976D01*
X4040595Y-7637976D01*
X4021548Y-7628452D01*
X4012024Y-7618928D01*
X4192976Y-7437976D02*
X4326310Y-7437976D01*
X4240595Y-7637976D01*
X4392976Y-7437976D02*
X4392976Y-7476071D01*
X4469167Y-7437976D02*
X4469167Y-7476071D01*
X4764405Y-7714167D02*
X4754881Y-7704643D01*
X4735833Y-7676071D01*
X4726310Y-7657024D01*
X4716786Y-7628452D01*
X4707262Y-7580833D01*
X4707262Y-7542738D01*
X4716786Y-7495119D01*
X4726310Y-7466548D01*
X4735833Y-7447500D01*
X4754881Y-7418928D01*
X4764405Y-7409405D01*
X4831071Y-7457024D02*
X4840595Y-7447500D01*
X4859643Y-7437976D01*
X4907262Y-7437976D01*
X4926310Y-7447500D01*
X4935833Y-7457024D01*
X4945357Y-7476071D01*
X4945357Y-7495119D01*
X4935833Y-7523690D01*
X4821548Y-7637976D01*
X4945357Y-7637976D01*
X5116786Y-7504643D02*
X5116786Y-7637976D01*
X5069167Y-7428452D02*
X5021548Y-7571309D01*
X5145357Y-7571309D01*
X5373929Y-7637976D02*
X5373929Y-7437976D01*
X5459643Y-7637976D02*
X5459643Y-7533214D01*
X5450119Y-7514167D01*
X5431071Y-7504643D01*
X5402500Y-7504643D01*
X5383452Y-7514167D01*
X5373929Y-7523690D01*
X5583452Y-7637976D02*
X5564405Y-7628452D01*
X5554881Y-7618928D01*
X5545357Y-7599881D01*
X5545357Y-7542738D01*
X5554881Y-7523690D01*
X5564405Y-7514167D01*
X5583452Y-7504643D01*
X5612024Y-7504643D01*
X5631071Y-7514167D01*
X5640595Y-7523690D01*
X5650119Y-7542738D01*
X5650119Y-7599881D01*
X5640595Y-7618928D01*
X5631071Y-7628452D01*
X5612024Y-7637976D01*
X5583452Y-7637976D01*
X5764405Y-7637976D02*
X5745357Y-7628452D01*
X5735833Y-7609405D01*
X5735833Y-7437976D01*
X5916786Y-7628452D02*
X5897738Y-7637976D01*
X5859643Y-7637976D01*
X5840595Y-7628452D01*
X5831071Y-7609405D01*
X5831071Y-7533214D01*
X5840595Y-7514167D01*
X5859643Y-7504643D01*
X5897738Y-7504643D01*
X5916786Y-7514167D01*
X5926309Y-7533214D01*
X5926309Y-7552262D01*
X5831071Y-7571309D01*
X6002500Y-7628452D02*
X6021548Y-7637976D01*
X6059643Y-7637976D01*
X6078690Y-7628452D01*
X6088214Y-7609405D01*
X6088214Y-7599881D01*
X6078690Y-7580833D01*
X6059643Y-7571309D01*
X6031071Y-7571309D01*
X6012024Y-7561786D01*
X6002500Y-7542738D01*
X6002500Y-7533214D01*
X6012024Y-7514167D01*
X6031071Y-7504643D01*
X6059643Y-7504643D01*
X6078690Y-7514167D01*
X6154881Y-7714167D02*
X6164405Y-7704643D01*
X6183452Y-7676071D01*
X6192976Y-7657024D01*
X6202500Y-7628452D01*
X6212024Y-7580833D01*
X6212024Y-7542738D01*
X6202500Y-7495119D01*
X6192976Y-7466548D01*
X6183452Y-7447500D01*
X6164405Y-7418928D01*
X6154881Y-7409405D01*
D13*
X1192500Y-7811500D02*
G75*
G03*
X1192500Y-7811500I-45000J0D01*
G01*
D11*
X1488214Y-7701976D02*
X1507262Y-7701976D01*
X1526309Y-7711500D01*
X1535833Y-7721024D01*
X1545357Y-7740071D01*
X1554881Y-7778167D01*
X1554881Y-7825786D01*
X1545357Y-7863881D01*
X1535833Y-7882928D01*
X1526309Y-7892452D01*
X1507262Y-7901976D01*
X1488214Y-7901976D01*
X1469167Y-7892452D01*
X1459643Y-7882928D01*
X1450119Y-7863881D01*
X1440595Y-7825786D01*
X1440595Y-7778167D01*
X1450119Y-7740071D01*
X1459643Y-7721024D01*
X1469167Y-7711500D01*
X1488214Y-7701976D01*
X1640595Y-7882928D02*
X1650119Y-7892452D01*
X1640595Y-7901976D01*
X1631071Y-7892452D01*
X1640595Y-7882928D01*
X1640595Y-7901976D01*
X1745357Y-7901976D02*
X1783452Y-7901976D01*
X1802500Y-7892452D01*
X1812024Y-7882928D01*
X1831071Y-7854357D01*
X1840595Y-7816262D01*
X1840595Y-7740071D01*
X1831071Y-7721024D01*
X1821548Y-7711500D01*
X1802500Y-7701976D01*
X1764405Y-7701976D01*
X1745357Y-7711500D01*
X1735833Y-7721024D01*
X1726309Y-7740071D01*
X1726309Y-7787690D01*
X1735833Y-7806738D01*
X1745357Y-7816262D01*
X1764405Y-7825786D01*
X1802500Y-7825786D01*
X1821548Y-7816262D01*
X1831071Y-7806738D01*
X1840595Y-7787690D01*
X1964405Y-7701976D02*
X1983452Y-7701976D01*
X2002500Y-7711500D01*
X2012024Y-7721024D01*
X2021548Y-7740071D01*
X2031071Y-7778167D01*
X2031071Y-7825786D01*
X2021548Y-7863881D01*
X2012024Y-7882928D01*
X2002500Y-7892452D01*
X1983452Y-7901976D01*
X1964405Y-7901976D01*
X1945357Y-7892452D01*
X1935833Y-7882928D01*
X1926309Y-7863881D01*
X1916786Y-7825786D01*
X1916786Y-7778167D01*
X1926309Y-7740071D01*
X1935833Y-7721024D01*
X1945357Y-7711500D01*
X1964405Y-7701976D01*
X2154881Y-7701976D02*
X2173929Y-7701976D01*
X2192976Y-7711500D01*
X2202500Y-7721024D01*
X2212024Y-7740071D01*
X2221548Y-7778167D01*
X2221548Y-7825786D01*
X2212024Y-7863881D01*
X2202500Y-7882928D01*
X2192976Y-7892452D01*
X2173929Y-7901976D01*
X2154881Y-7901976D01*
X2135833Y-7892452D01*
X2126310Y-7882928D01*
X2116786Y-7863881D01*
X2107262Y-7825786D01*
X2107262Y-7778167D01*
X2116786Y-7740071D01*
X2126310Y-7721024D01*
X2135833Y-7711500D01*
X2154881Y-7701976D01*
X2307262Y-7901976D02*
X2307262Y-7768643D01*
X2307262Y-7787690D02*
X2316786Y-7778167D01*
X2335833Y-7768643D01*
X2364405Y-7768643D01*
X2383452Y-7778167D01*
X2392976Y-7797214D01*
X2392976Y-7901976D01*
X2392976Y-7797214D02*
X2402500Y-7778167D01*
X2421548Y-7768643D01*
X2450119Y-7768643D01*
X2469167Y-7778167D01*
X2478690Y-7797214D01*
X2478690Y-7901976D01*
X2573929Y-7901976D02*
X2573929Y-7768643D01*
X2573929Y-7787690D02*
X2583452Y-7778167D01*
X2602500Y-7768643D01*
X2631071Y-7768643D01*
X2650119Y-7778167D01*
X2659643Y-7797214D01*
X2659643Y-7901976D01*
X2659643Y-7797214D02*
X2669167Y-7778167D01*
X2688214Y-7768643D01*
X2716786Y-7768643D01*
X2735833Y-7778167D01*
X2745357Y-7797214D01*
X2745357Y-7901976D01*
X3135833Y-7692452D02*
X2964405Y-7949595D01*
X3392976Y-7701976D02*
X3412024Y-7701976D01*
X3431071Y-7711500D01*
X3440595Y-7721024D01*
X3450119Y-7740071D01*
X3459643Y-7778167D01*
X3459643Y-7825786D01*
X3450119Y-7863881D01*
X3440595Y-7882928D01*
X3431071Y-7892452D01*
X3412024Y-7901976D01*
X3392976Y-7901976D01*
X3373928Y-7892452D01*
X3364405Y-7882928D01*
X3354881Y-7863881D01*
X3345357Y-7825786D01*
X3345357Y-7778167D01*
X3354881Y-7740071D01*
X3364405Y-7721024D01*
X3373928Y-7711500D01*
X3392976Y-7701976D01*
X3545357Y-7882928D02*
X3554881Y-7892452D01*
X3545357Y-7901976D01*
X3535833Y-7892452D01*
X3545357Y-7882928D01*
X3545357Y-7901976D01*
X3678690Y-7701976D02*
X3697738Y-7701976D01*
X3716786Y-7711500D01*
X3726309Y-7721024D01*
X3735833Y-7740071D01*
X3745357Y-7778167D01*
X3745357Y-7825786D01*
X3735833Y-7863881D01*
X3726309Y-7882928D01*
X3716786Y-7892452D01*
X3697738Y-7901976D01*
X3678690Y-7901976D01*
X3659643Y-7892452D01*
X3650119Y-7882928D01*
X3640595Y-7863881D01*
X3631071Y-7825786D01*
X3631071Y-7778167D01*
X3640595Y-7740071D01*
X3650119Y-7721024D01*
X3659643Y-7711500D01*
X3678690Y-7701976D01*
X3812024Y-7701976D02*
X3935833Y-7701976D01*
X3869167Y-7778167D01*
X3897738Y-7778167D01*
X3916786Y-7787690D01*
X3926309Y-7797214D01*
X3935833Y-7816262D01*
X3935833Y-7863881D01*
X3926309Y-7882928D01*
X3916786Y-7892452D01*
X3897738Y-7901976D01*
X3840595Y-7901976D01*
X3821548Y-7892452D01*
X3812024Y-7882928D01*
X4116786Y-7701976D02*
X4021548Y-7701976D01*
X4012024Y-7797214D01*
X4021548Y-7787690D01*
X4040595Y-7778167D01*
X4088214Y-7778167D01*
X4107262Y-7787690D01*
X4116786Y-7797214D01*
X4126309Y-7816262D01*
X4126309Y-7863881D01*
X4116786Y-7882928D01*
X4107262Y-7892452D01*
X4088214Y-7901976D01*
X4040595Y-7901976D01*
X4021548Y-7892452D01*
X4012024Y-7882928D01*
X4297738Y-7768643D02*
X4297738Y-7901976D01*
X4250119Y-7692452D02*
X4202500Y-7835309D01*
X4326310Y-7835309D01*
X4392976Y-7701976D02*
X4392976Y-7740071D01*
X4469167Y-7701976D02*
X4469167Y-7740071D01*
X4764405Y-7978167D02*
X4754881Y-7968643D01*
X4735833Y-7940071D01*
X4726310Y-7921024D01*
X4716786Y-7892452D01*
X4707262Y-7844833D01*
X4707262Y-7806738D01*
X4716786Y-7759119D01*
X4726310Y-7730548D01*
X4735833Y-7711500D01*
X4754881Y-7682928D01*
X4764405Y-7673405D01*
X4878690Y-7701976D02*
X4897738Y-7701976D01*
X4916786Y-7711500D01*
X4926310Y-7721024D01*
X4935833Y-7740071D01*
X4945357Y-7778167D01*
X4945357Y-7825786D01*
X4935833Y-7863881D01*
X4926310Y-7882928D01*
X4916786Y-7892452D01*
X4897738Y-7901976D01*
X4878690Y-7901976D01*
X4859643Y-7892452D01*
X4850119Y-7882928D01*
X4840595Y-7863881D01*
X4831071Y-7825786D01*
X4831071Y-7778167D01*
X4840595Y-7740071D01*
X4850119Y-7721024D01*
X4859643Y-7711500D01*
X4878690Y-7701976D01*
X5183452Y-7901976D02*
X5183452Y-7701976D01*
X5269167Y-7901976D02*
X5269167Y-7797214D01*
X5259643Y-7778167D01*
X5240595Y-7768643D01*
X5212024Y-7768643D01*
X5192976Y-7778167D01*
X5183452Y-7787690D01*
X5392976Y-7901976D02*
X5373929Y-7892452D01*
X5364405Y-7882928D01*
X5354881Y-7863881D01*
X5354881Y-7806738D01*
X5364405Y-7787690D01*
X5373929Y-7778167D01*
X5392976Y-7768643D01*
X5421548Y-7768643D01*
X5440595Y-7778167D01*
X5450119Y-7787690D01*
X5459643Y-7806738D01*
X5459643Y-7863881D01*
X5450119Y-7882928D01*
X5440595Y-7892452D01*
X5421548Y-7901976D01*
X5392976Y-7901976D01*
X5573929Y-7901976D02*
X5554881Y-7892452D01*
X5545357Y-7873405D01*
X5545357Y-7701976D01*
X5726309Y-7892452D02*
X5707262Y-7901976D01*
X5669167Y-7901976D01*
X5650119Y-7892452D01*
X5640595Y-7873405D01*
X5640595Y-7797214D01*
X5650119Y-7778167D01*
X5669167Y-7768643D01*
X5707262Y-7768643D01*
X5726309Y-7778167D01*
X5735833Y-7797214D01*
X5735833Y-7816262D01*
X5640595Y-7835309D01*
X5812024Y-7892452D02*
X5831071Y-7901976D01*
X5869167Y-7901976D01*
X5888214Y-7892452D01*
X5897738Y-7873405D01*
X5897738Y-7863881D01*
X5888214Y-7844833D01*
X5869167Y-7835309D01*
X5840595Y-7835309D01*
X5821548Y-7825786D01*
X5812024Y-7806738D01*
X5812024Y-7797214D01*
X5821548Y-7778167D01*
X5840595Y-7768643D01*
X5869167Y-7768643D01*
X5888214Y-7778167D01*
X6135833Y-7825786D02*
X6288214Y-7825786D01*
X6212024Y-7901976D02*
X6212024Y-7749595D01*
X6621548Y-7768643D02*
X6621548Y-7901976D01*
X6573928Y-7692452D02*
X6526309Y-7835309D01*
X6650119Y-7835309D01*
X6869167Y-7892452D02*
X6888214Y-7901976D01*
X6926309Y-7901976D01*
X6945357Y-7892452D01*
X6954881Y-7873405D01*
X6954881Y-7863881D01*
X6945357Y-7844833D01*
X6926309Y-7835309D01*
X6897738Y-7835309D01*
X6878690Y-7825786D01*
X6869167Y-7806738D01*
X6869167Y-7797214D01*
X6878690Y-7778167D01*
X6897738Y-7768643D01*
X6926309Y-7768643D01*
X6945357Y-7778167D01*
X7069167Y-7901976D02*
X7050119Y-7892452D01*
X7040595Y-7873405D01*
X7040595Y-7701976D01*
X7173928Y-7901976D02*
X7154881Y-7892452D01*
X7145357Y-7882928D01*
X7135833Y-7863881D01*
X7135833Y-7806738D01*
X7145357Y-7787690D01*
X7154881Y-7778167D01*
X7173928Y-7768643D01*
X7202500Y-7768643D01*
X7221548Y-7778167D01*
X7231071Y-7787690D01*
X7240595Y-7806738D01*
X7240595Y-7863881D01*
X7231071Y-7882928D01*
X7221548Y-7892452D01*
X7202500Y-7901976D01*
X7173928Y-7901976D01*
X7297738Y-7768643D02*
X7373928Y-7768643D01*
X7326309Y-7701976D02*
X7326309Y-7873405D01*
X7335833Y-7892452D01*
X7354881Y-7901976D01*
X7373928Y-7901976D01*
X7431071Y-7892452D02*
X7450119Y-7901976D01*
X7488214Y-7901976D01*
X7507262Y-7892452D01*
X7516786Y-7873405D01*
X7516786Y-7863881D01*
X7507262Y-7844833D01*
X7488214Y-7835309D01*
X7459643Y-7835309D01*
X7440595Y-7825786D01*
X7431071Y-7806738D01*
X7431071Y-7797214D01*
X7440595Y-7778167D01*
X7459643Y-7768643D01*
X7488214Y-7768643D01*
X7507262Y-7778167D01*
X7583452Y-7978167D02*
X7592976Y-7968643D01*
X7612024Y-7940071D01*
X7621548Y-7921024D01*
X7631071Y-7892452D01*
X7640595Y-7844833D01*
X7640595Y-7806738D01*
X7631071Y-7759119D01*
X7621548Y-7730548D01*
X7612024Y-7711500D01*
X7592976Y-7682928D01*
X7583452Y-7673405D01*
D14*
X1137500Y-8020500D02*
X1137500Y-8130500D01*
X1082500Y-8075500D02*
X1192500Y-8075500D01*
D11*
X1554881Y-8165976D02*
X1440595Y-8165976D01*
X1497738Y-8165976D02*
X1497738Y-7965976D01*
X1478690Y-7994548D01*
X1459643Y-8013595D01*
X1440595Y-8023119D01*
X1640595Y-8146928D02*
X1650119Y-8156452D01*
X1640595Y-8165976D01*
X1631071Y-8156452D01*
X1640595Y-8146928D01*
X1640595Y-8165976D01*
X1840595Y-8165976D02*
X1726309Y-8165976D01*
X1783452Y-8165976D02*
X1783452Y-7965976D01*
X1764405Y-7994548D01*
X1745357Y-8013595D01*
X1726309Y-8023119D01*
X1964405Y-7965976D02*
X1983452Y-7965976D01*
X2002500Y-7975500D01*
X2012024Y-7985024D01*
X2021548Y-8004071D01*
X2031071Y-8042167D01*
X2031071Y-8089786D01*
X2021548Y-8127881D01*
X2012024Y-8146928D01*
X2002500Y-8156452D01*
X1983452Y-8165976D01*
X1964405Y-8165976D01*
X1945357Y-8156452D01*
X1935833Y-8146928D01*
X1926309Y-8127881D01*
X1916786Y-8089786D01*
X1916786Y-8042167D01*
X1926309Y-8004071D01*
X1935833Y-7985024D01*
X1945357Y-7975500D01*
X1964405Y-7965976D01*
X2154881Y-7965976D02*
X2173929Y-7965976D01*
X2192976Y-7975500D01*
X2202500Y-7985024D01*
X2212024Y-8004071D01*
X2221548Y-8042167D01*
X2221548Y-8089786D01*
X2212024Y-8127881D01*
X2202500Y-8146928D01*
X2192976Y-8156452D01*
X2173929Y-8165976D01*
X2154881Y-8165976D01*
X2135833Y-8156452D01*
X2126310Y-8146928D01*
X2116786Y-8127881D01*
X2107262Y-8089786D01*
X2107262Y-8042167D01*
X2116786Y-8004071D01*
X2126310Y-7985024D01*
X2135833Y-7975500D01*
X2154881Y-7965976D01*
X2307262Y-8165976D02*
X2307262Y-8032643D01*
X2307262Y-8051690D02*
X2316786Y-8042167D01*
X2335833Y-8032643D01*
X2364405Y-8032643D01*
X2383452Y-8042167D01*
X2392976Y-8061214D01*
X2392976Y-8165976D01*
X2392976Y-8061214D02*
X2402500Y-8042167D01*
X2421548Y-8032643D01*
X2450119Y-8032643D01*
X2469167Y-8042167D01*
X2478690Y-8061214D01*
X2478690Y-8165976D01*
X2573929Y-8165976D02*
X2573929Y-8032643D01*
X2573929Y-8051690D02*
X2583452Y-8042167D01*
X2602500Y-8032643D01*
X2631071Y-8032643D01*
X2650119Y-8042167D01*
X2659643Y-8061214D01*
X2659643Y-8165976D01*
X2659643Y-8061214D02*
X2669167Y-8042167D01*
X2688214Y-8032643D01*
X2716786Y-8032643D01*
X2735833Y-8042167D01*
X2745357Y-8061214D01*
X2745357Y-8165976D01*
X3135833Y-7956452D02*
X2964405Y-8213595D01*
X3392976Y-7965976D02*
X3412024Y-7965976D01*
X3431071Y-7975500D01*
X3440595Y-7985024D01*
X3450119Y-8004071D01*
X3459643Y-8042167D01*
X3459643Y-8089786D01*
X3450119Y-8127881D01*
X3440595Y-8146928D01*
X3431071Y-8156452D01*
X3412024Y-8165976D01*
X3392976Y-8165976D01*
X3373928Y-8156452D01*
X3364405Y-8146928D01*
X3354881Y-8127881D01*
X3345357Y-8089786D01*
X3345357Y-8042167D01*
X3354881Y-8004071D01*
X3364405Y-7985024D01*
X3373928Y-7975500D01*
X3392976Y-7965976D01*
X3545357Y-8146928D02*
X3554881Y-8156452D01*
X3545357Y-8165976D01*
X3535833Y-8156452D01*
X3545357Y-8146928D01*
X3545357Y-8165976D01*
X3678690Y-7965976D02*
X3697738Y-7965976D01*
X3716786Y-7975500D01*
X3726309Y-7985024D01*
X3735833Y-8004071D01*
X3745357Y-8042167D01*
X3745357Y-8089786D01*
X3735833Y-8127881D01*
X3726309Y-8146928D01*
X3716786Y-8156452D01*
X3697738Y-8165976D01*
X3678690Y-8165976D01*
X3659643Y-8156452D01*
X3650119Y-8146928D01*
X3640595Y-8127881D01*
X3631071Y-8089786D01*
X3631071Y-8042167D01*
X3640595Y-8004071D01*
X3650119Y-7985024D01*
X3659643Y-7975500D01*
X3678690Y-7965976D01*
X3916786Y-8032643D02*
X3916786Y-8165976D01*
X3869167Y-7956452D02*
X3821548Y-8099309D01*
X3945357Y-8099309D01*
X4002500Y-7965976D02*
X4126309Y-7965976D01*
X4059643Y-8042167D01*
X4088214Y-8042167D01*
X4107262Y-8051690D01*
X4116786Y-8061214D01*
X4126309Y-8080262D01*
X4126309Y-8127881D01*
X4116786Y-8146928D01*
X4107262Y-8156452D01*
X4088214Y-8165976D01*
X4031071Y-8165976D01*
X4012024Y-8156452D01*
X4002500Y-8146928D01*
X4192976Y-7965976D02*
X4316786Y-7965976D01*
X4250119Y-8042167D01*
X4278690Y-8042167D01*
X4297738Y-8051690D01*
X4307262Y-8061214D01*
X4316786Y-8080262D01*
X4316786Y-8127881D01*
X4307262Y-8146928D01*
X4297738Y-8156452D01*
X4278690Y-8165976D01*
X4221548Y-8165976D01*
X4202500Y-8156452D01*
X4192976Y-8146928D01*
X4392976Y-7965976D02*
X4392976Y-8004071D01*
X4469167Y-7965976D02*
X4469167Y-8004071D01*
X4764405Y-8242167D02*
X4754881Y-8232643D01*
X4735833Y-8204071D01*
X4726310Y-8185024D01*
X4716786Y-8156452D01*
X4707262Y-8108833D01*
X4707262Y-8070738D01*
X4716786Y-8023119D01*
X4726310Y-7994548D01*
X4735833Y-7975500D01*
X4754881Y-7946928D01*
X4764405Y-7937405D01*
X4831071Y-7985024D02*
X4840595Y-7975500D01*
X4859643Y-7965976D01*
X4907262Y-7965976D01*
X4926310Y-7975500D01*
X4935833Y-7985024D01*
X4945357Y-8004071D01*
X4945357Y-8023119D01*
X4935833Y-8051690D01*
X4821548Y-8165976D01*
X4945357Y-8165976D01*
X5116786Y-7965976D02*
X5078690Y-7965976D01*
X5059643Y-7975500D01*
X5050119Y-7985024D01*
X5031071Y-8013595D01*
X5021548Y-8051690D01*
X5021548Y-8127881D01*
X5031071Y-8146928D01*
X5040595Y-8156452D01*
X5059643Y-8165976D01*
X5097738Y-8165976D01*
X5116786Y-8156452D01*
X5126310Y-8146928D01*
X5135833Y-8127881D01*
X5135833Y-8080262D01*
X5126310Y-8061214D01*
X5116786Y-8051690D01*
X5097738Y-8042167D01*
X5059643Y-8042167D01*
X5040595Y-8051690D01*
X5031071Y-8061214D01*
X5021548Y-8080262D01*
X5373929Y-8165976D02*
X5373929Y-7965976D01*
X5459643Y-8165976D02*
X5459643Y-8061214D01*
X5450119Y-8042167D01*
X5431071Y-8032643D01*
X5402500Y-8032643D01*
X5383452Y-8042167D01*
X5373929Y-8051690D01*
X5583452Y-8165976D02*
X5564405Y-8156452D01*
X5554881Y-8146928D01*
X5545357Y-8127881D01*
X5545357Y-8070738D01*
X5554881Y-8051690D01*
X5564405Y-8042167D01*
X5583452Y-8032643D01*
X5612024Y-8032643D01*
X5631071Y-8042167D01*
X5640595Y-8051690D01*
X5650119Y-8070738D01*
X5650119Y-8127881D01*
X5640595Y-8146928D01*
X5631071Y-8156452D01*
X5612024Y-8165976D01*
X5583452Y-8165976D01*
X5764405Y-8165976D02*
X5745357Y-8156452D01*
X5735833Y-8137405D01*
X5735833Y-7965976D01*
X5916786Y-8156452D02*
X5897738Y-8165976D01*
X5859643Y-8165976D01*
X5840595Y-8156452D01*
X5831071Y-8137405D01*
X5831071Y-8061214D01*
X5840595Y-8042167D01*
X5859643Y-8032643D01*
X5897738Y-8032643D01*
X5916786Y-8042167D01*
X5926309Y-8061214D01*
X5926309Y-8080262D01*
X5831071Y-8099309D01*
X6002500Y-8156452D02*
X6021548Y-8165976D01*
X6059643Y-8165976D01*
X6078690Y-8156452D01*
X6088214Y-8137405D01*
X6088214Y-8127881D01*
X6078690Y-8108833D01*
X6059643Y-8099309D01*
X6031071Y-8099309D01*
X6012024Y-8089786D01*
X6002500Y-8070738D01*
X6002500Y-8061214D01*
X6012024Y-8042167D01*
X6031071Y-8032643D01*
X6059643Y-8032643D01*
X6078690Y-8042167D01*
X6154881Y-8242167D02*
X6164405Y-8232643D01*
X6183452Y-8204071D01*
X6192976Y-8185024D01*
X6202500Y-8156452D01*
X6212024Y-8108833D01*
X6212024Y-8070738D01*
X6202500Y-8023119D01*
X6192976Y-7994548D01*
X6183452Y-7975500D01*
X6164405Y-7946928D01*
X6154881Y-7937405D01*
D15*
X1170554Y-8392484D02*
X1170554Y-8286516D01*
X1064586Y-8286516D01*
X1064586Y-8392484D01*
X1170554Y-8392484D01*
D11*
X1554881Y-8429976D02*
X1440595Y-8429976D01*
X1497738Y-8429976D02*
X1497738Y-8229976D01*
X1478690Y-8258548D01*
X1459643Y-8277595D01*
X1440595Y-8287119D01*
X1640595Y-8410929D02*
X1650119Y-8420452D01*
X1640595Y-8429976D01*
X1631071Y-8420452D01*
X1640595Y-8410929D01*
X1640595Y-8429976D01*
X1821548Y-8296643D02*
X1821548Y-8429976D01*
X1773928Y-8220452D02*
X1726309Y-8363309D01*
X1850119Y-8363309D01*
X1935833Y-8429976D02*
X1973928Y-8429976D01*
X1992976Y-8420452D01*
X2002500Y-8410929D01*
X2021548Y-8382357D01*
X2031071Y-8344262D01*
X2031071Y-8268071D01*
X2021548Y-8249024D01*
X2012024Y-8239500D01*
X1992976Y-8229976D01*
X1954881Y-8229976D01*
X1935833Y-8239500D01*
X1926309Y-8249024D01*
X1916786Y-8268071D01*
X1916786Y-8315690D01*
X1926309Y-8334738D01*
X1935833Y-8344262D01*
X1954881Y-8353786D01*
X1992976Y-8353786D01*
X2012024Y-8344262D01*
X2021548Y-8334738D01*
X2031071Y-8315690D01*
X2126310Y-8429976D02*
X2164405Y-8429976D01*
X2183452Y-8420452D01*
X2192976Y-8410929D01*
X2212024Y-8382357D01*
X2221548Y-8344262D01*
X2221548Y-8268071D01*
X2212024Y-8249024D01*
X2202500Y-8239500D01*
X2183452Y-8229976D01*
X2145357Y-8229976D01*
X2126310Y-8239500D01*
X2116786Y-8249024D01*
X2107262Y-8268071D01*
X2107262Y-8315690D01*
X2116786Y-8334738D01*
X2126310Y-8344262D01*
X2145357Y-8353786D01*
X2183452Y-8353786D01*
X2202500Y-8344262D01*
X2212024Y-8334738D01*
X2221548Y-8315690D01*
X2307262Y-8429976D02*
X2307262Y-8296643D01*
X2307262Y-8315690D02*
X2316786Y-8306167D01*
X2335833Y-8296643D01*
X2364405Y-8296643D01*
X2383452Y-8306167D01*
X2392976Y-8325214D01*
X2392976Y-8429976D01*
X2392976Y-8325214D02*
X2402500Y-8306167D01*
X2421548Y-8296643D01*
X2450119Y-8296643D01*
X2469167Y-8306167D01*
X2478690Y-8325214D01*
X2478690Y-8429976D01*
X2573929Y-8429976D02*
X2573929Y-8296643D01*
X2573929Y-8315690D02*
X2583452Y-8306167D01*
X2602500Y-8296643D01*
X2631071Y-8296643D01*
X2650119Y-8306167D01*
X2659643Y-8325214D01*
X2659643Y-8429976D01*
X2659643Y-8325214D02*
X2669167Y-8306167D01*
X2688214Y-8296643D01*
X2716786Y-8296643D01*
X2735833Y-8306167D01*
X2745357Y-8325214D01*
X2745357Y-8429976D01*
X3135833Y-8220452D02*
X2964405Y-8477595D01*
X3392976Y-8229976D02*
X3412024Y-8229976D01*
X3431071Y-8239500D01*
X3440595Y-8249024D01*
X3450119Y-8268071D01*
X3459643Y-8306167D01*
X3459643Y-8353786D01*
X3450119Y-8391881D01*
X3440595Y-8410929D01*
X3431071Y-8420452D01*
X3412024Y-8429976D01*
X3392976Y-8429976D01*
X3373928Y-8420452D01*
X3364405Y-8410929D01*
X3354881Y-8391881D01*
X3345357Y-8353786D01*
X3345357Y-8306167D01*
X3354881Y-8268071D01*
X3364405Y-8249024D01*
X3373928Y-8239500D01*
X3392976Y-8229976D01*
X3545357Y-8410929D02*
X3554881Y-8420452D01*
X3545357Y-8429976D01*
X3535833Y-8420452D01*
X3545357Y-8410929D01*
X3545357Y-8429976D01*
X3678690Y-8229976D02*
X3697738Y-8229976D01*
X3716786Y-8239500D01*
X3726309Y-8249024D01*
X3735833Y-8268071D01*
X3745357Y-8306167D01*
X3745357Y-8353786D01*
X3735833Y-8391881D01*
X3726309Y-8410929D01*
X3716786Y-8420452D01*
X3697738Y-8429976D01*
X3678690Y-8429976D01*
X3659643Y-8420452D01*
X3650119Y-8410929D01*
X3640595Y-8391881D01*
X3631071Y-8353786D01*
X3631071Y-8306167D01*
X3640595Y-8268071D01*
X3650119Y-8249024D01*
X3659643Y-8239500D01*
X3678690Y-8229976D01*
X3926309Y-8229976D02*
X3831071Y-8229976D01*
X3821548Y-8325214D01*
X3831071Y-8315690D01*
X3850119Y-8306167D01*
X3897738Y-8306167D01*
X3916786Y-8315690D01*
X3926309Y-8325214D01*
X3935833Y-8344262D01*
X3935833Y-8391881D01*
X3926309Y-8410929D01*
X3916786Y-8420452D01*
X3897738Y-8429976D01*
X3850119Y-8429976D01*
X3831071Y-8420452D01*
X3821548Y-8410929D01*
X4031071Y-8429976D02*
X4069167Y-8429976D01*
X4088214Y-8420452D01*
X4097738Y-8410929D01*
X4116786Y-8382357D01*
X4126309Y-8344262D01*
X4126309Y-8268071D01*
X4116786Y-8249024D01*
X4107262Y-8239500D01*
X4088214Y-8229976D01*
X4050119Y-8229976D01*
X4031071Y-8239500D01*
X4021548Y-8249024D01*
X4012024Y-8268071D01*
X4012024Y-8315690D01*
X4021548Y-8334738D01*
X4031071Y-8344262D01*
X4050119Y-8353786D01*
X4088214Y-8353786D01*
X4107262Y-8344262D01*
X4116786Y-8334738D01*
X4126309Y-8315690D01*
X4250119Y-8229976D02*
X4269167Y-8229976D01*
X4288214Y-8239500D01*
X4297738Y-8249024D01*
X4307262Y-8268071D01*
X4316786Y-8306167D01*
X4316786Y-8353786D01*
X4307262Y-8391881D01*
X4297738Y-8410929D01*
X4288214Y-8420452D01*
X4269167Y-8429976D01*
X4250119Y-8429976D01*
X4231071Y-8420452D01*
X4221548Y-8410929D01*
X4212024Y-8391881D01*
X4202500Y-8353786D01*
X4202500Y-8306167D01*
X4212024Y-8268071D01*
X4221548Y-8249024D01*
X4231071Y-8239500D01*
X4250119Y-8229976D01*
X4392976Y-8229976D02*
X4392976Y-8268071D01*
X4469167Y-8229976D02*
X4469167Y-8268071D01*
X4764405Y-8506167D02*
X4754881Y-8496643D01*
X4735833Y-8468071D01*
X4726310Y-8449024D01*
X4716786Y-8420452D01*
X4707262Y-8372833D01*
X4707262Y-8334738D01*
X4716786Y-8287119D01*
X4726310Y-8258548D01*
X4735833Y-8239500D01*
X4754881Y-8210928D01*
X4764405Y-8201405D01*
X4926310Y-8229976D02*
X4888214Y-8229976D01*
X4869167Y-8239500D01*
X4859643Y-8249024D01*
X4840595Y-8277595D01*
X4831071Y-8315690D01*
X4831071Y-8391881D01*
X4840595Y-8410929D01*
X4850119Y-8420452D01*
X4869167Y-8429976D01*
X4907262Y-8429976D01*
X4926310Y-8420452D01*
X4935833Y-8410929D01*
X4945357Y-8391881D01*
X4945357Y-8344262D01*
X4935833Y-8325214D01*
X4926310Y-8315690D01*
X4907262Y-8306167D01*
X4869167Y-8306167D01*
X4850119Y-8315690D01*
X4840595Y-8325214D01*
X4831071Y-8344262D01*
X5069167Y-8229976D02*
X5088214Y-8229976D01*
X5107262Y-8239500D01*
X5116786Y-8249024D01*
X5126310Y-8268071D01*
X5135833Y-8306167D01*
X5135833Y-8353786D01*
X5126310Y-8391881D01*
X5116786Y-8410929D01*
X5107262Y-8420452D01*
X5088214Y-8429976D01*
X5069167Y-8429976D01*
X5050119Y-8420452D01*
X5040595Y-8410929D01*
X5031071Y-8391881D01*
X5021548Y-8353786D01*
X5021548Y-8306167D01*
X5031071Y-8268071D01*
X5040595Y-8249024D01*
X5050119Y-8239500D01*
X5069167Y-8229976D01*
X5373929Y-8429976D02*
X5373929Y-8229976D01*
X5459643Y-8429976D02*
X5459643Y-8325214D01*
X5450119Y-8306167D01*
X5431071Y-8296643D01*
X5402500Y-8296643D01*
X5383452Y-8306167D01*
X5373929Y-8315690D01*
X5583452Y-8429976D02*
X5564405Y-8420452D01*
X5554881Y-8410929D01*
X5545357Y-8391881D01*
X5545357Y-8334738D01*
X5554881Y-8315690D01*
X5564405Y-8306167D01*
X5583452Y-8296643D01*
X5612024Y-8296643D01*
X5631071Y-8306167D01*
X5640595Y-8315690D01*
X5650119Y-8334738D01*
X5650119Y-8391881D01*
X5640595Y-8410929D01*
X5631071Y-8420452D01*
X5612024Y-8429976D01*
X5583452Y-8429976D01*
X5764405Y-8429976D02*
X5745357Y-8420452D01*
X5735833Y-8401405D01*
X5735833Y-8229976D01*
X5916786Y-8420452D02*
X5897738Y-8429976D01*
X5859643Y-8429976D01*
X5840595Y-8420452D01*
X5831071Y-8401405D01*
X5831071Y-8325214D01*
X5840595Y-8306167D01*
X5859643Y-8296643D01*
X5897738Y-8296643D01*
X5916786Y-8306167D01*
X5926309Y-8325214D01*
X5926309Y-8344262D01*
X5831071Y-8363309D01*
X6002500Y-8420452D02*
X6021548Y-8429976D01*
X6059643Y-8429976D01*
X6078690Y-8420452D01*
X6088214Y-8401405D01*
X6088214Y-8391881D01*
X6078690Y-8372833D01*
X6059643Y-8363309D01*
X6031071Y-8363309D01*
X6012024Y-8353786D01*
X6002500Y-8334738D01*
X6002500Y-8325214D01*
X6012024Y-8306167D01*
X6031071Y-8296643D01*
X6059643Y-8296643D01*
X6078690Y-8306167D01*
X6154881Y-8506167D02*
X6164405Y-8496643D01*
X6183452Y-8468071D01*
X6192976Y-8449024D01*
X6202500Y-8420452D01*
X6212024Y-8372833D01*
X6212024Y-8334738D01*
X6202500Y-8287119D01*
X6192976Y-8258548D01*
X6183452Y-8239500D01*
X6164405Y-8210928D01*
X6154881Y-8201405D01*
M02*
