%TF.GenerationSoftware,KiCad,Pcbnew,(6.0.4)*%
%TF.CreationDate,2022-10-08T16:53:47+11:00*%
%TF.ProjectId,bevel,62657665-6c2e-46b6-9963-61645f706362,v1.0.0*%
%TF.SameCoordinates,Original*%
%TF.FileFunction,Copper,L2,Bot*%
%TF.FilePolarity,Positive*%
%FSLAX46Y46*%
G04 Gerber Fmt 4.6, Leading zero omitted, Abs format (unit mm)*
G04 Created by KiCad (PCBNEW (6.0.4)) date 2022-10-08 16:53:47*
%MOMM*%
%LPD*%
G01*
G04 APERTURE LIST*
G04 Aperture macros list*
%AMFreePoly0*
4,1,5,0.125000,-0.500000,-0.125000,-0.500000,-0.125000,0.500000,0.125000,0.500000,0.125000,-0.500000,0.125000,-0.500000,$1*%
%AMFreePoly1*
4,1,6,0.600000,0.200000,0.000000,-0.400000,-0.600000,0.200000,-0.600000,0.400000,0.600000,0.400000,0.600000,0.200000,0.600000,0.200000,$1*%
%AMFreePoly2*
4,1,49,0.004773,0.123721,0.009154,0.124665,0.028961,0.117240,0.062500,0.108253,0.068237,0.102516,0.075053,0.099961,0.087617,0.083136,0.108253,0.062500,0.111178,0.051584,0.117161,0.043572,0.118539,0.024114,0.125000,0.000000,0.121239,-0.014035,0.122131,-0.026629,0.113759,-0.041951,0.108253,-0.062500,0.095644,-0.075109,0.088389,-0.088388,-0.641000,-0.817776,-0.641000,-4.770224,
0.088389,-5.499612,0.109852,-5.528356,0.124665,-5.597154,0.099961,-5.663053,0.043572,-5.705161,-0.026629,-5.710131,-0.088388,-5.676389,-0.854388,-4.910388,-0.867707,-4.892552,-0.871189,-4.889530,-0.871982,-4.886826,-0.875852,-4.881644,-0.882331,-4.851549,-0.891000,-4.822000,-0.891000,-0.766000,-0.887805,-0.743969,-0.888131,-0.739371,-0.886780,-0.736898,-0.885852,-0.730498,-0.869151,-0.704632,
-0.854388,-0.677612,-0.088388,0.088389,-0.064606,0.106147,-0.062500,0.108253,-0.061385,0.108552,-0.059644,0.109852,-0.043806,0.113262,0.000000,0.125000,0.004773,0.123721,0.004773,0.123721,$1*%
%AMFreePoly3*
4,1,6,0.600000,-0.250000,-0.600000,-0.250000,-0.600000,1.000000,0.000000,0.400000,0.600000,1.000000,0.600000,-0.250000,0.600000,-0.250000,$1*%
G04 Aperture macros list end*
%TA.AperFunction,ComponentPad*%
%ADD10C,1.600000*%
%TD*%
%TA.AperFunction,SMDPad,CuDef*%
%ADD11FreePoly0,90.000000*%
%TD*%
%TA.AperFunction,SMDPad,CuDef*%
%ADD12FreePoly1,90.000000*%
%TD*%
%TA.AperFunction,ComponentPad*%
%ADD13R,1.600000X1.600000*%
%TD*%
%TA.AperFunction,SMDPad,CuDef*%
%ADD14FreePoly1,270.000000*%
%TD*%
%TA.AperFunction,SMDPad,CuDef*%
%ADD15FreePoly0,270.000000*%
%TD*%
%TA.AperFunction,SMDPad,CuDef*%
%ADD16FreePoly2,270.000000*%
%TD*%
%TA.AperFunction,ComponentPad*%
%ADD17C,0.800000*%
%TD*%
%TA.AperFunction,SMDPad,CuDef*%
%ADD18FreePoly3,90.000000*%
%TD*%
%TA.AperFunction,SMDPad,CuDef*%
%ADD19FreePoly3,270.000000*%
%TD*%
%TA.AperFunction,SMDPad,CuDef*%
%ADD20FreePoly2,90.000000*%
%TD*%
%TA.AperFunction,ComponentPad*%
%ADD21C,2.286000*%
%TD*%
%TA.AperFunction,ComponentPad*%
%ADD22O,2.200000X1.600000*%
%TD*%
%TA.AperFunction,Conductor*%
%ADD23C,0.250000*%
%TD*%
G04 APERTURE END LIST*
D10*
%TO.P,MCU1,*%
%TO.N,*%
X108880000Y-26240000D03*
X108880000Y-38940000D03*
X108880000Y-16080000D03*
X124120000Y-16080000D03*
D11*
X110150000Y-38940000D03*
X110150000Y-21160000D03*
D12*
X110658000Y-16080000D03*
X110658000Y-18620000D03*
D11*
X110150000Y-44020000D03*
X110150000Y-23700000D03*
D13*
X124120000Y-16080000D03*
D14*
X122342000Y-44020000D03*
D15*
X122850000Y-31320000D03*
D10*
X108880000Y-41480000D03*
D12*
X110658000Y-38940000D03*
D10*
X108880000Y-18620000D03*
D14*
X122342000Y-31320000D03*
D10*
X124120000Y-33860000D03*
D11*
X110150000Y-16080000D03*
D10*
X108880000Y-21160000D03*
D14*
X122342000Y-21160000D03*
X122342000Y-16080000D03*
X122342000Y-33860000D03*
D10*
X108880000Y-44020000D03*
D12*
X110658000Y-21160000D03*
D15*
X122850000Y-38940000D03*
D10*
X108880000Y-31320000D03*
D11*
X110150000Y-26240000D03*
D10*
X124120000Y-31320000D03*
D14*
X122342000Y-38940000D03*
D10*
X108880000Y-23700000D03*
D15*
X122850000Y-23700000D03*
X122850000Y-18620000D03*
D14*
X122342000Y-23700000D03*
D12*
X110658000Y-36400000D03*
X110658000Y-28780000D03*
D11*
X110150000Y-31320000D03*
D12*
X110658000Y-26240000D03*
D15*
X122850000Y-33860000D03*
D14*
X122342000Y-36400000D03*
D11*
X110150000Y-41480000D03*
D10*
X124120000Y-44020000D03*
D15*
X122850000Y-16080000D03*
D14*
X122342000Y-18620000D03*
X122342000Y-41480000D03*
D12*
X110658000Y-33860000D03*
D10*
X124120000Y-38940000D03*
X124120000Y-28780000D03*
D11*
X110150000Y-33860000D03*
D15*
X122850000Y-44020000D03*
D12*
X110658000Y-44020000D03*
D10*
X124120000Y-18620000D03*
D15*
X122850000Y-41480000D03*
D12*
X110658000Y-23700000D03*
D15*
X122850000Y-28780000D03*
D11*
X110150000Y-28780000D03*
D15*
X122850000Y-21160000D03*
D10*
X108880000Y-33860000D03*
X124120000Y-36400000D03*
D11*
X110150000Y-36400000D03*
D12*
X110658000Y-41480000D03*
D10*
X108880000Y-28780000D03*
X124120000Y-23700000D03*
D12*
X110658000Y-31320000D03*
D10*
X124120000Y-21160000D03*
D15*
X122850000Y-36400000D03*
D10*
X108880000Y-36400000D03*
X124120000Y-41480000D03*
X124120000Y-26240000D03*
D14*
X122342000Y-28780000D03*
D15*
X122850000Y-26240000D03*
D11*
X110150000Y-18620000D03*
D14*
X122342000Y-26240000D03*
D16*
%TO.P,MCU1,1*%
%TO.N,RAW*%
X117262000Y-16080000D03*
D17*
X117262000Y-16080000D03*
D18*
X111674000Y-16080000D03*
D17*
%TO.P,MCU1,2*%
%TO.N,GND*%
X117262000Y-18620000D03*
D16*
X117262000Y-18620000D03*
D18*
%TO.N,N/C*%
X111674000Y-18620000D03*
%TO.P,MCU1,3*%
%TO.N,RST*%
X111674000Y-21160000D03*
D17*
X117262000Y-21160000D03*
D16*
X117262000Y-21160000D03*
%TO.P,MCU1,4*%
%TO.N,VCC*%
X117262000Y-23700000D03*
D17*
X117262000Y-23700000D03*
D18*
X111674000Y-23700000D03*
%TO.P,MCU1,5*%
%TO.N,P21*%
X111674000Y-26240000D03*
D16*
X117262000Y-26240000D03*
D17*
X117262000Y-26240000D03*
D16*
%TO.P,MCU1,6*%
%TO.N,P20*%
X117262000Y-28780000D03*
D17*
X117262000Y-28780000D03*
D18*
X111674000Y-28780000D03*
%TO.P,MCU1,7*%
%TO.N,matrix_inner_bottom*%
X111674000Y-31320000D03*
D17*
X117262000Y-31320000D03*
D16*
X117262000Y-31320000D03*
D18*
%TO.P,MCU1,8*%
%TO.N,matrix_pinky_bottom*%
X111674000Y-33860000D03*
D16*
X117262000Y-33860000D03*
D17*
X117262000Y-33860000D03*
%TO.P,MCU1,9*%
%TO.N,matrix_ring_bottom*%
X117262000Y-36400000D03*
D16*
X117262000Y-36400000D03*
D18*
X111674000Y-36400000D03*
%TO.P,MCU1,10*%
%TO.N,matrix_middle_bottom*%
X111674000Y-38940000D03*
D16*
X117262000Y-38940000D03*
D17*
X117262000Y-38940000D03*
D18*
%TO.P,MCU1,11*%
%TO.N,matrix_pointer_bottom*%
X111674000Y-41480000D03*
D16*
X117262000Y-41480000D03*
D17*
X117262000Y-41480000D03*
D16*
%TO.P,MCU1,12*%
%TO.N,matrix_pinky_home*%
X117262000Y-44020000D03*
D18*
X111674000Y-44020000D03*
D17*
X117262000Y-44020000D03*
D19*
%TO.P,MCU1,13*%
%TO.N,matrix_ring_home*%
X121326000Y-44020000D03*
D17*
X115738000Y-44020000D03*
D20*
X115738000Y-44020000D03*
%TO.P,MCU1,14*%
%TO.N,matrix_middle_home*%
X115738000Y-41480000D03*
D19*
X121326000Y-41480000D03*
D17*
X115738000Y-41480000D03*
D19*
%TO.P,MCU1,15*%
%TO.N,matrix_pointer_home*%
X121326000Y-38940000D03*
D20*
X115738000Y-38940000D03*
D17*
X115738000Y-38940000D03*
D19*
%TO.P,MCU1,16*%
%TO.N,matrix_inner_home*%
X121326000Y-36400000D03*
D17*
X115738000Y-36400000D03*
D20*
X115738000Y-36400000D03*
%TO.P,MCU1,17*%
%TO.N,matrix_pinky_top*%
X115738000Y-33860000D03*
D17*
X115738000Y-33860000D03*
D19*
X121326000Y-33860000D03*
%TO.P,MCU1,18*%
%TO.N,matrix_ring_top*%
X121326000Y-31320000D03*
D20*
X115738000Y-31320000D03*
D17*
X115738000Y-31320000D03*
%TO.P,MCU1,19*%
%TO.N,matrix_middle_top*%
X115738000Y-28780000D03*
D19*
X121326000Y-28780000D03*
D20*
X115738000Y-28780000D03*
D19*
%TO.P,MCU1,20*%
%TO.N,matrix_pointer_top*%
X121326000Y-26240000D03*
D20*
X115738000Y-26240000D03*
D17*
X115738000Y-26240000D03*
D19*
%TO.P,MCU1,21*%
%TO.N,GND*%
X121326000Y-23700000D03*
D20*
X115738000Y-23700000D03*
D17*
X115738000Y-23700000D03*
%TO.P,MCU1,22*%
X115738000Y-21160000D03*
D20*
X115738000Y-21160000D03*
D19*
X121326000Y-21160000D03*
D17*
%TO.P,MCU1,23*%
%TO.N,matrix_inner_top*%
X115738000Y-18620000D03*
D19*
X121326000Y-18620000D03*
D20*
X115738000Y-18620000D03*
%TO.P,MCU1,24*%
%TO.N,P1*%
X115738000Y-16080000D03*
D17*
X115738000Y-16080000D03*
D19*
X121326000Y-16080000D03*
%TD*%
D21*
%TO.P,S14,1*%
%TO.N,GND*%
X100040000Y-35420000D03*
X94960000Y-35420000D03*
%TO.P,S14,2*%
%TO.N,matrix_inner_home*%
X93690000Y-37960000D03*
X101310000Y-37960000D03*
%TD*%
%TO.P,S9,1*%
%TO.N,GND*%
X56960000Y-16420000D03*
X62040000Y-16420000D03*
%TO.P,S9,2*%
%TO.N,matrix_middle_top*%
X63310000Y-18960000D03*
X55690000Y-18960000D03*
%TD*%
%TO.P,S11,1*%
%TO.N,GND*%
X81040000Y-35420000D03*
X75960000Y-35420000D03*
%TO.P,S11,2*%
%TO.N,matrix_pointer_home*%
X82310000Y-37960000D03*
X74690000Y-37960000D03*
%TD*%
%TO.P,S5,1*%
%TO.N,GND*%
X37960000Y-35420000D03*
X43040000Y-35420000D03*
%TO.P,S5,2*%
%TO.N,matrix_ring_home*%
X44310000Y-37960000D03*
X36690000Y-37960000D03*
%TD*%
%TO.P,S2,1*%
%TO.N,GND*%
X24040000Y-35420000D03*
X18960000Y-35420000D03*
%TO.P,S2,2*%
%TO.N,matrix_pinky_home*%
X17690000Y-37960000D03*
X25310000Y-37960000D03*
%TD*%
%TO.P,S7,1*%
%TO.N,GND*%
X81040000Y-54420000D03*
X75960000Y-54420000D03*
%TO.P,S7,2*%
%TO.N,matrix_middle_bottom*%
X74690000Y-56960000D03*
X82310000Y-56960000D03*
%TD*%
%TO.P,S13,1*%
%TO.N,GND*%
X113960000Y-54420000D03*
X119040000Y-54420000D03*
%TO.P,S13,2*%
%TO.N,matrix_inner_bottom*%
X112690000Y-56960000D03*
X120310000Y-56960000D03*
%TD*%
D22*
%TO.P,REF\u002A\u002A,1*%
%TO.N,GND*%
X109950000Y-46350000D03*
%TO.P,REF\u002A\u002A,2*%
X111050000Y-50950000D03*
%TO.P,REF\u002A\u002A,3*%
%TO.N,P21*%
X115050000Y-50950000D03*
%TO.P,REF\u002A\u002A,4*%
%TO.N,VCC*%
X118050000Y-50950000D03*
%TD*%
D21*
%TO.P,S8,1*%
%TO.N,GND*%
X62040000Y-35420000D03*
X56960000Y-35420000D03*
%TO.P,S8,2*%
%TO.N,matrix_middle_home*%
X63310000Y-37960000D03*
X55690000Y-37960000D03*
%TD*%
%TO.P,S10,1*%
%TO.N,GND*%
X100040000Y-54420000D03*
X94960000Y-54420000D03*
%TO.P,S10,2*%
%TO.N,matrix_pointer_bottom*%
X93690000Y-56960000D03*
X101310000Y-56960000D03*
%TD*%
%TO.P,S15,1*%
%TO.N,GND*%
X94960000Y-16420000D03*
X100040000Y-16420000D03*
%TO.P,S15,2*%
%TO.N,matrix_inner_top*%
X101310000Y-18960000D03*
X93690000Y-18960000D03*
%TD*%
%TO.P,S4,1*%
%TO.N,GND*%
X56960000Y-54420000D03*
X62040000Y-54420000D03*
%TO.P,S4,2*%
%TO.N,matrix_ring_bottom*%
X55690000Y-56960000D03*
X63310000Y-56960000D03*
%TD*%
%TO.P,S12,1*%
%TO.N,GND*%
X81040000Y-16420000D03*
X75960000Y-16420000D03*
%TO.P,S12,2*%
%TO.N,matrix_pointer_top*%
X74690000Y-18960000D03*
X82310000Y-18960000D03*
%TD*%
%TO.P,S3,1*%
%TO.N,GND*%
X18960000Y-16420000D03*
X24040000Y-16420000D03*
%TO.P,S3,2*%
%TO.N,matrix_pinky_top*%
X17690000Y-18960000D03*
X25310000Y-18960000D03*
%TD*%
%TO.P,S1,1*%
%TO.N,GND*%
X37960000Y-54420000D03*
X43040000Y-54420000D03*
%TO.P,S1,2*%
%TO.N,matrix_pinky_bottom*%
X44310000Y-56960000D03*
X36690000Y-56960000D03*
%TD*%
%TO.P,S6,1*%
%TO.N,GND*%
X43040000Y-16420000D03*
X37960000Y-16420000D03*
%TO.P,S6,2*%
%TO.N,matrix_ring_top*%
X44310000Y-18960000D03*
X36690000Y-18960000D03*
%TD*%
D23*
%TO.N,GND*%
X122741489Y-19744511D02*
X124755489Y-19744511D01*
X124755489Y-19744511D02*
X125244511Y-19255489D01*
X125244511Y-18154211D02*
X124585789Y-17495489D01*
X125244511Y-19255489D02*
X125244511Y-18154211D01*
X121326000Y-21160000D02*
X122741489Y-19744511D01*
X124585789Y-17495489D02*
X118386511Y-17495489D01*
X118386511Y-17495489D02*
X117262000Y-18620000D01*
X121326000Y-23700000D02*
X121326000Y-21160000D01*
%TO.N,matrix_pinky_bottom*%
X107755489Y-35934211D02*
X108414211Y-35275489D01*
X94340366Y-51323687D02*
X94340366Y-51253616D01*
X94340366Y-51253616D02*
X107755489Y-37838493D01*
X36690000Y-56960000D02*
X44310000Y-56960000D01*
X55076313Y-51323687D02*
X94340366Y-51323687D01*
X49440000Y-56960000D02*
X55076313Y-51323687D01*
X107755489Y-37838493D02*
X107755489Y-35934211D01*
X110318493Y-35275489D02*
X112458493Y-33135489D01*
X116537489Y-33135489D02*
X117262000Y-33860000D01*
X108414211Y-35275489D02*
X110318493Y-35275489D01*
X112458493Y-33135489D02*
X116537489Y-33135489D01*
X44310000Y-56960000D02*
X49440000Y-56960000D01*
%TO.N,matrix_ring_bottom*%
X116537489Y-35675489D02*
X117262000Y-36400000D01*
X74840000Y-51880000D02*
X94419771Y-51880000D01*
X108414211Y-37815489D02*
X109960031Y-37815489D01*
X109960031Y-37815489D02*
X112100031Y-35675489D01*
X63310000Y-56960000D02*
X69760000Y-56960000D01*
X55690000Y-56960000D02*
X63310000Y-56960000D01*
X94789886Y-51509885D02*
X94789886Y-51439814D01*
X69760000Y-56960000D02*
X74840000Y-51880000D01*
X94789886Y-51439814D02*
X108414211Y-37815489D01*
X94419771Y-51880000D02*
X94789886Y-51509885D01*
X112100031Y-35675489D02*
X116537489Y-35675489D01*
%TO.N,matrix_middle_bottom*%
X89975489Y-56960000D02*
X106870978Y-40064511D01*
X115437897Y-38215489D02*
X116537489Y-38215489D01*
X82310000Y-56960000D02*
X89975489Y-56960000D01*
X116537489Y-38215489D02*
X117262000Y-38940000D01*
X106870978Y-40064511D02*
X113588875Y-40064511D01*
X113588875Y-40064511D02*
X115437897Y-38215489D01*
X74690000Y-56960000D02*
X82310000Y-56960000D01*
%TO.N,matrix_pointer_bottom*%
X107755489Y-43554211D02*
X108414211Y-42895489D01*
X107755489Y-50514511D02*
X107755489Y-43554211D01*
X111764511Y-42895489D02*
X113904511Y-40755489D01*
X113904511Y-40755489D02*
X116537489Y-40755489D01*
X116537489Y-40755489D02*
X117262000Y-41480000D01*
X101310000Y-56960000D02*
X107755489Y-50514511D01*
X93690000Y-56960000D02*
X101310000Y-56960000D01*
X108414211Y-42895489D02*
X111764511Y-42895489D01*
%TO.N,matrix_inner_bottom*%
X118386511Y-30195489D02*
X117262000Y-31320000D01*
X112690000Y-56960000D02*
X120310000Y-56960000D01*
X125244511Y-52025489D02*
X125244511Y-30854211D01*
X120310000Y-56960000D02*
X125244511Y-52025489D01*
X124585789Y-30195489D02*
X118386511Y-30195489D01*
X125244511Y-30854211D02*
X124585789Y-30195489D01*
%TD*%
M02*
