%TF.GenerationSoftware,KiCad,Pcbnew,(6.0.4)*%
%TF.CreationDate,2022-10-08T16:53:47+11:00*%
%TF.ProjectId,bevel,62657665-6c2e-46b6-9963-61645f706362,v1.0.0*%
%TF.SameCoordinates,Original*%
%TF.FileFunction,Copper,L1,Top*%
%TF.FilePolarity,Positive*%
%FSLAX46Y46*%
G04 Gerber Fmt 4.6, Leading zero omitted, Abs format (unit mm)*
G04 Created by KiCad (PCBNEW (6.0.4)) date 2022-10-08 16:53:47*
%MOMM*%
%LPD*%
G01*
G04 APERTURE LIST*
G04 Aperture macros list*
%AMFreePoly0*
4,1,5,0.125000,-0.500000,-0.125000,-0.500000,-0.125000,0.500000,0.125000,0.500000,0.125000,-0.500000,0.125000,-0.500000,$1*%
%AMFreePoly1*
4,1,6,0.600000,0.200000,0.000000,-0.400000,-0.600000,0.200000,-0.600000,0.400000,0.600000,0.400000,0.600000,0.200000,0.600000,0.200000,$1*%
%AMFreePoly2*
4,1,49,0.088388,4.152388,0.854389,3.386388,0.867708,3.368551,0.871189,3.365530,0.871982,3.362827,0.875852,3.357644,0.882333,3.327543,0.891000,3.298000,0.891000,0.766000,0.887805,0.743969,0.888131,0.739371,0.886780,0.736898,0.885852,0.730498,0.869154,0.704638,0.854389,0.677612,0.088388,-0.088388,0.064607,-0.106146,0.062500,-0.108253,0.061385,-0.108552,0.059644,-0.109852,
0.043810,-0.113261,0.000000,-0.125000,-0.004774,-0.123721,-0.009154,-0.124664,-0.028953,-0.117242,-0.062500,-0.108253,-0.068237,-0.102516,-0.075052,-0.099961,-0.087614,-0.083139,-0.108253,-0.062500,-0.111178,-0.051584,-0.117161,-0.043572,-0.118539,-0.024114,-0.125000,0.000000,-0.121239,0.014035,-0.122131,0.026629,-0.113759,0.041953,-0.108253,0.062500,-0.095642,0.075111,-0.088388,0.088388,
0.641000,0.817777,0.641000,3.246223,-0.088388,3.975612,-0.109852,4.004356,-0.124664,4.073154,-0.099961,4.139052,-0.043572,4.181161,0.026629,4.186131,0.088388,4.152388,0.088388,4.152388,$1*%
%AMFreePoly3*
4,1,6,0.600000,-0.250000,-0.600000,-0.250000,-0.600000,1.000000,0.000000,0.400000,0.600000,1.000000,0.600000,-0.250000,0.600000,-0.250000,$1*%
%AMFreePoly4*
4,1,49,0.088388,4.152388,0.850389,3.390388,0.863708,3.372551,0.867189,3.369530,0.867982,3.366827,0.871852,3.361644,0.878333,3.331543,0.887000,3.302000,0.887000,0.762000,0.883805,0.739969,0.884131,0.735371,0.882780,0.732898,0.881852,0.726498,0.865154,0.700638,0.850389,0.673612,0.088388,-0.088388,0.064607,-0.106146,0.062500,-0.108253,0.061385,-0.108552,0.059644,-0.109852,
0.043810,-0.113261,0.000000,-0.125000,-0.004774,-0.123721,-0.009154,-0.124664,-0.028953,-0.117242,-0.062500,-0.108253,-0.068237,-0.102516,-0.075052,-0.099961,-0.087614,-0.083139,-0.108253,-0.062500,-0.111178,-0.051584,-0.117161,-0.043572,-0.118539,-0.024114,-0.125000,0.000000,-0.121239,0.014035,-0.122131,0.026629,-0.113759,0.041953,-0.108253,0.062500,-0.095642,0.075111,-0.088388,0.088388,
0.637000,0.813777,0.637000,3.250223,-0.088388,3.975612,-0.109852,4.004356,-0.124664,4.073154,-0.099961,4.139052,-0.043572,4.181161,0.026629,4.186131,0.088388,4.152388,0.088388,4.152388,$1*%
G04 Aperture macros list end*
%TA.AperFunction,ComponentPad*%
%ADD10C,1.600000*%
%TD*%
%TA.AperFunction,SMDPad,CuDef*%
%ADD11FreePoly0,90.000000*%
%TD*%
%TA.AperFunction,SMDPad,CuDef*%
%ADD12FreePoly0,270.000000*%
%TD*%
%TA.AperFunction,SMDPad,CuDef*%
%ADD13FreePoly1,270.000000*%
%TD*%
%TA.AperFunction,SMDPad,CuDef*%
%ADD14FreePoly1,90.000000*%
%TD*%
%TA.AperFunction,ComponentPad*%
%ADD15R,1.600000X1.600000*%
%TD*%
%TA.AperFunction,SMDPad,CuDef*%
%ADD16FreePoly2,270.000000*%
%TD*%
%TA.AperFunction,SMDPad,CuDef*%
%ADD17FreePoly3,270.000000*%
%TD*%
%TA.AperFunction,ComponentPad*%
%ADD18C,0.800000*%
%TD*%
%TA.AperFunction,SMDPad,CuDef*%
%ADD19FreePoly3,90.000000*%
%TD*%
%TA.AperFunction,SMDPad,CuDef*%
%ADD20FreePoly4,90.000000*%
%TD*%
%TA.AperFunction,ComponentPad*%
%ADD21C,2.286000*%
%TD*%
%TA.AperFunction,ComponentPad*%
%ADD22O,2.200000X1.600000*%
%TD*%
%TA.AperFunction,Conductor*%
%ADD23C,0.250000*%
%TD*%
G04 APERTURE END LIST*
D10*
%TO.P,MCU1,*%
%TO.N,*%
X108880000Y-26240000D03*
X108880000Y-38940000D03*
X108880000Y-16080000D03*
D11*
X110150000Y-33860000D03*
D10*
X124120000Y-16080000D03*
D12*
X122850000Y-16080000D03*
X122850000Y-23700000D03*
D11*
X110150000Y-28780000D03*
D13*
X122342000Y-28780000D03*
D10*
X108880000Y-41480000D03*
X108880000Y-18620000D03*
D13*
X122342000Y-36400000D03*
D12*
X122850000Y-21160000D03*
D10*
X124120000Y-33860000D03*
D14*
X110658000Y-18620000D03*
D10*
X108880000Y-21160000D03*
D11*
X110150000Y-26240000D03*
X110150000Y-16080000D03*
D14*
X110658000Y-38940000D03*
D10*
X108880000Y-44020000D03*
D13*
X122342000Y-41480000D03*
X122342000Y-44020000D03*
X122342000Y-38940000D03*
D10*
X108880000Y-31320000D03*
X124120000Y-31320000D03*
D12*
X122850000Y-31320000D03*
D14*
X110658000Y-21160000D03*
X110658000Y-23700000D03*
D11*
X110150000Y-18620000D03*
D10*
X108880000Y-23700000D03*
D11*
X110150000Y-21160000D03*
X110150000Y-41480000D03*
D14*
X110658000Y-36400000D03*
X110658000Y-44020000D03*
D12*
X122850000Y-44020000D03*
D14*
X110658000Y-28780000D03*
X110658000Y-41480000D03*
D12*
X122850000Y-26240000D03*
D10*
X124120000Y-44020000D03*
D11*
X110150000Y-36400000D03*
X110150000Y-38940000D03*
D14*
X110658000Y-31320000D03*
D10*
X124120000Y-38940000D03*
X124120000Y-28780000D03*
D13*
X122342000Y-31320000D03*
X122342000Y-23700000D03*
D11*
X110150000Y-23700000D03*
D12*
X122850000Y-18620000D03*
D10*
X124120000Y-18620000D03*
D12*
X122850000Y-36400000D03*
D13*
X122342000Y-33860000D03*
D10*
X108880000Y-33860000D03*
D12*
X122850000Y-33860000D03*
D13*
X122342000Y-16080000D03*
D10*
X124120000Y-36400000D03*
D14*
X110658000Y-26240000D03*
D15*
X108880000Y-16080000D03*
D13*
X122342000Y-26240000D03*
D14*
X110658000Y-16080000D03*
D12*
X122850000Y-28780000D03*
D10*
X108880000Y-28780000D03*
D14*
X110658000Y-33860000D03*
D11*
X110150000Y-31320000D03*
D10*
X124120000Y-23700000D03*
X124120000Y-21160000D03*
D13*
X122342000Y-18620000D03*
D10*
X108880000Y-36400000D03*
X124120000Y-41480000D03*
X124120000Y-26240000D03*
D13*
X122342000Y-21160000D03*
D11*
X110150000Y-44020000D03*
D12*
X122850000Y-38940000D03*
X122850000Y-41480000D03*
D16*
%TO.P,MCU1,1*%
%TO.N,RAW*%
X117262000Y-16080000D03*
D17*
X121326000Y-16080000D03*
D18*
X117262000Y-16080000D03*
D17*
%TO.P,MCU1,2*%
%TO.N,GND*%
X121326000Y-18620000D03*
D18*
X117262000Y-18620000D03*
D16*
X117262000Y-18620000D03*
D17*
%TO.P,MCU1,3*%
%TO.N,RST*%
X121326000Y-21160000D03*
D16*
X117262000Y-21160000D03*
D18*
X117262000Y-21160000D03*
%TO.P,MCU1,4*%
%TO.N,VCC*%
X117262000Y-23700000D03*
D16*
X117262000Y-23700000D03*
D17*
X121326000Y-23700000D03*
%TO.P,MCU1,5*%
%TO.N,P21*%
X121326000Y-26240000D03*
D16*
X117262000Y-26240000D03*
D18*
X117262000Y-26240000D03*
D17*
%TO.P,MCU1,6*%
%TO.N,P20*%
X121326000Y-28780000D03*
D16*
X117262000Y-28780000D03*
D18*
X117262000Y-28780000D03*
D16*
%TO.P,MCU1,7*%
%TO.N,matrix_inner_bottom*%
X117262000Y-31320000D03*
D18*
X117262000Y-31320000D03*
D17*
X121326000Y-31320000D03*
%TO.P,MCU1,8*%
%TO.N,matrix_pinky_bottom*%
X121326000Y-33860000D03*
D16*
X117262000Y-33860000D03*
D18*
X117262000Y-33860000D03*
D17*
%TO.P,MCU1,9*%
%TO.N,matrix_ring_bottom*%
X121326000Y-36400000D03*
D18*
X117262000Y-36400000D03*
D16*
X117262000Y-36400000D03*
%TO.P,MCU1,10*%
%TO.N,matrix_middle_bottom*%
X117262000Y-38940000D03*
D18*
X117262000Y-38940000D03*
D17*
X121326000Y-38940000D03*
D16*
%TO.P,MCU1,11*%
%TO.N,matrix_pointer_bottom*%
X117262000Y-41480000D03*
D17*
X121326000Y-41480000D03*
D18*
X117262000Y-41480000D03*
D16*
%TO.P,MCU1,12*%
%TO.N,matrix_pinky_home*%
X117262000Y-44020000D03*
D18*
X117262000Y-44020000D03*
D17*
X121326000Y-44020000D03*
D19*
%TO.P,MCU1,13*%
%TO.N,matrix_ring_home*%
X111674000Y-44020000D03*
D20*
X115738000Y-44020000D03*
D18*
X115738000Y-44020000D03*
D19*
%TO.P,MCU1,14*%
%TO.N,matrix_middle_home*%
X111674000Y-41480000D03*
D20*
X115738000Y-41480000D03*
D18*
X115738000Y-41480000D03*
D19*
%TO.P,MCU1,15*%
%TO.N,matrix_pointer_home*%
X111674000Y-38940000D03*
D18*
X115738000Y-38940000D03*
D20*
X115738000Y-38940000D03*
D19*
%TO.P,MCU1,16*%
%TO.N,matrix_inner_home*%
X111674000Y-36400000D03*
D18*
X115738000Y-36400000D03*
D20*
X115738000Y-36400000D03*
%TO.P,MCU1,17*%
%TO.N,matrix_pinky_top*%
X115738000Y-33860000D03*
D19*
X111674000Y-33860000D03*
D18*
X115738000Y-33860000D03*
D20*
%TO.P,MCU1,18*%
%TO.N,matrix_ring_top*%
X115738000Y-31320000D03*
D18*
X115738000Y-31320000D03*
D19*
X111674000Y-31320000D03*
D18*
%TO.P,MCU1,19*%
%TO.N,matrix_middle_top*%
X115738000Y-28780000D03*
D19*
X111674000Y-28780000D03*
D20*
X115738000Y-28780000D03*
D18*
%TO.P,MCU1,20*%
%TO.N,matrix_pointer_top*%
X115738000Y-26240000D03*
D20*
X115738000Y-26240000D03*
D19*
X111674000Y-26240000D03*
%TO.P,MCU1,21*%
%TO.N,GND*%
X111674000Y-23700000D03*
D18*
X115738000Y-23700000D03*
D20*
X115738000Y-23700000D03*
D19*
%TO.P,MCU1,22*%
X111674000Y-21160000D03*
D18*
X115738000Y-21160000D03*
D20*
X115738000Y-21160000D03*
%TO.P,MCU1,23*%
%TO.N,matrix_inner_top*%
X115738000Y-18620000D03*
D19*
X111674000Y-18620000D03*
D18*
X115738000Y-18620000D03*
%TO.P,MCU1,24*%
%TO.N,P1*%
X115738000Y-16080000D03*
D19*
X111674000Y-16080000D03*
D20*
X115738000Y-16080000D03*
%TD*%
D21*
%TO.P,S14,1*%
%TO.N,GND*%
X100040000Y-35420000D03*
X94960000Y-35420000D03*
%TO.P,S14,2*%
%TO.N,matrix_inner_home*%
X93690000Y-37960000D03*
X101310000Y-37960000D03*
%TD*%
%TO.P,S9,1*%
%TO.N,GND*%
X56960000Y-16420000D03*
X62040000Y-16420000D03*
%TO.P,S9,2*%
%TO.N,matrix_middle_top*%
X63310000Y-18960000D03*
X55690000Y-18960000D03*
%TD*%
%TO.P,S11,1*%
%TO.N,GND*%
X81040000Y-35420000D03*
X75960000Y-35420000D03*
%TO.P,S11,2*%
%TO.N,matrix_pointer_home*%
X82310000Y-37960000D03*
X74690000Y-37960000D03*
%TD*%
%TO.P,S5,1*%
%TO.N,GND*%
X37960000Y-35420000D03*
X43040000Y-35420000D03*
%TO.P,S5,2*%
%TO.N,matrix_ring_home*%
X44310000Y-37960000D03*
X36690000Y-37960000D03*
%TD*%
%TO.P,S2,1*%
%TO.N,GND*%
X24040000Y-35420000D03*
X18960000Y-35420000D03*
%TO.P,S2,2*%
%TO.N,matrix_pinky_home*%
X17690000Y-37960000D03*
X25310000Y-37960000D03*
%TD*%
%TO.P,S7,1*%
%TO.N,GND*%
X81040000Y-54420000D03*
X75960000Y-54420000D03*
%TO.P,S7,2*%
%TO.N,matrix_middle_bottom*%
X74690000Y-56960000D03*
X82310000Y-56960000D03*
%TD*%
%TO.P,S13,1*%
%TO.N,GND*%
X113960000Y-54420000D03*
X119040000Y-54420000D03*
%TO.P,S13,2*%
%TO.N,matrix_inner_bottom*%
X112690000Y-56960000D03*
X120310000Y-56960000D03*
%TD*%
D22*
%TO.P,REF\u002A\u002A,1*%
%TO.N,GND*%
X109950000Y-46350000D03*
%TO.P,REF\u002A\u002A,2*%
X111050000Y-50950000D03*
%TO.P,REF\u002A\u002A,3*%
%TO.N,P21*%
X115050000Y-50950000D03*
%TO.P,REF\u002A\u002A,4*%
%TO.N,VCC*%
X118050000Y-50950000D03*
%TD*%
D21*
%TO.P,S8,1*%
%TO.N,GND*%
X62040000Y-35420000D03*
X56960000Y-35420000D03*
%TO.P,S8,2*%
%TO.N,matrix_middle_home*%
X63310000Y-37960000D03*
X55690000Y-37960000D03*
%TD*%
%TO.P,S10,1*%
%TO.N,GND*%
X100040000Y-54420000D03*
X94960000Y-54420000D03*
%TO.P,S10,2*%
%TO.N,matrix_pointer_bottom*%
X93690000Y-56960000D03*
X101310000Y-56960000D03*
%TD*%
%TO.P,S15,1*%
%TO.N,GND*%
X94960000Y-16420000D03*
X100040000Y-16420000D03*
%TO.P,S15,2*%
%TO.N,matrix_inner_top*%
X101310000Y-18960000D03*
X93690000Y-18960000D03*
%TD*%
%TO.P,S4,1*%
%TO.N,GND*%
X56960000Y-54420000D03*
X62040000Y-54420000D03*
%TO.P,S4,2*%
%TO.N,matrix_ring_bottom*%
X55690000Y-56960000D03*
X63310000Y-56960000D03*
%TD*%
%TO.P,S12,1*%
%TO.N,GND*%
X81040000Y-16420000D03*
X75960000Y-16420000D03*
%TO.P,S12,2*%
%TO.N,matrix_pointer_top*%
X74690000Y-18960000D03*
X82310000Y-18960000D03*
%TD*%
%TO.P,S3,1*%
%TO.N,GND*%
X18960000Y-16420000D03*
X24040000Y-16420000D03*
%TO.P,S3,2*%
%TO.N,matrix_pinky_top*%
X17690000Y-18960000D03*
X25310000Y-18960000D03*
%TD*%
%TO.P,S1,1*%
%TO.N,GND*%
X37960000Y-54420000D03*
X43040000Y-54420000D03*
%TO.P,S1,2*%
%TO.N,matrix_pinky_bottom*%
X44310000Y-56960000D03*
X36690000Y-56960000D03*
%TD*%
%TO.P,S6,1*%
%TO.N,GND*%
X43040000Y-16420000D03*
X37960000Y-16420000D03*
%TO.P,S6,2*%
%TO.N,matrix_ring_top*%
X44310000Y-18960000D03*
X36690000Y-18960000D03*
%TD*%
D23*
%TO.N,GND*%
X18960000Y-35420000D02*
X15200000Y-35420000D01*
X94960000Y-54420000D02*
X81040000Y-54420000D01*
X56960000Y-35420000D02*
X43040000Y-35420000D01*
X18960000Y-54420000D02*
X13880000Y-49340000D01*
X18960000Y-16420000D02*
X24040000Y-16420000D01*
X75960000Y-54420000D02*
X62040000Y-54420000D01*
X119040000Y-54420000D02*
X113960000Y-54420000D01*
X37960000Y-35420000D02*
X24040000Y-35420000D01*
X113960000Y-54420000D02*
X100040000Y-54420000D01*
X81040000Y-16420000D02*
X94960000Y-16420000D01*
X56960000Y-54420000D02*
X43040000Y-54420000D01*
X13880000Y-49340000D02*
X13880000Y-29020000D01*
X94960000Y-35420000D02*
X81040000Y-35420000D01*
X115846511Y-17204511D02*
X117262000Y-18620000D01*
X15200000Y-35420000D02*
X13880000Y-34100000D01*
X100040000Y-35420000D02*
X94960000Y-35420000D01*
X81040000Y-35420000D02*
X75960000Y-35420000D01*
X109950000Y-49850000D02*
X111050000Y-50950000D01*
X13880000Y-29020000D02*
X13880000Y-18860000D01*
X37960000Y-16420000D02*
X43040000Y-16420000D01*
X113960000Y-54420000D02*
X111050000Y-51510000D01*
X81040000Y-54420000D02*
X75960000Y-54420000D01*
X94960000Y-16420000D02*
X100040000Y-16420000D01*
X43040000Y-35420000D02*
X37960000Y-35420000D01*
X75960000Y-16420000D02*
X81040000Y-16420000D01*
X62040000Y-54420000D02*
X56960000Y-54420000D01*
X100824511Y-17204511D02*
X115846511Y-17204511D01*
X109950000Y-46350000D02*
X109950000Y-49850000D01*
X62040000Y-35420000D02*
X56960000Y-35420000D01*
X24040000Y-16420000D02*
X37960000Y-16420000D01*
X100040000Y-54420000D02*
X94960000Y-54420000D01*
X37960000Y-54420000D02*
X18960000Y-54420000D01*
X57060000Y-16320000D02*
X57160000Y-16420000D01*
X100040000Y-16420000D02*
X100824511Y-17204511D01*
X24040000Y-35420000D02*
X18960000Y-35420000D01*
X57160000Y-16420000D02*
X62040000Y-16420000D01*
X75960000Y-35420000D02*
X62040000Y-35420000D01*
X13880000Y-18860000D02*
X16320000Y-16420000D01*
X62040000Y-16420000D02*
X75960000Y-16420000D01*
X43040000Y-54420000D02*
X37960000Y-54420000D01*
X56960000Y-16420000D02*
X57060000Y-16320000D01*
X111050000Y-51510000D02*
X111050000Y-50950000D01*
X13880000Y-34100000D02*
X13880000Y-29020000D01*
X43040000Y-16420000D02*
X56960000Y-16420000D01*
X16320000Y-16420000D02*
X18960000Y-16420000D01*
%TO.N,matrix_pinky_home*%
X34110957Y-45144511D02*
X26926446Y-37960000D01*
X26926446Y-37960000D02*
X25310000Y-37960000D01*
X117262000Y-44020000D02*
X116137489Y-45144511D01*
X116137489Y-45144511D02*
X34110957Y-45144511D01*
X17690000Y-37960000D02*
X25310000Y-37960000D01*
%TO.N,matrix_pinky_top*%
X34139517Y-26173071D02*
X102142771Y-26173071D01*
X17690000Y-18960000D02*
X25310000Y-18960000D01*
X26926446Y-18960000D02*
X34139517Y-26173071D01*
X114322511Y-32444511D02*
X115738000Y-33860000D01*
X108414211Y-32444511D02*
X114322511Y-32444511D01*
X25310000Y-18960000D02*
X26926446Y-18960000D01*
X102142771Y-26173071D02*
X108414211Y-32444511D01*
%TO.N,matrix_ring_home*%
X106975489Y-42604511D02*
X114322511Y-42604511D01*
X44310000Y-37960000D02*
X50146992Y-37960000D01*
X114322511Y-42604511D02*
X115738000Y-44020000D01*
X36690000Y-37960000D02*
X44310000Y-37960000D01*
X50146992Y-37960000D02*
X56881983Y-44694991D01*
X104885009Y-44694991D02*
X106975489Y-42604511D01*
X56881983Y-44694991D02*
X104885009Y-44694991D01*
%TO.N,matrix_ring_top*%
X60374097Y-25723551D02*
X104233251Y-25723551D01*
X44310000Y-18960000D02*
X53613008Y-18960000D01*
X36690000Y-18960000D02*
X44310000Y-18960000D01*
X114322511Y-29904511D02*
X115738000Y-31320000D01*
X104233251Y-25723551D02*
X108414211Y-29904511D01*
X108414211Y-29904511D02*
X114322511Y-29904511D01*
X57060000Y-22409454D02*
X60374097Y-25723551D01*
X57060000Y-22406992D02*
X57060000Y-22409454D01*
X53613008Y-18960000D02*
X57060000Y-22406992D01*
%TO.N,matrix_middle_home*%
X106870978Y-40064511D02*
X114322511Y-40064511D01*
X63310000Y-37960000D02*
X64926446Y-37960000D01*
X71211917Y-44245471D02*
X102690018Y-44245471D01*
X114322511Y-40064511D02*
X115738000Y-41480000D01*
X64926446Y-37960000D02*
X71211917Y-44245471D01*
X55690000Y-37960000D02*
X63310000Y-37960000D01*
X102690018Y-44245471D02*
X106870978Y-40064511D01*
%TO.N,matrix_middle_top*%
X71240477Y-25274031D02*
X106323731Y-25274031D01*
X64926446Y-18960000D02*
X71240477Y-25274031D01*
X106323731Y-25274031D02*
X108414211Y-27364511D01*
X108414211Y-27364511D02*
X114322511Y-27364511D01*
X114322511Y-27364511D02*
X115738000Y-28780000D01*
X55690000Y-18960000D02*
X63310000Y-18960000D01*
X63310000Y-18960000D02*
X64926446Y-18960000D01*
%TO.N,matrix_pointer_home*%
X82773008Y-37960000D02*
X88608959Y-43795951D01*
X74690000Y-37960000D02*
X82310000Y-37960000D01*
X108414211Y-37815489D02*
X114613489Y-37815489D01*
X102503820Y-43795951D02*
X107755489Y-38544282D01*
X107755489Y-38544282D02*
X107755489Y-38474211D01*
X82310000Y-37960000D02*
X82773008Y-37960000D01*
X107755489Y-38474211D02*
X108414211Y-37815489D01*
X88608959Y-43795951D02*
X102503820Y-43795951D01*
X114613489Y-37815489D02*
X115738000Y-38940000D01*
%TO.N,matrix_pointer_top*%
X83926446Y-18960000D02*
X89790957Y-24824511D01*
X114322511Y-24824511D02*
X115738000Y-26240000D01*
X89790957Y-24824511D02*
X114322511Y-24824511D01*
X82310000Y-18960000D02*
X83926446Y-18960000D01*
X74690000Y-18960000D02*
X82310000Y-18960000D01*
%TO.N,matrix_inner_home*%
X114613489Y-35275489D02*
X115738000Y-36400000D01*
X103994511Y-35275489D02*
X114613489Y-35275489D01*
X101310000Y-37960000D02*
X103994511Y-35275489D01*
X93690000Y-37960000D02*
X101310000Y-37960000D01*
%TO.N,matrix_inner_top*%
X93690000Y-18960000D02*
X101310000Y-18960000D01*
X114613489Y-19744511D02*
X115738000Y-18620000D01*
X102094511Y-19744511D02*
X114613489Y-19744511D01*
X101310000Y-18960000D02*
X102094511Y-19744511D01*
%TO.N,VCC*%
X118050000Y-50950000D02*
X121490000Y-50950000D01*
X121490000Y-50950000D02*
X125800480Y-46639520D01*
X125800480Y-22475165D02*
X118486835Y-22475165D01*
X125800480Y-46639520D02*
X125800480Y-22475165D01*
X118486835Y-22475165D02*
X117262000Y-23700000D01*
%TO.N,P21*%
X119711026Y-50500000D02*
X121303604Y-50500000D01*
X115050000Y-50950000D02*
X115604505Y-50950000D01*
X125350960Y-46452644D02*
X125350960Y-25301330D01*
X115604505Y-50950000D02*
X117054505Y-49500000D01*
X118386511Y-25115489D02*
X117262000Y-26240000D01*
X125165119Y-25115489D02*
X118386511Y-25115489D01*
X121303604Y-50500000D02*
X125350960Y-46452644D01*
X125350960Y-25301330D02*
X125165119Y-25115489D01*
X118711026Y-49500000D02*
X119711026Y-50500000D01*
X117054505Y-49500000D02*
X118711026Y-49500000D01*
%TD*%
M02*
