M48
; DRILL file {KiCad (6.0.4)} date Sat Oct  8 16:53:54 2022
; FORMAT={-:-/ absolute / metric / decimal}
; #@! TF.CreationDate,2022-10-08T16:53:54+11:00
; #@! TF.GenerationSoftware,Kicad,Pcbnew,(6.0.4)
; #@! TF.FileFunction,NonPlated,1,2,NPTH
FMAT,2
METRIC
; #@! TA.AperFunction,NonPlated,NPTH,ComponentDrill
T1C1.500
; #@! TA.AperFunction,NonPlated,NPTH,ComponentDrill
T2C1.702
; #@! TA.AperFunction,NonPlated,NPTH,ComponentDrill
T3C3.988
%
G90
G05
T1
X112.65Y-48.65
X119.65Y-48.65
T2
X16.42Y-21.5
X16.42Y-40.5
X26.58Y-21.5
X26.58Y-40.5
X35.42Y-21.5
X35.42Y-40.5
X35.42Y-59.5
X45.58Y-21.5
X45.58Y-40.5
X45.58Y-59.5
X54.42Y-21.5
X54.42Y-40.5
X54.42Y-59.5
X64.58Y-21.5
X64.58Y-40.5
X64.58Y-59.5
X73.42Y-21.5
X73.42Y-40.5
X73.42Y-59.5
X83.58Y-21.5
X83.58Y-40.5
X83.58Y-59.5
X92.42Y-21.5
X92.42Y-40.5
X92.42Y-59.5
X102.58Y-21.5
X102.58Y-40.5
X102.58Y-59.5
X111.42Y-59.5
X121.58Y-59.5
T3
X21.5Y-21.5
X21.5Y-40.5
X40.5Y-21.5
X40.5Y-40.5
X40.5Y-59.5
X59.5Y-21.5
X59.5Y-40.5
X59.5Y-59.5
X78.5Y-21.5
X78.5Y-40.5
X78.5Y-59.5
X97.5Y-21.5
X97.5Y-40.5
X97.5Y-59.5
X116.5Y-59.5
T0
M30
