G04 #@! TF.GenerationSoftware,KiCad,Pcbnew,(6.0.8)*
G04 #@! TF.CreationDate,2023-05-18T22:35:39+10:00*
G04 #@! TF.ProjectId,shingleback,7368696e-676c-4656-9261-636b2e6b6963,rev?*
G04 #@! TF.SameCoordinates,Original*
G04 #@! TF.FileFunction,Soldermask,Top*
G04 #@! TF.FilePolarity,Negative*
%FSLAX46Y46*%
G04 Gerber Fmt 4.6, Leading zero omitted, Abs format (unit mm)*
G04 Created by KiCad (PCBNEW (6.0.8)) date 2023-05-18 22:35:39*
%MOMM*%
%LPD*%
G01*
G04 APERTURE LIST*
%ADD10C,0.150000*%
%ADD11C,0.450000*%
%ADD12C,1.701800*%
%ADD13C,3.987800*%
%ADD14C,2.286000*%
%ADD15R,1.752600X1.752600*%
%ADD16C,1.752600*%
%ADD17R,1.600000X1.600000*%
%ADD18O,1.600000X1.600000*%
%ADD19C,1.500000*%
%ADD20C,2.100000*%
%ADD21R,2.000000X2.000000*%
%ADD22C,2.000000*%
%ADD23R,2.000000X3.200000*%
%ADD24C,1.650000*%
%ADD25C,1.950000*%
%ADD26C,2.400000*%
%ADD27C,4.000000*%
%ADD28C,1.700000*%
%ADD29C,2.200000*%
G04 APERTURE END LIST*
D10*
X151321428Y-109202380D02*
X151321428Y-108202380D01*
X151321428Y-108583333D02*
X151416666Y-108535714D01*
X151607142Y-108535714D01*
X151702380Y-108583333D01*
X151750000Y-108630952D01*
X151797619Y-108726190D01*
X151797619Y-109011904D01*
X151750000Y-109107142D01*
X151702380Y-109154761D01*
X151607142Y-109202380D01*
X151416666Y-109202380D01*
X151321428Y-109154761D01*
X152130952Y-108535714D02*
X152369047Y-109202380D01*
X152607142Y-108535714D02*
X152369047Y-109202380D01*
X152273809Y-109440476D01*
X152226190Y-109488095D01*
X152130952Y-109535714D01*
X154178571Y-108535714D02*
X154178571Y-109345238D01*
X154130952Y-109440476D01*
X154083333Y-109488095D01*
X153988095Y-109535714D01*
X153845238Y-109535714D01*
X153750000Y-109488095D01*
X154178571Y-109154761D02*
X154083333Y-109202380D01*
X153892857Y-109202380D01*
X153797619Y-109154761D01*
X153750000Y-109107142D01*
X153702380Y-109011904D01*
X153702380Y-108726190D01*
X153750000Y-108630952D01*
X153797619Y-108583333D01*
X153892857Y-108535714D01*
X154083333Y-108535714D01*
X154178571Y-108583333D01*
X154654761Y-108535714D02*
X154654761Y-109202380D01*
X154654761Y-108630952D02*
X154702380Y-108583333D01*
X154797619Y-108535714D01*
X154940476Y-108535714D01*
X155035714Y-108583333D01*
X155083333Y-108678571D01*
X155083333Y-109202380D01*
X155988095Y-109202380D02*
X155988095Y-108678571D01*
X155940476Y-108583333D01*
X155845238Y-108535714D01*
X155654761Y-108535714D01*
X155559523Y-108583333D01*
X155988095Y-109154761D02*
X155892857Y-109202380D01*
X155654761Y-109202380D01*
X155559523Y-109154761D01*
X155511904Y-109059523D01*
X155511904Y-108964285D01*
X155559523Y-108869047D01*
X155654761Y-108821428D01*
X155892857Y-108821428D01*
X155988095Y-108773809D01*
X156369047Y-108535714D02*
X156559523Y-109202380D01*
X156750000Y-108726190D01*
X156940476Y-109202380D01*
X157130952Y-108535714D01*
X157511904Y-109202380D02*
X157511904Y-108535714D01*
X157511904Y-108630952D02*
X157559523Y-108583333D01*
X157654761Y-108535714D01*
X157797619Y-108535714D01*
X157892857Y-108583333D01*
X157940476Y-108678571D01*
X157940476Y-109202380D01*
X157940476Y-108678571D02*
X157988095Y-108583333D01*
X158083333Y-108535714D01*
X158226190Y-108535714D01*
X158321428Y-108583333D01*
X158369047Y-108678571D01*
X158369047Y-109202380D01*
X159273809Y-109202380D02*
X159273809Y-108678571D01*
X159226190Y-108583333D01*
X159130952Y-108535714D01*
X158940476Y-108535714D01*
X158845238Y-108583333D01*
X159273809Y-109154761D02*
X159178571Y-109202380D01*
X158940476Y-109202380D01*
X158845238Y-109154761D01*
X158797619Y-109059523D01*
X158797619Y-108964285D01*
X158845238Y-108869047D01*
X158940476Y-108821428D01*
X159178571Y-108821428D01*
X159273809Y-108773809D01*
X159750000Y-108535714D02*
X159750000Y-109202380D01*
X159750000Y-108630952D02*
X159797619Y-108583333D01*
X159892857Y-108535714D01*
X160035714Y-108535714D01*
X160130952Y-108583333D01*
X160178571Y-108678571D01*
X160178571Y-109202380D01*
D11*
X98707500Y-100299285D02*
X98993214Y-100442142D01*
X99564642Y-100442142D01*
X99850357Y-100299285D01*
X99993214Y-100013571D01*
X99993214Y-99870714D01*
X99850357Y-99585000D01*
X99564642Y-99442142D01*
X99136071Y-99442142D01*
X98850357Y-99299285D01*
X98707500Y-99013571D01*
X98707500Y-98870714D01*
X98850357Y-98585000D01*
X99136071Y-98442142D01*
X99564642Y-98442142D01*
X99850357Y-98585000D01*
X101278928Y-100442142D02*
X101278928Y-97442142D01*
X102564642Y-100442142D02*
X102564642Y-98870714D01*
X102421785Y-98585000D01*
X102136071Y-98442142D01*
X101707500Y-98442142D01*
X101421785Y-98585000D01*
X101278928Y-98727857D01*
X103993214Y-100442142D02*
X103993214Y-98442142D01*
X103993214Y-97442142D02*
X103850357Y-97585000D01*
X103993214Y-97727857D01*
X104136071Y-97585000D01*
X103993214Y-97442142D01*
X103993214Y-97727857D01*
X105421785Y-98442142D02*
X105421785Y-100442142D01*
X105421785Y-98727857D02*
X105564642Y-98585000D01*
X105850357Y-98442142D01*
X106278928Y-98442142D01*
X106564642Y-98585000D01*
X106707500Y-98870714D01*
X106707500Y-100442142D01*
X109421785Y-98442142D02*
X109421785Y-100870714D01*
X109278928Y-101156428D01*
X109136071Y-101299285D01*
X108850357Y-101442142D01*
X108421785Y-101442142D01*
X108136071Y-101299285D01*
X109421785Y-100299285D02*
X109136071Y-100442142D01*
X108564642Y-100442142D01*
X108278928Y-100299285D01*
X108136071Y-100156428D01*
X107993214Y-99870714D01*
X107993214Y-99013571D01*
X108136071Y-98727857D01*
X108278928Y-98585000D01*
X108564642Y-98442142D01*
X109136071Y-98442142D01*
X109421785Y-98585000D01*
X111278928Y-100442142D02*
X110993214Y-100299285D01*
X110850357Y-100013571D01*
X110850357Y-97442142D01*
X113564642Y-100299285D02*
X113278928Y-100442142D01*
X112707500Y-100442142D01*
X112421785Y-100299285D01*
X112278928Y-100013571D01*
X112278928Y-98870714D01*
X112421785Y-98585000D01*
X112707500Y-98442142D01*
X113278928Y-98442142D01*
X113564642Y-98585000D01*
X113707500Y-98870714D01*
X113707500Y-99156428D01*
X112278928Y-99442142D01*
X114993214Y-100442142D02*
X114993214Y-97442142D01*
X114993214Y-98585000D02*
X115278928Y-98442142D01*
X115850357Y-98442142D01*
X116136071Y-98585000D01*
X116278928Y-98727857D01*
X116421785Y-99013571D01*
X116421785Y-99870714D01*
X116278928Y-100156428D01*
X116136071Y-100299285D01*
X115850357Y-100442142D01*
X115278928Y-100442142D01*
X114993214Y-100299285D01*
X118993214Y-100442142D02*
X118993214Y-98870714D01*
X118850357Y-98585000D01*
X118564642Y-98442142D01*
X117993214Y-98442142D01*
X117707500Y-98585000D01*
X118993214Y-100299285D02*
X118707500Y-100442142D01*
X117993214Y-100442142D01*
X117707500Y-100299285D01*
X117564642Y-100013571D01*
X117564642Y-99727857D01*
X117707500Y-99442142D01*
X117993214Y-99299285D01*
X118707500Y-99299285D01*
X118993214Y-99156428D01*
X121707500Y-100299285D02*
X121421785Y-100442142D01*
X120850357Y-100442142D01*
X120564642Y-100299285D01*
X120421785Y-100156428D01*
X120278928Y-99870714D01*
X120278928Y-99013571D01*
X120421785Y-98727857D01*
X120564642Y-98585000D01*
X120850357Y-98442142D01*
X121421785Y-98442142D01*
X121707500Y-98585000D01*
X122993214Y-100442142D02*
X122993214Y-97442142D01*
X123278928Y-99299285D02*
X124136071Y-100442142D01*
X124136071Y-98442142D02*
X122993214Y-99585000D01*
X115850357Y-105272142D02*
X115850357Y-103272142D01*
X115850357Y-103843571D02*
X115993214Y-103557857D01*
X116136071Y-103415000D01*
X116421785Y-103272142D01*
X116707500Y-103272142D01*
X118850357Y-105129285D02*
X118564642Y-105272142D01*
X117993214Y-105272142D01*
X117707500Y-105129285D01*
X117564642Y-104843571D01*
X117564642Y-103700714D01*
X117707500Y-103415000D01*
X117993214Y-103272142D01*
X118564642Y-103272142D01*
X118850357Y-103415000D01*
X118993214Y-103700714D01*
X118993214Y-103986428D01*
X117564642Y-104272142D01*
X119993214Y-103272142D02*
X120707500Y-105272142D01*
X121421785Y-103272142D01*
X124136071Y-105272142D02*
X122421785Y-105272142D01*
X123278928Y-105272142D02*
X123278928Y-102272142D01*
X122993214Y-102700714D01*
X122707500Y-102986428D01*
X122421785Y-103129285D01*
D12*
X164120000Y-62080000D03*
X153960000Y-62080000D03*
D13*
X159040000Y-62080000D03*
D14*
X156500000Y-57000000D03*
X161580000Y-57000000D03*
X162850000Y-59540000D03*
X155230000Y-59540000D03*
D12*
X126120000Y-33830000D03*
X115960000Y-33830000D03*
D13*
X121040000Y-33830000D03*
D14*
X118500000Y-28750000D03*
X123580000Y-28750000D03*
X117230000Y-31290000D03*
X124850000Y-31290000D03*
D12*
X96960000Y-43080000D03*
D13*
X102040000Y-43080000D03*
D12*
X107120000Y-43080000D03*
D14*
X104580000Y-38000000D03*
X99500000Y-38000000D03*
X98230000Y-40540000D03*
X105850000Y-40540000D03*
D15*
X171000000Y-33560000D03*
D16*
X171000000Y-36100000D03*
X171000000Y-38640000D03*
X171000000Y-41180000D03*
X171000000Y-43720000D03*
X171000000Y-46260000D03*
X171000000Y-48800000D03*
X171000000Y-51340000D03*
X171000000Y-53880000D03*
X171000000Y-56420000D03*
X171000000Y-58960000D03*
X171000000Y-61500000D03*
X186240000Y-33560000D03*
X186240000Y-36100000D03*
X186240000Y-38640000D03*
X186240000Y-41180000D03*
X186240000Y-43720000D03*
X186240000Y-46260000D03*
X186240000Y-48800000D03*
X186240000Y-51340000D03*
X186240000Y-53880000D03*
X186240000Y-56420000D03*
X186240000Y-58960000D03*
X186240000Y-61500000D03*
D17*
X131750000Y-105000000D03*
D18*
X131750000Y-97380000D03*
D13*
X140040000Y-43080000D03*
D12*
X134960000Y-43080000D03*
X145120000Y-43080000D03*
D14*
X137500000Y-38000000D03*
X142580000Y-38000000D03*
X143850000Y-40540000D03*
X136230000Y-40540000D03*
D18*
X125000000Y-83500000D03*
D12*
X164170000Y-100069717D03*
D13*
X159090000Y-100069717D03*
D12*
X154010000Y-100069717D03*
D14*
X161630000Y-94989717D03*
X156550000Y-94989717D03*
X162900000Y-97529717D03*
X155280000Y-97529717D03*
D17*
X150750000Y-48000000D03*
D18*
X150750000Y-40380000D03*
X162249999Y-30723758D03*
X118500000Y-88000000D03*
X124999999Y-87997945D03*
D17*
X110200000Y-67000000D03*
D18*
X110200000Y-59380000D03*
D13*
X83040000Y-81080000D03*
D12*
X77960000Y-81080000D03*
X88120000Y-81080000D03*
D14*
X80500000Y-76000000D03*
X85580000Y-76000000D03*
X86850000Y-78540000D03*
X79230000Y-78540000D03*
D12*
X107120000Y-62080000D03*
X96960000Y-62080000D03*
D13*
X102040000Y-62080000D03*
D14*
X99500000Y-57000000D03*
X104580000Y-57000000D03*
X105850000Y-59540000D03*
X98230000Y-59540000D03*
D12*
X153960000Y-43080000D03*
D13*
X159040000Y-43080000D03*
D12*
X164120000Y-43080000D03*
D14*
X156500000Y-38000000D03*
X161580000Y-38000000D03*
X162850000Y-40540000D03*
X155230000Y-40540000D03*
D12*
X77960000Y-100080000D03*
D13*
X83040000Y-100080000D03*
D12*
X88120000Y-100080000D03*
D14*
X80500000Y-95000000D03*
X85580000Y-95000000D03*
X86850000Y-97540000D03*
X79230000Y-97540000D03*
D17*
X129200000Y-76750000D03*
D18*
X129200000Y-69130000D03*
D19*
X176500000Y-69000000D03*
X179000000Y-72000000D03*
X179000000Y-70000000D03*
X176500000Y-71000000D03*
X179000000Y-74000000D03*
X176500000Y-73000000D03*
D20*
X181500000Y-63000000D03*
X181500000Y-78000000D03*
D19*
X176500000Y-67000000D03*
X179000000Y-68000000D03*
D18*
X155750000Y-30725813D03*
D17*
X91200000Y-86000000D03*
D18*
X91200000Y-78380000D03*
D17*
X91200000Y-105000000D03*
D18*
X91200000Y-97380000D03*
D17*
X112750000Y-38750000D03*
D18*
X112750000Y-31130000D03*
D12*
X134960000Y-62080000D03*
D13*
X140040000Y-62080000D03*
D12*
X145120000Y-62080000D03*
D14*
X137500000Y-57000000D03*
X142580000Y-57000000D03*
X143850000Y-59540000D03*
X136230000Y-59540000D03*
D17*
X110200000Y-86000000D03*
D18*
X110200000Y-78380000D03*
D17*
X148200000Y-86000000D03*
D18*
X148200000Y-78380000D03*
D12*
X126120000Y-71830000D03*
X115960000Y-71830000D03*
D13*
X121040000Y-71830000D03*
D14*
X123580000Y-66750000D03*
X118500000Y-66750000D03*
X117230000Y-69290000D03*
X124850000Y-69290000D03*
D21*
X161540000Y-73750000D03*
D22*
X156540000Y-73750000D03*
X159040000Y-73750000D03*
D23*
X153440000Y-81250000D03*
X164640000Y-81250000D03*
D22*
X156540000Y-88250000D03*
X161540000Y-88250000D03*
D12*
X134960000Y-81080000D03*
X145120000Y-81080000D03*
D13*
X140040000Y-81080000D03*
D14*
X137500000Y-76000000D03*
X142580000Y-76000000D03*
X136230000Y-78540000D03*
X143850000Y-78540000D03*
D18*
X118500000Y-83494874D03*
D17*
X150750000Y-67000000D03*
D18*
X150750000Y-59380000D03*
D17*
X93750000Y-48000000D03*
D18*
X93750000Y-40380000D03*
D17*
X164500000Y-108250000D03*
D18*
X172120000Y-108250000D03*
D17*
X150800000Y-104989717D03*
D18*
X150800000Y-97369717D03*
D13*
X102040000Y-81080000D03*
D12*
X107120000Y-81080000D03*
X96960000Y-81080000D03*
D14*
X99500000Y-76000000D03*
X104580000Y-76000000D03*
X98230000Y-78540000D03*
X105850000Y-78540000D03*
D13*
X121040000Y-52830000D03*
D12*
X126120000Y-52830000D03*
X115960000Y-52830000D03*
D14*
X118500000Y-47750000D03*
X123580000Y-47750000D03*
X124850000Y-50290000D03*
X117230000Y-50290000D03*
D17*
X129200000Y-57750000D03*
D18*
X129200000Y-50130000D03*
X155750000Y-26220687D03*
D24*
X178623410Y-103800000D03*
X178623410Y-95200000D03*
D25*
X172873410Y-96250000D03*
X172873410Y-102750000D03*
D24*
X187353410Y-97000000D03*
X181123410Y-108230000D03*
D26*
X183623410Y-105825000D03*
X173623410Y-93175000D03*
X173623410Y-105825000D03*
X183623410Y-93175000D03*
D25*
X168373410Y-96250000D03*
X168373410Y-102750000D03*
D24*
X187353410Y-102000000D03*
X176123410Y-108230000D03*
X178623410Y-108230000D03*
X187353410Y-99500000D03*
D12*
X134960000Y-100080000D03*
X145120000Y-100080000D03*
D13*
X140040000Y-100080000D03*
D14*
X137500000Y-95000000D03*
X142580000Y-95000000D03*
X136230000Y-97540000D03*
X143850000Y-97540000D03*
D17*
X131750000Y-48000000D03*
D18*
X131750000Y-40380000D03*
X162250000Y-26225813D03*
D17*
X148200000Y-67000000D03*
D18*
X148200000Y-59380000D03*
D19*
X179000000Y-80250000D03*
X179000000Y-82250000D03*
X176500000Y-81250000D03*
X176500000Y-83250000D03*
D20*
X181500000Y-72250000D03*
D19*
X176500000Y-77250000D03*
X179000000Y-78250000D03*
X176500000Y-79250000D03*
X179000000Y-76250000D03*
D20*
X181500000Y-87250000D03*
D27*
X178623410Y-99980000D03*
D28*
X173543410Y-99980000D03*
X183703410Y-99980000D03*
D29*
X176083410Y-94900000D03*
X182433410Y-97440000D03*
M02*
