%TF.GenerationSoftware,KiCad,Pcbnew,(6.0.8)*%
%TF.CreationDate,2023-05-18T22:36:22+10:00*%
%TF.ProjectId,shingleback,7368696e-676c-4656-9261-636b2e6b6963,rev?*%
%TF.SameCoordinates,Original*%
%TF.FileFunction,Drillmap*%
%TF.FilePolarity,Positive*%
%FSLAX45Y45*%
G04 Gerber Fmt 4.5, Leading zero omitted, Abs format (unit mm)*
G04 Created by KiCad (PCBNEW (6.0.8)) date 2023-05-18 22:36:22*
%MOMM*%
%LPD*%
G01*
G04 APERTURE LIST*
%ADD10C,0.100000*%
%ADD11C,0.200000*%
%ADD12C,0.165000*%
%ADD13C,0.170000*%
%ADD14C,0.170180*%
%ADD15C,0.398780*%
%ADD16C,0.400000*%
G04 APERTURE END LIST*
D10*
X17975000Y-11050000D02*
G75*
G03*
X19025000Y-10000000I0J1050000D01*
G01*
X7250000Y-11050000D02*
X17975000Y-11050000D01*
X19025000Y-2425000D02*
X11150000Y-2425000D01*
X7250000Y-6325000D02*
X7250000Y-11050000D01*
X19025000Y-10000000D02*
X19025000Y-2425000D01*
X11150000Y-2425000D02*
G75*
G03*
X7250000Y-6325000I0J-3900000D01*
G01*
D11*
D12*
X17779841Y-9437500D02*
X17944841Y-9602500D01*
X17944841Y-9437500D02*
X17779841Y-9602500D01*
X17779841Y-10297500D02*
X17944841Y-10462500D01*
X17944841Y-10297500D02*
X17779841Y-10462500D01*
D13*
X17439341Y-9998000D02*
G75*
G03*
X17439341Y-9998000I-85000J0D01*
G01*
X18455341Y-9998000D02*
G75*
G03*
X18455341Y-9998000I-85000J0D01*
G01*
D14*
X7796000Y-8022910D02*
X7796000Y-8193090D01*
X7710910Y-8108000D02*
X7881090Y-8108000D01*
X7796000Y-9922910D02*
X7796000Y-10093090D01*
X7710910Y-10008000D02*
X7881090Y-10008000D01*
X8812000Y-8022910D02*
X8812000Y-8193090D01*
X8726910Y-8108000D02*
X8897090Y-8108000D01*
X8812000Y-9922910D02*
X8812000Y-10093090D01*
X8726910Y-10008000D02*
X8897090Y-10008000D01*
X9696000Y-4222910D02*
X9696000Y-4393090D01*
X9610910Y-4308000D02*
X9781090Y-4308000D01*
X9696000Y-6122910D02*
X9696000Y-6293090D01*
X9610910Y-6208000D02*
X9781090Y-6208000D01*
X9696000Y-8022910D02*
X9696000Y-8193090D01*
X9610910Y-8108000D02*
X9781090Y-8108000D01*
X10712000Y-4222910D02*
X10712000Y-4393090D01*
X10626910Y-4308000D02*
X10797090Y-4308000D01*
X10712000Y-6122910D02*
X10712000Y-6293090D01*
X10626910Y-6208000D02*
X10797090Y-6208000D01*
X10712000Y-8022910D02*
X10712000Y-8193090D01*
X10626910Y-8108000D02*
X10797090Y-8108000D01*
X11596000Y-3297910D02*
X11596000Y-3468090D01*
X11510910Y-3383000D02*
X11681090Y-3383000D01*
X11596000Y-5197910D02*
X11596000Y-5368090D01*
X11510910Y-5283000D02*
X11681090Y-5283000D01*
X11596000Y-7097910D02*
X11596000Y-7268090D01*
X11510910Y-7183000D02*
X11681090Y-7183000D01*
X12612000Y-3297910D02*
X12612000Y-3468090D01*
X12526910Y-3383000D02*
X12697090Y-3383000D01*
X12612000Y-5197910D02*
X12612000Y-5368090D01*
X12526910Y-5283000D02*
X12697090Y-5283000D01*
X12612000Y-7097910D02*
X12612000Y-7268090D01*
X12526910Y-7183000D02*
X12697090Y-7183000D01*
X13496000Y-4222910D02*
X13496000Y-4393090D01*
X13410910Y-4308000D02*
X13581090Y-4308000D01*
X13496000Y-6122910D02*
X13496000Y-6293090D01*
X13410910Y-6208000D02*
X13581090Y-6208000D01*
X13496000Y-8022910D02*
X13496000Y-8193090D01*
X13410910Y-8108000D02*
X13581090Y-8108000D01*
X13496000Y-9922910D02*
X13496000Y-10093090D01*
X13410910Y-10008000D02*
X13581090Y-10008000D01*
X14512000Y-4222910D02*
X14512000Y-4393090D01*
X14426910Y-4308000D02*
X14597090Y-4308000D01*
X14512000Y-6122910D02*
X14512000Y-6293090D01*
X14426910Y-6208000D02*
X14597090Y-6208000D01*
X14512000Y-8022910D02*
X14512000Y-8193090D01*
X14426910Y-8108000D02*
X14597090Y-8108000D01*
X14512000Y-9922910D02*
X14512000Y-10093090D01*
X14426910Y-10008000D02*
X14597090Y-10008000D01*
X15396000Y-4222910D02*
X15396000Y-4393090D01*
X15310910Y-4308000D02*
X15481090Y-4308000D01*
X15396000Y-6122910D02*
X15396000Y-6293090D01*
X15310910Y-6208000D02*
X15481090Y-6208000D01*
X15401000Y-9921882D02*
X15401000Y-10092062D01*
X15315910Y-10006972D02*
X15486090Y-10006972D01*
X16412000Y-4222910D02*
X16412000Y-4393090D01*
X16326910Y-4308000D02*
X16497090Y-4308000D01*
X16412000Y-6122910D02*
X16412000Y-6293090D01*
X16326910Y-6208000D02*
X16497090Y-6208000D01*
X16417000Y-9921882D02*
X16417000Y-10092062D01*
X16331910Y-10006972D02*
X16502090Y-10006972D01*
D11*
X18220711Y-6370711D02*
X18220711Y-6229289D01*
X18079289Y-6229289D01*
X18079289Y-6370711D01*
X18220711Y-6370711D01*
X18220711Y-7295711D02*
X18220711Y-7154289D01*
X18079289Y-7154289D01*
X18079289Y-7295711D01*
X18220711Y-7295711D01*
X18220711Y-7870711D02*
X18220711Y-7729289D01*
X18079289Y-7729289D01*
X18079289Y-7870711D01*
X18220711Y-7870711D01*
X18220711Y-8795711D02*
X18220711Y-8654289D01*
X18079289Y-8654289D01*
X18079289Y-8795711D01*
X18220711Y-8795711D01*
D15*
X8304000Y-8307390D02*
X8503390Y-8108000D01*
X8304000Y-7908610D01*
X8104610Y-8108000D01*
X8304000Y-8307390D01*
X8304000Y-10207390D02*
X8503390Y-10008000D01*
X8304000Y-9808610D01*
X8104610Y-10008000D01*
X8304000Y-10207390D01*
X10204000Y-4507390D02*
X10403390Y-4308000D01*
X10204000Y-4108610D01*
X10004610Y-4308000D01*
X10204000Y-4507390D01*
X10204000Y-6407390D02*
X10403390Y-6208000D01*
X10204000Y-6008610D01*
X10004610Y-6208000D01*
X10204000Y-6407390D01*
X10204000Y-8307390D02*
X10403390Y-8108000D01*
X10204000Y-7908610D01*
X10004610Y-8108000D01*
X10204000Y-8307390D01*
X12104000Y-3582390D02*
X12303390Y-3383000D01*
X12104000Y-3183610D01*
X11904610Y-3383000D01*
X12104000Y-3582390D01*
X12104000Y-5482390D02*
X12303390Y-5283000D01*
X12104000Y-5083610D01*
X11904610Y-5283000D01*
X12104000Y-5482390D01*
X12104000Y-7382390D02*
X12303390Y-7183000D01*
X12104000Y-6983610D01*
X11904610Y-7183000D01*
X12104000Y-7382390D01*
X14004000Y-4507390D02*
X14203390Y-4308000D01*
X14004000Y-4108610D01*
X13804610Y-4308000D01*
X14004000Y-4507390D01*
X14004000Y-6407390D02*
X14203390Y-6208000D01*
X14004000Y-6008610D01*
X13804610Y-6208000D01*
X14004000Y-6407390D01*
X14004000Y-8307390D02*
X14203390Y-8108000D01*
X14004000Y-7908610D01*
X13804610Y-8108000D01*
X14004000Y-8307390D01*
X14004000Y-10207390D02*
X14203390Y-10008000D01*
X14004000Y-9808610D01*
X13804610Y-10008000D01*
X14004000Y-10207390D01*
X15904000Y-4507390D02*
X16103390Y-4308000D01*
X15904000Y-4108610D01*
X15704610Y-4308000D01*
X15904000Y-4507390D01*
X15904000Y-6407390D02*
X16103390Y-6208000D01*
X15904000Y-6008610D01*
X15704610Y-6208000D01*
X15904000Y-6407390D01*
X15909000Y-10206362D02*
X16108390Y-10006972D01*
X15909000Y-9807582D01*
X15709610Y-10006972D01*
X15909000Y-10206362D01*
D16*
X17662341Y-9798000D02*
X18062341Y-10198000D01*
X18062341Y-9798000D02*
X17662341Y-10198000D01*
X18062341Y-9998000D02*
G75*
G03*
X18062341Y-9998000I-200000J0D01*
G01*
D11*
X7502619Y-11365476D02*
X7502619Y-11165476D01*
X7550238Y-11165476D01*
X7578809Y-11175000D01*
X7597857Y-11194048D01*
X7607381Y-11213095D01*
X7616905Y-11251190D01*
X7616905Y-11279762D01*
X7607381Y-11317857D01*
X7597857Y-11336905D01*
X7578809Y-11355952D01*
X7550238Y-11365476D01*
X7502619Y-11365476D01*
X7702619Y-11365476D02*
X7702619Y-11232143D01*
X7702619Y-11270238D02*
X7712143Y-11251190D01*
X7721667Y-11241667D01*
X7740714Y-11232143D01*
X7759762Y-11232143D01*
X7826428Y-11365476D02*
X7826428Y-11232143D01*
X7826428Y-11165476D02*
X7816905Y-11175000D01*
X7826428Y-11184524D01*
X7835952Y-11175000D01*
X7826428Y-11165476D01*
X7826428Y-11184524D01*
X7950238Y-11365476D02*
X7931190Y-11355952D01*
X7921667Y-11336905D01*
X7921667Y-11165476D01*
X8055000Y-11365476D02*
X8035952Y-11355952D01*
X8026428Y-11336905D01*
X8026428Y-11165476D01*
X8283571Y-11365476D02*
X8283571Y-11165476D01*
X8350238Y-11308333D01*
X8416905Y-11165476D01*
X8416905Y-11365476D01*
X8597857Y-11365476D02*
X8597857Y-11260714D01*
X8588333Y-11241667D01*
X8569286Y-11232143D01*
X8531190Y-11232143D01*
X8512143Y-11241667D01*
X8597857Y-11355952D02*
X8578810Y-11365476D01*
X8531190Y-11365476D01*
X8512143Y-11355952D01*
X8502619Y-11336905D01*
X8502619Y-11317857D01*
X8512143Y-11298809D01*
X8531190Y-11289286D01*
X8578810Y-11289286D01*
X8597857Y-11279762D01*
X8693095Y-11232143D02*
X8693095Y-11432143D01*
X8693095Y-11241667D02*
X8712143Y-11232143D01*
X8750238Y-11232143D01*
X8769286Y-11241667D01*
X8778810Y-11251190D01*
X8788333Y-11270238D01*
X8788333Y-11327381D01*
X8778810Y-11346428D01*
X8769286Y-11355952D01*
X8750238Y-11365476D01*
X8712143Y-11365476D01*
X8693095Y-11355952D01*
X8874048Y-11346428D02*
X8883571Y-11355952D01*
X8874048Y-11365476D01*
X8864524Y-11355952D01*
X8874048Y-11346428D01*
X8874048Y-11365476D01*
X8874048Y-11241667D02*
X8883571Y-11251190D01*
X8874048Y-11260714D01*
X8864524Y-11251190D01*
X8874048Y-11241667D01*
X8874048Y-11260714D01*
D12*
X7080000Y-11612500D02*
X7245000Y-11777500D01*
X7245000Y-11612500D02*
X7080000Y-11777500D01*
D11*
X7607381Y-11785476D02*
X7493095Y-11785476D01*
X7550238Y-11785476D02*
X7550238Y-11585476D01*
X7531190Y-11614048D01*
X7512143Y-11633095D01*
X7493095Y-11642619D01*
X7693095Y-11766428D02*
X7702619Y-11775952D01*
X7693095Y-11785476D01*
X7683571Y-11775952D01*
X7693095Y-11766428D01*
X7693095Y-11785476D01*
X7874048Y-11585476D02*
X7835952Y-11585476D01*
X7816905Y-11595000D01*
X7807381Y-11604524D01*
X7788333Y-11633095D01*
X7778809Y-11671190D01*
X7778809Y-11747381D01*
X7788333Y-11766428D01*
X7797857Y-11775952D01*
X7816905Y-11785476D01*
X7855000Y-11785476D01*
X7874048Y-11775952D01*
X7883571Y-11766428D01*
X7893095Y-11747381D01*
X7893095Y-11699762D01*
X7883571Y-11680714D01*
X7874048Y-11671190D01*
X7855000Y-11661667D01*
X7816905Y-11661667D01*
X7797857Y-11671190D01*
X7788333Y-11680714D01*
X7778809Y-11699762D01*
X8074048Y-11585476D02*
X7978809Y-11585476D01*
X7969286Y-11680714D01*
X7978809Y-11671190D01*
X7997857Y-11661667D01*
X8045476Y-11661667D01*
X8064524Y-11671190D01*
X8074048Y-11680714D01*
X8083571Y-11699762D01*
X8083571Y-11747381D01*
X8074048Y-11766428D01*
X8064524Y-11775952D01*
X8045476Y-11785476D01*
X7997857Y-11785476D01*
X7978809Y-11775952D01*
X7969286Y-11766428D01*
X8207381Y-11585476D02*
X8226428Y-11585476D01*
X8245476Y-11595000D01*
X8255000Y-11604524D01*
X8264524Y-11623571D01*
X8274048Y-11661667D01*
X8274048Y-11709286D01*
X8264524Y-11747381D01*
X8255000Y-11766428D01*
X8245476Y-11775952D01*
X8226428Y-11785476D01*
X8207381Y-11785476D01*
X8188333Y-11775952D01*
X8178809Y-11766428D01*
X8169286Y-11747381D01*
X8159762Y-11709286D01*
X8159762Y-11661667D01*
X8169286Y-11623571D01*
X8178809Y-11604524D01*
X8188333Y-11595000D01*
X8207381Y-11585476D01*
X8359762Y-11785476D02*
X8359762Y-11652143D01*
X8359762Y-11671190D02*
X8369286Y-11661667D01*
X8388333Y-11652143D01*
X8416905Y-11652143D01*
X8435952Y-11661667D01*
X8445476Y-11680714D01*
X8445476Y-11785476D01*
X8445476Y-11680714D02*
X8455000Y-11661667D01*
X8474048Y-11652143D01*
X8502619Y-11652143D01*
X8521667Y-11661667D01*
X8531190Y-11680714D01*
X8531190Y-11785476D01*
X8626429Y-11785476D02*
X8626429Y-11652143D01*
X8626429Y-11671190D02*
X8635952Y-11661667D01*
X8655000Y-11652143D01*
X8683571Y-11652143D01*
X8702619Y-11661667D01*
X8712143Y-11680714D01*
X8712143Y-11785476D01*
X8712143Y-11680714D02*
X8721667Y-11661667D01*
X8740714Y-11652143D01*
X8769286Y-11652143D01*
X8788333Y-11661667D01*
X8797857Y-11680714D01*
X8797857Y-11785476D01*
X9188333Y-11575952D02*
X9016905Y-11833095D01*
X9445476Y-11585476D02*
X9464524Y-11585476D01*
X9483571Y-11595000D01*
X9493095Y-11604524D01*
X9502619Y-11623571D01*
X9512143Y-11661667D01*
X9512143Y-11709286D01*
X9502619Y-11747381D01*
X9493095Y-11766428D01*
X9483571Y-11775952D01*
X9464524Y-11785476D01*
X9445476Y-11785476D01*
X9426429Y-11775952D01*
X9416905Y-11766428D01*
X9407381Y-11747381D01*
X9397857Y-11709286D01*
X9397857Y-11661667D01*
X9407381Y-11623571D01*
X9416905Y-11604524D01*
X9426429Y-11595000D01*
X9445476Y-11585476D01*
X9597857Y-11766428D02*
X9607381Y-11775952D01*
X9597857Y-11785476D01*
X9588333Y-11775952D01*
X9597857Y-11766428D01*
X9597857Y-11785476D01*
X9731190Y-11585476D02*
X9750238Y-11585476D01*
X9769286Y-11595000D01*
X9778810Y-11604524D01*
X9788333Y-11623571D01*
X9797857Y-11661667D01*
X9797857Y-11709286D01*
X9788333Y-11747381D01*
X9778810Y-11766428D01*
X9769286Y-11775952D01*
X9750238Y-11785476D01*
X9731190Y-11785476D01*
X9712143Y-11775952D01*
X9702619Y-11766428D01*
X9693095Y-11747381D01*
X9683571Y-11709286D01*
X9683571Y-11661667D01*
X9693095Y-11623571D01*
X9702619Y-11604524D01*
X9712143Y-11595000D01*
X9731190Y-11585476D01*
X9969286Y-11585476D02*
X9931190Y-11585476D01*
X9912143Y-11595000D01*
X9902619Y-11604524D01*
X9883571Y-11633095D01*
X9874048Y-11671190D01*
X9874048Y-11747381D01*
X9883571Y-11766428D01*
X9893095Y-11775952D01*
X9912143Y-11785476D01*
X9950238Y-11785476D01*
X9969286Y-11775952D01*
X9978810Y-11766428D01*
X9988333Y-11747381D01*
X9988333Y-11699762D01*
X9978810Y-11680714D01*
X9969286Y-11671190D01*
X9950238Y-11661667D01*
X9912143Y-11661667D01*
X9893095Y-11671190D01*
X9883571Y-11680714D01*
X9874048Y-11699762D01*
X10169286Y-11585476D02*
X10074048Y-11585476D01*
X10064524Y-11680714D01*
X10074048Y-11671190D01*
X10093095Y-11661667D01*
X10140714Y-11661667D01*
X10159762Y-11671190D01*
X10169286Y-11680714D01*
X10178810Y-11699762D01*
X10178810Y-11747381D01*
X10169286Y-11766428D01*
X10159762Y-11775952D01*
X10140714Y-11785476D01*
X10093095Y-11785476D01*
X10074048Y-11775952D01*
X10064524Y-11766428D01*
X10302619Y-11585476D02*
X10321667Y-11585476D01*
X10340714Y-11595000D01*
X10350238Y-11604524D01*
X10359762Y-11623571D01*
X10369286Y-11661667D01*
X10369286Y-11709286D01*
X10359762Y-11747381D01*
X10350238Y-11766428D01*
X10340714Y-11775952D01*
X10321667Y-11785476D01*
X10302619Y-11785476D01*
X10283571Y-11775952D01*
X10274048Y-11766428D01*
X10264524Y-11747381D01*
X10255000Y-11709286D01*
X10255000Y-11661667D01*
X10264524Y-11623571D01*
X10274048Y-11604524D01*
X10283571Y-11595000D01*
X10302619Y-11585476D01*
X10445476Y-11585476D02*
X10445476Y-11623571D01*
X10521667Y-11585476D02*
X10521667Y-11623571D01*
X10816905Y-11861667D02*
X10807381Y-11852143D01*
X10788333Y-11823571D01*
X10778810Y-11804524D01*
X10769286Y-11775952D01*
X10759762Y-11728333D01*
X10759762Y-11690238D01*
X10769286Y-11642619D01*
X10778810Y-11614048D01*
X10788333Y-11595000D01*
X10807381Y-11566428D01*
X10816905Y-11556905D01*
X10883571Y-11604524D02*
X10893095Y-11595000D01*
X10912143Y-11585476D01*
X10959762Y-11585476D01*
X10978810Y-11595000D01*
X10988333Y-11604524D01*
X10997857Y-11623571D01*
X10997857Y-11642619D01*
X10988333Y-11671190D01*
X10874048Y-11785476D01*
X10997857Y-11785476D01*
X11235952Y-11785476D02*
X11235952Y-11585476D01*
X11321667Y-11785476D02*
X11321667Y-11680714D01*
X11312143Y-11661667D01*
X11293095Y-11652143D01*
X11264524Y-11652143D01*
X11245476Y-11661667D01*
X11235952Y-11671190D01*
X11445476Y-11785476D02*
X11426428Y-11775952D01*
X11416905Y-11766428D01*
X11407381Y-11747381D01*
X11407381Y-11690238D01*
X11416905Y-11671190D01*
X11426428Y-11661667D01*
X11445476Y-11652143D01*
X11474048Y-11652143D01*
X11493095Y-11661667D01*
X11502619Y-11671190D01*
X11512143Y-11690238D01*
X11512143Y-11747381D01*
X11502619Y-11766428D01*
X11493095Y-11775952D01*
X11474048Y-11785476D01*
X11445476Y-11785476D01*
X11626428Y-11785476D02*
X11607381Y-11775952D01*
X11597857Y-11756905D01*
X11597857Y-11585476D01*
X11778809Y-11775952D02*
X11759762Y-11785476D01*
X11721667Y-11785476D01*
X11702619Y-11775952D01*
X11693095Y-11756905D01*
X11693095Y-11680714D01*
X11702619Y-11661667D01*
X11721667Y-11652143D01*
X11759762Y-11652143D01*
X11778809Y-11661667D01*
X11788333Y-11680714D01*
X11788333Y-11699762D01*
X11693095Y-11718809D01*
X11864524Y-11775952D02*
X11883571Y-11785476D01*
X11921667Y-11785476D01*
X11940714Y-11775952D01*
X11950238Y-11756905D01*
X11950238Y-11747381D01*
X11940714Y-11728333D01*
X11921667Y-11718809D01*
X11893095Y-11718809D01*
X11874048Y-11709286D01*
X11864524Y-11690238D01*
X11864524Y-11680714D01*
X11874048Y-11661667D01*
X11893095Y-11652143D01*
X11921667Y-11652143D01*
X11940714Y-11661667D01*
X12016905Y-11861667D02*
X12026428Y-11852143D01*
X12045476Y-11823571D01*
X12055000Y-11804524D01*
X12064524Y-11775952D01*
X12074048Y-11728333D01*
X12074048Y-11690238D01*
X12064524Y-11642619D01*
X12055000Y-11614048D01*
X12045476Y-11595000D01*
X12026428Y-11566428D01*
X12016905Y-11556905D01*
X12378809Y-11861667D02*
X12369286Y-11852143D01*
X12350238Y-11823571D01*
X12340714Y-11804524D01*
X12331190Y-11775952D01*
X12321667Y-11728333D01*
X12321667Y-11690238D01*
X12331190Y-11642619D01*
X12340714Y-11614048D01*
X12350238Y-11595000D01*
X12369286Y-11566428D01*
X12378809Y-11556905D01*
X12455000Y-11652143D02*
X12455000Y-11785476D01*
X12455000Y-11671190D02*
X12464524Y-11661667D01*
X12483571Y-11652143D01*
X12512143Y-11652143D01*
X12531190Y-11661667D01*
X12540714Y-11680714D01*
X12540714Y-11785476D01*
X12664524Y-11785476D02*
X12645476Y-11775952D01*
X12635952Y-11766428D01*
X12626428Y-11747381D01*
X12626428Y-11690238D01*
X12635952Y-11671190D01*
X12645476Y-11661667D01*
X12664524Y-11652143D01*
X12693095Y-11652143D01*
X12712143Y-11661667D01*
X12721667Y-11671190D01*
X12731190Y-11690238D01*
X12731190Y-11747381D01*
X12721667Y-11766428D01*
X12712143Y-11775952D01*
X12693095Y-11785476D01*
X12664524Y-11785476D01*
X12788333Y-11652143D02*
X12864524Y-11652143D01*
X12816905Y-11585476D02*
X12816905Y-11756905D01*
X12826428Y-11775952D01*
X12845476Y-11785476D01*
X12864524Y-11785476D01*
X13083571Y-11652143D02*
X13083571Y-11852143D01*
X13083571Y-11661667D02*
X13102619Y-11652143D01*
X13140714Y-11652143D01*
X13159762Y-11661667D01*
X13169286Y-11671190D01*
X13178809Y-11690238D01*
X13178809Y-11747381D01*
X13169286Y-11766428D01*
X13159762Y-11775952D01*
X13140714Y-11785476D01*
X13102619Y-11785476D01*
X13083571Y-11775952D01*
X13293095Y-11785476D02*
X13274048Y-11775952D01*
X13264524Y-11756905D01*
X13264524Y-11585476D01*
X13455000Y-11785476D02*
X13455000Y-11680714D01*
X13445476Y-11661667D01*
X13426428Y-11652143D01*
X13388333Y-11652143D01*
X13369286Y-11661667D01*
X13455000Y-11775952D02*
X13435952Y-11785476D01*
X13388333Y-11785476D01*
X13369286Y-11775952D01*
X13359762Y-11756905D01*
X13359762Y-11737857D01*
X13369286Y-11718809D01*
X13388333Y-11709286D01*
X13435952Y-11709286D01*
X13455000Y-11699762D01*
X13521667Y-11652143D02*
X13597857Y-11652143D01*
X13550238Y-11585476D02*
X13550238Y-11756905D01*
X13559762Y-11775952D01*
X13578809Y-11785476D01*
X13597857Y-11785476D01*
X13740714Y-11775952D02*
X13721667Y-11785476D01*
X13683571Y-11785476D01*
X13664524Y-11775952D01*
X13655000Y-11756905D01*
X13655000Y-11680714D01*
X13664524Y-11661667D01*
X13683571Y-11652143D01*
X13721667Y-11652143D01*
X13740714Y-11661667D01*
X13750238Y-11680714D01*
X13750238Y-11699762D01*
X13655000Y-11718809D01*
X13921667Y-11785476D02*
X13921667Y-11585476D01*
X13921667Y-11775952D02*
X13902619Y-11785476D01*
X13864524Y-11785476D01*
X13845476Y-11775952D01*
X13835952Y-11766428D01*
X13826428Y-11747381D01*
X13826428Y-11690238D01*
X13835952Y-11671190D01*
X13845476Y-11661667D01*
X13864524Y-11652143D01*
X13902619Y-11652143D01*
X13921667Y-11661667D01*
X13997857Y-11861667D02*
X14007381Y-11852143D01*
X14026428Y-11823571D01*
X14035952Y-11804524D01*
X14045476Y-11775952D01*
X14055000Y-11728333D01*
X14055000Y-11690238D01*
X14045476Y-11642619D01*
X14035952Y-11614048D01*
X14026428Y-11595000D01*
X14007381Y-11566428D01*
X13997857Y-11556905D01*
D13*
X7245000Y-11980000D02*
G75*
G03*
X7245000Y-11980000I-85000J0D01*
G01*
D11*
X7607381Y-12070476D02*
X7493095Y-12070476D01*
X7550238Y-12070476D02*
X7550238Y-11870476D01*
X7531190Y-11899048D01*
X7512143Y-11918095D01*
X7493095Y-11927619D01*
X7693095Y-12051428D02*
X7702619Y-12060952D01*
X7693095Y-12070476D01*
X7683571Y-12060952D01*
X7693095Y-12051428D01*
X7693095Y-12070476D01*
X7769286Y-11870476D02*
X7902619Y-11870476D01*
X7816905Y-12070476D01*
X8016905Y-11870476D02*
X8035952Y-11870476D01*
X8055000Y-11880000D01*
X8064524Y-11889524D01*
X8074048Y-11908571D01*
X8083571Y-11946667D01*
X8083571Y-11994286D01*
X8074048Y-12032381D01*
X8064524Y-12051428D01*
X8055000Y-12060952D01*
X8035952Y-12070476D01*
X8016905Y-12070476D01*
X7997857Y-12060952D01*
X7988333Y-12051428D01*
X7978809Y-12032381D01*
X7969286Y-11994286D01*
X7969286Y-11946667D01*
X7978809Y-11908571D01*
X7988333Y-11889524D01*
X7997857Y-11880000D01*
X8016905Y-11870476D01*
X8207381Y-11870476D02*
X8226428Y-11870476D01*
X8245476Y-11880000D01*
X8255000Y-11889524D01*
X8264524Y-11908571D01*
X8274048Y-11946667D01*
X8274048Y-11994286D01*
X8264524Y-12032381D01*
X8255000Y-12051428D01*
X8245476Y-12060952D01*
X8226428Y-12070476D01*
X8207381Y-12070476D01*
X8188333Y-12060952D01*
X8178809Y-12051428D01*
X8169286Y-12032381D01*
X8159762Y-11994286D01*
X8159762Y-11946667D01*
X8169286Y-11908571D01*
X8178809Y-11889524D01*
X8188333Y-11880000D01*
X8207381Y-11870476D01*
X8359762Y-12070476D02*
X8359762Y-11937143D01*
X8359762Y-11956190D02*
X8369286Y-11946667D01*
X8388333Y-11937143D01*
X8416905Y-11937143D01*
X8435952Y-11946667D01*
X8445476Y-11965714D01*
X8445476Y-12070476D01*
X8445476Y-11965714D02*
X8455000Y-11946667D01*
X8474048Y-11937143D01*
X8502619Y-11937143D01*
X8521667Y-11946667D01*
X8531190Y-11965714D01*
X8531190Y-12070476D01*
X8626429Y-12070476D02*
X8626429Y-11937143D01*
X8626429Y-11956190D02*
X8635952Y-11946667D01*
X8655000Y-11937143D01*
X8683571Y-11937143D01*
X8702619Y-11946667D01*
X8712143Y-11965714D01*
X8712143Y-12070476D01*
X8712143Y-11965714D02*
X8721667Y-11946667D01*
X8740714Y-11937143D01*
X8769286Y-11937143D01*
X8788333Y-11946667D01*
X8797857Y-11965714D01*
X8797857Y-12070476D01*
X9188333Y-11860952D02*
X9016905Y-12118095D01*
X9445476Y-11870476D02*
X9464524Y-11870476D01*
X9483571Y-11880000D01*
X9493095Y-11889524D01*
X9502619Y-11908571D01*
X9512143Y-11946667D01*
X9512143Y-11994286D01*
X9502619Y-12032381D01*
X9493095Y-12051428D01*
X9483571Y-12060952D01*
X9464524Y-12070476D01*
X9445476Y-12070476D01*
X9426429Y-12060952D01*
X9416905Y-12051428D01*
X9407381Y-12032381D01*
X9397857Y-11994286D01*
X9397857Y-11946667D01*
X9407381Y-11908571D01*
X9416905Y-11889524D01*
X9426429Y-11880000D01*
X9445476Y-11870476D01*
X9597857Y-12051428D02*
X9607381Y-12060952D01*
X9597857Y-12070476D01*
X9588333Y-12060952D01*
X9597857Y-12051428D01*
X9597857Y-12070476D01*
X9731190Y-11870476D02*
X9750238Y-11870476D01*
X9769286Y-11880000D01*
X9778810Y-11889524D01*
X9788333Y-11908571D01*
X9797857Y-11946667D01*
X9797857Y-11994286D01*
X9788333Y-12032381D01*
X9778810Y-12051428D01*
X9769286Y-12060952D01*
X9750238Y-12070476D01*
X9731190Y-12070476D01*
X9712143Y-12060952D01*
X9702619Y-12051428D01*
X9693095Y-12032381D01*
X9683571Y-11994286D01*
X9683571Y-11946667D01*
X9693095Y-11908571D01*
X9702619Y-11889524D01*
X9712143Y-11880000D01*
X9731190Y-11870476D01*
X9969286Y-11870476D02*
X9931190Y-11870476D01*
X9912143Y-11880000D01*
X9902619Y-11889524D01*
X9883571Y-11918095D01*
X9874048Y-11956190D01*
X9874048Y-12032381D01*
X9883571Y-12051428D01*
X9893095Y-12060952D01*
X9912143Y-12070476D01*
X9950238Y-12070476D01*
X9969286Y-12060952D01*
X9978810Y-12051428D01*
X9988333Y-12032381D01*
X9988333Y-11984762D01*
X9978810Y-11965714D01*
X9969286Y-11956190D01*
X9950238Y-11946667D01*
X9912143Y-11946667D01*
X9893095Y-11956190D01*
X9883571Y-11965714D01*
X9874048Y-11984762D01*
X10159762Y-11870476D02*
X10121667Y-11870476D01*
X10102619Y-11880000D01*
X10093095Y-11889524D01*
X10074048Y-11918095D01*
X10064524Y-11956190D01*
X10064524Y-12032381D01*
X10074048Y-12051428D01*
X10083571Y-12060952D01*
X10102619Y-12070476D01*
X10140714Y-12070476D01*
X10159762Y-12060952D01*
X10169286Y-12051428D01*
X10178810Y-12032381D01*
X10178810Y-11984762D01*
X10169286Y-11965714D01*
X10159762Y-11956190D01*
X10140714Y-11946667D01*
X10102619Y-11946667D01*
X10083571Y-11956190D01*
X10074048Y-11965714D01*
X10064524Y-11984762D01*
X10274048Y-12070476D02*
X10312143Y-12070476D01*
X10331190Y-12060952D01*
X10340714Y-12051428D01*
X10359762Y-12022857D01*
X10369286Y-11984762D01*
X10369286Y-11908571D01*
X10359762Y-11889524D01*
X10350238Y-11880000D01*
X10331190Y-11870476D01*
X10293095Y-11870476D01*
X10274048Y-11880000D01*
X10264524Y-11889524D01*
X10255000Y-11908571D01*
X10255000Y-11956190D01*
X10264524Y-11975238D01*
X10274048Y-11984762D01*
X10293095Y-11994286D01*
X10331190Y-11994286D01*
X10350238Y-11984762D01*
X10359762Y-11975238D01*
X10369286Y-11956190D01*
X10445476Y-11870476D02*
X10445476Y-11908571D01*
X10521667Y-11870476D02*
X10521667Y-11908571D01*
X10816905Y-12146667D02*
X10807381Y-12137143D01*
X10788333Y-12108571D01*
X10778810Y-12089524D01*
X10769286Y-12060952D01*
X10759762Y-12013333D01*
X10759762Y-11975238D01*
X10769286Y-11927619D01*
X10778810Y-11899048D01*
X10788333Y-11880000D01*
X10807381Y-11851428D01*
X10816905Y-11841905D01*
X10883571Y-11889524D02*
X10893095Y-11880000D01*
X10912143Y-11870476D01*
X10959762Y-11870476D01*
X10978810Y-11880000D01*
X10988333Y-11889524D01*
X10997857Y-11908571D01*
X10997857Y-11927619D01*
X10988333Y-11956190D01*
X10874048Y-12070476D01*
X10997857Y-12070476D01*
X11235952Y-12070476D02*
X11235952Y-11870476D01*
X11321667Y-12070476D02*
X11321667Y-11965714D01*
X11312143Y-11946667D01*
X11293095Y-11937143D01*
X11264524Y-11937143D01*
X11245476Y-11946667D01*
X11235952Y-11956190D01*
X11445476Y-12070476D02*
X11426428Y-12060952D01*
X11416905Y-12051428D01*
X11407381Y-12032381D01*
X11407381Y-11975238D01*
X11416905Y-11956190D01*
X11426428Y-11946667D01*
X11445476Y-11937143D01*
X11474048Y-11937143D01*
X11493095Y-11946667D01*
X11502619Y-11956190D01*
X11512143Y-11975238D01*
X11512143Y-12032381D01*
X11502619Y-12051428D01*
X11493095Y-12060952D01*
X11474048Y-12070476D01*
X11445476Y-12070476D01*
X11626428Y-12070476D02*
X11607381Y-12060952D01*
X11597857Y-12041905D01*
X11597857Y-11870476D01*
X11778809Y-12060952D02*
X11759762Y-12070476D01*
X11721667Y-12070476D01*
X11702619Y-12060952D01*
X11693095Y-12041905D01*
X11693095Y-11965714D01*
X11702619Y-11946667D01*
X11721667Y-11937143D01*
X11759762Y-11937143D01*
X11778809Y-11946667D01*
X11788333Y-11965714D01*
X11788333Y-11984762D01*
X11693095Y-12003809D01*
X11864524Y-12060952D02*
X11883571Y-12070476D01*
X11921667Y-12070476D01*
X11940714Y-12060952D01*
X11950238Y-12041905D01*
X11950238Y-12032381D01*
X11940714Y-12013333D01*
X11921667Y-12003809D01*
X11893095Y-12003809D01*
X11874048Y-11994286D01*
X11864524Y-11975238D01*
X11864524Y-11965714D01*
X11874048Y-11946667D01*
X11893095Y-11937143D01*
X11921667Y-11937143D01*
X11940714Y-11946667D01*
X12016905Y-12146667D02*
X12026428Y-12137143D01*
X12045476Y-12108571D01*
X12055000Y-12089524D01*
X12064524Y-12060952D01*
X12074048Y-12013333D01*
X12074048Y-11975238D01*
X12064524Y-11927619D01*
X12055000Y-11899048D01*
X12045476Y-11880000D01*
X12026428Y-11851428D01*
X12016905Y-11841905D01*
X12378809Y-12146667D02*
X12369286Y-12137143D01*
X12350238Y-12108571D01*
X12340714Y-12089524D01*
X12331190Y-12060952D01*
X12321667Y-12013333D01*
X12321667Y-11975238D01*
X12331190Y-11927619D01*
X12340714Y-11899048D01*
X12350238Y-11880000D01*
X12369286Y-11851428D01*
X12378809Y-11841905D01*
X12455000Y-11937143D02*
X12455000Y-12070476D01*
X12455000Y-11956190D02*
X12464524Y-11946667D01*
X12483571Y-11937143D01*
X12512143Y-11937143D01*
X12531190Y-11946667D01*
X12540714Y-11965714D01*
X12540714Y-12070476D01*
X12664524Y-12070476D02*
X12645476Y-12060952D01*
X12635952Y-12051428D01*
X12626428Y-12032381D01*
X12626428Y-11975238D01*
X12635952Y-11956190D01*
X12645476Y-11946667D01*
X12664524Y-11937143D01*
X12693095Y-11937143D01*
X12712143Y-11946667D01*
X12721667Y-11956190D01*
X12731190Y-11975238D01*
X12731190Y-12032381D01*
X12721667Y-12051428D01*
X12712143Y-12060952D01*
X12693095Y-12070476D01*
X12664524Y-12070476D01*
X12788333Y-11937143D02*
X12864524Y-11937143D01*
X12816905Y-11870476D02*
X12816905Y-12041905D01*
X12826428Y-12060952D01*
X12845476Y-12070476D01*
X12864524Y-12070476D01*
X13083571Y-11937143D02*
X13083571Y-12137143D01*
X13083571Y-11946667D02*
X13102619Y-11937143D01*
X13140714Y-11937143D01*
X13159762Y-11946667D01*
X13169286Y-11956190D01*
X13178809Y-11975238D01*
X13178809Y-12032381D01*
X13169286Y-12051428D01*
X13159762Y-12060952D01*
X13140714Y-12070476D01*
X13102619Y-12070476D01*
X13083571Y-12060952D01*
X13293095Y-12070476D02*
X13274048Y-12060952D01*
X13264524Y-12041905D01*
X13264524Y-11870476D01*
X13455000Y-12070476D02*
X13455000Y-11965714D01*
X13445476Y-11946667D01*
X13426428Y-11937143D01*
X13388333Y-11937143D01*
X13369286Y-11946667D01*
X13455000Y-12060952D02*
X13435952Y-12070476D01*
X13388333Y-12070476D01*
X13369286Y-12060952D01*
X13359762Y-12041905D01*
X13359762Y-12022857D01*
X13369286Y-12003809D01*
X13388333Y-11994286D01*
X13435952Y-11994286D01*
X13455000Y-11984762D01*
X13521667Y-11937143D02*
X13597857Y-11937143D01*
X13550238Y-11870476D02*
X13550238Y-12041905D01*
X13559762Y-12060952D01*
X13578809Y-12070476D01*
X13597857Y-12070476D01*
X13740714Y-12060952D02*
X13721667Y-12070476D01*
X13683571Y-12070476D01*
X13664524Y-12060952D01*
X13655000Y-12041905D01*
X13655000Y-11965714D01*
X13664524Y-11946667D01*
X13683571Y-11937143D01*
X13721667Y-11937143D01*
X13740714Y-11946667D01*
X13750238Y-11965714D01*
X13750238Y-11984762D01*
X13655000Y-12003809D01*
X13921667Y-12070476D02*
X13921667Y-11870476D01*
X13921667Y-12060952D02*
X13902619Y-12070476D01*
X13864524Y-12070476D01*
X13845476Y-12060952D01*
X13835952Y-12051428D01*
X13826428Y-12032381D01*
X13826428Y-11975238D01*
X13835952Y-11956190D01*
X13845476Y-11946667D01*
X13864524Y-11937143D01*
X13902619Y-11937143D01*
X13921667Y-11946667D01*
X13997857Y-12146667D02*
X14007381Y-12137143D01*
X14026428Y-12108571D01*
X14035952Y-12089524D01*
X14045476Y-12060952D01*
X14055000Y-12013333D01*
X14055000Y-11975238D01*
X14045476Y-11927619D01*
X14035952Y-11899048D01*
X14026428Y-11880000D01*
X14007381Y-11851428D01*
X13997857Y-11841905D01*
D14*
X7159910Y-12184910D02*
X7159910Y-12355090D01*
X7074820Y-12270000D02*
X7245000Y-12270000D01*
D11*
X7607381Y-12360476D02*
X7493095Y-12360476D01*
X7550238Y-12360476D02*
X7550238Y-12160476D01*
X7531190Y-12189048D01*
X7512143Y-12208095D01*
X7493095Y-12217619D01*
X7693095Y-12341428D02*
X7702619Y-12350952D01*
X7693095Y-12360476D01*
X7683571Y-12350952D01*
X7693095Y-12341428D01*
X7693095Y-12360476D01*
X7769286Y-12160476D02*
X7902619Y-12160476D01*
X7816905Y-12360476D01*
X8016905Y-12160476D02*
X8035952Y-12160476D01*
X8055000Y-12170000D01*
X8064524Y-12179524D01*
X8074048Y-12198571D01*
X8083571Y-12236667D01*
X8083571Y-12284286D01*
X8074048Y-12322381D01*
X8064524Y-12341428D01*
X8055000Y-12350952D01*
X8035952Y-12360476D01*
X8016905Y-12360476D01*
X7997857Y-12350952D01*
X7988333Y-12341428D01*
X7978809Y-12322381D01*
X7969286Y-12284286D01*
X7969286Y-12236667D01*
X7978809Y-12198571D01*
X7988333Y-12179524D01*
X7997857Y-12170000D01*
X8016905Y-12160476D01*
X8159762Y-12179524D02*
X8169286Y-12170000D01*
X8188333Y-12160476D01*
X8235952Y-12160476D01*
X8255000Y-12170000D01*
X8264524Y-12179524D01*
X8274048Y-12198571D01*
X8274048Y-12217619D01*
X8264524Y-12246190D01*
X8150238Y-12360476D01*
X8274048Y-12360476D01*
X8359762Y-12360476D02*
X8359762Y-12227143D01*
X8359762Y-12246190D02*
X8369286Y-12236667D01*
X8388333Y-12227143D01*
X8416905Y-12227143D01*
X8435952Y-12236667D01*
X8445476Y-12255714D01*
X8445476Y-12360476D01*
X8445476Y-12255714D02*
X8455000Y-12236667D01*
X8474048Y-12227143D01*
X8502619Y-12227143D01*
X8521667Y-12236667D01*
X8531190Y-12255714D01*
X8531190Y-12360476D01*
X8626429Y-12360476D02*
X8626429Y-12227143D01*
X8626429Y-12246190D02*
X8635952Y-12236667D01*
X8655000Y-12227143D01*
X8683571Y-12227143D01*
X8702619Y-12236667D01*
X8712143Y-12255714D01*
X8712143Y-12360476D01*
X8712143Y-12255714D02*
X8721667Y-12236667D01*
X8740714Y-12227143D01*
X8769286Y-12227143D01*
X8788333Y-12236667D01*
X8797857Y-12255714D01*
X8797857Y-12360476D01*
X9188333Y-12150952D02*
X9016905Y-12408095D01*
X9445476Y-12160476D02*
X9464524Y-12160476D01*
X9483571Y-12170000D01*
X9493095Y-12179524D01*
X9502619Y-12198571D01*
X9512143Y-12236667D01*
X9512143Y-12284286D01*
X9502619Y-12322381D01*
X9493095Y-12341428D01*
X9483571Y-12350952D01*
X9464524Y-12360476D01*
X9445476Y-12360476D01*
X9426429Y-12350952D01*
X9416905Y-12341428D01*
X9407381Y-12322381D01*
X9397857Y-12284286D01*
X9397857Y-12236667D01*
X9407381Y-12198571D01*
X9416905Y-12179524D01*
X9426429Y-12170000D01*
X9445476Y-12160476D01*
X9597857Y-12341428D02*
X9607381Y-12350952D01*
X9597857Y-12360476D01*
X9588333Y-12350952D01*
X9597857Y-12341428D01*
X9597857Y-12360476D01*
X9731190Y-12160476D02*
X9750238Y-12160476D01*
X9769286Y-12170000D01*
X9778810Y-12179524D01*
X9788333Y-12198571D01*
X9797857Y-12236667D01*
X9797857Y-12284286D01*
X9788333Y-12322381D01*
X9778810Y-12341428D01*
X9769286Y-12350952D01*
X9750238Y-12360476D01*
X9731190Y-12360476D01*
X9712143Y-12350952D01*
X9702619Y-12341428D01*
X9693095Y-12322381D01*
X9683571Y-12284286D01*
X9683571Y-12236667D01*
X9693095Y-12198571D01*
X9702619Y-12179524D01*
X9712143Y-12170000D01*
X9731190Y-12160476D01*
X9969286Y-12160476D02*
X9931190Y-12160476D01*
X9912143Y-12170000D01*
X9902619Y-12179524D01*
X9883571Y-12208095D01*
X9874048Y-12246190D01*
X9874048Y-12322381D01*
X9883571Y-12341428D01*
X9893095Y-12350952D01*
X9912143Y-12360476D01*
X9950238Y-12360476D01*
X9969286Y-12350952D01*
X9978810Y-12341428D01*
X9988333Y-12322381D01*
X9988333Y-12274762D01*
X9978810Y-12255714D01*
X9969286Y-12246190D01*
X9950238Y-12236667D01*
X9912143Y-12236667D01*
X9893095Y-12246190D01*
X9883571Y-12255714D01*
X9874048Y-12274762D01*
X10055000Y-12160476D02*
X10188333Y-12160476D01*
X10102619Y-12360476D01*
X10302619Y-12160476D02*
X10321667Y-12160476D01*
X10340714Y-12170000D01*
X10350238Y-12179524D01*
X10359762Y-12198571D01*
X10369286Y-12236667D01*
X10369286Y-12284286D01*
X10359762Y-12322381D01*
X10350238Y-12341428D01*
X10340714Y-12350952D01*
X10321667Y-12360476D01*
X10302619Y-12360476D01*
X10283571Y-12350952D01*
X10274048Y-12341428D01*
X10264524Y-12322381D01*
X10255000Y-12284286D01*
X10255000Y-12236667D01*
X10264524Y-12198571D01*
X10274048Y-12179524D01*
X10283571Y-12170000D01*
X10302619Y-12160476D01*
X10445476Y-12160476D02*
X10445476Y-12198571D01*
X10521667Y-12160476D02*
X10521667Y-12198571D01*
X10816905Y-12436667D02*
X10807381Y-12427143D01*
X10788333Y-12398571D01*
X10778810Y-12379524D01*
X10769286Y-12350952D01*
X10759762Y-12303333D01*
X10759762Y-12265238D01*
X10769286Y-12217619D01*
X10778810Y-12189048D01*
X10788333Y-12170000D01*
X10807381Y-12141428D01*
X10816905Y-12131905D01*
X10874048Y-12160476D02*
X10997857Y-12160476D01*
X10931190Y-12236667D01*
X10959762Y-12236667D01*
X10978810Y-12246190D01*
X10988333Y-12255714D01*
X10997857Y-12274762D01*
X10997857Y-12322381D01*
X10988333Y-12341428D01*
X10978810Y-12350952D01*
X10959762Y-12360476D01*
X10902619Y-12360476D01*
X10883571Y-12350952D01*
X10874048Y-12341428D01*
X11121667Y-12160476D02*
X11140714Y-12160476D01*
X11159762Y-12170000D01*
X11169286Y-12179524D01*
X11178810Y-12198571D01*
X11188333Y-12236667D01*
X11188333Y-12284286D01*
X11178810Y-12322381D01*
X11169286Y-12341428D01*
X11159762Y-12350952D01*
X11140714Y-12360476D01*
X11121667Y-12360476D01*
X11102619Y-12350952D01*
X11093095Y-12341428D01*
X11083571Y-12322381D01*
X11074048Y-12284286D01*
X11074048Y-12236667D01*
X11083571Y-12198571D01*
X11093095Y-12179524D01*
X11102619Y-12170000D01*
X11121667Y-12160476D01*
X11426428Y-12360476D02*
X11426428Y-12160476D01*
X11512143Y-12360476D02*
X11512143Y-12255714D01*
X11502619Y-12236667D01*
X11483571Y-12227143D01*
X11455000Y-12227143D01*
X11435952Y-12236667D01*
X11426428Y-12246190D01*
X11635952Y-12360476D02*
X11616905Y-12350952D01*
X11607381Y-12341428D01*
X11597857Y-12322381D01*
X11597857Y-12265238D01*
X11607381Y-12246190D01*
X11616905Y-12236667D01*
X11635952Y-12227143D01*
X11664524Y-12227143D01*
X11683571Y-12236667D01*
X11693095Y-12246190D01*
X11702619Y-12265238D01*
X11702619Y-12322381D01*
X11693095Y-12341428D01*
X11683571Y-12350952D01*
X11664524Y-12360476D01*
X11635952Y-12360476D01*
X11816905Y-12360476D02*
X11797857Y-12350952D01*
X11788333Y-12331905D01*
X11788333Y-12160476D01*
X11969286Y-12350952D02*
X11950238Y-12360476D01*
X11912143Y-12360476D01*
X11893095Y-12350952D01*
X11883571Y-12331905D01*
X11883571Y-12255714D01*
X11893095Y-12236667D01*
X11912143Y-12227143D01*
X11950238Y-12227143D01*
X11969286Y-12236667D01*
X11978809Y-12255714D01*
X11978809Y-12274762D01*
X11883571Y-12293809D01*
X12055000Y-12350952D02*
X12074048Y-12360476D01*
X12112143Y-12360476D01*
X12131190Y-12350952D01*
X12140714Y-12331905D01*
X12140714Y-12322381D01*
X12131190Y-12303333D01*
X12112143Y-12293809D01*
X12083571Y-12293809D01*
X12064524Y-12284286D01*
X12055000Y-12265238D01*
X12055000Y-12255714D01*
X12064524Y-12236667D01*
X12083571Y-12227143D01*
X12112143Y-12227143D01*
X12131190Y-12236667D01*
X12207381Y-12436667D02*
X12216905Y-12427143D01*
X12235952Y-12398571D01*
X12245476Y-12379524D01*
X12255000Y-12350952D01*
X12264524Y-12303333D01*
X12264524Y-12265238D01*
X12255000Y-12217619D01*
X12245476Y-12189048D01*
X12235952Y-12170000D01*
X12216905Y-12141428D01*
X12207381Y-12131905D01*
X12569286Y-12436667D02*
X12559762Y-12427143D01*
X12540714Y-12398571D01*
X12531190Y-12379524D01*
X12521667Y-12350952D01*
X12512143Y-12303333D01*
X12512143Y-12265238D01*
X12521667Y-12217619D01*
X12531190Y-12189048D01*
X12540714Y-12170000D01*
X12559762Y-12141428D01*
X12569286Y-12131905D01*
X12645476Y-12227143D02*
X12645476Y-12360476D01*
X12645476Y-12246190D02*
X12655000Y-12236667D01*
X12674048Y-12227143D01*
X12702619Y-12227143D01*
X12721667Y-12236667D01*
X12731190Y-12255714D01*
X12731190Y-12360476D01*
X12855000Y-12360476D02*
X12835952Y-12350952D01*
X12826428Y-12341428D01*
X12816905Y-12322381D01*
X12816905Y-12265238D01*
X12826428Y-12246190D01*
X12835952Y-12236667D01*
X12855000Y-12227143D01*
X12883571Y-12227143D01*
X12902619Y-12236667D01*
X12912143Y-12246190D01*
X12921667Y-12265238D01*
X12921667Y-12322381D01*
X12912143Y-12341428D01*
X12902619Y-12350952D01*
X12883571Y-12360476D01*
X12855000Y-12360476D01*
X12978809Y-12227143D02*
X13055000Y-12227143D01*
X13007381Y-12160476D02*
X13007381Y-12331905D01*
X13016905Y-12350952D01*
X13035952Y-12360476D01*
X13055000Y-12360476D01*
X13274048Y-12227143D02*
X13274048Y-12427143D01*
X13274048Y-12236667D02*
X13293095Y-12227143D01*
X13331190Y-12227143D01*
X13350238Y-12236667D01*
X13359762Y-12246190D01*
X13369286Y-12265238D01*
X13369286Y-12322381D01*
X13359762Y-12341428D01*
X13350238Y-12350952D01*
X13331190Y-12360476D01*
X13293095Y-12360476D01*
X13274048Y-12350952D01*
X13483571Y-12360476D02*
X13464524Y-12350952D01*
X13455000Y-12331905D01*
X13455000Y-12160476D01*
X13645476Y-12360476D02*
X13645476Y-12255714D01*
X13635952Y-12236667D01*
X13616905Y-12227143D01*
X13578809Y-12227143D01*
X13559762Y-12236667D01*
X13645476Y-12350952D02*
X13626428Y-12360476D01*
X13578809Y-12360476D01*
X13559762Y-12350952D01*
X13550238Y-12331905D01*
X13550238Y-12312857D01*
X13559762Y-12293809D01*
X13578809Y-12284286D01*
X13626428Y-12284286D01*
X13645476Y-12274762D01*
X13712143Y-12227143D02*
X13788333Y-12227143D01*
X13740714Y-12160476D02*
X13740714Y-12331905D01*
X13750238Y-12350952D01*
X13769286Y-12360476D01*
X13788333Y-12360476D01*
X13931190Y-12350952D02*
X13912143Y-12360476D01*
X13874048Y-12360476D01*
X13855000Y-12350952D01*
X13845476Y-12331905D01*
X13845476Y-12255714D01*
X13855000Y-12236667D01*
X13874048Y-12227143D01*
X13912143Y-12227143D01*
X13931190Y-12236667D01*
X13940714Y-12255714D01*
X13940714Y-12274762D01*
X13845476Y-12293809D01*
X14112143Y-12360476D02*
X14112143Y-12160476D01*
X14112143Y-12350952D02*
X14093095Y-12360476D01*
X14055000Y-12360476D01*
X14035952Y-12350952D01*
X14026428Y-12341428D01*
X14016905Y-12322381D01*
X14016905Y-12265238D01*
X14026428Y-12246190D01*
X14035952Y-12236667D01*
X14055000Y-12227143D01*
X14093095Y-12227143D01*
X14112143Y-12236667D01*
X14188333Y-12436667D02*
X14197857Y-12427143D01*
X14216905Y-12398571D01*
X14226428Y-12379524D01*
X14235952Y-12350952D01*
X14245476Y-12303333D01*
X14245476Y-12265238D01*
X14235952Y-12217619D01*
X14226428Y-12189048D01*
X14216905Y-12170000D01*
X14197857Y-12141428D01*
X14188333Y-12131905D01*
X7215711Y-12630891D02*
X7215711Y-12489469D01*
X7074289Y-12489469D01*
X7074289Y-12630891D01*
X7215711Y-12630891D01*
X7493095Y-12469704D02*
X7502619Y-12460180D01*
X7521667Y-12450656D01*
X7569286Y-12450656D01*
X7588333Y-12460180D01*
X7597857Y-12469704D01*
X7607381Y-12488751D01*
X7607381Y-12507799D01*
X7597857Y-12536370D01*
X7483571Y-12650656D01*
X7607381Y-12650656D01*
X7693095Y-12631608D02*
X7702619Y-12641132D01*
X7693095Y-12650656D01*
X7683571Y-12641132D01*
X7693095Y-12631608D01*
X7693095Y-12650656D01*
X7826428Y-12450656D02*
X7845476Y-12450656D01*
X7864524Y-12460180D01*
X7874048Y-12469704D01*
X7883571Y-12488751D01*
X7893095Y-12526847D01*
X7893095Y-12574466D01*
X7883571Y-12612561D01*
X7874048Y-12631608D01*
X7864524Y-12641132D01*
X7845476Y-12650656D01*
X7826428Y-12650656D01*
X7807381Y-12641132D01*
X7797857Y-12631608D01*
X7788333Y-12612561D01*
X7778809Y-12574466D01*
X7778809Y-12526847D01*
X7788333Y-12488751D01*
X7797857Y-12469704D01*
X7807381Y-12460180D01*
X7826428Y-12450656D01*
X8016905Y-12450656D02*
X8035952Y-12450656D01*
X8055000Y-12460180D01*
X8064524Y-12469704D01*
X8074048Y-12488751D01*
X8083571Y-12526847D01*
X8083571Y-12574466D01*
X8074048Y-12612561D01*
X8064524Y-12631608D01*
X8055000Y-12641132D01*
X8035952Y-12650656D01*
X8016905Y-12650656D01*
X7997857Y-12641132D01*
X7988333Y-12631608D01*
X7978809Y-12612561D01*
X7969286Y-12574466D01*
X7969286Y-12526847D01*
X7978809Y-12488751D01*
X7988333Y-12469704D01*
X7997857Y-12460180D01*
X8016905Y-12450656D01*
X8207381Y-12450656D02*
X8226428Y-12450656D01*
X8245476Y-12460180D01*
X8255000Y-12469704D01*
X8264524Y-12488751D01*
X8274048Y-12526847D01*
X8274048Y-12574466D01*
X8264524Y-12612561D01*
X8255000Y-12631608D01*
X8245476Y-12641132D01*
X8226428Y-12650656D01*
X8207381Y-12650656D01*
X8188333Y-12641132D01*
X8178809Y-12631608D01*
X8169286Y-12612561D01*
X8159762Y-12574466D01*
X8159762Y-12526847D01*
X8169286Y-12488751D01*
X8178809Y-12469704D01*
X8188333Y-12460180D01*
X8207381Y-12450656D01*
X8359762Y-12650656D02*
X8359762Y-12517323D01*
X8359762Y-12536370D02*
X8369286Y-12526847D01*
X8388333Y-12517323D01*
X8416905Y-12517323D01*
X8435952Y-12526847D01*
X8445476Y-12545894D01*
X8445476Y-12650656D01*
X8445476Y-12545894D02*
X8455000Y-12526847D01*
X8474048Y-12517323D01*
X8502619Y-12517323D01*
X8521667Y-12526847D01*
X8531190Y-12545894D01*
X8531190Y-12650656D01*
X8626429Y-12650656D02*
X8626429Y-12517323D01*
X8626429Y-12536370D02*
X8635952Y-12526847D01*
X8655000Y-12517323D01*
X8683571Y-12517323D01*
X8702619Y-12526847D01*
X8712143Y-12545894D01*
X8712143Y-12650656D01*
X8712143Y-12545894D02*
X8721667Y-12526847D01*
X8740714Y-12517323D01*
X8769286Y-12517323D01*
X8788333Y-12526847D01*
X8797857Y-12545894D01*
X8797857Y-12650656D01*
X9188333Y-12441132D02*
X9016905Y-12698275D01*
X9445476Y-12450656D02*
X9464524Y-12450656D01*
X9483571Y-12460180D01*
X9493095Y-12469704D01*
X9502619Y-12488751D01*
X9512143Y-12526847D01*
X9512143Y-12574466D01*
X9502619Y-12612561D01*
X9493095Y-12631608D01*
X9483571Y-12641132D01*
X9464524Y-12650656D01*
X9445476Y-12650656D01*
X9426429Y-12641132D01*
X9416905Y-12631608D01*
X9407381Y-12612561D01*
X9397857Y-12574466D01*
X9397857Y-12526847D01*
X9407381Y-12488751D01*
X9416905Y-12469704D01*
X9426429Y-12460180D01*
X9445476Y-12450656D01*
X9597857Y-12631608D02*
X9607381Y-12641132D01*
X9597857Y-12650656D01*
X9588333Y-12641132D01*
X9597857Y-12631608D01*
X9597857Y-12650656D01*
X9731190Y-12450656D02*
X9750238Y-12450656D01*
X9769286Y-12460180D01*
X9778810Y-12469704D01*
X9788333Y-12488751D01*
X9797857Y-12526847D01*
X9797857Y-12574466D01*
X9788333Y-12612561D01*
X9778810Y-12631608D01*
X9769286Y-12641132D01*
X9750238Y-12650656D01*
X9731190Y-12650656D01*
X9712143Y-12641132D01*
X9702619Y-12631608D01*
X9693095Y-12612561D01*
X9683571Y-12574466D01*
X9683571Y-12526847D01*
X9693095Y-12488751D01*
X9702619Y-12469704D01*
X9712143Y-12460180D01*
X9731190Y-12450656D01*
X9864524Y-12450656D02*
X9997857Y-12450656D01*
X9912143Y-12650656D01*
X10102619Y-12536370D02*
X10083571Y-12526847D01*
X10074048Y-12517323D01*
X10064524Y-12498275D01*
X10064524Y-12488751D01*
X10074048Y-12469704D01*
X10083571Y-12460180D01*
X10102619Y-12450656D01*
X10140714Y-12450656D01*
X10159762Y-12460180D01*
X10169286Y-12469704D01*
X10178810Y-12488751D01*
X10178810Y-12498275D01*
X10169286Y-12517323D01*
X10159762Y-12526847D01*
X10140714Y-12536370D01*
X10102619Y-12536370D01*
X10083571Y-12545894D01*
X10074048Y-12555418D01*
X10064524Y-12574466D01*
X10064524Y-12612561D01*
X10074048Y-12631608D01*
X10083571Y-12641132D01*
X10102619Y-12650656D01*
X10140714Y-12650656D01*
X10159762Y-12641132D01*
X10169286Y-12631608D01*
X10178810Y-12612561D01*
X10178810Y-12574466D01*
X10169286Y-12555418D01*
X10159762Y-12545894D01*
X10140714Y-12536370D01*
X10245476Y-12450656D02*
X10378810Y-12450656D01*
X10293095Y-12650656D01*
X10445476Y-12450656D02*
X10445476Y-12488751D01*
X10521667Y-12450656D02*
X10521667Y-12488751D01*
X10816905Y-12726847D02*
X10807381Y-12717323D01*
X10788333Y-12688751D01*
X10778810Y-12669704D01*
X10769286Y-12641132D01*
X10759762Y-12593513D01*
X10759762Y-12555418D01*
X10769286Y-12507799D01*
X10778810Y-12479228D01*
X10788333Y-12460180D01*
X10807381Y-12431608D01*
X10816905Y-12422085D01*
X10978810Y-12517323D02*
X10978810Y-12650656D01*
X10931190Y-12441132D02*
X10883571Y-12583989D01*
X11007381Y-12583989D01*
X11235952Y-12650656D02*
X11235952Y-12450656D01*
X11321667Y-12650656D02*
X11321667Y-12545894D01*
X11312143Y-12526847D01*
X11293095Y-12517323D01*
X11264524Y-12517323D01*
X11245476Y-12526847D01*
X11235952Y-12536370D01*
X11445476Y-12650656D02*
X11426428Y-12641132D01*
X11416905Y-12631608D01*
X11407381Y-12612561D01*
X11407381Y-12555418D01*
X11416905Y-12536370D01*
X11426428Y-12526847D01*
X11445476Y-12517323D01*
X11474048Y-12517323D01*
X11493095Y-12526847D01*
X11502619Y-12536370D01*
X11512143Y-12555418D01*
X11512143Y-12612561D01*
X11502619Y-12631608D01*
X11493095Y-12641132D01*
X11474048Y-12650656D01*
X11445476Y-12650656D01*
X11626428Y-12650656D02*
X11607381Y-12641132D01*
X11597857Y-12622085D01*
X11597857Y-12450656D01*
X11778809Y-12641132D02*
X11759762Y-12650656D01*
X11721667Y-12650656D01*
X11702619Y-12641132D01*
X11693095Y-12622085D01*
X11693095Y-12545894D01*
X11702619Y-12526847D01*
X11721667Y-12517323D01*
X11759762Y-12517323D01*
X11778809Y-12526847D01*
X11788333Y-12545894D01*
X11788333Y-12564942D01*
X11693095Y-12583989D01*
X11864524Y-12641132D02*
X11883571Y-12650656D01*
X11921667Y-12650656D01*
X11940714Y-12641132D01*
X11950238Y-12622085D01*
X11950238Y-12612561D01*
X11940714Y-12593513D01*
X11921667Y-12583989D01*
X11893095Y-12583989D01*
X11874048Y-12574466D01*
X11864524Y-12555418D01*
X11864524Y-12545894D01*
X11874048Y-12526847D01*
X11893095Y-12517323D01*
X11921667Y-12517323D01*
X11940714Y-12526847D01*
X12016905Y-12726847D02*
X12026428Y-12717323D01*
X12045476Y-12688751D01*
X12055000Y-12669704D01*
X12064524Y-12641132D01*
X12074048Y-12593513D01*
X12074048Y-12555418D01*
X12064524Y-12507799D01*
X12055000Y-12479228D01*
X12045476Y-12460180D01*
X12026428Y-12431608D01*
X12016905Y-12422085D01*
X12378809Y-12726847D02*
X12369286Y-12717323D01*
X12350238Y-12688751D01*
X12340714Y-12669704D01*
X12331190Y-12641132D01*
X12321667Y-12593513D01*
X12321667Y-12555418D01*
X12331190Y-12507799D01*
X12340714Y-12479228D01*
X12350238Y-12460180D01*
X12369286Y-12431608D01*
X12378809Y-12422085D01*
X12455000Y-12517323D02*
X12455000Y-12650656D01*
X12455000Y-12536370D02*
X12464524Y-12526847D01*
X12483571Y-12517323D01*
X12512143Y-12517323D01*
X12531190Y-12526847D01*
X12540714Y-12545894D01*
X12540714Y-12650656D01*
X12664524Y-12650656D02*
X12645476Y-12641132D01*
X12635952Y-12631608D01*
X12626428Y-12612561D01*
X12626428Y-12555418D01*
X12635952Y-12536370D01*
X12645476Y-12526847D01*
X12664524Y-12517323D01*
X12693095Y-12517323D01*
X12712143Y-12526847D01*
X12721667Y-12536370D01*
X12731190Y-12555418D01*
X12731190Y-12612561D01*
X12721667Y-12631608D01*
X12712143Y-12641132D01*
X12693095Y-12650656D01*
X12664524Y-12650656D01*
X12788333Y-12517323D02*
X12864524Y-12517323D01*
X12816905Y-12450656D02*
X12816905Y-12622085D01*
X12826428Y-12641132D01*
X12845476Y-12650656D01*
X12864524Y-12650656D01*
X13083571Y-12517323D02*
X13083571Y-12717323D01*
X13083571Y-12526847D02*
X13102619Y-12517323D01*
X13140714Y-12517323D01*
X13159762Y-12526847D01*
X13169286Y-12536370D01*
X13178809Y-12555418D01*
X13178809Y-12612561D01*
X13169286Y-12631608D01*
X13159762Y-12641132D01*
X13140714Y-12650656D01*
X13102619Y-12650656D01*
X13083571Y-12641132D01*
X13293095Y-12650656D02*
X13274048Y-12641132D01*
X13264524Y-12622085D01*
X13264524Y-12450656D01*
X13455000Y-12650656D02*
X13455000Y-12545894D01*
X13445476Y-12526847D01*
X13426428Y-12517323D01*
X13388333Y-12517323D01*
X13369286Y-12526847D01*
X13455000Y-12641132D02*
X13435952Y-12650656D01*
X13388333Y-12650656D01*
X13369286Y-12641132D01*
X13359762Y-12622085D01*
X13359762Y-12603037D01*
X13369286Y-12583989D01*
X13388333Y-12574466D01*
X13435952Y-12574466D01*
X13455000Y-12564942D01*
X13521667Y-12517323D02*
X13597857Y-12517323D01*
X13550238Y-12450656D02*
X13550238Y-12622085D01*
X13559762Y-12641132D01*
X13578809Y-12650656D01*
X13597857Y-12650656D01*
X13740714Y-12641132D02*
X13721667Y-12650656D01*
X13683571Y-12650656D01*
X13664524Y-12641132D01*
X13655000Y-12622085D01*
X13655000Y-12545894D01*
X13664524Y-12526847D01*
X13683571Y-12517323D01*
X13721667Y-12517323D01*
X13740714Y-12526847D01*
X13750238Y-12545894D01*
X13750238Y-12564942D01*
X13655000Y-12583989D01*
X13921667Y-12650656D02*
X13921667Y-12450656D01*
X13921667Y-12641132D02*
X13902619Y-12650656D01*
X13864524Y-12650656D01*
X13845476Y-12641132D01*
X13835952Y-12631608D01*
X13826428Y-12612561D01*
X13826428Y-12555418D01*
X13835952Y-12536370D01*
X13845476Y-12526847D01*
X13864524Y-12517323D01*
X13902619Y-12517323D01*
X13921667Y-12526847D01*
X13997857Y-12726847D02*
X14007381Y-12717323D01*
X14026428Y-12688751D01*
X14035952Y-12669704D01*
X14045476Y-12641132D01*
X14055000Y-12593513D01*
X14055000Y-12555418D01*
X14045476Y-12507799D01*
X14035952Y-12479228D01*
X14026428Y-12460180D01*
X14007381Y-12431608D01*
X13997857Y-12422085D01*
X7145000Y-12980180D02*
X7245000Y-12880180D01*
X7145000Y-12780180D01*
X7045000Y-12880180D01*
X7145000Y-12980180D01*
X7483571Y-12770656D02*
X7607381Y-12770656D01*
X7540714Y-12846847D01*
X7569286Y-12846847D01*
X7588333Y-12856370D01*
X7597857Y-12865894D01*
X7607381Y-12884942D01*
X7607381Y-12932561D01*
X7597857Y-12951608D01*
X7588333Y-12961132D01*
X7569286Y-12970656D01*
X7512143Y-12970656D01*
X7493095Y-12961132D01*
X7483571Y-12951608D01*
X7693095Y-12951608D02*
X7702619Y-12961132D01*
X7693095Y-12970656D01*
X7683571Y-12961132D01*
X7693095Y-12951608D01*
X7693095Y-12970656D01*
X7797857Y-12970656D02*
X7835952Y-12970656D01*
X7855000Y-12961132D01*
X7864524Y-12951608D01*
X7883571Y-12923037D01*
X7893095Y-12884942D01*
X7893095Y-12808751D01*
X7883571Y-12789704D01*
X7874048Y-12780180D01*
X7855000Y-12770656D01*
X7816905Y-12770656D01*
X7797857Y-12780180D01*
X7788333Y-12789704D01*
X7778809Y-12808751D01*
X7778809Y-12856370D01*
X7788333Y-12875418D01*
X7797857Y-12884942D01*
X7816905Y-12894466D01*
X7855000Y-12894466D01*
X7874048Y-12884942D01*
X7883571Y-12875418D01*
X7893095Y-12856370D01*
X8007381Y-12856370D02*
X7988333Y-12846847D01*
X7978809Y-12837323D01*
X7969286Y-12818275D01*
X7969286Y-12808751D01*
X7978809Y-12789704D01*
X7988333Y-12780180D01*
X8007381Y-12770656D01*
X8045476Y-12770656D01*
X8064524Y-12780180D01*
X8074048Y-12789704D01*
X8083571Y-12808751D01*
X8083571Y-12818275D01*
X8074048Y-12837323D01*
X8064524Y-12846847D01*
X8045476Y-12856370D01*
X8007381Y-12856370D01*
X7988333Y-12865894D01*
X7978809Y-12875418D01*
X7969286Y-12894466D01*
X7969286Y-12932561D01*
X7978809Y-12951608D01*
X7988333Y-12961132D01*
X8007381Y-12970656D01*
X8045476Y-12970656D01*
X8064524Y-12961132D01*
X8074048Y-12951608D01*
X8083571Y-12932561D01*
X8083571Y-12894466D01*
X8074048Y-12875418D01*
X8064524Y-12865894D01*
X8045476Y-12856370D01*
X8197857Y-12856370D02*
X8178809Y-12846847D01*
X8169286Y-12837323D01*
X8159762Y-12818275D01*
X8159762Y-12808751D01*
X8169286Y-12789704D01*
X8178809Y-12780180D01*
X8197857Y-12770656D01*
X8235952Y-12770656D01*
X8255000Y-12780180D01*
X8264524Y-12789704D01*
X8274048Y-12808751D01*
X8274048Y-12818275D01*
X8264524Y-12837323D01*
X8255000Y-12846847D01*
X8235952Y-12856370D01*
X8197857Y-12856370D01*
X8178809Y-12865894D01*
X8169286Y-12875418D01*
X8159762Y-12894466D01*
X8159762Y-12932561D01*
X8169286Y-12951608D01*
X8178809Y-12961132D01*
X8197857Y-12970656D01*
X8235952Y-12970656D01*
X8255000Y-12961132D01*
X8264524Y-12951608D01*
X8274048Y-12932561D01*
X8274048Y-12894466D01*
X8264524Y-12875418D01*
X8255000Y-12865894D01*
X8235952Y-12856370D01*
X8359762Y-12970656D02*
X8359762Y-12837323D01*
X8359762Y-12856370D02*
X8369286Y-12846847D01*
X8388333Y-12837323D01*
X8416905Y-12837323D01*
X8435952Y-12846847D01*
X8445476Y-12865894D01*
X8445476Y-12970656D01*
X8445476Y-12865894D02*
X8455000Y-12846847D01*
X8474048Y-12837323D01*
X8502619Y-12837323D01*
X8521667Y-12846847D01*
X8531190Y-12865894D01*
X8531190Y-12970656D01*
X8626429Y-12970656D02*
X8626429Y-12837323D01*
X8626429Y-12856370D02*
X8635952Y-12846847D01*
X8655000Y-12837323D01*
X8683571Y-12837323D01*
X8702619Y-12846847D01*
X8712143Y-12865894D01*
X8712143Y-12970656D01*
X8712143Y-12865894D02*
X8721667Y-12846847D01*
X8740714Y-12837323D01*
X8769286Y-12837323D01*
X8788333Y-12846847D01*
X8797857Y-12865894D01*
X8797857Y-12970656D01*
X9188333Y-12761132D02*
X9016905Y-13018275D01*
X9445476Y-12770656D02*
X9464524Y-12770656D01*
X9483571Y-12780180D01*
X9493095Y-12789704D01*
X9502619Y-12808751D01*
X9512143Y-12846847D01*
X9512143Y-12894466D01*
X9502619Y-12932561D01*
X9493095Y-12951608D01*
X9483571Y-12961132D01*
X9464524Y-12970656D01*
X9445476Y-12970656D01*
X9426429Y-12961132D01*
X9416905Y-12951608D01*
X9407381Y-12932561D01*
X9397857Y-12894466D01*
X9397857Y-12846847D01*
X9407381Y-12808751D01*
X9416905Y-12789704D01*
X9426429Y-12780180D01*
X9445476Y-12770656D01*
X9597857Y-12951608D02*
X9607381Y-12961132D01*
X9597857Y-12970656D01*
X9588333Y-12961132D01*
X9597857Y-12951608D01*
X9597857Y-12970656D01*
X9797857Y-12970656D02*
X9683571Y-12970656D01*
X9740714Y-12970656D02*
X9740714Y-12770656D01*
X9721667Y-12799228D01*
X9702619Y-12818275D01*
X9683571Y-12827799D01*
X9978810Y-12770656D02*
X9883571Y-12770656D01*
X9874048Y-12865894D01*
X9883571Y-12856370D01*
X9902619Y-12846847D01*
X9950238Y-12846847D01*
X9969286Y-12856370D01*
X9978810Y-12865894D01*
X9988333Y-12884942D01*
X9988333Y-12932561D01*
X9978810Y-12951608D01*
X9969286Y-12961132D01*
X9950238Y-12970656D01*
X9902619Y-12970656D01*
X9883571Y-12961132D01*
X9874048Y-12951608D01*
X10055000Y-12770656D02*
X10188333Y-12770656D01*
X10102619Y-12970656D01*
X10302619Y-12770656D02*
X10321667Y-12770656D01*
X10340714Y-12780180D01*
X10350238Y-12789704D01*
X10359762Y-12808751D01*
X10369286Y-12846847D01*
X10369286Y-12894466D01*
X10359762Y-12932561D01*
X10350238Y-12951608D01*
X10340714Y-12961132D01*
X10321667Y-12970656D01*
X10302619Y-12970656D01*
X10283571Y-12961132D01*
X10274048Y-12951608D01*
X10264524Y-12932561D01*
X10255000Y-12894466D01*
X10255000Y-12846847D01*
X10264524Y-12808751D01*
X10274048Y-12789704D01*
X10283571Y-12780180D01*
X10302619Y-12770656D01*
X10445476Y-12770656D02*
X10445476Y-12808751D01*
X10521667Y-12770656D02*
X10521667Y-12808751D01*
X10816905Y-13046847D02*
X10807381Y-13037323D01*
X10788333Y-13008751D01*
X10778810Y-12989704D01*
X10769286Y-12961132D01*
X10759762Y-12913513D01*
X10759762Y-12875418D01*
X10769286Y-12827799D01*
X10778810Y-12799228D01*
X10788333Y-12780180D01*
X10807381Y-12751608D01*
X10816905Y-12742085D01*
X10997857Y-12970656D02*
X10883571Y-12970656D01*
X10940714Y-12970656D02*
X10940714Y-12770656D01*
X10921667Y-12799228D01*
X10902619Y-12818275D01*
X10883571Y-12827799D01*
X11178810Y-12770656D02*
X11083571Y-12770656D01*
X11074048Y-12865894D01*
X11083571Y-12856370D01*
X11102619Y-12846847D01*
X11150238Y-12846847D01*
X11169286Y-12856370D01*
X11178810Y-12865894D01*
X11188333Y-12884942D01*
X11188333Y-12932561D01*
X11178810Y-12951608D01*
X11169286Y-12961132D01*
X11150238Y-12970656D01*
X11102619Y-12970656D01*
X11083571Y-12961132D01*
X11074048Y-12951608D01*
X11426428Y-12970656D02*
X11426428Y-12770656D01*
X11512143Y-12970656D02*
X11512143Y-12865894D01*
X11502619Y-12846847D01*
X11483571Y-12837323D01*
X11455000Y-12837323D01*
X11435952Y-12846847D01*
X11426428Y-12856370D01*
X11635952Y-12970656D02*
X11616905Y-12961132D01*
X11607381Y-12951608D01*
X11597857Y-12932561D01*
X11597857Y-12875418D01*
X11607381Y-12856370D01*
X11616905Y-12846847D01*
X11635952Y-12837323D01*
X11664524Y-12837323D01*
X11683571Y-12846847D01*
X11693095Y-12856370D01*
X11702619Y-12875418D01*
X11702619Y-12932561D01*
X11693095Y-12951608D01*
X11683571Y-12961132D01*
X11664524Y-12970656D01*
X11635952Y-12970656D01*
X11816905Y-12970656D02*
X11797857Y-12961132D01*
X11788333Y-12942085D01*
X11788333Y-12770656D01*
X11969286Y-12961132D02*
X11950238Y-12970656D01*
X11912143Y-12970656D01*
X11893095Y-12961132D01*
X11883571Y-12942085D01*
X11883571Y-12865894D01*
X11893095Y-12846847D01*
X11912143Y-12837323D01*
X11950238Y-12837323D01*
X11969286Y-12846847D01*
X11978809Y-12865894D01*
X11978809Y-12884942D01*
X11883571Y-12903989D01*
X12055000Y-12961132D02*
X12074048Y-12970656D01*
X12112143Y-12970656D01*
X12131190Y-12961132D01*
X12140714Y-12942085D01*
X12140714Y-12932561D01*
X12131190Y-12913513D01*
X12112143Y-12903989D01*
X12083571Y-12903989D01*
X12064524Y-12894466D01*
X12055000Y-12875418D01*
X12055000Y-12865894D01*
X12064524Y-12846847D01*
X12083571Y-12837323D01*
X12112143Y-12837323D01*
X12131190Y-12846847D01*
X12207381Y-13046847D02*
X12216905Y-13037323D01*
X12235952Y-13008751D01*
X12245476Y-12989704D01*
X12255000Y-12961132D01*
X12264524Y-12913513D01*
X12264524Y-12875418D01*
X12255000Y-12827799D01*
X12245476Y-12799228D01*
X12235952Y-12780180D01*
X12216905Y-12751608D01*
X12207381Y-12742085D01*
X12569286Y-13046847D02*
X12559762Y-13037323D01*
X12540714Y-13008751D01*
X12531190Y-12989704D01*
X12521667Y-12961132D01*
X12512143Y-12913513D01*
X12512143Y-12875418D01*
X12521667Y-12827799D01*
X12531190Y-12799228D01*
X12540714Y-12780180D01*
X12559762Y-12751608D01*
X12569286Y-12742085D01*
X12645476Y-12837323D02*
X12645476Y-12970656D01*
X12645476Y-12856370D02*
X12655000Y-12846847D01*
X12674048Y-12837323D01*
X12702619Y-12837323D01*
X12721667Y-12846847D01*
X12731190Y-12865894D01*
X12731190Y-12970656D01*
X12855000Y-12970656D02*
X12835952Y-12961132D01*
X12826428Y-12951608D01*
X12816905Y-12932561D01*
X12816905Y-12875418D01*
X12826428Y-12856370D01*
X12835952Y-12846847D01*
X12855000Y-12837323D01*
X12883571Y-12837323D01*
X12902619Y-12846847D01*
X12912143Y-12856370D01*
X12921667Y-12875418D01*
X12921667Y-12932561D01*
X12912143Y-12951608D01*
X12902619Y-12961132D01*
X12883571Y-12970656D01*
X12855000Y-12970656D01*
X12978809Y-12837323D02*
X13055000Y-12837323D01*
X13007381Y-12770656D02*
X13007381Y-12942085D01*
X13016905Y-12961132D01*
X13035952Y-12970656D01*
X13055000Y-12970656D01*
X13274048Y-12837323D02*
X13274048Y-13037323D01*
X13274048Y-12846847D02*
X13293095Y-12837323D01*
X13331190Y-12837323D01*
X13350238Y-12846847D01*
X13359762Y-12856370D01*
X13369286Y-12875418D01*
X13369286Y-12932561D01*
X13359762Y-12951608D01*
X13350238Y-12961132D01*
X13331190Y-12970656D01*
X13293095Y-12970656D01*
X13274048Y-12961132D01*
X13483571Y-12970656D02*
X13464524Y-12961132D01*
X13455000Y-12942085D01*
X13455000Y-12770656D01*
X13645476Y-12970656D02*
X13645476Y-12865894D01*
X13635952Y-12846847D01*
X13616905Y-12837323D01*
X13578809Y-12837323D01*
X13559762Y-12846847D01*
X13645476Y-12961132D02*
X13626428Y-12970656D01*
X13578809Y-12970656D01*
X13559762Y-12961132D01*
X13550238Y-12942085D01*
X13550238Y-12923037D01*
X13559762Y-12903989D01*
X13578809Y-12894466D01*
X13626428Y-12894466D01*
X13645476Y-12884942D01*
X13712143Y-12837323D02*
X13788333Y-12837323D01*
X13740714Y-12770656D02*
X13740714Y-12942085D01*
X13750238Y-12961132D01*
X13769286Y-12970656D01*
X13788333Y-12970656D01*
X13931190Y-12961132D02*
X13912143Y-12970656D01*
X13874048Y-12970656D01*
X13855000Y-12961132D01*
X13845476Y-12942085D01*
X13845476Y-12865894D01*
X13855000Y-12846847D01*
X13874048Y-12837323D01*
X13912143Y-12837323D01*
X13931190Y-12846847D01*
X13940714Y-12865894D01*
X13940714Y-12884942D01*
X13845476Y-12903989D01*
X14112143Y-12970656D02*
X14112143Y-12770656D01*
X14112143Y-12961132D02*
X14093095Y-12970656D01*
X14055000Y-12970656D01*
X14035952Y-12961132D01*
X14026428Y-12951608D01*
X14016905Y-12932561D01*
X14016905Y-12875418D01*
X14026428Y-12856370D01*
X14035952Y-12846847D01*
X14055000Y-12837323D01*
X14093095Y-12837323D01*
X14112143Y-12846847D01*
X14188333Y-13046847D02*
X14197857Y-13037323D01*
X14216905Y-13008751D01*
X14226428Y-12989704D01*
X14235952Y-12961132D01*
X14245476Y-12913513D01*
X14245476Y-12875418D01*
X14235952Y-12827799D01*
X14226428Y-12799228D01*
X14216905Y-12780180D01*
X14197857Y-12751608D01*
X14188333Y-12742085D01*
X7045000Y-13100180D02*
X7245000Y-13300180D01*
X7245000Y-13100180D02*
X7045000Y-13300180D01*
X7245000Y-13200180D02*
G75*
G03*
X7245000Y-13200180I-100000J0D01*
G01*
X7588333Y-13157323D02*
X7588333Y-13290656D01*
X7540714Y-13081132D02*
X7493095Y-13223989D01*
X7616905Y-13223989D01*
X7693095Y-13271608D02*
X7702619Y-13281132D01*
X7693095Y-13290656D01*
X7683571Y-13281132D01*
X7693095Y-13271608D01*
X7693095Y-13290656D01*
X7826428Y-13090656D02*
X7845476Y-13090656D01*
X7864524Y-13100180D01*
X7874048Y-13109704D01*
X7883571Y-13128751D01*
X7893095Y-13166847D01*
X7893095Y-13214466D01*
X7883571Y-13252561D01*
X7874048Y-13271608D01*
X7864524Y-13281132D01*
X7845476Y-13290656D01*
X7826428Y-13290656D01*
X7807381Y-13281132D01*
X7797857Y-13271608D01*
X7788333Y-13252561D01*
X7778809Y-13214466D01*
X7778809Y-13166847D01*
X7788333Y-13128751D01*
X7797857Y-13109704D01*
X7807381Y-13100180D01*
X7826428Y-13090656D01*
X8016905Y-13090656D02*
X8035952Y-13090656D01*
X8055000Y-13100180D01*
X8064524Y-13109704D01*
X8074048Y-13128751D01*
X8083571Y-13166847D01*
X8083571Y-13214466D01*
X8074048Y-13252561D01*
X8064524Y-13271608D01*
X8055000Y-13281132D01*
X8035952Y-13290656D01*
X8016905Y-13290656D01*
X7997857Y-13281132D01*
X7988333Y-13271608D01*
X7978809Y-13252561D01*
X7969286Y-13214466D01*
X7969286Y-13166847D01*
X7978809Y-13128751D01*
X7988333Y-13109704D01*
X7997857Y-13100180D01*
X8016905Y-13090656D01*
X8207381Y-13090656D02*
X8226428Y-13090656D01*
X8245476Y-13100180D01*
X8255000Y-13109704D01*
X8264524Y-13128751D01*
X8274048Y-13166847D01*
X8274048Y-13214466D01*
X8264524Y-13252561D01*
X8255000Y-13271608D01*
X8245476Y-13281132D01*
X8226428Y-13290656D01*
X8207381Y-13290656D01*
X8188333Y-13281132D01*
X8178809Y-13271608D01*
X8169286Y-13252561D01*
X8159762Y-13214466D01*
X8159762Y-13166847D01*
X8169286Y-13128751D01*
X8178809Y-13109704D01*
X8188333Y-13100180D01*
X8207381Y-13090656D01*
X8359762Y-13290656D02*
X8359762Y-13157323D01*
X8359762Y-13176370D02*
X8369286Y-13166847D01*
X8388333Y-13157323D01*
X8416905Y-13157323D01*
X8435952Y-13166847D01*
X8445476Y-13185894D01*
X8445476Y-13290656D01*
X8445476Y-13185894D02*
X8455000Y-13166847D01*
X8474048Y-13157323D01*
X8502619Y-13157323D01*
X8521667Y-13166847D01*
X8531190Y-13185894D01*
X8531190Y-13290656D01*
X8626429Y-13290656D02*
X8626429Y-13157323D01*
X8626429Y-13176370D02*
X8635952Y-13166847D01*
X8655000Y-13157323D01*
X8683571Y-13157323D01*
X8702619Y-13166847D01*
X8712143Y-13185894D01*
X8712143Y-13290656D01*
X8712143Y-13185894D02*
X8721667Y-13166847D01*
X8740714Y-13157323D01*
X8769286Y-13157323D01*
X8788333Y-13166847D01*
X8797857Y-13185894D01*
X8797857Y-13290656D01*
X9188333Y-13081132D02*
X9016905Y-13338275D01*
X9445476Y-13090656D02*
X9464524Y-13090656D01*
X9483571Y-13100180D01*
X9493095Y-13109704D01*
X9502619Y-13128751D01*
X9512143Y-13166847D01*
X9512143Y-13214466D01*
X9502619Y-13252561D01*
X9493095Y-13271608D01*
X9483571Y-13281132D01*
X9464524Y-13290656D01*
X9445476Y-13290656D01*
X9426429Y-13281132D01*
X9416905Y-13271608D01*
X9407381Y-13252561D01*
X9397857Y-13214466D01*
X9397857Y-13166847D01*
X9407381Y-13128751D01*
X9416905Y-13109704D01*
X9426429Y-13100180D01*
X9445476Y-13090656D01*
X9597857Y-13271608D02*
X9607381Y-13281132D01*
X9597857Y-13290656D01*
X9588333Y-13281132D01*
X9597857Y-13271608D01*
X9597857Y-13290656D01*
X9797857Y-13290656D02*
X9683571Y-13290656D01*
X9740714Y-13290656D02*
X9740714Y-13090656D01*
X9721667Y-13119228D01*
X9702619Y-13138275D01*
X9683571Y-13147799D01*
X9978810Y-13090656D02*
X9883571Y-13090656D01*
X9874048Y-13185894D01*
X9883571Y-13176370D01*
X9902619Y-13166847D01*
X9950238Y-13166847D01*
X9969286Y-13176370D01*
X9978810Y-13185894D01*
X9988333Y-13204942D01*
X9988333Y-13252561D01*
X9978810Y-13271608D01*
X9969286Y-13281132D01*
X9950238Y-13290656D01*
X9902619Y-13290656D01*
X9883571Y-13281132D01*
X9874048Y-13271608D01*
X10055000Y-13090656D02*
X10188333Y-13090656D01*
X10102619Y-13290656D01*
X10359762Y-13090656D02*
X10264524Y-13090656D01*
X10255000Y-13185894D01*
X10264524Y-13176370D01*
X10283571Y-13166847D01*
X10331190Y-13166847D01*
X10350238Y-13176370D01*
X10359762Y-13185894D01*
X10369286Y-13204942D01*
X10369286Y-13252561D01*
X10359762Y-13271608D01*
X10350238Y-13281132D01*
X10331190Y-13290656D01*
X10283571Y-13290656D01*
X10264524Y-13281132D01*
X10255000Y-13271608D01*
X10445476Y-13090656D02*
X10445476Y-13128751D01*
X10521667Y-13090656D02*
X10521667Y-13128751D01*
X10816905Y-13366847D02*
X10807381Y-13357323D01*
X10788333Y-13328751D01*
X10778810Y-13309704D01*
X10769286Y-13281132D01*
X10759762Y-13233513D01*
X10759762Y-13195418D01*
X10769286Y-13147799D01*
X10778810Y-13119228D01*
X10788333Y-13100180D01*
X10807381Y-13071608D01*
X10816905Y-13062085D01*
X10997857Y-13290656D02*
X10883571Y-13290656D01*
X10940714Y-13290656D02*
X10940714Y-13090656D01*
X10921667Y-13119228D01*
X10902619Y-13138275D01*
X10883571Y-13147799D01*
X11235952Y-13290656D02*
X11235952Y-13090656D01*
X11321667Y-13290656D02*
X11321667Y-13185894D01*
X11312143Y-13166847D01*
X11293095Y-13157323D01*
X11264524Y-13157323D01*
X11245476Y-13166847D01*
X11235952Y-13176370D01*
X11445476Y-13290656D02*
X11426428Y-13281132D01*
X11416905Y-13271608D01*
X11407381Y-13252561D01*
X11407381Y-13195418D01*
X11416905Y-13176370D01*
X11426428Y-13166847D01*
X11445476Y-13157323D01*
X11474048Y-13157323D01*
X11493095Y-13166847D01*
X11502619Y-13176370D01*
X11512143Y-13195418D01*
X11512143Y-13252561D01*
X11502619Y-13271608D01*
X11493095Y-13281132D01*
X11474048Y-13290656D01*
X11445476Y-13290656D01*
X11626428Y-13290656D02*
X11607381Y-13281132D01*
X11597857Y-13262085D01*
X11597857Y-13090656D01*
X11778809Y-13281132D02*
X11759762Y-13290656D01*
X11721667Y-13290656D01*
X11702619Y-13281132D01*
X11693095Y-13262085D01*
X11693095Y-13185894D01*
X11702619Y-13166847D01*
X11721667Y-13157323D01*
X11759762Y-13157323D01*
X11778809Y-13166847D01*
X11788333Y-13185894D01*
X11788333Y-13204942D01*
X11693095Y-13223989D01*
X11855000Y-13366847D02*
X11864524Y-13357323D01*
X11883571Y-13328751D01*
X11893095Y-13309704D01*
X11902619Y-13281132D01*
X11912143Y-13233513D01*
X11912143Y-13195418D01*
X11902619Y-13147799D01*
X11893095Y-13119228D01*
X11883571Y-13100180D01*
X11864524Y-13071608D01*
X11855000Y-13062085D01*
X12216905Y-13366847D02*
X12207381Y-13357323D01*
X12188333Y-13328751D01*
X12178809Y-13309704D01*
X12169286Y-13281132D01*
X12159762Y-13233513D01*
X12159762Y-13195418D01*
X12169286Y-13147799D01*
X12178809Y-13119228D01*
X12188333Y-13100180D01*
X12207381Y-13071608D01*
X12216905Y-13062085D01*
X12293095Y-13157323D02*
X12293095Y-13290656D01*
X12293095Y-13176370D02*
X12302619Y-13166847D01*
X12321667Y-13157323D01*
X12350238Y-13157323D01*
X12369286Y-13166847D01*
X12378809Y-13185894D01*
X12378809Y-13290656D01*
X12502619Y-13290656D02*
X12483571Y-13281132D01*
X12474048Y-13271608D01*
X12464524Y-13252561D01*
X12464524Y-13195418D01*
X12474048Y-13176370D01*
X12483571Y-13166847D01*
X12502619Y-13157323D01*
X12531190Y-13157323D01*
X12550238Y-13166847D01*
X12559762Y-13176370D01*
X12569286Y-13195418D01*
X12569286Y-13252561D01*
X12559762Y-13271608D01*
X12550238Y-13281132D01*
X12531190Y-13290656D01*
X12502619Y-13290656D01*
X12626428Y-13157323D02*
X12702619Y-13157323D01*
X12655000Y-13090656D02*
X12655000Y-13262085D01*
X12664524Y-13281132D01*
X12683571Y-13290656D01*
X12702619Y-13290656D01*
X12921667Y-13157323D02*
X12921667Y-13357323D01*
X12921667Y-13166847D02*
X12940714Y-13157323D01*
X12978809Y-13157323D01*
X12997857Y-13166847D01*
X13007381Y-13176370D01*
X13016905Y-13195418D01*
X13016905Y-13252561D01*
X13007381Y-13271608D01*
X12997857Y-13281132D01*
X12978809Y-13290656D01*
X12940714Y-13290656D01*
X12921667Y-13281132D01*
X13131190Y-13290656D02*
X13112143Y-13281132D01*
X13102619Y-13262085D01*
X13102619Y-13090656D01*
X13293095Y-13290656D02*
X13293095Y-13185894D01*
X13283571Y-13166847D01*
X13264524Y-13157323D01*
X13226428Y-13157323D01*
X13207381Y-13166847D01*
X13293095Y-13281132D02*
X13274048Y-13290656D01*
X13226428Y-13290656D01*
X13207381Y-13281132D01*
X13197857Y-13262085D01*
X13197857Y-13243037D01*
X13207381Y-13223989D01*
X13226428Y-13214466D01*
X13274048Y-13214466D01*
X13293095Y-13204942D01*
X13359762Y-13157323D02*
X13435952Y-13157323D01*
X13388333Y-13090656D02*
X13388333Y-13262085D01*
X13397857Y-13281132D01*
X13416905Y-13290656D01*
X13435952Y-13290656D01*
X13578809Y-13281132D02*
X13559762Y-13290656D01*
X13521667Y-13290656D01*
X13502619Y-13281132D01*
X13493095Y-13262085D01*
X13493095Y-13185894D01*
X13502619Y-13166847D01*
X13521667Y-13157323D01*
X13559762Y-13157323D01*
X13578809Y-13166847D01*
X13588333Y-13185894D01*
X13588333Y-13204942D01*
X13493095Y-13223989D01*
X13759762Y-13290656D02*
X13759762Y-13090656D01*
X13759762Y-13281132D02*
X13740714Y-13290656D01*
X13702619Y-13290656D01*
X13683571Y-13281132D01*
X13674048Y-13271608D01*
X13664524Y-13252561D01*
X13664524Y-13195418D01*
X13674048Y-13176370D01*
X13683571Y-13166847D01*
X13702619Y-13157323D01*
X13740714Y-13157323D01*
X13759762Y-13166847D01*
X13835952Y-13366847D02*
X13845476Y-13357323D01*
X13864524Y-13328751D01*
X13874048Y-13309704D01*
X13883571Y-13281132D01*
X13893095Y-13233513D01*
X13893095Y-13195418D01*
X13883571Y-13147799D01*
X13874048Y-13119228D01*
X13864524Y-13100180D01*
X13845476Y-13071608D01*
X13835952Y-13062085D01*
M02*
