G04 #@! TF.GenerationSoftware,KiCad,Pcbnew,(6.0.8)*
G04 #@! TF.CreationDate,2023-05-18T22:35:39+10:00*
G04 #@! TF.ProjectId,shingleback,7368696e-676c-4656-9261-636b2e6b6963,rev?*
G04 #@! TF.SameCoordinates,Original*
G04 #@! TF.FileFunction,Legend,Bot*
G04 #@! TF.FilePolarity,Positive*
%FSLAX46Y46*%
G04 Gerber Fmt 4.6, Leading zero omitted, Abs format (unit mm)*
G04 Created by KiCad (PCBNEW (6.0.8)) date 2023-05-18 22:35:39*
%MOMM*%
%LPD*%
G01*
G04 APERTURE LIST*
%ADD10C,0.150000*%
%ADD11C,0.120000*%
%ADD12R,1.752600X1.752600*%
%ADD13C,1.752600*%
%ADD14C,0.450000*%
%ADD15C,1.701800*%
%ADD16C,3.987800*%
%ADD17C,2.286000*%
%ADD18R,1.600000X1.600000*%
%ADD19O,1.600000X1.600000*%
%ADD20C,1.500000*%
%ADD21C,2.100000*%
%ADD22R,2.000000X2.000000*%
%ADD23C,2.000000*%
%ADD24R,2.000000X3.200000*%
%ADD25C,1.650000*%
%ADD26C,1.950000*%
%ADD27C,2.400000*%
%ADD28C,4.000000*%
%ADD29C,1.700000*%
%ADD30C,2.200000*%
G04 APERTURE END LIST*
D10*
X160845238Y-28904761D02*
X160940476Y-28952380D01*
X161130952Y-28952380D01*
X161226190Y-28904761D01*
X161273809Y-28809523D01*
X161273809Y-28428571D01*
X161226190Y-28333333D01*
X161130952Y-28285714D01*
X160940476Y-28285714D01*
X160845238Y-28333333D01*
X160797619Y-28428571D01*
X160797619Y-28523809D01*
X161273809Y-28619047D01*
X160369047Y-28952380D02*
X160369047Y-28285714D01*
X160369047Y-28380952D02*
X160321428Y-28333333D01*
X160226190Y-28285714D01*
X160083333Y-28285714D01*
X159988095Y-28333333D01*
X159940476Y-28428571D01*
X159940476Y-28952380D01*
X159940476Y-28428571D02*
X159892857Y-28333333D01*
X159797619Y-28285714D01*
X159654761Y-28285714D01*
X159559523Y-28333333D01*
X159511904Y-28428571D01*
X159511904Y-28952380D01*
X159035714Y-28285714D02*
X159035714Y-29285714D01*
X159035714Y-28333333D02*
X158940476Y-28285714D01*
X158750000Y-28285714D01*
X158654761Y-28333333D01*
X158607142Y-28380952D01*
X158559523Y-28476190D01*
X158559523Y-28761904D01*
X158607142Y-28857142D01*
X158654761Y-28904761D01*
X158750000Y-28952380D01*
X158940476Y-28952380D01*
X159035714Y-28904761D01*
X158273809Y-28285714D02*
X157892857Y-28285714D01*
X158130952Y-27952380D02*
X158130952Y-28809523D01*
X158083333Y-28904761D01*
X157988095Y-28952380D01*
X157892857Y-28952380D01*
X157654761Y-28285714D02*
X157416666Y-28952380D01*
X157178571Y-28285714D02*
X157416666Y-28952380D01*
X157511904Y-29190476D01*
X157559523Y-29238095D01*
X157654761Y-29285714D01*
X160595238Y-81654761D02*
X160690476Y-81702380D01*
X160880952Y-81702380D01*
X160976190Y-81654761D01*
X161023809Y-81559523D01*
X161023809Y-81178571D01*
X160976190Y-81083333D01*
X160880952Y-81035714D01*
X160690476Y-81035714D01*
X160595238Y-81083333D01*
X160547619Y-81178571D01*
X160547619Y-81273809D01*
X161023809Y-81369047D01*
X160119047Y-81702380D02*
X160119047Y-81035714D01*
X160119047Y-81130952D02*
X160071428Y-81083333D01*
X159976190Y-81035714D01*
X159833333Y-81035714D01*
X159738095Y-81083333D01*
X159690476Y-81178571D01*
X159690476Y-81702380D01*
X159690476Y-81178571D02*
X159642857Y-81083333D01*
X159547619Y-81035714D01*
X159404761Y-81035714D01*
X159309523Y-81083333D01*
X159261904Y-81178571D01*
X159261904Y-81702380D01*
X158785714Y-81035714D02*
X158785714Y-82035714D01*
X158785714Y-81083333D02*
X158690476Y-81035714D01*
X158500000Y-81035714D01*
X158404761Y-81083333D01*
X158357142Y-81130952D01*
X158309523Y-81226190D01*
X158309523Y-81511904D01*
X158357142Y-81607142D01*
X158404761Y-81654761D01*
X158500000Y-81702380D01*
X158690476Y-81702380D01*
X158785714Y-81654761D01*
X158023809Y-81035714D02*
X157642857Y-81035714D01*
X157880952Y-80702380D02*
X157880952Y-81559523D01*
X157833333Y-81654761D01*
X157738095Y-81702380D01*
X157642857Y-81702380D01*
X157404761Y-81035714D02*
X157166666Y-81702380D01*
X156928571Y-81035714D02*
X157166666Y-81702380D01*
X157261904Y-81940476D01*
X157309523Y-81988095D01*
X157404761Y-82035714D01*
X182583333Y-45925714D02*
X182202380Y-45925714D01*
X182440476Y-45592380D02*
X182440476Y-46449523D01*
X182392857Y-46544761D01*
X182297619Y-46592380D01*
X182202380Y-46592380D01*
X181869047Y-46592380D02*
X181869047Y-45592380D01*
X181440476Y-46592380D02*
X181440476Y-46068571D01*
X181488095Y-45973333D01*
X181583333Y-45925714D01*
X181726190Y-45925714D01*
X181821428Y-45973333D01*
X181869047Y-46020952D01*
X180964285Y-46592380D02*
X180964285Y-45925714D01*
X180964285Y-45592380D02*
X181011904Y-45640000D01*
X180964285Y-45687619D01*
X180916666Y-45640000D01*
X180964285Y-45592380D01*
X180964285Y-45687619D01*
X180535714Y-46544761D02*
X180440476Y-46592380D01*
X180250000Y-46592380D01*
X180154761Y-46544761D01*
X180107142Y-46449523D01*
X180107142Y-46401904D01*
X180154761Y-46306666D01*
X180250000Y-46259047D01*
X180392857Y-46259047D01*
X180488095Y-46211428D01*
X180535714Y-46116190D01*
X180535714Y-46068571D01*
X180488095Y-45973333D01*
X180392857Y-45925714D01*
X180250000Y-45925714D01*
X180154761Y-45973333D01*
X178964285Y-46544761D02*
X178869047Y-46592380D01*
X178678571Y-46592380D01*
X178583333Y-46544761D01*
X178535714Y-46449523D01*
X178535714Y-46401904D01*
X178583333Y-46306666D01*
X178678571Y-46259047D01*
X178821428Y-46259047D01*
X178916666Y-46211428D01*
X178964285Y-46116190D01*
X178964285Y-46068571D01*
X178916666Y-45973333D01*
X178821428Y-45925714D01*
X178678571Y-45925714D01*
X178583333Y-45973333D01*
X178107142Y-45925714D02*
X178107142Y-46925714D01*
X178107142Y-45973333D02*
X178011904Y-45925714D01*
X177821428Y-45925714D01*
X177726190Y-45973333D01*
X177678571Y-46020952D01*
X177630952Y-46116190D01*
X177630952Y-46401904D01*
X177678571Y-46497142D01*
X177726190Y-46544761D01*
X177821428Y-46592380D01*
X178011904Y-46592380D01*
X178107142Y-46544761D01*
X176773809Y-46592380D02*
X176773809Y-46068571D01*
X176821428Y-45973333D01*
X176916666Y-45925714D01*
X177107142Y-45925714D01*
X177202380Y-45973333D01*
X176773809Y-46544761D02*
X176869047Y-46592380D01*
X177107142Y-46592380D01*
X177202380Y-46544761D01*
X177250000Y-46449523D01*
X177250000Y-46354285D01*
X177202380Y-46259047D01*
X177107142Y-46211428D01*
X176869047Y-46211428D01*
X176773809Y-46163809D01*
X175869047Y-46544761D02*
X175964285Y-46592380D01*
X176154761Y-46592380D01*
X176250000Y-46544761D01*
X176297619Y-46497142D01*
X176345238Y-46401904D01*
X176345238Y-46116190D01*
X176297619Y-46020952D01*
X176250000Y-45973333D01*
X176154761Y-45925714D01*
X175964285Y-45925714D01*
X175869047Y-45973333D01*
X175059523Y-46544761D02*
X175154761Y-46592380D01*
X175345238Y-46592380D01*
X175440476Y-46544761D01*
X175488095Y-46449523D01*
X175488095Y-46068571D01*
X175440476Y-45973333D01*
X175345238Y-45925714D01*
X175154761Y-45925714D01*
X175059523Y-45973333D01*
X175011904Y-46068571D01*
X175011904Y-46163809D01*
X175488095Y-46259047D01*
X183154761Y-48202380D02*
X183154761Y-47535714D01*
X183154761Y-47202380D02*
X183202380Y-47250000D01*
X183154761Y-47297619D01*
X183107142Y-47250000D01*
X183154761Y-47202380D01*
X183154761Y-47297619D01*
X182678571Y-47535714D02*
X182678571Y-48202380D01*
X182678571Y-47630952D02*
X182630952Y-47583333D01*
X182535714Y-47535714D01*
X182392857Y-47535714D01*
X182297619Y-47583333D01*
X182250000Y-47678571D01*
X182250000Y-48202380D01*
X181916666Y-47535714D02*
X181535714Y-47535714D01*
X181773809Y-47202380D02*
X181773809Y-48059523D01*
X181726190Y-48154761D01*
X181630952Y-48202380D01*
X181535714Y-48202380D01*
X180821428Y-48154761D02*
X180916666Y-48202380D01*
X181107142Y-48202380D01*
X181202380Y-48154761D01*
X181250000Y-48059523D01*
X181250000Y-47678571D01*
X181202380Y-47583333D01*
X181107142Y-47535714D01*
X180916666Y-47535714D01*
X180821428Y-47583333D01*
X180773809Y-47678571D01*
X180773809Y-47773809D01*
X181250000Y-47869047D01*
X180345238Y-47535714D02*
X180345238Y-48202380D01*
X180345238Y-47630952D02*
X180297619Y-47583333D01*
X180202380Y-47535714D01*
X180059523Y-47535714D01*
X179964285Y-47583333D01*
X179916666Y-47678571D01*
X179916666Y-48202380D01*
X179583333Y-47535714D02*
X179202380Y-47535714D01*
X179440476Y-47202380D02*
X179440476Y-48059523D01*
X179392857Y-48154761D01*
X179297619Y-48202380D01*
X179202380Y-48202380D01*
X178869047Y-48202380D02*
X178869047Y-47535714D01*
X178869047Y-47202380D02*
X178916666Y-47250000D01*
X178869047Y-47297619D01*
X178821428Y-47250000D01*
X178869047Y-47202380D01*
X178869047Y-47297619D01*
X178250000Y-48202380D02*
X178345238Y-48154761D01*
X178392857Y-48107142D01*
X178440476Y-48011904D01*
X178440476Y-47726190D01*
X178392857Y-47630952D01*
X178345238Y-47583333D01*
X178250000Y-47535714D01*
X178107142Y-47535714D01*
X178011904Y-47583333D01*
X177964285Y-47630952D01*
X177916666Y-47726190D01*
X177916666Y-48011904D01*
X177964285Y-48107142D01*
X178011904Y-48154761D01*
X178107142Y-48202380D01*
X178250000Y-48202380D01*
X177488095Y-47535714D02*
X177488095Y-48202380D01*
X177488095Y-47630952D02*
X177440476Y-47583333D01*
X177345238Y-47535714D01*
X177202380Y-47535714D01*
X177107142Y-47583333D01*
X177059523Y-47678571D01*
X177059523Y-48202380D01*
X176154761Y-48202380D02*
X176154761Y-47678571D01*
X176202380Y-47583333D01*
X176297619Y-47535714D01*
X176488095Y-47535714D01*
X176583333Y-47583333D01*
X176154761Y-48154761D02*
X176250000Y-48202380D01*
X176488095Y-48202380D01*
X176583333Y-48154761D01*
X176630952Y-48059523D01*
X176630952Y-47964285D01*
X176583333Y-47869047D01*
X176488095Y-47821428D01*
X176250000Y-47821428D01*
X176154761Y-47773809D01*
X175535714Y-48202380D02*
X175630952Y-48154761D01*
X175678571Y-48059523D01*
X175678571Y-47202380D01*
X175011904Y-48202380D02*
X175107142Y-48154761D01*
X175154761Y-48059523D01*
X175154761Y-47202380D01*
X174726190Y-47535714D02*
X174488095Y-48202380D01*
X174250000Y-47535714D02*
X174488095Y-48202380D01*
X174583333Y-48440476D01*
X174630952Y-48488095D01*
X174726190Y-48535714D01*
X182035714Y-49812380D02*
X182130952Y-49764761D01*
X182178571Y-49669523D01*
X182178571Y-48812380D01*
X181273809Y-49764761D02*
X181369047Y-49812380D01*
X181559523Y-49812380D01*
X181654761Y-49764761D01*
X181702380Y-49669523D01*
X181702380Y-49288571D01*
X181654761Y-49193333D01*
X181559523Y-49145714D01*
X181369047Y-49145714D01*
X181273809Y-49193333D01*
X181226190Y-49288571D01*
X181226190Y-49383809D01*
X181702380Y-49479047D01*
X180940476Y-49145714D02*
X180559523Y-49145714D01*
X180797619Y-49812380D02*
X180797619Y-48955238D01*
X180750000Y-48860000D01*
X180654761Y-48812380D01*
X180559523Y-48812380D01*
X180369047Y-49145714D02*
X179988095Y-49145714D01*
X180226190Y-48812380D02*
X180226190Y-49669523D01*
X180178571Y-49764761D01*
X180083333Y-49812380D01*
X179988095Y-49812380D01*
X178892857Y-49812380D02*
X178892857Y-48812380D01*
X178892857Y-49193333D02*
X178797619Y-49145714D01*
X178607142Y-49145714D01*
X178511904Y-49193333D01*
X178464285Y-49240952D01*
X178416666Y-49336190D01*
X178416666Y-49621904D01*
X178464285Y-49717142D01*
X178511904Y-49764761D01*
X178607142Y-49812380D01*
X178797619Y-49812380D01*
X178892857Y-49764761D01*
X177845238Y-49812380D02*
X177940476Y-49764761D01*
X177988095Y-49669523D01*
X177988095Y-48812380D01*
X177035714Y-49812380D02*
X177035714Y-49288571D01*
X177083333Y-49193333D01*
X177178571Y-49145714D01*
X177369047Y-49145714D01*
X177464285Y-49193333D01*
X177035714Y-49764761D02*
X177130952Y-49812380D01*
X177369047Y-49812380D01*
X177464285Y-49764761D01*
X177511904Y-49669523D01*
X177511904Y-49574285D01*
X177464285Y-49479047D01*
X177369047Y-49431428D01*
X177130952Y-49431428D01*
X177035714Y-49383809D01*
X176559523Y-49145714D02*
X176559523Y-49812380D01*
X176559523Y-49240952D02*
X176511904Y-49193333D01*
X176416666Y-49145714D01*
X176273809Y-49145714D01*
X176178571Y-49193333D01*
X176130952Y-49288571D01*
X176130952Y-49812380D01*
X175654761Y-49812380D02*
X175654761Y-48812380D01*
X175559523Y-49431428D02*
X175273809Y-49812380D01*
X175273809Y-49145714D02*
X175654761Y-49526666D01*
X123345238Y-86154761D02*
X123440476Y-86202380D01*
X123630952Y-86202380D01*
X123726190Y-86154761D01*
X123773809Y-86059523D01*
X123773809Y-85678571D01*
X123726190Y-85583333D01*
X123630952Y-85535714D01*
X123440476Y-85535714D01*
X123345238Y-85583333D01*
X123297619Y-85678571D01*
X123297619Y-85773809D01*
X123773809Y-85869047D01*
X122869047Y-86202380D02*
X122869047Y-85535714D01*
X122869047Y-85630952D02*
X122821428Y-85583333D01*
X122726190Y-85535714D01*
X122583333Y-85535714D01*
X122488095Y-85583333D01*
X122440476Y-85678571D01*
X122440476Y-86202380D01*
X122440476Y-85678571D02*
X122392857Y-85583333D01*
X122297619Y-85535714D01*
X122154761Y-85535714D01*
X122059523Y-85583333D01*
X122011904Y-85678571D01*
X122011904Y-86202380D01*
X121535714Y-85535714D02*
X121535714Y-86535714D01*
X121535714Y-85583333D02*
X121440476Y-85535714D01*
X121250000Y-85535714D01*
X121154761Y-85583333D01*
X121107142Y-85630952D01*
X121059523Y-85726190D01*
X121059523Y-86011904D01*
X121107142Y-86107142D01*
X121154761Y-86154761D01*
X121250000Y-86202380D01*
X121440476Y-86202380D01*
X121535714Y-86154761D01*
X120773809Y-85535714D02*
X120392857Y-85535714D01*
X120630952Y-85202380D02*
X120630952Y-86059523D01*
X120583333Y-86154761D01*
X120488095Y-86202380D01*
X120392857Y-86202380D01*
X120154761Y-85535714D02*
X119916666Y-86202380D01*
X119678571Y-85535714D02*
X119916666Y-86202380D01*
X120011904Y-86440476D01*
X120059523Y-86488095D01*
X120154761Y-86535714D01*
X185047619Y-81511904D02*
X185714285Y-81511904D01*
X185523809Y-81511904D02*
X185619047Y-81464285D01*
X185666666Y-81416666D01*
X185714285Y-81321428D01*
X185714285Y-81226190D01*
X185714285Y-80892857D02*
X184857142Y-80892857D01*
X184761904Y-80940476D01*
X184714285Y-81035714D01*
X184714285Y-81083333D01*
X186047619Y-80892857D02*
X186000000Y-80940476D01*
X185952380Y-80892857D01*
X186000000Y-80845238D01*
X186047619Y-80892857D01*
X185952380Y-80892857D01*
X185714285Y-79988095D02*
X185047619Y-79988095D01*
X186095238Y-80226190D02*
X185380952Y-80464285D01*
X185380952Y-79845238D01*
X186047619Y-78988095D02*
X186047619Y-79464285D01*
X185571428Y-79511904D01*
X185619047Y-79464285D01*
X185666666Y-79369047D01*
X185666666Y-79130952D01*
X185619047Y-79035714D01*
X185571428Y-78988095D01*
X185476190Y-78940476D01*
X185238095Y-78940476D01*
X185142857Y-78988095D01*
X185095238Y-79035714D01*
X185047619Y-79130952D01*
X185047619Y-79369047D01*
X185095238Y-79464285D01*
X185142857Y-79511904D01*
X180642857Y-97404761D02*
X180547619Y-97452380D01*
X180357142Y-97452380D01*
X180261904Y-97404761D01*
X180214285Y-97309523D01*
X180214285Y-97261904D01*
X180261904Y-97166666D01*
X180357142Y-97119047D01*
X180500000Y-97119047D01*
X180595238Y-97071428D01*
X180642857Y-96976190D01*
X180642857Y-96928571D01*
X180595238Y-96833333D01*
X180500000Y-96785714D01*
X180357142Y-96785714D01*
X180261904Y-96833333D01*
X179880952Y-96785714D02*
X179690476Y-97452380D01*
X179500000Y-96976190D01*
X179309523Y-97452380D01*
X179119047Y-96785714D01*
X178738095Y-97452380D02*
X178738095Y-96785714D01*
X178738095Y-96452380D02*
X178785714Y-96500000D01*
X178738095Y-96547619D01*
X178690476Y-96500000D01*
X178738095Y-96452380D01*
X178738095Y-96547619D01*
X178404761Y-96785714D02*
X178023809Y-96785714D01*
X178261904Y-96452380D02*
X178261904Y-97309523D01*
X178214285Y-97404761D01*
X178119047Y-97452380D01*
X178023809Y-97452380D01*
X177261904Y-97404761D02*
X177357142Y-97452380D01*
X177547619Y-97452380D01*
X177642857Y-97404761D01*
X177690476Y-97357142D01*
X177738095Y-97261904D01*
X177738095Y-96976190D01*
X177690476Y-96880952D01*
X177642857Y-96833333D01*
X177547619Y-96785714D01*
X177357142Y-96785714D01*
X177261904Y-96833333D01*
X176833333Y-97452380D02*
X176833333Y-96452380D01*
X176404761Y-97452380D02*
X176404761Y-96928571D01*
X176452380Y-96833333D01*
X176547619Y-96785714D01*
X176690476Y-96785714D01*
X176785714Y-96833333D01*
X176833333Y-96880952D01*
D11*
X131750000Y-103865000D02*
X131750000Y-103215000D01*
X132870000Y-102495000D02*
X130630000Y-102495000D01*
X131750000Y-98325000D02*
X131750000Y-98975000D01*
X132870000Y-103215000D02*
X130630000Y-103215000D01*
X130630000Y-103215000D02*
X130630000Y-98975000D01*
X132870000Y-98975000D02*
X132870000Y-103215000D01*
X130630000Y-98975000D02*
X132870000Y-98975000D01*
X132870000Y-102375000D02*
X130630000Y-102375000D01*
X132870000Y-102615000D02*
X130630000Y-102615000D01*
X151870000Y-41975000D02*
X151870000Y-46215000D01*
X151870000Y-46215000D02*
X149630000Y-46215000D01*
X151870000Y-45495000D02*
X149630000Y-45495000D01*
X151870000Y-45615000D02*
X149630000Y-45615000D01*
X150750000Y-46865000D02*
X150750000Y-46215000D01*
X149630000Y-46215000D02*
X149630000Y-41975000D01*
X150750000Y-41325000D02*
X150750000Y-41975000D01*
X149630000Y-41975000D02*
X151870000Y-41975000D01*
X151870000Y-45375000D02*
X149630000Y-45375000D01*
X110200000Y-65865000D02*
X110200000Y-65215000D01*
X111320000Y-64495000D02*
X109080000Y-64495000D01*
X109080000Y-65215000D02*
X109080000Y-60975000D01*
X111320000Y-65215000D02*
X109080000Y-65215000D01*
X111320000Y-64375000D02*
X109080000Y-64375000D01*
X110200000Y-60325000D02*
X110200000Y-60975000D01*
X111320000Y-64615000D02*
X109080000Y-64615000D01*
X109080000Y-60975000D02*
X111320000Y-60975000D01*
X111320000Y-60975000D02*
X111320000Y-65215000D01*
X129200000Y-75615000D02*
X129200000Y-74965000D01*
X130320000Y-74965000D02*
X128080000Y-74965000D01*
X130320000Y-74245000D02*
X128080000Y-74245000D01*
X129200000Y-70075000D02*
X129200000Y-70725000D01*
X130320000Y-74125000D02*
X128080000Y-74125000D01*
X128080000Y-70725000D02*
X130320000Y-70725000D01*
X130320000Y-74365000D02*
X128080000Y-74365000D01*
X130320000Y-70725000D02*
X130320000Y-74965000D01*
X128080000Y-74965000D02*
X128080000Y-70725000D01*
X91200000Y-79325000D02*
X91200000Y-79975000D01*
X92320000Y-83615000D02*
X90080000Y-83615000D01*
X90080000Y-79975000D02*
X92320000Y-79975000D01*
X92320000Y-83495000D02*
X90080000Y-83495000D01*
X91200000Y-84865000D02*
X91200000Y-84215000D01*
X92320000Y-83375000D02*
X90080000Y-83375000D01*
X92320000Y-79975000D02*
X92320000Y-84215000D01*
X90080000Y-84215000D02*
X90080000Y-79975000D01*
X92320000Y-84215000D02*
X90080000Y-84215000D01*
X92320000Y-102375000D02*
X90080000Y-102375000D01*
X91200000Y-103865000D02*
X91200000Y-103215000D01*
X92320000Y-102495000D02*
X90080000Y-102495000D01*
X92320000Y-98975000D02*
X92320000Y-103215000D01*
X92320000Y-102615000D02*
X90080000Y-102615000D01*
X91200000Y-98325000D02*
X91200000Y-98975000D01*
X90080000Y-98975000D02*
X92320000Y-98975000D01*
X90080000Y-103215000D02*
X90080000Y-98975000D01*
X92320000Y-103215000D02*
X90080000Y-103215000D01*
X113870000Y-32725000D02*
X113870000Y-36965000D01*
X111630000Y-32725000D02*
X113870000Y-32725000D01*
X113870000Y-36965000D02*
X111630000Y-36965000D01*
X113870000Y-36365000D02*
X111630000Y-36365000D01*
X113870000Y-36245000D02*
X111630000Y-36245000D01*
X111630000Y-36965000D02*
X111630000Y-32725000D01*
X112750000Y-37615000D02*
X112750000Y-36965000D01*
X113870000Y-36125000D02*
X111630000Y-36125000D01*
X112750000Y-32075000D02*
X112750000Y-32725000D01*
X111320000Y-84215000D02*
X109080000Y-84215000D01*
X110200000Y-79325000D02*
X110200000Y-79975000D01*
X110200000Y-84865000D02*
X110200000Y-84215000D01*
X111320000Y-83615000D02*
X109080000Y-83615000D01*
X109080000Y-79975000D02*
X111320000Y-79975000D01*
X111320000Y-83495000D02*
X109080000Y-83495000D01*
X111320000Y-83375000D02*
X109080000Y-83375000D01*
X109080000Y-84215000D02*
X109080000Y-79975000D01*
X111320000Y-79975000D02*
X111320000Y-84215000D01*
X149320000Y-79975000D02*
X149320000Y-84215000D01*
X147080000Y-84215000D02*
X147080000Y-79975000D01*
X149320000Y-83495000D02*
X147080000Y-83495000D01*
X149320000Y-84215000D02*
X147080000Y-84215000D01*
X147080000Y-79975000D02*
X149320000Y-79975000D01*
X149320000Y-83375000D02*
X147080000Y-83375000D01*
X149320000Y-83615000D02*
X147080000Y-83615000D01*
X148200000Y-84865000D02*
X148200000Y-84215000D01*
X148200000Y-79325000D02*
X148200000Y-79975000D01*
X150750000Y-65865000D02*
X150750000Y-65215000D01*
X151870000Y-64375000D02*
X149630000Y-64375000D01*
X151870000Y-64615000D02*
X149630000Y-64615000D01*
X151870000Y-64495000D02*
X149630000Y-64495000D01*
X151870000Y-65215000D02*
X149630000Y-65215000D01*
X149630000Y-60975000D02*
X151870000Y-60975000D01*
X151870000Y-60975000D02*
X151870000Y-65215000D01*
X150750000Y-60325000D02*
X150750000Y-60975000D01*
X149630000Y-65215000D02*
X149630000Y-60975000D01*
X94870000Y-45615000D02*
X92630000Y-45615000D01*
X94870000Y-45495000D02*
X92630000Y-45495000D01*
X92630000Y-46215000D02*
X92630000Y-41975000D01*
X93750000Y-41325000D02*
X93750000Y-41975000D01*
X92630000Y-41975000D02*
X94870000Y-41975000D01*
X94870000Y-45375000D02*
X92630000Y-45375000D01*
X94870000Y-46215000D02*
X92630000Y-46215000D01*
X94870000Y-41975000D02*
X94870000Y-46215000D01*
X93750000Y-46865000D02*
X93750000Y-46215000D01*
X170525000Y-109370000D02*
X166285000Y-109370000D01*
X166885000Y-109370000D02*
X166885000Y-107130000D01*
X167125000Y-109370000D02*
X167125000Y-107130000D01*
X165635000Y-108250000D02*
X166285000Y-108250000D01*
X166285000Y-107130000D02*
X170525000Y-107130000D01*
X171175000Y-108250000D02*
X170525000Y-108250000D01*
X170525000Y-107130000D02*
X170525000Y-109370000D01*
X167005000Y-109370000D02*
X167005000Y-107130000D01*
X166285000Y-109370000D02*
X166285000Y-107130000D01*
X151920000Y-103204717D02*
X149680000Y-103204717D01*
X151920000Y-102484717D02*
X149680000Y-102484717D01*
X149680000Y-103204717D02*
X149680000Y-98964717D01*
X151920000Y-102364717D02*
X149680000Y-102364717D01*
X150800000Y-98314717D02*
X150800000Y-98964717D01*
X151920000Y-102604717D02*
X149680000Y-102604717D01*
X151920000Y-98964717D02*
X151920000Y-103204717D01*
X149680000Y-98964717D02*
X151920000Y-98964717D01*
X150800000Y-103854717D02*
X150800000Y-103204717D01*
X130320000Y-51725000D02*
X130320000Y-55965000D01*
X130320000Y-55245000D02*
X128080000Y-55245000D01*
X128080000Y-51725000D02*
X130320000Y-51725000D01*
X130320000Y-55365000D02*
X128080000Y-55365000D01*
X130320000Y-55965000D02*
X128080000Y-55965000D01*
X129200000Y-51075000D02*
X129200000Y-51725000D01*
X129200000Y-56615000D02*
X129200000Y-55965000D01*
X128080000Y-55965000D02*
X128080000Y-51725000D01*
X130320000Y-55125000D02*
X128080000Y-55125000D01*
X130630000Y-46215000D02*
X130630000Y-41975000D01*
X132870000Y-46215000D02*
X130630000Y-46215000D01*
X132870000Y-45375000D02*
X130630000Y-45375000D01*
X132870000Y-45615000D02*
X130630000Y-45615000D01*
X132870000Y-45495000D02*
X130630000Y-45495000D01*
X132870000Y-41975000D02*
X132870000Y-46215000D01*
X131750000Y-46865000D02*
X131750000Y-46215000D01*
X130630000Y-41975000D02*
X132870000Y-41975000D01*
X131750000Y-41325000D02*
X131750000Y-41975000D01*
X147080000Y-65215000D02*
X147080000Y-60975000D01*
X149320000Y-64375000D02*
X147080000Y-64375000D01*
X149320000Y-60975000D02*
X149320000Y-65215000D01*
X149320000Y-64495000D02*
X147080000Y-64495000D01*
X148200000Y-65865000D02*
X148200000Y-65215000D01*
X147080000Y-60975000D02*
X149320000Y-60975000D01*
X149320000Y-64615000D02*
X147080000Y-64615000D01*
X148200000Y-60325000D02*
X148200000Y-60975000D01*
X149320000Y-65215000D02*
X147080000Y-65215000D01*
X174500000Y-72250000D02*
X187500000Y-72250000D01*
X174500000Y-87250000D02*
X174500000Y-72250000D01*
X187500000Y-87250000D02*
X174500000Y-87250000D01*
X187500000Y-72250000D02*
X187500000Y-87250000D01*
X185608410Y-92995000D02*
X171638410Y-92995000D01*
X171638410Y-92995000D02*
X171638410Y-106965000D01*
X171638410Y-106965000D02*
X185608410Y-106965000D01*
X185608410Y-106965000D02*
X185608410Y-92995000D01*
D12*
X171000000Y-33560000D03*
D13*
X171000000Y-36100000D03*
X171000000Y-38640000D03*
X171000000Y-41180000D03*
X171000000Y-43720000D03*
X171000000Y-46260000D03*
X171000000Y-48800000D03*
X171000000Y-51340000D03*
X171000000Y-53880000D03*
X171000000Y-56420000D03*
X171000000Y-58960000D03*
X171000000Y-61500000D03*
X186240000Y-33560000D03*
X186240000Y-36100000D03*
X186240000Y-38640000D03*
X186240000Y-41180000D03*
X186240000Y-43720000D03*
X186240000Y-46260000D03*
X186240000Y-48800000D03*
X186240000Y-51340000D03*
X186240000Y-53880000D03*
X186240000Y-56420000D03*
X186240000Y-58960000D03*
X186240000Y-61500000D03*
%LPC*%
D14*
X124136071Y-100299285D02*
X123850357Y-100442142D01*
X123278928Y-100442142D01*
X122993214Y-100299285D01*
X122850357Y-100013571D01*
X122850357Y-99870714D01*
X122993214Y-99585000D01*
X123278928Y-99442142D01*
X123707500Y-99442142D01*
X123993214Y-99299285D01*
X124136071Y-99013571D01*
X124136071Y-98870714D01*
X123993214Y-98585000D01*
X123707500Y-98442142D01*
X123278928Y-98442142D01*
X122993214Y-98585000D01*
X121564642Y-100442142D02*
X121564642Y-97442142D01*
X120278928Y-100442142D02*
X120278928Y-98870714D01*
X120421785Y-98585000D01*
X120707500Y-98442142D01*
X121136071Y-98442142D01*
X121421785Y-98585000D01*
X121564642Y-98727857D01*
X118850357Y-100442142D02*
X118850357Y-98442142D01*
X118850357Y-97442142D02*
X118993214Y-97585000D01*
X118850357Y-97727857D01*
X118707500Y-97585000D01*
X118850357Y-97442142D01*
X118850357Y-97727857D01*
X117421785Y-98442142D02*
X117421785Y-100442142D01*
X117421785Y-98727857D02*
X117278928Y-98585000D01*
X116993214Y-98442142D01*
X116564642Y-98442142D01*
X116278928Y-98585000D01*
X116136071Y-98870714D01*
X116136071Y-100442142D01*
X113421785Y-98442142D02*
X113421785Y-100870714D01*
X113564642Y-101156428D01*
X113707500Y-101299285D01*
X113993214Y-101442142D01*
X114421785Y-101442142D01*
X114707500Y-101299285D01*
X113421785Y-100299285D02*
X113707500Y-100442142D01*
X114278928Y-100442142D01*
X114564642Y-100299285D01*
X114707500Y-100156428D01*
X114850357Y-99870714D01*
X114850357Y-99013571D01*
X114707500Y-98727857D01*
X114564642Y-98585000D01*
X114278928Y-98442142D01*
X113707500Y-98442142D01*
X113421785Y-98585000D01*
X111564642Y-100442142D02*
X111850357Y-100299285D01*
X111993214Y-100013571D01*
X111993214Y-97442142D01*
X109278928Y-100299285D02*
X109564642Y-100442142D01*
X110136071Y-100442142D01*
X110421785Y-100299285D01*
X110564642Y-100013571D01*
X110564642Y-98870714D01*
X110421785Y-98585000D01*
X110136071Y-98442142D01*
X109564642Y-98442142D01*
X109278928Y-98585000D01*
X109136071Y-98870714D01*
X109136071Y-99156428D01*
X110564642Y-99442142D01*
X107850357Y-100442142D02*
X107850357Y-97442142D01*
X107850357Y-98585000D02*
X107564642Y-98442142D01*
X106993214Y-98442142D01*
X106707500Y-98585000D01*
X106564642Y-98727857D01*
X106421785Y-99013571D01*
X106421785Y-99870714D01*
X106564642Y-100156428D01*
X106707500Y-100299285D01*
X106993214Y-100442142D01*
X107564642Y-100442142D01*
X107850357Y-100299285D01*
X103850357Y-100442142D02*
X103850357Y-98870714D01*
X103993214Y-98585000D01*
X104278928Y-98442142D01*
X104850357Y-98442142D01*
X105136071Y-98585000D01*
X103850357Y-100299285D02*
X104136071Y-100442142D01*
X104850357Y-100442142D01*
X105136071Y-100299285D01*
X105278928Y-100013571D01*
X105278928Y-99727857D01*
X105136071Y-99442142D01*
X104850357Y-99299285D01*
X104136071Y-99299285D01*
X103850357Y-99156428D01*
X101136071Y-100299285D02*
X101421785Y-100442142D01*
X101993214Y-100442142D01*
X102278928Y-100299285D01*
X102421785Y-100156428D01*
X102564642Y-99870714D01*
X102564642Y-99013571D01*
X102421785Y-98727857D01*
X102278928Y-98585000D01*
X101993214Y-98442142D01*
X101421785Y-98442142D01*
X101136071Y-98585000D01*
X99850357Y-100442142D02*
X99850357Y-97442142D01*
X99564642Y-99299285D02*
X98707500Y-100442142D01*
X98707500Y-98442142D02*
X99850357Y-99585000D01*
X123993214Y-105272142D02*
X123993214Y-103272142D01*
X123993214Y-103843571D02*
X123850357Y-103557857D01*
X123707500Y-103415000D01*
X123421785Y-103272142D01*
X123136071Y-103272142D01*
X120993214Y-105129285D02*
X121278928Y-105272142D01*
X121850357Y-105272142D01*
X122136071Y-105129285D01*
X122278928Y-104843571D01*
X122278928Y-103700714D01*
X122136071Y-103415000D01*
X121850357Y-103272142D01*
X121278928Y-103272142D01*
X120993214Y-103415000D01*
X120850357Y-103700714D01*
X120850357Y-103986428D01*
X122278928Y-104272142D01*
X119850357Y-103272142D02*
X119136071Y-105272142D01*
X118421785Y-103272142D01*
X115707500Y-105272142D02*
X117421785Y-105272142D01*
X116564642Y-105272142D02*
X116564642Y-102272142D01*
X116850357Y-102700714D01*
X117136071Y-102986428D01*
X117421785Y-103129285D01*
D10*
X160178571Y-109202380D02*
X160178571Y-108202380D01*
X160178571Y-108583333D02*
X160083333Y-108535714D01*
X159892857Y-108535714D01*
X159797619Y-108583333D01*
X159750000Y-108630952D01*
X159702380Y-108726190D01*
X159702380Y-109011904D01*
X159750000Y-109107142D01*
X159797619Y-109154761D01*
X159892857Y-109202380D01*
X160083333Y-109202380D01*
X160178571Y-109154761D01*
X159369047Y-108535714D02*
X159130952Y-109202380D01*
X158892857Y-108535714D02*
X159130952Y-109202380D01*
X159226190Y-109440476D01*
X159273809Y-109488095D01*
X159369047Y-109535714D01*
X157321428Y-108535714D02*
X157321428Y-109345238D01*
X157369047Y-109440476D01*
X157416666Y-109488095D01*
X157511904Y-109535714D01*
X157654761Y-109535714D01*
X157750000Y-109488095D01*
X157321428Y-109154761D02*
X157416666Y-109202380D01*
X157607142Y-109202380D01*
X157702380Y-109154761D01*
X157750000Y-109107142D01*
X157797619Y-109011904D01*
X157797619Y-108726190D01*
X157750000Y-108630952D01*
X157702380Y-108583333D01*
X157607142Y-108535714D01*
X157416666Y-108535714D01*
X157321428Y-108583333D01*
X156845238Y-108535714D02*
X156845238Y-109202380D01*
X156845238Y-108630952D02*
X156797619Y-108583333D01*
X156702380Y-108535714D01*
X156559523Y-108535714D01*
X156464285Y-108583333D01*
X156416666Y-108678571D01*
X156416666Y-109202380D01*
X155511904Y-109202380D02*
X155511904Y-108678571D01*
X155559523Y-108583333D01*
X155654761Y-108535714D01*
X155845238Y-108535714D01*
X155940476Y-108583333D01*
X155511904Y-109154761D02*
X155607142Y-109202380D01*
X155845238Y-109202380D01*
X155940476Y-109154761D01*
X155988095Y-109059523D01*
X155988095Y-108964285D01*
X155940476Y-108869047D01*
X155845238Y-108821428D01*
X155607142Y-108821428D01*
X155511904Y-108773809D01*
X155130952Y-108535714D02*
X154940476Y-109202380D01*
X154750000Y-108726190D01*
X154559523Y-109202380D01*
X154369047Y-108535714D01*
X153988095Y-109202380D02*
X153988095Y-108535714D01*
X153988095Y-108630952D02*
X153940476Y-108583333D01*
X153845238Y-108535714D01*
X153702380Y-108535714D01*
X153607142Y-108583333D01*
X153559523Y-108678571D01*
X153559523Y-109202380D01*
X153559523Y-108678571D02*
X153511904Y-108583333D01*
X153416666Y-108535714D01*
X153273809Y-108535714D01*
X153178571Y-108583333D01*
X153130952Y-108678571D01*
X153130952Y-109202380D01*
X152226190Y-109202380D02*
X152226190Y-108678571D01*
X152273809Y-108583333D01*
X152369047Y-108535714D01*
X152559523Y-108535714D01*
X152654761Y-108583333D01*
X152226190Y-109154761D02*
X152321428Y-109202380D01*
X152559523Y-109202380D01*
X152654761Y-109154761D01*
X152702380Y-109059523D01*
X152702380Y-108964285D01*
X152654761Y-108869047D01*
X152559523Y-108821428D01*
X152321428Y-108821428D01*
X152226190Y-108773809D01*
X151750000Y-108535714D02*
X151750000Y-109202380D01*
X151750000Y-108630952D02*
X151702380Y-108583333D01*
X151607142Y-108535714D01*
X151464285Y-108535714D01*
X151369047Y-108583333D01*
X151321428Y-108678571D01*
X151321428Y-109202380D01*
D15*
X164120000Y-62080000D03*
X153960000Y-62080000D03*
D16*
X159040000Y-62080000D03*
D17*
X156500000Y-57000000D03*
X161580000Y-57000000D03*
X162850000Y-59540000D03*
X155230000Y-59540000D03*
D15*
X126120000Y-33830000D03*
X115960000Y-33830000D03*
D16*
X121040000Y-33830000D03*
D17*
X118500000Y-28750000D03*
X123580000Y-28750000D03*
X117230000Y-31290000D03*
X124850000Y-31290000D03*
D15*
X96960000Y-43080000D03*
D16*
X102040000Y-43080000D03*
D15*
X107120000Y-43080000D03*
D17*
X104580000Y-38000000D03*
X99500000Y-38000000D03*
X98230000Y-40540000D03*
X105850000Y-40540000D03*
D12*
X171000000Y-33560000D03*
D13*
X171000000Y-36100000D03*
X171000000Y-38640000D03*
X171000000Y-41180000D03*
X171000000Y-43720000D03*
X171000000Y-46260000D03*
X171000000Y-48800000D03*
X171000000Y-51340000D03*
X171000000Y-53880000D03*
X171000000Y-56420000D03*
X171000000Y-58960000D03*
X171000000Y-61500000D03*
X186240000Y-33560000D03*
X186240000Y-36100000D03*
X186240000Y-38640000D03*
X186240000Y-41180000D03*
X186240000Y-43720000D03*
X186240000Y-46260000D03*
X186240000Y-48800000D03*
X186240000Y-51340000D03*
X186240000Y-53880000D03*
X186240000Y-56420000D03*
X186240000Y-58960000D03*
X186240000Y-61500000D03*
D18*
X131750000Y-105000000D03*
D19*
X131750000Y-97380000D03*
D16*
X140040000Y-43080000D03*
D15*
X134960000Y-43080000D03*
X145120000Y-43080000D03*
D17*
X137500000Y-38000000D03*
X142580000Y-38000000D03*
X143850000Y-40540000D03*
X136230000Y-40540000D03*
D19*
X125000000Y-83500000D03*
D15*
X164170000Y-100069717D03*
D16*
X159090000Y-100069717D03*
D15*
X154010000Y-100069717D03*
D17*
X161630000Y-94989717D03*
X156550000Y-94989717D03*
X162900000Y-97529717D03*
X155280000Y-97529717D03*
D18*
X150750000Y-48000000D03*
D19*
X150750000Y-40380000D03*
X162249999Y-30723758D03*
X118500000Y-88000000D03*
X124999999Y-87997945D03*
D18*
X110200000Y-67000000D03*
D19*
X110200000Y-59380000D03*
D16*
X83040000Y-81080000D03*
D15*
X77960000Y-81080000D03*
X88120000Y-81080000D03*
D17*
X80500000Y-76000000D03*
X85580000Y-76000000D03*
X86850000Y-78540000D03*
X79230000Y-78540000D03*
D15*
X107120000Y-62080000D03*
X96960000Y-62080000D03*
D16*
X102040000Y-62080000D03*
D17*
X99500000Y-57000000D03*
X104580000Y-57000000D03*
X105850000Y-59540000D03*
X98230000Y-59540000D03*
D15*
X153960000Y-43080000D03*
D16*
X159040000Y-43080000D03*
D15*
X164120000Y-43080000D03*
D17*
X156500000Y-38000000D03*
X161580000Y-38000000D03*
X162850000Y-40540000D03*
X155230000Y-40540000D03*
D15*
X77960000Y-100080000D03*
D16*
X83040000Y-100080000D03*
D15*
X88120000Y-100080000D03*
D17*
X80500000Y-95000000D03*
X85580000Y-95000000D03*
X86850000Y-97540000D03*
X79230000Y-97540000D03*
D18*
X129200000Y-76750000D03*
D19*
X129200000Y-69130000D03*
D20*
X176500000Y-69000000D03*
X179000000Y-72000000D03*
X179000000Y-70000000D03*
X176500000Y-71000000D03*
X179000000Y-74000000D03*
X176500000Y-73000000D03*
D21*
X181500000Y-63000000D03*
X181500000Y-78000000D03*
D20*
X176500000Y-67000000D03*
X179000000Y-68000000D03*
D19*
X155750000Y-30725813D03*
D18*
X91200000Y-86000000D03*
D19*
X91200000Y-78380000D03*
D18*
X91200000Y-105000000D03*
D19*
X91200000Y-97380000D03*
D18*
X112750000Y-38750000D03*
D19*
X112750000Y-31130000D03*
D15*
X134960000Y-62080000D03*
D16*
X140040000Y-62080000D03*
D15*
X145120000Y-62080000D03*
D17*
X137500000Y-57000000D03*
X142580000Y-57000000D03*
X143850000Y-59540000D03*
X136230000Y-59540000D03*
D18*
X110200000Y-86000000D03*
D19*
X110200000Y-78380000D03*
D18*
X148200000Y-86000000D03*
D19*
X148200000Y-78380000D03*
D15*
X126120000Y-71830000D03*
X115960000Y-71830000D03*
D16*
X121040000Y-71830000D03*
D17*
X123580000Y-66750000D03*
X118500000Y-66750000D03*
X117230000Y-69290000D03*
X124850000Y-69290000D03*
D22*
X161540000Y-73750000D03*
D23*
X156540000Y-73750000D03*
X159040000Y-73750000D03*
D24*
X153440000Y-81250000D03*
X164640000Y-81250000D03*
D23*
X156540000Y-88250000D03*
X161540000Y-88250000D03*
D15*
X134960000Y-81080000D03*
X145120000Y-81080000D03*
D16*
X140040000Y-81080000D03*
D17*
X137500000Y-76000000D03*
X142580000Y-76000000D03*
X136230000Y-78540000D03*
X143850000Y-78540000D03*
D19*
X118500000Y-83494874D03*
D18*
X150750000Y-67000000D03*
D19*
X150750000Y-59380000D03*
D18*
X93750000Y-48000000D03*
D19*
X93750000Y-40380000D03*
D18*
X164500000Y-108250000D03*
D19*
X172120000Y-108250000D03*
D18*
X150800000Y-104989717D03*
D19*
X150800000Y-97369717D03*
D16*
X102040000Y-81080000D03*
D15*
X107120000Y-81080000D03*
X96960000Y-81080000D03*
D17*
X99500000Y-76000000D03*
X104580000Y-76000000D03*
X98230000Y-78540000D03*
X105850000Y-78540000D03*
D16*
X121040000Y-52830000D03*
D15*
X126120000Y-52830000D03*
X115960000Y-52830000D03*
D17*
X118500000Y-47750000D03*
X123580000Y-47750000D03*
X124850000Y-50290000D03*
X117230000Y-50290000D03*
D18*
X129200000Y-57750000D03*
D19*
X129200000Y-50130000D03*
X155750000Y-26220687D03*
D25*
X178623410Y-103800000D03*
X178623410Y-95200000D03*
D26*
X172873410Y-96250000D03*
X172873410Y-102750000D03*
D25*
X187353410Y-97000000D03*
X181123410Y-108230000D03*
D27*
X183623410Y-105825000D03*
X173623410Y-93175000D03*
X173623410Y-105825000D03*
X183623410Y-93175000D03*
D26*
X168373410Y-96250000D03*
X168373410Y-102750000D03*
D25*
X187353410Y-102000000D03*
X176123410Y-108230000D03*
X178623410Y-108230000D03*
X187353410Y-99500000D03*
D15*
X134960000Y-100080000D03*
X145120000Y-100080000D03*
D16*
X140040000Y-100080000D03*
D17*
X137500000Y-95000000D03*
X142580000Y-95000000D03*
X136230000Y-97540000D03*
X143850000Y-97540000D03*
D18*
X131750000Y-48000000D03*
D19*
X131750000Y-40380000D03*
X162250000Y-26225813D03*
D18*
X148200000Y-67000000D03*
D19*
X148200000Y-59380000D03*
D20*
X179000000Y-80250000D03*
X179000000Y-82250000D03*
X176500000Y-81250000D03*
X176500000Y-83250000D03*
D21*
X181500000Y-72250000D03*
D20*
X176500000Y-77250000D03*
X179000000Y-78250000D03*
X176500000Y-79250000D03*
X179000000Y-76250000D03*
D21*
X181500000Y-87250000D03*
D28*
X178623410Y-99980000D03*
D29*
X173543410Y-99980000D03*
X183703410Y-99980000D03*
D30*
X176083410Y-94900000D03*
X182433410Y-97440000D03*
M02*
