M48
; DRILL file {KiCad (6.0.8)} date Thu May 18 22:36:05 2023
; FORMAT={-:-/ absolute / metric / decimal}
; #@! TF.CreationDate,2023-05-18T22:36:05+10:00
; #@! TF.GenerationSoftware,Kicad,Pcbnew,(6.0.8)
; #@! TF.FileFunction,NonPlated,1,2,NPTH
FMAT,2
METRIC
; #@! TA.AperFunction,NonPlated,NPTH,ComponentDrill
T1C1.650
; #@! TA.AperFunction,NonPlated,NPTH,ComponentDrill
T2C1.700
; #@! TA.AperFunction,NonPlated,NPTH,ComponentDrill
T3C1.702
; #@! TA.AperFunction,NonPlated,NPTH,ComponentDrill
T4C2.000
; #@! TA.AperFunction,NonPlated,NPTH,ComponentDrill
T5C3.988
; #@! TA.AperFunction,NonPlated,NPTH,ComponentDrill
T6C4.000
%
G90
G05
T1
X178.623Y-95.2
X178.623Y-103.8
T2
X173.543Y-99.98
X183.703Y-99.98
T3
X77.96Y-81.08
X77.96Y-100.08
X88.12Y-81.08
X88.12Y-100.08
X96.96Y-43.08
X96.96Y-62.08
X96.96Y-81.08
X107.12Y-43.08
X107.12Y-62.08
X107.12Y-81.08
X115.96Y-33.83
X115.96Y-52.83
X115.96Y-71.83
X126.12Y-33.83
X126.12Y-52.83
X126.12Y-71.83
X134.96Y-43.08
X134.96Y-62.08
X134.96Y-81.08
X134.96Y-100.08
X145.12Y-43.08
X145.12Y-62.08
X145.12Y-81.08
X145.12Y-100.08
X153.96Y-43.08
X153.96Y-62.08
X154.01Y-100.07
X164.12Y-43.08
X164.12Y-62.08
X164.17Y-100.07
T4
X181.5Y-63.0
X181.5Y-72.25
X181.5Y-78.0
X181.5Y-87.25
T5
X83.04Y-81.08
X83.04Y-100.08
X102.04Y-43.08
X102.04Y-62.08
X102.04Y-81.08
X121.04Y-33.83
X121.04Y-52.83
X121.04Y-71.83
X140.04Y-43.08
X140.04Y-62.08
X140.04Y-81.08
X140.04Y-100.08
X159.04Y-43.08
X159.04Y-62.08
X159.09Y-100.07
T6
X178.623Y-99.98
T0
M30
