M48
; DRILL file {KiCad (6.0.4)} date Sat Oct  8 16:53:54 2022
; FORMAT={-:-/ absolute / metric / decimal}
; #@! TF.CreationDate,2022-10-08T16:53:54+11:00
; #@! TF.GenerationSoftware,Kicad,Pcbnew,(6.0.4)
; #@! TF.FileFunction,Plated,1,2,PTH
FMAT,2
METRIC
; #@! TA.AperFunction,Plated,PTH,ComponentDrill
T1C0.400
; #@! TA.AperFunction,Plated,PTH,ComponentDrill
T2C0.900
; #@! TA.AperFunction,Plated,PTH,ComponentDrill
T3C1.100
; #@! TA.AperFunction,Plated,PTH,ComponentDrill
T4C1.499
%
G90
G05
T1
X115.738Y-16.08
X115.738Y-18.62
X115.738Y-21.16
X115.738Y-23.7
X115.738Y-26.24
X115.738Y-28.78
X115.738Y-31.32
X115.738Y-33.86
X115.738Y-36.4
X115.738Y-38.94
X115.738Y-41.48
X115.738Y-44.02
X117.262Y-16.08
X117.262Y-18.62
X117.262Y-21.16
X117.262Y-23.7
X117.262Y-26.24
X117.262Y-28.78
X117.262Y-31.32
X117.262Y-33.86
X117.262Y-36.4
X117.262Y-38.94
X117.262Y-41.48
X117.262Y-44.02
T3
X108.88Y-16.08
X108.88Y-16.08
X108.88Y-18.62
X108.88Y-21.16
X108.88Y-23.7
X108.88Y-26.24
X108.88Y-28.78
X108.88Y-31.32
X108.88Y-33.86
X108.88Y-36.4
X108.88Y-38.94
X108.88Y-41.48
X108.88Y-44.02
X124.12Y-16.08
X124.12Y-16.08
X124.12Y-18.62
X124.12Y-21.16
X124.12Y-23.7
X124.12Y-26.24
X124.12Y-28.78
X124.12Y-31.32
X124.12Y-33.86
X124.12Y-36.4
X124.12Y-38.94
X124.12Y-41.48
X124.12Y-44.02
T4
X17.69Y-18.96
X17.69Y-37.96
X18.96Y-16.42
X18.96Y-35.42
X24.04Y-16.42
X24.04Y-35.42
X25.31Y-18.96
X25.31Y-37.96
X36.69Y-18.96
X36.69Y-37.96
X36.69Y-56.96
X37.96Y-16.42
X37.96Y-35.42
X37.96Y-54.42
X43.04Y-16.42
X43.04Y-35.42
X43.04Y-54.42
X44.31Y-18.96
X44.31Y-37.96
X44.31Y-56.96
X55.69Y-18.96
X55.69Y-37.96
X55.69Y-56.96
X56.96Y-16.42
X56.96Y-35.42
X56.96Y-54.42
X62.04Y-16.42
X62.04Y-35.42
X62.04Y-54.42
X63.31Y-18.96
X63.31Y-37.96
X63.31Y-56.96
X74.69Y-18.96
X74.69Y-37.96
X74.69Y-56.96
X75.96Y-16.42
X75.96Y-35.42
X75.96Y-54.42
X81.04Y-16.42
X81.04Y-35.42
X81.04Y-54.42
X82.31Y-18.96
X82.31Y-37.96
X82.31Y-56.96
X93.69Y-18.96
X93.69Y-37.96
X93.69Y-56.96
X94.96Y-16.42
X94.96Y-35.42
X94.96Y-54.42
X100.04Y-16.42
X100.04Y-35.42
X100.04Y-54.42
X101.31Y-18.96
X101.31Y-37.96
X101.31Y-56.96
X112.69Y-56.96
X113.96Y-54.42
X119.04Y-54.42
X120.31Y-56.96
T2
G00X110.25Y-46.35
M15
G01X109.65Y-46.35
M16
G05
G00X111.35Y-50.95
M15
G01X110.75Y-50.95
M16
G05
G00X115.35Y-50.95
M15
G01X114.75Y-50.95
M16
G05
G00X118.35Y-50.95
M15
G01X117.75Y-50.95
M16
G05
T0
M30
