%TF.GenerationSoftware,KiCad,Pcbnew,(6.0.8)*%
%TF.CreationDate,2022-10-06T19:39:48+11:00*%
%TF.ProjectId,bevel,62657665-6c2e-46b6-9963-61645f706362,v1.0.0*%
%TF.SameCoordinates,Original*%
%TF.FileFunction,Drillmap*%
%TF.FilePolarity,Positive*%
%FSLAX45Y45*%
G04 Gerber Fmt 4.5, Leading zero omitted, Abs format (unit mm)*
G04 Created by KiCad (PCBNEW (6.0.8)) date 2022-10-06 19:39:48*
%MOMM*%
%LPD*%
G01*
G04 APERTURE LIST*
%ADD10C,0.150000*%
%ADD11C,0.200000*%
%ADD12C,0.170180*%
%ADD13C,0.398780*%
G04 APERTURE END LIST*
D10*
X12600000Y-6800000D02*
X12600000Y-1300000D01*
X3141421Y-6900000D02*
X12500000Y-6900000D01*
X12600000Y-1300000D02*
G75*
G03*
X12500000Y-1200000I-100000J0D01*
G01*
X3070712Y-6870709D02*
G75*
G03*
X3141421Y-6900000I70708J70699D01*
G01*
X1200001Y-4958579D02*
G75*
G03*
X1229289Y-5029289I99999J-1D01*
G01*
X12500000Y-6900000D02*
G75*
G03*
X12600000Y-6800000I0J100000D01*
G01*
X1229289Y-5029289D02*
X3070711Y-6870711D01*
X1300000Y-1200000D02*
X12500000Y-1200000D01*
X1300000Y-1200000D02*
G75*
G03*
X1200000Y-1300000I0J-100000D01*
G01*
X1200000Y-1300000D02*
X1200000Y-4958579D01*
D11*
D10*
X11190000Y-4790000D02*
X11340000Y-4940000D01*
X11340000Y-4790000D02*
X11190000Y-4940000D01*
X11890000Y-4790000D02*
X12040000Y-4940000D01*
X12040000Y-4790000D02*
X11890000Y-4940000D01*
D12*
X1727090Y-2150000D02*
G75*
G03*
X1727090Y-2150000I-85090J0D01*
G01*
X1727090Y-4050000D02*
G75*
G03*
X1727090Y-4050000I-85090J0D01*
G01*
X2743090Y-2150000D02*
G75*
G03*
X2743090Y-2150000I-85090J0D01*
G01*
X2743090Y-4050000D02*
G75*
G03*
X2743090Y-4050000I-85090J0D01*
G01*
X3627090Y-2150000D02*
G75*
G03*
X3627090Y-2150000I-85090J0D01*
G01*
X3627090Y-4050000D02*
G75*
G03*
X3627090Y-4050000I-85090J0D01*
G01*
X3627090Y-5950000D02*
G75*
G03*
X3627090Y-5950000I-85090J0D01*
G01*
X4643090Y-2150000D02*
G75*
G03*
X4643090Y-2150000I-85090J0D01*
G01*
X4643090Y-4050000D02*
G75*
G03*
X4643090Y-4050000I-85090J0D01*
G01*
X4643090Y-5950000D02*
G75*
G03*
X4643090Y-5950000I-85090J0D01*
G01*
X5527090Y-2150000D02*
G75*
G03*
X5527090Y-2150000I-85090J0D01*
G01*
X5527090Y-4050000D02*
G75*
G03*
X5527090Y-4050000I-85090J0D01*
G01*
X5527090Y-5950000D02*
G75*
G03*
X5527090Y-5950000I-85090J0D01*
G01*
X6543090Y-2150000D02*
G75*
G03*
X6543090Y-2150000I-85090J0D01*
G01*
X6543090Y-4050000D02*
G75*
G03*
X6543090Y-4050000I-85090J0D01*
G01*
X6543090Y-5950000D02*
G75*
G03*
X6543090Y-5950000I-85090J0D01*
G01*
X7427090Y-2150000D02*
G75*
G03*
X7427090Y-2150000I-85090J0D01*
G01*
X7427090Y-4050000D02*
G75*
G03*
X7427090Y-4050000I-85090J0D01*
G01*
X7427090Y-5950000D02*
G75*
G03*
X7427090Y-5950000I-85090J0D01*
G01*
X8443090Y-2150000D02*
G75*
G03*
X8443090Y-2150000I-85090J0D01*
G01*
X8443090Y-4050000D02*
G75*
G03*
X8443090Y-4050000I-85090J0D01*
G01*
X8443090Y-5950000D02*
G75*
G03*
X8443090Y-5950000I-85090J0D01*
G01*
X9327090Y-2150000D02*
G75*
G03*
X9327090Y-2150000I-85090J0D01*
G01*
X9327090Y-4050000D02*
G75*
G03*
X9327090Y-4050000I-85090J0D01*
G01*
X9327090Y-5950000D02*
G75*
G03*
X9327090Y-5950000I-85090J0D01*
G01*
X10343090Y-2150000D02*
G75*
G03*
X10343090Y-2150000I-85090J0D01*
G01*
X10343090Y-4050000D02*
G75*
G03*
X10343090Y-4050000I-85090J0D01*
G01*
X10343090Y-5950000D02*
G75*
G03*
X10343090Y-5950000I-85090J0D01*
G01*
X11227090Y-5950000D02*
G75*
G03*
X11227090Y-5950000I-85090J0D01*
G01*
X12243090Y-5950000D02*
G75*
G03*
X12243090Y-5950000I-85090J0D01*
G01*
D13*
X2150000Y-1950610D02*
X2150000Y-2349390D01*
X1950610Y-2150000D02*
X2349390Y-2150000D01*
X2150000Y-3850610D02*
X2150000Y-4249390D01*
X1950610Y-4050000D02*
X2349390Y-4050000D01*
X4050000Y-1950610D02*
X4050000Y-2349390D01*
X3850610Y-2150000D02*
X4249390Y-2150000D01*
X4050000Y-3850610D02*
X4050000Y-4249390D01*
X3850610Y-4050000D02*
X4249390Y-4050000D01*
X4050000Y-5750610D02*
X4050000Y-6149390D01*
X3850610Y-5950000D02*
X4249390Y-5950000D01*
X5950000Y-1950610D02*
X5950000Y-2349390D01*
X5750610Y-2150000D02*
X6149390Y-2150000D01*
X5950000Y-3850610D02*
X5950000Y-4249390D01*
X5750610Y-4050000D02*
X6149390Y-4050000D01*
X5950000Y-5750610D02*
X5950000Y-6149390D01*
X5750610Y-5950000D02*
X6149390Y-5950000D01*
X7850000Y-1950610D02*
X7850000Y-2349390D01*
X7650610Y-2150000D02*
X8049390Y-2150000D01*
X7850000Y-3850610D02*
X7850000Y-4249390D01*
X7650610Y-4050000D02*
X8049390Y-4050000D01*
X7850000Y-5750610D02*
X7850000Y-6149390D01*
X7650610Y-5950000D02*
X8049390Y-5950000D01*
X9750000Y-1950610D02*
X9750000Y-2349390D01*
X9550610Y-2150000D02*
X9949390Y-2150000D01*
X9750000Y-3850610D02*
X9750000Y-4249390D01*
X9550610Y-4050000D02*
X9949390Y-4050000D01*
X9750000Y-5750610D02*
X9750000Y-6149390D01*
X9550610Y-5950000D02*
X9949390Y-5950000D01*
X11650000Y-5750610D02*
X11650000Y-6149390D01*
X11450610Y-5950000D02*
X11849390Y-5950000D01*
D11*
X1450119Y-7217976D02*
X1450119Y-7017976D01*
X1497738Y-7017976D01*
X1526309Y-7027500D01*
X1545357Y-7046548D01*
X1554881Y-7065595D01*
X1564405Y-7103690D01*
X1564405Y-7132262D01*
X1554881Y-7170357D01*
X1545357Y-7189405D01*
X1526309Y-7208452D01*
X1497738Y-7217976D01*
X1450119Y-7217976D01*
X1650119Y-7217976D02*
X1650119Y-7084643D01*
X1650119Y-7122738D02*
X1659643Y-7103690D01*
X1669167Y-7094167D01*
X1688214Y-7084643D01*
X1707262Y-7084643D01*
X1773928Y-7217976D02*
X1773928Y-7084643D01*
X1773928Y-7017976D02*
X1764405Y-7027500D01*
X1773928Y-7037024D01*
X1783452Y-7027500D01*
X1773928Y-7017976D01*
X1773928Y-7037024D01*
X1897738Y-7217976D02*
X1878690Y-7208452D01*
X1869167Y-7189405D01*
X1869167Y-7017976D01*
X2002500Y-7217976D02*
X1983452Y-7208452D01*
X1973928Y-7189405D01*
X1973928Y-7017976D01*
X2231071Y-7217976D02*
X2231071Y-7017976D01*
X2297738Y-7160833D01*
X2364405Y-7017976D01*
X2364405Y-7217976D01*
X2545357Y-7217976D02*
X2545357Y-7113214D01*
X2535833Y-7094167D01*
X2516786Y-7084643D01*
X2478690Y-7084643D01*
X2459643Y-7094167D01*
X2545357Y-7208452D02*
X2526310Y-7217976D01*
X2478690Y-7217976D01*
X2459643Y-7208452D01*
X2450119Y-7189405D01*
X2450119Y-7170357D01*
X2459643Y-7151309D01*
X2478690Y-7141786D01*
X2526310Y-7141786D01*
X2545357Y-7132262D01*
X2640595Y-7084643D02*
X2640595Y-7284643D01*
X2640595Y-7094167D02*
X2659643Y-7084643D01*
X2697738Y-7084643D01*
X2716786Y-7094167D01*
X2726310Y-7103690D01*
X2735833Y-7122738D01*
X2735833Y-7179881D01*
X2726310Y-7198928D01*
X2716786Y-7208452D01*
X2697738Y-7217976D01*
X2659643Y-7217976D01*
X2640595Y-7208452D01*
X2821548Y-7198928D02*
X2831071Y-7208452D01*
X2821548Y-7217976D01*
X2812024Y-7208452D01*
X2821548Y-7198928D01*
X2821548Y-7217976D01*
X2821548Y-7094167D02*
X2831071Y-7103690D01*
X2821548Y-7113214D01*
X2812024Y-7103690D01*
X2821548Y-7094167D01*
X2821548Y-7113214D01*
D10*
X1042500Y-7472500D02*
X1192500Y-7622500D01*
X1192500Y-7472500D02*
X1042500Y-7622500D01*
D11*
X1554881Y-7637976D02*
X1440595Y-7637976D01*
X1497738Y-7637976D02*
X1497738Y-7437976D01*
X1478690Y-7466548D01*
X1459643Y-7485595D01*
X1440595Y-7495119D01*
X1640595Y-7618928D02*
X1650119Y-7628452D01*
X1640595Y-7637976D01*
X1631071Y-7628452D01*
X1640595Y-7618928D01*
X1640595Y-7637976D01*
X1831071Y-7437976D02*
X1735833Y-7437976D01*
X1726309Y-7533214D01*
X1735833Y-7523690D01*
X1754881Y-7514167D01*
X1802500Y-7514167D01*
X1821548Y-7523690D01*
X1831071Y-7533214D01*
X1840595Y-7552262D01*
X1840595Y-7599881D01*
X1831071Y-7618928D01*
X1821548Y-7628452D01*
X1802500Y-7637976D01*
X1754881Y-7637976D01*
X1735833Y-7628452D01*
X1726309Y-7618928D01*
X1964405Y-7437976D02*
X1983452Y-7437976D01*
X2002500Y-7447500D01*
X2012024Y-7457024D01*
X2021548Y-7476071D01*
X2031071Y-7514167D01*
X2031071Y-7561786D01*
X2021548Y-7599881D01*
X2012024Y-7618928D01*
X2002500Y-7628452D01*
X1983452Y-7637976D01*
X1964405Y-7637976D01*
X1945357Y-7628452D01*
X1935833Y-7618928D01*
X1926309Y-7599881D01*
X1916786Y-7561786D01*
X1916786Y-7514167D01*
X1926309Y-7476071D01*
X1935833Y-7457024D01*
X1945357Y-7447500D01*
X1964405Y-7437976D01*
X2154881Y-7437976D02*
X2173929Y-7437976D01*
X2192976Y-7447500D01*
X2202500Y-7457024D01*
X2212024Y-7476071D01*
X2221548Y-7514167D01*
X2221548Y-7561786D01*
X2212024Y-7599881D01*
X2202500Y-7618928D01*
X2192976Y-7628452D01*
X2173929Y-7637976D01*
X2154881Y-7637976D01*
X2135833Y-7628452D01*
X2126310Y-7618928D01*
X2116786Y-7599881D01*
X2107262Y-7561786D01*
X2107262Y-7514167D01*
X2116786Y-7476071D01*
X2126310Y-7457024D01*
X2135833Y-7447500D01*
X2154881Y-7437976D01*
X2307262Y-7637976D02*
X2307262Y-7504643D01*
X2307262Y-7523690D02*
X2316786Y-7514167D01*
X2335833Y-7504643D01*
X2364405Y-7504643D01*
X2383452Y-7514167D01*
X2392976Y-7533214D01*
X2392976Y-7637976D01*
X2392976Y-7533214D02*
X2402500Y-7514167D01*
X2421548Y-7504643D01*
X2450119Y-7504643D01*
X2469167Y-7514167D01*
X2478690Y-7533214D01*
X2478690Y-7637976D01*
X2573929Y-7637976D02*
X2573929Y-7504643D01*
X2573929Y-7523690D02*
X2583452Y-7514167D01*
X2602500Y-7504643D01*
X2631071Y-7504643D01*
X2650119Y-7514167D01*
X2659643Y-7533214D01*
X2659643Y-7637976D01*
X2659643Y-7533214D02*
X2669167Y-7514167D01*
X2688214Y-7504643D01*
X2716786Y-7504643D01*
X2735833Y-7514167D01*
X2745357Y-7533214D01*
X2745357Y-7637976D01*
X3135833Y-7428452D02*
X2964405Y-7685595D01*
X3392976Y-7437976D02*
X3412024Y-7437976D01*
X3431071Y-7447500D01*
X3440595Y-7457024D01*
X3450119Y-7476071D01*
X3459643Y-7514167D01*
X3459643Y-7561786D01*
X3450119Y-7599881D01*
X3440595Y-7618928D01*
X3431071Y-7628452D01*
X3412024Y-7637976D01*
X3392976Y-7637976D01*
X3373928Y-7628452D01*
X3364405Y-7618928D01*
X3354881Y-7599881D01*
X3345357Y-7561786D01*
X3345357Y-7514167D01*
X3354881Y-7476071D01*
X3364405Y-7457024D01*
X3373928Y-7447500D01*
X3392976Y-7437976D01*
X3545357Y-7618928D02*
X3554881Y-7628452D01*
X3545357Y-7637976D01*
X3535833Y-7628452D01*
X3545357Y-7618928D01*
X3545357Y-7637976D01*
X3678690Y-7437976D02*
X3697738Y-7437976D01*
X3716786Y-7447500D01*
X3726309Y-7457024D01*
X3735833Y-7476071D01*
X3745357Y-7514167D01*
X3745357Y-7561786D01*
X3735833Y-7599881D01*
X3726309Y-7618928D01*
X3716786Y-7628452D01*
X3697738Y-7637976D01*
X3678690Y-7637976D01*
X3659643Y-7628452D01*
X3650119Y-7618928D01*
X3640595Y-7599881D01*
X3631071Y-7561786D01*
X3631071Y-7514167D01*
X3640595Y-7476071D01*
X3650119Y-7457024D01*
X3659643Y-7447500D01*
X3678690Y-7437976D01*
X3926309Y-7437976D02*
X3831071Y-7437976D01*
X3821548Y-7533214D01*
X3831071Y-7523690D01*
X3850119Y-7514167D01*
X3897738Y-7514167D01*
X3916786Y-7523690D01*
X3926309Y-7533214D01*
X3935833Y-7552262D01*
X3935833Y-7599881D01*
X3926309Y-7618928D01*
X3916786Y-7628452D01*
X3897738Y-7637976D01*
X3850119Y-7637976D01*
X3831071Y-7628452D01*
X3821548Y-7618928D01*
X4031071Y-7637976D02*
X4069167Y-7637976D01*
X4088214Y-7628452D01*
X4097738Y-7618928D01*
X4116786Y-7590357D01*
X4126309Y-7552262D01*
X4126309Y-7476071D01*
X4116786Y-7457024D01*
X4107262Y-7447500D01*
X4088214Y-7437976D01*
X4050119Y-7437976D01*
X4031071Y-7447500D01*
X4021548Y-7457024D01*
X4012024Y-7476071D01*
X4012024Y-7523690D01*
X4021548Y-7542738D01*
X4031071Y-7552262D01*
X4050119Y-7561786D01*
X4088214Y-7561786D01*
X4107262Y-7552262D01*
X4116786Y-7542738D01*
X4126309Y-7523690D01*
X4316786Y-7637976D02*
X4202500Y-7637976D01*
X4259643Y-7637976D02*
X4259643Y-7437976D01*
X4240595Y-7466548D01*
X4221548Y-7485595D01*
X4202500Y-7495119D01*
X4392976Y-7437976D02*
X4392976Y-7476071D01*
X4469167Y-7437976D02*
X4469167Y-7476071D01*
X4764405Y-7714167D02*
X4754881Y-7704643D01*
X4735833Y-7676071D01*
X4726310Y-7657024D01*
X4716786Y-7628452D01*
X4707262Y-7580833D01*
X4707262Y-7542738D01*
X4716786Y-7495119D01*
X4726310Y-7466548D01*
X4735833Y-7447500D01*
X4754881Y-7418928D01*
X4764405Y-7409405D01*
X4831071Y-7457024D02*
X4840595Y-7447500D01*
X4859643Y-7437976D01*
X4907262Y-7437976D01*
X4926310Y-7447500D01*
X4935833Y-7457024D01*
X4945357Y-7476071D01*
X4945357Y-7495119D01*
X4935833Y-7523690D01*
X4821548Y-7637976D01*
X4945357Y-7637976D01*
X5183452Y-7637976D02*
X5183452Y-7437976D01*
X5269167Y-7637976D02*
X5269167Y-7533214D01*
X5259643Y-7514167D01*
X5240595Y-7504643D01*
X5212024Y-7504643D01*
X5192976Y-7514167D01*
X5183452Y-7523690D01*
X5392976Y-7637976D02*
X5373929Y-7628452D01*
X5364405Y-7618928D01*
X5354881Y-7599881D01*
X5354881Y-7542738D01*
X5364405Y-7523690D01*
X5373929Y-7514167D01*
X5392976Y-7504643D01*
X5421548Y-7504643D01*
X5440595Y-7514167D01*
X5450119Y-7523690D01*
X5459643Y-7542738D01*
X5459643Y-7599881D01*
X5450119Y-7618928D01*
X5440595Y-7628452D01*
X5421548Y-7637976D01*
X5392976Y-7637976D01*
X5573929Y-7637976D02*
X5554881Y-7628452D01*
X5545357Y-7609405D01*
X5545357Y-7437976D01*
X5726309Y-7628452D02*
X5707262Y-7637976D01*
X5669167Y-7637976D01*
X5650119Y-7628452D01*
X5640595Y-7609405D01*
X5640595Y-7533214D01*
X5650119Y-7514167D01*
X5669167Y-7504643D01*
X5707262Y-7504643D01*
X5726309Y-7514167D01*
X5735833Y-7533214D01*
X5735833Y-7552262D01*
X5640595Y-7571309D01*
X5812024Y-7628452D02*
X5831071Y-7637976D01*
X5869167Y-7637976D01*
X5888214Y-7628452D01*
X5897738Y-7609405D01*
X5897738Y-7599881D01*
X5888214Y-7580833D01*
X5869167Y-7571309D01*
X5840595Y-7571309D01*
X5821548Y-7561786D01*
X5812024Y-7542738D01*
X5812024Y-7533214D01*
X5821548Y-7514167D01*
X5840595Y-7504643D01*
X5869167Y-7504643D01*
X5888214Y-7514167D01*
X5964405Y-7714167D02*
X5973928Y-7704643D01*
X5992976Y-7676071D01*
X6002500Y-7657024D01*
X6012024Y-7628452D01*
X6021548Y-7580833D01*
X6021548Y-7542738D01*
X6012024Y-7495119D01*
X6002500Y-7466548D01*
X5992976Y-7447500D01*
X5973928Y-7418928D01*
X5964405Y-7409405D01*
X6326309Y-7714167D02*
X6316786Y-7704643D01*
X6297738Y-7676071D01*
X6288214Y-7657024D01*
X6278690Y-7628452D01*
X6269167Y-7580833D01*
X6269167Y-7542738D01*
X6278690Y-7495119D01*
X6288214Y-7466548D01*
X6297738Y-7447500D01*
X6316786Y-7418928D01*
X6326309Y-7409405D01*
X6402500Y-7504643D02*
X6402500Y-7637976D01*
X6402500Y-7523690D02*
X6412024Y-7514167D01*
X6431071Y-7504643D01*
X6459643Y-7504643D01*
X6478690Y-7514167D01*
X6488214Y-7533214D01*
X6488214Y-7637976D01*
X6612024Y-7637976D02*
X6592976Y-7628452D01*
X6583452Y-7618928D01*
X6573928Y-7599881D01*
X6573928Y-7542738D01*
X6583452Y-7523690D01*
X6592976Y-7514167D01*
X6612024Y-7504643D01*
X6640595Y-7504643D01*
X6659643Y-7514167D01*
X6669167Y-7523690D01*
X6678690Y-7542738D01*
X6678690Y-7599881D01*
X6669167Y-7618928D01*
X6659643Y-7628452D01*
X6640595Y-7637976D01*
X6612024Y-7637976D01*
X6735833Y-7504643D02*
X6812024Y-7504643D01*
X6764405Y-7437976D02*
X6764405Y-7609405D01*
X6773928Y-7628452D01*
X6792976Y-7637976D01*
X6812024Y-7637976D01*
X7031071Y-7504643D02*
X7031071Y-7704643D01*
X7031071Y-7514167D02*
X7050119Y-7504643D01*
X7088214Y-7504643D01*
X7107262Y-7514167D01*
X7116786Y-7523690D01*
X7126309Y-7542738D01*
X7126309Y-7599881D01*
X7116786Y-7618928D01*
X7107262Y-7628452D01*
X7088214Y-7637976D01*
X7050119Y-7637976D01*
X7031071Y-7628452D01*
X7240595Y-7637976D02*
X7221548Y-7628452D01*
X7212024Y-7609405D01*
X7212024Y-7437976D01*
X7402500Y-7637976D02*
X7402500Y-7533214D01*
X7392976Y-7514167D01*
X7373928Y-7504643D01*
X7335833Y-7504643D01*
X7316786Y-7514167D01*
X7402500Y-7628452D02*
X7383452Y-7637976D01*
X7335833Y-7637976D01*
X7316786Y-7628452D01*
X7307262Y-7609405D01*
X7307262Y-7590357D01*
X7316786Y-7571309D01*
X7335833Y-7561786D01*
X7383452Y-7561786D01*
X7402500Y-7552262D01*
X7469167Y-7504643D02*
X7545357Y-7504643D01*
X7497738Y-7437976D02*
X7497738Y-7609405D01*
X7507262Y-7628452D01*
X7526309Y-7637976D01*
X7545357Y-7637976D01*
X7688214Y-7628452D02*
X7669167Y-7637976D01*
X7631071Y-7637976D01*
X7612024Y-7628452D01*
X7602500Y-7609405D01*
X7602500Y-7533214D01*
X7612024Y-7514167D01*
X7631071Y-7504643D01*
X7669167Y-7504643D01*
X7688214Y-7514167D01*
X7697738Y-7533214D01*
X7697738Y-7552262D01*
X7602500Y-7571309D01*
X7869167Y-7637976D02*
X7869167Y-7437976D01*
X7869167Y-7628452D02*
X7850119Y-7637976D01*
X7812024Y-7637976D01*
X7792976Y-7628452D01*
X7783452Y-7618928D01*
X7773928Y-7599881D01*
X7773928Y-7542738D01*
X7783452Y-7523690D01*
X7792976Y-7514167D01*
X7812024Y-7504643D01*
X7850119Y-7504643D01*
X7869167Y-7514167D01*
X7945357Y-7714167D02*
X7954881Y-7704643D01*
X7973928Y-7676071D01*
X7983452Y-7657024D01*
X7992976Y-7628452D01*
X8002500Y-7580833D01*
X8002500Y-7542738D01*
X7992976Y-7495119D01*
X7983452Y-7466548D01*
X7973928Y-7447500D01*
X7954881Y-7418928D01*
X7945357Y-7409405D01*
D12*
X1192500Y-7817500D02*
G75*
G03*
X1192500Y-7817500I-85090J0D01*
G01*
D11*
X1554881Y-7907976D02*
X1440595Y-7907976D01*
X1497738Y-7907976D02*
X1497738Y-7707976D01*
X1478690Y-7736548D01*
X1459643Y-7755595D01*
X1440595Y-7765119D01*
X1640595Y-7888928D02*
X1650119Y-7898452D01*
X1640595Y-7907976D01*
X1631071Y-7898452D01*
X1640595Y-7888928D01*
X1640595Y-7907976D01*
X1716786Y-7707976D02*
X1850119Y-7707976D01*
X1764405Y-7907976D01*
X1964405Y-7707976D02*
X1983452Y-7707976D01*
X2002500Y-7717500D01*
X2012024Y-7727024D01*
X2021548Y-7746071D01*
X2031071Y-7784167D01*
X2031071Y-7831786D01*
X2021548Y-7869881D01*
X2012024Y-7888928D01*
X2002500Y-7898452D01*
X1983452Y-7907976D01*
X1964405Y-7907976D01*
X1945357Y-7898452D01*
X1935833Y-7888928D01*
X1926309Y-7869881D01*
X1916786Y-7831786D01*
X1916786Y-7784167D01*
X1926309Y-7746071D01*
X1935833Y-7727024D01*
X1945357Y-7717500D01*
X1964405Y-7707976D01*
X2107262Y-7727024D02*
X2116786Y-7717500D01*
X2135833Y-7707976D01*
X2183452Y-7707976D01*
X2202500Y-7717500D01*
X2212024Y-7727024D01*
X2221548Y-7746071D01*
X2221548Y-7765119D01*
X2212024Y-7793690D01*
X2097738Y-7907976D01*
X2221548Y-7907976D01*
X2307262Y-7907976D02*
X2307262Y-7774643D01*
X2307262Y-7793690D02*
X2316786Y-7784167D01*
X2335833Y-7774643D01*
X2364405Y-7774643D01*
X2383452Y-7784167D01*
X2392976Y-7803214D01*
X2392976Y-7907976D01*
X2392976Y-7803214D02*
X2402500Y-7784167D01*
X2421548Y-7774643D01*
X2450119Y-7774643D01*
X2469167Y-7784167D01*
X2478690Y-7803214D01*
X2478690Y-7907976D01*
X2573929Y-7907976D02*
X2573929Y-7774643D01*
X2573929Y-7793690D02*
X2583452Y-7784167D01*
X2602500Y-7774643D01*
X2631071Y-7774643D01*
X2650119Y-7784167D01*
X2659643Y-7803214D01*
X2659643Y-7907976D01*
X2659643Y-7803214D02*
X2669167Y-7784167D01*
X2688214Y-7774643D01*
X2716786Y-7774643D01*
X2735833Y-7784167D01*
X2745357Y-7803214D01*
X2745357Y-7907976D01*
X3135833Y-7698452D02*
X2964405Y-7955595D01*
X3392976Y-7707976D02*
X3412024Y-7707976D01*
X3431071Y-7717500D01*
X3440595Y-7727024D01*
X3450119Y-7746071D01*
X3459643Y-7784167D01*
X3459643Y-7831786D01*
X3450119Y-7869881D01*
X3440595Y-7888928D01*
X3431071Y-7898452D01*
X3412024Y-7907976D01*
X3392976Y-7907976D01*
X3373928Y-7898452D01*
X3364405Y-7888928D01*
X3354881Y-7869881D01*
X3345357Y-7831786D01*
X3345357Y-7784167D01*
X3354881Y-7746071D01*
X3364405Y-7727024D01*
X3373928Y-7717500D01*
X3392976Y-7707976D01*
X3545357Y-7888928D02*
X3554881Y-7898452D01*
X3545357Y-7907976D01*
X3535833Y-7898452D01*
X3545357Y-7888928D01*
X3545357Y-7907976D01*
X3678690Y-7707976D02*
X3697738Y-7707976D01*
X3716786Y-7717500D01*
X3726309Y-7727024D01*
X3735833Y-7746071D01*
X3745357Y-7784167D01*
X3745357Y-7831786D01*
X3735833Y-7869881D01*
X3726309Y-7888928D01*
X3716786Y-7898452D01*
X3697738Y-7907976D01*
X3678690Y-7907976D01*
X3659643Y-7898452D01*
X3650119Y-7888928D01*
X3640595Y-7869881D01*
X3631071Y-7831786D01*
X3631071Y-7784167D01*
X3640595Y-7746071D01*
X3650119Y-7727024D01*
X3659643Y-7717500D01*
X3678690Y-7707976D01*
X3916786Y-7707976D02*
X3878690Y-7707976D01*
X3859643Y-7717500D01*
X3850119Y-7727024D01*
X3831071Y-7755595D01*
X3821548Y-7793690D01*
X3821548Y-7869881D01*
X3831071Y-7888928D01*
X3840595Y-7898452D01*
X3859643Y-7907976D01*
X3897738Y-7907976D01*
X3916786Y-7898452D01*
X3926309Y-7888928D01*
X3935833Y-7869881D01*
X3935833Y-7822262D01*
X3926309Y-7803214D01*
X3916786Y-7793690D01*
X3897738Y-7784167D01*
X3859643Y-7784167D01*
X3840595Y-7793690D01*
X3831071Y-7803214D01*
X3821548Y-7822262D01*
X4002500Y-7707976D02*
X4135833Y-7707976D01*
X4050119Y-7907976D01*
X4250119Y-7707976D02*
X4269167Y-7707976D01*
X4288214Y-7717500D01*
X4297738Y-7727024D01*
X4307262Y-7746071D01*
X4316786Y-7784167D01*
X4316786Y-7831786D01*
X4307262Y-7869881D01*
X4297738Y-7888928D01*
X4288214Y-7898452D01*
X4269167Y-7907976D01*
X4250119Y-7907976D01*
X4231071Y-7898452D01*
X4221548Y-7888928D01*
X4212024Y-7869881D01*
X4202500Y-7831786D01*
X4202500Y-7784167D01*
X4212024Y-7746071D01*
X4221548Y-7727024D01*
X4231071Y-7717500D01*
X4250119Y-7707976D01*
X4392976Y-7707976D02*
X4392976Y-7746071D01*
X4469167Y-7707976D02*
X4469167Y-7746071D01*
X4764405Y-7984167D02*
X4754881Y-7974643D01*
X4735833Y-7946071D01*
X4726310Y-7927024D01*
X4716786Y-7898452D01*
X4707262Y-7850833D01*
X4707262Y-7812738D01*
X4716786Y-7765119D01*
X4726310Y-7736548D01*
X4735833Y-7717500D01*
X4754881Y-7688928D01*
X4764405Y-7679405D01*
X4821548Y-7707976D02*
X4945357Y-7707976D01*
X4878690Y-7784167D01*
X4907262Y-7784167D01*
X4926310Y-7793690D01*
X4935833Y-7803214D01*
X4945357Y-7822262D01*
X4945357Y-7869881D01*
X4935833Y-7888928D01*
X4926310Y-7898452D01*
X4907262Y-7907976D01*
X4850119Y-7907976D01*
X4831071Y-7898452D01*
X4821548Y-7888928D01*
X5069167Y-7707976D02*
X5088214Y-7707976D01*
X5107262Y-7717500D01*
X5116786Y-7727024D01*
X5126310Y-7746071D01*
X5135833Y-7784167D01*
X5135833Y-7831786D01*
X5126310Y-7869881D01*
X5116786Y-7888928D01*
X5107262Y-7898452D01*
X5088214Y-7907976D01*
X5069167Y-7907976D01*
X5050119Y-7898452D01*
X5040595Y-7888928D01*
X5031071Y-7869881D01*
X5021548Y-7831786D01*
X5021548Y-7784167D01*
X5031071Y-7746071D01*
X5040595Y-7727024D01*
X5050119Y-7717500D01*
X5069167Y-7707976D01*
X5373929Y-7907976D02*
X5373929Y-7707976D01*
X5459643Y-7907976D02*
X5459643Y-7803214D01*
X5450119Y-7784167D01*
X5431071Y-7774643D01*
X5402500Y-7774643D01*
X5383452Y-7784167D01*
X5373929Y-7793690D01*
X5583452Y-7907976D02*
X5564405Y-7898452D01*
X5554881Y-7888928D01*
X5545357Y-7869881D01*
X5545357Y-7812738D01*
X5554881Y-7793690D01*
X5564405Y-7784167D01*
X5583452Y-7774643D01*
X5612024Y-7774643D01*
X5631071Y-7784167D01*
X5640595Y-7793690D01*
X5650119Y-7812738D01*
X5650119Y-7869881D01*
X5640595Y-7888928D01*
X5631071Y-7898452D01*
X5612024Y-7907976D01*
X5583452Y-7907976D01*
X5764405Y-7907976D02*
X5745357Y-7898452D01*
X5735833Y-7879405D01*
X5735833Y-7707976D01*
X5916786Y-7898452D02*
X5897738Y-7907976D01*
X5859643Y-7907976D01*
X5840595Y-7898452D01*
X5831071Y-7879405D01*
X5831071Y-7803214D01*
X5840595Y-7784167D01*
X5859643Y-7774643D01*
X5897738Y-7774643D01*
X5916786Y-7784167D01*
X5926309Y-7803214D01*
X5926309Y-7822262D01*
X5831071Y-7841309D01*
X6002500Y-7898452D02*
X6021548Y-7907976D01*
X6059643Y-7907976D01*
X6078690Y-7898452D01*
X6088214Y-7879405D01*
X6088214Y-7869881D01*
X6078690Y-7850833D01*
X6059643Y-7841309D01*
X6031071Y-7841309D01*
X6012024Y-7831786D01*
X6002500Y-7812738D01*
X6002500Y-7803214D01*
X6012024Y-7784167D01*
X6031071Y-7774643D01*
X6059643Y-7774643D01*
X6078690Y-7784167D01*
X6154881Y-7984167D02*
X6164405Y-7974643D01*
X6183452Y-7946071D01*
X6192976Y-7927024D01*
X6202500Y-7898452D01*
X6212024Y-7850833D01*
X6212024Y-7812738D01*
X6202500Y-7765119D01*
X6192976Y-7736548D01*
X6183452Y-7717500D01*
X6164405Y-7688928D01*
X6154881Y-7679405D01*
X6516786Y-7984167D02*
X6507262Y-7974643D01*
X6488214Y-7946071D01*
X6478690Y-7927024D01*
X6469167Y-7898452D01*
X6459643Y-7850833D01*
X6459643Y-7812738D01*
X6469167Y-7765119D01*
X6478690Y-7736548D01*
X6488214Y-7717500D01*
X6507262Y-7688928D01*
X6516786Y-7679405D01*
X6592976Y-7774643D02*
X6592976Y-7907976D01*
X6592976Y-7793690D02*
X6602500Y-7784167D01*
X6621548Y-7774643D01*
X6650119Y-7774643D01*
X6669167Y-7784167D01*
X6678690Y-7803214D01*
X6678690Y-7907976D01*
X6802500Y-7907976D02*
X6783452Y-7898452D01*
X6773928Y-7888928D01*
X6764405Y-7869881D01*
X6764405Y-7812738D01*
X6773928Y-7793690D01*
X6783452Y-7784167D01*
X6802500Y-7774643D01*
X6831071Y-7774643D01*
X6850119Y-7784167D01*
X6859643Y-7793690D01*
X6869167Y-7812738D01*
X6869167Y-7869881D01*
X6859643Y-7888928D01*
X6850119Y-7898452D01*
X6831071Y-7907976D01*
X6802500Y-7907976D01*
X6926309Y-7774643D02*
X7002500Y-7774643D01*
X6954881Y-7707976D02*
X6954881Y-7879405D01*
X6964405Y-7898452D01*
X6983452Y-7907976D01*
X7002500Y-7907976D01*
X7221548Y-7774643D02*
X7221548Y-7974643D01*
X7221548Y-7784167D02*
X7240595Y-7774643D01*
X7278690Y-7774643D01*
X7297738Y-7784167D01*
X7307262Y-7793690D01*
X7316786Y-7812738D01*
X7316786Y-7869881D01*
X7307262Y-7888928D01*
X7297738Y-7898452D01*
X7278690Y-7907976D01*
X7240595Y-7907976D01*
X7221548Y-7898452D01*
X7431071Y-7907976D02*
X7412024Y-7898452D01*
X7402500Y-7879405D01*
X7402500Y-7707976D01*
X7592976Y-7907976D02*
X7592976Y-7803214D01*
X7583452Y-7784167D01*
X7564405Y-7774643D01*
X7526309Y-7774643D01*
X7507262Y-7784167D01*
X7592976Y-7898452D02*
X7573928Y-7907976D01*
X7526309Y-7907976D01*
X7507262Y-7898452D01*
X7497738Y-7879405D01*
X7497738Y-7860357D01*
X7507262Y-7841309D01*
X7526309Y-7831786D01*
X7573928Y-7831786D01*
X7592976Y-7822262D01*
X7659643Y-7774643D02*
X7735833Y-7774643D01*
X7688214Y-7707976D02*
X7688214Y-7879405D01*
X7697738Y-7898452D01*
X7716786Y-7907976D01*
X7735833Y-7907976D01*
X7878690Y-7898452D02*
X7859643Y-7907976D01*
X7821548Y-7907976D01*
X7802500Y-7898452D01*
X7792976Y-7879405D01*
X7792976Y-7803214D01*
X7802500Y-7784167D01*
X7821548Y-7774643D01*
X7859643Y-7774643D01*
X7878690Y-7784167D01*
X7888214Y-7803214D01*
X7888214Y-7822262D01*
X7792976Y-7841309D01*
X8059643Y-7907976D02*
X8059643Y-7707976D01*
X8059643Y-7898452D02*
X8040595Y-7907976D01*
X8002500Y-7907976D01*
X7983452Y-7898452D01*
X7973928Y-7888928D01*
X7964405Y-7869881D01*
X7964405Y-7812738D01*
X7973928Y-7793690D01*
X7983452Y-7784167D01*
X8002500Y-7774643D01*
X8040595Y-7774643D01*
X8059643Y-7784167D01*
X8135833Y-7984167D02*
X8145357Y-7974643D01*
X8164405Y-7946071D01*
X8173928Y-7927024D01*
X8183452Y-7898452D01*
X8192976Y-7850833D01*
X8192976Y-7812738D01*
X8183452Y-7765119D01*
X8173928Y-7736548D01*
X8164405Y-7717500D01*
X8145357Y-7688928D01*
X8135833Y-7679405D01*
X1092500Y-8007680D02*
X1092500Y-8207680D01*
X992500Y-8107680D02*
X1192500Y-8107680D01*
X1431071Y-7998156D02*
X1554881Y-7998156D01*
X1488214Y-8074347D01*
X1516786Y-8074347D01*
X1535833Y-8083870D01*
X1545357Y-8093394D01*
X1554881Y-8112442D01*
X1554881Y-8160061D01*
X1545357Y-8179108D01*
X1535833Y-8188632D01*
X1516786Y-8198156D01*
X1459643Y-8198156D01*
X1440595Y-8188632D01*
X1431071Y-8179108D01*
X1640595Y-8179108D02*
X1650119Y-8188632D01*
X1640595Y-8198156D01*
X1631071Y-8188632D01*
X1640595Y-8179108D01*
X1640595Y-8198156D01*
X1745357Y-8198156D02*
X1783452Y-8198156D01*
X1802500Y-8188632D01*
X1812024Y-8179108D01*
X1831071Y-8150537D01*
X1840595Y-8112442D01*
X1840595Y-8036251D01*
X1831071Y-8017204D01*
X1821548Y-8007680D01*
X1802500Y-7998156D01*
X1764405Y-7998156D01*
X1745357Y-8007680D01*
X1735833Y-8017204D01*
X1726309Y-8036251D01*
X1726309Y-8083870D01*
X1735833Y-8102918D01*
X1745357Y-8112442D01*
X1764405Y-8121966D01*
X1802500Y-8121966D01*
X1821548Y-8112442D01*
X1831071Y-8102918D01*
X1840595Y-8083870D01*
X1954881Y-8083870D02*
X1935833Y-8074347D01*
X1926309Y-8064823D01*
X1916786Y-8045775D01*
X1916786Y-8036251D01*
X1926309Y-8017204D01*
X1935833Y-8007680D01*
X1954881Y-7998156D01*
X1992976Y-7998156D01*
X2012024Y-8007680D01*
X2021548Y-8017204D01*
X2031071Y-8036251D01*
X2031071Y-8045775D01*
X2021548Y-8064823D01*
X2012024Y-8074347D01*
X1992976Y-8083870D01*
X1954881Y-8083870D01*
X1935833Y-8093394D01*
X1926309Y-8102918D01*
X1916786Y-8121966D01*
X1916786Y-8160061D01*
X1926309Y-8179108D01*
X1935833Y-8188632D01*
X1954881Y-8198156D01*
X1992976Y-8198156D01*
X2012024Y-8188632D01*
X2021548Y-8179108D01*
X2031071Y-8160061D01*
X2031071Y-8121966D01*
X2021548Y-8102918D01*
X2012024Y-8093394D01*
X1992976Y-8083870D01*
X2145357Y-8083870D02*
X2126310Y-8074347D01*
X2116786Y-8064823D01*
X2107262Y-8045775D01*
X2107262Y-8036251D01*
X2116786Y-8017204D01*
X2126310Y-8007680D01*
X2145357Y-7998156D01*
X2183452Y-7998156D01*
X2202500Y-8007680D01*
X2212024Y-8017204D01*
X2221548Y-8036251D01*
X2221548Y-8045775D01*
X2212024Y-8064823D01*
X2202500Y-8074347D01*
X2183452Y-8083870D01*
X2145357Y-8083870D01*
X2126310Y-8093394D01*
X2116786Y-8102918D01*
X2107262Y-8121966D01*
X2107262Y-8160061D01*
X2116786Y-8179108D01*
X2126310Y-8188632D01*
X2145357Y-8198156D01*
X2183452Y-8198156D01*
X2202500Y-8188632D01*
X2212024Y-8179108D01*
X2221548Y-8160061D01*
X2221548Y-8121966D01*
X2212024Y-8102918D01*
X2202500Y-8093394D01*
X2183452Y-8083870D01*
X2307262Y-8198156D02*
X2307262Y-8064823D01*
X2307262Y-8083870D02*
X2316786Y-8074347D01*
X2335833Y-8064823D01*
X2364405Y-8064823D01*
X2383452Y-8074347D01*
X2392976Y-8093394D01*
X2392976Y-8198156D01*
X2392976Y-8093394D02*
X2402500Y-8074347D01*
X2421548Y-8064823D01*
X2450119Y-8064823D01*
X2469167Y-8074347D01*
X2478690Y-8093394D01*
X2478690Y-8198156D01*
X2573929Y-8198156D02*
X2573929Y-8064823D01*
X2573929Y-8083870D02*
X2583452Y-8074347D01*
X2602500Y-8064823D01*
X2631071Y-8064823D01*
X2650119Y-8074347D01*
X2659643Y-8093394D01*
X2659643Y-8198156D01*
X2659643Y-8093394D02*
X2669167Y-8074347D01*
X2688214Y-8064823D01*
X2716786Y-8064823D01*
X2735833Y-8074347D01*
X2745357Y-8093394D01*
X2745357Y-8198156D01*
X3135833Y-7988632D02*
X2964405Y-8245775D01*
X3392976Y-7998156D02*
X3412024Y-7998156D01*
X3431071Y-8007680D01*
X3440595Y-8017204D01*
X3450119Y-8036251D01*
X3459643Y-8074347D01*
X3459643Y-8121966D01*
X3450119Y-8160061D01*
X3440595Y-8179108D01*
X3431071Y-8188632D01*
X3412024Y-8198156D01*
X3392976Y-8198156D01*
X3373928Y-8188632D01*
X3364405Y-8179108D01*
X3354881Y-8160061D01*
X3345357Y-8121966D01*
X3345357Y-8074347D01*
X3354881Y-8036251D01*
X3364405Y-8017204D01*
X3373928Y-8007680D01*
X3392976Y-7998156D01*
X3545357Y-8179108D02*
X3554881Y-8188632D01*
X3545357Y-8198156D01*
X3535833Y-8188632D01*
X3545357Y-8179108D01*
X3545357Y-8198156D01*
X3745357Y-8198156D02*
X3631071Y-8198156D01*
X3688214Y-8198156D02*
X3688214Y-7998156D01*
X3669167Y-8026728D01*
X3650119Y-8045775D01*
X3631071Y-8055299D01*
X3926309Y-7998156D02*
X3831071Y-7998156D01*
X3821548Y-8093394D01*
X3831071Y-8083870D01*
X3850119Y-8074347D01*
X3897738Y-8074347D01*
X3916786Y-8083870D01*
X3926309Y-8093394D01*
X3935833Y-8112442D01*
X3935833Y-8160061D01*
X3926309Y-8179108D01*
X3916786Y-8188632D01*
X3897738Y-8198156D01*
X3850119Y-8198156D01*
X3831071Y-8188632D01*
X3821548Y-8179108D01*
X4002500Y-7998156D02*
X4135833Y-7998156D01*
X4050119Y-8198156D01*
X4250119Y-7998156D02*
X4269167Y-7998156D01*
X4288214Y-8007680D01*
X4297738Y-8017204D01*
X4307262Y-8036251D01*
X4316786Y-8074347D01*
X4316786Y-8121966D01*
X4307262Y-8160061D01*
X4297738Y-8179108D01*
X4288214Y-8188632D01*
X4269167Y-8198156D01*
X4250119Y-8198156D01*
X4231071Y-8188632D01*
X4221548Y-8179108D01*
X4212024Y-8160061D01*
X4202500Y-8121966D01*
X4202500Y-8074347D01*
X4212024Y-8036251D01*
X4221548Y-8017204D01*
X4231071Y-8007680D01*
X4250119Y-7998156D01*
X4392976Y-7998156D02*
X4392976Y-8036251D01*
X4469167Y-7998156D02*
X4469167Y-8036251D01*
X4764405Y-8274347D02*
X4754881Y-8264823D01*
X4735833Y-8236251D01*
X4726310Y-8217204D01*
X4716786Y-8188632D01*
X4707262Y-8141013D01*
X4707262Y-8102918D01*
X4716786Y-8055299D01*
X4726310Y-8026728D01*
X4735833Y-8007680D01*
X4754881Y-7979108D01*
X4764405Y-7969585D01*
X4945357Y-8198156D02*
X4831071Y-8198156D01*
X4888214Y-8198156D02*
X4888214Y-7998156D01*
X4869167Y-8026728D01*
X4850119Y-8045775D01*
X4831071Y-8055299D01*
X5126310Y-7998156D02*
X5031071Y-7998156D01*
X5021548Y-8093394D01*
X5031071Y-8083870D01*
X5050119Y-8074347D01*
X5097738Y-8074347D01*
X5116786Y-8083870D01*
X5126310Y-8093394D01*
X5135833Y-8112442D01*
X5135833Y-8160061D01*
X5126310Y-8179108D01*
X5116786Y-8188632D01*
X5097738Y-8198156D01*
X5050119Y-8198156D01*
X5031071Y-8188632D01*
X5021548Y-8179108D01*
X5373929Y-8198156D02*
X5373929Y-7998156D01*
X5459643Y-8198156D02*
X5459643Y-8093394D01*
X5450119Y-8074347D01*
X5431071Y-8064823D01*
X5402500Y-8064823D01*
X5383452Y-8074347D01*
X5373929Y-8083870D01*
X5583452Y-8198156D02*
X5564405Y-8188632D01*
X5554881Y-8179108D01*
X5545357Y-8160061D01*
X5545357Y-8102918D01*
X5554881Y-8083870D01*
X5564405Y-8074347D01*
X5583452Y-8064823D01*
X5612024Y-8064823D01*
X5631071Y-8074347D01*
X5640595Y-8083870D01*
X5650119Y-8102918D01*
X5650119Y-8160061D01*
X5640595Y-8179108D01*
X5631071Y-8188632D01*
X5612024Y-8198156D01*
X5583452Y-8198156D01*
X5764405Y-8198156D02*
X5745357Y-8188632D01*
X5735833Y-8169585D01*
X5735833Y-7998156D01*
X5916786Y-8188632D02*
X5897738Y-8198156D01*
X5859643Y-8198156D01*
X5840595Y-8188632D01*
X5831071Y-8169585D01*
X5831071Y-8093394D01*
X5840595Y-8074347D01*
X5859643Y-8064823D01*
X5897738Y-8064823D01*
X5916786Y-8074347D01*
X5926309Y-8093394D01*
X5926309Y-8112442D01*
X5831071Y-8131489D01*
X6002500Y-8188632D02*
X6021548Y-8198156D01*
X6059643Y-8198156D01*
X6078690Y-8188632D01*
X6088214Y-8169585D01*
X6088214Y-8160061D01*
X6078690Y-8141013D01*
X6059643Y-8131489D01*
X6031071Y-8131489D01*
X6012024Y-8121966D01*
X6002500Y-8102918D01*
X6002500Y-8093394D01*
X6012024Y-8074347D01*
X6031071Y-8064823D01*
X6059643Y-8064823D01*
X6078690Y-8074347D01*
X6154881Y-8274347D02*
X6164405Y-8264823D01*
X6183452Y-8236251D01*
X6192976Y-8217204D01*
X6202500Y-8188632D01*
X6212024Y-8141013D01*
X6212024Y-8102918D01*
X6202500Y-8055299D01*
X6192976Y-8026728D01*
X6183452Y-8007680D01*
X6164405Y-7979108D01*
X6154881Y-7969585D01*
X6516786Y-8274347D02*
X6507262Y-8264823D01*
X6488214Y-8236251D01*
X6478690Y-8217204D01*
X6469167Y-8188632D01*
X6459643Y-8141013D01*
X6459643Y-8102918D01*
X6469167Y-8055299D01*
X6478690Y-8026728D01*
X6488214Y-8007680D01*
X6507262Y-7979108D01*
X6516786Y-7969585D01*
X6592976Y-8064823D02*
X6592976Y-8198156D01*
X6592976Y-8083870D02*
X6602500Y-8074347D01*
X6621548Y-8064823D01*
X6650119Y-8064823D01*
X6669167Y-8074347D01*
X6678690Y-8093394D01*
X6678690Y-8198156D01*
X6802500Y-8198156D02*
X6783452Y-8188632D01*
X6773928Y-8179108D01*
X6764405Y-8160061D01*
X6764405Y-8102918D01*
X6773928Y-8083870D01*
X6783452Y-8074347D01*
X6802500Y-8064823D01*
X6831071Y-8064823D01*
X6850119Y-8074347D01*
X6859643Y-8083870D01*
X6869167Y-8102918D01*
X6869167Y-8160061D01*
X6859643Y-8179108D01*
X6850119Y-8188632D01*
X6831071Y-8198156D01*
X6802500Y-8198156D01*
X6926309Y-8064823D02*
X7002500Y-8064823D01*
X6954881Y-7998156D02*
X6954881Y-8169585D01*
X6964405Y-8188632D01*
X6983452Y-8198156D01*
X7002500Y-8198156D01*
X7221548Y-8064823D02*
X7221548Y-8264823D01*
X7221548Y-8074347D02*
X7240595Y-8064823D01*
X7278690Y-8064823D01*
X7297738Y-8074347D01*
X7307262Y-8083870D01*
X7316786Y-8102918D01*
X7316786Y-8160061D01*
X7307262Y-8179108D01*
X7297738Y-8188632D01*
X7278690Y-8198156D01*
X7240595Y-8198156D01*
X7221548Y-8188632D01*
X7431071Y-8198156D02*
X7412024Y-8188632D01*
X7402500Y-8169585D01*
X7402500Y-7998156D01*
X7592976Y-8198156D02*
X7592976Y-8093394D01*
X7583452Y-8074347D01*
X7564405Y-8064823D01*
X7526309Y-8064823D01*
X7507262Y-8074347D01*
X7592976Y-8188632D02*
X7573928Y-8198156D01*
X7526309Y-8198156D01*
X7507262Y-8188632D01*
X7497738Y-8169585D01*
X7497738Y-8150537D01*
X7507262Y-8131489D01*
X7526309Y-8121966D01*
X7573928Y-8121966D01*
X7592976Y-8112442D01*
X7659643Y-8064823D02*
X7735833Y-8064823D01*
X7688214Y-7998156D02*
X7688214Y-8169585D01*
X7697738Y-8188632D01*
X7716786Y-8198156D01*
X7735833Y-8198156D01*
X7878690Y-8188632D02*
X7859643Y-8198156D01*
X7821548Y-8198156D01*
X7802500Y-8188632D01*
X7792976Y-8169585D01*
X7792976Y-8093394D01*
X7802500Y-8074347D01*
X7821548Y-8064823D01*
X7859643Y-8064823D01*
X7878690Y-8074347D01*
X7888214Y-8093394D01*
X7888214Y-8112442D01*
X7792976Y-8131489D01*
X8059643Y-8198156D02*
X8059643Y-7998156D01*
X8059643Y-8188632D02*
X8040595Y-8198156D01*
X8002500Y-8198156D01*
X7983452Y-8188632D01*
X7973928Y-8179108D01*
X7964405Y-8160061D01*
X7964405Y-8102918D01*
X7973928Y-8083870D01*
X7983452Y-8074347D01*
X8002500Y-8064823D01*
X8040595Y-8064823D01*
X8059643Y-8074347D01*
X8135833Y-8274347D02*
X8145357Y-8264823D01*
X8164405Y-8236251D01*
X8173928Y-8217204D01*
X8183452Y-8188632D01*
X8192976Y-8141013D01*
X8192976Y-8102918D01*
X8183452Y-8055299D01*
X8173928Y-8026728D01*
X8164405Y-8007680D01*
X8145357Y-7979108D01*
X8135833Y-7969585D01*
M02*
