M48
; DRILL file {KiCad (6.0.8)} date Thu May 18 22:36:05 2023
; FORMAT={-:-/ absolute / metric / decimal}
; #@! TF.CreationDate,2023-05-18T22:36:05+10:00
; #@! TF.GenerationSoftware,Kicad,Pcbnew,(6.0.8)
; #@! TF.FileFunction,Plated,1,2,PTH
FMAT,2
METRIC
; #@! TA.AperFunction,Plated,PTH,ViaDrill
T1C0.400
; #@! TA.AperFunction,Plated,PTH,ComponentDrill
T2C0.800
; #@! TA.AperFunction,Plated,PTH,ComponentDrill
T3C1.000
; #@! TA.AperFunction,Plated,PTH,ComponentDrill
T4C1.092
; #@! TA.AperFunction,Plated,PTH,ComponentDrill
T5C1.100
; #@! TA.AperFunction,Plated,PTH,ComponentDrill
T6C1.300
; #@! TA.AperFunction,Plated,PTH,ComponentDrill
T7C1.499
; #@! TA.AperFunction,Plated,PTH,ComponentDrill
T8C1.500
; #@! TA.AperFunction,Plated,PTH,ComponentDrill
T9C1.600
%
G90
G05
T1
X151.0Y-71.5
X151.0Y-72.75
X151.0Y-74.0
X165.0Y-59.5
X170.5Y-89.0
X174.0Y-89.0
T2
X91.2Y-78.38
X91.2Y-86.0
X91.2Y-97.38
X91.2Y-105.0
X93.75Y-40.38
X93.75Y-48.0
X110.2Y-59.38
X110.2Y-67.0
X110.2Y-78.38
X110.2Y-86.0
X112.75Y-31.13
X112.75Y-38.75
X118.5Y-83.495
X118.5Y-88.0
X125.0Y-87.998
X125.0Y-83.5
X129.2Y-50.13
X129.2Y-57.75
X129.2Y-69.13
X129.2Y-76.75
X131.75Y-40.38
X131.75Y-48.0
X131.75Y-97.38
X131.75Y-105.0
X148.2Y-59.38
X148.2Y-67.0
X148.2Y-78.38
X148.2Y-86.0
X150.75Y-40.38
X150.75Y-48.0
X150.75Y-59.38
X150.75Y-67.0
X150.8Y-97.37
X150.8Y-104.99
X155.75Y-26.221
X155.75Y-30.726
X162.25Y-30.724
X162.25Y-26.226
X164.5Y-108.25
X172.12Y-108.25
T3
X156.54Y-73.75
X156.54Y-88.25
X159.04Y-73.75
X161.54Y-73.75
X161.54Y-88.25
X176.5Y-67.0
X176.5Y-69.0
X176.5Y-71.0
X176.5Y-73.0
X176.5Y-77.25
X176.5Y-79.25
X176.5Y-81.25
X176.5Y-83.25
X179.0Y-68.0
X179.0Y-70.0
X179.0Y-72.0
X179.0Y-74.0
X179.0Y-76.25
X179.0Y-78.25
X179.0Y-80.25
X179.0Y-82.25
T4
X171.0Y-33.56
X171.0Y-36.1
X171.0Y-38.64
X171.0Y-41.18
X171.0Y-43.72
X171.0Y-46.26
X171.0Y-48.8
X171.0Y-51.34
X171.0Y-53.88
X171.0Y-56.42
X171.0Y-58.96
X171.0Y-61.5
X186.24Y-33.56
X186.24Y-36.1
X186.24Y-38.64
X186.24Y-41.18
X186.24Y-43.72
X186.24Y-46.26
X186.24Y-48.8
X186.24Y-51.34
X186.24Y-53.88
X186.24Y-56.42
X186.24Y-58.96
X186.24Y-61.5
T5
X176.123Y-108.23
X178.623Y-108.23
X181.123Y-108.23
X187.353Y-97.0
X187.353Y-99.5
X187.353Y-102.0
T6
X168.373Y-96.25
X168.373Y-102.75
X172.873Y-96.25
X172.873Y-102.75
T7
X79.23Y-78.54
X79.23Y-97.54
X80.5Y-76.0
X80.5Y-95.0
X85.58Y-76.0
X85.58Y-95.0
X86.85Y-78.54
X86.85Y-97.54
X98.23Y-40.54
X98.23Y-59.54
X98.23Y-78.54
X99.5Y-38.0
X99.5Y-57.0
X99.5Y-76.0
X104.58Y-38.0
X104.58Y-57.0
X104.58Y-76.0
X105.85Y-40.54
X105.85Y-59.54
X105.85Y-78.54
X117.23Y-31.29
X117.23Y-50.29
X117.23Y-69.29
X118.5Y-28.75
X118.5Y-47.75
X118.5Y-66.75
X123.58Y-28.75
X123.58Y-47.75
X123.58Y-66.75
X124.85Y-31.29
X124.85Y-50.29
X124.85Y-69.29
X136.23Y-40.54
X136.23Y-59.54
X136.23Y-78.54
X136.23Y-97.54
X137.5Y-38.0
X137.5Y-57.0
X137.5Y-76.0
X137.5Y-95.0
X142.58Y-38.0
X142.58Y-57.0
X142.58Y-76.0
X142.58Y-95.0
X143.85Y-40.54
X143.85Y-59.54
X143.85Y-78.54
X143.85Y-97.54
X155.23Y-40.54
X155.23Y-59.54
X155.28Y-97.53
X156.5Y-38.0
X156.5Y-57.0
X156.55Y-94.99
X161.58Y-38.0
X161.58Y-57.0
X161.63Y-94.99
X162.85Y-40.54
X162.85Y-59.54
X162.9Y-97.53
T8
X176.083Y-94.9
X182.433Y-97.44
T9
X173.623Y-93.175
X173.623Y-105.825
X183.623Y-93.175
X183.623Y-105.825
T8
X153.44Y-80.6G85X153.44Y-81.9
G05
X164.64Y-80.6G85X164.64Y-81.9
G05
T0
M30
