G04 #@! TF.GenerationSoftware,KiCad,Pcbnew,(6.0.8)*
G04 #@! TF.CreationDate,2023-05-18T22:35:38+10:00*
G04 #@! TF.ProjectId,shingleback,7368696e-676c-4656-9261-636b2e6b6963,rev?*
G04 #@! TF.SameCoordinates,Original*
G04 #@! TF.FileFunction,Copper,L1,Top*
G04 #@! TF.FilePolarity,Positive*
%FSLAX46Y46*%
G04 Gerber Fmt 4.6, Leading zero omitted, Abs format (unit mm)*
G04 Created by KiCad (PCBNEW (6.0.8)) date 2023-05-18 22:35:38*
%MOMM*%
%LPD*%
G01*
G04 APERTURE LIST*
%ADD10C,0.150000*%
G04 #@! TA.AperFunction,NonConductor*
%ADD11C,0.150000*%
G04 #@! TD*
%ADD12C,0.450000*%
G04 #@! TA.AperFunction,NonConductor*
%ADD13C,0.450000*%
G04 #@! TD*
G04 #@! TA.AperFunction,ComponentPad*
%ADD14C,2.286000*%
G04 #@! TD*
G04 #@! TA.AperFunction,ComponentPad*
%ADD15R,1.752600X1.752600*%
G04 #@! TD*
G04 #@! TA.AperFunction,ComponentPad*
%ADD16C,1.752600*%
G04 #@! TD*
G04 #@! TA.AperFunction,ComponentPad*
%ADD17R,1.600000X1.600000*%
G04 #@! TD*
G04 #@! TA.AperFunction,ComponentPad*
%ADD18O,1.600000X1.600000*%
G04 #@! TD*
G04 #@! TA.AperFunction,ComponentPad*
%ADD19C,1.500000*%
G04 #@! TD*
G04 #@! TA.AperFunction,WasherPad*
%ADD20C,2.100000*%
G04 #@! TD*
G04 #@! TA.AperFunction,ComponentPad*
%ADD21R,2.000000X2.000000*%
G04 #@! TD*
G04 #@! TA.AperFunction,ComponentPad*
%ADD22C,2.000000*%
G04 #@! TD*
G04 #@! TA.AperFunction,ComponentPad*
%ADD23R,2.000000X3.200000*%
G04 #@! TD*
G04 #@! TA.AperFunction,ComponentPad*
%ADD24C,1.950000*%
G04 #@! TD*
G04 #@! TA.AperFunction,ComponentPad*
%ADD25C,1.650000*%
G04 #@! TD*
G04 #@! TA.AperFunction,ComponentPad*
%ADD26C,2.400000*%
G04 #@! TD*
G04 #@! TA.AperFunction,ComponentPad*
%ADD27C,2.200000*%
G04 #@! TD*
G04 #@! TA.AperFunction,ViaPad*
%ADD28C,0.800000*%
G04 #@! TD*
G04 #@! TA.AperFunction,Conductor*
%ADD29C,0.250000*%
G04 #@! TD*
G04 #@! TA.AperFunction,Conductor*
%ADD30C,0.200000*%
G04 #@! TD*
G04 APERTURE END LIST*
D10*
D11*
X151321428Y-109202380D02*
X151321428Y-108202380D01*
X151321428Y-108583333D02*
X151416666Y-108535714D01*
X151607142Y-108535714D01*
X151702380Y-108583333D01*
X151750000Y-108630952D01*
X151797619Y-108726190D01*
X151797619Y-109011904D01*
X151750000Y-109107142D01*
X151702380Y-109154761D01*
X151607142Y-109202380D01*
X151416666Y-109202380D01*
X151321428Y-109154761D01*
X152130952Y-108535714D02*
X152369047Y-109202380D01*
X152607142Y-108535714D02*
X152369047Y-109202380D01*
X152273809Y-109440476D01*
X152226190Y-109488095D01*
X152130952Y-109535714D01*
X154178571Y-108535714D02*
X154178571Y-109345238D01*
X154130952Y-109440476D01*
X154083333Y-109488095D01*
X153988095Y-109535714D01*
X153845238Y-109535714D01*
X153750000Y-109488095D01*
X154178571Y-109154761D02*
X154083333Y-109202380D01*
X153892857Y-109202380D01*
X153797619Y-109154761D01*
X153750000Y-109107142D01*
X153702380Y-109011904D01*
X153702380Y-108726190D01*
X153750000Y-108630952D01*
X153797619Y-108583333D01*
X153892857Y-108535714D01*
X154083333Y-108535714D01*
X154178571Y-108583333D01*
X154654761Y-108535714D02*
X154654761Y-109202380D01*
X154654761Y-108630952D02*
X154702380Y-108583333D01*
X154797619Y-108535714D01*
X154940476Y-108535714D01*
X155035714Y-108583333D01*
X155083333Y-108678571D01*
X155083333Y-109202380D01*
X155988095Y-109202380D02*
X155988095Y-108678571D01*
X155940476Y-108583333D01*
X155845238Y-108535714D01*
X155654761Y-108535714D01*
X155559523Y-108583333D01*
X155988095Y-109154761D02*
X155892857Y-109202380D01*
X155654761Y-109202380D01*
X155559523Y-109154761D01*
X155511904Y-109059523D01*
X155511904Y-108964285D01*
X155559523Y-108869047D01*
X155654761Y-108821428D01*
X155892857Y-108821428D01*
X155988095Y-108773809D01*
X156369047Y-108535714D02*
X156559523Y-109202380D01*
X156750000Y-108726190D01*
X156940476Y-109202380D01*
X157130952Y-108535714D01*
X157511904Y-109202380D02*
X157511904Y-108535714D01*
X157511904Y-108630952D02*
X157559523Y-108583333D01*
X157654761Y-108535714D01*
X157797619Y-108535714D01*
X157892857Y-108583333D01*
X157940476Y-108678571D01*
X157940476Y-109202380D01*
X157940476Y-108678571D02*
X157988095Y-108583333D01*
X158083333Y-108535714D01*
X158226190Y-108535714D01*
X158321428Y-108583333D01*
X158369047Y-108678571D01*
X158369047Y-109202380D01*
X159273809Y-109202380D02*
X159273809Y-108678571D01*
X159226190Y-108583333D01*
X159130952Y-108535714D01*
X158940476Y-108535714D01*
X158845238Y-108583333D01*
X159273809Y-109154761D02*
X159178571Y-109202380D01*
X158940476Y-109202380D01*
X158845238Y-109154761D01*
X158797619Y-109059523D01*
X158797619Y-108964285D01*
X158845238Y-108869047D01*
X158940476Y-108821428D01*
X159178571Y-108821428D01*
X159273809Y-108773809D01*
X159750000Y-108535714D02*
X159750000Y-109202380D01*
X159750000Y-108630952D02*
X159797619Y-108583333D01*
X159892857Y-108535714D01*
X160035714Y-108535714D01*
X160130952Y-108583333D01*
X160178571Y-108678571D01*
X160178571Y-109202380D01*
D12*
D13*
X98707500Y-100299285D02*
X98993214Y-100442142D01*
X99564642Y-100442142D01*
X99850357Y-100299285D01*
X99993214Y-100013571D01*
X99993214Y-99870714D01*
X99850357Y-99585000D01*
X99564642Y-99442142D01*
X99136071Y-99442142D01*
X98850357Y-99299285D01*
X98707500Y-99013571D01*
X98707500Y-98870714D01*
X98850357Y-98585000D01*
X99136071Y-98442142D01*
X99564642Y-98442142D01*
X99850357Y-98585000D01*
X101278928Y-100442142D02*
X101278928Y-97442142D01*
X102564642Y-100442142D02*
X102564642Y-98870714D01*
X102421785Y-98585000D01*
X102136071Y-98442142D01*
X101707500Y-98442142D01*
X101421785Y-98585000D01*
X101278928Y-98727857D01*
X103993214Y-100442142D02*
X103993214Y-98442142D01*
X103993214Y-97442142D02*
X103850357Y-97585000D01*
X103993214Y-97727857D01*
X104136071Y-97585000D01*
X103993214Y-97442142D01*
X103993214Y-97727857D01*
X105421785Y-98442142D02*
X105421785Y-100442142D01*
X105421785Y-98727857D02*
X105564642Y-98585000D01*
X105850357Y-98442142D01*
X106278928Y-98442142D01*
X106564642Y-98585000D01*
X106707500Y-98870714D01*
X106707500Y-100442142D01*
X109421785Y-98442142D02*
X109421785Y-100870714D01*
X109278928Y-101156428D01*
X109136071Y-101299285D01*
X108850357Y-101442142D01*
X108421785Y-101442142D01*
X108136071Y-101299285D01*
X109421785Y-100299285D02*
X109136071Y-100442142D01*
X108564642Y-100442142D01*
X108278928Y-100299285D01*
X108136071Y-100156428D01*
X107993214Y-99870714D01*
X107993214Y-99013571D01*
X108136071Y-98727857D01*
X108278928Y-98585000D01*
X108564642Y-98442142D01*
X109136071Y-98442142D01*
X109421785Y-98585000D01*
X111278928Y-100442142D02*
X110993214Y-100299285D01*
X110850357Y-100013571D01*
X110850357Y-97442142D01*
X113564642Y-100299285D02*
X113278928Y-100442142D01*
X112707500Y-100442142D01*
X112421785Y-100299285D01*
X112278928Y-100013571D01*
X112278928Y-98870714D01*
X112421785Y-98585000D01*
X112707500Y-98442142D01*
X113278928Y-98442142D01*
X113564642Y-98585000D01*
X113707500Y-98870714D01*
X113707500Y-99156428D01*
X112278928Y-99442142D01*
X114993214Y-100442142D02*
X114993214Y-97442142D01*
X114993214Y-98585000D02*
X115278928Y-98442142D01*
X115850357Y-98442142D01*
X116136071Y-98585000D01*
X116278928Y-98727857D01*
X116421785Y-99013571D01*
X116421785Y-99870714D01*
X116278928Y-100156428D01*
X116136071Y-100299285D01*
X115850357Y-100442142D01*
X115278928Y-100442142D01*
X114993214Y-100299285D01*
X118993214Y-100442142D02*
X118993214Y-98870714D01*
X118850357Y-98585000D01*
X118564642Y-98442142D01*
X117993214Y-98442142D01*
X117707500Y-98585000D01*
X118993214Y-100299285D02*
X118707500Y-100442142D01*
X117993214Y-100442142D01*
X117707500Y-100299285D01*
X117564642Y-100013571D01*
X117564642Y-99727857D01*
X117707500Y-99442142D01*
X117993214Y-99299285D01*
X118707500Y-99299285D01*
X118993214Y-99156428D01*
X121707500Y-100299285D02*
X121421785Y-100442142D01*
X120850357Y-100442142D01*
X120564642Y-100299285D01*
X120421785Y-100156428D01*
X120278928Y-99870714D01*
X120278928Y-99013571D01*
X120421785Y-98727857D01*
X120564642Y-98585000D01*
X120850357Y-98442142D01*
X121421785Y-98442142D01*
X121707500Y-98585000D01*
X122993214Y-100442142D02*
X122993214Y-97442142D01*
X123278928Y-99299285D02*
X124136071Y-100442142D01*
X124136071Y-98442142D02*
X122993214Y-99585000D01*
X115850357Y-105272142D02*
X115850357Y-103272142D01*
X115850357Y-103843571D02*
X115993214Y-103557857D01*
X116136071Y-103415000D01*
X116421785Y-103272142D01*
X116707500Y-103272142D01*
X118850357Y-105129285D02*
X118564642Y-105272142D01*
X117993214Y-105272142D01*
X117707500Y-105129285D01*
X117564642Y-104843571D01*
X117564642Y-103700714D01*
X117707500Y-103415000D01*
X117993214Y-103272142D01*
X118564642Y-103272142D01*
X118850357Y-103415000D01*
X118993214Y-103700714D01*
X118993214Y-103986428D01*
X117564642Y-104272142D01*
X119993214Y-103272142D02*
X120707500Y-105272142D01*
X121421785Y-103272142D01*
X124136071Y-105272142D02*
X122421785Y-105272142D01*
X123278928Y-105272142D02*
X123278928Y-102272142D01*
X122993214Y-102700714D01*
X122707500Y-102986428D01*
X122421785Y-103129285D01*
D14*
X156500000Y-57000000D03*
X161580000Y-57000000D03*
X162850000Y-59540000D03*
X155230000Y-59540000D03*
X118500000Y-28750000D03*
X123580000Y-28750000D03*
X117230000Y-31290000D03*
X124850000Y-31290000D03*
X104580000Y-38000000D03*
X99500000Y-38000000D03*
X98230000Y-40540000D03*
X105850000Y-40540000D03*
D15*
X171000000Y-33560000D03*
D16*
X171000000Y-36100000D03*
X171000000Y-38640000D03*
X171000000Y-41180000D03*
X171000000Y-43720000D03*
X171000000Y-46260000D03*
X171000000Y-48800000D03*
X171000000Y-51340000D03*
X171000000Y-53880000D03*
X171000000Y-56420000D03*
X171000000Y-58960000D03*
X171000000Y-61500000D03*
X186240000Y-33560000D03*
X186240000Y-36100000D03*
X186240000Y-38640000D03*
X186240000Y-41180000D03*
X186240000Y-43720000D03*
X186240000Y-46260000D03*
X186240000Y-48800000D03*
X186240000Y-51340000D03*
X186240000Y-53880000D03*
X186240000Y-56420000D03*
X186240000Y-58960000D03*
X186240000Y-61500000D03*
D17*
X131750000Y-105000000D03*
D18*
X131750000Y-97380000D03*
D14*
X137500000Y-38000000D03*
X142580000Y-38000000D03*
X143850000Y-40540000D03*
X136230000Y-40540000D03*
D18*
X125000000Y-83500000D03*
D14*
X161630000Y-94989717D03*
X156550000Y-94989717D03*
X162900000Y-97529717D03*
X155280000Y-97529717D03*
D17*
X150750000Y-48000000D03*
D18*
X150750000Y-40380000D03*
X162249999Y-30723758D03*
X118500000Y-88000000D03*
X124999999Y-87997945D03*
D17*
X110200000Y-67000000D03*
D18*
X110200000Y-59380000D03*
D14*
X80500000Y-76000000D03*
X85580000Y-76000000D03*
X86850000Y-78540000D03*
X79230000Y-78540000D03*
X99500000Y-57000000D03*
X104580000Y-57000000D03*
X105850000Y-59540000D03*
X98230000Y-59540000D03*
X156500000Y-38000000D03*
X161580000Y-38000000D03*
X162850000Y-40540000D03*
X155230000Y-40540000D03*
X80500000Y-95000000D03*
X85580000Y-95000000D03*
X86850000Y-97540000D03*
X79230000Y-97540000D03*
D17*
X129200000Y-76750000D03*
D18*
X129200000Y-69130000D03*
D19*
X176500000Y-69000000D03*
X179000000Y-72000000D03*
X179000000Y-70000000D03*
X176500000Y-71000000D03*
X179000000Y-74000000D03*
X176500000Y-73000000D03*
D20*
X181500000Y-63000000D03*
X181500000Y-78000000D03*
D19*
X176500000Y-67000000D03*
X179000000Y-68000000D03*
D18*
X155750000Y-30725813D03*
D17*
X91200000Y-86000000D03*
D18*
X91200000Y-78380000D03*
D17*
X91200000Y-105000000D03*
D18*
X91200000Y-97380000D03*
D17*
X112750000Y-38750000D03*
D18*
X112750000Y-31130000D03*
D14*
X137500000Y-57000000D03*
X142580000Y-57000000D03*
X143850000Y-59540000D03*
X136230000Y-59540000D03*
D17*
X110200000Y-86000000D03*
D18*
X110200000Y-78380000D03*
D17*
X148200000Y-86000000D03*
D18*
X148200000Y-78380000D03*
D14*
X123580000Y-66750000D03*
X118500000Y-66750000D03*
X117230000Y-69290000D03*
X124850000Y-69290000D03*
D21*
X161540000Y-73750000D03*
D22*
X156540000Y-73750000D03*
X159040000Y-73750000D03*
D23*
X153440000Y-81250000D03*
X164640000Y-81250000D03*
D22*
X156540000Y-88250000D03*
X161540000Y-88250000D03*
D14*
X137500000Y-76000000D03*
X142580000Y-76000000D03*
X136230000Y-78540000D03*
X143850000Y-78540000D03*
D18*
X118500000Y-83494874D03*
D17*
X150750000Y-67000000D03*
D18*
X150750000Y-59380000D03*
D17*
X93750000Y-48000000D03*
D18*
X93750000Y-40380000D03*
D17*
X164500000Y-108250000D03*
D18*
X172120000Y-108250000D03*
D17*
X150800000Y-104989717D03*
D18*
X150800000Y-97369717D03*
D14*
X99500000Y-76000000D03*
X104580000Y-76000000D03*
X98230000Y-78540000D03*
X105850000Y-78540000D03*
X118500000Y-47750000D03*
X123580000Y-47750000D03*
X124850000Y-50290000D03*
X117230000Y-50290000D03*
D17*
X129200000Y-57750000D03*
D18*
X129200000Y-50130000D03*
X155750000Y-26220687D03*
D24*
X172873410Y-96250000D03*
X172873410Y-102750000D03*
D25*
X187353410Y-97000000D03*
X181123410Y-108230000D03*
D26*
X183623410Y-105825000D03*
X173623410Y-93175000D03*
X173623410Y-105825000D03*
X183623410Y-93175000D03*
D24*
X168373410Y-96250000D03*
X168373410Y-102750000D03*
D25*
X187353410Y-102000000D03*
X176123410Y-108230000D03*
X178623410Y-108230000D03*
X187353410Y-99500000D03*
D14*
X137500000Y-95000000D03*
X142580000Y-95000000D03*
X136230000Y-97540000D03*
X143850000Y-97540000D03*
D17*
X131750000Y-48000000D03*
D18*
X131750000Y-40380000D03*
X162250000Y-26225813D03*
D17*
X148200000Y-67000000D03*
D18*
X148200000Y-59380000D03*
D19*
X179000000Y-80250000D03*
X179000000Y-82250000D03*
X176500000Y-81250000D03*
X176500000Y-83250000D03*
D20*
X181500000Y-72250000D03*
D19*
X176500000Y-77250000D03*
X179000000Y-78250000D03*
X176500000Y-79250000D03*
X179000000Y-76250000D03*
D20*
X181500000Y-87250000D03*
D27*
X176083410Y-94900000D03*
X182433410Y-97440000D03*
D28*
X151000000Y-71500000D03*
X151000000Y-72750000D03*
X151000000Y-74000000D03*
X174000000Y-89000000D03*
X165000000Y-59500000D03*
X170500000Y-89000000D03*
D29*
X189500000Y-92000000D02*
X187750000Y-90250000D01*
D30*
X156540000Y-67540000D02*
X152000000Y-63000000D01*
D29*
X163250000Y-46000000D02*
X164750000Y-46000000D01*
D30*
X154000000Y-56000000D02*
X163500000Y-46500000D01*
D29*
X154250000Y-66000000D02*
X151500000Y-63250000D01*
D30*
X161540000Y-73750000D02*
X161540000Y-71790000D01*
D29*
X152250000Y-58500000D02*
X153500000Y-57250000D01*
D30*
X165750000Y-31000000D02*
X163250000Y-28500000D01*
X153250000Y-60750000D02*
X153250000Y-59000000D01*
D29*
X184500000Y-49600000D02*
X186240000Y-51340000D01*
X164750000Y-46000000D02*
X166750000Y-44000000D01*
D30*
X180750000Y-39860000D02*
X180750000Y-36250000D01*
X184750000Y-40640000D02*
X184750000Y-42500000D01*
X186240000Y-38640000D02*
X186240000Y-39150000D01*
X152750000Y-58750000D02*
X154000000Y-57500000D01*
X156970687Y-26220687D02*
X155750000Y-26220687D01*
X163250000Y-28500000D02*
X162250000Y-27500000D01*
X182433410Y-97440000D02*
X174810000Y-97440000D01*
X121499999Y-84997945D02*
X122997944Y-83500000D01*
D29*
X178623410Y-109623410D02*
X178750000Y-109750000D01*
D30*
X152500000Y-62750000D02*
X152500000Y-61500000D01*
X174810000Y-97440000D02*
X174000000Y-98250000D01*
X163500000Y-46500000D02*
X165000000Y-46500000D01*
X152000000Y-61250000D02*
X152750000Y-60500000D01*
X184250000Y-43000000D02*
X184750000Y-42500000D01*
X154000000Y-57500000D02*
X154000000Y-56000000D01*
X186240000Y-43720000D02*
X183720000Y-43720000D01*
X184250000Y-43000000D02*
X183890000Y-43000000D01*
D29*
X188500000Y-62750000D02*
X188500000Y-48520000D01*
D30*
X119996928Y-83494874D02*
X118500000Y-83494874D01*
D29*
X151500000Y-61000000D02*
X152250000Y-60250000D01*
X153500000Y-55750000D02*
X163250000Y-46000000D01*
D30*
X152500000Y-61500000D02*
X153250000Y-60750000D01*
D29*
X187750000Y-90250000D02*
X187750000Y-63500000D01*
X156540000Y-88250000D02*
X156540000Y-76290000D01*
X178750000Y-109750000D02*
X179000000Y-109750000D01*
D30*
X174000000Y-98250000D02*
X170250000Y-98250000D01*
D29*
X168373410Y-96250000D02*
X168373410Y-102750000D01*
D30*
X163750000Y-47000000D02*
X165250000Y-47000000D01*
X153250000Y-59000000D02*
X154500000Y-57750000D01*
D29*
X178623410Y-108230000D02*
X178623410Y-109623410D01*
D30*
X74500000Y-65000000D02*
X74500000Y-108500000D01*
X167750000Y-44500000D02*
X167750000Y-39350000D01*
D29*
X187353410Y-99500000D02*
X188750000Y-98103410D01*
D30*
X156540000Y-73750000D02*
X156540000Y-67540000D01*
D29*
X151500000Y-63250000D02*
X151500000Y-61000000D01*
X152250000Y-60250000D02*
X152250000Y-58500000D01*
D30*
X163250000Y-28500000D02*
X159250000Y-28500000D01*
X186240000Y-39150000D02*
X184750000Y-40640000D01*
D29*
X154250000Y-74000000D02*
X154250000Y-66000000D01*
D30*
X121499999Y-84997945D02*
X119996928Y-83494874D01*
X165000000Y-31500000D02*
X163250000Y-33250000D01*
X120500000Y-91500000D02*
X121500000Y-90500000D01*
X175500000Y-31000000D02*
X165750000Y-31000000D01*
D29*
X188750000Y-92250000D02*
X187000000Y-90500000D01*
X175000000Y-32000000D02*
X179750000Y-36750000D01*
D30*
X95750000Y-91500000D02*
X120500000Y-91500000D01*
X159250000Y-28500000D02*
X156970687Y-26220687D01*
D29*
X187750000Y-63500000D02*
X188500000Y-62750000D01*
D30*
X180250000Y-40250000D02*
X180250000Y-36500000D01*
D29*
X184500000Y-45250000D02*
X184500000Y-49600000D01*
D30*
X93750000Y-106750000D02*
X93750000Y-93500000D01*
D29*
X170000000Y-32000000D02*
X175000000Y-32000000D01*
D30*
X168373410Y-96373410D02*
X168373410Y-96250000D01*
X154500000Y-57750000D02*
X154500000Y-56250000D01*
X152000000Y-63000000D02*
X152000000Y-61250000D01*
D29*
X179750000Y-36750000D02*
X179750000Y-40500000D01*
D30*
X74500000Y-108500000D02*
X92000000Y-108500000D01*
D29*
X188500000Y-48520000D02*
X186240000Y-46260000D01*
X187750000Y-50310000D02*
X186240000Y-48800000D01*
X189500000Y-99250000D02*
X189500000Y-92000000D01*
D30*
X165000000Y-46500000D02*
X167250000Y-44250000D01*
X92000000Y-108500000D02*
X93750000Y-106750000D01*
D29*
X179750000Y-40500000D02*
X184500000Y-45250000D01*
D30*
X180750000Y-36250000D02*
X175500000Y-31000000D01*
X183720000Y-43720000D02*
X180250000Y-40250000D01*
X154500000Y-56250000D02*
X163750000Y-47000000D01*
D29*
X166750000Y-35250000D02*
X170000000Y-32000000D01*
X187750000Y-62500000D02*
X187750000Y-50310000D01*
X166750000Y-44000000D02*
X166750000Y-35250000D01*
D30*
X163250000Y-33250000D02*
X142250000Y-33250000D01*
X121500000Y-90500000D02*
X121499999Y-84997945D01*
D29*
X156540000Y-76290000D02*
X154250000Y-74000000D01*
D30*
X135000000Y-26000000D02*
X113500000Y-26000000D01*
X122997944Y-83500000D02*
X125000000Y-83500000D01*
X161540000Y-71790000D02*
X152500000Y-62750000D01*
X170250000Y-98250000D02*
X168373410Y-96373410D01*
D29*
X187000000Y-63250000D02*
X187750000Y-62500000D01*
D30*
X167250000Y-37310000D02*
X171000000Y-33560000D01*
X93750000Y-93500000D02*
X95750000Y-91500000D01*
D29*
X153500000Y-57250000D02*
X153500000Y-55750000D01*
X187000000Y-90500000D02*
X187000000Y-63250000D01*
D30*
X175250000Y-31500000D02*
X165000000Y-31500000D01*
X142250000Y-33250000D02*
X135000000Y-26000000D01*
X167750000Y-39350000D02*
X171000000Y-36100000D01*
X167250000Y-44250000D02*
X167250000Y-37310000D01*
X152750000Y-60500000D02*
X152750000Y-58750000D01*
D29*
X188750000Y-98103410D02*
X188750000Y-92250000D01*
D30*
X165250000Y-47000000D02*
X167750000Y-44500000D01*
X162250000Y-27500000D02*
X162250000Y-26225813D01*
X183890000Y-43000000D02*
X180750000Y-39860000D01*
X180250000Y-36500000D02*
X175250000Y-31500000D01*
D29*
X179000000Y-109750000D02*
G75*
G03*
X189500000Y-99250000I0J10500000D01*
G01*
D30*
X74500000Y-65000000D02*
G75*
G02*
X113500000Y-26000000I39000000J0D01*
G01*
D29*
X171000000Y-43720000D02*
X170780000Y-43720000D01*
X170780000Y-43720000D02*
X166750000Y-47750000D01*
X167500000Y-83250000D02*
X176500000Y-83250000D01*
X166750000Y-47750000D02*
X166750000Y-82500000D01*
X166750000Y-82500000D02*
X167500000Y-83250000D01*
X168250000Y-81250000D02*
X176500000Y-81250000D01*
X167250000Y-80250000D02*
X168250000Y-81250000D01*
X170000000Y-47250000D02*
X167250000Y-50000000D01*
X167250000Y-50000000D02*
X167250000Y-80250000D01*
X170010000Y-47250000D02*
X170000000Y-47250000D01*
X171000000Y-46260000D02*
X170010000Y-47250000D01*
X168500000Y-79250000D02*
X176500000Y-79250000D01*
X167750000Y-51750000D02*
X167750000Y-78500000D01*
X167750000Y-78500000D02*
X168500000Y-79250000D01*
X170700000Y-48800000D02*
X167750000Y-51750000D01*
X169250000Y-77250000D02*
X176500000Y-77250000D01*
X168250000Y-76250000D02*
X169250000Y-77250000D01*
X170910000Y-51340000D02*
X168250000Y-54000000D01*
X168250000Y-54000000D02*
X168250000Y-76250000D01*
X128250000Y-28750000D02*
X137500000Y-38000000D01*
X147250000Y-61250000D02*
X147250000Y-64750000D01*
X146745901Y-60745901D02*
X147250000Y-61250000D01*
X179000000Y-82250000D02*
X181000000Y-82250000D01*
X181000000Y-68250000D02*
X179100000Y-68250000D01*
X137500000Y-38000000D02*
X142580000Y-38000000D01*
X104580000Y-38000000D02*
X104580000Y-36383554D01*
X99500000Y-38000000D02*
X104580000Y-38000000D01*
X181000000Y-82250000D02*
X183500000Y-79750000D01*
X142580000Y-38000000D02*
X145750000Y-38000000D01*
X145750000Y-38000000D02*
X146745901Y-38995901D01*
X112213554Y-28750000D02*
X118500000Y-28750000D01*
X146500000Y-68750000D02*
X147500000Y-69750000D01*
X179100000Y-68250000D02*
X179000000Y-68150000D01*
X104580000Y-36383554D02*
X112213554Y-28750000D01*
X145750000Y-38000000D02*
X156500000Y-38000000D01*
X183500000Y-70750000D02*
X181000000Y-68250000D01*
X123580000Y-28750000D02*
X128250000Y-28750000D01*
X183500000Y-79750000D02*
X183500000Y-70750000D01*
X147500000Y-69750000D02*
X149250000Y-69750000D01*
X146745901Y-38995901D02*
X146745901Y-60745901D01*
X147250000Y-64750000D02*
X146500000Y-65500000D01*
X146500000Y-65500000D02*
X146500000Y-68750000D01*
X118500000Y-28750000D02*
X123580000Y-28750000D01*
X156500000Y-38000000D02*
X161580000Y-38000000D01*
X149250000Y-69750000D02*
X151000000Y-71500000D01*
X179100000Y-70250000D02*
X179000000Y-70150000D01*
X104580000Y-57000000D02*
X113830000Y-47750000D01*
X137500000Y-57000000D02*
X142580000Y-57000000D01*
X99500000Y-57000000D02*
X95000000Y-57000000D01*
X113830000Y-47750000D02*
X118500000Y-47750000D01*
D30*
X145750000Y-65500000D02*
X146825000Y-64425000D01*
D29*
X95000000Y-67000000D02*
X88500000Y-73500000D01*
D30*
X146825000Y-64425000D02*
X146825000Y-61575000D01*
X148750000Y-70500000D02*
X147000000Y-70500000D01*
D29*
X85580000Y-74420000D02*
X85580000Y-76000000D01*
D30*
X147000000Y-70500000D02*
X145750000Y-69250000D01*
D29*
X123580000Y-47750000D02*
X128750000Y-47750000D01*
X179000000Y-80250000D02*
X182000000Y-80250000D01*
X95000000Y-57000000D02*
X95000000Y-67000000D01*
D30*
X146320901Y-59070901D02*
X144250000Y-57000000D01*
X145750000Y-69250000D02*
X145750000Y-65500000D01*
D29*
X183000000Y-71250000D02*
X182000000Y-70250000D01*
X86500000Y-73500000D02*
X85580000Y-74420000D01*
D30*
X151000000Y-72750000D02*
X148750000Y-70500000D01*
D29*
X182000000Y-70250000D02*
X179100000Y-70250000D01*
X99500000Y-57000000D02*
X104580000Y-57000000D01*
X183000000Y-79250000D02*
X183000000Y-71250000D01*
X137500000Y-56500000D02*
X137500000Y-57000000D01*
X128750000Y-47750000D02*
X137500000Y-56500000D01*
X88500000Y-73500000D02*
X86500000Y-73500000D01*
D30*
X146825000Y-61575000D02*
X146320901Y-61070901D01*
D29*
X80500000Y-76000000D02*
X85580000Y-76000000D01*
X182000000Y-80250000D02*
X183000000Y-79250000D01*
D30*
X146320901Y-61070901D02*
X146320901Y-59070901D01*
X144250000Y-57000000D02*
X142580000Y-57000000D01*
D29*
X118500000Y-47750000D02*
X123580000Y-47750000D01*
X99500000Y-76000000D02*
X104580000Y-76000000D01*
X86500000Y-90500000D02*
X90000000Y-90500000D01*
X137500000Y-75000000D02*
X137500000Y-76000000D01*
X96000000Y-76000000D02*
X99500000Y-76000000D01*
X94000000Y-78000000D02*
X96000000Y-76000000D01*
X137500000Y-76000000D02*
X142580000Y-76000000D01*
X94000000Y-86500000D02*
X94000000Y-78000000D01*
X179000000Y-72150000D02*
X180500000Y-73650000D01*
X104580000Y-76000000D02*
X113830000Y-66750000D01*
D30*
X147330000Y-71250000D02*
X142580000Y-76000000D01*
D29*
X90000000Y-90500000D02*
X94000000Y-86500000D01*
X123580000Y-66750000D02*
X129250000Y-66750000D01*
X80500000Y-95000000D02*
X85580000Y-95000000D01*
X129250000Y-66750000D02*
X137500000Y-75000000D01*
D30*
X151000000Y-74000000D02*
X148250000Y-71250000D01*
D29*
X180500000Y-73650000D02*
X180500000Y-76750000D01*
X118500000Y-66750000D02*
X123580000Y-66750000D01*
X113830000Y-66750000D02*
X118500000Y-66750000D01*
X85580000Y-95000000D02*
X85580000Y-91420000D01*
X85580000Y-91420000D02*
X86500000Y-90500000D01*
X180500000Y-76750000D02*
X179000000Y-78250000D01*
D30*
X148250000Y-71250000D02*
X147330000Y-71250000D01*
X172000000Y-90000000D02*
X172000000Y-87500000D01*
X170373410Y-93750000D02*
X166750000Y-93750000D01*
X162869717Y-93750000D02*
X161630000Y-94989717D01*
X166750000Y-93750000D02*
X162869717Y-93750000D01*
X169750000Y-92250000D02*
X172000000Y-90000000D01*
X170000000Y-85500000D02*
X167000000Y-85500000D01*
X142580000Y-95000000D02*
X137500000Y-95000000D01*
X166250000Y-93250000D02*
X166250000Y-92250000D01*
X156550000Y-94989717D02*
X142590283Y-94989717D01*
X166750000Y-93750000D02*
X166250000Y-93250000D01*
X172000000Y-87500000D02*
X170000000Y-85500000D01*
X161630000Y-94989717D02*
X156550000Y-94989717D01*
X142590283Y-94989717D02*
X142580000Y-95000000D01*
X174733410Y-96250000D02*
X172873410Y-96250000D01*
X166250000Y-84750000D02*
X166250000Y-58750000D01*
X176083410Y-94900000D02*
X174733410Y-96250000D01*
X167000000Y-85500000D02*
X166250000Y-84750000D01*
D29*
X179000000Y-74150000D02*
X179000000Y-76250000D01*
D30*
X166250000Y-58750000D02*
X164500000Y-57000000D01*
X172873410Y-96250000D02*
X170373410Y-93750000D01*
X164500000Y-57000000D02*
X161580000Y-57000000D01*
D29*
X156500000Y-57000000D02*
X161580000Y-57000000D01*
D30*
X166250000Y-92250000D02*
X169750000Y-92250000D01*
D29*
X161500000Y-78500000D02*
X165345901Y-74654099D01*
X165345901Y-59845901D02*
X165000000Y-59500000D01*
X161540000Y-88250000D02*
X161540000Y-78540000D01*
X165345901Y-74654099D02*
X165345901Y-59845901D01*
X187353410Y-97000000D02*
X187353410Y-94748324D01*
X187353410Y-94748324D02*
X186000000Y-93394914D01*
X159000000Y-76000000D02*
X159040000Y-75960000D01*
X170500000Y-89000000D02*
X164000000Y-89000000D01*
X185000000Y-100500000D02*
X181000000Y-104500000D01*
X159040000Y-75960000D02*
X159040000Y-73750000D01*
X185000000Y-99353410D02*
X185000000Y-100500000D01*
X152497945Y-87997945D02*
X124999999Y-87997945D01*
X155000000Y-90500000D02*
X152497945Y-87997945D01*
X181000000Y-108106590D02*
X181123410Y-108230000D01*
X185500000Y-89000000D02*
X181000000Y-89000000D01*
X181000000Y-89000000D02*
X174000000Y-89000000D01*
X159290000Y-90500000D02*
X155000000Y-90500000D01*
X164000000Y-89000000D02*
X163250000Y-88250000D01*
X186000000Y-89500000D02*
X185500000Y-89000000D01*
X181000000Y-104500000D02*
X181000000Y-108106590D01*
X186000000Y-93394914D02*
X186000000Y-89500000D01*
X161540000Y-88250000D02*
X159290000Y-90500000D01*
X161540000Y-78540000D02*
X161500000Y-78500000D01*
X187353410Y-97000000D02*
X185000000Y-99353410D01*
X163250000Y-88250000D02*
X161540000Y-88250000D01*
X161500000Y-78500000D02*
X159000000Y-76000000D01*
D30*
X168750000Y-56130000D02*
X168750000Y-65500000D01*
X168750000Y-65500000D02*
X176250000Y-73000000D01*
X176250000Y-73000000D02*
X176500000Y-73000000D01*
X171000000Y-53880000D02*
X168750000Y-56130000D01*
X169250000Y-58170000D02*
X169250000Y-64000000D01*
X176250000Y-71000000D02*
X176500000Y-71000000D01*
X169250000Y-64000000D02*
X176250000Y-71000000D01*
X171000000Y-56420000D02*
X169250000Y-58170000D01*
X169650000Y-62750000D02*
X175650000Y-68750000D01*
X175650000Y-68750000D02*
X176250000Y-68750000D01*
X169650000Y-60310000D02*
X169650000Y-62750000D01*
X176250000Y-68750000D02*
X176500000Y-69000000D01*
X171000000Y-58960000D02*
X169650000Y-60310000D01*
X171000000Y-61500000D02*
X176500000Y-67000000D01*
M02*
