G04 #@! TF.GenerationSoftware,KiCad,Pcbnew,(6.0.8)*
G04 #@! TF.CreationDate,2023-05-18T22:35:39+10:00*
G04 #@! TF.ProjectId,shingleback,7368696e-676c-4656-9261-636b2e6b6963,rev?*
G04 #@! TF.SameCoordinates,Original*
G04 #@! TF.FileFunction,Legend,Top*
G04 #@! TF.FilePolarity,Positive*
%FSLAX46Y46*%
G04 Gerber Fmt 4.6, Leading zero omitted, Abs format (unit mm)*
G04 Created by KiCad (PCBNEW (6.0.8)) date 2023-05-18 22:35:39*
%MOMM*%
%LPD*%
G01*
G04 APERTURE LIST*
%ADD10C,0.150000*%
%ADD11C,0.120000*%
%ADD12C,0.127000*%
%ADD13R,1.752600X1.752600*%
%ADD14C,1.752600*%
%ADD15C,0.450000*%
%ADD16C,1.701800*%
%ADD17C,3.987800*%
%ADD18C,2.286000*%
%ADD19R,1.600000X1.600000*%
%ADD20O,1.600000X1.600000*%
%ADD21C,1.500000*%
%ADD22C,2.100000*%
%ADD23R,2.000000X2.000000*%
%ADD24C,2.000000*%
%ADD25R,2.000000X3.200000*%
%ADD26C,1.650000*%
%ADD27C,1.950000*%
%ADD28C,2.400000*%
%ADD29C,4.000000*%
%ADD30C,1.700000*%
%ADD31C,2.200000*%
G04 APERTURE END LIST*
D10*
X154750000Y-31750000D02*
X163250000Y-31750000D01*
X163250000Y-31750000D02*
X163250000Y-25250000D01*
X163250000Y-25250000D02*
X154750000Y-25250000D01*
X154750000Y-25250000D02*
X154750000Y-31750000D01*
X125999999Y-88997945D02*
X117499999Y-88997945D01*
X117499999Y-88997945D02*
X117499999Y-82497945D01*
X117499999Y-82497945D02*
X125999999Y-82497945D01*
X125999999Y-82497945D02*
X125999999Y-88997945D01*
X157107142Y-28952380D02*
X157107142Y-27952380D01*
X157107142Y-28333333D02*
X157202380Y-28285714D01*
X157392857Y-28285714D01*
X157488095Y-28333333D01*
X157535714Y-28380952D01*
X157583333Y-28476190D01*
X157583333Y-28761904D01*
X157535714Y-28857142D01*
X157488095Y-28904761D01*
X157392857Y-28952380D01*
X157202380Y-28952380D01*
X157107142Y-28904761D01*
X158440476Y-28285714D02*
X158440476Y-28952380D01*
X158011904Y-28285714D02*
X158011904Y-28809523D01*
X158059523Y-28904761D01*
X158154761Y-28952380D01*
X158297619Y-28952380D01*
X158392857Y-28904761D01*
X158440476Y-28857142D01*
X158773809Y-28285714D02*
X159154761Y-28285714D01*
X158916666Y-27952380D02*
X158916666Y-28809523D01*
X158964285Y-28904761D01*
X159059523Y-28952380D01*
X159154761Y-28952380D01*
X159345238Y-28285714D02*
X159726190Y-28285714D01*
X159488095Y-27952380D02*
X159488095Y-28809523D01*
X159535714Y-28904761D01*
X159630952Y-28952380D01*
X159726190Y-28952380D01*
X160202380Y-28952380D02*
X160107142Y-28904761D01*
X160059523Y-28857142D01*
X160011904Y-28761904D01*
X160011904Y-28476190D01*
X160059523Y-28380952D01*
X160107142Y-28333333D01*
X160202380Y-28285714D01*
X160345238Y-28285714D01*
X160440476Y-28333333D01*
X160488095Y-28380952D01*
X160535714Y-28476190D01*
X160535714Y-28761904D01*
X160488095Y-28857142D01*
X160440476Y-28904761D01*
X160345238Y-28952380D01*
X160202380Y-28952380D01*
X160964285Y-28285714D02*
X160964285Y-28952380D01*
X160964285Y-28380952D02*
X161011904Y-28333333D01*
X161107142Y-28285714D01*
X161250000Y-28285714D01*
X161345238Y-28333333D01*
X161392857Y-28428571D01*
X161392857Y-28952380D01*
X175666666Y-102285714D02*
X175666666Y-103142857D01*
X175619047Y-103238095D01*
X175523809Y-103285714D01*
X175476190Y-103285714D01*
X175666666Y-101952380D02*
X175619047Y-102000000D01*
X175666666Y-102047619D01*
X175714285Y-102000000D01*
X175666666Y-101952380D01*
X175666666Y-102047619D01*
X176285714Y-102952380D02*
X176190476Y-102904761D01*
X176142857Y-102857142D01*
X176095238Y-102761904D01*
X176095238Y-102476190D01*
X176142857Y-102380952D01*
X176190476Y-102333333D01*
X176285714Y-102285714D01*
X176428571Y-102285714D01*
X176523809Y-102333333D01*
X176571428Y-102380952D01*
X176619047Y-102476190D01*
X176619047Y-102761904D01*
X176571428Y-102857142D01*
X176523809Y-102904761D01*
X176428571Y-102952380D01*
X176285714Y-102952380D01*
X176952380Y-102285714D02*
X177190476Y-102952380D01*
X177428571Y-102285714D02*
X177190476Y-102952380D01*
X177095238Y-103190476D01*
X177047619Y-103238095D01*
X176952380Y-103285714D01*
X156666666Y-85904761D02*
X156571428Y-85952380D01*
X156380952Y-85952380D01*
X156285714Y-85904761D01*
X156238095Y-85809523D01*
X156238095Y-85428571D01*
X156285714Y-85333333D01*
X156380952Y-85285714D01*
X156571428Y-85285714D01*
X156666666Y-85333333D01*
X156714285Y-85428571D01*
X156714285Y-85523809D01*
X156238095Y-85619047D01*
X157142857Y-85285714D02*
X157142857Y-85952380D01*
X157142857Y-85380952D02*
X157190476Y-85333333D01*
X157285714Y-85285714D01*
X157428571Y-85285714D01*
X157523809Y-85333333D01*
X157571428Y-85428571D01*
X157571428Y-85952380D01*
X158476190Y-85904761D02*
X158380952Y-85952380D01*
X158190476Y-85952380D01*
X158095238Y-85904761D01*
X158047619Y-85857142D01*
X158000000Y-85761904D01*
X158000000Y-85476190D01*
X158047619Y-85380952D01*
X158095238Y-85333333D01*
X158190476Y-85285714D01*
X158380952Y-85285714D01*
X158476190Y-85333333D01*
X159047619Y-85952380D02*
X158952380Y-85904761D01*
X158904761Y-85857142D01*
X158857142Y-85761904D01*
X158857142Y-85476190D01*
X158904761Y-85380952D01*
X158952380Y-85333333D01*
X159047619Y-85285714D01*
X159190476Y-85285714D01*
X159285714Y-85333333D01*
X159333333Y-85380952D01*
X159380952Y-85476190D01*
X159380952Y-85761904D01*
X159333333Y-85857142D01*
X159285714Y-85904761D01*
X159190476Y-85952380D01*
X159047619Y-85952380D01*
X160238095Y-85952380D02*
X160238095Y-84952380D01*
X160238095Y-85904761D02*
X160142857Y-85952380D01*
X159952380Y-85952380D01*
X159857142Y-85904761D01*
X159809523Y-85857142D01*
X159761904Y-85761904D01*
X159761904Y-85476190D01*
X159809523Y-85380952D01*
X159857142Y-85333333D01*
X159952380Y-85285714D01*
X160142857Y-85285714D01*
X160238095Y-85333333D01*
X161095238Y-85904761D02*
X161000000Y-85952380D01*
X160809523Y-85952380D01*
X160714285Y-85904761D01*
X160666666Y-85809523D01*
X160666666Y-85428571D01*
X160714285Y-85333333D01*
X160809523Y-85285714D01*
X161000000Y-85285714D01*
X161095238Y-85333333D01*
X161142857Y-85428571D01*
X161142857Y-85523809D01*
X160666666Y-85619047D01*
X161571428Y-85952380D02*
X161571428Y-85285714D01*
X161571428Y-85476190D02*
X161619047Y-85380952D01*
X161666666Y-85333333D01*
X161761904Y-85285714D01*
X161857142Y-85285714D01*
X177952380Y-52369047D02*
X178666666Y-52369047D01*
X178809523Y-52416666D01*
X178904761Y-52511904D01*
X178952380Y-52654761D01*
X178952380Y-52750000D01*
X178952380Y-51416666D02*
X178952380Y-51892857D01*
X177952380Y-51892857D01*
X178857142Y-50511904D02*
X178904761Y-50559523D01*
X178952380Y-50702380D01*
X178952380Y-50797619D01*
X178904761Y-50940476D01*
X178809523Y-51035714D01*
X178714285Y-51083333D01*
X178523809Y-51130952D01*
X178380952Y-51130952D01*
X178190476Y-51083333D01*
X178095238Y-51035714D01*
X178000000Y-50940476D01*
X177952380Y-50797619D01*
X177952380Y-50702380D01*
X178000000Y-50559523D01*
X178047619Y-50511904D01*
X177952380Y-49797619D02*
X178666666Y-49797619D01*
X178809523Y-49845238D01*
X178904761Y-49940476D01*
X178952380Y-50083333D01*
X178952380Y-50178571D01*
X178952380Y-48845238D02*
X178952380Y-49321428D01*
X177952380Y-49321428D01*
X178857142Y-47940476D02*
X178904761Y-47988095D01*
X178952380Y-48130952D01*
X178952380Y-48226190D01*
X178904761Y-48369047D01*
X178809523Y-48464285D01*
X178714285Y-48511904D01*
X178523809Y-48559523D01*
X178380952Y-48559523D01*
X178190476Y-48511904D01*
X178095238Y-48464285D01*
X178000000Y-48369047D01*
X177952380Y-48226190D01*
X177952380Y-48130952D01*
X178000000Y-47988095D01*
X178047619Y-47940476D01*
X177952380Y-47226190D02*
X178666666Y-47226190D01*
X178809523Y-47273809D01*
X178904761Y-47369047D01*
X178952380Y-47511904D01*
X178952380Y-47607142D01*
X178952380Y-46273809D02*
X178952380Y-46750000D01*
X177952380Y-46750000D01*
X178857142Y-45369047D02*
X178904761Y-45416666D01*
X178952380Y-45559523D01*
X178952380Y-45654761D01*
X178904761Y-45797619D01*
X178809523Y-45892857D01*
X178714285Y-45940476D01*
X178523809Y-45988095D01*
X178380952Y-45988095D01*
X178190476Y-45940476D01*
X178095238Y-45892857D01*
X178000000Y-45797619D01*
X177952380Y-45654761D01*
X177952380Y-45559523D01*
X178000000Y-45416666D01*
X178047619Y-45369047D01*
X177952380Y-44654761D02*
X178666666Y-44654761D01*
X178809523Y-44702380D01*
X178904761Y-44797619D01*
X178952380Y-44940476D01*
X178952380Y-45035714D01*
X178952380Y-43702380D02*
X178952380Y-44178571D01*
X177952380Y-44178571D01*
X178857142Y-42797619D02*
X178904761Y-42845238D01*
X178952380Y-42988095D01*
X178952380Y-43083333D01*
X178904761Y-43226190D01*
X178809523Y-43321428D01*
X178714285Y-43369047D01*
X178523809Y-43416666D01*
X178380952Y-43416666D01*
X178190476Y-43369047D01*
X178095238Y-43321428D01*
X178000000Y-43226190D01*
X177952380Y-43083333D01*
X177952380Y-42988095D01*
X178000000Y-42845238D01*
X178047619Y-42797619D01*
X157047619Y-77452380D02*
X157047619Y-76785714D01*
X157047619Y-76976190D02*
X157095238Y-76880952D01*
X157142857Y-76833333D01*
X157238095Y-76785714D01*
X157333333Y-76785714D01*
X157809523Y-77452380D02*
X157714285Y-77404761D01*
X157666666Y-77357142D01*
X157619047Y-77261904D01*
X157619047Y-76976190D01*
X157666666Y-76880952D01*
X157714285Y-76833333D01*
X157809523Y-76785714D01*
X157952380Y-76785714D01*
X158047619Y-76833333D01*
X158095238Y-76880952D01*
X158142857Y-76976190D01*
X158142857Y-77261904D01*
X158095238Y-77357142D01*
X158047619Y-77404761D01*
X157952380Y-77452380D01*
X157809523Y-77452380D01*
X158428571Y-76785714D02*
X158809523Y-76785714D01*
X158571428Y-76452380D02*
X158571428Y-77309523D01*
X158619047Y-77404761D01*
X158714285Y-77452380D01*
X158809523Y-77452380D01*
X159571428Y-77452380D02*
X159571428Y-76928571D01*
X159523809Y-76833333D01*
X159428571Y-76785714D01*
X159238095Y-76785714D01*
X159142857Y-76833333D01*
X159571428Y-77404761D02*
X159476190Y-77452380D01*
X159238095Y-77452380D01*
X159142857Y-77404761D01*
X159095238Y-77309523D01*
X159095238Y-77214285D01*
X159142857Y-77119047D01*
X159238095Y-77071428D01*
X159476190Y-77071428D01*
X159571428Y-77023809D01*
X160047619Y-77452380D02*
X160047619Y-76785714D01*
X160047619Y-76976190D02*
X160095238Y-76880952D01*
X160142857Y-76833333D01*
X160238095Y-76785714D01*
X160333333Y-76785714D01*
X160571428Y-76785714D02*
X160809523Y-77452380D01*
X161047619Y-76785714D02*
X160809523Y-77452380D01*
X160714285Y-77690476D01*
X160666666Y-77738095D01*
X160571428Y-77785714D01*
X119857142Y-86202380D02*
X119857142Y-85202380D01*
X119857142Y-85583333D02*
X119952380Y-85535714D01*
X120142857Y-85535714D01*
X120238095Y-85583333D01*
X120285714Y-85630952D01*
X120333333Y-85726190D01*
X120333333Y-86011904D01*
X120285714Y-86107142D01*
X120238095Y-86154761D01*
X120142857Y-86202380D01*
X119952380Y-86202380D01*
X119857142Y-86154761D01*
X121190476Y-85535714D02*
X121190476Y-86202380D01*
X120761904Y-85535714D02*
X120761904Y-86059523D01*
X120809523Y-86154761D01*
X120904761Y-86202380D01*
X121047619Y-86202380D01*
X121142857Y-86154761D01*
X121190476Y-86107142D01*
X121523809Y-85535714D02*
X121904761Y-85535714D01*
X121666666Y-85202380D02*
X121666666Y-86059523D01*
X121714285Y-86154761D01*
X121809523Y-86202380D01*
X121904761Y-86202380D01*
X122095238Y-85535714D02*
X122476190Y-85535714D01*
X122238095Y-85202380D02*
X122238095Y-86059523D01*
X122285714Y-86154761D01*
X122380952Y-86202380D01*
X122476190Y-86202380D01*
X122952380Y-86202380D02*
X122857142Y-86154761D01*
X122809523Y-86107142D01*
X122761904Y-86011904D01*
X122761904Y-85726190D01*
X122809523Y-85630952D01*
X122857142Y-85583333D01*
X122952380Y-85535714D01*
X123095238Y-85535714D01*
X123190476Y-85583333D01*
X123238095Y-85630952D01*
X123285714Y-85726190D01*
X123285714Y-86011904D01*
X123238095Y-86107142D01*
X123190476Y-86154761D01*
X123095238Y-86202380D01*
X122952380Y-86202380D01*
X123714285Y-85535714D02*
X123714285Y-86202380D01*
X123714285Y-85630952D02*
X123761904Y-85583333D01*
X123857142Y-85535714D01*
X123999999Y-85535714D01*
X124095238Y-85583333D01*
X124142857Y-85678571D01*
X124142857Y-86202380D01*
X179678571Y-102904761D02*
X179773809Y-102952380D01*
X179964285Y-102952380D01*
X180059523Y-102904761D01*
X180107142Y-102809523D01*
X180107142Y-102761904D01*
X180059523Y-102666666D01*
X179964285Y-102619047D01*
X179821428Y-102619047D01*
X179726190Y-102571428D01*
X179678571Y-102476190D01*
X179678571Y-102428571D01*
X179726190Y-102333333D01*
X179821428Y-102285714D01*
X179964285Y-102285714D01*
X180059523Y-102333333D01*
X180392857Y-102285714D02*
X180773809Y-102285714D01*
X180535714Y-101952380D02*
X180535714Y-102809523D01*
X180583333Y-102904761D01*
X180678571Y-102952380D01*
X180773809Y-102952380D01*
X181107142Y-102952380D02*
X181107142Y-102285714D01*
X181107142Y-101952380D02*
X181059523Y-102000000D01*
X181107142Y-102047619D01*
X181154761Y-102000000D01*
X181107142Y-101952380D01*
X181107142Y-102047619D01*
X182011904Y-102904761D02*
X181916666Y-102952380D01*
X181726190Y-102952380D01*
X181630952Y-102904761D01*
X181583333Y-102857142D01*
X181535714Y-102761904D01*
X181535714Y-102476190D01*
X181583333Y-102380952D01*
X181630952Y-102333333D01*
X181726190Y-102285714D01*
X181916666Y-102285714D01*
X182011904Y-102333333D01*
X182440476Y-102952380D02*
X182440476Y-101952380D01*
X182535714Y-102571428D02*
X182821428Y-102952380D01*
X182821428Y-102285714D02*
X182440476Y-102666666D01*
X185752380Y-71511904D02*
X185085714Y-71511904D01*
X185276190Y-71511904D02*
X185180952Y-71464285D01*
X185133333Y-71416666D01*
X185085714Y-71321428D01*
X185085714Y-71226190D01*
X185085714Y-70892857D02*
X185942857Y-70892857D01*
X186038095Y-70940476D01*
X186085714Y-71035714D01*
X186085714Y-71083333D01*
X184752380Y-70892857D02*
X184800000Y-70940476D01*
X184847619Y-70892857D01*
X184800000Y-70845238D01*
X184752380Y-70892857D01*
X184847619Y-70892857D01*
X185085714Y-69988095D02*
X185752380Y-69988095D01*
X184704761Y-70226190D02*
X185419047Y-70464285D01*
X185419047Y-69845238D01*
X184752380Y-68988095D02*
X184752380Y-69464285D01*
X185228571Y-69511904D01*
X185180952Y-69464285D01*
X185133333Y-69369047D01*
X185133333Y-69130952D01*
X185180952Y-69035714D01*
X185228571Y-68988095D01*
X185323809Y-68940476D01*
X185561904Y-68940476D01*
X185657142Y-68988095D01*
X185704761Y-69035714D01*
X185752380Y-69130952D01*
X185752380Y-69369047D01*
X185704761Y-69464285D01*
X185657142Y-69511904D01*
X150630952Y-28952380D02*
X150630952Y-28285714D01*
X150630952Y-28476190D02*
X150678571Y-28380952D01*
X150726190Y-28333333D01*
X150821428Y-28285714D01*
X150916666Y-28285714D01*
X151630952Y-28904761D02*
X151535714Y-28952380D01*
X151345238Y-28952380D01*
X151250000Y-28904761D01*
X151202380Y-28809523D01*
X151202380Y-28428571D01*
X151250000Y-28333333D01*
X151345238Y-28285714D01*
X151535714Y-28285714D01*
X151630952Y-28333333D01*
X151678571Y-28428571D01*
X151678571Y-28523809D01*
X151202380Y-28619047D01*
X152059523Y-28904761D02*
X152154761Y-28952380D01*
X152345238Y-28952380D01*
X152440476Y-28904761D01*
X152488095Y-28809523D01*
X152488095Y-28761904D01*
X152440476Y-28666666D01*
X152345238Y-28619047D01*
X152202380Y-28619047D01*
X152107142Y-28571428D01*
X152059523Y-28476190D01*
X152059523Y-28428571D01*
X152107142Y-28333333D01*
X152202380Y-28285714D01*
X152345238Y-28285714D01*
X152440476Y-28333333D01*
X153297619Y-28904761D02*
X153202380Y-28952380D01*
X153011904Y-28952380D01*
X152916666Y-28904761D01*
X152869047Y-28809523D01*
X152869047Y-28428571D01*
X152916666Y-28333333D01*
X153011904Y-28285714D01*
X153202380Y-28285714D01*
X153297619Y-28333333D01*
X153345238Y-28428571D01*
X153345238Y-28523809D01*
X152869047Y-28619047D01*
X153630952Y-28285714D02*
X154011904Y-28285714D01*
X153773809Y-27952380D02*
X153773809Y-28809523D01*
X153821428Y-28904761D01*
X153916666Y-28952380D01*
X154011904Y-28952380D01*
X172270000Y-32290000D02*
X169730000Y-32290000D01*
X169730000Y-62770000D02*
X187510000Y-62770000D01*
X172270000Y-32290000D02*
X172270000Y-34830000D01*
X172270000Y-34830000D02*
X169730000Y-34830000D01*
X187510000Y-62770000D02*
X187510000Y-29750000D01*
X169730000Y-29750000D02*
X169730000Y-62770000D01*
X187510000Y-29750000D02*
X169730000Y-29750000D01*
D11*
X132870000Y-103310000D02*
X132870000Y-99070000D01*
X130630000Y-102710000D02*
X132870000Y-102710000D01*
X131750000Y-98420000D02*
X131750000Y-99070000D01*
X131750000Y-103960000D02*
X131750000Y-103310000D01*
X130630000Y-102470000D02*
X132870000Y-102470000D01*
X130630000Y-102590000D02*
X132870000Y-102590000D01*
X130630000Y-99070000D02*
X130630000Y-103310000D01*
X130630000Y-103310000D02*
X132870000Y-103310000D01*
X132870000Y-99070000D02*
X130630000Y-99070000D01*
X149630000Y-46310000D02*
X151870000Y-46310000D01*
X149630000Y-42070000D02*
X149630000Y-46310000D01*
X151870000Y-46310000D02*
X151870000Y-42070000D01*
X149630000Y-45590000D02*
X151870000Y-45590000D01*
X149630000Y-45710000D02*
X151870000Y-45710000D01*
X149630000Y-45470000D02*
X151870000Y-45470000D01*
X150750000Y-41420000D02*
X150750000Y-42070000D01*
X151870000Y-42070000D02*
X149630000Y-42070000D01*
X150750000Y-46960000D02*
X150750000Y-46310000D01*
X110200000Y-60420000D02*
X110200000Y-61070000D01*
X110200000Y-65960000D02*
X110200000Y-65310000D01*
X109080000Y-64590000D02*
X111320000Y-64590000D01*
X111320000Y-61070000D02*
X109080000Y-61070000D01*
X109080000Y-65310000D02*
X111320000Y-65310000D01*
X109080000Y-61070000D02*
X109080000Y-65310000D01*
X111320000Y-65310000D02*
X111320000Y-61070000D01*
X109080000Y-64710000D02*
X111320000Y-64710000D01*
X109080000Y-64470000D02*
X111320000Y-64470000D01*
X130320000Y-70820000D02*
X128080000Y-70820000D01*
X128080000Y-74340000D02*
X130320000Y-74340000D01*
X128080000Y-75060000D02*
X130320000Y-75060000D01*
X128080000Y-70820000D02*
X128080000Y-75060000D01*
X128080000Y-74460000D02*
X130320000Y-74460000D01*
X129200000Y-70170000D02*
X129200000Y-70820000D01*
X129200000Y-75710000D02*
X129200000Y-75060000D01*
X130320000Y-75060000D02*
X130320000Y-70820000D01*
X128080000Y-74220000D02*
X130320000Y-74220000D01*
X187500000Y-78000000D02*
X187500000Y-63000000D01*
X174500000Y-78000000D02*
X187500000Y-78000000D01*
X187500000Y-63000000D02*
X174500000Y-63000000D01*
X174500000Y-63000000D02*
X174500000Y-78000000D01*
X90080000Y-80070000D02*
X90080000Y-84310000D01*
X92320000Y-80070000D02*
X90080000Y-80070000D01*
X91200000Y-79420000D02*
X91200000Y-80070000D01*
X92320000Y-84310000D02*
X92320000Y-80070000D01*
X90080000Y-84310000D02*
X92320000Y-84310000D01*
X91200000Y-84960000D02*
X91200000Y-84310000D01*
X90080000Y-83710000D02*
X92320000Y-83710000D01*
X90080000Y-83590000D02*
X92320000Y-83590000D01*
X90080000Y-83470000D02*
X92320000Y-83470000D01*
X90080000Y-99070000D02*
X90080000Y-103310000D01*
X92320000Y-103310000D02*
X92320000Y-99070000D01*
X90080000Y-102470000D02*
X92320000Y-102470000D01*
X92320000Y-99070000D02*
X90080000Y-99070000D01*
X91200000Y-103960000D02*
X91200000Y-103310000D01*
X91200000Y-98420000D02*
X91200000Y-99070000D01*
X90080000Y-103310000D02*
X92320000Y-103310000D01*
X90080000Y-102710000D02*
X92320000Y-102710000D01*
X90080000Y-102590000D02*
X92320000Y-102590000D01*
X113870000Y-32820000D02*
X111630000Y-32820000D01*
X112750000Y-32170000D02*
X112750000Y-32820000D01*
X111630000Y-32820000D02*
X111630000Y-37060000D01*
X111630000Y-36340000D02*
X113870000Y-36340000D01*
X111630000Y-37060000D02*
X113870000Y-37060000D01*
X113870000Y-37060000D02*
X113870000Y-32820000D01*
X111630000Y-36220000D02*
X113870000Y-36220000D01*
X111630000Y-36460000D02*
X113870000Y-36460000D01*
X112750000Y-37710000D02*
X112750000Y-37060000D01*
X110200000Y-84960000D02*
X110200000Y-84310000D01*
X111320000Y-80070000D02*
X109080000Y-80070000D01*
X110200000Y-79420000D02*
X110200000Y-80070000D01*
X109080000Y-83470000D02*
X111320000Y-83470000D01*
X109080000Y-83590000D02*
X111320000Y-83590000D01*
X109080000Y-80070000D02*
X109080000Y-84310000D01*
X111320000Y-84310000D02*
X111320000Y-80070000D01*
X109080000Y-83710000D02*
X111320000Y-83710000D01*
X109080000Y-84310000D02*
X111320000Y-84310000D01*
X147080000Y-80070000D02*
X147080000Y-84310000D01*
X148200000Y-84960000D02*
X148200000Y-84310000D01*
X149320000Y-80070000D02*
X147080000Y-80070000D01*
X147080000Y-84310000D02*
X149320000Y-84310000D01*
X147080000Y-83710000D02*
X149320000Y-83710000D01*
X147080000Y-83590000D02*
X149320000Y-83590000D01*
X148200000Y-79420000D02*
X148200000Y-80070000D01*
X149320000Y-84310000D02*
X149320000Y-80070000D01*
X147080000Y-83470000D02*
X149320000Y-83470000D01*
X163140000Y-74050000D02*
X162840000Y-73750000D01*
X164940000Y-79250000D02*
X164940000Y-75150000D01*
X153140000Y-87350000D02*
X153140000Y-83250000D01*
X164940000Y-87350000D02*
X162540000Y-87350000D01*
X164940000Y-83250000D02*
X164940000Y-87350000D01*
X163140000Y-73450000D02*
X163140000Y-74050000D01*
X162840000Y-73750000D02*
X163140000Y-73450000D01*
X155540000Y-87350000D02*
X153140000Y-87350000D01*
X153140000Y-79250000D02*
X153140000Y-75150000D01*
X164940000Y-75150000D02*
X153140000Y-75150000D01*
X159040000Y-80750000D02*
X159040000Y-81750000D01*
X159540000Y-81250000D02*
X158540000Y-81250000D01*
X160340000Y-87350000D02*
X157740000Y-87350000D01*
X162040000Y-81250000D02*
G75*
G03*
X162040000Y-81250000I-3000000J0D01*
G01*
X151870000Y-65310000D02*
X151870000Y-61070000D01*
X149630000Y-64590000D02*
X151870000Y-64590000D01*
X150750000Y-65960000D02*
X150750000Y-65310000D01*
X149630000Y-61070000D02*
X149630000Y-65310000D01*
X149630000Y-65310000D02*
X151870000Y-65310000D01*
X151870000Y-61070000D02*
X149630000Y-61070000D01*
X149630000Y-64710000D02*
X151870000Y-64710000D01*
X149630000Y-64470000D02*
X151870000Y-64470000D01*
X150750000Y-60420000D02*
X150750000Y-61070000D01*
X92630000Y-42070000D02*
X92630000Y-46310000D01*
X92630000Y-45470000D02*
X94870000Y-45470000D01*
X94870000Y-42070000D02*
X92630000Y-42070000D01*
X93750000Y-46960000D02*
X93750000Y-46310000D01*
X92630000Y-45710000D02*
X94870000Y-45710000D01*
X92630000Y-45590000D02*
X94870000Y-45590000D01*
X93750000Y-41420000D02*
X93750000Y-42070000D01*
X92630000Y-46310000D02*
X94870000Y-46310000D01*
X94870000Y-46310000D02*
X94870000Y-42070000D01*
X170430000Y-109370000D02*
X170430000Y-107130000D01*
X171080000Y-108250000D02*
X170430000Y-108250000D01*
X170430000Y-107130000D02*
X166190000Y-107130000D01*
X167030000Y-107130000D02*
X167030000Y-109370000D01*
X166790000Y-107130000D02*
X166790000Y-109370000D01*
X165540000Y-108250000D02*
X166190000Y-108250000D01*
X166190000Y-109370000D02*
X170430000Y-109370000D01*
X166910000Y-107130000D02*
X166910000Y-109370000D01*
X166190000Y-107130000D02*
X166190000Y-109370000D01*
X149680000Y-102579717D02*
X151920000Y-102579717D01*
X149680000Y-99059717D02*
X149680000Y-103299717D01*
X149680000Y-102699717D02*
X151920000Y-102699717D01*
X149680000Y-103299717D02*
X151920000Y-103299717D01*
X151920000Y-103299717D02*
X151920000Y-99059717D01*
X150800000Y-103949717D02*
X150800000Y-103299717D01*
X151920000Y-99059717D02*
X149680000Y-99059717D01*
X150800000Y-98409717D02*
X150800000Y-99059717D01*
X149680000Y-102459717D02*
X151920000Y-102459717D01*
X129200000Y-51170000D02*
X129200000Y-51820000D01*
X128080000Y-51820000D02*
X128080000Y-56060000D01*
X128080000Y-55220000D02*
X130320000Y-55220000D01*
X128080000Y-56060000D02*
X130320000Y-56060000D01*
X130320000Y-56060000D02*
X130320000Y-51820000D01*
X128080000Y-55340000D02*
X130320000Y-55340000D01*
X129200000Y-56710000D02*
X129200000Y-56060000D01*
X128080000Y-55460000D02*
X130320000Y-55460000D01*
X130320000Y-51820000D02*
X128080000Y-51820000D01*
D12*
X167023410Y-95100000D02*
X167078410Y-95100000D01*
X172048410Y-95100000D02*
X172048410Y-92925000D01*
X185198410Y-94780000D02*
X188703410Y-94780000D01*
X185198410Y-106075000D02*
X185143410Y-106075000D01*
X172048410Y-106075000D02*
X172103410Y-106075000D01*
X185198410Y-92925000D02*
X185198410Y-94780000D01*
X181623410Y-91390000D02*
X181623410Y-92925000D01*
X167023410Y-103900000D02*
X167023410Y-95100000D01*
X188703410Y-94780000D02*
X188703410Y-104230000D01*
X181623410Y-92925000D02*
X182103410Y-92925000D01*
X169668410Y-95100000D02*
X172048410Y-95100000D01*
X183353410Y-107345000D02*
X183353410Y-109580000D01*
X183353410Y-109580000D02*
X173893410Y-109580000D01*
X185198410Y-104230000D02*
X185198410Y-106075000D01*
X172048410Y-92925000D02*
X172103410Y-92925000D01*
X175623410Y-92925000D02*
X175623410Y-91390000D01*
X173893410Y-109580000D02*
X173893410Y-107345000D01*
X172048410Y-103900000D02*
X169668410Y-103900000D01*
X175623410Y-91390000D02*
X181623410Y-91390000D01*
X167023410Y-103900000D02*
X167078410Y-103900000D01*
X188703410Y-104230000D02*
X185198410Y-104230000D01*
X185143410Y-92925000D02*
X185198410Y-92925000D01*
X175143410Y-92925000D02*
X175623410Y-92925000D01*
X172048410Y-106075000D02*
X172048410Y-103900000D01*
D11*
X132870000Y-46310000D02*
X132870000Y-42070000D01*
X130630000Y-45590000D02*
X132870000Y-45590000D01*
X130630000Y-45470000D02*
X132870000Y-45470000D01*
X130630000Y-45710000D02*
X132870000Y-45710000D01*
X130630000Y-42070000D02*
X130630000Y-46310000D01*
X131750000Y-46960000D02*
X131750000Y-46310000D01*
X132870000Y-42070000D02*
X130630000Y-42070000D01*
X130630000Y-46310000D02*
X132870000Y-46310000D01*
X131750000Y-41420000D02*
X131750000Y-42070000D01*
X149320000Y-65310000D02*
X149320000Y-61070000D01*
X147080000Y-65310000D02*
X149320000Y-65310000D01*
X147080000Y-64590000D02*
X149320000Y-64590000D01*
X148200000Y-60420000D02*
X148200000Y-61070000D01*
X147080000Y-64470000D02*
X149320000Y-64470000D01*
X147080000Y-61070000D02*
X147080000Y-65310000D01*
X147080000Y-64710000D02*
X149320000Y-64710000D01*
X149320000Y-61070000D02*
X147080000Y-61070000D01*
X148200000Y-65960000D02*
X148200000Y-65310000D01*
D13*
X171000000Y-33560000D03*
D14*
X171000000Y-36100000D03*
X171000000Y-38640000D03*
X171000000Y-41180000D03*
X171000000Y-43720000D03*
X171000000Y-46260000D03*
X171000000Y-48800000D03*
X171000000Y-51340000D03*
X171000000Y-53880000D03*
X171000000Y-56420000D03*
X171000000Y-58960000D03*
X171000000Y-61500000D03*
X186240000Y-33560000D03*
X186240000Y-36100000D03*
X186240000Y-38640000D03*
X186240000Y-41180000D03*
X186240000Y-43720000D03*
X186240000Y-46260000D03*
X186240000Y-48800000D03*
X186240000Y-51340000D03*
X186240000Y-53880000D03*
X186240000Y-56420000D03*
X186240000Y-58960000D03*
X186240000Y-61500000D03*
%LPC*%
D10*
X151321428Y-109202380D02*
X151321428Y-108202380D01*
X151321428Y-108583333D02*
X151416666Y-108535714D01*
X151607142Y-108535714D01*
X151702380Y-108583333D01*
X151750000Y-108630952D01*
X151797619Y-108726190D01*
X151797619Y-109011904D01*
X151750000Y-109107142D01*
X151702380Y-109154761D01*
X151607142Y-109202380D01*
X151416666Y-109202380D01*
X151321428Y-109154761D01*
X152130952Y-108535714D02*
X152369047Y-109202380D01*
X152607142Y-108535714D02*
X152369047Y-109202380D01*
X152273809Y-109440476D01*
X152226190Y-109488095D01*
X152130952Y-109535714D01*
X154178571Y-108535714D02*
X154178571Y-109345238D01*
X154130952Y-109440476D01*
X154083333Y-109488095D01*
X153988095Y-109535714D01*
X153845238Y-109535714D01*
X153750000Y-109488095D01*
X154178571Y-109154761D02*
X154083333Y-109202380D01*
X153892857Y-109202380D01*
X153797619Y-109154761D01*
X153750000Y-109107142D01*
X153702380Y-109011904D01*
X153702380Y-108726190D01*
X153750000Y-108630952D01*
X153797619Y-108583333D01*
X153892857Y-108535714D01*
X154083333Y-108535714D01*
X154178571Y-108583333D01*
X154654761Y-108535714D02*
X154654761Y-109202380D01*
X154654761Y-108630952D02*
X154702380Y-108583333D01*
X154797619Y-108535714D01*
X154940476Y-108535714D01*
X155035714Y-108583333D01*
X155083333Y-108678571D01*
X155083333Y-109202380D01*
X155988095Y-109202380D02*
X155988095Y-108678571D01*
X155940476Y-108583333D01*
X155845238Y-108535714D01*
X155654761Y-108535714D01*
X155559523Y-108583333D01*
X155988095Y-109154761D02*
X155892857Y-109202380D01*
X155654761Y-109202380D01*
X155559523Y-109154761D01*
X155511904Y-109059523D01*
X155511904Y-108964285D01*
X155559523Y-108869047D01*
X155654761Y-108821428D01*
X155892857Y-108821428D01*
X155988095Y-108773809D01*
X156369047Y-108535714D02*
X156559523Y-109202380D01*
X156750000Y-108726190D01*
X156940476Y-109202380D01*
X157130952Y-108535714D01*
X157511904Y-109202380D02*
X157511904Y-108535714D01*
X157511904Y-108630952D02*
X157559523Y-108583333D01*
X157654761Y-108535714D01*
X157797619Y-108535714D01*
X157892857Y-108583333D01*
X157940476Y-108678571D01*
X157940476Y-109202380D01*
X157940476Y-108678571D02*
X157988095Y-108583333D01*
X158083333Y-108535714D01*
X158226190Y-108535714D01*
X158321428Y-108583333D01*
X158369047Y-108678571D01*
X158369047Y-109202380D01*
X159273809Y-109202380D02*
X159273809Y-108678571D01*
X159226190Y-108583333D01*
X159130952Y-108535714D01*
X158940476Y-108535714D01*
X158845238Y-108583333D01*
X159273809Y-109154761D02*
X159178571Y-109202380D01*
X158940476Y-109202380D01*
X158845238Y-109154761D01*
X158797619Y-109059523D01*
X158797619Y-108964285D01*
X158845238Y-108869047D01*
X158940476Y-108821428D01*
X159178571Y-108821428D01*
X159273809Y-108773809D01*
X159750000Y-108535714D02*
X159750000Y-109202380D01*
X159750000Y-108630952D02*
X159797619Y-108583333D01*
X159892857Y-108535714D01*
X160035714Y-108535714D01*
X160130952Y-108583333D01*
X160178571Y-108678571D01*
X160178571Y-109202380D01*
D15*
X98707500Y-100299285D02*
X98993214Y-100442142D01*
X99564642Y-100442142D01*
X99850357Y-100299285D01*
X99993214Y-100013571D01*
X99993214Y-99870714D01*
X99850357Y-99585000D01*
X99564642Y-99442142D01*
X99136071Y-99442142D01*
X98850357Y-99299285D01*
X98707500Y-99013571D01*
X98707500Y-98870714D01*
X98850357Y-98585000D01*
X99136071Y-98442142D01*
X99564642Y-98442142D01*
X99850357Y-98585000D01*
X101278928Y-100442142D02*
X101278928Y-97442142D01*
X102564642Y-100442142D02*
X102564642Y-98870714D01*
X102421785Y-98585000D01*
X102136071Y-98442142D01*
X101707500Y-98442142D01*
X101421785Y-98585000D01*
X101278928Y-98727857D01*
X103993214Y-100442142D02*
X103993214Y-98442142D01*
X103993214Y-97442142D02*
X103850357Y-97585000D01*
X103993214Y-97727857D01*
X104136071Y-97585000D01*
X103993214Y-97442142D01*
X103993214Y-97727857D01*
X105421785Y-98442142D02*
X105421785Y-100442142D01*
X105421785Y-98727857D02*
X105564642Y-98585000D01*
X105850357Y-98442142D01*
X106278928Y-98442142D01*
X106564642Y-98585000D01*
X106707500Y-98870714D01*
X106707500Y-100442142D01*
X109421785Y-98442142D02*
X109421785Y-100870714D01*
X109278928Y-101156428D01*
X109136071Y-101299285D01*
X108850357Y-101442142D01*
X108421785Y-101442142D01*
X108136071Y-101299285D01*
X109421785Y-100299285D02*
X109136071Y-100442142D01*
X108564642Y-100442142D01*
X108278928Y-100299285D01*
X108136071Y-100156428D01*
X107993214Y-99870714D01*
X107993214Y-99013571D01*
X108136071Y-98727857D01*
X108278928Y-98585000D01*
X108564642Y-98442142D01*
X109136071Y-98442142D01*
X109421785Y-98585000D01*
X111278928Y-100442142D02*
X110993214Y-100299285D01*
X110850357Y-100013571D01*
X110850357Y-97442142D01*
X113564642Y-100299285D02*
X113278928Y-100442142D01*
X112707500Y-100442142D01*
X112421785Y-100299285D01*
X112278928Y-100013571D01*
X112278928Y-98870714D01*
X112421785Y-98585000D01*
X112707500Y-98442142D01*
X113278928Y-98442142D01*
X113564642Y-98585000D01*
X113707500Y-98870714D01*
X113707500Y-99156428D01*
X112278928Y-99442142D01*
X114993214Y-100442142D02*
X114993214Y-97442142D01*
X114993214Y-98585000D02*
X115278928Y-98442142D01*
X115850357Y-98442142D01*
X116136071Y-98585000D01*
X116278928Y-98727857D01*
X116421785Y-99013571D01*
X116421785Y-99870714D01*
X116278928Y-100156428D01*
X116136071Y-100299285D01*
X115850357Y-100442142D01*
X115278928Y-100442142D01*
X114993214Y-100299285D01*
X118993214Y-100442142D02*
X118993214Y-98870714D01*
X118850357Y-98585000D01*
X118564642Y-98442142D01*
X117993214Y-98442142D01*
X117707500Y-98585000D01*
X118993214Y-100299285D02*
X118707500Y-100442142D01*
X117993214Y-100442142D01*
X117707500Y-100299285D01*
X117564642Y-100013571D01*
X117564642Y-99727857D01*
X117707500Y-99442142D01*
X117993214Y-99299285D01*
X118707500Y-99299285D01*
X118993214Y-99156428D01*
X121707500Y-100299285D02*
X121421785Y-100442142D01*
X120850357Y-100442142D01*
X120564642Y-100299285D01*
X120421785Y-100156428D01*
X120278928Y-99870714D01*
X120278928Y-99013571D01*
X120421785Y-98727857D01*
X120564642Y-98585000D01*
X120850357Y-98442142D01*
X121421785Y-98442142D01*
X121707500Y-98585000D01*
X122993214Y-100442142D02*
X122993214Y-97442142D01*
X123278928Y-99299285D02*
X124136071Y-100442142D01*
X124136071Y-98442142D02*
X122993214Y-99585000D01*
X115850357Y-105272142D02*
X115850357Y-103272142D01*
X115850357Y-103843571D02*
X115993214Y-103557857D01*
X116136071Y-103415000D01*
X116421785Y-103272142D01*
X116707500Y-103272142D01*
X118850357Y-105129285D02*
X118564642Y-105272142D01*
X117993214Y-105272142D01*
X117707500Y-105129285D01*
X117564642Y-104843571D01*
X117564642Y-103700714D01*
X117707500Y-103415000D01*
X117993214Y-103272142D01*
X118564642Y-103272142D01*
X118850357Y-103415000D01*
X118993214Y-103700714D01*
X118993214Y-103986428D01*
X117564642Y-104272142D01*
X119993214Y-103272142D02*
X120707500Y-105272142D01*
X121421785Y-103272142D01*
X124136071Y-105272142D02*
X122421785Y-105272142D01*
X123278928Y-105272142D02*
X123278928Y-102272142D01*
X122993214Y-102700714D01*
X122707500Y-102986428D01*
X122421785Y-103129285D01*
D16*
X164120000Y-62080000D03*
X153960000Y-62080000D03*
D17*
X159040000Y-62080000D03*
D18*
X156500000Y-57000000D03*
X161580000Y-57000000D03*
X162850000Y-59540000D03*
X155230000Y-59540000D03*
D16*
X126120000Y-33830000D03*
X115960000Y-33830000D03*
D17*
X121040000Y-33830000D03*
D18*
X118500000Y-28750000D03*
X123580000Y-28750000D03*
X117230000Y-31290000D03*
X124850000Y-31290000D03*
D16*
X96960000Y-43080000D03*
D17*
X102040000Y-43080000D03*
D16*
X107120000Y-43080000D03*
D18*
X104580000Y-38000000D03*
X99500000Y-38000000D03*
X98230000Y-40540000D03*
X105850000Y-40540000D03*
D13*
X171000000Y-33560000D03*
D14*
X171000000Y-36100000D03*
X171000000Y-38640000D03*
X171000000Y-41180000D03*
X171000000Y-43720000D03*
X171000000Y-46260000D03*
X171000000Y-48800000D03*
X171000000Y-51340000D03*
X171000000Y-53880000D03*
X171000000Y-56420000D03*
X171000000Y-58960000D03*
X171000000Y-61500000D03*
X186240000Y-33560000D03*
X186240000Y-36100000D03*
X186240000Y-38640000D03*
X186240000Y-41180000D03*
X186240000Y-43720000D03*
X186240000Y-46260000D03*
X186240000Y-48800000D03*
X186240000Y-51340000D03*
X186240000Y-53880000D03*
X186240000Y-56420000D03*
X186240000Y-58960000D03*
X186240000Y-61500000D03*
D19*
X131750000Y-105000000D03*
D20*
X131750000Y-97380000D03*
D17*
X140040000Y-43080000D03*
D16*
X134960000Y-43080000D03*
X145120000Y-43080000D03*
D18*
X137500000Y-38000000D03*
X142580000Y-38000000D03*
X143850000Y-40540000D03*
X136230000Y-40540000D03*
D20*
X125000000Y-83500000D03*
D16*
X164170000Y-100069717D03*
D17*
X159090000Y-100069717D03*
D16*
X154010000Y-100069717D03*
D18*
X161630000Y-94989717D03*
X156550000Y-94989717D03*
X162900000Y-97529717D03*
X155280000Y-97529717D03*
D19*
X150750000Y-48000000D03*
D20*
X150750000Y-40380000D03*
X162249999Y-30723758D03*
X118500000Y-88000000D03*
X124999999Y-87997945D03*
D19*
X110200000Y-67000000D03*
D20*
X110200000Y-59380000D03*
D17*
X83040000Y-81080000D03*
D16*
X77960000Y-81080000D03*
X88120000Y-81080000D03*
D18*
X80500000Y-76000000D03*
X85580000Y-76000000D03*
X86850000Y-78540000D03*
X79230000Y-78540000D03*
D16*
X107120000Y-62080000D03*
X96960000Y-62080000D03*
D17*
X102040000Y-62080000D03*
D18*
X99500000Y-57000000D03*
X104580000Y-57000000D03*
X105850000Y-59540000D03*
X98230000Y-59540000D03*
D16*
X153960000Y-43080000D03*
D17*
X159040000Y-43080000D03*
D16*
X164120000Y-43080000D03*
D18*
X156500000Y-38000000D03*
X161580000Y-38000000D03*
X162850000Y-40540000D03*
X155230000Y-40540000D03*
D16*
X77960000Y-100080000D03*
D17*
X83040000Y-100080000D03*
D16*
X88120000Y-100080000D03*
D18*
X80500000Y-95000000D03*
X85580000Y-95000000D03*
X86850000Y-97540000D03*
X79230000Y-97540000D03*
D19*
X129200000Y-76750000D03*
D20*
X129200000Y-69130000D03*
D21*
X176500000Y-69000000D03*
X179000000Y-72000000D03*
X179000000Y-70000000D03*
X176500000Y-71000000D03*
X179000000Y-74000000D03*
X176500000Y-73000000D03*
D22*
X181500000Y-63000000D03*
X181500000Y-78000000D03*
D21*
X176500000Y-67000000D03*
X179000000Y-68000000D03*
D20*
X155750000Y-30725813D03*
D19*
X91200000Y-86000000D03*
D20*
X91200000Y-78380000D03*
D19*
X91200000Y-105000000D03*
D20*
X91200000Y-97380000D03*
D19*
X112750000Y-38750000D03*
D20*
X112750000Y-31130000D03*
D16*
X134960000Y-62080000D03*
D17*
X140040000Y-62080000D03*
D16*
X145120000Y-62080000D03*
D18*
X137500000Y-57000000D03*
X142580000Y-57000000D03*
X143850000Y-59540000D03*
X136230000Y-59540000D03*
D19*
X110200000Y-86000000D03*
D20*
X110200000Y-78380000D03*
D19*
X148200000Y-86000000D03*
D20*
X148200000Y-78380000D03*
D16*
X126120000Y-71830000D03*
X115960000Y-71830000D03*
D17*
X121040000Y-71830000D03*
D18*
X123580000Y-66750000D03*
X118500000Y-66750000D03*
X117230000Y-69290000D03*
X124850000Y-69290000D03*
D23*
X161540000Y-73750000D03*
D24*
X156540000Y-73750000D03*
X159040000Y-73750000D03*
D25*
X153440000Y-81250000D03*
X164640000Y-81250000D03*
D24*
X156540000Y-88250000D03*
X161540000Y-88250000D03*
D16*
X134960000Y-81080000D03*
X145120000Y-81080000D03*
D17*
X140040000Y-81080000D03*
D18*
X137500000Y-76000000D03*
X142580000Y-76000000D03*
X136230000Y-78540000D03*
X143850000Y-78540000D03*
D20*
X118500000Y-83494874D03*
D19*
X150750000Y-67000000D03*
D20*
X150750000Y-59380000D03*
D19*
X93750000Y-48000000D03*
D20*
X93750000Y-40380000D03*
D19*
X164500000Y-108250000D03*
D20*
X172120000Y-108250000D03*
D19*
X150800000Y-104989717D03*
D20*
X150800000Y-97369717D03*
D17*
X102040000Y-81080000D03*
D16*
X107120000Y-81080000D03*
X96960000Y-81080000D03*
D18*
X99500000Y-76000000D03*
X104580000Y-76000000D03*
X98230000Y-78540000D03*
X105850000Y-78540000D03*
D17*
X121040000Y-52830000D03*
D16*
X126120000Y-52830000D03*
X115960000Y-52830000D03*
D18*
X118500000Y-47750000D03*
X123580000Y-47750000D03*
X124850000Y-50290000D03*
X117230000Y-50290000D03*
D19*
X129200000Y-57750000D03*
D20*
X129200000Y-50130000D03*
X155750000Y-26220687D03*
D26*
X178623410Y-103800000D03*
X178623410Y-95200000D03*
D27*
X172873410Y-96250000D03*
X172873410Y-102750000D03*
D26*
X187353410Y-97000000D03*
X181123410Y-108230000D03*
D28*
X183623410Y-105825000D03*
X173623410Y-93175000D03*
X173623410Y-105825000D03*
X183623410Y-93175000D03*
D27*
X168373410Y-96250000D03*
X168373410Y-102750000D03*
D26*
X187353410Y-102000000D03*
X176123410Y-108230000D03*
X178623410Y-108230000D03*
X187353410Y-99500000D03*
D16*
X134960000Y-100080000D03*
X145120000Y-100080000D03*
D17*
X140040000Y-100080000D03*
D18*
X137500000Y-95000000D03*
X142580000Y-95000000D03*
X136230000Y-97540000D03*
X143850000Y-97540000D03*
D19*
X131750000Y-48000000D03*
D20*
X131750000Y-40380000D03*
X162250000Y-26225813D03*
D19*
X148200000Y-67000000D03*
D20*
X148200000Y-59380000D03*
D21*
X179000000Y-80250000D03*
X179000000Y-82250000D03*
X176500000Y-81250000D03*
X176500000Y-83250000D03*
D22*
X181500000Y-72250000D03*
D21*
X176500000Y-77250000D03*
X179000000Y-78250000D03*
X176500000Y-79250000D03*
X179000000Y-76250000D03*
D22*
X181500000Y-87250000D03*
D29*
X178623410Y-99980000D03*
D30*
X173543410Y-99980000D03*
X183703410Y-99980000D03*
D31*
X176083410Y-94900000D03*
X182433410Y-97440000D03*
M02*
