%TF.GenerationSoftware,KiCad,Pcbnew,(6.0.8)*%
%TF.CreationDate,2023-05-18T22:36:22+10:00*%
%TF.ProjectId,shingleback,7368696e-676c-4656-9261-636b2e6b6963,rev?*%
%TF.SameCoordinates,Original*%
%TF.FileFunction,Drillmap*%
%TF.FilePolarity,Positive*%
%FSLAX45Y45*%
G04 Gerber Fmt 4.5, Leading zero omitted, Abs format (unit mm)*
G04 Created by KiCad (PCBNEW (6.0.8)) date 2023-05-18 22:36:22*
%MOMM*%
%LPD*%
G01*
G04 APERTURE LIST*
%ADD10C,0.100000*%
%ADD11C,0.200000*%
%ADD12C,0.040000*%
%ADD13C,0.080000*%
%ADD14C,0.109220*%
%ADD15C,0.110000*%
%ADD16C,0.130000*%
%ADD17C,0.149860*%
%ADD18C,0.150000*%
%ADD19C,0.160000*%
G04 APERTURE END LIST*
D10*
X17975000Y-11050000D02*
G75*
G03*
X19025000Y-10000000I0J1050000D01*
G01*
X7250000Y-11050000D02*
X17975000Y-11050000D01*
X19025000Y-2425000D02*
X11150000Y-2425000D01*
X7250000Y-6325000D02*
X7250000Y-11050000D01*
X19025000Y-10000000D02*
X19025000Y-2425000D01*
X11150000Y-2425000D02*
G75*
G03*
X7250000Y-6325000I0J-3900000D01*
G01*
D11*
D12*
X15080000Y-7130000D02*
X15120000Y-7170000D01*
X15120000Y-7130000D02*
X15080000Y-7170000D01*
X15080000Y-7255000D02*
X15120000Y-7295000D01*
X15120000Y-7255000D02*
X15080000Y-7295000D01*
X15080000Y-7380000D02*
X15120000Y-7420000D01*
X15120000Y-7380000D02*
X15080000Y-7420000D01*
X16480000Y-5930000D02*
X16520000Y-5970000D01*
X16520000Y-5930000D02*
X16480000Y-5970000D01*
X17030000Y-8880000D02*
X17070000Y-8920000D01*
X17070000Y-8880000D02*
X17030000Y-8920000D01*
X17380000Y-8880000D02*
X17420000Y-8920000D01*
X17420000Y-8880000D02*
X17380000Y-8920000D01*
D13*
X9160000Y-7838000D02*
G75*
G03*
X9160000Y-7838000I-40000J0D01*
G01*
X9160000Y-8600000D02*
G75*
G03*
X9160000Y-8600000I-40000J0D01*
G01*
X9160000Y-9738000D02*
G75*
G03*
X9160000Y-9738000I-40000J0D01*
G01*
X9160000Y-10500000D02*
G75*
G03*
X9160000Y-10500000I-40000J0D01*
G01*
X9415000Y-4038000D02*
G75*
G03*
X9415000Y-4038000I-40000J0D01*
G01*
X9415000Y-4800000D02*
G75*
G03*
X9415000Y-4800000I-40000J0D01*
G01*
X11060000Y-5938000D02*
G75*
G03*
X11060000Y-5938000I-40000J0D01*
G01*
X11060000Y-6700000D02*
G75*
G03*
X11060000Y-6700000I-40000J0D01*
G01*
X11060000Y-7838000D02*
G75*
G03*
X11060000Y-7838000I-40000J0D01*
G01*
X11060000Y-8600000D02*
G75*
G03*
X11060000Y-8600000I-40000J0D01*
G01*
X11315000Y-3113000D02*
G75*
G03*
X11315000Y-3113000I-40000J0D01*
G01*
X11315000Y-3875000D02*
G75*
G03*
X11315000Y-3875000I-40000J0D01*
G01*
X11890000Y-8349487D02*
G75*
G03*
X11890000Y-8349487I-40000J0D01*
G01*
X11890000Y-8800000D02*
G75*
G03*
X11890000Y-8800000I-40000J0D01*
G01*
X12540000Y-8799795D02*
G75*
G03*
X12540000Y-8799795I-40000J0D01*
G01*
X12540000Y-8350000D02*
G75*
G03*
X12540000Y-8350000I-40000J0D01*
G01*
X12960000Y-5013000D02*
G75*
G03*
X12960000Y-5013000I-40000J0D01*
G01*
X12960000Y-5775000D02*
G75*
G03*
X12960000Y-5775000I-40000J0D01*
G01*
X12960000Y-6913000D02*
G75*
G03*
X12960000Y-6913000I-40000J0D01*
G01*
X12960000Y-7675000D02*
G75*
G03*
X12960000Y-7675000I-40000J0D01*
G01*
X13215000Y-4038000D02*
G75*
G03*
X13215000Y-4038000I-40000J0D01*
G01*
X13215000Y-4800000D02*
G75*
G03*
X13215000Y-4800000I-40000J0D01*
G01*
X13215000Y-9738000D02*
G75*
G03*
X13215000Y-9738000I-40000J0D01*
G01*
X13215000Y-10500000D02*
G75*
G03*
X13215000Y-10500000I-40000J0D01*
G01*
X14860000Y-5938000D02*
G75*
G03*
X14860000Y-5938000I-40000J0D01*
G01*
X14860000Y-6700000D02*
G75*
G03*
X14860000Y-6700000I-40000J0D01*
G01*
X14860000Y-7838000D02*
G75*
G03*
X14860000Y-7838000I-40000J0D01*
G01*
X14860000Y-8600000D02*
G75*
G03*
X14860000Y-8600000I-40000J0D01*
G01*
X15115000Y-4038000D02*
G75*
G03*
X15115000Y-4038000I-40000J0D01*
G01*
X15115000Y-4800000D02*
G75*
G03*
X15115000Y-4800000I-40000J0D01*
G01*
X15115000Y-5938000D02*
G75*
G03*
X15115000Y-5938000I-40000J0D01*
G01*
X15115000Y-6700000D02*
G75*
G03*
X15115000Y-6700000I-40000J0D01*
G01*
X15120000Y-9736972D02*
G75*
G03*
X15120000Y-9736972I-40000J0D01*
G01*
X15120000Y-10498972D02*
G75*
G03*
X15120000Y-10498972I-40000J0D01*
G01*
X15615000Y-2622069D02*
G75*
G03*
X15615000Y-2622069I-40000J0D01*
G01*
X15615000Y-3072581D02*
G75*
G03*
X15615000Y-3072581I-40000J0D01*
G01*
X16265000Y-3072376D02*
G75*
G03*
X16265000Y-3072376I-40000J0D01*
G01*
X16265000Y-2622581D02*
G75*
G03*
X16265000Y-2622581I-40000J0D01*
G01*
X16490000Y-10825000D02*
G75*
G03*
X16490000Y-10825000I-40000J0D01*
G01*
X17252000Y-10825000D02*
G75*
G03*
X17252000Y-10825000I-40000J0D01*
G01*
D10*
X15654000Y-7325000D02*
X15654000Y-7425000D01*
X15604000Y-7375000D02*
X15704000Y-7375000D01*
X15654000Y-8775000D02*
X15654000Y-8875000D01*
X15604000Y-8825000D02*
X15704000Y-8825000D01*
X15904000Y-7325000D02*
X15904000Y-7425000D01*
X15854000Y-7375000D02*
X15954000Y-7375000D01*
X16154000Y-7325000D02*
X16154000Y-7425000D01*
X16104000Y-7375000D02*
X16204000Y-7375000D01*
X16154000Y-8775000D02*
X16154000Y-8875000D01*
X16104000Y-8825000D02*
X16204000Y-8825000D01*
X17650000Y-6650000D02*
X17650000Y-6750000D01*
X17600000Y-6700000D02*
X17700000Y-6700000D01*
X17650000Y-6850000D02*
X17650000Y-6950000D01*
X17600000Y-6900000D02*
X17700000Y-6900000D01*
X17650000Y-7050000D02*
X17650000Y-7150000D01*
X17600000Y-7100000D02*
X17700000Y-7100000D01*
X17650000Y-7250000D02*
X17650000Y-7350000D01*
X17600000Y-7300000D02*
X17700000Y-7300000D01*
X17650000Y-7675000D02*
X17650000Y-7775000D01*
X17600000Y-7725000D02*
X17700000Y-7725000D01*
X17650000Y-7875000D02*
X17650000Y-7975000D01*
X17600000Y-7925000D02*
X17700000Y-7925000D01*
X17650000Y-8075000D02*
X17650000Y-8175000D01*
X17600000Y-8125000D02*
X17700000Y-8125000D01*
X17650000Y-8275000D02*
X17650000Y-8375000D01*
X17600000Y-8325000D02*
X17700000Y-8325000D01*
X17900000Y-6750000D02*
X17900000Y-6850000D01*
X17850000Y-6800000D02*
X17950000Y-6800000D01*
X17900000Y-6950000D02*
X17900000Y-7050000D01*
X17850000Y-7000000D02*
X17950000Y-7000000D01*
X17900000Y-7150000D02*
X17900000Y-7250000D01*
X17850000Y-7200000D02*
X17950000Y-7200000D01*
X17900000Y-7350000D02*
X17900000Y-7450000D01*
X17850000Y-7400000D02*
X17950000Y-7400000D01*
X17900000Y-7575000D02*
X17900000Y-7675000D01*
X17850000Y-7625000D02*
X17950000Y-7625000D01*
X17900000Y-7775000D02*
X17900000Y-7875000D01*
X17850000Y-7825000D02*
X17950000Y-7825000D01*
X17900000Y-7975000D02*
X17900000Y-8075000D01*
X17850000Y-8025000D02*
X17950000Y-8025000D01*
X17900000Y-8175000D02*
X17900000Y-8275000D01*
X17850000Y-8225000D02*
X17950000Y-8225000D01*
D14*
X17138616Y-3394615D02*
X17138616Y-3317384D01*
X17061385Y-3317384D01*
X17061385Y-3394615D01*
X17138616Y-3394615D01*
X17138616Y-3648615D02*
X17138616Y-3571384D01*
X17061385Y-3571384D01*
X17061385Y-3648615D01*
X17138616Y-3648615D01*
X17138616Y-3902615D02*
X17138616Y-3825384D01*
X17061385Y-3825384D01*
X17061385Y-3902615D01*
X17138616Y-3902615D01*
X17138616Y-4156615D02*
X17138616Y-4079384D01*
X17061385Y-4079384D01*
X17061385Y-4156615D01*
X17138616Y-4156615D01*
X17138616Y-4410616D02*
X17138616Y-4333385D01*
X17061385Y-4333385D01*
X17061385Y-4410616D01*
X17138616Y-4410616D01*
X17138616Y-4664616D02*
X17138616Y-4587385D01*
X17061385Y-4587385D01*
X17061385Y-4664616D01*
X17138616Y-4664616D01*
X17138616Y-4918616D02*
X17138616Y-4841385D01*
X17061385Y-4841385D01*
X17061385Y-4918616D01*
X17138616Y-4918616D01*
X17138616Y-5172616D02*
X17138616Y-5095385D01*
X17061385Y-5095385D01*
X17061385Y-5172616D01*
X17138616Y-5172616D01*
X17138616Y-5426616D02*
X17138616Y-5349385D01*
X17061385Y-5349385D01*
X17061385Y-5426616D01*
X17138616Y-5426616D01*
X17138616Y-5680615D02*
X17138616Y-5603384D01*
X17061385Y-5603384D01*
X17061385Y-5680615D01*
X17138616Y-5680615D01*
X17138616Y-5934615D02*
X17138616Y-5857384D01*
X17061385Y-5857384D01*
X17061385Y-5934615D01*
X17138616Y-5934615D01*
X17138616Y-6188615D02*
X17138616Y-6111384D01*
X17061385Y-6111384D01*
X17061385Y-6188615D01*
X17138616Y-6188615D01*
X18662616Y-3394615D02*
X18662616Y-3317384D01*
X18585385Y-3317384D01*
X18585385Y-3394615D01*
X18662616Y-3394615D01*
X18662616Y-3648615D02*
X18662616Y-3571384D01*
X18585385Y-3571384D01*
X18585385Y-3648615D01*
X18662616Y-3648615D01*
X18662616Y-3902615D02*
X18662616Y-3825384D01*
X18585385Y-3825384D01*
X18585385Y-3902615D01*
X18662616Y-3902615D01*
X18662616Y-4156615D02*
X18662616Y-4079384D01*
X18585385Y-4079384D01*
X18585385Y-4156615D01*
X18662616Y-4156615D01*
X18662616Y-4410616D02*
X18662616Y-4333385D01*
X18585385Y-4333385D01*
X18585385Y-4410616D01*
X18662616Y-4410616D01*
X18662616Y-4664616D02*
X18662616Y-4587385D01*
X18585385Y-4587385D01*
X18585385Y-4664616D01*
X18662616Y-4664616D01*
X18662616Y-4918616D02*
X18662616Y-4841385D01*
X18585385Y-4841385D01*
X18585385Y-4918616D01*
X18662616Y-4918616D01*
X18662616Y-5172616D02*
X18662616Y-5095385D01*
X18585385Y-5095385D01*
X18585385Y-5172616D01*
X18662616Y-5172616D01*
X18662616Y-5426616D02*
X18662616Y-5349385D01*
X18585385Y-5349385D01*
X18585385Y-5426616D01*
X18662616Y-5426616D01*
X18662616Y-5680615D02*
X18662616Y-5603384D01*
X18585385Y-5603384D01*
X18585385Y-5680615D01*
X18662616Y-5680615D01*
X18662616Y-5934615D02*
X18662616Y-5857384D01*
X18585385Y-5857384D01*
X18585385Y-5934615D01*
X18662616Y-5934615D01*
X18662616Y-6188615D02*
X18662616Y-6111384D01*
X18585385Y-6111384D01*
X18585385Y-6188615D01*
X18662616Y-6188615D01*
D15*
X17612341Y-10878000D02*
X17667341Y-10823000D01*
X17612341Y-10768000D01*
X17557341Y-10823000D01*
X17612341Y-10878000D01*
X17862341Y-10878000D02*
X17917341Y-10823000D01*
X17862341Y-10768000D01*
X17807341Y-10823000D01*
X17862341Y-10878000D01*
X18112341Y-10878000D02*
X18167341Y-10823000D01*
X18112341Y-10768000D01*
X18057341Y-10823000D01*
X18112341Y-10878000D01*
X18735341Y-9755000D02*
X18790341Y-9700000D01*
X18735341Y-9645000D01*
X18680341Y-9700000D01*
X18735341Y-9755000D01*
X18735341Y-10005000D02*
X18790341Y-9950000D01*
X18735341Y-9895000D01*
X18680341Y-9950000D01*
X18735341Y-10005000D01*
X18735341Y-10255000D02*
X18790341Y-10200000D01*
X18735341Y-10145000D01*
X18680341Y-10200000D01*
X18735341Y-10255000D01*
D16*
X16772341Y-9560000D02*
X16902341Y-9690000D01*
X16902341Y-9560000D02*
X16772341Y-9690000D01*
X16902341Y-9625000D02*
G75*
G03*
X16902341Y-9625000I-65000J0D01*
G01*
X16772341Y-10210000D02*
X16902341Y-10340000D01*
X16902341Y-10210000D02*
X16772341Y-10340000D01*
X16902341Y-10275000D02*
G75*
G03*
X16902341Y-10275000I-65000J0D01*
G01*
X17222341Y-9560000D02*
X17352341Y-9690000D01*
X17352341Y-9560000D02*
X17222341Y-9690000D01*
X17352341Y-9625000D02*
G75*
G03*
X17352341Y-9625000I-65000J0D01*
G01*
X17222341Y-10210000D02*
X17352341Y-10340000D01*
X17352341Y-10210000D02*
X17222341Y-10340000D01*
X17352341Y-10275000D02*
G75*
G03*
X17352341Y-10275000I-65000J0D01*
G01*
D17*
X7848070Y-7779070D02*
X7997930Y-7928930D01*
X7997930Y-7779070D02*
X7848070Y-7928930D01*
X7923000Y-7779070D02*
X7923000Y-7928930D01*
X7848070Y-7854000D02*
X7997930Y-7854000D01*
X7848070Y-9679070D02*
X7997930Y-9828930D01*
X7997930Y-9679070D02*
X7848070Y-9828930D01*
X7923000Y-9679070D02*
X7923000Y-9828930D01*
X7848070Y-9754000D02*
X7997930Y-9754000D01*
X7975070Y-7525070D02*
X8124930Y-7674930D01*
X8124930Y-7525070D02*
X7975070Y-7674930D01*
X8050000Y-7525070D02*
X8050000Y-7674930D01*
X7975070Y-7600000D02*
X8124930Y-7600000D01*
X7975070Y-9425070D02*
X8124930Y-9574930D01*
X8124930Y-9425070D02*
X7975070Y-9574930D01*
X8050000Y-9425070D02*
X8050000Y-9574930D01*
X7975070Y-9500000D02*
X8124930Y-9500000D01*
X8483070Y-7525070D02*
X8632930Y-7674930D01*
X8632930Y-7525070D02*
X8483070Y-7674930D01*
X8558000Y-7525070D02*
X8558000Y-7674930D01*
X8483070Y-7600000D02*
X8632930Y-7600000D01*
X8483070Y-9425070D02*
X8632930Y-9574930D01*
X8632930Y-9425070D02*
X8483070Y-9574930D01*
X8558000Y-9425070D02*
X8558000Y-9574930D01*
X8483070Y-9500000D02*
X8632930Y-9500000D01*
X8610070Y-7779070D02*
X8759930Y-7928930D01*
X8759930Y-7779070D02*
X8610070Y-7928930D01*
X8685000Y-7779070D02*
X8685000Y-7928930D01*
X8610070Y-7854000D02*
X8759930Y-7854000D01*
X8610070Y-9679070D02*
X8759930Y-9828930D01*
X8759930Y-9679070D02*
X8610070Y-9828930D01*
X8685000Y-9679070D02*
X8685000Y-9828930D01*
X8610070Y-9754000D02*
X8759930Y-9754000D01*
X9748070Y-3979070D02*
X9897930Y-4128930D01*
X9897930Y-3979070D02*
X9748070Y-4128930D01*
X9823000Y-3979070D02*
X9823000Y-4128930D01*
X9748070Y-4054000D02*
X9897930Y-4054000D01*
X9748070Y-5879070D02*
X9897930Y-6028930D01*
X9897930Y-5879070D02*
X9748070Y-6028930D01*
X9823000Y-5879070D02*
X9823000Y-6028930D01*
X9748070Y-5954000D02*
X9897930Y-5954000D01*
X9748070Y-7779070D02*
X9897930Y-7928930D01*
X9897930Y-7779070D02*
X9748070Y-7928930D01*
X9823000Y-7779070D02*
X9823000Y-7928930D01*
X9748070Y-7854000D02*
X9897930Y-7854000D01*
X9875070Y-3725070D02*
X10024930Y-3874930D01*
X10024930Y-3725070D02*
X9875070Y-3874930D01*
X9950000Y-3725070D02*
X9950000Y-3874930D01*
X9875070Y-3800000D02*
X10024930Y-3800000D01*
X9875070Y-5625070D02*
X10024930Y-5774930D01*
X10024930Y-5625070D02*
X9875070Y-5774930D01*
X9950000Y-5625070D02*
X9950000Y-5774930D01*
X9875070Y-5700000D02*
X10024930Y-5700000D01*
X9875070Y-7525070D02*
X10024930Y-7674930D01*
X10024930Y-7525070D02*
X9875070Y-7674930D01*
X9950000Y-7525070D02*
X9950000Y-7674930D01*
X9875070Y-7600000D02*
X10024930Y-7600000D01*
X10383070Y-3725070D02*
X10532930Y-3874930D01*
X10532930Y-3725070D02*
X10383070Y-3874930D01*
X10458000Y-3725070D02*
X10458000Y-3874930D01*
X10383070Y-3800000D02*
X10532930Y-3800000D01*
X10383070Y-5625070D02*
X10532930Y-5774930D01*
X10532930Y-5625070D02*
X10383070Y-5774930D01*
X10458000Y-5625070D02*
X10458000Y-5774930D01*
X10383070Y-5700000D02*
X10532930Y-5700000D01*
X10383070Y-7525070D02*
X10532930Y-7674930D01*
X10532930Y-7525070D02*
X10383070Y-7674930D01*
X10458000Y-7525070D02*
X10458000Y-7674930D01*
X10383070Y-7600000D02*
X10532930Y-7600000D01*
X10510070Y-3979070D02*
X10659930Y-4128930D01*
X10659930Y-3979070D02*
X10510070Y-4128930D01*
X10585000Y-3979070D02*
X10585000Y-4128930D01*
X10510070Y-4054000D02*
X10659930Y-4054000D01*
X10510070Y-5879070D02*
X10659930Y-6028930D01*
X10659930Y-5879070D02*
X10510070Y-6028930D01*
X10585000Y-5879070D02*
X10585000Y-6028930D01*
X10510070Y-5954000D02*
X10659930Y-5954000D01*
X10510070Y-7779070D02*
X10659930Y-7928930D01*
X10659930Y-7779070D02*
X10510070Y-7928930D01*
X10585000Y-7779070D02*
X10585000Y-7928930D01*
X10510070Y-7854000D02*
X10659930Y-7854000D01*
X11648070Y-3054070D02*
X11797930Y-3203930D01*
X11797930Y-3054070D02*
X11648070Y-3203930D01*
X11723000Y-3054070D02*
X11723000Y-3203930D01*
X11648070Y-3129000D02*
X11797930Y-3129000D01*
X11648070Y-4954070D02*
X11797930Y-5103930D01*
X11797930Y-4954070D02*
X11648070Y-5103930D01*
X11723000Y-4954070D02*
X11723000Y-5103930D01*
X11648070Y-5029000D02*
X11797930Y-5029000D01*
X11648070Y-6854070D02*
X11797930Y-7003930D01*
X11797930Y-6854070D02*
X11648070Y-7003930D01*
X11723000Y-6854070D02*
X11723000Y-7003930D01*
X11648070Y-6929000D02*
X11797930Y-6929000D01*
X11775070Y-2800070D02*
X11924930Y-2949930D01*
X11924930Y-2800070D02*
X11775070Y-2949930D01*
X11850000Y-2800070D02*
X11850000Y-2949930D01*
X11775070Y-2875000D02*
X11924930Y-2875000D01*
X11775070Y-4700070D02*
X11924930Y-4849930D01*
X11924930Y-4700070D02*
X11775070Y-4849930D01*
X11850000Y-4700070D02*
X11850000Y-4849930D01*
X11775070Y-4775000D02*
X11924930Y-4775000D01*
X11775070Y-6600070D02*
X11924930Y-6749930D01*
X11924930Y-6600070D02*
X11775070Y-6749930D01*
X11850000Y-6600070D02*
X11850000Y-6749930D01*
X11775070Y-6675000D02*
X11924930Y-6675000D01*
X12283070Y-2800070D02*
X12432930Y-2949930D01*
X12432930Y-2800070D02*
X12283070Y-2949930D01*
X12358000Y-2800070D02*
X12358000Y-2949930D01*
X12283070Y-2875000D02*
X12432930Y-2875000D01*
X12283070Y-4700070D02*
X12432930Y-4849930D01*
X12432930Y-4700070D02*
X12283070Y-4849930D01*
X12358000Y-4700070D02*
X12358000Y-4849930D01*
X12283070Y-4775000D02*
X12432930Y-4775000D01*
X12283070Y-6600070D02*
X12432930Y-6749930D01*
X12432930Y-6600070D02*
X12283070Y-6749930D01*
X12358000Y-6600070D02*
X12358000Y-6749930D01*
X12283070Y-6675000D02*
X12432930Y-6675000D01*
X12410070Y-3054070D02*
X12559930Y-3203930D01*
X12559930Y-3054070D02*
X12410070Y-3203930D01*
X12485000Y-3054070D02*
X12485000Y-3203930D01*
X12410070Y-3129000D02*
X12559930Y-3129000D01*
X12410070Y-4954070D02*
X12559930Y-5103930D01*
X12559930Y-4954070D02*
X12410070Y-5103930D01*
X12485000Y-4954070D02*
X12485000Y-5103930D01*
X12410070Y-5029000D02*
X12559930Y-5029000D01*
X12410070Y-6854070D02*
X12559930Y-7003930D01*
X12559930Y-6854070D02*
X12410070Y-7003930D01*
X12485000Y-6854070D02*
X12485000Y-7003930D01*
X12410070Y-6929000D02*
X12559930Y-6929000D01*
X13548070Y-3979070D02*
X13697930Y-4128930D01*
X13697930Y-3979070D02*
X13548070Y-4128930D01*
X13623000Y-3979070D02*
X13623000Y-4128930D01*
X13548070Y-4054000D02*
X13697930Y-4054000D01*
X13548070Y-5879070D02*
X13697930Y-6028930D01*
X13697930Y-5879070D02*
X13548070Y-6028930D01*
X13623000Y-5879070D02*
X13623000Y-6028930D01*
X13548070Y-5954000D02*
X13697930Y-5954000D01*
X13548070Y-7779070D02*
X13697930Y-7928930D01*
X13697930Y-7779070D02*
X13548070Y-7928930D01*
X13623000Y-7779070D02*
X13623000Y-7928930D01*
X13548070Y-7854000D02*
X13697930Y-7854000D01*
X13548070Y-9679070D02*
X13697930Y-9828930D01*
X13697930Y-9679070D02*
X13548070Y-9828930D01*
X13623000Y-9679070D02*
X13623000Y-9828930D01*
X13548070Y-9754000D02*
X13697930Y-9754000D01*
X13675070Y-3725070D02*
X13824930Y-3874930D01*
X13824930Y-3725070D02*
X13675070Y-3874930D01*
X13750000Y-3725070D02*
X13750000Y-3874930D01*
X13675070Y-3800000D02*
X13824930Y-3800000D01*
X13675070Y-5625070D02*
X13824930Y-5774930D01*
X13824930Y-5625070D02*
X13675070Y-5774930D01*
X13750000Y-5625070D02*
X13750000Y-5774930D01*
X13675070Y-5700000D02*
X13824930Y-5700000D01*
X13675070Y-7525070D02*
X13824930Y-7674930D01*
X13824930Y-7525070D02*
X13675070Y-7674930D01*
X13750000Y-7525070D02*
X13750000Y-7674930D01*
X13675070Y-7600000D02*
X13824930Y-7600000D01*
X13675070Y-9425070D02*
X13824930Y-9574930D01*
X13824930Y-9425070D02*
X13675070Y-9574930D01*
X13750000Y-9425070D02*
X13750000Y-9574930D01*
X13675070Y-9500000D02*
X13824930Y-9500000D01*
X14183070Y-3725070D02*
X14332930Y-3874930D01*
X14332930Y-3725070D02*
X14183070Y-3874930D01*
X14258000Y-3725070D02*
X14258000Y-3874930D01*
X14183070Y-3800000D02*
X14332930Y-3800000D01*
X14183070Y-5625070D02*
X14332930Y-5774930D01*
X14332930Y-5625070D02*
X14183070Y-5774930D01*
X14258000Y-5625070D02*
X14258000Y-5774930D01*
X14183070Y-5700000D02*
X14332930Y-5700000D01*
X14183070Y-7525070D02*
X14332930Y-7674930D01*
X14332930Y-7525070D02*
X14183070Y-7674930D01*
X14258000Y-7525070D02*
X14258000Y-7674930D01*
X14183070Y-7600000D02*
X14332930Y-7600000D01*
X14183070Y-9425070D02*
X14332930Y-9574930D01*
X14332930Y-9425070D02*
X14183070Y-9574930D01*
X14258000Y-9425070D02*
X14258000Y-9574930D01*
X14183070Y-9500000D02*
X14332930Y-9500000D01*
X14310070Y-3979070D02*
X14459930Y-4128930D01*
X14459930Y-3979070D02*
X14310070Y-4128930D01*
X14385000Y-3979070D02*
X14385000Y-4128930D01*
X14310070Y-4054000D02*
X14459930Y-4054000D01*
X14310070Y-5879070D02*
X14459930Y-6028930D01*
X14459930Y-5879070D02*
X14310070Y-6028930D01*
X14385000Y-5879070D02*
X14385000Y-6028930D01*
X14310070Y-5954000D02*
X14459930Y-5954000D01*
X14310070Y-7779070D02*
X14459930Y-7928930D01*
X14459930Y-7779070D02*
X14310070Y-7928930D01*
X14385000Y-7779070D02*
X14385000Y-7928930D01*
X14310070Y-7854000D02*
X14459930Y-7854000D01*
X14310070Y-9679070D02*
X14459930Y-9828930D01*
X14459930Y-9679070D02*
X14310070Y-9828930D01*
X14385000Y-9679070D02*
X14385000Y-9828930D01*
X14310070Y-9754000D02*
X14459930Y-9754000D01*
X15448070Y-3979070D02*
X15597930Y-4128930D01*
X15597930Y-3979070D02*
X15448070Y-4128930D01*
X15523000Y-3979070D02*
X15523000Y-4128930D01*
X15448070Y-4054000D02*
X15597930Y-4054000D01*
X15448070Y-5879070D02*
X15597930Y-6028930D01*
X15597930Y-5879070D02*
X15448070Y-6028930D01*
X15523000Y-5879070D02*
X15523000Y-6028930D01*
X15448070Y-5954000D02*
X15597930Y-5954000D01*
X15453070Y-9678042D02*
X15602930Y-9827902D01*
X15602930Y-9678042D02*
X15453070Y-9827902D01*
X15528000Y-9678042D02*
X15528000Y-9827902D01*
X15453070Y-9752972D02*
X15602930Y-9752972D01*
X15575070Y-3725070D02*
X15724930Y-3874930D01*
X15724930Y-3725070D02*
X15575070Y-3874930D01*
X15650000Y-3725070D02*
X15650000Y-3874930D01*
X15575070Y-3800000D02*
X15724930Y-3800000D01*
X15575070Y-5625070D02*
X15724930Y-5774930D01*
X15724930Y-5625070D02*
X15575070Y-5774930D01*
X15650000Y-5625070D02*
X15650000Y-5774930D01*
X15575070Y-5700000D02*
X15724930Y-5700000D01*
X15580070Y-9424042D02*
X15729930Y-9573902D01*
X15729930Y-9424042D02*
X15580070Y-9573902D01*
X15655000Y-9424042D02*
X15655000Y-9573902D01*
X15580070Y-9498972D02*
X15729930Y-9498972D01*
X16083070Y-3725070D02*
X16232930Y-3874930D01*
X16232930Y-3725070D02*
X16083070Y-3874930D01*
X16158000Y-3725070D02*
X16158000Y-3874930D01*
X16083070Y-3800000D02*
X16232930Y-3800000D01*
X16083070Y-5625070D02*
X16232930Y-5774930D01*
X16232930Y-5625070D02*
X16083070Y-5774930D01*
X16158000Y-5625070D02*
X16158000Y-5774930D01*
X16083070Y-5700000D02*
X16232930Y-5700000D01*
X16088070Y-9424042D02*
X16237930Y-9573902D01*
X16237930Y-9424042D02*
X16088070Y-9573902D01*
X16163000Y-9424042D02*
X16163000Y-9573902D01*
X16088070Y-9498972D02*
X16237930Y-9498972D01*
X16210070Y-3979070D02*
X16359930Y-4128930D01*
X16359930Y-3979070D02*
X16210070Y-4128930D01*
X16285000Y-3979070D02*
X16285000Y-4128930D01*
X16210070Y-4054000D02*
X16359930Y-4054000D01*
X16210070Y-5879070D02*
X16359930Y-6028930D01*
X16359930Y-5879070D02*
X16210070Y-6028930D01*
X16285000Y-5879070D02*
X16285000Y-6028930D01*
X16210070Y-5954000D02*
X16359930Y-5954000D01*
X16215070Y-9678042D02*
X16364930Y-9827902D01*
X16364930Y-9678042D02*
X16215070Y-9827902D01*
X16290000Y-9678042D02*
X16290000Y-9827902D01*
X16215070Y-9752972D02*
X16364930Y-9752972D01*
D18*
X15269000Y-8050000D02*
X15419000Y-8200000D01*
X15419000Y-8050000D02*
X15269000Y-8200000D01*
X15397033Y-8178033D02*
X15397033Y-8071966D01*
X15290966Y-8071966D01*
X15290966Y-8178033D01*
X15397033Y-8178033D01*
D11*
X15269000Y-8060000D02*
X15269000Y-8190000D01*
X15419000Y-8060000D02*
X15419000Y-8190000D01*
X15269000Y-8190000D02*
G75*
G03*
X15419000Y-8190000I75000J0D01*
G01*
X15419000Y-8060000D02*
G75*
G03*
X15269000Y-8060000I-75000J0D01*
G01*
D18*
X16389000Y-8050000D02*
X16539000Y-8200000D01*
X16539000Y-8050000D02*
X16389000Y-8200000D01*
X16517033Y-8178033D02*
X16517033Y-8071966D01*
X16410966Y-8071966D01*
X16410966Y-8178033D01*
X16517033Y-8178033D01*
D11*
X16389000Y-8060000D02*
X16389000Y-8190000D01*
X16539000Y-8060000D02*
X16539000Y-8190000D01*
X16389000Y-8190000D02*
G75*
G03*
X16539000Y-8190000I75000J0D01*
G01*
X16539000Y-8060000D02*
G75*
G03*
X16389000Y-8060000I-75000J0D01*
G01*
D18*
X17533341Y-9415000D02*
X17683341Y-9565000D01*
X17683341Y-9415000D02*
X17533341Y-9565000D01*
X17661375Y-9543034D02*
X17661375Y-9436967D01*
X17555308Y-9436967D01*
X17555308Y-9543034D01*
X17661375Y-9543034D01*
X18168341Y-9669000D02*
X18318341Y-9819000D01*
X18318341Y-9669000D02*
X18168341Y-9819000D01*
X18296375Y-9797034D02*
X18296375Y-9690967D01*
X18190308Y-9690967D01*
X18190308Y-9797034D01*
X18296375Y-9797034D01*
D19*
X17282341Y-9237500D02*
X17442341Y-9397500D01*
X17442341Y-9237500D02*
X17282341Y-9397500D01*
X17362341Y-9397500D02*
X17442341Y-9317500D01*
X17362341Y-9237500D01*
X17282341Y-9317500D01*
X17362341Y-9397500D01*
X17282341Y-10502500D02*
X17442341Y-10662500D01*
X17442341Y-10502500D02*
X17282341Y-10662500D01*
X17362341Y-10662500D02*
X17442341Y-10582500D01*
X17362341Y-10502500D01*
X17282341Y-10582500D01*
X17362341Y-10662500D01*
X18282341Y-9237500D02*
X18442341Y-9397500D01*
X18442341Y-9237500D02*
X18282341Y-9397500D01*
X18362341Y-9397500D02*
X18442341Y-9317500D01*
X18362341Y-9237500D01*
X18282341Y-9317500D01*
X18362341Y-9397500D01*
X18282341Y-10502500D02*
X18442341Y-10662500D01*
X18442341Y-10502500D02*
X18282341Y-10662500D01*
X18362341Y-10662500D02*
X18442341Y-10582500D01*
X18362341Y-10502500D01*
X18282341Y-10582500D01*
X18362341Y-10662500D01*
D11*
X7502619Y-11365476D02*
X7502619Y-11165476D01*
X7550238Y-11165476D01*
X7578809Y-11175000D01*
X7597857Y-11194048D01*
X7607381Y-11213095D01*
X7616905Y-11251190D01*
X7616905Y-11279762D01*
X7607381Y-11317857D01*
X7597857Y-11336905D01*
X7578809Y-11355952D01*
X7550238Y-11365476D01*
X7502619Y-11365476D01*
X7702619Y-11365476D02*
X7702619Y-11232143D01*
X7702619Y-11270238D02*
X7712143Y-11251190D01*
X7721667Y-11241667D01*
X7740714Y-11232143D01*
X7759762Y-11232143D01*
X7826428Y-11365476D02*
X7826428Y-11232143D01*
X7826428Y-11165476D02*
X7816905Y-11175000D01*
X7826428Y-11184524D01*
X7835952Y-11175000D01*
X7826428Y-11165476D01*
X7826428Y-11184524D01*
X7950238Y-11365476D02*
X7931190Y-11355952D01*
X7921667Y-11336905D01*
X7921667Y-11165476D01*
X8055000Y-11365476D02*
X8035952Y-11355952D01*
X8026428Y-11336905D01*
X8026428Y-11165476D01*
X8283571Y-11365476D02*
X8283571Y-11165476D01*
X8350238Y-11308333D01*
X8416905Y-11165476D01*
X8416905Y-11365476D01*
X8597857Y-11365476D02*
X8597857Y-11260714D01*
X8588333Y-11241667D01*
X8569286Y-11232143D01*
X8531190Y-11232143D01*
X8512143Y-11241667D01*
X8597857Y-11355952D02*
X8578810Y-11365476D01*
X8531190Y-11365476D01*
X8512143Y-11355952D01*
X8502619Y-11336905D01*
X8502619Y-11317857D01*
X8512143Y-11298809D01*
X8531190Y-11289286D01*
X8578810Y-11289286D01*
X8597857Y-11279762D01*
X8693095Y-11232143D02*
X8693095Y-11432143D01*
X8693095Y-11241667D02*
X8712143Y-11232143D01*
X8750238Y-11232143D01*
X8769286Y-11241667D01*
X8778810Y-11251190D01*
X8788333Y-11270238D01*
X8788333Y-11327381D01*
X8778810Y-11346428D01*
X8769286Y-11355952D01*
X8750238Y-11365476D01*
X8712143Y-11365476D01*
X8693095Y-11355952D01*
X8874048Y-11346428D02*
X8883571Y-11355952D01*
X8874048Y-11365476D01*
X8864524Y-11355952D01*
X8874048Y-11346428D01*
X8874048Y-11365476D01*
X8874048Y-11241667D02*
X8883571Y-11251190D01*
X8874048Y-11260714D01*
X8864524Y-11251190D01*
X8874048Y-11241667D01*
X8874048Y-11260714D01*
D12*
X7205000Y-11675000D02*
X7245000Y-11715000D01*
X7245000Y-11675000D02*
X7205000Y-11715000D01*
D11*
X7540714Y-11585476D02*
X7559762Y-11585476D01*
X7578809Y-11595000D01*
X7588333Y-11604524D01*
X7597857Y-11623571D01*
X7607381Y-11661667D01*
X7607381Y-11709286D01*
X7597857Y-11747381D01*
X7588333Y-11766428D01*
X7578809Y-11775952D01*
X7559762Y-11785476D01*
X7540714Y-11785476D01*
X7521667Y-11775952D01*
X7512143Y-11766428D01*
X7502619Y-11747381D01*
X7493095Y-11709286D01*
X7493095Y-11661667D01*
X7502619Y-11623571D01*
X7512143Y-11604524D01*
X7521667Y-11595000D01*
X7540714Y-11585476D01*
X7693095Y-11766428D02*
X7702619Y-11775952D01*
X7693095Y-11785476D01*
X7683571Y-11775952D01*
X7693095Y-11766428D01*
X7693095Y-11785476D01*
X7874048Y-11652143D02*
X7874048Y-11785476D01*
X7826428Y-11575952D02*
X7778809Y-11718809D01*
X7902619Y-11718809D01*
X8016905Y-11585476D02*
X8035952Y-11585476D01*
X8055000Y-11595000D01*
X8064524Y-11604524D01*
X8074048Y-11623571D01*
X8083571Y-11661667D01*
X8083571Y-11709286D01*
X8074048Y-11747381D01*
X8064524Y-11766428D01*
X8055000Y-11775952D01*
X8035952Y-11785476D01*
X8016905Y-11785476D01*
X7997857Y-11775952D01*
X7988333Y-11766428D01*
X7978809Y-11747381D01*
X7969286Y-11709286D01*
X7969286Y-11661667D01*
X7978809Y-11623571D01*
X7988333Y-11604524D01*
X7997857Y-11595000D01*
X8016905Y-11585476D01*
X8207381Y-11585476D02*
X8226428Y-11585476D01*
X8245476Y-11595000D01*
X8255000Y-11604524D01*
X8264524Y-11623571D01*
X8274048Y-11661667D01*
X8274048Y-11709286D01*
X8264524Y-11747381D01*
X8255000Y-11766428D01*
X8245476Y-11775952D01*
X8226428Y-11785476D01*
X8207381Y-11785476D01*
X8188333Y-11775952D01*
X8178809Y-11766428D01*
X8169286Y-11747381D01*
X8159762Y-11709286D01*
X8159762Y-11661667D01*
X8169286Y-11623571D01*
X8178809Y-11604524D01*
X8188333Y-11595000D01*
X8207381Y-11585476D01*
X8359762Y-11785476D02*
X8359762Y-11652143D01*
X8359762Y-11671190D02*
X8369286Y-11661667D01*
X8388333Y-11652143D01*
X8416905Y-11652143D01*
X8435952Y-11661667D01*
X8445476Y-11680714D01*
X8445476Y-11785476D01*
X8445476Y-11680714D02*
X8455000Y-11661667D01*
X8474048Y-11652143D01*
X8502619Y-11652143D01*
X8521667Y-11661667D01*
X8531190Y-11680714D01*
X8531190Y-11785476D01*
X8626429Y-11785476D02*
X8626429Y-11652143D01*
X8626429Y-11671190D02*
X8635952Y-11661667D01*
X8655000Y-11652143D01*
X8683571Y-11652143D01*
X8702619Y-11661667D01*
X8712143Y-11680714D01*
X8712143Y-11785476D01*
X8712143Y-11680714D02*
X8721667Y-11661667D01*
X8740714Y-11652143D01*
X8769286Y-11652143D01*
X8788333Y-11661667D01*
X8797857Y-11680714D01*
X8797857Y-11785476D01*
X9188333Y-11575952D02*
X9016905Y-11833095D01*
X9445476Y-11585476D02*
X9464524Y-11585476D01*
X9483571Y-11595000D01*
X9493095Y-11604524D01*
X9502619Y-11623571D01*
X9512143Y-11661667D01*
X9512143Y-11709286D01*
X9502619Y-11747381D01*
X9493095Y-11766428D01*
X9483571Y-11775952D01*
X9464524Y-11785476D01*
X9445476Y-11785476D01*
X9426429Y-11775952D01*
X9416905Y-11766428D01*
X9407381Y-11747381D01*
X9397857Y-11709286D01*
X9397857Y-11661667D01*
X9407381Y-11623571D01*
X9416905Y-11604524D01*
X9426429Y-11595000D01*
X9445476Y-11585476D01*
X9597857Y-11766428D02*
X9607381Y-11775952D01*
X9597857Y-11785476D01*
X9588333Y-11775952D01*
X9597857Y-11766428D01*
X9597857Y-11785476D01*
X9731190Y-11585476D02*
X9750238Y-11585476D01*
X9769286Y-11595000D01*
X9778810Y-11604524D01*
X9788333Y-11623571D01*
X9797857Y-11661667D01*
X9797857Y-11709286D01*
X9788333Y-11747381D01*
X9778810Y-11766428D01*
X9769286Y-11775952D01*
X9750238Y-11785476D01*
X9731190Y-11785476D01*
X9712143Y-11775952D01*
X9702619Y-11766428D01*
X9693095Y-11747381D01*
X9683571Y-11709286D01*
X9683571Y-11661667D01*
X9693095Y-11623571D01*
X9702619Y-11604524D01*
X9712143Y-11595000D01*
X9731190Y-11585476D01*
X9988333Y-11785476D02*
X9874048Y-11785476D01*
X9931190Y-11785476D02*
X9931190Y-11585476D01*
X9912143Y-11614048D01*
X9893095Y-11633095D01*
X9874048Y-11642619D01*
X10169286Y-11585476D02*
X10074048Y-11585476D01*
X10064524Y-11680714D01*
X10074048Y-11671190D01*
X10093095Y-11661667D01*
X10140714Y-11661667D01*
X10159762Y-11671190D01*
X10169286Y-11680714D01*
X10178810Y-11699762D01*
X10178810Y-11747381D01*
X10169286Y-11766428D01*
X10159762Y-11775952D01*
X10140714Y-11785476D01*
X10093095Y-11785476D01*
X10074048Y-11775952D01*
X10064524Y-11766428D01*
X10245476Y-11585476D02*
X10378810Y-11585476D01*
X10293095Y-11785476D01*
X10445476Y-11585476D02*
X10445476Y-11623571D01*
X10521667Y-11585476D02*
X10521667Y-11623571D01*
X10816905Y-11861667D02*
X10807381Y-11852143D01*
X10788333Y-11823571D01*
X10778810Y-11804524D01*
X10769286Y-11775952D01*
X10759762Y-11728333D01*
X10759762Y-11690238D01*
X10769286Y-11642619D01*
X10778810Y-11614048D01*
X10788333Y-11595000D01*
X10807381Y-11566428D01*
X10816905Y-11556905D01*
X10978810Y-11585476D02*
X10940714Y-11585476D01*
X10921667Y-11595000D01*
X10912143Y-11604524D01*
X10893095Y-11633095D01*
X10883571Y-11671190D01*
X10883571Y-11747381D01*
X10893095Y-11766428D01*
X10902619Y-11775952D01*
X10921667Y-11785476D01*
X10959762Y-11785476D01*
X10978810Y-11775952D01*
X10988333Y-11766428D01*
X10997857Y-11747381D01*
X10997857Y-11699762D01*
X10988333Y-11680714D01*
X10978810Y-11671190D01*
X10959762Y-11661667D01*
X10921667Y-11661667D01*
X10902619Y-11671190D01*
X10893095Y-11680714D01*
X10883571Y-11699762D01*
X11235952Y-11785476D02*
X11235952Y-11585476D01*
X11321667Y-11785476D02*
X11321667Y-11680714D01*
X11312143Y-11661667D01*
X11293095Y-11652143D01*
X11264524Y-11652143D01*
X11245476Y-11661667D01*
X11235952Y-11671190D01*
X11445476Y-11785476D02*
X11426428Y-11775952D01*
X11416905Y-11766428D01*
X11407381Y-11747381D01*
X11407381Y-11690238D01*
X11416905Y-11671190D01*
X11426428Y-11661667D01*
X11445476Y-11652143D01*
X11474048Y-11652143D01*
X11493095Y-11661667D01*
X11502619Y-11671190D01*
X11512143Y-11690238D01*
X11512143Y-11747381D01*
X11502619Y-11766428D01*
X11493095Y-11775952D01*
X11474048Y-11785476D01*
X11445476Y-11785476D01*
X11626428Y-11785476D02*
X11607381Y-11775952D01*
X11597857Y-11756905D01*
X11597857Y-11585476D01*
X11778809Y-11775952D02*
X11759762Y-11785476D01*
X11721667Y-11785476D01*
X11702619Y-11775952D01*
X11693095Y-11756905D01*
X11693095Y-11680714D01*
X11702619Y-11661667D01*
X11721667Y-11652143D01*
X11759762Y-11652143D01*
X11778809Y-11661667D01*
X11788333Y-11680714D01*
X11788333Y-11699762D01*
X11693095Y-11718809D01*
X11864524Y-11775952D02*
X11883571Y-11785476D01*
X11921667Y-11785476D01*
X11940714Y-11775952D01*
X11950238Y-11756905D01*
X11950238Y-11747381D01*
X11940714Y-11728333D01*
X11921667Y-11718809D01*
X11893095Y-11718809D01*
X11874048Y-11709286D01*
X11864524Y-11690238D01*
X11864524Y-11680714D01*
X11874048Y-11661667D01*
X11893095Y-11652143D01*
X11921667Y-11652143D01*
X11940714Y-11661667D01*
X12016905Y-11861667D02*
X12026428Y-11852143D01*
X12045476Y-11823571D01*
X12055000Y-11804524D01*
X12064524Y-11775952D01*
X12074048Y-11728333D01*
X12074048Y-11690238D01*
X12064524Y-11642619D01*
X12055000Y-11614048D01*
X12045476Y-11595000D01*
X12026428Y-11566428D01*
X12016905Y-11556905D01*
D13*
X7245000Y-11959000D02*
G75*
G03*
X7245000Y-11959000I-40000J0D01*
G01*
D11*
X7540714Y-11849476D02*
X7559762Y-11849476D01*
X7578809Y-11859000D01*
X7588333Y-11868524D01*
X7597857Y-11887571D01*
X7607381Y-11925667D01*
X7607381Y-11973286D01*
X7597857Y-12011381D01*
X7588333Y-12030428D01*
X7578809Y-12039952D01*
X7559762Y-12049476D01*
X7540714Y-12049476D01*
X7521667Y-12039952D01*
X7512143Y-12030428D01*
X7502619Y-12011381D01*
X7493095Y-11973286D01*
X7493095Y-11925667D01*
X7502619Y-11887571D01*
X7512143Y-11868524D01*
X7521667Y-11859000D01*
X7540714Y-11849476D01*
X7693095Y-12030428D02*
X7702619Y-12039952D01*
X7693095Y-12049476D01*
X7683571Y-12039952D01*
X7693095Y-12030428D01*
X7693095Y-12049476D01*
X7816905Y-11935190D02*
X7797857Y-11925667D01*
X7788333Y-11916143D01*
X7778809Y-11897095D01*
X7778809Y-11887571D01*
X7788333Y-11868524D01*
X7797857Y-11859000D01*
X7816905Y-11849476D01*
X7855000Y-11849476D01*
X7874048Y-11859000D01*
X7883571Y-11868524D01*
X7893095Y-11887571D01*
X7893095Y-11897095D01*
X7883571Y-11916143D01*
X7874048Y-11925667D01*
X7855000Y-11935190D01*
X7816905Y-11935190D01*
X7797857Y-11944714D01*
X7788333Y-11954238D01*
X7778809Y-11973286D01*
X7778809Y-12011381D01*
X7788333Y-12030428D01*
X7797857Y-12039952D01*
X7816905Y-12049476D01*
X7855000Y-12049476D01*
X7874048Y-12039952D01*
X7883571Y-12030428D01*
X7893095Y-12011381D01*
X7893095Y-11973286D01*
X7883571Y-11954238D01*
X7874048Y-11944714D01*
X7855000Y-11935190D01*
X8016905Y-11849476D02*
X8035952Y-11849476D01*
X8055000Y-11859000D01*
X8064524Y-11868524D01*
X8074048Y-11887571D01*
X8083571Y-11925667D01*
X8083571Y-11973286D01*
X8074048Y-12011381D01*
X8064524Y-12030428D01*
X8055000Y-12039952D01*
X8035952Y-12049476D01*
X8016905Y-12049476D01*
X7997857Y-12039952D01*
X7988333Y-12030428D01*
X7978809Y-12011381D01*
X7969286Y-11973286D01*
X7969286Y-11925667D01*
X7978809Y-11887571D01*
X7988333Y-11868524D01*
X7997857Y-11859000D01*
X8016905Y-11849476D01*
X8207381Y-11849476D02*
X8226428Y-11849476D01*
X8245476Y-11859000D01*
X8255000Y-11868524D01*
X8264524Y-11887571D01*
X8274048Y-11925667D01*
X8274048Y-11973286D01*
X8264524Y-12011381D01*
X8255000Y-12030428D01*
X8245476Y-12039952D01*
X8226428Y-12049476D01*
X8207381Y-12049476D01*
X8188333Y-12039952D01*
X8178809Y-12030428D01*
X8169286Y-12011381D01*
X8159762Y-11973286D01*
X8159762Y-11925667D01*
X8169286Y-11887571D01*
X8178809Y-11868524D01*
X8188333Y-11859000D01*
X8207381Y-11849476D01*
X8359762Y-12049476D02*
X8359762Y-11916143D01*
X8359762Y-11935190D02*
X8369286Y-11925667D01*
X8388333Y-11916143D01*
X8416905Y-11916143D01*
X8435952Y-11925667D01*
X8445476Y-11944714D01*
X8445476Y-12049476D01*
X8445476Y-11944714D02*
X8455000Y-11925667D01*
X8474048Y-11916143D01*
X8502619Y-11916143D01*
X8521667Y-11925667D01*
X8531190Y-11944714D01*
X8531190Y-12049476D01*
X8626429Y-12049476D02*
X8626429Y-11916143D01*
X8626429Y-11935190D02*
X8635952Y-11925667D01*
X8655000Y-11916143D01*
X8683571Y-11916143D01*
X8702619Y-11925667D01*
X8712143Y-11944714D01*
X8712143Y-12049476D01*
X8712143Y-11944714D02*
X8721667Y-11925667D01*
X8740714Y-11916143D01*
X8769286Y-11916143D01*
X8788333Y-11925667D01*
X8797857Y-11944714D01*
X8797857Y-12049476D01*
X9188333Y-11839952D02*
X9016905Y-12097095D01*
X9445476Y-11849476D02*
X9464524Y-11849476D01*
X9483571Y-11859000D01*
X9493095Y-11868524D01*
X9502619Y-11887571D01*
X9512143Y-11925667D01*
X9512143Y-11973286D01*
X9502619Y-12011381D01*
X9493095Y-12030428D01*
X9483571Y-12039952D01*
X9464524Y-12049476D01*
X9445476Y-12049476D01*
X9426429Y-12039952D01*
X9416905Y-12030428D01*
X9407381Y-12011381D01*
X9397857Y-11973286D01*
X9397857Y-11925667D01*
X9407381Y-11887571D01*
X9416905Y-11868524D01*
X9426429Y-11859000D01*
X9445476Y-11849476D01*
X9597857Y-12030428D02*
X9607381Y-12039952D01*
X9597857Y-12049476D01*
X9588333Y-12039952D01*
X9597857Y-12030428D01*
X9597857Y-12049476D01*
X9731190Y-11849476D02*
X9750238Y-11849476D01*
X9769286Y-11859000D01*
X9778810Y-11868524D01*
X9788333Y-11887571D01*
X9797857Y-11925667D01*
X9797857Y-11973286D01*
X9788333Y-12011381D01*
X9778810Y-12030428D01*
X9769286Y-12039952D01*
X9750238Y-12049476D01*
X9731190Y-12049476D01*
X9712143Y-12039952D01*
X9702619Y-12030428D01*
X9693095Y-12011381D01*
X9683571Y-11973286D01*
X9683571Y-11925667D01*
X9693095Y-11887571D01*
X9702619Y-11868524D01*
X9712143Y-11859000D01*
X9731190Y-11849476D01*
X9864524Y-11849476D02*
X9988333Y-11849476D01*
X9921667Y-11925667D01*
X9950238Y-11925667D01*
X9969286Y-11935190D01*
X9978810Y-11944714D01*
X9988333Y-11963762D01*
X9988333Y-12011381D01*
X9978810Y-12030428D01*
X9969286Y-12039952D01*
X9950238Y-12049476D01*
X9893095Y-12049476D01*
X9874048Y-12039952D01*
X9864524Y-12030428D01*
X10178810Y-12049476D02*
X10064524Y-12049476D01*
X10121667Y-12049476D02*
X10121667Y-11849476D01*
X10102619Y-11878048D01*
X10083571Y-11897095D01*
X10064524Y-11906619D01*
X10359762Y-11849476D02*
X10264524Y-11849476D01*
X10255000Y-11944714D01*
X10264524Y-11935190D01*
X10283571Y-11925667D01*
X10331190Y-11925667D01*
X10350238Y-11935190D01*
X10359762Y-11944714D01*
X10369286Y-11963762D01*
X10369286Y-12011381D01*
X10359762Y-12030428D01*
X10350238Y-12039952D01*
X10331190Y-12049476D01*
X10283571Y-12049476D01*
X10264524Y-12039952D01*
X10255000Y-12030428D01*
X10445476Y-11849476D02*
X10445476Y-11887571D01*
X10521667Y-11849476D02*
X10521667Y-11887571D01*
X10816905Y-12125667D02*
X10807381Y-12116143D01*
X10788333Y-12087571D01*
X10778810Y-12068524D01*
X10769286Y-12039952D01*
X10759762Y-11992333D01*
X10759762Y-11954238D01*
X10769286Y-11906619D01*
X10778810Y-11878048D01*
X10788333Y-11859000D01*
X10807381Y-11830428D01*
X10816905Y-11820905D01*
X10978810Y-11916143D02*
X10978810Y-12049476D01*
X10931190Y-11839952D02*
X10883571Y-11982809D01*
X11007381Y-11982809D01*
X11121667Y-11849476D02*
X11140714Y-11849476D01*
X11159762Y-11859000D01*
X11169286Y-11868524D01*
X11178810Y-11887571D01*
X11188333Y-11925667D01*
X11188333Y-11973286D01*
X11178810Y-12011381D01*
X11169286Y-12030428D01*
X11159762Y-12039952D01*
X11140714Y-12049476D01*
X11121667Y-12049476D01*
X11102619Y-12039952D01*
X11093095Y-12030428D01*
X11083571Y-12011381D01*
X11074048Y-11973286D01*
X11074048Y-11925667D01*
X11083571Y-11887571D01*
X11093095Y-11868524D01*
X11102619Y-11859000D01*
X11121667Y-11849476D01*
X11426428Y-12049476D02*
X11426428Y-11849476D01*
X11512143Y-12049476D02*
X11512143Y-11944714D01*
X11502619Y-11925667D01*
X11483571Y-11916143D01*
X11455000Y-11916143D01*
X11435952Y-11925667D01*
X11426428Y-11935190D01*
X11635952Y-12049476D02*
X11616905Y-12039952D01*
X11607381Y-12030428D01*
X11597857Y-12011381D01*
X11597857Y-11954238D01*
X11607381Y-11935190D01*
X11616905Y-11925667D01*
X11635952Y-11916143D01*
X11664524Y-11916143D01*
X11683571Y-11925667D01*
X11693095Y-11935190D01*
X11702619Y-11954238D01*
X11702619Y-12011381D01*
X11693095Y-12030428D01*
X11683571Y-12039952D01*
X11664524Y-12049476D01*
X11635952Y-12049476D01*
X11816905Y-12049476D02*
X11797857Y-12039952D01*
X11788333Y-12020905D01*
X11788333Y-11849476D01*
X11969286Y-12039952D02*
X11950238Y-12049476D01*
X11912143Y-12049476D01*
X11893095Y-12039952D01*
X11883571Y-12020905D01*
X11883571Y-11944714D01*
X11893095Y-11925667D01*
X11912143Y-11916143D01*
X11950238Y-11916143D01*
X11969286Y-11925667D01*
X11978809Y-11944714D01*
X11978809Y-11963762D01*
X11883571Y-11982809D01*
X12055000Y-12039952D02*
X12074048Y-12049476D01*
X12112143Y-12049476D01*
X12131190Y-12039952D01*
X12140714Y-12020905D01*
X12140714Y-12011381D01*
X12131190Y-11992333D01*
X12112143Y-11982809D01*
X12083571Y-11982809D01*
X12064524Y-11973286D01*
X12055000Y-11954238D01*
X12055000Y-11944714D01*
X12064524Y-11925667D01*
X12083571Y-11916143D01*
X12112143Y-11916143D01*
X12131190Y-11925667D01*
X12207381Y-12125667D02*
X12216905Y-12116143D01*
X12235952Y-12087571D01*
X12245476Y-12068524D01*
X12255000Y-12039952D01*
X12264524Y-11992333D01*
X12264524Y-11954238D01*
X12255000Y-11906619D01*
X12245476Y-11878048D01*
X12235952Y-11859000D01*
X12216905Y-11830428D01*
X12207381Y-11820905D01*
D10*
X7195000Y-12173000D02*
X7195000Y-12273000D01*
X7145000Y-12223000D02*
X7245000Y-12223000D01*
D11*
X7607381Y-12313476D02*
X7493095Y-12313476D01*
X7550238Y-12313476D02*
X7550238Y-12113476D01*
X7531190Y-12142048D01*
X7512143Y-12161095D01*
X7493095Y-12170619D01*
X7693095Y-12294428D02*
X7702619Y-12303952D01*
X7693095Y-12313476D01*
X7683571Y-12303952D01*
X7693095Y-12294428D01*
X7693095Y-12313476D01*
X7826428Y-12113476D02*
X7845476Y-12113476D01*
X7864524Y-12123000D01*
X7874048Y-12132524D01*
X7883571Y-12151571D01*
X7893095Y-12189667D01*
X7893095Y-12237286D01*
X7883571Y-12275381D01*
X7874048Y-12294428D01*
X7864524Y-12303952D01*
X7845476Y-12313476D01*
X7826428Y-12313476D01*
X7807381Y-12303952D01*
X7797857Y-12294428D01*
X7788333Y-12275381D01*
X7778809Y-12237286D01*
X7778809Y-12189667D01*
X7788333Y-12151571D01*
X7797857Y-12132524D01*
X7807381Y-12123000D01*
X7826428Y-12113476D01*
X8016905Y-12113476D02*
X8035952Y-12113476D01*
X8055000Y-12123000D01*
X8064524Y-12132524D01*
X8074048Y-12151571D01*
X8083571Y-12189667D01*
X8083571Y-12237286D01*
X8074048Y-12275381D01*
X8064524Y-12294428D01*
X8055000Y-12303952D01*
X8035952Y-12313476D01*
X8016905Y-12313476D01*
X7997857Y-12303952D01*
X7988333Y-12294428D01*
X7978809Y-12275381D01*
X7969286Y-12237286D01*
X7969286Y-12189667D01*
X7978809Y-12151571D01*
X7988333Y-12132524D01*
X7997857Y-12123000D01*
X8016905Y-12113476D01*
X8207381Y-12113476D02*
X8226428Y-12113476D01*
X8245476Y-12123000D01*
X8255000Y-12132524D01*
X8264524Y-12151571D01*
X8274048Y-12189667D01*
X8274048Y-12237286D01*
X8264524Y-12275381D01*
X8255000Y-12294428D01*
X8245476Y-12303952D01*
X8226428Y-12313476D01*
X8207381Y-12313476D01*
X8188333Y-12303952D01*
X8178809Y-12294428D01*
X8169286Y-12275381D01*
X8159762Y-12237286D01*
X8159762Y-12189667D01*
X8169286Y-12151571D01*
X8178809Y-12132524D01*
X8188333Y-12123000D01*
X8207381Y-12113476D01*
X8359762Y-12313476D02*
X8359762Y-12180143D01*
X8359762Y-12199190D02*
X8369286Y-12189667D01*
X8388333Y-12180143D01*
X8416905Y-12180143D01*
X8435952Y-12189667D01*
X8445476Y-12208714D01*
X8445476Y-12313476D01*
X8445476Y-12208714D02*
X8455000Y-12189667D01*
X8474048Y-12180143D01*
X8502619Y-12180143D01*
X8521667Y-12189667D01*
X8531190Y-12208714D01*
X8531190Y-12313476D01*
X8626429Y-12313476D02*
X8626429Y-12180143D01*
X8626429Y-12199190D02*
X8635952Y-12189667D01*
X8655000Y-12180143D01*
X8683571Y-12180143D01*
X8702619Y-12189667D01*
X8712143Y-12208714D01*
X8712143Y-12313476D01*
X8712143Y-12208714D02*
X8721667Y-12189667D01*
X8740714Y-12180143D01*
X8769286Y-12180143D01*
X8788333Y-12189667D01*
X8797857Y-12208714D01*
X8797857Y-12313476D01*
X9188333Y-12103952D02*
X9016905Y-12361095D01*
X9445476Y-12113476D02*
X9464524Y-12113476D01*
X9483571Y-12123000D01*
X9493095Y-12132524D01*
X9502619Y-12151571D01*
X9512143Y-12189667D01*
X9512143Y-12237286D01*
X9502619Y-12275381D01*
X9493095Y-12294428D01*
X9483571Y-12303952D01*
X9464524Y-12313476D01*
X9445476Y-12313476D01*
X9426429Y-12303952D01*
X9416905Y-12294428D01*
X9407381Y-12275381D01*
X9397857Y-12237286D01*
X9397857Y-12189667D01*
X9407381Y-12151571D01*
X9416905Y-12132524D01*
X9426429Y-12123000D01*
X9445476Y-12113476D01*
X9597857Y-12294428D02*
X9607381Y-12303952D01*
X9597857Y-12313476D01*
X9588333Y-12303952D01*
X9597857Y-12294428D01*
X9597857Y-12313476D01*
X9731190Y-12113476D02*
X9750238Y-12113476D01*
X9769286Y-12123000D01*
X9778810Y-12132524D01*
X9788333Y-12151571D01*
X9797857Y-12189667D01*
X9797857Y-12237286D01*
X9788333Y-12275381D01*
X9778810Y-12294428D01*
X9769286Y-12303952D01*
X9750238Y-12313476D01*
X9731190Y-12313476D01*
X9712143Y-12303952D01*
X9702619Y-12294428D01*
X9693095Y-12275381D01*
X9683571Y-12237286D01*
X9683571Y-12189667D01*
X9693095Y-12151571D01*
X9702619Y-12132524D01*
X9712143Y-12123000D01*
X9731190Y-12113476D01*
X9864524Y-12113476D02*
X9988333Y-12113476D01*
X9921667Y-12189667D01*
X9950238Y-12189667D01*
X9969286Y-12199190D01*
X9978810Y-12208714D01*
X9988333Y-12227762D01*
X9988333Y-12275381D01*
X9978810Y-12294428D01*
X9969286Y-12303952D01*
X9950238Y-12313476D01*
X9893095Y-12313476D01*
X9874048Y-12303952D01*
X9864524Y-12294428D01*
X10083571Y-12313476D02*
X10121667Y-12313476D01*
X10140714Y-12303952D01*
X10150238Y-12294428D01*
X10169286Y-12265857D01*
X10178810Y-12227762D01*
X10178810Y-12151571D01*
X10169286Y-12132524D01*
X10159762Y-12123000D01*
X10140714Y-12113476D01*
X10102619Y-12113476D01*
X10083571Y-12123000D01*
X10074048Y-12132524D01*
X10064524Y-12151571D01*
X10064524Y-12199190D01*
X10074048Y-12218238D01*
X10083571Y-12227762D01*
X10102619Y-12237286D01*
X10140714Y-12237286D01*
X10159762Y-12227762D01*
X10169286Y-12218238D01*
X10178810Y-12199190D01*
X10350238Y-12180143D02*
X10350238Y-12313476D01*
X10302619Y-12103952D02*
X10255000Y-12246809D01*
X10378810Y-12246809D01*
X10445476Y-12113476D02*
X10445476Y-12151571D01*
X10521667Y-12113476D02*
X10521667Y-12151571D01*
X10816905Y-12389667D02*
X10807381Y-12380143D01*
X10788333Y-12351571D01*
X10778810Y-12332524D01*
X10769286Y-12303952D01*
X10759762Y-12256333D01*
X10759762Y-12218238D01*
X10769286Y-12170619D01*
X10778810Y-12142048D01*
X10788333Y-12123000D01*
X10807381Y-12094428D01*
X10816905Y-12084905D01*
X10883571Y-12132524D02*
X10893095Y-12123000D01*
X10912143Y-12113476D01*
X10959762Y-12113476D01*
X10978810Y-12123000D01*
X10988333Y-12132524D01*
X10997857Y-12151571D01*
X10997857Y-12170619D01*
X10988333Y-12199190D01*
X10874048Y-12313476D01*
X10997857Y-12313476D01*
X11188333Y-12313476D02*
X11074048Y-12313476D01*
X11131190Y-12313476D02*
X11131190Y-12113476D01*
X11112143Y-12142048D01*
X11093095Y-12161095D01*
X11074048Y-12170619D01*
X11426428Y-12313476D02*
X11426428Y-12113476D01*
X11512143Y-12313476D02*
X11512143Y-12208714D01*
X11502619Y-12189667D01*
X11483571Y-12180143D01*
X11455000Y-12180143D01*
X11435952Y-12189667D01*
X11426428Y-12199190D01*
X11635952Y-12313476D02*
X11616905Y-12303952D01*
X11607381Y-12294428D01*
X11597857Y-12275381D01*
X11597857Y-12218238D01*
X11607381Y-12199190D01*
X11616905Y-12189667D01*
X11635952Y-12180143D01*
X11664524Y-12180143D01*
X11683571Y-12189667D01*
X11693095Y-12199190D01*
X11702619Y-12218238D01*
X11702619Y-12275381D01*
X11693095Y-12294428D01*
X11683571Y-12303952D01*
X11664524Y-12313476D01*
X11635952Y-12313476D01*
X11816905Y-12313476D02*
X11797857Y-12303952D01*
X11788333Y-12284905D01*
X11788333Y-12113476D01*
X11969286Y-12303952D02*
X11950238Y-12313476D01*
X11912143Y-12313476D01*
X11893095Y-12303952D01*
X11883571Y-12284905D01*
X11883571Y-12208714D01*
X11893095Y-12189667D01*
X11912143Y-12180143D01*
X11950238Y-12180143D01*
X11969286Y-12189667D01*
X11978809Y-12208714D01*
X11978809Y-12227762D01*
X11883571Y-12246809D01*
X12055000Y-12303952D02*
X12074048Y-12313476D01*
X12112143Y-12313476D01*
X12131190Y-12303952D01*
X12140714Y-12284905D01*
X12140714Y-12275381D01*
X12131190Y-12256333D01*
X12112143Y-12246809D01*
X12083571Y-12246809D01*
X12064524Y-12237286D01*
X12055000Y-12218238D01*
X12055000Y-12208714D01*
X12064524Y-12189667D01*
X12083571Y-12180143D01*
X12112143Y-12180143D01*
X12131190Y-12189667D01*
X12207381Y-12389667D02*
X12216905Y-12380143D01*
X12235952Y-12351571D01*
X12245476Y-12332524D01*
X12255000Y-12303952D01*
X12264524Y-12256333D01*
X12264524Y-12218238D01*
X12255000Y-12170619D01*
X12245476Y-12142048D01*
X12235952Y-12123000D01*
X12216905Y-12094428D01*
X12207381Y-12084905D01*
D14*
X7229005Y-12525615D02*
X7229005Y-12448384D01*
X7151774Y-12448384D01*
X7151774Y-12525615D01*
X7229005Y-12525615D01*
D11*
X7607381Y-12577476D02*
X7493095Y-12577476D01*
X7550238Y-12577476D02*
X7550238Y-12377476D01*
X7531190Y-12406048D01*
X7512143Y-12425095D01*
X7493095Y-12434619D01*
X7693095Y-12558428D02*
X7702619Y-12567952D01*
X7693095Y-12577476D01*
X7683571Y-12567952D01*
X7693095Y-12558428D01*
X7693095Y-12577476D01*
X7826428Y-12377476D02*
X7845476Y-12377476D01*
X7864524Y-12387000D01*
X7874048Y-12396524D01*
X7883571Y-12415571D01*
X7893095Y-12453667D01*
X7893095Y-12501286D01*
X7883571Y-12539381D01*
X7874048Y-12558428D01*
X7864524Y-12567952D01*
X7845476Y-12577476D01*
X7826428Y-12577476D01*
X7807381Y-12567952D01*
X7797857Y-12558428D01*
X7788333Y-12539381D01*
X7778809Y-12501286D01*
X7778809Y-12453667D01*
X7788333Y-12415571D01*
X7797857Y-12396524D01*
X7807381Y-12387000D01*
X7826428Y-12377476D01*
X7988333Y-12577476D02*
X8026428Y-12577476D01*
X8045476Y-12567952D01*
X8055000Y-12558428D01*
X8074048Y-12529857D01*
X8083571Y-12491762D01*
X8083571Y-12415571D01*
X8074048Y-12396524D01*
X8064524Y-12387000D01*
X8045476Y-12377476D01*
X8007381Y-12377476D01*
X7988333Y-12387000D01*
X7978809Y-12396524D01*
X7969286Y-12415571D01*
X7969286Y-12463190D01*
X7978809Y-12482238D01*
X7988333Y-12491762D01*
X8007381Y-12501286D01*
X8045476Y-12501286D01*
X8064524Y-12491762D01*
X8074048Y-12482238D01*
X8083571Y-12463190D01*
X8159762Y-12396524D02*
X8169286Y-12387000D01*
X8188333Y-12377476D01*
X8235952Y-12377476D01*
X8255000Y-12387000D01*
X8264524Y-12396524D01*
X8274048Y-12415571D01*
X8274048Y-12434619D01*
X8264524Y-12463190D01*
X8150238Y-12577476D01*
X8274048Y-12577476D01*
X8359762Y-12577476D02*
X8359762Y-12444143D01*
X8359762Y-12463190D02*
X8369286Y-12453667D01*
X8388333Y-12444143D01*
X8416905Y-12444143D01*
X8435952Y-12453667D01*
X8445476Y-12472714D01*
X8445476Y-12577476D01*
X8445476Y-12472714D02*
X8455000Y-12453667D01*
X8474048Y-12444143D01*
X8502619Y-12444143D01*
X8521667Y-12453667D01*
X8531190Y-12472714D01*
X8531190Y-12577476D01*
X8626429Y-12577476D02*
X8626429Y-12444143D01*
X8626429Y-12463190D02*
X8635952Y-12453667D01*
X8655000Y-12444143D01*
X8683571Y-12444143D01*
X8702619Y-12453667D01*
X8712143Y-12472714D01*
X8712143Y-12577476D01*
X8712143Y-12472714D02*
X8721667Y-12453667D01*
X8740714Y-12444143D01*
X8769286Y-12444143D01*
X8788333Y-12453667D01*
X8797857Y-12472714D01*
X8797857Y-12577476D01*
X9188333Y-12367952D02*
X9016905Y-12625095D01*
X9445476Y-12377476D02*
X9464524Y-12377476D01*
X9483571Y-12387000D01*
X9493095Y-12396524D01*
X9502619Y-12415571D01*
X9512143Y-12453667D01*
X9512143Y-12501286D01*
X9502619Y-12539381D01*
X9493095Y-12558428D01*
X9483571Y-12567952D01*
X9464524Y-12577476D01*
X9445476Y-12577476D01*
X9426429Y-12567952D01*
X9416905Y-12558428D01*
X9407381Y-12539381D01*
X9397857Y-12501286D01*
X9397857Y-12453667D01*
X9407381Y-12415571D01*
X9416905Y-12396524D01*
X9426429Y-12387000D01*
X9445476Y-12377476D01*
X9597857Y-12558428D02*
X9607381Y-12567952D01*
X9597857Y-12577476D01*
X9588333Y-12567952D01*
X9597857Y-12558428D01*
X9597857Y-12577476D01*
X9731190Y-12377476D02*
X9750238Y-12377476D01*
X9769286Y-12387000D01*
X9778810Y-12396524D01*
X9788333Y-12415571D01*
X9797857Y-12453667D01*
X9797857Y-12501286D01*
X9788333Y-12539381D01*
X9778810Y-12558428D01*
X9769286Y-12567952D01*
X9750238Y-12577476D01*
X9731190Y-12577476D01*
X9712143Y-12567952D01*
X9702619Y-12558428D01*
X9693095Y-12539381D01*
X9683571Y-12501286D01*
X9683571Y-12453667D01*
X9693095Y-12415571D01*
X9702619Y-12396524D01*
X9712143Y-12387000D01*
X9731190Y-12377476D01*
X9969286Y-12444143D02*
X9969286Y-12577476D01*
X9921667Y-12367952D02*
X9874048Y-12510809D01*
X9997857Y-12510809D01*
X10055000Y-12377476D02*
X10178810Y-12377476D01*
X10112143Y-12453667D01*
X10140714Y-12453667D01*
X10159762Y-12463190D01*
X10169286Y-12472714D01*
X10178810Y-12491762D01*
X10178810Y-12539381D01*
X10169286Y-12558428D01*
X10159762Y-12567952D01*
X10140714Y-12577476D01*
X10083571Y-12577476D01*
X10064524Y-12567952D01*
X10055000Y-12558428D01*
X10302619Y-12377476D02*
X10321667Y-12377476D01*
X10340714Y-12387000D01*
X10350238Y-12396524D01*
X10359762Y-12415571D01*
X10369286Y-12453667D01*
X10369286Y-12501286D01*
X10359762Y-12539381D01*
X10350238Y-12558428D01*
X10340714Y-12567952D01*
X10321667Y-12577476D01*
X10302619Y-12577476D01*
X10283571Y-12567952D01*
X10274048Y-12558428D01*
X10264524Y-12539381D01*
X10255000Y-12501286D01*
X10255000Y-12453667D01*
X10264524Y-12415571D01*
X10274048Y-12396524D01*
X10283571Y-12387000D01*
X10302619Y-12377476D01*
X10445476Y-12377476D02*
X10445476Y-12415571D01*
X10521667Y-12377476D02*
X10521667Y-12415571D01*
X10816905Y-12653667D02*
X10807381Y-12644143D01*
X10788333Y-12615571D01*
X10778810Y-12596524D01*
X10769286Y-12567952D01*
X10759762Y-12520333D01*
X10759762Y-12482238D01*
X10769286Y-12434619D01*
X10778810Y-12406048D01*
X10788333Y-12387000D01*
X10807381Y-12358428D01*
X10816905Y-12348905D01*
X10883571Y-12396524D02*
X10893095Y-12387000D01*
X10912143Y-12377476D01*
X10959762Y-12377476D01*
X10978810Y-12387000D01*
X10988333Y-12396524D01*
X10997857Y-12415571D01*
X10997857Y-12434619D01*
X10988333Y-12463190D01*
X10874048Y-12577476D01*
X10997857Y-12577476D01*
X11169286Y-12444143D02*
X11169286Y-12577476D01*
X11121667Y-12367952D02*
X11074048Y-12510809D01*
X11197857Y-12510809D01*
X11426428Y-12577476D02*
X11426428Y-12377476D01*
X11512143Y-12577476D02*
X11512143Y-12472714D01*
X11502619Y-12453667D01*
X11483571Y-12444143D01*
X11455000Y-12444143D01*
X11435952Y-12453667D01*
X11426428Y-12463190D01*
X11635952Y-12577476D02*
X11616905Y-12567952D01*
X11607381Y-12558428D01*
X11597857Y-12539381D01*
X11597857Y-12482238D01*
X11607381Y-12463190D01*
X11616905Y-12453667D01*
X11635952Y-12444143D01*
X11664524Y-12444143D01*
X11683571Y-12453667D01*
X11693095Y-12463190D01*
X11702619Y-12482238D01*
X11702619Y-12539381D01*
X11693095Y-12558428D01*
X11683571Y-12567952D01*
X11664524Y-12577476D01*
X11635952Y-12577476D01*
X11816905Y-12577476D02*
X11797857Y-12567952D01*
X11788333Y-12548905D01*
X11788333Y-12377476D01*
X11969286Y-12567952D02*
X11950238Y-12577476D01*
X11912143Y-12577476D01*
X11893095Y-12567952D01*
X11883571Y-12548905D01*
X11883571Y-12472714D01*
X11893095Y-12453667D01*
X11912143Y-12444143D01*
X11950238Y-12444143D01*
X11969286Y-12453667D01*
X11978809Y-12472714D01*
X11978809Y-12491762D01*
X11883571Y-12510809D01*
X12055000Y-12567952D02*
X12074048Y-12577476D01*
X12112143Y-12577476D01*
X12131190Y-12567952D01*
X12140714Y-12548905D01*
X12140714Y-12539381D01*
X12131190Y-12520333D01*
X12112143Y-12510809D01*
X12083571Y-12510809D01*
X12064524Y-12501286D01*
X12055000Y-12482238D01*
X12055000Y-12472714D01*
X12064524Y-12453667D01*
X12083571Y-12444143D01*
X12112143Y-12444143D01*
X12131190Y-12453667D01*
X12207381Y-12653667D02*
X12216905Y-12644143D01*
X12235952Y-12615571D01*
X12245476Y-12596524D01*
X12255000Y-12567952D01*
X12264524Y-12520333D01*
X12264524Y-12482238D01*
X12255000Y-12434619D01*
X12245476Y-12406048D01*
X12235952Y-12387000D01*
X12216905Y-12358428D01*
X12207381Y-12348905D01*
D15*
X7190000Y-12806000D02*
X7245000Y-12751000D01*
X7190000Y-12696000D01*
X7135000Y-12751000D01*
X7190000Y-12806000D01*
D11*
X7607381Y-12841476D02*
X7493095Y-12841476D01*
X7550238Y-12841476D02*
X7550238Y-12641476D01*
X7531190Y-12670048D01*
X7512143Y-12689095D01*
X7493095Y-12698619D01*
X7693095Y-12822428D02*
X7702619Y-12831952D01*
X7693095Y-12841476D01*
X7683571Y-12831952D01*
X7693095Y-12822428D01*
X7693095Y-12841476D01*
X7893095Y-12841476D02*
X7778809Y-12841476D01*
X7835952Y-12841476D02*
X7835952Y-12641476D01*
X7816905Y-12670048D01*
X7797857Y-12689095D01*
X7778809Y-12698619D01*
X8016905Y-12641476D02*
X8035952Y-12641476D01*
X8055000Y-12651000D01*
X8064524Y-12660524D01*
X8074048Y-12679571D01*
X8083571Y-12717667D01*
X8083571Y-12765286D01*
X8074048Y-12803381D01*
X8064524Y-12822428D01*
X8055000Y-12831952D01*
X8035952Y-12841476D01*
X8016905Y-12841476D01*
X7997857Y-12831952D01*
X7988333Y-12822428D01*
X7978809Y-12803381D01*
X7969286Y-12765286D01*
X7969286Y-12717667D01*
X7978809Y-12679571D01*
X7988333Y-12660524D01*
X7997857Y-12651000D01*
X8016905Y-12641476D01*
X8207381Y-12641476D02*
X8226428Y-12641476D01*
X8245476Y-12651000D01*
X8255000Y-12660524D01*
X8264524Y-12679571D01*
X8274048Y-12717667D01*
X8274048Y-12765286D01*
X8264524Y-12803381D01*
X8255000Y-12822428D01*
X8245476Y-12831952D01*
X8226428Y-12841476D01*
X8207381Y-12841476D01*
X8188333Y-12831952D01*
X8178809Y-12822428D01*
X8169286Y-12803381D01*
X8159762Y-12765286D01*
X8159762Y-12717667D01*
X8169286Y-12679571D01*
X8178809Y-12660524D01*
X8188333Y-12651000D01*
X8207381Y-12641476D01*
X8359762Y-12841476D02*
X8359762Y-12708143D01*
X8359762Y-12727190D02*
X8369286Y-12717667D01*
X8388333Y-12708143D01*
X8416905Y-12708143D01*
X8435952Y-12717667D01*
X8445476Y-12736714D01*
X8445476Y-12841476D01*
X8445476Y-12736714D02*
X8455000Y-12717667D01*
X8474048Y-12708143D01*
X8502619Y-12708143D01*
X8521667Y-12717667D01*
X8531190Y-12736714D01*
X8531190Y-12841476D01*
X8626429Y-12841476D02*
X8626429Y-12708143D01*
X8626429Y-12727190D02*
X8635952Y-12717667D01*
X8655000Y-12708143D01*
X8683571Y-12708143D01*
X8702619Y-12717667D01*
X8712143Y-12736714D01*
X8712143Y-12841476D01*
X8712143Y-12736714D02*
X8721667Y-12717667D01*
X8740714Y-12708143D01*
X8769286Y-12708143D01*
X8788333Y-12717667D01*
X8797857Y-12736714D01*
X8797857Y-12841476D01*
X9188333Y-12631952D02*
X9016905Y-12889095D01*
X9445476Y-12641476D02*
X9464524Y-12641476D01*
X9483571Y-12651000D01*
X9493095Y-12660524D01*
X9502619Y-12679571D01*
X9512143Y-12717667D01*
X9512143Y-12765286D01*
X9502619Y-12803381D01*
X9493095Y-12822428D01*
X9483571Y-12831952D01*
X9464524Y-12841476D01*
X9445476Y-12841476D01*
X9426429Y-12831952D01*
X9416905Y-12822428D01*
X9407381Y-12803381D01*
X9397857Y-12765286D01*
X9397857Y-12717667D01*
X9407381Y-12679571D01*
X9416905Y-12660524D01*
X9426429Y-12651000D01*
X9445476Y-12641476D01*
X9597857Y-12822428D02*
X9607381Y-12831952D01*
X9597857Y-12841476D01*
X9588333Y-12831952D01*
X9597857Y-12822428D01*
X9597857Y-12841476D01*
X9731190Y-12641476D02*
X9750238Y-12641476D01*
X9769286Y-12651000D01*
X9778810Y-12660524D01*
X9788333Y-12679571D01*
X9797857Y-12717667D01*
X9797857Y-12765286D01*
X9788333Y-12803381D01*
X9778810Y-12822428D01*
X9769286Y-12831952D01*
X9750238Y-12841476D01*
X9731190Y-12841476D01*
X9712143Y-12831952D01*
X9702619Y-12822428D01*
X9693095Y-12803381D01*
X9683571Y-12765286D01*
X9683571Y-12717667D01*
X9693095Y-12679571D01*
X9702619Y-12660524D01*
X9712143Y-12651000D01*
X9731190Y-12641476D01*
X9969286Y-12708143D02*
X9969286Y-12841476D01*
X9921667Y-12631952D02*
X9874048Y-12774809D01*
X9997857Y-12774809D01*
X10055000Y-12641476D02*
X10178810Y-12641476D01*
X10112143Y-12717667D01*
X10140714Y-12717667D01*
X10159762Y-12727190D01*
X10169286Y-12736714D01*
X10178810Y-12755762D01*
X10178810Y-12803381D01*
X10169286Y-12822428D01*
X10159762Y-12831952D01*
X10140714Y-12841476D01*
X10083571Y-12841476D01*
X10064524Y-12831952D01*
X10055000Y-12822428D01*
X10245476Y-12641476D02*
X10369286Y-12641476D01*
X10302619Y-12717667D01*
X10331190Y-12717667D01*
X10350238Y-12727190D01*
X10359762Y-12736714D01*
X10369286Y-12755762D01*
X10369286Y-12803381D01*
X10359762Y-12822428D01*
X10350238Y-12831952D01*
X10331190Y-12841476D01*
X10274048Y-12841476D01*
X10255000Y-12831952D01*
X10245476Y-12822428D01*
X10445476Y-12641476D02*
X10445476Y-12679571D01*
X10521667Y-12641476D02*
X10521667Y-12679571D01*
X10816905Y-12917667D02*
X10807381Y-12908143D01*
X10788333Y-12879571D01*
X10778810Y-12860524D01*
X10769286Y-12831952D01*
X10759762Y-12784333D01*
X10759762Y-12746238D01*
X10769286Y-12698619D01*
X10778810Y-12670048D01*
X10788333Y-12651000D01*
X10807381Y-12622428D01*
X10816905Y-12612905D01*
X10978810Y-12641476D02*
X10940714Y-12641476D01*
X10921667Y-12651000D01*
X10912143Y-12660524D01*
X10893095Y-12689095D01*
X10883571Y-12727190D01*
X10883571Y-12803381D01*
X10893095Y-12822428D01*
X10902619Y-12831952D01*
X10921667Y-12841476D01*
X10959762Y-12841476D01*
X10978810Y-12831952D01*
X10988333Y-12822428D01*
X10997857Y-12803381D01*
X10997857Y-12755762D01*
X10988333Y-12736714D01*
X10978810Y-12727190D01*
X10959762Y-12717667D01*
X10921667Y-12717667D01*
X10902619Y-12727190D01*
X10893095Y-12736714D01*
X10883571Y-12755762D01*
X11235952Y-12841476D02*
X11235952Y-12641476D01*
X11321667Y-12841476D02*
X11321667Y-12736714D01*
X11312143Y-12717667D01*
X11293095Y-12708143D01*
X11264524Y-12708143D01*
X11245476Y-12717667D01*
X11235952Y-12727190D01*
X11445476Y-12841476D02*
X11426428Y-12831952D01*
X11416905Y-12822428D01*
X11407381Y-12803381D01*
X11407381Y-12746238D01*
X11416905Y-12727190D01*
X11426428Y-12717667D01*
X11445476Y-12708143D01*
X11474048Y-12708143D01*
X11493095Y-12717667D01*
X11502619Y-12727190D01*
X11512143Y-12746238D01*
X11512143Y-12803381D01*
X11502619Y-12822428D01*
X11493095Y-12831952D01*
X11474048Y-12841476D01*
X11445476Y-12841476D01*
X11626428Y-12841476D02*
X11607381Y-12831952D01*
X11597857Y-12812905D01*
X11597857Y-12641476D01*
X11778809Y-12831952D02*
X11759762Y-12841476D01*
X11721667Y-12841476D01*
X11702619Y-12831952D01*
X11693095Y-12812905D01*
X11693095Y-12736714D01*
X11702619Y-12717667D01*
X11721667Y-12708143D01*
X11759762Y-12708143D01*
X11778809Y-12717667D01*
X11788333Y-12736714D01*
X11788333Y-12755762D01*
X11693095Y-12774809D01*
X11864524Y-12831952D02*
X11883571Y-12841476D01*
X11921667Y-12841476D01*
X11940714Y-12831952D01*
X11950238Y-12812905D01*
X11950238Y-12803381D01*
X11940714Y-12784333D01*
X11921667Y-12774809D01*
X11893095Y-12774809D01*
X11874048Y-12765286D01*
X11864524Y-12746238D01*
X11864524Y-12736714D01*
X11874048Y-12717667D01*
X11893095Y-12708143D01*
X11921667Y-12708143D01*
X11940714Y-12717667D01*
X12016905Y-12917667D02*
X12026428Y-12908143D01*
X12045476Y-12879571D01*
X12055000Y-12860524D01*
X12064524Y-12831952D01*
X12074048Y-12784333D01*
X12074048Y-12746238D01*
X12064524Y-12698619D01*
X12055000Y-12670048D01*
X12045476Y-12651000D01*
X12026428Y-12622428D01*
X12016905Y-12612905D01*
D16*
X7115000Y-12950000D02*
X7245000Y-13080000D01*
X7245000Y-12950000D02*
X7115000Y-13080000D01*
X7245000Y-13015000D02*
G75*
G03*
X7245000Y-13015000I-65000J0D01*
G01*
D11*
X7607381Y-13105476D02*
X7493095Y-13105476D01*
X7550238Y-13105476D02*
X7550238Y-12905476D01*
X7531190Y-12934048D01*
X7512143Y-12953095D01*
X7493095Y-12962619D01*
X7693095Y-13086428D02*
X7702619Y-13095952D01*
X7693095Y-13105476D01*
X7683571Y-13095952D01*
X7693095Y-13086428D01*
X7693095Y-13105476D01*
X7769286Y-12905476D02*
X7893095Y-12905476D01*
X7826428Y-12981667D01*
X7855000Y-12981667D01*
X7874048Y-12991190D01*
X7883571Y-13000714D01*
X7893095Y-13019762D01*
X7893095Y-13067381D01*
X7883571Y-13086428D01*
X7874048Y-13095952D01*
X7855000Y-13105476D01*
X7797857Y-13105476D01*
X7778809Y-13095952D01*
X7769286Y-13086428D01*
X8016905Y-12905476D02*
X8035952Y-12905476D01*
X8055000Y-12915000D01*
X8064524Y-12924524D01*
X8074048Y-12943571D01*
X8083571Y-12981667D01*
X8083571Y-13029286D01*
X8074048Y-13067381D01*
X8064524Y-13086428D01*
X8055000Y-13095952D01*
X8035952Y-13105476D01*
X8016905Y-13105476D01*
X7997857Y-13095952D01*
X7988333Y-13086428D01*
X7978809Y-13067381D01*
X7969286Y-13029286D01*
X7969286Y-12981667D01*
X7978809Y-12943571D01*
X7988333Y-12924524D01*
X7997857Y-12915000D01*
X8016905Y-12905476D01*
X8207381Y-12905476D02*
X8226428Y-12905476D01*
X8245476Y-12915000D01*
X8255000Y-12924524D01*
X8264524Y-12943571D01*
X8274048Y-12981667D01*
X8274048Y-13029286D01*
X8264524Y-13067381D01*
X8255000Y-13086428D01*
X8245476Y-13095952D01*
X8226428Y-13105476D01*
X8207381Y-13105476D01*
X8188333Y-13095952D01*
X8178809Y-13086428D01*
X8169286Y-13067381D01*
X8159762Y-13029286D01*
X8159762Y-12981667D01*
X8169286Y-12943571D01*
X8178809Y-12924524D01*
X8188333Y-12915000D01*
X8207381Y-12905476D01*
X8359762Y-13105476D02*
X8359762Y-12972143D01*
X8359762Y-12991190D02*
X8369286Y-12981667D01*
X8388333Y-12972143D01*
X8416905Y-12972143D01*
X8435952Y-12981667D01*
X8445476Y-13000714D01*
X8445476Y-13105476D01*
X8445476Y-13000714D02*
X8455000Y-12981667D01*
X8474048Y-12972143D01*
X8502619Y-12972143D01*
X8521667Y-12981667D01*
X8531190Y-13000714D01*
X8531190Y-13105476D01*
X8626429Y-13105476D02*
X8626429Y-12972143D01*
X8626429Y-12991190D02*
X8635952Y-12981667D01*
X8655000Y-12972143D01*
X8683571Y-12972143D01*
X8702619Y-12981667D01*
X8712143Y-13000714D01*
X8712143Y-13105476D01*
X8712143Y-13000714D02*
X8721667Y-12981667D01*
X8740714Y-12972143D01*
X8769286Y-12972143D01*
X8788333Y-12981667D01*
X8797857Y-13000714D01*
X8797857Y-13105476D01*
X9188333Y-12895952D02*
X9016905Y-13153095D01*
X9445476Y-12905476D02*
X9464524Y-12905476D01*
X9483571Y-12915000D01*
X9493095Y-12924524D01*
X9502619Y-12943571D01*
X9512143Y-12981667D01*
X9512143Y-13029286D01*
X9502619Y-13067381D01*
X9493095Y-13086428D01*
X9483571Y-13095952D01*
X9464524Y-13105476D01*
X9445476Y-13105476D01*
X9426429Y-13095952D01*
X9416905Y-13086428D01*
X9407381Y-13067381D01*
X9397857Y-13029286D01*
X9397857Y-12981667D01*
X9407381Y-12943571D01*
X9416905Y-12924524D01*
X9426429Y-12915000D01*
X9445476Y-12905476D01*
X9597857Y-13086428D02*
X9607381Y-13095952D01*
X9597857Y-13105476D01*
X9588333Y-13095952D01*
X9597857Y-13086428D01*
X9597857Y-13105476D01*
X9731190Y-12905476D02*
X9750238Y-12905476D01*
X9769286Y-12915000D01*
X9778810Y-12924524D01*
X9788333Y-12943571D01*
X9797857Y-12981667D01*
X9797857Y-13029286D01*
X9788333Y-13067381D01*
X9778810Y-13086428D01*
X9769286Y-13095952D01*
X9750238Y-13105476D01*
X9731190Y-13105476D01*
X9712143Y-13095952D01*
X9702619Y-13086428D01*
X9693095Y-13067381D01*
X9683571Y-13029286D01*
X9683571Y-12981667D01*
X9693095Y-12943571D01*
X9702619Y-12924524D01*
X9712143Y-12915000D01*
X9731190Y-12905476D01*
X9978810Y-12905476D02*
X9883571Y-12905476D01*
X9874048Y-13000714D01*
X9883571Y-12991190D01*
X9902619Y-12981667D01*
X9950238Y-12981667D01*
X9969286Y-12991190D01*
X9978810Y-13000714D01*
X9988333Y-13019762D01*
X9988333Y-13067381D01*
X9978810Y-13086428D01*
X9969286Y-13095952D01*
X9950238Y-13105476D01*
X9902619Y-13105476D01*
X9883571Y-13095952D01*
X9874048Y-13086428D01*
X10178810Y-13105476D02*
X10064524Y-13105476D01*
X10121667Y-13105476D02*
X10121667Y-12905476D01*
X10102619Y-12934048D01*
X10083571Y-12953095D01*
X10064524Y-12962619D01*
X10255000Y-12924524D02*
X10264524Y-12915000D01*
X10283571Y-12905476D01*
X10331190Y-12905476D01*
X10350238Y-12915000D01*
X10359762Y-12924524D01*
X10369286Y-12943571D01*
X10369286Y-12962619D01*
X10359762Y-12991190D01*
X10245476Y-13105476D01*
X10369286Y-13105476D01*
X10445476Y-12905476D02*
X10445476Y-12943571D01*
X10521667Y-12905476D02*
X10521667Y-12943571D01*
X10816905Y-13181667D02*
X10807381Y-13172143D01*
X10788333Y-13143571D01*
X10778810Y-13124524D01*
X10769286Y-13095952D01*
X10759762Y-13048333D01*
X10759762Y-13010238D01*
X10769286Y-12962619D01*
X10778810Y-12934048D01*
X10788333Y-12915000D01*
X10807381Y-12886428D01*
X10816905Y-12876905D01*
X10978810Y-12972143D02*
X10978810Y-13105476D01*
X10931190Y-12895952D02*
X10883571Y-13038809D01*
X11007381Y-13038809D01*
X11235952Y-13105476D02*
X11235952Y-12905476D01*
X11321667Y-13105476D02*
X11321667Y-13000714D01*
X11312143Y-12981667D01*
X11293095Y-12972143D01*
X11264524Y-12972143D01*
X11245476Y-12981667D01*
X11235952Y-12991190D01*
X11445476Y-13105476D02*
X11426428Y-13095952D01*
X11416905Y-13086428D01*
X11407381Y-13067381D01*
X11407381Y-13010238D01*
X11416905Y-12991190D01*
X11426428Y-12981667D01*
X11445476Y-12972143D01*
X11474048Y-12972143D01*
X11493095Y-12981667D01*
X11502619Y-12991190D01*
X11512143Y-13010238D01*
X11512143Y-13067381D01*
X11502619Y-13086428D01*
X11493095Y-13095952D01*
X11474048Y-13105476D01*
X11445476Y-13105476D01*
X11626428Y-13105476D02*
X11607381Y-13095952D01*
X11597857Y-13076905D01*
X11597857Y-12905476D01*
X11778809Y-13095952D02*
X11759762Y-13105476D01*
X11721667Y-13105476D01*
X11702619Y-13095952D01*
X11693095Y-13076905D01*
X11693095Y-13000714D01*
X11702619Y-12981667D01*
X11721667Y-12972143D01*
X11759762Y-12972143D01*
X11778809Y-12981667D01*
X11788333Y-13000714D01*
X11788333Y-13019762D01*
X11693095Y-13038809D01*
X11864524Y-13095952D02*
X11883571Y-13105476D01*
X11921667Y-13105476D01*
X11940714Y-13095952D01*
X11950238Y-13076905D01*
X11950238Y-13067381D01*
X11940714Y-13048333D01*
X11921667Y-13038809D01*
X11893095Y-13038809D01*
X11874048Y-13029286D01*
X11864524Y-13010238D01*
X11864524Y-13000714D01*
X11874048Y-12981667D01*
X11893095Y-12972143D01*
X11921667Y-12972143D01*
X11940714Y-12981667D01*
X12016905Y-13181667D02*
X12026428Y-13172143D01*
X12045476Y-13143571D01*
X12055000Y-13124524D01*
X12064524Y-13095952D01*
X12074048Y-13048333D01*
X12074048Y-13010238D01*
X12064524Y-12962619D01*
X12055000Y-12934048D01*
X12045476Y-12915000D01*
X12026428Y-12886428D01*
X12016905Y-12876905D01*
D17*
X7095140Y-13204070D02*
X7245000Y-13353930D01*
X7245000Y-13204070D02*
X7095140Y-13353930D01*
X7170070Y-13204070D02*
X7170070Y-13353930D01*
X7095140Y-13279000D02*
X7245000Y-13279000D01*
D11*
X7607381Y-13369476D02*
X7493095Y-13369476D01*
X7550238Y-13369476D02*
X7550238Y-13169476D01*
X7531190Y-13198048D01*
X7512143Y-13217095D01*
X7493095Y-13226619D01*
X7693095Y-13350428D02*
X7702619Y-13359952D01*
X7693095Y-13369476D01*
X7683571Y-13359952D01*
X7693095Y-13350428D01*
X7693095Y-13369476D01*
X7874048Y-13236143D02*
X7874048Y-13369476D01*
X7826428Y-13159952D02*
X7778809Y-13302809D01*
X7902619Y-13302809D01*
X7988333Y-13369476D02*
X8026428Y-13369476D01*
X8045476Y-13359952D01*
X8055000Y-13350428D01*
X8074048Y-13321857D01*
X8083571Y-13283762D01*
X8083571Y-13207571D01*
X8074048Y-13188524D01*
X8064524Y-13179000D01*
X8045476Y-13169476D01*
X8007381Y-13169476D01*
X7988333Y-13179000D01*
X7978809Y-13188524D01*
X7969286Y-13207571D01*
X7969286Y-13255190D01*
X7978809Y-13274238D01*
X7988333Y-13283762D01*
X8007381Y-13293286D01*
X8045476Y-13293286D01*
X8064524Y-13283762D01*
X8074048Y-13274238D01*
X8083571Y-13255190D01*
X8178809Y-13369476D02*
X8216905Y-13369476D01*
X8235952Y-13359952D01*
X8245476Y-13350428D01*
X8264524Y-13321857D01*
X8274048Y-13283762D01*
X8274048Y-13207571D01*
X8264524Y-13188524D01*
X8255000Y-13179000D01*
X8235952Y-13169476D01*
X8197857Y-13169476D01*
X8178809Y-13179000D01*
X8169286Y-13188524D01*
X8159762Y-13207571D01*
X8159762Y-13255190D01*
X8169286Y-13274238D01*
X8178809Y-13283762D01*
X8197857Y-13293286D01*
X8235952Y-13293286D01*
X8255000Y-13283762D01*
X8264524Y-13274238D01*
X8274048Y-13255190D01*
X8359762Y-13369476D02*
X8359762Y-13236143D01*
X8359762Y-13255190D02*
X8369286Y-13245667D01*
X8388333Y-13236143D01*
X8416905Y-13236143D01*
X8435952Y-13245667D01*
X8445476Y-13264714D01*
X8445476Y-13369476D01*
X8445476Y-13264714D02*
X8455000Y-13245667D01*
X8474048Y-13236143D01*
X8502619Y-13236143D01*
X8521667Y-13245667D01*
X8531190Y-13264714D01*
X8531190Y-13369476D01*
X8626429Y-13369476D02*
X8626429Y-13236143D01*
X8626429Y-13255190D02*
X8635952Y-13245667D01*
X8655000Y-13236143D01*
X8683571Y-13236143D01*
X8702619Y-13245667D01*
X8712143Y-13264714D01*
X8712143Y-13369476D01*
X8712143Y-13264714D02*
X8721667Y-13245667D01*
X8740714Y-13236143D01*
X8769286Y-13236143D01*
X8788333Y-13245667D01*
X8797857Y-13264714D01*
X8797857Y-13369476D01*
X9188333Y-13159952D02*
X9016905Y-13417095D01*
X9445476Y-13169476D02*
X9464524Y-13169476D01*
X9483571Y-13179000D01*
X9493095Y-13188524D01*
X9502619Y-13207571D01*
X9512143Y-13245667D01*
X9512143Y-13293286D01*
X9502619Y-13331381D01*
X9493095Y-13350428D01*
X9483571Y-13359952D01*
X9464524Y-13369476D01*
X9445476Y-13369476D01*
X9426429Y-13359952D01*
X9416905Y-13350428D01*
X9407381Y-13331381D01*
X9397857Y-13293286D01*
X9397857Y-13245667D01*
X9407381Y-13207571D01*
X9416905Y-13188524D01*
X9426429Y-13179000D01*
X9445476Y-13169476D01*
X9597857Y-13350428D02*
X9607381Y-13359952D01*
X9597857Y-13369476D01*
X9588333Y-13359952D01*
X9597857Y-13350428D01*
X9597857Y-13369476D01*
X9731190Y-13169476D02*
X9750238Y-13169476D01*
X9769286Y-13179000D01*
X9778810Y-13188524D01*
X9788333Y-13207571D01*
X9797857Y-13245667D01*
X9797857Y-13293286D01*
X9788333Y-13331381D01*
X9778810Y-13350428D01*
X9769286Y-13359952D01*
X9750238Y-13369476D01*
X9731190Y-13369476D01*
X9712143Y-13359952D01*
X9702619Y-13350428D01*
X9693095Y-13331381D01*
X9683571Y-13293286D01*
X9683571Y-13245667D01*
X9693095Y-13207571D01*
X9702619Y-13188524D01*
X9712143Y-13179000D01*
X9731190Y-13169476D01*
X9978810Y-13169476D02*
X9883571Y-13169476D01*
X9874048Y-13264714D01*
X9883571Y-13255190D01*
X9902619Y-13245667D01*
X9950238Y-13245667D01*
X9969286Y-13255190D01*
X9978810Y-13264714D01*
X9988333Y-13283762D01*
X9988333Y-13331381D01*
X9978810Y-13350428D01*
X9969286Y-13359952D01*
X9950238Y-13369476D01*
X9902619Y-13369476D01*
X9883571Y-13359952D01*
X9874048Y-13350428D01*
X10083571Y-13369476D02*
X10121667Y-13369476D01*
X10140714Y-13359952D01*
X10150238Y-13350428D01*
X10169286Y-13321857D01*
X10178810Y-13283762D01*
X10178810Y-13207571D01*
X10169286Y-13188524D01*
X10159762Y-13179000D01*
X10140714Y-13169476D01*
X10102619Y-13169476D01*
X10083571Y-13179000D01*
X10074048Y-13188524D01*
X10064524Y-13207571D01*
X10064524Y-13255190D01*
X10074048Y-13274238D01*
X10083571Y-13283762D01*
X10102619Y-13293286D01*
X10140714Y-13293286D01*
X10159762Y-13283762D01*
X10169286Y-13274238D01*
X10178810Y-13255190D01*
X10302619Y-13169476D02*
X10321667Y-13169476D01*
X10340714Y-13179000D01*
X10350238Y-13188524D01*
X10359762Y-13207571D01*
X10369286Y-13245667D01*
X10369286Y-13293286D01*
X10359762Y-13331381D01*
X10350238Y-13350428D01*
X10340714Y-13359952D01*
X10321667Y-13369476D01*
X10302619Y-13369476D01*
X10283571Y-13359952D01*
X10274048Y-13350428D01*
X10264524Y-13331381D01*
X10255000Y-13293286D01*
X10255000Y-13245667D01*
X10264524Y-13207571D01*
X10274048Y-13188524D01*
X10283571Y-13179000D01*
X10302619Y-13169476D01*
X10445476Y-13169476D02*
X10445476Y-13207571D01*
X10521667Y-13169476D02*
X10521667Y-13207571D01*
X10816905Y-13445667D02*
X10807381Y-13436143D01*
X10788333Y-13407571D01*
X10778810Y-13388524D01*
X10769286Y-13359952D01*
X10759762Y-13312333D01*
X10759762Y-13274238D01*
X10769286Y-13226619D01*
X10778810Y-13198048D01*
X10788333Y-13179000D01*
X10807381Y-13150428D01*
X10816905Y-13140905D01*
X10978810Y-13169476D02*
X10940714Y-13169476D01*
X10921667Y-13179000D01*
X10912143Y-13188524D01*
X10893095Y-13217095D01*
X10883571Y-13255190D01*
X10883571Y-13331381D01*
X10893095Y-13350428D01*
X10902619Y-13359952D01*
X10921667Y-13369476D01*
X10959762Y-13369476D01*
X10978810Y-13359952D01*
X10988333Y-13350428D01*
X10997857Y-13331381D01*
X10997857Y-13283762D01*
X10988333Y-13264714D01*
X10978810Y-13255190D01*
X10959762Y-13245667D01*
X10921667Y-13245667D01*
X10902619Y-13255190D01*
X10893095Y-13264714D01*
X10883571Y-13283762D01*
X11121667Y-13169476D02*
X11140714Y-13169476D01*
X11159762Y-13179000D01*
X11169286Y-13188524D01*
X11178810Y-13207571D01*
X11188333Y-13245667D01*
X11188333Y-13293286D01*
X11178810Y-13331381D01*
X11169286Y-13350428D01*
X11159762Y-13359952D01*
X11140714Y-13369476D01*
X11121667Y-13369476D01*
X11102619Y-13359952D01*
X11093095Y-13350428D01*
X11083571Y-13331381D01*
X11074048Y-13293286D01*
X11074048Y-13245667D01*
X11083571Y-13207571D01*
X11093095Y-13188524D01*
X11102619Y-13179000D01*
X11121667Y-13169476D01*
X11426428Y-13369476D02*
X11426428Y-13169476D01*
X11512143Y-13369476D02*
X11512143Y-13264714D01*
X11502619Y-13245667D01*
X11483571Y-13236143D01*
X11455000Y-13236143D01*
X11435952Y-13245667D01*
X11426428Y-13255190D01*
X11635952Y-13369476D02*
X11616905Y-13359952D01*
X11607381Y-13350428D01*
X11597857Y-13331381D01*
X11597857Y-13274238D01*
X11607381Y-13255190D01*
X11616905Y-13245667D01*
X11635952Y-13236143D01*
X11664524Y-13236143D01*
X11683571Y-13245667D01*
X11693095Y-13255190D01*
X11702619Y-13274238D01*
X11702619Y-13331381D01*
X11693095Y-13350428D01*
X11683571Y-13359952D01*
X11664524Y-13369476D01*
X11635952Y-13369476D01*
X11816905Y-13369476D02*
X11797857Y-13359952D01*
X11788333Y-13340905D01*
X11788333Y-13169476D01*
X11969286Y-13359952D02*
X11950238Y-13369476D01*
X11912143Y-13369476D01*
X11893095Y-13359952D01*
X11883571Y-13340905D01*
X11883571Y-13264714D01*
X11893095Y-13245667D01*
X11912143Y-13236143D01*
X11950238Y-13236143D01*
X11969286Y-13245667D01*
X11978809Y-13264714D01*
X11978809Y-13283762D01*
X11883571Y-13302809D01*
X12055000Y-13359952D02*
X12074048Y-13369476D01*
X12112143Y-13369476D01*
X12131190Y-13359952D01*
X12140714Y-13340905D01*
X12140714Y-13331381D01*
X12131190Y-13312333D01*
X12112143Y-13302809D01*
X12083571Y-13302809D01*
X12064524Y-13293286D01*
X12055000Y-13274238D01*
X12055000Y-13264714D01*
X12064524Y-13245667D01*
X12083571Y-13236143D01*
X12112143Y-13236143D01*
X12131190Y-13245667D01*
X12207381Y-13445667D02*
X12216905Y-13436143D01*
X12235952Y-13407571D01*
X12245476Y-13388524D01*
X12255000Y-13359952D01*
X12264524Y-13312333D01*
X12264524Y-13274238D01*
X12255000Y-13226619D01*
X12245476Y-13198048D01*
X12235952Y-13179000D01*
X12216905Y-13150428D01*
X12207381Y-13140905D01*
D18*
X7095000Y-13473860D02*
X7245000Y-13623860D01*
X7245000Y-13473860D02*
X7095000Y-13623860D01*
X7223033Y-13601893D02*
X7223033Y-13495826D01*
X7116966Y-13495826D01*
X7116966Y-13601893D01*
X7223033Y-13601893D01*
D11*
X7607381Y-13639336D02*
X7493095Y-13639336D01*
X7550238Y-13639336D02*
X7550238Y-13439336D01*
X7531190Y-13467908D01*
X7512143Y-13486955D01*
X7493095Y-13496479D01*
X7693095Y-13620288D02*
X7702619Y-13629812D01*
X7693095Y-13639336D01*
X7683571Y-13629812D01*
X7693095Y-13620288D01*
X7693095Y-13639336D01*
X7883571Y-13439336D02*
X7788333Y-13439336D01*
X7778809Y-13534574D01*
X7788333Y-13525050D01*
X7807381Y-13515527D01*
X7855000Y-13515527D01*
X7874048Y-13525050D01*
X7883571Y-13534574D01*
X7893095Y-13553622D01*
X7893095Y-13601241D01*
X7883571Y-13620288D01*
X7874048Y-13629812D01*
X7855000Y-13639336D01*
X7807381Y-13639336D01*
X7788333Y-13629812D01*
X7778809Y-13620288D01*
X8016905Y-13439336D02*
X8035952Y-13439336D01*
X8055000Y-13448860D01*
X8064524Y-13458384D01*
X8074048Y-13477431D01*
X8083571Y-13515527D01*
X8083571Y-13563146D01*
X8074048Y-13601241D01*
X8064524Y-13620288D01*
X8055000Y-13629812D01*
X8035952Y-13639336D01*
X8016905Y-13639336D01*
X7997857Y-13629812D01*
X7988333Y-13620288D01*
X7978809Y-13601241D01*
X7969286Y-13563146D01*
X7969286Y-13515527D01*
X7978809Y-13477431D01*
X7988333Y-13458384D01*
X7997857Y-13448860D01*
X8016905Y-13439336D01*
X8207381Y-13439336D02*
X8226428Y-13439336D01*
X8245476Y-13448860D01*
X8255000Y-13458384D01*
X8264524Y-13477431D01*
X8274048Y-13515527D01*
X8274048Y-13563146D01*
X8264524Y-13601241D01*
X8255000Y-13620288D01*
X8245476Y-13629812D01*
X8226428Y-13639336D01*
X8207381Y-13639336D01*
X8188333Y-13629812D01*
X8178809Y-13620288D01*
X8169286Y-13601241D01*
X8159762Y-13563146D01*
X8159762Y-13515527D01*
X8169286Y-13477431D01*
X8178809Y-13458384D01*
X8188333Y-13448860D01*
X8207381Y-13439336D01*
X8359762Y-13639336D02*
X8359762Y-13506003D01*
X8359762Y-13525050D02*
X8369286Y-13515527D01*
X8388333Y-13506003D01*
X8416905Y-13506003D01*
X8435952Y-13515527D01*
X8445476Y-13534574D01*
X8445476Y-13639336D01*
X8445476Y-13534574D02*
X8455000Y-13515527D01*
X8474048Y-13506003D01*
X8502619Y-13506003D01*
X8521667Y-13515527D01*
X8531190Y-13534574D01*
X8531190Y-13639336D01*
X8626429Y-13639336D02*
X8626429Y-13506003D01*
X8626429Y-13525050D02*
X8635952Y-13515527D01*
X8655000Y-13506003D01*
X8683571Y-13506003D01*
X8702619Y-13515527D01*
X8712143Y-13534574D01*
X8712143Y-13639336D01*
X8712143Y-13534574D02*
X8721667Y-13515527D01*
X8740714Y-13506003D01*
X8769286Y-13506003D01*
X8788333Y-13515527D01*
X8797857Y-13534574D01*
X8797857Y-13639336D01*
X9188333Y-13429812D02*
X9016905Y-13686955D01*
X9445476Y-13439336D02*
X9464524Y-13439336D01*
X9483571Y-13448860D01*
X9493095Y-13458384D01*
X9502619Y-13477431D01*
X9512143Y-13515527D01*
X9512143Y-13563146D01*
X9502619Y-13601241D01*
X9493095Y-13620288D01*
X9483571Y-13629812D01*
X9464524Y-13639336D01*
X9445476Y-13639336D01*
X9426429Y-13629812D01*
X9416905Y-13620288D01*
X9407381Y-13601241D01*
X9397857Y-13563146D01*
X9397857Y-13515527D01*
X9407381Y-13477431D01*
X9416905Y-13458384D01*
X9426429Y-13448860D01*
X9445476Y-13439336D01*
X9597857Y-13620288D02*
X9607381Y-13629812D01*
X9597857Y-13639336D01*
X9588333Y-13629812D01*
X9597857Y-13620288D01*
X9597857Y-13639336D01*
X9731190Y-13439336D02*
X9750238Y-13439336D01*
X9769286Y-13448860D01*
X9778810Y-13458384D01*
X9788333Y-13477431D01*
X9797857Y-13515527D01*
X9797857Y-13563146D01*
X9788333Y-13601241D01*
X9778810Y-13620288D01*
X9769286Y-13629812D01*
X9750238Y-13639336D01*
X9731190Y-13639336D01*
X9712143Y-13629812D01*
X9702619Y-13620288D01*
X9693095Y-13601241D01*
X9683571Y-13563146D01*
X9683571Y-13515527D01*
X9693095Y-13477431D01*
X9702619Y-13458384D01*
X9712143Y-13448860D01*
X9731190Y-13439336D01*
X9978810Y-13439336D02*
X9883571Y-13439336D01*
X9874048Y-13534574D01*
X9883571Y-13525050D01*
X9902619Y-13515527D01*
X9950238Y-13515527D01*
X9969286Y-13525050D01*
X9978810Y-13534574D01*
X9988333Y-13553622D01*
X9988333Y-13601241D01*
X9978810Y-13620288D01*
X9969286Y-13629812D01*
X9950238Y-13639336D01*
X9902619Y-13639336D01*
X9883571Y-13629812D01*
X9874048Y-13620288D01*
X10083571Y-13639336D02*
X10121667Y-13639336D01*
X10140714Y-13629812D01*
X10150238Y-13620288D01*
X10169286Y-13591717D01*
X10178810Y-13553622D01*
X10178810Y-13477431D01*
X10169286Y-13458384D01*
X10159762Y-13448860D01*
X10140714Y-13439336D01*
X10102619Y-13439336D01*
X10083571Y-13448860D01*
X10074048Y-13458384D01*
X10064524Y-13477431D01*
X10064524Y-13525050D01*
X10074048Y-13544098D01*
X10083571Y-13553622D01*
X10102619Y-13563146D01*
X10140714Y-13563146D01*
X10159762Y-13553622D01*
X10169286Y-13544098D01*
X10178810Y-13525050D01*
X10369286Y-13639336D02*
X10255000Y-13639336D01*
X10312143Y-13639336D02*
X10312143Y-13439336D01*
X10293095Y-13467908D01*
X10274048Y-13486955D01*
X10255000Y-13496479D01*
X10445476Y-13439336D02*
X10445476Y-13477431D01*
X10521667Y-13439336D02*
X10521667Y-13477431D01*
X10816905Y-13715527D02*
X10807381Y-13706003D01*
X10788333Y-13677431D01*
X10778810Y-13658384D01*
X10769286Y-13629812D01*
X10759762Y-13582193D01*
X10759762Y-13544098D01*
X10769286Y-13496479D01*
X10778810Y-13467908D01*
X10788333Y-13448860D01*
X10807381Y-13420288D01*
X10816905Y-13410765D01*
X10883571Y-13458384D02*
X10893095Y-13448860D01*
X10912143Y-13439336D01*
X10959762Y-13439336D01*
X10978810Y-13448860D01*
X10988333Y-13458384D01*
X10997857Y-13477431D01*
X10997857Y-13496479D01*
X10988333Y-13525050D01*
X10874048Y-13639336D01*
X10997857Y-13639336D01*
X11235952Y-13639336D02*
X11235952Y-13439336D01*
X11321667Y-13639336D02*
X11321667Y-13534574D01*
X11312143Y-13515527D01*
X11293095Y-13506003D01*
X11264524Y-13506003D01*
X11245476Y-13515527D01*
X11235952Y-13525050D01*
X11445476Y-13639336D02*
X11426428Y-13629812D01*
X11416905Y-13620288D01*
X11407381Y-13601241D01*
X11407381Y-13544098D01*
X11416905Y-13525050D01*
X11426428Y-13515527D01*
X11445476Y-13506003D01*
X11474048Y-13506003D01*
X11493095Y-13515527D01*
X11502619Y-13525050D01*
X11512143Y-13544098D01*
X11512143Y-13601241D01*
X11502619Y-13620288D01*
X11493095Y-13629812D01*
X11474048Y-13639336D01*
X11445476Y-13639336D01*
X11626428Y-13639336D02*
X11607381Y-13629812D01*
X11597857Y-13610765D01*
X11597857Y-13439336D01*
X11778809Y-13629812D02*
X11759762Y-13639336D01*
X11721667Y-13639336D01*
X11702619Y-13629812D01*
X11693095Y-13610765D01*
X11693095Y-13534574D01*
X11702619Y-13515527D01*
X11721667Y-13506003D01*
X11759762Y-13506003D01*
X11778809Y-13515527D01*
X11788333Y-13534574D01*
X11788333Y-13553622D01*
X11693095Y-13572669D01*
X11864524Y-13629812D02*
X11883571Y-13639336D01*
X11921667Y-13639336D01*
X11940714Y-13629812D01*
X11950238Y-13610765D01*
X11950238Y-13601241D01*
X11940714Y-13582193D01*
X11921667Y-13572669D01*
X11893095Y-13572669D01*
X11874048Y-13563146D01*
X11864524Y-13544098D01*
X11864524Y-13534574D01*
X11874048Y-13515527D01*
X11893095Y-13506003D01*
X11921667Y-13506003D01*
X11940714Y-13515527D01*
X12188333Y-13563146D02*
X12340714Y-13563146D01*
X12264524Y-13639336D02*
X12264524Y-13486955D01*
X12578809Y-13458384D02*
X12588333Y-13448860D01*
X12607381Y-13439336D01*
X12655000Y-13439336D01*
X12674048Y-13448860D01*
X12683571Y-13458384D01*
X12693095Y-13477431D01*
X12693095Y-13496479D01*
X12683571Y-13525050D01*
X12569286Y-13639336D01*
X12693095Y-13639336D01*
X12921667Y-13629812D02*
X12940714Y-13639336D01*
X12978809Y-13639336D01*
X12997857Y-13629812D01*
X13007381Y-13610765D01*
X13007381Y-13601241D01*
X12997857Y-13582193D01*
X12978809Y-13572669D01*
X12950238Y-13572669D01*
X12931190Y-13563146D01*
X12921667Y-13544098D01*
X12921667Y-13534574D01*
X12931190Y-13515527D01*
X12950238Y-13506003D01*
X12978809Y-13506003D01*
X12997857Y-13515527D01*
X13121667Y-13639336D02*
X13102619Y-13629812D01*
X13093095Y-13610765D01*
X13093095Y-13439336D01*
X13226428Y-13639336D02*
X13207381Y-13629812D01*
X13197857Y-13620288D01*
X13188333Y-13601241D01*
X13188333Y-13544098D01*
X13197857Y-13525050D01*
X13207381Y-13515527D01*
X13226428Y-13506003D01*
X13255000Y-13506003D01*
X13274048Y-13515527D01*
X13283571Y-13525050D01*
X13293095Y-13544098D01*
X13293095Y-13601241D01*
X13283571Y-13620288D01*
X13274048Y-13629812D01*
X13255000Y-13639336D01*
X13226428Y-13639336D01*
X13350238Y-13506003D02*
X13426428Y-13506003D01*
X13378809Y-13439336D02*
X13378809Y-13610765D01*
X13388333Y-13629812D01*
X13407381Y-13639336D01*
X13426428Y-13639336D01*
X13483571Y-13629812D02*
X13502619Y-13639336D01*
X13540714Y-13639336D01*
X13559762Y-13629812D01*
X13569286Y-13610765D01*
X13569286Y-13601241D01*
X13559762Y-13582193D01*
X13540714Y-13572669D01*
X13512143Y-13572669D01*
X13493095Y-13563146D01*
X13483571Y-13544098D01*
X13483571Y-13534574D01*
X13493095Y-13515527D01*
X13512143Y-13506003D01*
X13540714Y-13506003D01*
X13559762Y-13515527D01*
X13635952Y-13715527D02*
X13645476Y-13706003D01*
X13664524Y-13677431D01*
X13674048Y-13658384D01*
X13683571Y-13629812D01*
X13693095Y-13582193D01*
X13693095Y-13544098D01*
X13683571Y-13496479D01*
X13674048Y-13467908D01*
X13664524Y-13448860D01*
X13645476Y-13420288D01*
X13635952Y-13410765D01*
D19*
X7085000Y-13738860D02*
X7245000Y-13898860D01*
X7245000Y-13738860D02*
X7085000Y-13898860D01*
X7165000Y-13898860D02*
X7245000Y-13818860D01*
X7165000Y-13738860D01*
X7085000Y-13818860D01*
X7165000Y-13898860D01*
D11*
X7607381Y-13909336D02*
X7493095Y-13909336D01*
X7550238Y-13909336D02*
X7550238Y-13709336D01*
X7531190Y-13737908D01*
X7512143Y-13756955D01*
X7493095Y-13766479D01*
X7693095Y-13890288D02*
X7702619Y-13899812D01*
X7693095Y-13909336D01*
X7683571Y-13899812D01*
X7693095Y-13890288D01*
X7693095Y-13909336D01*
X7874048Y-13709336D02*
X7835952Y-13709336D01*
X7816905Y-13718860D01*
X7807381Y-13728384D01*
X7788333Y-13756955D01*
X7778809Y-13795050D01*
X7778809Y-13871241D01*
X7788333Y-13890288D01*
X7797857Y-13899812D01*
X7816905Y-13909336D01*
X7855000Y-13909336D01*
X7874048Y-13899812D01*
X7883571Y-13890288D01*
X7893095Y-13871241D01*
X7893095Y-13823622D01*
X7883571Y-13804574D01*
X7874048Y-13795050D01*
X7855000Y-13785527D01*
X7816905Y-13785527D01*
X7797857Y-13795050D01*
X7788333Y-13804574D01*
X7778809Y-13823622D01*
X8016905Y-13709336D02*
X8035952Y-13709336D01*
X8055000Y-13718860D01*
X8064524Y-13728384D01*
X8074048Y-13747431D01*
X8083571Y-13785527D01*
X8083571Y-13833146D01*
X8074048Y-13871241D01*
X8064524Y-13890288D01*
X8055000Y-13899812D01*
X8035952Y-13909336D01*
X8016905Y-13909336D01*
X7997857Y-13899812D01*
X7988333Y-13890288D01*
X7978809Y-13871241D01*
X7969286Y-13833146D01*
X7969286Y-13785527D01*
X7978809Y-13747431D01*
X7988333Y-13728384D01*
X7997857Y-13718860D01*
X8016905Y-13709336D01*
X8207381Y-13709336D02*
X8226428Y-13709336D01*
X8245476Y-13718860D01*
X8255000Y-13728384D01*
X8264524Y-13747431D01*
X8274048Y-13785527D01*
X8274048Y-13833146D01*
X8264524Y-13871241D01*
X8255000Y-13890288D01*
X8245476Y-13899812D01*
X8226428Y-13909336D01*
X8207381Y-13909336D01*
X8188333Y-13899812D01*
X8178809Y-13890288D01*
X8169286Y-13871241D01*
X8159762Y-13833146D01*
X8159762Y-13785527D01*
X8169286Y-13747431D01*
X8178809Y-13728384D01*
X8188333Y-13718860D01*
X8207381Y-13709336D01*
X8359762Y-13909336D02*
X8359762Y-13776003D01*
X8359762Y-13795050D02*
X8369286Y-13785527D01*
X8388333Y-13776003D01*
X8416905Y-13776003D01*
X8435952Y-13785527D01*
X8445476Y-13804574D01*
X8445476Y-13909336D01*
X8445476Y-13804574D02*
X8455000Y-13785527D01*
X8474048Y-13776003D01*
X8502619Y-13776003D01*
X8521667Y-13785527D01*
X8531190Y-13804574D01*
X8531190Y-13909336D01*
X8626429Y-13909336D02*
X8626429Y-13776003D01*
X8626429Y-13795050D02*
X8635952Y-13785527D01*
X8655000Y-13776003D01*
X8683571Y-13776003D01*
X8702619Y-13785527D01*
X8712143Y-13804574D01*
X8712143Y-13909336D01*
X8712143Y-13804574D02*
X8721667Y-13785527D01*
X8740714Y-13776003D01*
X8769286Y-13776003D01*
X8788333Y-13785527D01*
X8797857Y-13804574D01*
X8797857Y-13909336D01*
X9188333Y-13699812D02*
X9016905Y-13956955D01*
X9445476Y-13709336D02*
X9464524Y-13709336D01*
X9483571Y-13718860D01*
X9493095Y-13728384D01*
X9502619Y-13747431D01*
X9512143Y-13785527D01*
X9512143Y-13833146D01*
X9502619Y-13871241D01*
X9493095Y-13890288D01*
X9483571Y-13899812D01*
X9464524Y-13909336D01*
X9445476Y-13909336D01*
X9426429Y-13899812D01*
X9416905Y-13890288D01*
X9407381Y-13871241D01*
X9397857Y-13833146D01*
X9397857Y-13785527D01*
X9407381Y-13747431D01*
X9416905Y-13728384D01*
X9426429Y-13718860D01*
X9445476Y-13709336D01*
X9597857Y-13890288D02*
X9607381Y-13899812D01*
X9597857Y-13909336D01*
X9588333Y-13899812D01*
X9597857Y-13890288D01*
X9597857Y-13909336D01*
X9731190Y-13709336D02*
X9750238Y-13709336D01*
X9769286Y-13718860D01*
X9778810Y-13728384D01*
X9788333Y-13747431D01*
X9797857Y-13785527D01*
X9797857Y-13833146D01*
X9788333Y-13871241D01*
X9778810Y-13890288D01*
X9769286Y-13899812D01*
X9750238Y-13909336D01*
X9731190Y-13909336D01*
X9712143Y-13899812D01*
X9702619Y-13890288D01*
X9693095Y-13871241D01*
X9683571Y-13833146D01*
X9683571Y-13785527D01*
X9693095Y-13747431D01*
X9702619Y-13728384D01*
X9712143Y-13718860D01*
X9731190Y-13709336D01*
X9969286Y-13709336D02*
X9931190Y-13709336D01*
X9912143Y-13718860D01*
X9902619Y-13728384D01*
X9883571Y-13756955D01*
X9874048Y-13795050D01*
X9874048Y-13871241D01*
X9883571Y-13890288D01*
X9893095Y-13899812D01*
X9912143Y-13909336D01*
X9950238Y-13909336D01*
X9969286Y-13899812D01*
X9978810Y-13890288D01*
X9988333Y-13871241D01*
X9988333Y-13823622D01*
X9978810Y-13804574D01*
X9969286Y-13795050D01*
X9950238Y-13785527D01*
X9912143Y-13785527D01*
X9893095Y-13795050D01*
X9883571Y-13804574D01*
X9874048Y-13823622D01*
X10055000Y-13709336D02*
X10178810Y-13709336D01*
X10112143Y-13785527D01*
X10140714Y-13785527D01*
X10159762Y-13795050D01*
X10169286Y-13804574D01*
X10178810Y-13823622D01*
X10178810Y-13871241D01*
X10169286Y-13890288D01*
X10159762Y-13899812D01*
X10140714Y-13909336D01*
X10083571Y-13909336D01*
X10064524Y-13899812D01*
X10055000Y-13890288D01*
X10302619Y-13709336D02*
X10321667Y-13709336D01*
X10340714Y-13718860D01*
X10350238Y-13728384D01*
X10359762Y-13747431D01*
X10369286Y-13785527D01*
X10369286Y-13833146D01*
X10359762Y-13871241D01*
X10350238Y-13890288D01*
X10340714Y-13899812D01*
X10321667Y-13909336D01*
X10302619Y-13909336D01*
X10283571Y-13899812D01*
X10274048Y-13890288D01*
X10264524Y-13871241D01*
X10255000Y-13833146D01*
X10255000Y-13785527D01*
X10264524Y-13747431D01*
X10274048Y-13728384D01*
X10283571Y-13718860D01*
X10302619Y-13709336D01*
X10445476Y-13709336D02*
X10445476Y-13747431D01*
X10521667Y-13709336D02*
X10521667Y-13747431D01*
X10816905Y-13985527D02*
X10807381Y-13976003D01*
X10788333Y-13947431D01*
X10778810Y-13928384D01*
X10769286Y-13899812D01*
X10759762Y-13852193D01*
X10759762Y-13814098D01*
X10769286Y-13766479D01*
X10778810Y-13737908D01*
X10788333Y-13718860D01*
X10807381Y-13690288D01*
X10816905Y-13680765D01*
X10978810Y-13776003D02*
X10978810Y-13909336D01*
X10931190Y-13699812D02*
X10883571Y-13842669D01*
X11007381Y-13842669D01*
X11235952Y-13909336D02*
X11235952Y-13709336D01*
X11321667Y-13909336D02*
X11321667Y-13804574D01*
X11312143Y-13785527D01*
X11293095Y-13776003D01*
X11264524Y-13776003D01*
X11245476Y-13785527D01*
X11235952Y-13795050D01*
X11445476Y-13909336D02*
X11426428Y-13899812D01*
X11416905Y-13890288D01*
X11407381Y-13871241D01*
X11407381Y-13814098D01*
X11416905Y-13795050D01*
X11426428Y-13785527D01*
X11445476Y-13776003D01*
X11474048Y-13776003D01*
X11493095Y-13785527D01*
X11502619Y-13795050D01*
X11512143Y-13814098D01*
X11512143Y-13871241D01*
X11502619Y-13890288D01*
X11493095Y-13899812D01*
X11474048Y-13909336D01*
X11445476Y-13909336D01*
X11626428Y-13909336D02*
X11607381Y-13899812D01*
X11597857Y-13880765D01*
X11597857Y-13709336D01*
X11778809Y-13899812D02*
X11759762Y-13909336D01*
X11721667Y-13909336D01*
X11702619Y-13899812D01*
X11693095Y-13880765D01*
X11693095Y-13804574D01*
X11702619Y-13785527D01*
X11721667Y-13776003D01*
X11759762Y-13776003D01*
X11778809Y-13785527D01*
X11788333Y-13804574D01*
X11788333Y-13823622D01*
X11693095Y-13842669D01*
X11864524Y-13899812D02*
X11883571Y-13909336D01*
X11921667Y-13909336D01*
X11940714Y-13899812D01*
X11950238Y-13880765D01*
X11950238Y-13871241D01*
X11940714Y-13852193D01*
X11921667Y-13842669D01*
X11893095Y-13842669D01*
X11874048Y-13833146D01*
X11864524Y-13814098D01*
X11864524Y-13804574D01*
X11874048Y-13785527D01*
X11893095Y-13776003D01*
X11921667Y-13776003D01*
X11940714Y-13785527D01*
X12016905Y-13985527D02*
X12026428Y-13976003D01*
X12045476Y-13947431D01*
X12055000Y-13928384D01*
X12064524Y-13899812D01*
X12074048Y-13852193D01*
X12074048Y-13814098D01*
X12064524Y-13766479D01*
X12055000Y-13737908D01*
X12045476Y-13718860D01*
X12026428Y-13690288D01*
X12016905Y-13680765D01*
M02*
