G04 #@! TF.GenerationSoftware,KiCad,Pcbnew,7.0.7*
G04 #@! TF.CreationDate,2023-09-30T21:04:22+10:00*
G04 #@! TF.ProjectId,skink,736b696e-6b2e-46b6-9963-61645f706362,rev?*
G04 #@! TF.SameCoordinates,Original*
G04 #@! TF.FileFunction,Legend,Bot*
G04 #@! TF.FilePolarity,Positive*
%FSLAX46Y46*%
G04 Gerber Fmt 4.6, Leading zero omitted, Abs format (unit mm)*
G04 Created by KiCad (PCBNEW 7.0.7) date 2023-09-30 21:04:22*
%MOMM*%
%LPD*%
G01*
G04 APERTURE LIST*
%ADD10C,0.500000*%
%ADD11C,0.150000*%
%ADD12C,0.120000*%
%ADD13R,1.752600X1.752600*%
%ADD14C,1.752600*%
%ADD15R,1.600000X1.600000*%
%ADD16O,1.600000X1.600000*%
%ADD17C,5.000000*%
%ADD18C,1.700000*%
%ADD19C,2.286000*%
%ADD20C,2.100000*%
%ADD21C,1.500000*%
G04 APERTURE END LIST*
D10*
X31964000Y-38900375D02*
X32106857Y-39186089D01*
X32106857Y-39186089D02*
X32106857Y-39757518D01*
X32106857Y-39757518D02*
X31964000Y-40043232D01*
X31964000Y-40043232D02*
X31678285Y-40186089D01*
X31678285Y-40186089D02*
X31535428Y-40186089D01*
X31535428Y-40186089D02*
X31249714Y-40043232D01*
X31249714Y-40043232D02*
X31106857Y-39757518D01*
X31106857Y-39757518D02*
X31106857Y-39328947D01*
X31106857Y-39328947D02*
X30964000Y-39043232D01*
X30964000Y-39043232D02*
X30678285Y-38900375D01*
X30678285Y-38900375D02*
X30535428Y-38900375D01*
X30535428Y-38900375D02*
X30249714Y-39043232D01*
X30249714Y-39043232D02*
X30106857Y-39328947D01*
X30106857Y-39328947D02*
X30106857Y-39757518D01*
X30106857Y-39757518D02*
X30249714Y-40043232D01*
X32106857Y-41471803D02*
X29106857Y-41471803D01*
X30964000Y-41757518D02*
X32106857Y-42614660D01*
X30106857Y-42614660D02*
X31249714Y-41471803D01*
X32106857Y-43900374D02*
X30106857Y-43900374D01*
X29106857Y-43900374D02*
X29249714Y-43757517D01*
X29249714Y-43757517D02*
X29392571Y-43900374D01*
X29392571Y-43900374D02*
X29249714Y-44043231D01*
X29249714Y-44043231D02*
X29106857Y-43900374D01*
X29106857Y-43900374D02*
X29392571Y-43900374D01*
X30106857Y-45328945D02*
X32106857Y-45328945D01*
X30392571Y-45328945D02*
X30249714Y-45471802D01*
X30249714Y-45471802D02*
X30106857Y-45757517D01*
X30106857Y-45757517D02*
X30106857Y-46186088D01*
X30106857Y-46186088D02*
X30249714Y-46471802D01*
X30249714Y-46471802D02*
X30535428Y-46614660D01*
X30535428Y-46614660D02*
X32106857Y-46614660D01*
X32106857Y-48043231D02*
X29106857Y-48043231D01*
X30964000Y-48328946D02*
X32106857Y-49186088D01*
X30106857Y-49186088D02*
X31249714Y-48043231D01*
X32106857Y-52757516D02*
X30106857Y-52757516D01*
X30678285Y-52757516D02*
X30392571Y-52900373D01*
X30392571Y-52900373D02*
X30249714Y-53043231D01*
X30249714Y-53043231D02*
X30106857Y-53328945D01*
X30106857Y-53328945D02*
X30106857Y-53614659D01*
X31964000Y-55757516D02*
X32106857Y-55471802D01*
X32106857Y-55471802D02*
X32106857Y-54900374D01*
X32106857Y-54900374D02*
X31964000Y-54614659D01*
X31964000Y-54614659D02*
X31678285Y-54471802D01*
X31678285Y-54471802D02*
X30535428Y-54471802D01*
X30535428Y-54471802D02*
X30249714Y-54614659D01*
X30249714Y-54614659D02*
X30106857Y-54900374D01*
X30106857Y-54900374D02*
X30106857Y-55471802D01*
X30106857Y-55471802D02*
X30249714Y-55757516D01*
X30249714Y-55757516D02*
X30535428Y-55900374D01*
X30535428Y-55900374D02*
X30821142Y-55900374D01*
X30821142Y-55900374D02*
X31106857Y-54471802D01*
X30106857Y-56900374D02*
X32106857Y-57614660D01*
X32106857Y-57614660D02*
X30106857Y-58328945D01*
X32106857Y-61043231D02*
X32106857Y-59328945D01*
X32106857Y-60186088D02*
X29106857Y-60186088D01*
X29106857Y-60186088D02*
X29535428Y-59900374D01*
X29535428Y-59900374D02*
X29821142Y-59614659D01*
X29821142Y-59614659D02*
X29964000Y-59328945D01*
D11*
X153650414Y-52277255D02*
X152900414Y-52277255D01*
X153186128Y-52277255D02*
X153150414Y-52348684D01*
X153150414Y-52348684D02*
X153150414Y-52491541D01*
X153150414Y-52491541D02*
X153186128Y-52562969D01*
X153186128Y-52562969D02*
X153221842Y-52598684D01*
X153221842Y-52598684D02*
X153293271Y-52634398D01*
X153293271Y-52634398D02*
X153507557Y-52634398D01*
X153507557Y-52634398D02*
X153578985Y-52598684D01*
X153578985Y-52598684D02*
X153614700Y-52562969D01*
X153614700Y-52562969D02*
X153650414Y-52491541D01*
X153650414Y-52491541D02*
X153650414Y-52348684D01*
X153650414Y-52348684D02*
X153614700Y-52277255D01*
X153150414Y-52884397D02*
X153650414Y-53062969D01*
X153150414Y-53241540D02*
X153650414Y-53062969D01*
X153650414Y-53062969D02*
X153828985Y-52991540D01*
X153828985Y-52991540D02*
X153864700Y-52955826D01*
X153864700Y-52955826D02*
X153900414Y-52884397D01*
X153150414Y-54420113D02*
X153757557Y-54420113D01*
X153757557Y-54420113D02*
X153828985Y-54384398D01*
X153828985Y-54384398D02*
X153864700Y-54348684D01*
X153864700Y-54348684D02*
X153900414Y-54277255D01*
X153900414Y-54277255D02*
X153900414Y-54170113D01*
X153900414Y-54170113D02*
X153864700Y-54098684D01*
X153614700Y-54420113D02*
X153650414Y-54348684D01*
X153650414Y-54348684D02*
X153650414Y-54205827D01*
X153650414Y-54205827D02*
X153614700Y-54134398D01*
X153614700Y-54134398D02*
X153578985Y-54098684D01*
X153578985Y-54098684D02*
X153507557Y-54062970D01*
X153507557Y-54062970D02*
X153293271Y-54062970D01*
X153293271Y-54062970D02*
X153221842Y-54098684D01*
X153221842Y-54098684D02*
X153186128Y-54134398D01*
X153186128Y-54134398D02*
X153150414Y-54205827D01*
X153150414Y-54205827D02*
X153150414Y-54348684D01*
X153150414Y-54348684D02*
X153186128Y-54420113D01*
X153150414Y-54777255D02*
X153650414Y-54777255D01*
X153221842Y-54777255D02*
X153186128Y-54812969D01*
X153186128Y-54812969D02*
X153150414Y-54884398D01*
X153150414Y-54884398D02*
X153150414Y-54991541D01*
X153150414Y-54991541D02*
X153186128Y-55062969D01*
X153186128Y-55062969D02*
X153257557Y-55098684D01*
X153257557Y-55098684D02*
X153650414Y-55098684D01*
X153650414Y-55777255D02*
X153257557Y-55777255D01*
X153257557Y-55777255D02*
X153186128Y-55741540D01*
X153186128Y-55741540D02*
X153150414Y-55670112D01*
X153150414Y-55670112D02*
X153150414Y-55527255D01*
X153150414Y-55527255D02*
X153186128Y-55455826D01*
X153614700Y-55777255D02*
X153650414Y-55705826D01*
X153650414Y-55705826D02*
X153650414Y-55527255D01*
X153650414Y-55527255D02*
X153614700Y-55455826D01*
X153614700Y-55455826D02*
X153543271Y-55420112D01*
X153543271Y-55420112D02*
X153471842Y-55420112D01*
X153471842Y-55420112D02*
X153400414Y-55455826D01*
X153400414Y-55455826D02*
X153364700Y-55527255D01*
X153364700Y-55527255D02*
X153364700Y-55705826D01*
X153364700Y-55705826D02*
X153328985Y-55777255D01*
X153150414Y-56062968D02*
X153650414Y-56205826D01*
X153650414Y-56205826D02*
X153293271Y-56348683D01*
X153293271Y-56348683D02*
X153650414Y-56491540D01*
X153650414Y-56491540D02*
X153150414Y-56634397D01*
X153650414Y-56920111D02*
X153150414Y-56920111D01*
X153221842Y-56920111D02*
X153186128Y-56955825D01*
X153186128Y-56955825D02*
X153150414Y-57027254D01*
X153150414Y-57027254D02*
X153150414Y-57134397D01*
X153150414Y-57134397D02*
X153186128Y-57205825D01*
X153186128Y-57205825D02*
X153257557Y-57241540D01*
X153257557Y-57241540D02*
X153650414Y-57241540D01*
X153257557Y-57241540D02*
X153186128Y-57277254D01*
X153186128Y-57277254D02*
X153150414Y-57348682D01*
X153150414Y-57348682D02*
X153150414Y-57455825D01*
X153150414Y-57455825D02*
X153186128Y-57527254D01*
X153186128Y-57527254D02*
X153257557Y-57562968D01*
X153257557Y-57562968D02*
X153650414Y-57562968D01*
X153650414Y-58241540D02*
X153257557Y-58241540D01*
X153257557Y-58241540D02*
X153186128Y-58205825D01*
X153186128Y-58205825D02*
X153150414Y-58134397D01*
X153150414Y-58134397D02*
X153150414Y-57991540D01*
X153150414Y-57991540D02*
X153186128Y-57920111D01*
X153614700Y-58241540D02*
X153650414Y-58170111D01*
X153650414Y-58170111D02*
X153650414Y-57991540D01*
X153650414Y-57991540D02*
X153614700Y-57920111D01*
X153614700Y-57920111D02*
X153543271Y-57884397D01*
X153543271Y-57884397D02*
X153471842Y-57884397D01*
X153471842Y-57884397D02*
X153400414Y-57920111D01*
X153400414Y-57920111D02*
X153364700Y-57991540D01*
X153364700Y-57991540D02*
X153364700Y-58170111D01*
X153364700Y-58170111D02*
X153328985Y-58241540D01*
X153150414Y-58598682D02*
X153650414Y-58598682D01*
X153221842Y-58598682D02*
X153186128Y-58634396D01*
X153186128Y-58634396D02*
X153150414Y-58705825D01*
X153150414Y-58705825D02*
X153150414Y-58812968D01*
X153150414Y-58812968D02*
X153186128Y-58884396D01*
X153186128Y-58884396D02*
X153257557Y-58920111D01*
X153257557Y-58920111D02*
X153650414Y-58920111D01*
D12*
X21250000Y-58290000D02*
X21250000Y-57640000D01*
X20130000Y-57640000D02*
X20130000Y-53400000D01*
X22370000Y-57640000D02*
X20130000Y-57640000D01*
X22370000Y-57040000D02*
X20130000Y-57040000D01*
X22370000Y-56920000D02*
X20130000Y-56920000D01*
X22370000Y-56800000D02*
X20130000Y-56800000D01*
X20130000Y-53400000D02*
X22370000Y-53400000D01*
X22370000Y-53400000D02*
X22370000Y-57640000D01*
X21250000Y-52750000D02*
X21250000Y-53400000D01*
X21250000Y-47540000D02*
X21250000Y-46890000D01*
X20130000Y-46890000D02*
X20130000Y-42650000D01*
X22370000Y-46890000D02*
X20130000Y-46890000D01*
X22370000Y-46290000D02*
X20130000Y-46290000D01*
X22370000Y-46170000D02*
X20130000Y-46170000D01*
X22370000Y-46050000D02*
X20130000Y-46050000D01*
X20130000Y-42650000D02*
X22370000Y-42650000D01*
X22370000Y-42650000D02*
X22370000Y-46890000D01*
X21250000Y-42000000D02*
X21250000Y-42650000D01*
X117300000Y-38810000D02*
X117300000Y-38160000D01*
X116180000Y-38160000D02*
X116180000Y-33920000D01*
X118420000Y-38160000D02*
X116180000Y-38160000D01*
X118420000Y-37560000D02*
X116180000Y-37560000D01*
X118420000Y-37440000D02*
X116180000Y-37440000D01*
X118420000Y-37320000D02*
X116180000Y-37320000D01*
X116180000Y-33920000D02*
X118420000Y-33920000D01*
X118420000Y-33920000D02*
X118420000Y-38160000D01*
X117300000Y-33270000D02*
X117300000Y-33920000D01*
X79300000Y-38810000D02*
X79300000Y-38160000D01*
X78180000Y-38160000D02*
X78180000Y-33920000D01*
X80420000Y-38160000D02*
X78180000Y-38160000D01*
X80420000Y-37560000D02*
X78180000Y-37560000D01*
X80420000Y-37440000D02*
X78180000Y-37440000D01*
X80420000Y-37320000D02*
X78180000Y-37320000D01*
X78180000Y-33920000D02*
X80420000Y-33920000D01*
X80420000Y-33920000D02*
X80420000Y-38160000D01*
X79300000Y-33270000D02*
X79300000Y-33920000D01*
X60300000Y-57810000D02*
X60300000Y-57160000D01*
X59180000Y-57160000D02*
X59180000Y-52920000D01*
X61420000Y-57160000D02*
X59180000Y-57160000D01*
X61420000Y-56560000D02*
X59180000Y-56560000D01*
X61420000Y-56440000D02*
X59180000Y-56440000D01*
X61420000Y-56320000D02*
X59180000Y-56320000D01*
X59180000Y-52920000D02*
X61420000Y-52920000D01*
X61420000Y-52920000D02*
X61420000Y-57160000D01*
X60300000Y-52270000D02*
X60300000Y-52920000D01*
X98300000Y-76810000D02*
X98300000Y-76160000D01*
X97180000Y-76160000D02*
X97180000Y-71920000D01*
X99420000Y-76160000D02*
X97180000Y-76160000D01*
X99420000Y-75560000D02*
X97180000Y-75560000D01*
X99420000Y-75440000D02*
X97180000Y-75440000D01*
X99420000Y-75320000D02*
X97180000Y-75320000D01*
X97180000Y-71920000D02*
X99420000Y-71920000D01*
X99420000Y-71920000D02*
X99420000Y-76160000D01*
X98300000Y-71270000D02*
X98300000Y-71920000D01*
X41300000Y-57810000D02*
X41300000Y-57160000D01*
X40180000Y-57160000D02*
X40180000Y-52920000D01*
X42420000Y-57160000D02*
X40180000Y-57160000D01*
X42420000Y-56560000D02*
X40180000Y-56560000D01*
X42420000Y-56440000D02*
X40180000Y-56440000D01*
X42420000Y-56320000D02*
X40180000Y-56320000D01*
X40180000Y-52920000D02*
X42420000Y-52920000D01*
X42420000Y-52920000D02*
X42420000Y-57160000D01*
X41300000Y-52270000D02*
X41300000Y-52920000D01*
X117300000Y-57810000D02*
X117300000Y-57160000D01*
X116180000Y-57160000D02*
X116180000Y-52920000D01*
X118420000Y-57160000D02*
X116180000Y-57160000D01*
X118420000Y-56560000D02*
X116180000Y-56560000D01*
X118420000Y-56440000D02*
X116180000Y-56440000D01*
X118420000Y-56320000D02*
X116180000Y-56320000D01*
X116180000Y-52920000D02*
X118420000Y-52920000D01*
X118420000Y-52920000D02*
X118420000Y-57160000D01*
X117300000Y-52270000D02*
X117300000Y-52920000D01*
X60300000Y-76810000D02*
X60300000Y-76160000D01*
X59180000Y-76160000D02*
X59180000Y-71920000D01*
X61420000Y-76160000D02*
X59180000Y-76160000D01*
X61420000Y-75560000D02*
X59180000Y-75560000D01*
X61420000Y-75440000D02*
X59180000Y-75440000D01*
X61420000Y-75320000D02*
X59180000Y-75320000D01*
X59180000Y-71920000D02*
X61420000Y-71920000D01*
X61420000Y-71920000D02*
X61420000Y-76160000D01*
X60300000Y-71270000D02*
X60300000Y-71920000D01*
X60300000Y-38810000D02*
X60300000Y-38160000D01*
X59180000Y-38160000D02*
X59180000Y-33920000D01*
X61420000Y-38160000D02*
X59180000Y-38160000D01*
X61420000Y-37560000D02*
X59180000Y-37560000D01*
X61420000Y-37440000D02*
X59180000Y-37440000D01*
X61420000Y-37320000D02*
X59180000Y-37320000D01*
X59180000Y-33920000D02*
X61420000Y-33920000D01*
X61420000Y-33920000D02*
X61420000Y-38160000D01*
X60300000Y-33270000D02*
X60300000Y-33920000D01*
X117300000Y-76810000D02*
X117300000Y-76160000D01*
X116180000Y-76160000D02*
X116180000Y-71920000D01*
X118420000Y-76160000D02*
X116180000Y-76160000D01*
X118420000Y-75560000D02*
X116180000Y-75560000D01*
X118420000Y-75440000D02*
X116180000Y-75440000D01*
X118420000Y-75320000D02*
X116180000Y-75320000D01*
X116180000Y-71920000D02*
X118420000Y-71920000D01*
X118420000Y-71920000D02*
X118420000Y-76160000D01*
X117300000Y-71270000D02*
X117300000Y-71920000D01*
X79300000Y-76810000D02*
X79300000Y-76160000D01*
X78180000Y-76160000D02*
X78180000Y-71920000D01*
X80420000Y-76160000D02*
X78180000Y-76160000D01*
X80420000Y-75560000D02*
X78180000Y-75560000D01*
X80420000Y-75440000D02*
X78180000Y-75440000D01*
X80420000Y-75320000D02*
X78180000Y-75320000D01*
X78180000Y-71920000D02*
X80420000Y-71920000D01*
X80420000Y-71920000D02*
X80420000Y-76160000D01*
X79300000Y-71270000D02*
X79300000Y-71920000D01*
X136300000Y-76810000D02*
X136300000Y-76160000D01*
X135180000Y-76160000D02*
X135180000Y-71920000D01*
X137420000Y-76160000D02*
X135180000Y-76160000D01*
X137420000Y-75560000D02*
X135180000Y-75560000D01*
X137420000Y-75440000D02*
X135180000Y-75440000D01*
X137420000Y-75320000D02*
X135180000Y-75320000D01*
X135180000Y-71920000D02*
X137420000Y-71920000D01*
X137420000Y-71920000D02*
X137420000Y-76160000D01*
X136300000Y-71270000D02*
X136300000Y-71920000D01*
X79300000Y-57810000D02*
X79300000Y-57160000D01*
X78180000Y-57160000D02*
X78180000Y-52920000D01*
X80420000Y-57160000D02*
X78180000Y-57160000D01*
X80420000Y-56560000D02*
X78180000Y-56560000D01*
X80420000Y-56440000D02*
X78180000Y-56440000D01*
X80420000Y-56320000D02*
X78180000Y-56320000D01*
X78180000Y-52920000D02*
X80420000Y-52920000D01*
X80420000Y-52920000D02*
X80420000Y-57160000D01*
X79300000Y-52270000D02*
X79300000Y-52920000D01*
X41300000Y-76810000D02*
X41300000Y-76160000D01*
X40180000Y-76160000D02*
X40180000Y-71920000D01*
X42420000Y-76160000D02*
X40180000Y-76160000D01*
X42420000Y-75560000D02*
X40180000Y-75560000D01*
X42420000Y-75440000D02*
X40180000Y-75440000D01*
X42420000Y-75320000D02*
X40180000Y-75320000D01*
X40180000Y-71920000D02*
X42420000Y-71920000D01*
X42420000Y-71920000D02*
X42420000Y-76160000D01*
X41300000Y-71270000D02*
X41300000Y-71920000D01*
X98300000Y-57810000D02*
X98300000Y-57160000D01*
X97180000Y-57160000D02*
X97180000Y-52920000D01*
X99420000Y-57160000D02*
X97180000Y-57160000D01*
X99420000Y-56560000D02*
X97180000Y-56560000D01*
X99420000Y-56440000D02*
X97180000Y-56440000D01*
X99420000Y-56320000D02*
X97180000Y-56320000D01*
X97180000Y-52920000D02*
X99420000Y-52920000D01*
X99420000Y-52920000D02*
X99420000Y-57160000D01*
X98300000Y-52270000D02*
X98300000Y-52920000D01*
X41300000Y-38810000D02*
X41300000Y-38160000D01*
X40180000Y-38160000D02*
X40180000Y-33920000D01*
X42420000Y-38160000D02*
X40180000Y-38160000D01*
X42420000Y-37560000D02*
X40180000Y-37560000D01*
X42420000Y-37440000D02*
X40180000Y-37440000D01*
X42420000Y-37320000D02*
X40180000Y-37320000D01*
X40180000Y-33920000D02*
X42420000Y-33920000D01*
X42420000Y-33920000D02*
X42420000Y-38160000D01*
X41300000Y-33270000D02*
X41300000Y-33920000D01*
X98300000Y-38810000D02*
X98300000Y-38160000D01*
X97180000Y-38160000D02*
X97180000Y-33920000D01*
X99420000Y-38160000D02*
X97180000Y-38160000D01*
X99420000Y-37560000D02*
X97180000Y-37560000D01*
X99420000Y-37440000D02*
X97180000Y-37440000D01*
X99420000Y-37320000D02*
X97180000Y-37320000D01*
X97180000Y-33920000D02*
X99420000Y-33920000D01*
X99420000Y-33920000D02*
X99420000Y-38160000D01*
X98300000Y-33270000D02*
X98300000Y-33920000D01*
D11*
X42800000Y-43400000D02*
X43800000Y-43400000D01*
X42800000Y-44400000D02*
X42800000Y-43400000D01*
X42800000Y-57400000D02*
X42800000Y-56400000D01*
X43800000Y-57400000D02*
X42800000Y-57400000D01*
X55800000Y-43400000D02*
X56800000Y-43400000D01*
X56800000Y-43400000D02*
X56800000Y-44400000D01*
X56800000Y-56400000D02*
X56800000Y-57400000D01*
X56800000Y-57400000D02*
X55800000Y-57400000D01*
X94800000Y-57400000D02*
X93800000Y-57400000D01*
X94800000Y-56400000D02*
X94800000Y-57400000D01*
X94800000Y-43400000D02*
X94800000Y-44400000D01*
X93800000Y-43400000D02*
X94800000Y-43400000D01*
X81800000Y-57400000D02*
X80800000Y-57400000D01*
X80800000Y-57400000D02*
X80800000Y-56400000D01*
X80800000Y-44400000D02*
X80800000Y-43400000D01*
X80800000Y-43400000D02*
X81800000Y-43400000D01*
X118800000Y-62400000D02*
X119800000Y-62400000D01*
X118800000Y-63400000D02*
X118800000Y-62400000D01*
X118800000Y-76400000D02*
X118800000Y-75400000D01*
X119800000Y-76400000D02*
X118800000Y-76400000D01*
X131800000Y-62400000D02*
X132800000Y-62400000D01*
X132800000Y-62400000D02*
X132800000Y-63400000D01*
X132800000Y-75400000D02*
X132800000Y-76400000D01*
X132800000Y-76400000D02*
X131800000Y-76400000D01*
X61800000Y-62400000D02*
X62800000Y-62400000D01*
X61800000Y-63400000D02*
X61800000Y-62400000D01*
X61800000Y-76400000D02*
X61800000Y-75400000D01*
X62800000Y-76400000D02*
X61800000Y-76400000D01*
X74800000Y-62400000D02*
X75800000Y-62400000D01*
X75800000Y-62400000D02*
X75800000Y-63400000D01*
X75800000Y-75400000D02*
X75800000Y-76400000D01*
X75800000Y-76400000D02*
X74800000Y-76400000D01*
X99800000Y-24400000D02*
X100800000Y-24400000D01*
X99800000Y-25400000D02*
X99800000Y-24400000D01*
X99800000Y-38400000D02*
X99800000Y-37400000D01*
X100800000Y-38400000D02*
X99800000Y-38400000D01*
X112800000Y-24400000D02*
X113800000Y-24400000D01*
X113800000Y-24400000D02*
X113800000Y-25400000D01*
X113800000Y-37400000D02*
X113800000Y-38400000D01*
X113800000Y-38400000D02*
X112800000Y-38400000D01*
X99800000Y-62400000D02*
X100800000Y-62400000D01*
X99800000Y-63400000D02*
X99800000Y-62400000D01*
X99800000Y-76400000D02*
X99800000Y-75400000D01*
X100800000Y-76400000D02*
X99800000Y-76400000D01*
X112800000Y-62400000D02*
X113800000Y-62400000D01*
X113800000Y-62400000D02*
X113800000Y-63400000D01*
X113800000Y-75400000D02*
X113800000Y-76400000D01*
X113800000Y-76400000D02*
X112800000Y-76400000D01*
X137800000Y-62400000D02*
X138800000Y-62400000D01*
X137800000Y-63400000D02*
X137800000Y-62400000D01*
X137800000Y-76400000D02*
X137800000Y-75400000D01*
X138800000Y-76400000D02*
X137800000Y-76400000D01*
X150800000Y-62400000D02*
X151800000Y-62400000D01*
X151800000Y-62400000D02*
X151800000Y-63400000D01*
X151800000Y-75400000D02*
X151800000Y-76400000D01*
X151800000Y-76400000D02*
X150800000Y-76400000D01*
X80800000Y-24400000D02*
X81800000Y-24400000D01*
X80800000Y-25400000D02*
X80800000Y-24400000D01*
X80800000Y-38400000D02*
X80800000Y-37400000D01*
X81800000Y-38400000D02*
X80800000Y-38400000D01*
X93800000Y-24400000D02*
X94800000Y-24400000D01*
X94800000Y-24400000D02*
X94800000Y-25400000D01*
X94800000Y-37400000D02*
X94800000Y-38400000D01*
X94800000Y-38400000D02*
X93800000Y-38400000D01*
X118800000Y-24400000D02*
X119800000Y-24400000D01*
X118800000Y-25400000D02*
X118800000Y-24400000D01*
X118800000Y-38400000D02*
X118800000Y-37400000D01*
X119800000Y-38400000D02*
X118800000Y-38400000D01*
X131800000Y-24400000D02*
X132800000Y-24400000D01*
X132800000Y-24400000D02*
X132800000Y-25400000D01*
X132800000Y-37400000D02*
X132800000Y-38400000D01*
X132800000Y-38400000D02*
X131800000Y-38400000D01*
X99800000Y-43400000D02*
X100800000Y-43400000D01*
X99800000Y-44400000D02*
X99800000Y-43400000D01*
X99800000Y-57400000D02*
X99800000Y-56400000D01*
X100800000Y-57400000D02*
X99800000Y-57400000D01*
X112800000Y-43400000D02*
X113800000Y-43400000D01*
X113800000Y-43400000D02*
X113800000Y-44400000D01*
X113800000Y-56400000D02*
X113800000Y-57400000D01*
X113800000Y-57400000D02*
X112800000Y-57400000D01*
X61800000Y-43400000D02*
X62800000Y-43400000D01*
X61800000Y-44400000D02*
X61800000Y-43400000D01*
X61800000Y-57400000D02*
X61800000Y-56400000D01*
X62800000Y-57400000D02*
X61800000Y-57400000D01*
X74800000Y-43400000D02*
X75800000Y-43400000D01*
X75800000Y-43400000D02*
X75800000Y-44400000D01*
X75800000Y-56400000D02*
X75800000Y-57400000D01*
X75800000Y-57400000D02*
X74800000Y-57400000D01*
X118800000Y-43400000D02*
X119800000Y-43400000D01*
X118800000Y-44400000D02*
X118800000Y-43400000D01*
X118800000Y-57400000D02*
X118800000Y-56400000D01*
X119800000Y-57400000D02*
X118800000Y-57400000D01*
X131800000Y-43400000D02*
X132800000Y-43400000D01*
X132800000Y-43400000D02*
X132800000Y-44400000D01*
X132800000Y-56400000D02*
X132800000Y-57400000D01*
X132800000Y-57400000D02*
X131800000Y-57400000D01*
X42800000Y-24400000D02*
X43800000Y-24400000D01*
X42800000Y-25400000D02*
X42800000Y-24400000D01*
X42800000Y-38400000D02*
X42800000Y-37400000D01*
X43800000Y-38400000D02*
X42800000Y-38400000D01*
X55800000Y-24400000D02*
X56800000Y-24400000D01*
X56800000Y-24400000D02*
X56800000Y-25400000D01*
X56800000Y-37400000D02*
X56800000Y-38400000D01*
X56800000Y-38400000D02*
X55800000Y-38400000D01*
X61800000Y-24400000D02*
X62800000Y-24400000D01*
X61800000Y-25400000D02*
X61800000Y-24400000D01*
X61800000Y-38400000D02*
X61800000Y-37400000D01*
X62800000Y-38400000D02*
X61800000Y-38400000D01*
X74800000Y-24400000D02*
X75800000Y-24400000D01*
X75800000Y-24400000D02*
X75800000Y-25400000D01*
X75800000Y-37400000D02*
X75800000Y-38400000D01*
X75800000Y-38400000D02*
X74800000Y-38400000D01*
X42800000Y-62400000D02*
X43800000Y-62400000D01*
X42800000Y-63400000D02*
X42800000Y-62400000D01*
X42800000Y-76400000D02*
X42800000Y-75400000D01*
X43800000Y-76400000D02*
X42800000Y-76400000D01*
X55800000Y-62400000D02*
X56800000Y-62400000D01*
X56800000Y-62400000D02*
X56800000Y-63400000D01*
X56800000Y-75400000D02*
X56800000Y-76400000D01*
X56800000Y-76400000D02*
X55800000Y-76400000D01*
X80800000Y-62400000D02*
X81800000Y-62400000D01*
X80800000Y-63400000D02*
X80800000Y-62400000D01*
X80800000Y-76400000D02*
X80800000Y-75400000D01*
X81800000Y-76400000D02*
X80800000Y-76400000D01*
X93800000Y-62400000D02*
X94800000Y-62400000D01*
X94800000Y-62400000D02*
X94800000Y-63400000D01*
X94800000Y-75400000D02*
X94800000Y-76400000D01*
X94800000Y-76400000D02*
X93800000Y-76400000D01*
D12*
X137300000Y-44400000D02*
X152300000Y-44400000D01*
X137300000Y-57400000D02*
X137300000Y-44400000D01*
X152300000Y-44400000D02*
X152300000Y-57400000D01*
X152300000Y-57400000D02*
X137300000Y-57400000D01*
D13*
X23500000Y-36880000D03*
D14*
X23500000Y-39420000D03*
X23500000Y-41960000D03*
X23500000Y-44500000D03*
X23500000Y-47040000D03*
X23500000Y-49580000D03*
X23500000Y-52120000D03*
X23500000Y-54660000D03*
X23500000Y-57200000D03*
X23500000Y-59740000D03*
X23500000Y-62280000D03*
X23500000Y-64820000D03*
X38740000Y-36880000D03*
X38740000Y-39420000D03*
X38740000Y-41960000D03*
X38740000Y-44500000D03*
X38740000Y-47040000D03*
X38740000Y-49580000D03*
X38740000Y-52120000D03*
X38740000Y-54660000D03*
X38740000Y-57200000D03*
X38740000Y-59740000D03*
X38740000Y-62280000D03*
X38740000Y-64820000D03*
%LPC*%
D15*
X21250000Y-59250000D03*
D16*
X21250000Y-51630000D03*
D15*
X21250000Y-48500000D03*
D16*
X21250000Y-40880000D03*
X32250000Y-67250000D03*
X32250000Y-73750000D03*
X27750000Y-67250000D03*
X27750000Y-73750000D03*
X34250000Y-69500000D03*
X34250000Y-76000000D03*
X38750000Y-76000000D03*
X38750000Y-69500000D03*
D15*
X117300000Y-39770000D03*
D16*
X117300000Y-32150000D03*
D15*
X79300000Y-39770000D03*
D16*
X79300000Y-32150000D03*
D15*
X60300000Y-58770000D03*
D16*
X60300000Y-51150000D03*
D15*
X98300000Y-77770000D03*
D16*
X98300000Y-70150000D03*
D15*
X41300000Y-58770000D03*
D16*
X41300000Y-51150000D03*
D15*
X117300000Y-58770000D03*
D16*
X117300000Y-51150000D03*
D15*
X60300000Y-77770000D03*
D16*
X60300000Y-70150000D03*
D15*
X60300000Y-39770000D03*
D16*
X60300000Y-32150000D03*
D15*
X117300000Y-77770000D03*
D16*
X117300000Y-70150000D03*
D15*
X79300000Y-77770000D03*
D16*
X79300000Y-70150000D03*
D15*
X136300000Y-77770000D03*
D16*
X136300000Y-70150000D03*
D15*
X79300000Y-58770000D03*
D16*
X79300000Y-51150000D03*
D15*
X41300000Y-77770000D03*
D16*
X41300000Y-70150000D03*
D15*
X98300000Y-58770000D03*
D16*
X98300000Y-51150000D03*
D15*
X41300000Y-39770000D03*
D16*
X41300000Y-32150000D03*
D15*
X98300000Y-39770000D03*
D16*
X98300000Y-32150000D03*
D17*
X49800000Y-50400000D03*
D18*
X47200000Y-56150000D03*
D19*
X47260000Y-45320000D03*
X52340000Y-45320000D03*
D18*
X52400000Y-56150000D03*
X45400000Y-55100000D03*
D19*
X45990000Y-47860000D03*
X53610000Y-47860000D03*
D18*
X54200000Y-55100000D03*
X92200000Y-55100000D03*
D19*
X91610000Y-47860000D03*
X83990000Y-47860000D03*
D18*
X83400000Y-55100000D03*
X90400000Y-56150000D03*
D19*
X90340000Y-45320000D03*
X85260000Y-45320000D03*
D18*
X85200000Y-56150000D03*
D17*
X87800000Y-50400000D03*
X125800000Y-69400000D03*
D18*
X123200000Y-75150000D03*
D19*
X123260000Y-64320000D03*
X128340000Y-64320000D03*
D18*
X128400000Y-75150000D03*
X121400000Y-74100000D03*
D19*
X121990000Y-66860000D03*
X129610000Y-66860000D03*
D18*
X130200000Y-74100000D03*
D17*
X68800000Y-69400000D03*
D18*
X66200000Y-75150000D03*
D19*
X66260000Y-64320000D03*
X71340000Y-64320000D03*
D18*
X71400000Y-75150000D03*
X64400000Y-74100000D03*
D19*
X64990000Y-66860000D03*
X72610000Y-66860000D03*
D18*
X73200000Y-74100000D03*
D17*
X106800000Y-31400000D03*
D18*
X104200000Y-37150000D03*
D19*
X104260000Y-26320000D03*
X109340000Y-26320000D03*
D18*
X109400000Y-37150000D03*
X102400000Y-36100000D03*
D19*
X102990000Y-28860000D03*
X110610000Y-28860000D03*
D18*
X111200000Y-36100000D03*
D17*
X106800000Y-69400000D03*
D18*
X104200000Y-75150000D03*
D19*
X104260000Y-64320000D03*
X109340000Y-64320000D03*
D18*
X109400000Y-75150000D03*
X102400000Y-74100000D03*
D19*
X102990000Y-66860000D03*
X110610000Y-66860000D03*
D18*
X111200000Y-74100000D03*
D17*
X144800000Y-69400000D03*
D18*
X142200000Y-75150000D03*
D19*
X142260000Y-64320000D03*
X147340000Y-64320000D03*
D18*
X147400000Y-75150000D03*
X140400000Y-74100000D03*
D19*
X140990000Y-66860000D03*
X148610000Y-66860000D03*
D18*
X149200000Y-74100000D03*
D17*
X87800000Y-31400000D03*
D18*
X85200000Y-37150000D03*
D19*
X85260000Y-26320000D03*
X90340000Y-26320000D03*
D18*
X90400000Y-37150000D03*
X83400000Y-36100000D03*
D19*
X83990000Y-28860000D03*
X91610000Y-28860000D03*
D18*
X92200000Y-36100000D03*
D17*
X125800000Y-31400000D03*
D18*
X123200000Y-37150000D03*
D19*
X123260000Y-26320000D03*
X128340000Y-26320000D03*
D18*
X128400000Y-37150000D03*
X121400000Y-36100000D03*
D19*
X121990000Y-28860000D03*
X129610000Y-28860000D03*
D18*
X130200000Y-36100000D03*
D17*
X106800000Y-50400000D03*
D18*
X104200000Y-56150000D03*
D19*
X104260000Y-45320000D03*
X109340000Y-45320000D03*
D18*
X109400000Y-56150000D03*
X102400000Y-55100000D03*
D19*
X102990000Y-47860000D03*
X110610000Y-47860000D03*
D18*
X111200000Y-55100000D03*
D17*
X68800000Y-50400000D03*
D18*
X66200000Y-56150000D03*
D19*
X66260000Y-45320000D03*
X71340000Y-45320000D03*
D18*
X71400000Y-56150000D03*
X64400000Y-55100000D03*
D19*
X64990000Y-47860000D03*
X72610000Y-47860000D03*
D18*
X73200000Y-55100000D03*
D20*
X152300000Y-43300000D03*
D21*
X148300000Y-48300000D03*
X147300000Y-45800000D03*
X146300000Y-48300000D03*
X145300000Y-45800000D03*
X144300000Y-48300000D03*
X143300000Y-45800000D03*
X142300000Y-48300000D03*
X141300000Y-45800000D03*
D20*
X137300000Y-43300000D03*
D17*
X125800000Y-50400000D03*
D18*
X123200000Y-56150000D03*
D19*
X123260000Y-45320000D03*
X128340000Y-45320000D03*
D18*
X128400000Y-56150000D03*
X121400000Y-55100000D03*
D19*
X121990000Y-47860000D03*
X129610000Y-47860000D03*
D18*
X130200000Y-55100000D03*
D17*
X49800000Y-31400000D03*
D18*
X47200000Y-37150000D03*
D19*
X47260000Y-26320000D03*
X52340000Y-26320000D03*
D18*
X52400000Y-37150000D03*
X45400000Y-36100000D03*
D19*
X45990000Y-28860000D03*
X53610000Y-28860000D03*
D18*
X54200000Y-36100000D03*
D17*
X68800000Y-31400000D03*
D18*
X66200000Y-37150000D03*
D19*
X66260000Y-26320000D03*
X71340000Y-26320000D03*
D18*
X71400000Y-37150000D03*
X64400000Y-36100000D03*
D19*
X64990000Y-28860000D03*
X72610000Y-28860000D03*
D18*
X73200000Y-36100000D03*
D13*
X23500000Y-36880000D03*
D14*
X23500000Y-39420000D03*
X23500000Y-41960000D03*
X23500000Y-44500000D03*
X23500000Y-47040000D03*
X23500000Y-49580000D03*
X23500000Y-52120000D03*
X23500000Y-54660000D03*
X23500000Y-57200000D03*
X23500000Y-59740000D03*
X23500000Y-62280000D03*
X23500000Y-64820000D03*
X38740000Y-36880000D03*
X38740000Y-39420000D03*
X38740000Y-41960000D03*
X38740000Y-44500000D03*
X38740000Y-47040000D03*
X38740000Y-49580000D03*
X38740000Y-52120000D03*
X38740000Y-54660000D03*
X38740000Y-57200000D03*
X38740000Y-59740000D03*
X38740000Y-62280000D03*
X38740000Y-64820000D03*
D17*
X49800000Y-69400000D03*
D18*
X47200000Y-75150000D03*
D19*
X47260000Y-64320000D03*
X52340000Y-64320000D03*
D18*
X52400000Y-75150000D03*
X45400000Y-74100000D03*
D19*
X45990000Y-66860000D03*
X53610000Y-66860000D03*
D18*
X54200000Y-74100000D03*
D17*
X87800000Y-69400000D03*
D18*
X85200000Y-75150000D03*
D19*
X85260000Y-64320000D03*
X90340000Y-64320000D03*
D18*
X90400000Y-75150000D03*
X83400000Y-74100000D03*
D19*
X83990000Y-66860000D03*
X91610000Y-66860000D03*
D18*
X92200000Y-74100000D03*
D20*
X137300000Y-50400000D03*
D21*
X141300000Y-55400000D03*
X142300000Y-52900000D03*
X143300000Y-55400000D03*
X144300000Y-52900000D03*
X145300000Y-55400000D03*
X146300000Y-52900000D03*
X147300000Y-55400000D03*
X148300000Y-52900000D03*
D20*
X152300000Y-50400000D03*
%LPD*%
M02*
