%TF.GenerationSoftware,KiCad,Pcbnew,7.0.7*%
%TF.CreationDate,2023-09-30T21:05:03+10:00*%
%TF.ProjectId,skink,736b696e-6b2e-46b6-9963-61645f706362,rev?*%
%TF.SameCoordinates,Original*%
%TF.FileFunction,Drillmap*%
%TF.FilePolarity,Positive*%
%FSLAX45Y45*%
G04 Gerber Fmt 4.5, Leading zero omitted, Abs format (unit mm)*
G04 Created by KiCad (PCBNEW 7.0.7) date 2023-09-30 21:05:03*
%MOMM*%
%LPD*%
G01*
G04 APERTURE LIST*
%ADD10C,0.100000*%
%ADD11C,0.200000*%
%ADD12C,0.080000*%
%ADD13C,0.109220*%
%ADD14C,0.120000*%
%ADD15C,0.149860*%
G04 APERTURE END LIST*
D10*
X2030000Y-4090000D02*
X2030000Y-5990000D01*
X15430000Y-2190000D02*
G75*
G03*
X15330000Y-2090000I-100000J0D01*
G01*
X15430000Y-2190000D02*
X15430000Y-7890000D01*
X4030000Y-7990000D02*
X15330000Y-7990000D01*
X4030000Y-2090000D02*
X15330000Y-2090000D01*
X2030000Y-5990000D02*
G75*
G03*
X4030000Y-7990000I2000000J0D01*
G01*
X4030000Y-2090000D02*
G75*
G03*
X2030000Y-4090000I0J-2000000D01*
G01*
X15330000Y-7990000D02*
G75*
G03*
X15430000Y-7890000I0J100000D01*
G01*
D11*
D12*
X2085000Y-4048000D02*
X2165000Y-4128000D01*
X2165000Y-4048000D02*
X2085000Y-4128000D01*
X2085000Y-4810000D02*
X2165000Y-4890000D01*
X2165000Y-4810000D02*
X2085000Y-4890000D01*
X2085000Y-5123000D02*
X2165000Y-5203000D01*
X2165000Y-5123000D02*
X2085000Y-5203000D01*
X2085000Y-5885000D02*
X2165000Y-5965000D01*
X2165000Y-5885000D02*
X2085000Y-5965000D01*
X2735000Y-6685000D02*
X2815000Y-6765000D01*
X2815000Y-6685000D02*
X2735000Y-6765000D01*
X2735000Y-7335000D02*
X2815000Y-7415000D01*
X2815000Y-7335000D02*
X2735000Y-7415000D01*
X3185000Y-6685000D02*
X3265000Y-6765000D01*
X3265000Y-6685000D02*
X3185000Y-6765000D01*
X3185000Y-7335000D02*
X3265000Y-7415000D01*
X3265000Y-7335000D02*
X3185000Y-7415000D01*
X3385000Y-6910000D02*
X3465000Y-6990000D01*
X3465000Y-6910000D02*
X3385000Y-6990000D01*
X3385000Y-7560000D02*
X3465000Y-7640000D01*
X3465000Y-7560000D02*
X3385000Y-7640000D01*
X3835000Y-6910000D02*
X3915000Y-6990000D01*
X3915000Y-6910000D02*
X3835000Y-6990000D01*
X3835000Y-7560000D02*
X3915000Y-7640000D01*
X3915000Y-7560000D02*
X3835000Y-7640000D01*
X4090000Y-3175000D02*
X4170000Y-3255000D01*
X4170000Y-3175000D02*
X4090000Y-3255000D01*
X4090000Y-3937000D02*
X4170000Y-4017000D01*
X4170000Y-3937000D02*
X4090000Y-4017000D01*
X4090000Y-5075000D02*
X4170000Y-5155000D01*
X4170000Y-5075000D02*
X4090000Y-5155000D01*
X4090000Y-5837000D02*
X4170000Y-5917000D01*
X4170000Y-5837000D02*
X4090000Y-5917000D01*
X4090000Y-6975000D02*
X4170000Y-7055000D01*
X4170000Y-6975000D02*
X4090000Y-7055000D01*
X4090000Y-7737000D02*
X4170000Y-7817000D01*
X4170000Y-7737000D02*
X4090000Y-7817000D01*
X5990000Y-3175000D02*
X6070000Y-3255000D01*
X6070000Y-3175000D02*
X5990000Y-3255000D01*
X5990000Y-3937000D02*
X6070000Y-4017000D01*
X6070000Y-3937000D02*
X5990000Y-4017000D01*
X5990000Y-5075000D02*
X6070000Y-5155000D01*
X6070000Y-5075000D02*
X5990000Y-5155000D01*
X5990000Y-5837000D02*
X6070000Y-5917000D01*
X6070000Y-5837000D02*
X5990000Y-5917000D01*
X5990000Y-6975000D02*
X6070000Y-7055000D01*
X6070000Y-6975000D02*
X5990000Y-7055000D01*
X5990000Y-7737000D02*
X6070000Y-7817000D01*
X6070000Y-7737000D02*
X5990000Y-7817000D01*
X7890000Y-3175000D02*
X7970000Y-3255000D01*
X7970000Y-3175000D02*
X7890000Y-3255000D01*
X7890000Y-3937000D02*
X7970000Y-4017000D01*
X7970000Y-3937000D02*
X7890000Y-4017000D01*
X7890000Y-5075000D02*
X7970000Y-5155000D01*
X7970000Y-5075000D02*
X7890000Y-5155000D01*
X7890000Y-5837000D02*
X7970000Y-5917000D01*
X7970000Y-5837000D02*
X7890000Y-5917000D01*
X7890000Y-6975000D02*
X7970000Y-7055000D01*
X7970000Y-6975000D02*
X7890000Y-7055000D01*
X7890000Y-7737000D02*
X7970000Y-7817000D01*
X7970000Y-7737000D02*
X7890000Y-7817000D01*
X9790000Y-3175000D02*
X9870000Y-3255000D01*
X9870000Y-3175000D02*
X9790000Y-3255000D01*
X9790000Y-3937000D02*
X9870000Y-4017000D01*
X9870000Y-3937000D02*
X9790000Y-4017000D01*
X9790000Y-5075000D02*
X9870000Y-5155000D01*
X9870000Y-5075000D02*
X9790000Y-5155000D01*
X9790000Y-5837000D02*
X9870000Y-5917000D01*
X9870000Y-5837000D02*
X9790000Y-5917000D01*
X9790000Y-6975000D02*
X9870000Y-7055000D01*
X9870000Y-6975000D02*
X9790000Y-7055000D01*
X9790000Y-7737000D02*
X9870000Y-7817000D01*
X9870000Y-7737000D02*
X9790000Y-7817000D01*
X11690000Y-3175000D02*
X11770000Y-3255000D01*
X11770000Y-3175000D02*
X11690000Y-3255000D01*
X11690000Y-3937000D02*
X11770000Y-4017000D01*
X11770000Y-3937000D02*
X11690000Y-4017000D01*
X11690000Y-5075000D02*
X11770000Y-5155000D01*
X11770000Y-5075000D02*
X11690000Y-5155000D01*
X11690000Y-5837000D02*
X11770000Y-5917000D01*
X11770000Y-5837000D02*
X11690000Y-5917000D01*
X11690000Y-6975000D02*
X11770000Y-7055000D01*
X11770000Y-6975000D02*
X11690000Y-7055000D01*
X11690000Y-7737000D02*
X11770000Y-7817000D01*
X11770000Y-7737000D02*
X11690000Y-7817000D01*
X13590000Y-6975000D02*
X13670000Y-7055000D01*
X13670000Y-6975000D02*
X13590000Y-7055000D01*
X13590000Y-7737000D02*
X13670000Y-7817000D01*
X13670000Y-7737000D02*
X13590000Y-7817000D01*
D10*
X14180000Y-4580000D02*
G75*
G03*
X14180000Y-4580000I-50000J0D01*
G01*
X14180000Y-5540000D02*
G75*
G03*
X14180000Y-5540000I-50000J0D01*
G01*
X14280000Y-4830000D02*
G75*
G03*
X14280000Y-4830000I-50000J0D01*
G01*
X14280000Y-5290000D02*
G75*
G03*
X14280000Y-5290000I-50000J0D01*
G01*
X14380000Y-4580000D02*
G75*
G03*
X14380000Y-4580000I-50000J0D01*
G01*
X14380000Y-5540000D02*
G75*
G03*
X14380000Y-5540000I-50000J0D01*
G01*
X14480000Y-4830000D02*
G75*
G03*
X14480000Y-4830000I-50000J0D01*
G01*
X14480000Y-5290000D02*
G75*
G03*
X14480000Y-5290000I-50000J0D01*
G01*
X14580000Y-4580000D02*
G75*
G03*
X14580000Y-4580000I-50000J0D01*
G01*
X14580000Y-5540000D02*
G75*
G03*
X14580000Y-5540000I-50000J0D01*
G01*
X14680000Y-4830000D02*
G75*
G03*
X14680000Y-4830000I-50000J0D01*
G01*
X14680000Y-5290000D02*
G75*
G03*
X14680000Y-5290000I-50000J0D01*
G01*
X14780000Y-4580000D02*
G75*
G03*
X14780000Y-4580000I-50000J0D01*
G01*
X14780000Y-5540000D02*
G75*
G03*
X14780000Y-5540000I-50000J0D01*
G01*
X14880000Y-4830000D02*
G75*
G03*
X14880000Y-4830000I-50000J0D01*
G01*
X14880000Y-5290000D02*
G75*
G03*
X14880000Y-5290000I-50000J0D01*
G01*
D13*
X2350000Y-3633390D02*
X2350000Y-3742610D01*
X2295390Y-3688000D02*
X2404610Y-3688000D01*
X2350000Y-3887390D02*
X2350000Y-3996610D01*
X2295390Y-3942000D02*
X2404610Y-3942000D01*
X2350000Y-4141390D02*
X2350000Y-4250610D01*
X2295390Y-4196000D02*
X2404610Y-4196000D01*
X2350000Y-4395390D02*
X2350000Y-4504610D01*
X2295390Y-4450000D02*
X2404610Y-4450000D01*
X2350000Y-4649390D02*
X2350000Y-4758610D01*
X2295390Y-4704000D02*
X2404610Y-4704000D01*
X2350000Y-4903390D02*
X2350000Y-5012610D01*
X2295390Y-4958000D02*
X2404610Y-4958000D01*
X2350000Y-5157390D02*
X2350000Y-5266610D01*
X2295390Y-5212000D02*
X2404610Y-5212000D01*
X2350000Y-5411390D02*
X2350000Y-5520610D01*
X2295390Y-5466000D02*
X2404610Y-5466000D01*
X2350000Y-5665390D02*
X2350000Y-5774610D01*
X2295390Y-5720000D02*
X2404610Y-5720000D01*
X2350000Y-5919390D02*
X2350000Y-6028610D01*
X2295390Y-5974000D02*
X2404610Y-5974000D01*
X2350000Y-6173390D02*
X2350000Y-6282610D01*
X2295390Y-6228000D02*
X2404610Y-6228000D01*
X2350000Y-6427390D02*
X2350000Y-6536610D01*
X2295390Y-6482000D02*
X2404610Y-6482000D01*
X3874000Y-3633390D02*
X3874000Y-3742610D01*
X3819390Y-3688000D02*
X3928610Y-3688000D01*
X3874000Y-3887390D02*
X3874000Y-3996610D01*
X3819390Y-3942000D02*
X3928610Y-3942000D01*
X3874000Y-4141390D02*
X3874000Y-4250610D01*
X3819390Y-4196000D02*
X3928610Y-4196000D01*
X3874000Y-4395390D02*
X3874000Y-4504610D01*
X3819390Y-4450000D02*
X3928610Y-4450000D01*
X3874000Y-4649390D02*
X3874000Y-4758610D01*
X3819390Y-4704000D02*
X3928610Y-4704000D01*
X3874000Y-4903390D02*
X3874000Y-5012610D01*
X3819390Y-4958000D02*
X3928610Y-4958000D01*
X3874000Y-5157390D02*
X3874000Y-5266610D01*
X3819390Y-5212000D02*
X3928610Y-5212000D01*
X3874000Y-5411390D02*
X3874000Y-5520610D01*
X3819390Y-5466000D02*
X3928610Y-5466000D01*
X3874000Y-5665390D02*
X3874000Y-5774610D01*
X3819390Y-5720000D02*
X3928610Y-5720000D01*
X3874000Y-5919390D02*
X3874000Y-6028610D01*
X3819390Y-5974000D02*
X3928610Y-5974000D01*
X3874000Y-6173390D02*
X3874000Y-6282610D01*
X3819390Y-6228000D02*
X3928610Y-6228000D01*
X3874000Y-6427390D02*
X3874000Y-6536610D01*
X3819390Y-6482000D02*
X3928610Y-6482000D01*
D14*
X4582427Y-3652427D02*
X4582427Y-3567573D01*
X4497573Y-3567573D01*
X4497573Y-3652427D01*
X4582427Y-3652427D01*
X4582427Y-5552427D02*
X4582427Y-5467573D01*
X4497573Y-5467573D01*
X4497573Y-5552427D01*
X4582427Y-5552427D01*
X4582427Y-7452427D02*
X4582427Y-7367573D01*
X4497573Y-7367573D01*
X4497573Y-7452427D01*
X4582427Y-7452427D01*
X4762427Y-3757427D02*
X4762427Y-3672573D01*
X4677573Y-3672573D01*
X4677573Y-3757427D01*
X4762427Y-3757427D01*
X4762427Y-5657427D02*
X4762427Y-5572573D01*
X4677573Y-5572573D01*
X4677573Y-5657427D01*
X4762427Y-5657427D01*
X4762427Y-7557427D02*
X4762427Y-7472573D01*
X4677573Y-7472573D01*
X4677573Y-7557427D01*
X4762427Y-7557427D01*
X5282427Y-3757427D02*
X5282427Y-3672573D01*
X5197573Y-3672573D01*
X5197573Y-3757427D01*
X5282427Y-3757427D01*
X5282427Y-5657427D02*
X5282427Y-5572573D01*
X5197573Y-5572573D01*
X5197573Y-5657427D01*
X5282427Y-5657427D01*
X5282427Y-7557427D02*
X5282427Y-7472573D01*
X5197573Y-7472573D01*
X5197573Y-7557427D01*
X5282427Y-7557427D01*
X5462427Y-3652427D02*
X5462427Y-3567573D01*
X5377573Y-3567573D01*
X5377573Y-3652427D01*
X5462427Y-3652427D01*
X5462427Y-5552427D02*
X5462427Y-5467573D01*
X5377573Y-5467573D01*
X5377573Y-5552427D01*
X5462427Y-5552427D01*
X5462427Y-7452427D02*
X5462427Y-7367573D01*
X5377573Y-7367573D01*
X5377573Y-7452427D01*
X5462427Y-7452427D01*
X6482427Y-3652427D02*
X6482427Y-3567573D01*
X6397573Y-3567573D01*
X6397573Y-3652427D01*
X6482427Y-3652427D01*
X6482427Y-5552427D02*
X6482427Y-5467573D01*
X6397573Y-5467573D01*
X6397573Y-5552427D01*
X6482427Y-5552427D01*
X6482427Y-7452427D02*
X6482427Y-7367573D01*
X6397573Y-7367573D01*
X6397573Y-7452427D01*
X6482427Y-7452427D01*
X6662427Y-3757427D02*
X6662427Y-3672573D01*
X6577573Y-3672573D01*
X6577573Y-3757427D01*
X6662427Y-3757427D01*
X6662427Y-5657427D02*
X6662427Y-5572573D01*
X6577573Y-5572573D01*
X6577573Y-5657427D01*
X6662427Y-5657427D01*
X6662427Y-7557427D02*
X6662427Y-7472573D01*
X6577573Y-7472573D01*
X6577573Y-7557427D01*
X6662427Y-7557427D01*
X7182427Y-3757427D02*
X7182427Y-3672573D01*
X7097573Y-3672573D01*
X7097573Y-3757427D01*
X7182427Y-3757427D01*
X7182427Y-5657427D02*
X7182427Y-5572573D01*
X7097573Y-5572573D01*
X7097573Y-5657427D01*
X7182427Y-5657427D01*
X7182427Y-7557427D02*
X7182427Y-7472573D01*
X7097573Y-7472573D01*
X7097573Y-7557427D01*
X7182427Y-7557427D01*
X7362427Y-3652427D02*
X7362427Y-3567573D01*
X7277573Y-3567573D01*
X7277573Y-3652427D01*
X7362427Y-3652427D01*
X7362427Y-5552427D02*
X7362427Y-5467573D01*
X7277573Y-5467573D01*
X7277573Y-5552427D01*
X7362427Y-5552427D01*
X7362427Y-7452427D02*
X7362427Y-7367573D01*
X7277573Y-7367573D01*
X7277573Y-7452427D01*
X7362427Y-7452427D01*
X8382427Y-3652427D02*
X8382427Y-3567573D01*
X8297573Y-3567573D01*
X8297573Y-3652427D01*
X8382427Y-3652427D01*
X8382427Y-5552427D02*
X8382427Y-5467573D01*
X8297573Y-5467573D01*
X8297573Y-5552427D01*
X8382427Y-5552427D01*
X8382427Y-7452427D02*
X8382427Y-7367573D01*
X8297573Y-7367573D01*
X8297573Y-7452427D01*
X8382427Y-7452427D01*
X8562427Y-3757427D02*
X8562427Y-3672573D01*
X8477573Y-3672573D01*
X8477573Y-3757427D01*
X8562427Y-3757427D01*
X8562427Y-5657427D02*
X8562427Y-5572573D01*
X8477573Y-5572573D01*
X8477573Y-5657427D01*
X8562427Y-5657427D01*
X8562427Y-7557427D02*
X8562427Y-7472573D01*
X8477573Y-7472573D01*
X8477573Y-7557427D01*
X8562427Y-7557427D01*
X9082427Y-3757427D02*
X9082427Y-3672573D01*
X8997573Y-3672573D01*
X8997573Y-3757427D01*
X9082427Y-3757427D01*
X9082427Y-5657427D02*
X9082427Y-5572573D01*
X8997573Y-5572573D01*
X8997573Y-5657427D01*
X9082427Y-5657427D01*
X9082427Y-7557427D02*
X9082427Y-7472573D01*
X8997573Y-7472573D01*
X8997573Y-7557427D01*
X9082427Y-7557427D01*
X9262427Y-3652427D02*
X9262427Y-3567573D01*
X9177573Y-3567573D01*
X9177573Y-3652427D01*
X9262427Y-3652427D01*
X9262427Y-5552427D02*
X9262427Y-5467573D01*
X9177573Y-5467573D01*
X9177573Y-5552427D01*
X9262427Y-5552427D01*
X9262427Y-7452427D02*
X9262427Y-7367573D01*
X9177573Y-7367573D01*
X9177573Y-7452427D01*
X9262427Y-7452427D01*
X10282427Y-3652427D02*
X10282427Y-3567573D01*
X10197573Y-3567573D01*
X10197573Y-3652427D01*
X10282427Y-3652427D01*
X10282427Y-5552427D02*
X10282427Y-5467573D01*
X10197573Y-5467573D01*
X10197573Y-5552427D01*
X10282427Y-5552427D01*
X10282427Y-7452427D02*
X10282427Y-7367573D01*
X10197573Y-7367573D01*
X10197573Y-7452427D01*
X10282427Y-7452427D01*
X10462427Y-3757427D02*
X10462427Y-3672573D01*
X10377573Y-3672573D01*
X10377573Y-3757427D01*
X10462427Y-3757427D01*
X10462427Y-5657427D02*
X10462427Y-5572573D01*
X10377573Y-5572573D01*
X10377573Y-5657427D01*
X10462427Y-5657427D01*
X10462427Y-7557427D02*
X10462427Y-7472573D01*
X10377573Y-7472573D01*
X10377573Y-7557427D01*
X10462427Y-7557427D01*
X10982427Y-3757427D02*
X10982427Y-3672573D01*
X10897573Y-3672573D01*
X10897573Y-3757427D01*
X10982427Y-3757427D01*
X10982427Y-5657427D02*
X10982427Y-5572573D01*
X10897573Y-5572573D01*
X10897573Y-5657427D01*
X10982427Y-5657427D01*
X10982427Y-7557427D02*
X10982427Y-7472573D01*
X10897573Y-7472573D01*
X10897573Y-7557427D01*
X10982427Y-7557427D01*
X11162427Y-3652427D02*
X11162427Y-3567573D01*
X11077573Y-3567573D01*
X11077573Y-3652427D01*
X11162427Y-3652427D01*
X11162427Y-5552427D02*
X11162427Y-5467573D01*
X11077573Y-5467573D01*
X11077573Y-5552427D01*
X11162427Y-5552427D01*
X11162427Y-7452427D02*
X11162427Y-7367573D01*
X11077573Y-7367573D01*
X11077573Y-7452427D01*
X11162427Y-7452427D01*
X12182427Y-3652427D02*
X12182427Y-3567573D01*
X12097573Y-3567573D01*
X12097573Y-3652427D01*
X12182427Y-3652427D01*
X12182427Y-5552427D02*
X12182427Y-5467573D01*
X12097573Y-5467573D01*
X12097573Y-5552427D01*
X12182427Y-5552427D01*
X12182427Y-7452427D02*
X12182427Y-7367573D01*
X12097573Y-7367573D01*
X12097573Y-7452427D01*
X12182427Y-7452427D01*
X12362427Y-3757427D02*
X12362427Y-3672573D01*
X12277573Y-3672573D01*
X12277573Y-3757427D01*
X12362427Y-3757427D01*
X12362427Y-5657427D02*
X12362427Y-5572573D01*
X12277573Y-5572573D01*
X12277573Y-5657427D01*
X12362427Y-5657427D01*
X12362427Y-7557427D02*
X12362427Y-7472573D01*
X12277573Y-7472573D01*
X12277573Y-7557427D01*
X12362427Y-7557427D01*
X12882427Y-3757427D02*
X12882427Y-3672573D01*
X12797573Y-3672573D01*
X12797573Y-3757427D01*
X12882427Y-3757427D01*
X12882427Y-5657427D02*
X12882427Y-5572573D01*
X12797573Y-5572573D01*
X12797573Y-5657427D01*
X12882427Y-5657427D01*
X12882427Y-7557427D02*
X12882427Y-7472573D01*
X12797573Y-7472573D01*
X12797573Y-7557427D01*
X12882427Y-7557427D01*
X13062427Y-3652427D02*
X13062427Y-3567573D01*
X12977573Y-3567573D01*
X12977573Y-3652427D01*
X13062427Y-3652427D01*
X13062427Y-5552427D02*
X13062427Y-5467573D01*
X12977573Y-5467573D01*
X12977573Y-5552427D01*
X13062427Y-5552427D01*
X13062427Y-7452427D02*
X13062427Y-7367573D01*
X12977573Y-7367573D01*
X12977573Y-7452427D01*
X13062427Y-7452427D01*
X14082427Y-7452427D02*
X14082427Y-7367573D01*
X13997573Y-7367573D01*
X13997573Y-7452427D01*
X14082427Y-7452427D01*
X14262427Y-7557427D02*
X14262427Y-7472573D01*
X14177573Y-7472573D01*
X14177573Y-7557427D01*
X14262427Y-7557427D01*
X14782427Y-7557427D02*
X14782427Y-7472573D01*
X14697573Y-7472573D01*
X14697573Y-7557427D01*
X14782427Y-7557427D01*
X14962427Y-7452427D02*
X14962427Y-7367573D01*
X14877573Y-7367573D01*
X14877573Y-7452427D01*
X14962427Y-7452427D01*
D15*
X4599000Y-2960930D02*
X4673930Y-2886000D01*
X4599000Y-2811070D01*
X4524070Y-2886000D01*
X4599000Y-2960930D01*
X4599000Y-4860930D02*
X4673930Y-4786000D01*
X4599000Y-4711070D01*
X4524070Y-4786000D01*
X4599000Y-4860930D01*
X4599000Y-6760930D02*
X4673930Y-6686000D01*
X4599000Y-6611070D01*
X4524070Y-6686000D01*
X4599000Y-6760930D01*
X4726000Y-2706930D02*
X4800930Y-2632000D01*
X4726000Y-2557070D01*
X4651070Y-2632000D01*
X4726000Y-2706930D01*
X4726000Y-4606930D02*
X4800930Y-4532000D01*
X4726000Y-4457070D01*
X4651070Y-4532000D01*
X4726000Y-4606930D01*
X4726000Y-6506930D02*
X4800930Y-6432000D01*
X4726000Y-6357070D01*
X4651070Y-6432000D01*
X4726000Y-6506930D01*
X5234000Y-2706930D02*
X5308930Y-2632000D01*
X5234000Y-2557070D01*
X5159070Y-2632000D01*
X5234000Y-2706930D01*
X5234000Y-4606930D02*
X5308930Y-4532000D01*
X5234000Y-4457070D01*
X5159070Y-4532000D01*
X5234000Y-4606930D01*
X5234000Y-6506930D02*
X5308930Y-6432000D01*
X5234000Y-6357070D01*
X5159070Y-6432000D01*
X5234000Y-6506930D01*
X5361000Y-2960930D02*
X5435930Y-2886000D01*
X5361000Y-2811070D01*
X5286070Y-2886000D01*
X5361000Y-2960930D01*
X5361000Y-4860930D02*
X5435930Y-4786000D01*
X5361000Y-4711070D01*
X5286070Y-4786000D01*
X5361000Y-4860930D01*
X5361000Y-6760930D02*
X5435930Y-6686000D01*
X5361000Y-6611070D01*
X5286070Y-6686000D01*
X5361000Y-6760930D01*
X6499000Y-2960930D02*
X6573930Y-2886000D01*
X6499000Y-2811070D01*
X6424070Y-2886000D01*
X6499000Y-2960930D01*
X6499000Y-4860930D02*
X6573930Y-4786000D01*
X6499000Y-4711070D01*
X6424070Y-4786000D01*
X6499000Y-4860930D01*
X6499000Y-6760930D02*
X6573930Y-6686000D01*
X6499000Y-6611070D01*
X6424070Y-6686000D01*
X6499000Y-6760930D01*
X6626000Y-2706930D02*
X6700930Y-2632000D01*
X6626000Y-2557070D01*
X6551070Y-2632000D01*
X6626000Y-2706930D01*
X6626000Y-4606930D02*
X6700930Y-4532000D01*
X6626000Y-4457070D01*
X6551070Y-4532000D01*
X6626000Y-4606930D01*
X6626000Y-6506930D02*
X6700930Y-6432000D01*
X6626000Y-6357070D01*
X6551070Y-6432000D01*
X6626000Y-6506930D01*
X7134000Y-2706930D02*
X7208930Y-2632000D01*
X7134000Y-2557070D01*
X7059070Y-2632000D01*
X7134000Y-2706930D01*
X7134000Y-4606930D02*
X7208930Y-4532000D01*
X7134000Y-4457070D01*
X7059070Y-4532000D01*
X7134000Y-4606930D01*
X7134000Y-6506930D02*
X7208930Y-6432000D01*
X7134000Y-6357070D01*
X7059070Y-6432000D01*
X7134000Y-6506930D01*
X7261000Y-2960930D02*
X7335930Y-2886000D01*
X7261000Y-2811070D01*
X7186070Y-2886000D01*
X7261000Y-2960930D01*
X7261000Y-4860930D02*
X7335930Y-4786000D01*
X7261000Y-4711070D01*
X7186070Y-4786000D01*
X7261000Y-4860930D01*
X7261000Y-6760930D02*
X7335930Y-6686000D01*
X7261000Y-6611070D01*
X7186070Y-6686000D01*
X7261000Y-6760930D01*
X8399000Y-2960930D02*
X8473930Y-2886000D01*
X8399000Y-2811070D01*
X8324070Y-2886000D01*
X8399000Y-2960930D01*
X8399000Y-4860930D02*
X8473930Y-4786000D01*
X8399000Y-4711070D01*
X8324070Y-4786000D01*
X8399000Y-4860930D01*
X8399000Y-6760930D02*
X8473930Y-6686000D01*
X8399000Y-6611070D01*
X8324070Y-6686000D01*
X8399000Y-6760930D01*
X8526000Y-2706930D02*
X8600930Y-2632000D01*
X8526000Y-2557070D01*
X8451070Y-2632000D01*
X8526000Y-2706930D01*
X8526000Y-4606930D02*
X8600930Y-4532000D01*
X8526000Y-4457070D01*
X8451070Y-4532000D01*
X8526000Y-4606930D01*
X8526000Y-6506930D02*
X8600930Y-6432000D01*
X8526000Y-6357070D01*
X8451070Y-6432000D01*
X8526000Y-6506930D01*
X9034000Y-2706930D02*
X9108930Y-2632000D01*
X9034000Y-2557070D01*
X8959070Y-2632000D01*
X9034000Y-2706930D01*
X9034000Y-4606930D02*
X9108930Y-4532000D01*
X9034000Y-4457070D01*
X8959070Y-4532000D01*
X9034000Y-4606930D01*
X9034000Y-6506930D02*
X9108930Y-6432000D01*
X9034000Y-6357070D01*
X8959070Y-6432000D01*
X9034000Y-6506930D01*
X9161000Y-2960930D02*
X9235930Y-2886000D01*
X9161000Y-2811070D01*
X9086070Y-2886000D01*
X9161000Y-2960930D01*
X9161000Y-4860930D02*
X9235930Y-4786000D01*
X9161000Y-4711070D01*
X9086070Y-4786000D01*
X9161000Y-4860930D01*
X9161000Y-6760930D02*
X9235930Y-6686000D01*
X9161000Y-6611070D01*
X9086070Y-6686000D01*
X9161000Y-6760930D01*
X10299000Y-2960930D02*
X10373930Y-2886000D01*
X10299000Y-2811070D01*
X10224070Y-2886000D01*
X10299000Y-2960930D01*
X10299000Y-4860930D02*
X10373930Y-4786000D01*
X10299000Y-4711070D01*
X10224070Y-4786000D01*
X10299000Y-4860930D01*
X10299000Y-6760930D02*
X10373930Y-6686000D01*
X10299000Y-6611070D01*
X10224070Y-6686000D01*
X10299000Y-6760930D01*
X10426000Y-2706930D02*
X10500930Y-2632000D01*
X10426000Y-2557070D01*
X10351070Y-2632000D01*
X10426000Y-2706930D01*
X10426000Y-4606930D02*
X10500930Y-4532000D01*
X10426000Y-4457070D01*
X10351070Y-4532000D01*
X10426000Y-4606930D01*
X10426000Y-6506930D02*
X10500930Y-6432000D01*
X10426000Y-6357070D01*
X10351070Y-6432000D01*
X10426000Y-6506930D01*
X10934000Y-2706930D02*
X11008930Y-2632000D01*
X10934000Y-2557070D01*
X10859070Y-2632000D01*
X10934000Y-2706930D01*
X10934000Y-4606930D02*
X11008930Y-4532000D01*
X10934000Y-4457070D01*
X10859070Y-4532000D01*
X10934000Y-4606930D01*
X10934000Y-6506930D02*
X11008930Y-6432000D01*
X10934000Y-6357070D01*
X10859070Y-6432000D01*
X10934000Y-6506930D01*
X11061000Y-2960930D02*
X11135930Y-2886000D01*
X11061000Y-2811070D01*
X10986070Y-2886000D01*
X11061000Y-2960930D01*
X11061000Y-4860930D02*
X11135930Y-4786000D01*
X11061000Y-4711070D01*
X10986070Y-4786000D01*
X11061000Y-4860930D01*
X11061000Y-6760930D02*
X11135930Y-6686000D01*
X11061000Y-6611070D01*
X10986070Y-6686000D01*
X11061000Y-6760930D01*
X12199000Y-2960930D02*
X12273930Y-2886000D01*
X12199000Y-2811070D01*
X12124070Y-2886000D01*
X12199000Y-2960930D01*
X12199000Y-4860930D02*
X12273930Y-4786000D01*
X12199000Y-4711070D01*
X12124070Y-4786000D01*
X12199000Y-4860930D01*
X12199000Y-6760930D02*
X12273930Y-6686000D01*
X12199000Y-6611070D01*
X12124070Y-6686000D01*
X12199000Y-6760930D01*
X12326000Y-2706930D02*
X12400930Y-2632000D01*
X12326000Y-2557070D01*
X12251070Y-2632000D01*
X12326000Y-2706930D01*
X12326000Y-4606930D02*
X12400930Y-4532000D01*
X12326000Y-4457070D01*
X12251070Y-4532000D01*
X12326000Y-4606930D01*
X12326000Y-6506930D02*
X12400930Y-6432000D01*
X12326000Y-6357070D01*
X12251070Y-6432000D01*
X12326000Y-6506930D01*
X12834000Y-2706930D02*
X12908930Y-2632000D01*
X12834000Y-2557070D01*
X12759070Y-2632000D01*
X12834000Y-2706930D01*
X12834000Y-4606930D02*
X12908930Y-4532000D01*
X12834000Y-4457070D01*
X12759070Y-4532000D01*
X12834000Y-4606930D01*
X12834000Y-6506930D02*
X12908930Y-6432000D01*
X12834000Y-6357070D01*
X12759070Y-6432000D01*
X12834000Y-6506930D01*
X12961000Y-2960930D02*
X13035930Y-2886000D01*
X12961000Y-2811070D01*
X12886070Y-2886000D01*
X12961000Y-2960930D01*
X12961000Y-4860930D02*
X13035930Y-4786000D01*
X12961000Y-4711070D01*
X12886070Y-4786000D01*
X12961000Y-4860930D01*
X12961000Y-6760930D02*
X13035930Y-6686000D01*
X12961000Y-6611070D01*
X12886070Y-6686000D01*
X12961000Y-6760930D01*
X14099000Y-6760930D02*
X14173930Y-6686000D01*
X14099000Y-6611070D01*
X14024070Y-6686000D01*
X14099000Y-6760930D01*
X14226000Y-6506930D02*
X14300930Y-6432000D01*
X14226000Y-6357070D01*
X14151070Y-6432000D01*
X14226000Y-6506930D01*
X14734000Y-6506930D02*
X14808930Y-6432000D01*
X14734000Y-6357070D01*
X14659070Y-6432000D01*
X14734000Y-6506930D01*
X14861000Y-6760930D02*
X14935930Y-6686000D01*
X14861000Y-6611070D01*
X14786070Y-6686000D01*
X14861000Y-6760930D01*
D11*
X2285777Y-8306484D02*
X2285777Y-8106484D01*
X2285777Y-8106484D02*
X2333396Y-8106484D01*
X2333396Y-8106484D02*
X2361967Y-8116008D01*
X2361967Y-8116008D02*
X2381015Y-8135055D01*
X2381015Y-8135055D02*
X2390539Y-8154103D01*
X2390539Y-8154103D02*
X2400063Y-8192198D01*
X2400063Y-8192198D02*
X2400063Y-8220769D01*
X2400063Y-8220769D02*
X2390539Y-8258865D01*
X2390539Y-8258865D02*
X2381015Y-8277912D01*
X2381015Y-8277912D02*
X2361967Y-8296960D01*
X2361967Y-8296960D02*
X2333396Y-8306484D01*
X2333396Y-8306484D02*
X2285777Y-8306484D01*
X2485777Y-8306484D02*
X2485777Y-8173150D01*
X2485777Y-8211246D02*
X2495301Y-8192198D01*
X2495301Y-8192198D02*
X2504824Y-8182674D01*
X2504824Y-8182674D02*
X2523872Y-8173150D01*
X2523872Y-8173150D02*
X2542920Y-8173150D01*
X2609586Y-8306484D02*
X2609586Y-8173150D01*
X2609586Y-8106484D02*
X2600063Y-8116008D01*
X2600063Y-8116008D02*
X2609586Y-8125531D01*
X2609586Y-8125531D02*
X2619110Y-8116008D01*
X2619110Y-8116008D02*
X2609586Y-8106484D01*
X2609586Y-8106484D02*
X2609586Y-8125531D01*
X2733396Y-8306484D02*
X2714348Y-8296960D01*
X2714348Y-8296960D02*
X2704824Y-8277912D01*
X2704824Y-8277912D02*
X2704824Y-8106484D01*
X2838158Y-8306484D02*
X2819110Y-8296960D01*
X2819110Y-8296960D02*
X2809586Y-8277912D01*
X2809586Y-8277912D02*
X2809586Y-8106484D01*
X3066729Y-8306484D02*
X3066729Y-8106484D01*
X3066729Y-8106484D02*
X3133396Y-8249341D01*
X3133396Y-8249341D02*
X3200062Y-8106484D01*
X3200062Y-8106484D02*
X3200062Y-8306484D01*
X3381015Y-8306484D02*
X3381015Y-8201722D01*
X3381015Y-8201722D02*
X3371491Y-8182674D01*
X3371491Y-8182674D02*
X3352443Y-8173150D01*
X3352443Y-8173150D02*
X3314348Y-8173150D01*
X3314348Y-8173150D02*
X3295301Y-8182674D01*
X3381015Y-8296960D02*
X3361967Y-8306484D01*
X3361967Y-8306484D02*
X3314348Y-8306484D01*
X3314348Y-8306484D02*
X3295301Y-8296960D01*
X3295301Y-8296960D02*
X3285777Y-8277912D01*
X3285777Y-8277912D02*
X3285777Y-8258865D01*
X3285777Y-8258865D02*
X3295301Y-8239817D01*
X3295301Y-8239817D02*
X3314348Y-8230293D01*
X3314348Y-8230293D02*
X3361967Y-8230293D01*
X3361967Y-8230293D02*
X3381015Y-8220769D01*
X3476253Y-8173150D02*
X3476253Y-8373150D01*
X3476253Y-8182674D02*
X3495301Y-8173150D01*
X3495301Y-8173150D02*
X3533396Y-8173150D01*
X3533396Y-8173150D02*
X3552443Y-8182674D01*
X3552443Y-8182674D02*
X3561967Y-8192198D01*
X3561967Y-8192198D02*
X3571491Y-8211246D01*
X3571491Y-8211246D02*
X3571491Y-8268388D01*
X3571491Y-8268388D02*
X3561967Y-8287436D01*
X3561967Y-8287436D02*
X3552443Y-8296960D01*
X3552443Y-8296960D02*
X3533396Y-8306484D01*
X3533396Y-8306484D02*
X3495301Y-8306484D01*
X3495301Y-8306484D02*
X3476253Y-8296960D01*
X3657205Y-8287436D02*
X3666729Y-8296960D01*
X3666729Y-8296960D02*
X3657205Y-8306484D01*
X3657205Y-8306484D02*
X3647682Y-8296960D01*
X3647682Y-8296960D02*
X3657205Y-8287436D01*
X3657205Y-8287436D02*
X3657205Y-8306484D01*
X3657205Y-8182674D02*
X3666729Y-8192198D01*
X3666729Y-8192198D02*
X3657205Y-8201722D01*
X3657205Y-8201722D02*
X3647682Y-8192198D01*
X3647682Y-8192198D02*
X3657205Y-8182674D01*
X3657205Y-8182674D02*
X3657205Y-8201722D01*
D12*
X1945000Y-8595000D02*
X2025000Y-8675000D01*
X2025000Y-8595000D02*
X1945000Y-8675000D01*
D11*
X2323872Y-8526484D02*
X2342920Y-8526484D01*
X2342920Y-8526484D02*
X2361967Y-8536008D01*
X2361967Y-8536008D02*
X2371491Y-8545531D01*
X2371491Y-8545531D02*
X2381015Y-8564579D01*
X2381015Y-8564579D02*
X2390539Y-8602674D01*
X2390539Y-8602674D02*
X2390539Y-8650293D01*
X2390539Y-8650293D02*
X2381015Y-8688389D01*
X2381015Y-8688389D02*
X2371491Y-8707436D01*
X2371491Y-8707436D02*
X2361967Y-8716960D01*
X2361967Y-8716960D02*
X2342920Y-8726484D01*
X2342920Y-8726484D02*
X2323872Y-8726484D01*
X2323872Y-8726484D02*
X2304824Y-8716960D01*
X2304824Y-8716960D02*
X2295301Y-8707436D01*
X2295301Y-8707436D02*
X2285777Y-8688389D01*
X2285777Y-8688389D02*
X2276253Y-8650293D01*
X2276253Y-8650293D02*
X2276253Y-8602674D01*
X2276253Y-8602674D02*
X2285777Y-8564579D01*
X2285777Y-8564579D02*
X2295301Y-8545531D01*
X2295301Y-8545531D02*
X2304824Y-8536008D01*
X2304824Y-8536008D02*
X2323872Y-8526484D01*
X2476253Y-8707436D02*
X2485777Y-8716960D01*
X2485777Y-8716960D02*
X2476253Y-8726484D01*
X2476253Y-8726484D02*
X2466729Y-8716960D01*
X2466729Y-8716960D02*
X2476253Y-8707436D01*
X2476253Y-8707436D02*
X2476253Y-8726484D01*
X2600063Y-8612198D02*
X2581015Y-8602674D01*
X2581015Y-8602674D02*
X2571491Y-8593150D01*
X2571491Y-8593150D02*
X2561967Y-8574103D01*
X2561967Y-8574103D02*
X2561967Y-8564579D01*
X2561967Y-8564579D02*
X2571491Y-8545531D01*
X2571491Y-8545531D02*
X2581015Y-8536008D01*
X2581015Y-8536008D02*
X2600063Y-8526484D01*
X2600063Y-8526484D02*
X2638158Y-8526484D01*
X2638158Y-8526484D02*
X2657205Y-8536008D01*
X2657205Y-8536008D02*
X2666729Y-8545531D01*
X2666729Y-8545531D02*
X2676253Y-8564579D01*
X2676253Y-8564579D02*
X2676253Y-8574103D01*
X2676253Y-8574103D02*
X2666729Y-8593150D01*
X2666729Y-8593150D02*
X2657205Y-8602674D01*
X2657205Y-8602674D02*
X2638158Y-8612198D01*
X2638158Y-8612198D02*
X2600063Y-8612198D01*
X2600063Y-8612198D02*
X2581015Y-8621722D01*
X2581015Y-8621722D02*
X2571491Y-8631246D01*
X2571491Y-8631246D02*
X2561967Y-8650293D01*
X2561967Y-8650293D02*
X2561967Y-8688389D01*
X2561967Y-8688389D02*
X2571491Y-8707436D01*
X2571491Y-8707436D02*
X2581015Y-8716960D01*
X2581015Y-8716960D02*
X2600063Y-8726484D01*
X2600063Y-8726484D02*
X2638158Y-8726484D01*
X2638158Y-8726484D02*
X2657205Y-8716960D01*
X2657205Y-8716960D02*
X2666729Y-8707436D01*
X2666729Y-8707436D02*
X2676253Y-8688389D01*
X2676253Y-8688389D02*
X2676253Y-8650293D01*
X2676253Y-8650293D02*
X2666729Y-8631246D01*
X2666729Y-8631246D02*
X2657205Y-8621722D01*
X2657205Y-8621722D02*
X2638158Y-8612198D01*
X2800062Y-8526484D02*
X2819110Y-8526484D01*
X2819110Y-8526484D02*
X2838158Y-8536008D01*
X2838158Y-8536008D02*
X2847682Y-8545531D01*
X2847682Y-8545531D02*
X2857205Y-8564579D01*
X2857205Y-8564579D02*
X2866729Y-8602674D01*
X2866729Y-8602674D02*
X2866729Y-8650293D01*
X2866729Y-8650293D02*
X2857205Y-8688389D01*
X2857205Y-8688389D02*
X2847682Y-8707436D01*
X2847682Y-8707436D02*
X2838158Y-8716960D01*
X2838158Y-8716960D02*
X2819110Y-8726484D01*
X2819110Y-8726484D02*
X2800062Y-8726484D01*
X2800062Y-8726484D02*
X2781015Y-8716960D01*
X2781015Y-8716960D02*
X2771491Y-8707436D01*
X2771491Y-8707436D02*
X2761967Y-8688389D01*
X2761967Y-8688389D02*
X2752444Y-8650293D01*
X2752444Y-8650293D02*
X2752444Y-8602674D01*
X2752444Y-8602674D02*
X2761967Y-8564579D01*
X2761967Y-8564579D02*
X2771491Y-8545531D01*
X2771491Y-8545531D02*
X2781015Y-8536008D01*
X2781015Y-8536008D02*
X2800062Y-8526484D01*
X2990539Y-8526484D02*
X3009586Y-8526484D01*
X3009586Y-8526484D02*
X3028634Y-8536008D01*
X3028634Y-8536008D02*
X3038158Y-8545531D01*
X3038158Y-8545531D02*
X3047682Y-8564579D01*
X3047682Y-8564579D02*
X3057205Y-8602674D01*
X3057205Y-8602674D02*
X3057205Y-8650293D01*
X3057205Y-8650293D02*
X3047682Y-8688389D01*
X3047682Y-8688389D02*
X3038158Y-8707436D01*
X3038158Y-8707436D02*
X3028634Y-8716960D01*
X3028634Y-8716960D02*
X3009586Y-8726484D01*
X3009586Y-8726484D02*
X2990539Y-8726484D01*
X2990539Y-8726484D02*
X2971491Y-8716960D01*
X2971491Y-8716960D02*
X2961967Y-8707436D01*
X2961967Y-8707436D02*
X2952443Y-8688389D01*
X2952443Y-8688389D02*
X2942920Y-8650293D01*
X2942920Y-8650293D02*
X2942920Y-8602674D01*
X2942920Y-8602674D02*
X2952443Y-8564579D01*
X2952443Y-8564579D02*
X2961967Y-8545531D01*
X2961967Y-8545531D02*
X2971491Y-8536008D01*
X2971491Y-8536008D02*
X2990539Y-8526484D01*
X3142920Y-8726484D02*
X3142920Y-8593150D01*
X3142920Y-8612198D02*
X3152443Y-8602674D01*
X3152443Y-8602674D02*
X3171491Y-8593150D01*
X3171491Y-8593150D02*
X3200063Y-8593150D01*
X3200063Y-8593150D02*
X3219110Y-8602674D01*
X3219110Y-8602674D02*
X3228634Y-8621722D01*
X3228634Y-8621722D02*
X3228634Y-8726484D01*
X3228634Y-8621722D02*
X3238158Y-8602674D01*
X3238158Y-8602674D02*
X3257205Y-8593150D01*
X3257205Y-8593150D02*
X3285777Y-8593150D01*
X3285777Y-8593150D02*
X3304824Y-8602674D01*
X3304824Y-8602674D02*
X3314348Y-8621722D01*
X3314348Y-8621722D02*
X3314348Y-8726484D01*
X3409586Y-8726484D02*
X3409586Y-8593150D01*
X3409586Y-8612198D02*
X3419110Y-8602674D01*
X3419110Y-8602674D02*
X3438158Y-8593150D01*
X3438158Y-8593150D02*
X3466729Y-8593150D01*
X3466729Y-8593150D02*
X3485777Y-8602674D01*
X3485777Y-8602674D02*
X3495301Y-8621722D01*
X3495301Y-8621722D02*
X3495301Y-8726484D01*
X3495301Y-8621722D02*
X3504824Y-8602674D01*
X3504824Y-8602674D02*
X3523872Y-8593150D01*
X3523872Y-8593150D02*
X3552443Y-8593150D01*
X3552443Y-8593150D02*
X3571491Y-8602674D01*
X3571491Y-8602674D02*
X3581015Y-8621722D01*
X3581015Y-8621722D02*
X3581015Y-8726484D01*
X3971491Y-8516960D02*
X3800063Y-8774103D01*
X4228634Y-8526484D02*
X4247682Y-8526484D01*
X4247682Y-8526484D02*
X4266729Y-8536008D01*
X4266729Y-8536008D02*
X4276253Y-8545531D01*
X4276253Y-8545531D02*
X4285777Y-8564579D01*
X4285777Y-8564579D02*
X4295301Y-8602674D01*
X4295301Y-8602674D02*
X4295301Y-8650293D01*
X4295301Y-8650293D02*
X4285777Y-8688389D01*
X4285777Y-8688389D02*
X4276253Y-8707436D01*
X4276253Y-8707436D02*
X4266729Y-8716960D01*
X4266729Y-8716960D02*
X4247682Y-8726484D01*
X4247682Y-8726484D02*
X4228634Y-8726484D01*
X4228634Y-8726484D02*
X4209587Y-8716960D01*
X4209587Y-8716960D02*
X4200063Y-8707436D01*
X4200063Y-8707436D02*
X4190539Y-8688389D01*
X4190539Y-8688389D02*
X4181015Y-8650293D01*
X4181015Y-8650293D02*
X4181015Y-8602674D01*
X4181015Y-8602674D02*
X4190539Y-8564579D01*
X4190539Y-8564579D02*
X4200063Y-8545531D01*
X4200063Y-8545531D02*
X4209587Y-8536008D01*
X4209587Y-8536008D02*
X4228634Y-8526484D01*
X4381015Y-8707436D02*
X4390539Y-8716960D01*
X4390539Y-8716960D02*
X4381015Y-8726484D01*
X4381015Y-8726484D02*
X4371491Y-8716960D01*
X4371491Y-8716960D02*
X4381015Y-8707436D01*
X4381015Y-8707436D02*
X4381015Y-8726484D01*
X4514348Y-8526484D02*
X4533396Y-8526484D01*
X4533396Y-8526484D02*
X4552444Y-8536008D01*
X4552444Y-8536008D02*
X4561968Y-8545531D01*
X4561968Y-8545531D02*
X4571491Y-8564579D01*
X4571491Y-8564579D02*
X4581015Y-8602674D01*
X4581015Y-8602674D02*
X4581015Y-8650293D01*
X4581015Y-8650293D02*
X4571491Y-8688389D01*
X4571491Y-8688389D02*
X4561968Y-8707436D01*
X4561968Y-8707436D02*
X4552444Y-8716960D01*
X4552444Y-8716960D02*
X4533396Y-8726484D01*
X4533396Y-8726484D02*
X4514348Y-8726484D01*
X4514348Y-8726484D02*
X4495301Y-8716960D01*
X4495301Y-8716960D02*
X4485777Y-8707436D01*
X4485777Y-8707436D02*
X4476253Y-8688389D01*
X4476253Y-8688389D02*
X4466729Y-8650293D01*
X4466729Y-8650293D02*
X4466729Y-8602674D01*
X4466729Y-8602674D02*
X4476253Y-8564579D01*
X4476253Y-8564579D02*
X4485777Y-8545531D01*
X4485777Y-8545531D02*
X4495301Y-8536008D01*
X4495301Y-8536008D02*
X4514348Y-8526484D01*
X4647682Y-8526484D02*
X4771491Y-8526484D01*
X4771491Y-8526484D02*
X4704825Y-8602674D01*
X4704825Y-8602674D02*
X4733396Y-8602674D01*
X4733396Y-8602674D02*
X4752444Y-8612198D01*
X4752444Y-8612198D02*
X4761968Y-8621722D01*
X4761968Y-8621722D02*
X4771491Y-8640770D01*
X4771491Y-8640770D02*
X4771491Y-8688389D01*
X4771491Y-8688389D02*
X4761968Y-8707436D01*
X4761968Y-8707436D02*
X4752444Y-8716960D01*
X4752444Y-8716960D02*
X4733396Y-8726484D01*
X4733396Y-8726484D02*
X4676253Y-8726484D01*
X4676253Y-8726484D02*
X4657206Y-8716960D01*
X4657206Y-8716960D02*
X4647682Y-8707436D01*
X4961968Y-8726484D02*
X4847682Y-8726484D01*
X4904825Y-8726484D02*
X4904825Y-8526484D01*
X4904825Y-8526484D02*
X4885777Y-8555055D01*
X4885777Y-8555055D02*
X4866729Y-8574103D01*
X4866729Y-8574103D02*
X4847682Y-8583627D01*
X5142920Y-8526484D02*
X5047682Y-8526484D01*
X5047682Y-8526484D02*
X5038158Y-8621722D01*
X5038158Y-8621722D02*
X5047682Y-8612198D01*
X5047682Y-8612198D02*
X5066729Y-8602674D01*
X5066729Y-8602674D02*
X5114349Y-8602674D01*
X5114349Y-8602674D02*
X5133396Y-8612198D01*
X5133396Y-8612198D02*
X5142920Y-8621722D01*
X5142920Y-8621722D02*
X5152444Y-8640770D01*
X5152444Y-8640770D02*
X5152444Y-8688389D01*
X5152444Y-8688389D02*
X5142920Y-8707436D01*
X5142920Y-8707436D02*
X5133396Y-8716960D01*
X5133396Y-8716960D02*
X5114349Y-8726484D01*
X5114349Y-8726484D02*
X5066729Y-8726484D01*
X5066729Y-8726484D02*
X5047682Y-8716960D01*
X5047682Y-8716960D02*
X5038158Y-8707436D01*
X5228634Y-8526484D02*
X5228634Y-8564579D01*
X5304825Y-8526484D02*
X5304825Y-8564579D01*
X5600063Y-8802674D02*
X5590539Y-8793150D01*
X5590539Y-8793150D02*
X5571491Y-8764579D01*
X5571491Y-8764579D02*
X5561968Y-8745531D01*
X5561968Y-8745531D02*
X5552444Y-8716960D01*
X5552444Y-8716960D02*
X5542920Y-8669341D01*
X5542920Y-8669341D02*
X5542920Y-8631246D01*
X5542920Y-8631246D02*
X5552444Y-8583627D01*
X5552444Y-8583627D02*
X5561968Y-8555055D01*
X5561968Y-8555055D02*
X5571491Y-8536008D01*
X5571491Y-8536008D02*
X5590539Y-8507436D01*
X5590539Y-8507436D02*
X5600063Y-8497912D01*
X5761968Y-8593150D02*
X5761968Y-8726484D01*
X5714348Y-8516960D02*
X5666729Y-8659817D01*
X5666729Y-8659817D02*
X5790539Y-8659817D01*
X5952444Y-8593150D02*
X5952444Y-8726484D01*
X5904825Y-8516960D02*
X5857206Y-8659817D01*
X5857206Y-8659817D02*
X5981015Y-8659817D01*
X6209587Y-8726484D02*
X6209587Y-8526484D01*
X6295301Y-8726484D02*
X6295301Y-8621722D01*
X6295301Y-8621722D02*
X6285777Y-8602674D01*
X6285777Y-8602674D02*
X6266730Y-8593150D01*
X6266730Y-8593150D02*
X6238158Y-8593150D01*
X6238158Y-8593150D02*
X6219110Y-8602674D01*
X6219110Y-8602674D02*
X6209587Y-8612198D01*
X6419110Y-8726484D02*
X6400063Y-8716960D01*
X6400063Y-8716960D02*
X6390539Y-8707436D01*
X6390539Y-8707436D02*
X6381015Y-8688389D01*
X6381015Y-8688389D02*
X6381015Y-8631246D01*
X6381015Y-8631246D02*
X6390539Y-8612198D01*
X6390539Y-8612198D02*
X6400063Y-8602674D01*
X6400063Y-8602674D02*
X6419110Y-8593150D01*
X6419110Y-8593150D02*
X6447682Y-8593150D01*
X6447682Y-8593150D02*
X6466730Y-8602674D01*
X6466730Y-8602674D02*
X6476253Y-8612198D01*
X6476253Y-8612198D02*
X6485777Y-8631246D01*
X6485777Y-8631246D02*
X6485777Y-8688389D01*
X6485777Y-8688389D02*
X6476253Y-8707436D01*
X6476253Y-8707436D02*
X6466730Y-8716960D01*
X6466730Y-8716960D02*
X6447682Y-8726484D01*
X6447682Y-8726484D02*
X6419110Y-8726484D01*
X6600063Y-8726484D02*
X6581015Y-8716960D01*
X6581015Y-8716960D02*
X6571491Y-8697912D01*
X6571491Y-8697912D02*
X6571491Y-8526484D01*
X6752444Y-8716960D02*
X6733396Y-8726484D01*
X6733396Y-8726484D02*
X6695301Y-8726484D01*
X6695301Y-8726484D02*
X6676253Y-8716960D01*
X6676253Y-8716960D02*
X6666730Y-8697912D01*
X6666730Y-8697912D02*
X6666730Y-8621722D01*
X6666730Y-8621722D02*
X6676253Y-8602674D01*
X6676253Y-8602674D02*
X6695301Y-8593150D01*
X6695301Y-8593150D02*
X6733396Y-8593150D01*
X6733396Y-8593150D02*
X6752444Y-8602674D01*
X6752444Y-8602674D02*
X6761968Y-8621722D01*
X6761968Y-8621722D02*
X6761968Y-8640770D01*
X6761968Y-8640770D02*
X6666730Y-8659817D01*
X6838158Y-8716960D02*
X6857206Y-8726484D01*
X6857206Y-8726484D02*
X6895301Y-8726484D01*
X6895301Y-8726484D02*
X6914349Y-8716960D01*
X6914349Y-8716960D02*
X6923872Y-8697912D01*
X6923872Y-8697912D02*
X6923872Y-8688389D01*
X6923872Y-8688389D02*
X6914349Y-8669341D01*
X6914349Y-8669341D02*
X6895301Y-8659817D01*
X6895301Y-8659817D02*
X6866730Y-8659817D01*
X6866730Y-8659817D02*
X6847682Y-8650293D01*
X6847682Y-8650293D02*
X6838158Y-8631246D01*
X6838158Y-8631246D02*
X6838158Y-8621722D01*
X6838158Y-8621722D02*
X6847682Y-8602674D01*
X6847682Y-8602674D02*
X6866730Y-8593150D01*
X6866730Y-8593150D02*
X6895301Y-8593150D01*
X6895301Y-8593150D02*
X6914349Y-8602674D01*
X6990539Y-8802674D02*
X7000063Y-8793150D01*
X7000063Y-8793150D02*
X7019111Y-8764579D01*
X7019111Y-8764579D02*
X7028634Y-8745531D01*
X7028634Y-8745531D02*
X7038158Y-8716960D01*
X7038158Y-8716960D02*
X7047682Y-8669341D01*
X7047682Y-8669341D02*
X7047682Y-8631246D01*
X7047682Y-8631246D02*
X7038158Y-8583627D01*
X7038158Y-8583627D02*
X7028634Y-8555055D01*
X7028634Y-8555055D02*
X7019111Y-8536008D01*
X7019111Y-8536008D02*
X7000063Y-8507436D01*
X7000063Y-8507436D02*
X6990539Y-8497912D01*
D10*
X2025000Y-8899000D02*
G75*
G03*
X2025000Y-8899000I-50000J0D01*
G01*
D11*
X2390539Y-8990484D02*
X2276253Y-8990484D01*
X2333396Y-8990484D02*
X2333396Y-8790484D01*
X2333396Y-8790484D02*
X2314348Y-8819055D01*
X2314348Y-8819055D02*
X2295301Y-8838103D01*
X2295301Y-8838103D02*
X2276253Y-8847627D01*
X2476253Y-8971436D02*
X2485777Y-8980960D01*
X2485777Y-8980960D02*
X2476253Y-8990484D01*
X2476253Y-8990484D02*
X2466729Y-8980960D01*
X2466729Y-8980960D02*
X2476253Y-8971436D01*
X2476253Y-8971436D02*
X2476253Y-8990484D01*
X2609586Y-8790484D02*
X2628634Y-8790484D01*
X2628634Y-8790484D02*
X2647682Y-8800008D01*
X2647682Y-8800008D02*
X2657205Y-8809531D01*
X2657205Y-8809531D02*
X2666729Y-8828579D01*
X2666729Y-8828579D02*
X2676253Y-8866674D01*
X2676253Y-8866674D02*
X2676253Y-8914293D01*
X2676253Y-8914293D02*
X2666729Y-8952389D01*
X2666729Y-8952389D02*
X2657205Y-8971436D01*
X2657205Y-8971436D02*
X2647682Y-8980960D01*
X2647682Y-8980960D02*
X2628634Y-8990484D01*
X2628634Y-8990484D02*
X2609586Y-8990484D01*
X2609586Y-8990484D02*
X2590539Y-8980960D01*
X2590539Y-8980960D02*
X2581015Y-8971436D01*
X2581015Y-8971436D02*
X2571491Y-8952389D01*
X2571491Y-8952389D02*
X2561967Y-8914293D01*
X2561967Y-8914293D02*
X2561967Y-8866674D01*
X2561967Y-8866674D02*
X2571491Y-8828579D01*
X2571491Y-8828579D02*
X2581015Y-8809531D01*
X2581015Y-8809531D02*
X2590539Y-8800008D01*
X2590539Y-8800008D02*
X2609586Y-8790484D01*
X2800062Y-8790484D02*
X2819110Y-8790484D01*
X2819110Y-8790484D02*
X2838158Y-8800008D01*
X2838158Y-8800008D02*
X2847682Y-8809531D01*
X2847682Y-8809531D02*
X2857205Y-8828579D01*
X2857205Y-8828579D02*
X2866729Y-8866674D01*
X2866729Y-8866674D02*
X2866729Y-8914293D01*
X2866729Y-8914293D02*
X2857205Y-8952389D01*
X2857205Y-8952389D02*
X2847682Y-8971436D01*
X2847682Y-8971436D02*
X2838158Y-8980960D01*
X2838158Y-8980960D02*
X2819110Y-8990484D01*
X2819110Y-8990484D02*
X2800062Y-8990484D01*
X2800062Y-8990484D02*
X2781015Y-8980960D01*
X2781015Y-8980960D02*
X2771491Y-8971436D01*
X2771491Y-8971436D02*
X2761967Y-8952389D01*
X2761967Y-8952389D02*
X2752444Y-8914293D01*
X2752444Y-8914293D02*
X2752444Y-8866674D01*
X2752444Y-8866674D02*
X2761967Y-8828579D01*
X2761967Y-8828579D02*
X2771491Y-8809531D01*
X2771491Y-8809531D02*
X2781015Y-8800008D01*
X2781015Y-8800008D02*
X2800062Y-8790484D01*
X2990539Y-8790484D02*
X3009586Y-8790484D01*
X3009586Y-8790484D02*
X3028634Y-8800008D01*
X3028634Y-8800008D02*
X3038158Y-8809531D01*
X3038158Y-8809531D02*
X3047682Y-8828579D01*
X3047682Y-8828579D02*
X3057205Y-8866674D01*
X3057205Y-8866674D02*
X3057205Y-8914293D01*
X3057205Y-8914293D02*
X3047682Y-8952389D01*
X3047682Y-8952389D02*
X3038158Y-8971436D01*
X3038158Y-8971436D02*
X3028634Y-8980960D01*
X3028634Y-8980960D02*
X3009586Y-8990484D01*
X3009586Y-8990484D02*
X2990539Y-8990484D01*
X2990539Y-8990484D02*
X2971491Y-8980960D01*
X2971491Y-8980960D02*
X2961967Y-8971436D01*
X2961967Y-8971436D02*
X2952443Y-8952389D01*
X2952443Y-8952389D02*
X2942920Y-8914293D01*
X2942920Y-8914293D02*
X2942920Y-8866674D01*
X2942920Y-8866674D02*
X2952443Y-8828579D01*
X2952443Y-8828579D02*
X2961967Y-8809531D01*
X2961967Y-8809531D02*
X2971491Y-8800008D01*
X2971491Y-8800008D02*
X2990539Y-8790484D01*
X3142920Y-8990484D02*
X3142920Y-8857150D01*
X3142920Y-8876198D02*
X3152443Y-8866674D01*
X3152443Y-8866674D02*
X3171491Y-8857150D01*
X3171491Y-8857150D02*
X3200063Y-8857150D01*
X3200063Y-8857150D02*
X3219110Y-8866674D01*
X3219110Y-8866674D02*
X3228634Y-8885722D01*
X3228634Y-8885722D02*
X3228634Y-8990484D01*
X3228634Y-8885722D02*
X3238158Y-8866674D01*
X3238158Y-8866674D02*
X3257205Y-8857150D01*
X3257205Y-8857150D02*
X3285777Y-8857150D01*
X3285777Y-8857150D02*
X3304824Y-8866674D01*
X3304824Y-8866674D02*
X3314348Y-8885722D01*
X3314348Y-8885722D02*
X3314348Y-8990484D01*
X3409586Y-8990484D02*
X3409586Y-8857150D01*
X3409586Y-8876198D02*
X3419110Y-8866674D01*
X3419110Y-8866674D02*
X3438158Y-8857150D01*
X3438158Y-8857150D02*
X3466729Y-8857150D01*
X3466729Y-8857150D02*
X3485777Y-8866674D01*
X3485777Y-8866674D02*
X3495301Y-8885722D01*
X3495301Y-8885722D02*
X3495301Y-8990484D01*
X3495301Y-8885722D02*
X3504824Y-8866674D01*
X3504824Y-8866674D02*
X3523872Y-8857150D01*
X3523872Y-8857150D02*
X3552443Y-8857150D01*
X3552443Y-8857150D02*
X3571491Y-8866674D01*
X3571491Y-8866674D02*
X3581015Y-8885722D01*
X3581015Y-8885722D02*
X3581015Y-8990484D01*
X3971491Y-8780960D02*
X3800063Y-9038103D01*
X4228634Y-8790484D02*
X4247682Y-8790484D01*
X4247682Y-8790484D02*
X4266729Y-8800008D01*
X4266729Y-8800008D02*
X4276253Y-8809531D01*
X4276253Y-8809531D02*
X4285777Y-8828579D01*
X4285777Y-8828579D02*
X4295301Y-8866674D01*
X4295301Y-8866674D02*
X4295301Y-8914293D01*
X4295301Y-8914293D02*
X4285777Y-8952389D01*
X4285777Y-8952389D02*
X4276253Y-8971436D01*
X4276253Y-8971436D02*
X4266729Y-8980960D01*
X4266729Y-8980960D02*
X4247682Y-8990484D01*
X4247682Y-8990484D02*
X4228634Y-8990484D01*
X4228634Y-8990484D02*
X4209587Y-8980960D01*
X4209587Y-8980960D02*
X4200063Y-8971436D01*
X4200063Y-8971436D02*
X4190539Y-8952389D01*
X4190539Y-8952389D02*
X4181015Y-8914293D01*
X4181015Y-8914293D02*
X4181015Y-8866674D01*
X4181015Y-8866674D02*
X4190539Y-8828579D01*
X4190539Y-8828579D02*
X4200063Y-8809531D01*
X4200063Y-8809531D02*
X4209587Y-8800008D01*
X4209587Y-8800008D02*
X4228634Y-8790484D01*
X4381015Y-8971436D02*
X4390539Y-8980960D01*
X4390539Y-8980960D02*
X4381015Y-8990484D01*
X4381015Y-8990484D02*
X4371491Y-8980960D01*
X4371491Y-8980960D02*
X4381015Y-8971436D01*
X4381015Y-8971436D02*
X4381015Y-8990484D01*
X4514348Y-8790484D02*
X4533396Y-8790484D01*
X4533396Y-8790484D02*
X4552444Y-8800008D01*
X4552444Y-8800008D02*
X4561968Y-8809531D01*
X4561968Y-8809531D02*
X4571491Y-8828579D01*
X4571491Y-8828579D02*
X4581015Y-8866674D01*
X4581015Y-8866674D02*
X4581015Y-8914293D01*
X4581015Y-8914293D02*
X4571491Y-8952389D01*
X4571491Y-8952389D02*
X4561968Y-8971436D01*
X4561968Y-8971436D02*
X4552444Y-8980960D01*
X4552444Y-8980960D02*
X4533396Y-8990484D01*
X4533396Y-8990484D02*
X4514348Y-8990484D01*
X4514348Y-8990484D02*
X4495301Y-8980960D01*
X4495301Y-8980960D02*
X4485777Y-8971436D01*
X4485777Y-8971436D02*
X4476253Y-8952389D01*
X4476253Y-8952389D02*
X4466729Y-8914293D01*
X4466729Y-8914293D02*
X4466729Y-8866674D01*
X4466729Y-8866674D02*
X4476253Y-8828579D01*
X4476253Y-8828579D02*
X4485777Y-8809531D01*
X4485777Y-8809531D02*
X4495301Y-8800008D01*
X4495301Y-8800008D02*
X4514348Y-8790484D01*
X4647682Y-8790484D02*
X4771491Y-8790484D01*
X4771491Y-8790484D02*
X4704825Y-8866674D01*
X4704825Y-8866674D02*
X4733396Y-8866674D01*
X4733396Y-8866674D02*
X4752444Y-8876198D01*
X4752444Y-8876198D02*
X4761968Y-8885722D01*
X4761968Y-8885722D02*
X4771491Y-8904770D01*
X4771491Y-8904770D02*
X4771491Y-8952389D01*
X4771491Y-8952389D02*
X4761968Y-8971436D01*
X4761968Y-8971436D02*
X4752444Y-8980960D01*
X4752444Y-8980960D02*
X4733396Y-8990484D01*
X4733396Y-8990484D02*
X4676253Y-8990484D01*
X4676253Y-8990484D02*
X4657206Y-8980960D01*
X4657206Y-8980960D02*
X4647682Y-8971436D01*
X4866729Y-8990484D02*
X4904825Y-8990484D01*
X4904825Y-8990484D02*
X4923872Y-8980960D01*
X4923872Y-8980960D02*
X4933396Y-8971436D01*
X4933396Y-8971436D02*
X4952444Y-8942865D01*
X4952444Y-8942865D02*
X4961968Y-8904770D01*
X4961968Y-8904770D02*
X4961968Y-8828579D01*
X4961968Y-8828579D02*
X4952444Y-8809531D01*
X4952444Y-8809531D02*
X4942920Y-8800008D01*
X4942920Y-8800008D02*
X4923872Y-8790484D01*
X4923872Y-8790484D02*
X4885777Y-8790484D01*
X4885777Y-8790484D02*
X4866729Y-8800008D01*
X4866729Y-8800008D02*
X4857206Y-8809531D01*
X4857206Y-8809531D02*
X4847682Y-8828579D01*
X4847682Y-8828579D02*
X4847682Y-8876198D01*
X4847682Y-8876198D02*
X4857206Y-8895246D01*
X4857206Y-8895246D02*
X4866729Y-8904770D01*
X4866729Y-8904770D02*
X4885777Y-8914293D01*
X4885777Y-8914293D02*
X4923872Y-8914293D01*
X4923872Y-8914293D02*
X4942920Y-8904770D01*
X4942920Y-8904770D02*
X4952444Y-8895246D01*
X4952444Y-8895246D02*
X4961968Y-8876198D01*
X5133396Y-8857150D02*
X5133396Y-8990484D01*
X5085777Y-8780960D02*
X5038158Y-8923817D01*
X5038158Y-8923817D02*
X5161968Y-8923817D01*
X5228634Y-8790484D02*
X5228634Y-8828579D01*
X5304825Y-8790484D02*
X5304825Y-8828579D01*
X5600063Y-9066674D02*
X5590539Y-9057150D01*
X5590539Y-9057150D02*
X5571491Y-9028579D01*
X5571491Y-9028579D02*
X5561968Y-9009531D01*
X5561968Y-9009531D02*
X5552444Y-8980960D01*
X5552444Y-8980960D02*
X5542920Y-8933341D01*
X5542920Y-8933341D02*
X5542920Y-8895246D01*
X5542920Y-8895246D02*
X5552444Y-8847627D01*
X5552444Y-8847627D02*
X5561968Y-8819055D01*
X5561968Y-8819055D02*
X5571491Y-8800008D01*
X5571491Y-8800008D02*
X5590539Y-8771436D01*
X5590539Y-8771436D02*
X5600063Y-8761912D01*
X5781015Y-8990484D02*
X5666729Y-8990484D01*
X5723872Y-8990484D02*
X5723872Y-8790484D01*
X5723872Y-8790484D02*
X5704825Y-8819055D01*
X5704825Y-8819055D02*
X5685777Y-8838103D01*
X5685777Y-8838103D02*
X5666729Y-8847627D01*
X5952444Y-8790484D02*
X5914348Y-8790484D01*
X5914348Y-8790484D02*
X5895301Y-8800008D01*
X5895301Y-8800008D02*
X5885777Y-8809531D01*
X5885777Y-8809531D02*
X5866729Y-8838103D01*
X5866729Y-8838103D02*
X5857206Y-8876198D01*
X5857206Y-8876198D02*
X5857206Y-8952389D01*
X5857206Y-8952389D02*
X5866729Y-8971436D01*
X5866729Y-8971436D02*
X5876253Y-8980960D01*
X5876253Y-8980960D02*
X5895301Y-8990484D01*
X5895301Y-8990484D02*
X5933396Y-8990484D01*
X5933396Y-8990484D02*
X5952444Y-8980960D01*
X5952444Y-8980960D02*
X5961968Y-8971436D01*
X5961968Y-8971436D02*
X5971491Y-8952389D01*
X5971491Y-8952389D02*
X5971491Y-8904770D01*
X5971491Y-8904770D02*
X5961968Y-8885722D01*
X5961968Y-8885722D02*
X5952444Y-8876198D01*
X5952444Y-8876198D02*
X5933396Y-8866674D01*
X5933396Y-8866674D02*
X5895301Y-8866674D01*
X5895301Y-8866674D02*
X5876253Y-8876198D01*
X5876253Y-8876198D02*
X5866729Y-8885722D01*
X5866729Y-8885722D02*
X5857206Y-8904770D01*
X6209587Y-8990484D02*
X6209587Y-8790484D01*
X6295301Y-8990484D02*
X6295301Y-8885722D01*
X6295301Y-8885722D02*
X6285777Y-8866674D01*
X6285777Y-8866674D02*
X6266730Y-8857150D01*
X6266730Y-8857150D02*
X6238158Y-8857150D01*
X6238158Y-8857150D02*
X6219110Y-8866674D01*
X6219110Y-8866674D02*
X6209587Y-8876198D01*
X6419110Y-8990484D02*
X6400063Y-8980960D01*
X6400063Y-8980960D02*
X6390539Y-8971436D01*
X6390539Y-8971436D02*
X6381015Y-8952389D01*
X6381015Y-8952389D02*
X6381015Y-8895246D01*
X6381015Y-8895246D02*
X6390539Y-8876198D01*
X6390539Y-8876198D02*
X6400063Y-8866674D01*
X6400063Y-8866674D02*
X6419110Y-8857150D01*
X6419110Y-8857150D02*
X6447682Y-8857150D01*
X6447682Y-8857150D02*
X6466730Y-8866674D01*
X6466730Y-8866674D02*
X6476253Y-8876198D01*
X6476253Y-8876198D02*
X6485777Y-8895246D01*
X6485777Y-8895246D02*
X6485777Y-8952389D01*
X6485777Y-8952389D02*
X6476253Y-8971436D01*
X6476253Y-8971436D02*
X6466730Y-8980960D01*
X6466730Y-8980960D02*
X6447682Y-8990484D01*
X6447682Y-8990484D02*
X6419110Y-8990484D01*
X6600063Y-8990484D02*
X6581015Y-8980960D01*
X6581015Y-8980960D02*
X6571491Y-8961912D01*
X6571491Y-8961912D02*
X6571491Y-8790484D01*
X6752444Y-8980960D02*
X6733396Y-8990484D01*
X6733396Y-8990484D02*
X6695301Y-8990484D01*
X6695301Y-8990484D02*
X6676253Y-8980960D01*
X6676253Y-8980960D02*
X6666730Y-8961912D01*
X6666730Y-8961912D02*
X6666730Y-8885722D01*
X6666730Y-8885722D02*
X6676253Y-8866674D01*
X6676253Y-8866674D02*
X6695301Y-8857150D01*
X6695301Y-8857150D02*
X6733396Y-8857150D01*
X6733396Y-8857150D02*
X6752444Y-8866674D01*
X6752444Y-8866674D02*
X6761968Y-8885722D01*
X6761968Y-8885722D02*
X6761968Y-8904770D01*
X6761968Y-8904770D02*
X6666730Y-8923817D01*
X6838158Y-8980960D02*
X6857206Y-8990484D01*
X6857206Y-8990484D02*
X6895301Y-8990484D01*
X6895301Y-8990484D02*
X6914349Y-8980960D01*
X6914349Y-8980960D02*
X6923872Y-8961912D01*
X6923872Y-8961912D02*
X6923872Y-8952389D01*
X6923872Y-8952389D02*
X6914349Y-8933341D01*
X6914349Y-8933341D02*
X6895301Y-8923817D01*
X6895301Y-8923817D02*
X6866730Y-8923817D01*
X6866730Y-8923817D02*
X6847682Y-8914293D01*
X6847682Y-8914293D02*
X6838158Y-8895246D01*
X6838158Y-8895246D02*
X6838158Y-8885722D01*
X6838158Y-8885722D02*
X6847682Y-8866674D01*
X6847682Y-8866674D02*
X6866730Y-8857150D01*
X6866730Y-8857150D02*
X6895301Y-8857150D01*
X6895301Y-8857150D02*
X6914349Y-8866674D01*
X6990539Y-9066674D02*
X7000063Y-9057150D01*
X7000063Y-9057150D02*
X7019111Y-9028579D01*
X7019111Y-9028579D02*
X7028634Y-9009531D01*
X7028634Y-9009531D02*
X7038158Y-8980960D01*
X7038158Y-8980960D02*
X7047682Y-8933341D01*
X7047682Y-8933341D02*
X7047682Y-8895246D01*
X7047682Y-8895246D02*
X7038158Y-8847627D01*
X7038158Y-8847627D02*
X7028634Y-8819055D01*
X7028634Y-8819055D02*
X7019111Y-8800008D01*
X7019111Y-8800008D02*
X7000063Y-8771436D01*
X7000063Y-8771436D02*
X6990539Y-8761912D01*
D13*
X1970390Y-9108390D02*
X1970390Y-9217610D01*
X1915780Y-9163000D02*
X2025000Y-9163000D01*
D11*
X2390539Y-9254484D02*
X2276253Y-9254484D01*
X2333396Y-9254484D02*
X2333396Y-9054484D01*
X2333396Y-9054484D02*
X2314348Y-9083055D01*
X2314348Y-9083055D02*
X2295301Y-9102103D01*
X2295301Y-9102103D02*
X2276253Y-9111627D01*
X2476253Y-9235436D02*
X2485777Y-9244960D01*
X2485777Y-9244960D02*
X2476253Y-9254484D01*
X2476253Y-9254484D02*
X2466729Y-9244960D01*
X2466729Y-9244960D02*
X2476253Y-9235436D01*
X2476253Y-9235436D02*
X2476253Y-9254484D01*
X2609586Y-9054484D02*
X2628634Y-9054484D01*
X2628634Y-9054484D02*
X2647682Y-9064008D01*
X2647682Y-9064008D02*
X2657205Y-9073531D01*
X2657205Y-9073531D02*
X2666729Y-9092579D01*
X2666729Y-9092579D02*
X2676253Y-9130674D01*
X2676253Y-9130674D02*
X2676253Y-9178293D01*
X2676253Y-9178293D02*
X2666729Y-9216389D01*
X2666729Y-9216389D02*
X2657205Y-9235436D01*
X2657205Y-9235436D02*
X2647682Y-9244960D01*
X2647682Y-9244960D02*
X2628634Y-9254484D01*
X2628634Y-9254484D02*
X2609586Y-9254484D01*
X2609586Y-9254484D02*
X2590539Y-9244960D01*
X2590539Y-9244960D02*
X2581015Y-9235436D01*
X2581015Y-9235436D02*
X2571491Y-9216389D01*
X2571491Y-9216389D02*
X2561967Y-9178293D01*
X2561967Y-9178293D02*
X2561967Y-9130674D01*
X2561967Y-9130674D02*
X2571491Y-9092579D01*
X2571491Y-9092579D02*
X2581015Y-9073531D01*
X2581015Y-9073531D02*
X2590539Y-9064008D01*
X2590539Y-9064008D02*
X2609586Y-9054484D01*
X2771491Y-9254484D02*
X2809586Y-9254484D01*
X2809586Y-9254484D02*
X2828634Y-9244960D01*
X2828634Y-9244960D02*
X2838158Y-9235436D01*
X2838158Y-9235436D02*
X2857205Y-9206865D01*
X2857205Y-9206865D02*
X2866729Y-9168770D01*
X2866729Y-9168770D02*
X2866729Y-9092579D01*
X2866729Y-9092579D02*
X2857205Y-9073531D01*
X2857205Y-9073531D02*
X2847682Y-9064008D01*
X2847682Y-9064008D02*
X2828634Y-9054484D01*
X2828634Y-9054484D02*
X2790539Y-9054484D01*
X2790539Y-9054484D02*
X2771491Y-9064008D01*
X2771491Y-9064008D02*
X2761967Y-9073531D01*
X2761967Y-9073531D02*
X2752444Y-9092579D01*
X2752444Y-9092579D02*
X2752444Y-9140198D01*
X2752444Y-9140198D02*
X2761967Y-9159246D01*
X2761967Y-9159246D02*
X2771491Y-9168770D01*
X2771491Y-9168770D02*
X2790539Y-9178293D01*
X2790539Y-9178293D02*
X2828634Y-9178293D01*
X2828634Y-9178293D02*
X2847682Y-9168770D01*
X2847682Y-9168770D02*
X2857205Y-9159246D01*
X2857205Y-9159246D02*
X2866729Y-9140198D01*
X2942920Y-9073531D02*
X2952443Y-9064008D01*
X2952443Y-9064008D02*
X2971491Y-9054484D01*
X2971491Y-9054484D02*
X3019110Y-9054484D01*
X3019110Y-9054484D02*
X3038158Y-9064008D01*
X3038158Y-9064008D02*
X3047682Y-9073531D01*
X3047682Y-9073531D02*
X3057205Y-9092579D01*
X3057205Y-9092579D02*
X3057205Y-9111627D01*
X3057205Y-9111627D02*
X3047682Y-9140198D01*
X3047682Y-9140198D02*
X2933396Y-9254484D01*
X2933396Y-9254484D02*
X3057205Y-9254484D01*
X3142920Y-9254484D02*
X3142920Y-9121150D01*
X3142920Y-9140198D02*
X3152443Y-9130674D01*
X3152443Y-9130674D02*
X3171491Y-9121150D01*
X3171491Y-9121150D02*
X3200063Y-9121150D01*
X3200063Y-9121150D02*
X3219110Y-9130674D01*
X3219110Y-9130674D02*
X3228634Y-9149722D01*
X3228634Y-9149722D02*
X3228634Y-9254484D01*
X3228634Y-9149722D02*
X3238158Y-9130674D01*
X3238158Y-9130674D02*
X3257205Y-9121150D01*
X3257205Y-9121150D02*
X3285777Y-9121150D01*
X3285777Y-9121150D02*
X3304824Y-9130674D01*
X3304824Y-9130674D02*
X3314348Y-9149722D01*
X3314348Y-9149722D02*
X3314348Y-9254484D01*
X3409586Y-9254484D02*
X3409586Y-9121150D01*
X3409586Y-9140198D02*
X3419110Y-9130674D01*
X3419110Y-9130674D02*
X3438158Y-9121150D01*
X3438158Y-9121150D02*
X3466729Y-9121150D01*
X3466729Y-9121150D02*
X3485777Y-9130674D01*
X3485777Y-9130674D02*
X3495301Y-9149722D01*
X3495301Y-9149722D02*
X3495301Y-9254484D01*
X3495301Y-9149722D02*
X3504824Y-9130674D01*
X3504824Y-9130674D02*
X3523872Y-9121150D01*
X3523872Y-9121150D02*
X3552443Y-9121150D01*
X3552443Y-9121150D02*
X3571491Y-9130674D01*
X3571491Y-9130674D02*
X3581015Y-9149722D01*
X3581015Y-9149722D02*
X3581015Y-9254484D01*
X3971491Y-9044960D02*
X3800063Y-9302103D01*
X4228634Y-9054484D02*
X4247682Y-9054484D01*
X4247682Y-9054484D02*
X4266729Y-9064008D01*
X4266729Y-9064008D02*
X4276253Y-9073531D01*
X4276253Y-9073531D02*
X4285777Y-9092579D01*
X4285777Y-9092579D02*
X4295301Y-9130674D01*
X4295301Y-9130674D02*
X4295301Y-9178293D01*
X4295301Y-9178293D02*
X4285777Y-9216389D01*
X4285777Y-9216389D02*
X4276253Y-9235436D01*
X4276253Y-9235436D02*
X4266729Y-9244960D01*
X4266729Y-9244960D02*
X4247682Y-9254484D01*
X4247682Y-9254484D02*
X4228634Y-9254484D01*
X4228634Y-9254484D02*
X4209587Y-9244960D01*
X4209587Y-9244960D02*
X4200063Y-9235436D01*
X4200063Y-9235436D02*
X4190539Y-9216389D01*
X4190539Y-9216389D02*
X4181015Y-9178293D01*
X4181015Y-9178293D02*
X4181015Y-9130674D01*
X4181015Y-9130674D02*
X4190539Y-9092579D01*
X4190539Y-9092579D02*
X4200063Y-9073531D01*
X4200063Y-9073531D02*
X4209587Y-9064008D01*
X4209587Y-9064008D02*
X4228634Y-9054484D01*
X4381015Y-9235436D02*
X4390539Y-9244960D01*
X4390539Y-9244960D02*
X4381015Y-9254484D01*
X4381015Y-9254484D02*
X4371491Y-9244960D01*
X4371491Y-9244960D02*
X4381015Y-9235436D01*
X4381015Y-9235436D02*
X4381015Y-9254484D01*
X4514348Y-9054484D02*
X4533396Y-9054484D01*
X4533396Y-9054484D02*
X4552444Y-9064008D01*
X4552444Y-9064008D02*
X4561968Y-9073531D01*
X4561968Y-9073531D02*
X4571491Y-9092579D01*
X4571491Y-9092579D02*
X4581015Y-9130674D01*
X4581015Y-9130674D02*
X4581015Y-9178293D01*
X4581015Y-9178293D02*
X4571491Y-9216389D01*
X4571491Y-9216389D02*
X4561968Y-9235436D01*
X4561968Y-9235436D02*
X4552444Y-9244960D01*
X4552444Y-9244960D02*
X4533396Y-9254484D01*
X4533396Y-9254484D02*
X4514348Y-9254484D01*
X4514348Y-9254484D02*
X4495301Y-9244960D01*
X4495301Y-9244960D02*
X4485777Y-9235436D01*
X4485777Y-9235436D02*
X4476253Y-9216389D01*
X4476253Y-9216389D02*
X4466729Y-9178293D01*
X4466729Y-9178293D02*
X4466729Y-9130674D01*
X4466729Y-9130674D02*
X4476253Y-9092579D01*
X4476253Y-9092579D02*
X4485777Y-9073531D01*
X4485777Y-9073531D02*
X4495301Y-9064008D01*
X4495301Y-9064008D02*
X4514348Y-9054484D01*
X4752444Y-9121150D02*
X4752444Y-9254484D01*
X4704825Y-9044960D02*
X4657206Y-9187817D01*
X4657206Y-9187817D02*
X4781015Y-9187817D01*
X4838158Y-9054484D02*
X4961968Y-9054484D01*
X4961968Y-9054484D02*
X4895301Y-9130674D01*
X4895301Y-9130674D02*
X4923872Y-9130674D01*
X4923872Y-9130674D02*
X4942920Y-9140198D01*
X4942920Y-9140198D02*
X4952444Y-9149722D01*
X4952444Y-9149722D02*
X4961968Y-9168770D01*
X4961968Y-9168770D02*
X4961968Y-9216389D01*
X4961968Y-9216389D02*
X4952444Y-9235436D01*
X4952444Y-9235436D02*
X4942920Y-9244960D01*
X4942920Y-9244960D02*
X4923872Y-9254484D01*
X4923872Y-9254484D02*
X4866729Y-9254484D01*
X4866729Y-9254484D02*
X4847682Y-9244960D01*
X4847682Y-9244960D02*
X4838158Y-9235436D01*
X5085777Y-9054484D02*
X5104825Y-9054484D01*
X5104825Y-9054484D02*
X5123872Y-9064008D01*
X5123872Y-9064008D02*
X5133396Y-9073531D01*
X5133396Y-9073531D02*
X5142920Y-9092579D01*
X5142920Y-9092579D02*
X5152444Y-9130674D01*
X5152444Y-9130674D02*
X5152444Y-9178293D01*
X5152444Y-9178293D02*
X5142920Y-9216389D01*
X5142920Y-9216389D02*
X5133396Y-9235436D01*
X5133396Y-9235436D02*
X5123872Y-9244960D01*
X5123872Y-9244960D02*
X5104825Y-9254484D01*
X5104825Y-9254484D02*
X5085777Y-9254484D01*
X5085777Y-9254484D02*
X5066729Y-9244960D01*
X5066729Y-9244960D02*
X5057206Y-9235436D01*
X5057206Y-9235436D02*
X5047682Y-9216389D01*
X5047682Y-9216389D02*
X5038158Y-9178293D01*
X5038158Y-9178293D02*
X5038158Y-9130674D01*
X5038158Y-9130674D02*
X5047682Y-9092579D01*
X5047682Y-9092579D02*
X5057206Y-9073531D01*
X5057206Y-9073531D02*
X5066729Y-9064008D01*
X5066729Y-9064008D02*
X5085777Y-9054484D01*
X5228634Y-9054484D02*
X5228634Y-9092579D01*
X5304825Y-9054484D02*
X5304825Y-9092579D01*
X5600063Y-9330674D02*
X5590539Y-9321150D01*
X5590539Y-9321150D02*
X5571491Y-9292579D01*
X5571491Y-9292579D02*
X5561968Y-9273531D01*
X5561968Y-9273531D02*
X5552444Y-9244960D01*
X5552444Y-9244960D02*
X5542920Y-9197341D01*
X5542920Y-9197341D02*
X5542920Y-9159246D01*
X5542920Y-9159246D02*
X5552444Y-9111627D01*
X5552444Y-9111627D02*
X5561968Y-9083055D01*
X5561968Y-9083055D02*
X5571491Y-9064008D01*
X5571491Y-9064008D02*
X5590539Y-9035436D01*
X5590539Y-9035436D02*
X5600063Y-9025912D01*
X5666729Y-9073531D02*
X5676253Y-9064008D01*
X5676253Y-9064008D02*
X5695301Y-9054484D01*
X5695301Y-9054484D02*
X5742920Y-9054484D01*
X5742920Y-9054484D02*
X5761968Y-9064008D01*
X5761968Y-9064008D02*
X5771491Y-9073531D01*
X5771491Y-9073531D02*
X5781015Y-9092579D01*
X5781015Y-9092579D02*
X5781015Y-9111627D01*
X5781015Y-9111627D02*
X5771491Y-9140198D01*
X5771491Y-9140198D02*
X5657206Y-9254484D01*
X5657206Y-9254484D02*
X5781015Y-9254484D01*
X5952444Y-9121150D02*
X5952444Y-9254484D01*
X5904825Y-9044960D02*
X5857206Y-9187817D01*
X5857206Y-9187817D02*
X5981015Y-9187817D01*
X6209587Y-9254484D02*
X6209587Y-9054484D01*
X6295301Y-9254484D02*
X6295301Y-9149722D01*
X6295301Y-9149722D02*
X6285777Y-9130674D01*
X6285777Y-9130674D02*
X6266730Y-9121150D01*
X6266730Y-9121150D02*
X6238158Y-9121150D01*
X6238158Y-9121150D02*
X6219110Y-9130674D01*
X6219110Y-9130674D02*
X6209587Y-9140198D01*
X6419110Y-9254484D02*
X6400063Y-9244960D01*
X6400063Y-9244960D02*
X6390539Y-9235436D01*
X6390539Y-9235436D02*
X6381015Y-9216389D01*
X6381015Y-9216389D02*
X6381015Y-9159246D01*
X6381015Y-9159246D02*
X6390539Y-9140198D01*
X6390539Y-9140198D02*
X6400063Y-9130674D01*
X6400063Y-9130674D02*
X6419110Y-9121150D01*
X6419110Y-9121150D02*
X6447682Y-9121150D01*
X6447682Y-9121150D02*
X6466730Y-9130674D01*
X6466730Y-9130674D02*
X6476253Y-9140198D01*
X6476253Y-9140198D02*
X6485777Y-9159246D01*
X6485777Y-9159246D02*
X6485777Y-9216389D01*
X6485777Y-9216389D02*
X6476253Y-9235436D01*
X6476253Y-9235436D02*
X6466730Y-9244960D01*
X6466730Y-9244960D02*
X6447682Y-9254484D01*
X6447682Y-9254484D02*
X6419110Y-9254484D01*
X6600063Y-9254484D02*
X6581015Y-9244960D01*
X6581015Y-9244960D02*
X6571491Y-9225912D01*
X6571491Y-9225912D02*
X6571491Y-9054484D01*
X6752444Y-9244960D02*
X6733396Y-9254484D01*
X6733396Y-9254484D02*
X6695301Y-9254484D01*
X6695301Y-9254484D02*
X6676253Y-9244960D01*
X6676253Y-9244960D02*
X6666730Y-9225912D01*
X6666730Y-9225912D02*
X6666730Y-9149722D01*
X6666730Y-9149722D02*
X6676253Y-9130674D01*
X6676253Y-9130674D02*
X6695301Y-9121150D01*
X6695301Y-9121150D02*
X6733396Y-9121150D01*
X6733396Y-9121150D02*
X6752444Y-9130674D01*
X6752444Y-9130674D02*
X6761968Y-9149722D01*
X6761968Y-9149722D02*
X6761968Y-9168770D01*
X6761968Y-9168770D02*
X6666730Y-9187817D01*
X6838158Y-9244960D02*
X6857206Y-9254484D01*
X6857206Y-9254484D02*
X6895301Y-9254484D01*
X6895301Y-9254484D02*
X6914349Y-9244960D01*
X6914349Y-9244960D02*
X6923872Y-9225912D01*
X6923872Y-9225912D02*
X6923872Y-9216389D01*
X6923872Y-9216389D02*
X6914349Y-9197341D01*
X6914349Y-9197341D02*
X6895301Y-9187817D01*
X6895301Y-9187817D02*
X6866730Y-9187817D01*
X6866730Y-9187817D02*
X6847682Y-9178293D01*
X6847682Y-9178293D02*
X6838158Y-9159246D01*
X6838158Y-9159246D02*
X6838158Y-9149722D01*
X6838158Y-9149722D02*
X6847682Y-9130674D01*
X6847682Y-9130674D02*
X6866730Y-9121150D01*
X6866730Y-9121150D02*
X6895301Y-9121150D01*
X6895301Y-9121150D02*
X6914349Y-9130674D01*
X6990539Y-9330674D02*
X7000063Y-9321150D01*
X7000063Y-9321150D02*
X7019111Y-9292579D01*
X7019111Y-9292579D02*
X7028634Y-9273531D01*
X7028634Y-9273531D02*
X7038158Y-9244960D01*
X7038158Y-9244960D02*
X7047682Y-9197341D01*
X7047682Y-9197341D02*
X7047682Y-9159246D01*
X7047682Y-9159246D02*
X7038158Y-9111627D01*
X7038158Y-9111627D02*
X7028634Y-9083055D01*
X7028634Y-9083055D02*
X7019111Y-9064008D01*
X7019111Y-9064008D02*
X7000063Y-9035436D01*
X7000063Y-9035436D02*
X6990539Y-9025912D01*
D14*
X2007427Y-9469427D02*
X2007427Y-9384573D01*
X1922573Y-9384573D01*
X1922573Y-9469427D01*
X2007427Y-9469427D01*
D11*
X2390539Y-9518484D02*
X2276253Y-9518484D01*
X2333396Y-9518484D02*
X2333396Y-9318484D01*
X2333396Y-9318484D02*
X2314348Y-9347055D01*
X2314348Y-9347055D02*
X2295301Y-9366103D01*
X2295301Y-9366103D02*
X2276253Y-9375627D01*
X2476253Y-9499436D02*
X2485777Y-9508960D01*
X2485777Y-9508960D02*
X2476253Y-9518484D01*
X2476253Y-9518484D02*
X2466729Y-9508960D01*
X2466729Y-9508960D02*
X2476253Y-9499436D01*
X2476253Y-9499436D02*
X2476253Y-9518484D01*
X2561967Y-9337531D02*
X2571491Y-9328008D01*
X2571491Y-9328008D02*
X2590539Y-9318484D01*
X2590539Y-9318484D02*
X2638158Y-9318484D01*
X2638158Y-9318484D02*
X2657205Y-9328008D01*
X2657205Y-9328008D02*
X2666729Y-9337531D01*
X2666729Y-9337531D02*
X2676253Y-9356579D01*
X2676253Y-9356579D02*
X2676253Y-9375627D01*
X2676253Y-9375627D02*
X2666729Y-9404198D01*
X2666729Y-9404198D02*
X2552444Y-9518484D01*
X2552444Y-9518484D02*
X2676253Y-9518484D01*
X2800062Y-9318484D02*
X2819110Y-9318484D01*
X2819110Y-9318484D02*
X2838158Y-9328008D01*
X2838158Y-9328008D02*
X2847682Y-9337531D01*
X2847682Y-9337531D02*
X2857205Y-9356579D01*
X2857205Y-9356579D02*
X2866729Y-9394674D01*
X2866729Y-9394674D02*
X2866729Y-9442293D01*
X2866729Y-9442293D02*
X2857205Y-9480389D01*
X2857205Y-9480389D02*
X2847682Y-9499436D01*
X2847682Y-9499436D02*
X2838158Y-9508960D01*
X2838158Y-9508960D02*
X2819110Y-9518484D01*
X2819110Y-9518484D02*
X2800062Y-9518484D01*
X2800062Y-9518484D02*
X2781015Y-9508960D01*
X2781015Y-9508960D02*
X2771491Y-9499436D01*
X2771491Y-9499436D02*
X2761967Y-9480389D01*
X2761967Y-9480389D02*
X2752444Y-9442293D01*
X2752444Y-9442293D02*
X2752444Y-9394674D01*
X2752444Y-9394674D02*
X2761967Y-9356579D01*
X2761967Y-9356579D02*
X2771491Y-9337531D01*
X2771491Y-9337531D02*
X2781015Y-9328008D01*
X2781015Y-9328008D02*
X2800062Y-9318484D01*
X2990539Y-9318484D02*
X3009586Y-9318484D01*
X3009586Y-9318484D02*
X3028634Y-9328008D01*
X3028634Y-9328008D02*
X3038158Y-9337531D01*
X3038158Y-9337531D02*
X3047682Y-9356579D01*
X3047682Y-9356579D02*
X3057205Y-9394674D01*
X3057205Y-9394674D02*
X3057205Y-9442293D01*
X3057205Y-9442293D02*
X3047682Y-9480389D01*
X3047682Y-9480389D02*
X3038158Y-9499436D01*
X3038158Y-9499436D02*
X3028634Y-9508960D01*
X3028634Y-9508960D02*
X3009586Y-9518484D01*
X3009586Y-9518484D02*
X2990539Y-9518484D01*
X2990539Y-9518484D02*
X2971491Y-9508960D01*
X2971491Y-9508960D02*
X2961967Y-9499436D01*
X2961967Y-9499436D02*
X2952443Y-9480389D01*
X2952443Y-9480389D02*
X2942920Y-9442293D01*
X2942920Y-9442293D02*
X2942920Y-9394674D01*
X2942920Y-9394674D02*
X2952443Y-9356579D01*
X2952443Y-9356579D02*
X2961967Y-9337531D01*
X2961967Y-9337531D02*
X2971491Y-9328008D01*
X2971491Y-9328008D02*
X2990539Y-9318484D01*
X3142920Y-9518484D02*
X3142920Y-9385150D01*
X3142920Y-9404198D02*
X3152443Y-9394674D01*
X3152443Y-9394674D02*
X3171491Y-9385150D01*
X3171491Y-9385150D02*
X3200063Y-9385150D01*
X3200063Y-9385150D02*
X3219110Y-9394674D01*
X3219110Y-9394674D02*
X3228634Y-9413722D01*
X3228634Y-9413722D02*
X3228634Y-9518484D01*
X3228634Y-9413722D02*
X3238158Y-9394674D01*
X3238158Y-9394674D02*
X3257205Y-9385150D01*
X3257205Y-9385150D02*
X3285777Y-9385150D01*
X3285777Y-9385150D02*
X3304824Y-9394674D01*
X3304824Y-9394674D02*
X3314348Y-9413722D01*
X3314348Y-9413722D02*
X3314348Y-9518484D01*
X3409586Y-9518484D02*
X3409586Y-9385150D01*
X3409586Y-9404198D02*
X3419110Y-9394674D01*
X3419110Y-9394674D02*
X3438158Y-9385150D01*
X3438158Y-9385150D02*
X3466729Y-9385150D01*
X3466729Y-9385150D02*
X3485777Y-9394674D01*
X3485777Y-9394674D02*
X3495301Y-9413722D01*
X3495301Y-9413722D02*
X3495301Y-9518484D01*
X3495301Y-9413722D02*
X3504824Y-9394674D01*
X3504824Y-9394674D02*
X3523872Y-9385150D01*
X3523872Y-9385150D02*
X3552443Y-9385150D01*
X3552443Y-9385150D02*
X3571491Y-9394674D01*
X3571491Y-9394674D02*
X3581015Y-9413722D01*
X3581015Y-9413722D02*
X3581015Y-9518484D01*
X3971491Y-9308960D02*
X3800063Y-9566103D01*
X4228634Y-9318484D02*
X4247682Y-9318484D01*
X4247682Y-9318484D02*
X4266729Y-9328008D01*
X4266729Y-9328008D02*
X4276253Y-9337531D01*
X4276253Y-9337531D02*
X4285777Y-9356579D01*
X4285777Y-9356579D02*
X4295301Y-9394674D01*
X4295301Y-9394674D02*
X4295301Y-9442293D01*
X4295301Y-9442293D02*
X4285777Y-9480389D01*
X4285777Y-9480389D02*
X4276253Y-9499436D01*
X4276253Y-9499436D02*
X4266729Y-9508960D01*
X4266729Y-9508960D02*
X4247682Y-9518484D01*
X4247682Y-9518484D02*
X4228634Y-9518484D01*
X4228634Y-9518484D02*
X4209587Y-9508960D01*
X4209587Y-9508960D02*
X4200063Y-9499436D01*
X4200063Y-9499436D02*
X4190539Y-9480389D01*
X4190539Y-9480389D02*
X4181015Y-9442293D01*
X4181015Y-9442293D02*
X4181015Y-9394674D01*
X4181015Y-9394674D02*
X4190539Y-9356579D01*
X4190539Y-9356579D02*
X4200063Y-9337531D01*
X4200063Y-9337531D02*
X4209587Y-9328008D01*
X4209587Y-9328008D02*
X4228634Y-9318484D01*
X4381015Y-9499436D02*
X4390539Y-9508960D01*
X4390539Y-9508960D02*
X4381015Y-9518484D01*
X4381015Y-9518484D02*
X4371491Y-9508960D01*
X4371491Y-9508960D02*
X4381015Y-9499436D01*
X4381015Y-9499436D02*
X4381015Y-9518484D01*
X4514348Y-9318484D02*
X4533396Y-9318484D01*
X4533396Y-9318484D02*
X4552444Y-9328008D01*
X4552444Y-9328008D02*
X4561968Y-9337531D01*
X4561968Y-9337531D02*
X4571491Y-9356579D01*
X4571491Y-9356579D02*
X4581015Y-9394674D01*
X4581015Y-9394674D02*
X4581015Y-9442293D01*
X4581015Y-9442293D02*
X4571491Y-9480389D01*
X4571491Y-9480389D02*
X4561968Y-9499436D01*
X4561968Y-9499436D02*
X4552444Y-9508960D01*
X4552444Y-9508960D02*
X4533396Y-9518484D01*
X4533396Y-9518484D02*
X4514348Y-9518484D01*
X4514348Y-9518484D02*
X4495301Y-9508960D01*
X4495301Y-9508960D02*
X4485777Y-9499436D01*
X4485777Y-9499436D02*
X4476253Y-9480389D01*
X4476253Y-9480389D02*
X4466729Y-9442293D01*
X4466729Y-9442293D02*
X4466729Y-9394674D01*
X4466729Y-9394674D02*
X4476253Y-9356579D01*
X4476253Y-9356579D02*
X4485777Y-9337531D01*
X4485777Y-9337531D02*
X4495301Y-9328008D01*
X4495301Y-9328008D02*
X4514348Y-9318484D01*
X4752444Y-9385150D02*
X4752444Y-9518484D01*
X4704825Y-9308960D02*
X4657206Y-9451817D01*
X4657206Y-9451817D02*
X4781015Y-9451817D01*
X4838158Y-9318484D02*
X4971491Y-9318484D01*
X4971491Y-9318484D02*
X4885777Y-9518484D01*
X5038158Y-9337531D02*
X5047682Y-9328008D01*
X5047682Y-9328008D02*
X5066729Y-9318484D01*
X5066729Y-9318484D02*
X5114349Y-9318484D01*
X5114349Y-9318484D02*
X5133396Y-9328008D01*
X5133396Y-9328008D02*
X5142920Y-9337531D01*
X5142920Y-9337531D02*
X5152444Y-9356579D01*
X5152444Y-9356579D02*
X5152444Y-9375627D01*
X5152444Y-9375627D02*
X5142920Y-9404198D01*
X5142920Y-9404198D02*
X5028634Y-9518484D01*
X5028634Y-9518484D02*
X5152444Y-9518484D01*
X5228634Y-9318484D02*
X5228634Y-9356579D01*
X5304825Y-9318484D02*
X5304825Y-9356579D01*
X5600063Y-9594674D02*
X5590539Y-9585150D01*
X5590539Y-9585150D02*
X5571491Y-9556579D01*
X5571491Y-9556579D02*
X5561968Y-9537531D01*
X5561968Y-9537531D02*
X5552444Y-9508960D01*
X5552444Y-9508960D02*
X5542920Y-9461341D01*
X5542920Y-9461341D02*
X5542920Y-9423246D01*
X5542920Y-9423246D02*
X5552444Y-9375627D01*
X5552444Y-9375627D02*
X5561968Y-9347055D01*
X5561968Y-9347055D02*
X5571491Y-9328008D01*
X5571491Y-9328008D02*
X5590539Y-9299436D01*
X5590539Y-9299436D02*
X5600063Y-9289912D01*
X5761968Y-9318484D02*
X5723872Y-9318484D01*
X5723872Y-9318484D02*
X5704825Y-9328008D01*
X5704825Y-9328008D02*
X5695301Y-9337531D01*
X5695301Y-9337531D02*
X5676253Y-9366103D01*
X5676253Y-9366103D02*
X5666729Y-9404198D01*
X5666729Y-9404198D02*
X5666729Y-9480389D01*
X5666729Y-9480389D02*
X5676253Y-9499436D01*
X5676253Y-9499436D02*
X5685777Y-9508960D01*
X5685777Y-9508960D02*
X5704825Y-9518484D01*
X5704825Y-9518484D02*
X5742920Y-9518484D01*
X5742920Y-9518484D02*
X5761968Y-9508960D01*
X5761968Y-9508960D02*
X5771491Y-9499436D01*
X5771491Y-9499436D02*
X5781015Y-9480389D01*
X5781015Y-9480389D02*
X5781015Y-9432770D01*
X5781015Y-9432770D02*
X5771491Y-9413722D01*
X5771491Y-9413722D02*
X5761968Y-9404198D01*
X5761968Y-9404198D02*
X5742920Y-9394674D01*
X5742920Y-9394674D02*
X5704825Y-9394674D01*
X5704825Y-9394674D02*
X5685777Y-9404198D01*
X5685777Y-9404198D02*
X5676253Y-9413722D01*
X5676253Y-9413722D02*
X5666729Y-9432770D01*
X5952444Y-9385150D02*
X5952444Y-9518484D01*
X5904825Y-9308960D02*
X5857206Y-9451817D01*
X5857206Y-9451817D02*
X5981015Y-9451817D01*
X6209587Y-9518484D02*
X6209587Y-9318484D01*
X6295301Y-9518484D02*
X6295301Y-9413722D01*
X6295301Y-9413722D02*
X6285777Y-9394674D01*
X6285777Y-9394674D02*
X6266730Y-9385150D01*
X6266730Y-9385150D02*
X6238158Y-9385150D01*
X6238158Y-9385150D02*
X6219110Y-9394674D01*
X6219110Y-9394674D02*
X6209587Y-9404198D01*
X6419110Y-9518484D02*
X6400063Y-9508960D01*
X6400063Y-9508960D02*
X6390539Y-9499436D01*
X6390539Y-9499436D02*
X6381015Y-9480389D01*
X6381015Y-9480389D02*
X6381015Y-9423246D01*
X6381015Y-9423246D02*
X6390539Y-9404198D01*
X6390539Y-9404198D02*
X6400063Y-9394674D01*
X6400063Y-9394674D02*
X6419110Y-9385150D01*
X6419110Y-9385150D02*
X6447682Y-9385150D01*
X6447682Y-9385150D02*
X6466730Y-9394674D01*
X6466730Y-9394674D02*
X6476253Y-9404198D01*
X6476253Y-9404198D02*
X6485777Y-9423246D01*
X6485777Y-9423246D02*
X6485777Y-9480389D01*
X6485777Y-9480389D02*
X6476253Y-9499436D01*
X6476253Y-9499436D02*
X6466730Y-9508960D01*
X6466730Y-9508960D02*
X6447682Y-9518484D01*
X6447682Y-9518484D02*
X6419110Y-9518484D01*
X6600063Y-9518484D02*
X6581015Y-9508960D01*
X6581015Y-9508960D02*
X6571491Y-9489912D01*
X6571491Y-9489912D02*
X6571491Y-9318484D01*
X6752444Y-9508960D02*
X6733396Y-9518484D01*
X6733396Y-9518484D02*
X6695301Y-9518484D01*
X6695301Y-9518484D02*
X6676253Y-9508960D01*
X6676253Y-9508960D02*
X6666730Y-9489912D01*
X6666730Y-9489912D02*
X6666730Y-9413722D01*
X6666730Y-9413722D02*
X6676253Y-9394674D01*
X6676253Y-9394674D02*
X6695301Y-9385150D01*
X6695301Y-9385150D02*
X6733396Y-9385150D01*
X6733396Y-9385150D02*
X6752444Y-9394674D01*
X6752444Y-9394674D02*
X6761968Y-9413722D01*
X6761968Y-9413722D02*
X6761968Y-9432770D01*
X6761968Y-9432770D02*
X6666730Y-9451817D01*
X6838158Y-9508960D02*
X6857206Y-9518484D01*
X6857206Y-9518484D02*
X6895301Y-9518484D01*
X6895301Y-9518484D02*
X6914349Y-9508960D01*
X6914349Y-9508960D02*
X6923872Y-9489912D01*
X6923872Y-9489912D02*
X6923872Y-9480389D01*
X6923872Y-9480389D02*
X6914349Y-9461341D01*
X6914349Y-9461341D02*
X6895301Y-9451817D01*
X6895301Y-9451817D02*
X6866730Y-9451817D01*
X6866730Y-9451817D02*
X6847682Y-9442293D01*
X6847682Y-9442293D02*
X6838158Y-9423246D01*
X6838158Y-9423246D02*
X6838158Y-9413722D01*
X6838158Y-9413722D02*
X6847682Y-9394674D01*
X6847682Y-9394674D02*
X6866730Y-9385150D01*
X6866730Y-9385150D02*
X6895301Y-9385150D01*
X6895301Y-9385150D02*
X6914349Y-9394674D01*
X6990539Y-9594674D02*
X7000063Y-9585150D01*
X7000063Y-9585150D02*
X7019111Y-9556579D01*
X7019111Y-9556579D02*
X7028634Y-9537531D01*
X7028634Y-9537531D02*
X7038158Y-9508960D01*
X7038158Y-9508960D02*
X7047682Y-9461341D01*
X7047682Y-9461341D02*
X7047682Y-9423246D01*
X7047682Y-9423246D02*
X7038158Y-9375627D01*
X7038158Y-9375627D02*
X7028634Y-9347055D01*
X7028634Y-9347055D02*
X7019111Y-9328008D01*
X7019111Y-9328008D02*
X7000063Y-9299436D01*
X7000063Y-9299436D02*
X6990539Y-9289912D01*
D15*
X1950070Y-9765930D02*
X2025000Y-9691000D01*
X1950070Y-9616070D01*
X1875140Y-9691000D01*
X1950070Y-9765930D01*
D11*
X2390539Y-9782484D02*
X2276253Y-9782484D01*
X2333396Y-9782484D02*
X2333396Y-9582484D01*
X2333396Y-9582484D02*
X2314348Y-9611055D01*
X2314348Y-9611055D02*
X2295301Y-9630103D01*
X2295301Y-9630103D02*
X2276253Y-9639627D01*
X2476253Y-9763436D02*
X2485777Y-9772960D01*
X2485777Y-9772960D02*
X2476253Y-9782484D01*
X2476253Y-9782484D02*
X2466729Y-9772960D01*
X2466729Y-9772960D02*
X2476253Y-9763436D01*
X2476253Y-9763436D02*
X2476253Y-9782484D01*
X2657205Y-9649150D02*
X2657205Y-9782484D01*
X2609586Y-9572960D02*
X2561967Y-9715817D01*
X2561967Y-9715817D02*
X2685777Y-9715817D01*
X2771491Y-9782484D02*
X2809586Y-9782484D01*
X2809586Y-9782484D02*
X2828634Y-9772960D01*
X2828634Y-9772960D02*
X2838158Y-9763436D01*
X2838158Y-9763436D02*
X2857205Y-9734865D01*
X2857205Y-9734865D02*
X2866729Y-9696770D01*
X2866729Y-9696770D02*
X2866729Y-9620579D01*
X2866729Y-9620579D02*
X2857205Y-9601531D01*
X2857205Y-9601531D02*
X2847682Y-9592008D01*
X2847682Y-9592008D02*
X2828634Y-9582484D01*
X2828634Y-9582484D02*
X2790539Y-9582484D01*
X2790539Y-9582484D02*
X2771491Y-9592008D01*
X2771491Y-9592008D02*
X2761967Y-9601531D01*
X2761967Y-9601531D02*
X2752444Y-9620579D01*
X2752444Y-9620579D02*
X2752444Y-9668198D01*
X2752444Y-9668198D02*
X2761967Y-9687246D01*
X2761967Y-9687246D02*
X2771491Y-9696770D01*
X2771491Y-9696770D02*
X2790539Y-9706293D01*
X2790539Y-9706293D02*
X2828634Y-9706293D01*
X2828634Y-9706293D02*
X2847682Y-9696770D01*
X2847682Y-9696770D02*
X2857205Y-9687246D01*
X2857205Y-9687246D02*
X2866729Y-9668198D01*
X2961967Y-9782484D02*
X3000062Y-9782484D01*
X3000062Y-9782484D02*
X3019110Y-9772960D01*
X3019110Y-9772960D02*
X3028634Y-9763436D01*
X3028634Y-9763436D02*
X3047682Y-9734865D01*
X3047682Y-9734865D02*
X3057205Y-9696770D01*
X3057205Y-9696770D02*
X3057205Y-9620579D01*
X3057205Y-9620579D02*
X3047682Y-9601531D01*
X3047682Y-9601531D02*
X3038158Y-9592008D01*
X3038158Y-9592008D02*
X3019110Y-9582484D01*
X3019110Y-9582484D02*
X2981015Y-9582484D01*
X2981015Y-9582484D02*
X2961967Y-9592008D01*
X2961967Y-9592008D02*
X2952443Y-9601531D01*
X2952443Y-9601531D02*
X2942920Y-9620579D01*
X2942920Y-9620579D02*
X2942920Y-9668198D01*
X2942920Y-9668198D02*
X2952443Y-9687246D01*
X2952443Y-9687246D02*
X2961967Y-9696770D01*
X2961967Y-9696770D02*
X2981015Y-9706293D01*
X2981015Y-9706293D02*
X3019110Y-9706293D01*
X3019110Y-9706293D02*
X3038158Y-9696770D01*
X3038158Y-9696770D02*
X3047682Y-9687246D01*
X3047682Y-9687246D02*
X3057205Y-9668198D01*
X3142920Y-9782484D02*
X3142920Y-9649150D01*
X3142920Y-9668198D02*
X3152443Y-9658674D01*
X3152443Y-9658674D02*
X3171491Y-9649150D01*
X3171491Y-9649150D02*
X3200063Y-9649150D01*
X3200063Y-9649150D02*
X3219110Y-9658674D01*
X3219110Y-9658674D02*
X3228634Y-9677722D01*
X3228634Y-9677722D02*
X3228634Y-9782484D01*
X3228634Y-9677722D02*
X3238158Y-9658674D01*
X3238158Y-9658674D02*
X3257205Y-9649150D01*
X3257205Y-9649150D02*
X3285777Y-9649150D01*
X3285777Y-9649150D02*
X3304824Y-9658674D01*
X3304824Y-9658674D02*
X3314348Y-9677722D01*
X3314348Y-9677722D02*
X3314348Y-9782484D01*
X3409586Y-9782484D02*
X3409586Y-9649150D01*
X3409586Y-9668198D02*
X3419110Y-9658674D01*
X3419110Y-9658674D02*
X3438158Y-9649150D01*
X3438158Y-9649150D02*
X3466729Y-9649150D01*
X3466729Y-9649150D02*
X3485777Y-9658674D01*
X3485777Y-9658674D02*
X3495301Y-9677722D01*
X3495301Y-9677722D02*
X3495301Y-9782484D01*
X3495301Y-9677722D02*
X3504824Y-9658674D01*
X3504824Y-9658674D02*
X3523872Y-9649150D01*
X3523872Y-9649150D02*
X3552443Y-9649150D01*
X3552443Y-9649150D02*
X3571491Y-9658674D01*
X3571491Y-9658674D02*
X3581015Y-9677722D01*
X3581015Y-9677722D02*
X3581015Y-9782484D01*
X3971491Y-9572960D02*
X3800063Y-9830103D01*
X4228634Y-9582484D02*
X4247682Y-9582484D01*
X4247682Y-9582484D02*
X4266729Y-9592008D01*
X4266729Y-9592008D02*
X4276253Y-9601531D01*
X4276253Y-9601531D02*
X4285777Y-9620579D01*
X4285777Y-9620579D02*
X4295301Y-9658674D01*
X4295301Y-9658674D02*
X4295301Y-9706293D01*
X4295301Y-9706293D02*
X4285777Y-9744389D01*
X4285777Y-9744389D02*
X4276253Y-9763436D01*
X4276253Y-9763436D02*
X4266729Y-9772960D01*
X4266729Y-9772960D02*
X4247682Y-9782484D01*
X4247682Y-9782484D02*
X4228634Y-9782484D01*
X4228634Y-9782484D02*
X4209587Y-9772960D01*
X4209587Y-9772960D02*
X4200063Y-9763436D01*
X4200063Y-9763436D02*
X4190539Y-9744389D01*
X4190539Y-9744389D02*
X4181015Y-9706293D01*
X4181015Y-9706293D02*
X4181015Y-9658674D01*
X4181015Y-9658674D02*
X4190539Y-9620579D01*
X4190539Y-9620579D02*
X4200063Y-9601531D01*
X4200063Y-9601531D02*
X4209587Y-9592008D01*
X4209587Y-9592008D02*
X4228634Y-9582484D01*
X4381015Y-9763436D02*
X4390539Y-9772960D01*
X4390539Y-9772960D02*
X4381015Y-9782484D01*
X4381015Y-9782484D02*
X4371491Y-9772960D01*
X4371491Y-9772960D02*
X4381015Y-9763436D01*
X4381015Y-9763436D02*
X4381015Y-9782484D01*
X4514348Y-9582484D02*
X4533396Y-9582484D01*
X4533396Y-9582484D02*
X4552444Y-9592008D01*
X4552444Y-9592008D02*
X4561968Y-9601531D01*
X4561968Y-9601531D02*
X4571491Y-9620579D01*
X4571491Y-9620579D02*
X4581015Y-9658674D01*
X4581015Y-9658674D02*
X4581015Y-9706293D01*
X4581015Y-9706293D02*
X4571491Y-9744389D01*
X4571491Y-9744389D02*
X4561968Y-9763436D01*
X4561968Y-9763436D02*
X4552444Y-9772960D01*
X4552444Y-9772960D02*
X4533396Y-9782484D01*
X4533396Y-9782484D02*
X4514348Y-9782484D01*
X4514348Y-9782484D02*
X4495301Y-9772960D01*
X4495301Y-9772960D02*
X4485777Y-9763436D01*
X4485777Y-9763436D02*
X4476253Y-9744389D01*
X4476253Y-9744389D02*
X4466729Y-9706293D01*
X4466729Y-9706293D02*
X4466729Y-9658674D01*
X4466729Y-9658674D02*
X4476253Y-9620579D01*
X4476253Y-9620579D02*
X4485777Y-9601531D01*
X4485777Y-9601531D02*
X4495301Y-9592008D01*
X4495301Y-9592008D02*
X4514348Y-9582484D01*
X4761968Y-9582484D02*
X4666729Y-9582484D01*
X4666729Y-9582484D02*
X4657206Y-9677722D01*
X4657206Y-9677722D02*
X4666729Y-9668198D01*
X4666729Y-9668198D02*
X4685777Y-9658674D01*
X4685777Y-9658674D02*
X4733396Y-9658674D01*
X4733396Y-9658674D02*
X4752444Y-9668198D01*
X4752444Y-9668198D02*
X4761968Y-9677722D01*
X4761968Y-9677722D02*
X4771491Y-9696770D01*
X4771491Y-9696770D02*
X4771491Y-9744389D01*
X4771491Y-9744389D02*
X4761968Y-9763436D01*
X4761968Y-9763436D02*
X4752444Y-9772960D01*
X4752444Y-9772960D02*
X4733396Y-9782484D01*
X4733396Y-9782484D02*
X4685777Y-9782484D01*
X4685777Y-9782484D02*
X4666729Y-9772960D01*
X4666729Y-9772960D02*
X4657206Y-9763436D01*
X4866729Y-9782484D02*
X4904825Y-9782484D01*
X4904825Y-9782484D02*
X4923872Y-9772960D01*
X4923872Y-9772960D02*
X4933396Y-9763436D01*
X4933396Y-9763436D02*
X4952444Y-9734865D01*
X4952444Y-9734865D02*
X4961968Y-9696770D01*
X4961968Y-9696770D02*
X4961968Y-9620579D01*
X4961968Y-9620579D02*
X4952444Y-9601531D01*
X4952444Y-9601531D02*
X4942920Y-9592008D01*
X4942920Y-9592008D02*
X4923872Y-9582484D01*
X4923872Y-9582484D02*
X4885777Y-9582484D01*
X4885777Y-9582484D02*
X4866729Y-9592008D01*
X4866729Y-9592008D02*
X4857206Y-9601531D01*
X4857206Y-9601531D02*
X4847682Y-9620579D01*
X4847682Y-9620579D02*
X4847682Y-9668198D01*
X4847682Y-9668198D02*
X4857206Y-9687246D01*
X4857206Y-9687246D02*
X4866729Y-9696770D01*
X4866729Y-9696770D02*
X4885777Y-9706293D01*
X4885777Y-9706293D02*
X4923872Y-9706293D01*
X4923872Y-9706293D02*
X4942920Y-9696770D01*
X4942920Y-9696770D02*
X4952444Y-9687246D01*
X4952444Y-9687246D02*
X4961968Y-9668198D01*
X5085777Y-9582484D02*
X5104825Y-9582484D01*
X5104825Y-9582484D02*
X5123872Y-9592008D01*
X5123872Y-9592008D02*
X5133396Y-9601531D01*
X5133396Y-9601531D02*
X5142920Y-9620579D01*
X5142920Y-9620579D02*
X5152444Y-9658674D01*
X5152444Y-9658674D02*
X5152444Y-9706293D01*
X5152444Y-9706293D02*
X5142920Y-9744389D01*
X5142920Y-9744389D02*
X5133396Y-9763436D01*
X5133396Y-9763436D02*
X5123872Y-9772960D01*
X5123872Y-9772960D02*
X5104825Y-9782484D01*
X5104825Y-9782484D02*
X5085777Y-9782484D01*
X5085777Y-9782484D02*
X5066729Y-9772960D01*
X5066729Y-9772960D02*
X5057206Y-9763436D01*
X5057206Y-9763436D02*
X5047682Y-9744389D01*
X5047682Y-9744389D02*
X5038158Y-9706293D01*
X5038158Y-9706293D02*
X5038158Y-9658674D01*
X5038158Y-9658674D02*
X5047682Y-9620579D01*
X5047682Y-9620579D02*
X5057206Y-9601531D01*
X5057206Y-9601531D02*
X5066729Y-9592008D01*
X5066729Y-9592008D02*
X5085777Y-9582484D01*
X5228634Y-9582484D02*
X5228634Y-9620579D01*
X5304825Y-9582484D02*
X5304825Y-9620579D01*
X5600063Y-9858674D02*
X5590539Y-9849150D01*
X5590539Y-9849150D02*
X5571491Y-9820579D01*
X5571491Y-9820579D02*
X5561968Y-9801531D01*
X5561968Y-9801531D02*
X5552444Y-9772960D01*
X5552444Y-9772960D02*
X5542920Y-9725341D01*
X5542920Y-9725341D02*
X5542920Y-9687246D01*
X5542920Y-9687246D02*
X5552444Y-9639627D01*
X5552444Y-9639627D02*
X5561968Y-9611055D01*
X5561968Y-9611055D02*
X5571491Y-9592008D01*
X5571491Y-9592008D02*
X5590539Y-9563436D01*
X5590539Y-9563436D02*
X5600063Y-9553912D01*
X5761968Y-9582484D02*
X5723872Y-9582484D01*
X5723872Y-9582484D02*
X5704825Y-9592008D01*
X5704825Y-9592008D02*
X5695301Y-9601531D01*
X5695301Y-9601531D02*
X5676253Y-9630103D01*
X5676253Y-9630103D02*
X5666729Y-9668198D01*
X5666729Y-9668198D02*
X5666729Y-9744389D01*
X5666729Y-9744389D02*
X5676253Y-9763436D01*
X5676253Y-9763436D02*
X5685777Y-9772960D01*
X5685777Y-9772960D02*
X5704825Y-9782484D01*
X5704825Y-9782484D02*
X5742920Y-9782484D01*
X5742920Y-9782484D02*
X5761968Y-9772960D01*
X5761968Y-9772960D02*
X5771491Y-9763436D01*
X5771491Y-9763436D02*
X5781015Y-9744389D01*
X5781015Y-9744389D02*
X5781015Y-9696770D01*
X5781015Y-9696770D02*
X5771491Y-9677722D01*
X5771491Y-9677722D02*
X5761968Y-9668198D01*
X5761968Y-9668198D02*
X5742920Y-9658674D01*
X5742920Y-9658674D02*
X5704825Y-9658674D01*
X5704825Y-9658674D02*
X5685777Y-9668198D01*
X5685777Y-9668198D02*
X5676253Y-9677722D01*
X5676253Y-9677722D02*
X5666729Y-9696770D01*
X5952444Y-9649150D02*
X5952444Y-9782484D01*
X5904825Y-9572960D02*
X5857206Y-9715817D01*
X5857206Y-9715817D02*
X5981015Y-9715817D01*
X6209587Y-9782484D02*
X6209587Y-9582484D01*
X6295301Y-9782484D02*
X6295301Y-9677722D01*
X6295301Y-9677722D02*
X6285777Y-9658674D01*
X6285777Y-9658674D02*
X6266730Y-9649150D01*
X6266730Y-9649150D02*
X6238158Y-9649150D01*
X6238158Y-9649150D02*
X6219110Y-9658674D01*
X6219110Y-9658674D02*
X6209587Y-9668198D01*
X6419110Y-9782484D02*
X6400063Y-9772960D01*
X6400063Y-9772960D02*
X6390539Y-9763436D01*
X6390539Y-9763436D02*
X6381015Y-9744389D01*
X6381015Y-9744389D02*
X6381015Y-9687246D01*
X6381015Y-9687246D02*
X6390539Y-9668198D01*
X6390539Y-9668198D02*
X6400063Y-9658674D01*
X6400063Y-9658674D02*
X6419110Y-9649150D01*
X6419110Y-9649150D02*
X6447682Y-9649150D01*
X6447682Y-9649150D02*
X6466730Y-9658674D01*
X6466730Y-9658674D02*
X6476253Y-9668198D01*
X6476253Y-9668198D02*
X6485777Y-9687246D01*
X6485777Y-9687246D02*
X6485777Y-9744389D01*
X6485777Y-9744389D02*
X6476253Y-9763436D01*
X6476253Y-9763436D02*
X6466730Y-9772960D01*
X6466730Y-9772960D02*
X6447682Y-9782484D01*
X6447682Y-9782484D02*
X6419110Y-9782484D01*
X6600063Y-9782484D02*
X6581015Y-9772960D01*
X6581015Y-9772960D02*
X6571491Y-9753912D01*
X6571491Y-9753912D02*
X6571491Y-9582484D01*
X6752444Y-9772960D02*
X6733396Y-9782484D01*
X6733396Y-9782484D02*
X6695301Y-9782484D01*
X6695301Y-9782484D02*
X6676253Y-9772960D01*
X6676253Y-9772960D02*
X6666730Y-9753912D01*
X6666730Y-9753912D02*
X6666730Y-9677722D01*
X6666730Y-9677722D02*
X6676253Y-9658674D01*
X6676253Y-9658674D02*
X6695301Y-9649150D01*
X6695301Y-9649150D02*
X6733396Y-9649150D01*
X6733396Y-9649150D02*
X6752444Y-9658674D01*
X6752444Y-9658674D02*
X6761968Y-9677722D01*
X6761968Y-9677722D02*
X6761968Y-9696770D01*
X6761968Y-9696770D02*
X6666730Y-9715817D01*
X6838158Y-9772960D02*
X6857206Y-9782484D01*
X6857206Y-9782484D02*
X6895301Y-9782484D01*
X6895301Y-9782484D02*
X6914349Y-9772960D01*
X6914349Y-9772960D02*
X6923872Y-9753912D01*
X6923872Y-9753912D02*
X6923872Y-9744389D01*
X6923872Y-9744389D02*
X6914349Y-9725341D01*
X6914349Y-9725341D02*
X6895301Y-9715817D01*
X6895301Y-9715817D02*
X6866730Y-9715817D01*
X6866730Y-9715817D02*
X6847682Y-9706293D01*
X6847682Y-9706293D02*
X6838158Y-9687246D01*
X6838158Y-9687246D02*
X6838158Y-9677722D01*
X6838158Y-9677722D02*
X6847682Y-9658674D01*
X6847682Y-9658674D02*
X6866730Y-9649150D01*
X6866730Y-9649150D02*
X6895301Y-9649150D01*
X6895301Y-9649150D02*
X6914349Y-9658674D01*
X6990539Y-9858674D02*
X7000063Y-9849150D01*
X7000063Y-9849150D02*
X7019111Y-9820579D01*
X7019111Y-9820579D02*
X7028634Y-9801531D01*
X7028634Y-9801531D02*
X7038158Y-9772960D01*
X7038158Y-9772960D02*
X7047682Y-9725341D01*
X7047682Y-9725341D02*
X7047682Y-9687246D01*
X7047682Y-9687246D02*
X7038158Y-9639627D01*
X7038158Y-9639627D02*
X7028634Y-9611055D01*
X7028634Y-9611055D02*
X7019111Y-9592008D01*
X7019111Y-9592008D02*
X7000063Y-9563436D01*
X7000063Y-9563436D02*
X6990539Y-9553912D01*
M02*
