G04 #@! TF.GenerationSoftware,KiCad,Pcbnew,7.0.7*
G04 #@! TF.CreationDate,2023-09-30T21:04:22+10:00*
G04 #@! TF.ProjectId,skink,736b696e-6b2e-46b6-9963-61645f706362,rev?*
G04 #@! TF.SameCoordinates,Original*
G04 #@! TF.FileFunction,Legend,Top*
G04 #@! TF.FilePolarity,Positive*
%FSLAX46Y46*%
G04 Gerber Fmt 4.6, Leading zero omitted, Abs format (unit mm)*
G04 Created by KiCad (PCBNEW 7.0.7) date 2023-09-30 21:04:22*
%MOMM*%
%LPD*%
G01*
G04 APERTURE LIST*
%ADD10C,0.150000*%
%ADD11C,0.120000*%
%ADD12R,1.752600X1.752600*%
%ADD13C,1.752600*%
%ADD14R,1.600000X1.600000*%
%ADD15O,1.600000X1.600000*%
%ADD16C,5.000000*%
%ADD17C,1.700000*%
%ADD18C,2.286000*%
%ADD19C,2.100000*%
%ADD20C,1.500000*%
G04 APERTURE END LIST*
D10*
X30469819Y-54477506D02*
X31184104Y-54477506D01*
X31184104Y-54477506D02*
X31326961Y-54525125D01*
X31326961Y-54525125D02*
X31422200Y-54620363D01*
X31422200Y-54620363D02*
X31469819Y-54763220D01*
X31469819Y-54763220D02*
X31469819Y-54858458D01*
X31469819Y-53525125D02*
X31469819Y-54001315D01*
X31469819Y-54001315D02*
X30469819Y-54001315D01*
X31374580Y-52620363D02*
X31422200Y-52667982D01*
X31422200Y-52667982D02*
X31469819Y-52810839D01*
X31469819Y-52810839D02*
X31469819Y-52906077D01*
X31469819Y-52906077D02*
X31422200Y-53048934D01*
X31422200Y-53048934D02*
X31326961Y-53144172D01*
X31326961Y-53144172D02*
X31231723Y-53191791D01*
X31231723Y-53191791D02*
X31041247Y-53239410D01*
X31041247Y-53239410D02*
X30898390Y-53239410D01*
X30898390Y-53239410D02*
X30707914Y-53191791D01*
X30707914Y-53191791D02*
X30612676Y-53144172D01*
X30612676Y-53144172D02*
X30517438Y-53048934D01*
X30517438Y-53048934D02*
X30469819Y-52906077D01*
X30469819Y-52906077D02*
X30469819Y-52810839D01*
X30469819Y-52810839D02*
X30517438Y-52667982D01*
X30517438Y-52667982D02*
X30565057Y-52620363D01*
X30469819Y-51906077D02*
X31184104Y-51906077D01*
X31184104Y-51906077D02*
X31326961Y-51953696D01*
X31326961Y-51953696D02*
X31422200Y-52048934D01*
X31422200Y-52048934D02*
X31469819Y-52191791D01*
X31469819Y-52191791D02*
X31469819Y-52287029D01*
X31469819Y-50953696D02*
X31469819Y-51429886D01*
X31469819Y-51429886D02*
X30469819Y-51429886D01*
X31374580Y-50048934D02*
X31422200Y-50096553D01*
X31422200Y-50096553D02*
X31469819Y-50239410D01*
X31469819Y-50239410D02*
X31469819Y-50334648D01*
X31469819Y-50334648D02*
X31422200Y-50477505D01*
X31422200Y-50477505D02*
X31326961Y-50572743D01*
X31326961Y-50572743D02*
X31231723Y-50620362D01*
X31231723Y-50620362D02*
X31041247Y-50667981D01*
X31041247Y-50667981D02*
X30898390Y-50667981D01*
X30898390Y-50667981D02*
X30707914Y-50620362D01*
X30707914Y-50620362D02*
X30612676Y-50572743D01*
X30612676Y-50572743D02*
X30517438Y-50477505D01*
X30517438Y-50477505D02*
X30469819Y-50334648D01*
X30469819Y-50334648D02*
X30469819Y-50239410D01*
X30469819Y-50239410D02*
X30517438Y-50096553D01*
X30517438Y-50096553D02*
X30565057Y-50048934D01*
X30469819Y-49334648D02*
X31184104Y-49334648D01*
X31184104Y-49334648D02*
X31326961Y-49382267D01*
X31326961Y-49382267D02*
X31422200Y-49477505D01*
X31422200Y-49477505D02*
X31469819Y-49620362D01*
X31469819Y-49620362D02*
X31469819Y-49715600D01*
X31469819Y-48382267D02*
X31469819Y-48858457D01*
X31469819Y-48858457D02*
X30469819Y-48858457D01*
X31374580Y-47477505D02*
X31422200Y-47525124D01*
X31422200Y-47525124D02*
X31469819Y-47667981D01*
X31469819Y-47667981D02*
X31469819Y-47763219D01*
X31469819Y-47763219D02*
X31422200Y-47906076D01*
X31422200Y-47906076D02*
X31326961Y-48001314D01*
X31326961Y-48001314D02*
X31231723Y-48048933D01*
X31231723Y-48048933D02*
X31041247Y-48096552D01*
X31041247Y-48096552D02*
X30898390Y-48096552D01*
X30898390Y-48096552D02*
X30707914Y-48048933D01*
X30707914Y-48048933D02*
X30612676Y-48001314D01*
X30612676Y-48001314D02*
X30517438Y-47906076D01*
X30517438Y-47906076D02*
X30469819Y-47763219D01*
X30469819Y-47763219D02*
X30469819Y-47667981D01*
X30469819Y-47667981D02*
X30517438Y-47525124D01*
X30517438Y-47525124D02*
X30565057Y-47477505D01*
X30469819Y-46763219D02*
X31184104Y-46763219D01*
X31184104Y-46763219D02*
X31326961Y-46810838D01*
X31326961Y-46810838D02*
X31422200Y-46906076D01*
X31422200Y-46906076D02*
X31469819Y-47048933D01*
X31469819Y-47048933D02*
X31469819Y-47144171D01*
X31469819Y-45810838D02*
X31469819Y-46287028D01*
X31469819Y-46287028D02*
X30469819Y-46287028D01*
X31374580Y-44906076D02*
X31422200Y-44953695D01*
X31422200Y-44953695D02*
X31469819Y-45096552D01*
X31469819Y-45096552D02*
X31469819Y-45191790D01*
X31469819Y-45191790D02*
X31422200Y-45334647D01*
X31422200Y-45334647D02*
X31326961Y-45429885D01*
X31326961Y-45429885D02*
X31231723Y-45477504D01*
X31231723Y-45477504D02*
X31041247Y-45525123D01*
X31041247Y-45525123D02*
X30898390Y-45525123D01*
X30898390Y-45525123D02*
X30707914Y-45477504D01*
X30707914Y-45477504D02*
X30612676Y-45429885D01*
X30612676Y-45429885D02*
X30517438Y-45334647D01*
X30517438Y-45334647D02*
X30469819Y-45191790D01*
X30469819Y-45191790D02*
X30469819Y-45096552D01*
X30469819Y-45096552D02*
X30517438Y-44953695D01*
X30517438Y-44953695D02*
X30565057Y-44906076D01*
X153650414Y-58972744D02*
X152900414Y-58972744D01*
X153186128Y-58972744D02*
X153150414Y-58901316D01*
X153150414Y-58901316D02*
X153150414Y-58758458D01*
X153150414Y-58758458D02*
X153186128Y-58687030D01*
X153186128Y-58687030D02*
X153221842Y-58651316D01*
X153221842Y-58651316D02*
X153293271Y-58615601D01*
X153293271Y-58615601D02*
X153507557Y-58615601D01*
X153507557Y-58615601D02*
X153578985Y-58651316D01*
X153578985Y-58651316D02*
X153614700Y-58687030D01*
X153614700Y-58687030D02*
X153650414Y-58758458D01*
X153650414Y-58758458D02*
X153650414Y-58901316D01*
X153650414Y-58901316D02*
X153614700Y-58972744D01*
X153150414Y-58365602D02*
X153650414Y-58187030D01*
X153150414Y-58008459D02*
X153650414Y-58187030D01*
X153650414Y-58187030D02*
X153828985Y-58258459D01*
X153828985Y-58258459D02*
X153864700Y-58294173D01*
X153864700Y-58294173D02*
X153900414Y-58365602D01*
X153150414Y-56829887D02*
X153757557Y-56829887D01*
X153757557Y-56829887D02*
X153828985Y-56865601D01*
X153828985Y-56865601D02*
X153864700Y-56901315D01*
X153864700Y-56901315D02*
X153900414Y-56972744D01*
X153900414Y-56972744D02*
X153900414Y-57079887D01*
X153900414Y-57079887D02*
X153864700Y-57151315D01*
X153614700Y-56829887D02*
X153650414Y-56901315D01*
X153650414Y-56901315D02*
X153650414Y-57044172D01*
X153650414Y-57044172D02*
X153614700Y-57115601D01*
X153614700Y-57115601D02*
X153578985Y-57151315D01*
X153578985Y-57151315D02*
X153507557Y-57187029D01*
X153507557Y-57187029D02*
X153293271Y-57187029D01*
X153293271Y-57187029D02*
X153221842Y-57151315D01*
X153221842Y-57151315D02*
X153186128Y-57115601D01*
X153186128Y-57115601D02*
X153150414Y-57044172D01*
X153150414Y-57044172D02*
X153150414Y-56901315D01*
X153150414Y-56901315D02*
X153186128Y-56829887D01*
X153150414Y-56472744D02*
X153650414Y-56472744D01*
X153221842Y-56472744D02*
X153186128Y-56437030D01*
X153186128Y-56437030D02*
X153150414Y-56365601D01*
X153150414Y-56365601D02*
X153150414Y-56258458D01*
X153150414Y-56258458D02*
X153186128Y-56187030D01*
X153186128Y-56187030D02*
X153257557Y-56151316D01*
X153257557Y-56151316D02*
X153650414Y-56151316D01*
X153650414Y-55472745D02*
X153257557Y-55472745D01*
X153257557Y-55472745D02*
X153186128Y-55508459D01*
X153186128Y-55508459D02*
X153150414Y-55579887D01*
X153150414Y-55579887D02*
X153150414Y-55722745D01*
X153150414Y-55722745D02*
X153186128Y-55794173D01*
X153614700Y-55472745D02*
X153650414Y-55544173D01*
X153650414Y-55544173D02*
X153650414Y-55722745D01*
X153650414Y-55722745D02*
X153614700Y-55794173D01*
X153614700Y-55794173D02*
X153543271Y-55829887D01*
X153543271Y-55829887D02*
X153471842Y-55829887D01*
X153471842Y-55829887D02*
X153400414Y-55794173D01*
X153400414Y-55794173D02*
X153364700Y-55722745D01*
X153364700Y-55722745D02*
X153364700Y-55544173D01*
X153364700Y-55544173D02*
X153328985Y-55472745D01*
X153150414Y-55187031D02*
X153650414Y-55044174D01*
X153650414Y-55044174D02*
X153293271Y-54901316D01*
X153293271Y-54901316D02*
X153650414Y-54758459D01*
X153650414Y-54758459D02*
X153150414Y-54615602D01*
X153650414Y-54329888D02*
X153150414Y-54329888D01*
X153221842Y-54329888D02*
X153186128Y-54294174D01*
X153186128Y-54294174D02*
X153150414Y-54222745D01*
X153150414Y-54222745D02*
X153150414Y-54115602D01*
X153150414Y-54115602D02*
X153186128Y-54044174D01*
X153186128Y-54044174D02*
X153257557Y-54008460D01*
X153257557Y-54008460D02*
X153650414Y-54008460D01*
X153257557Y-54008460D02*
X153186128Y-53972745D01*
X153186128Y-53972745D02*
X153150414Y-53901317D01*
X153150414Y-53901317D02*
X153150414Y-53794174D01*
X153150414Y-53794174D02*
X153186128Y-53722745D01*
X153186128Y-53722745D02*
X153257557Y-53687031D01*
X153257557Y-53687031D02*
X153650414Y-53687031D01*
X153650414Y-53008460D02*
X153257557Y-53008460D01*
X153257557Y-53008460D02*
X153186128Y-53044174D01*
X153186128Y-53044174D02*
X153150414Y-53115602D01*
X153150414Y-53115602D02*
X153150414Y-53258460D01*
X153150414Y-53258460D02*
X153186128Y-53329888D01*
X153614700Y-53008460D02*
X153650414Y-53079888D01*
X153650414Y-53079888D02*
X153650414Y-53258460D01*
X153650414Y-53258460D02*
X153614700Y-53329888D01*
X153614700Y-53329888D02*
X153543271Y-53365602D01*
X153543271Y-53365602D02*
X153471842Y-53365602D01*
X153471842Y-53365602D02*
X153400414Y-53329888D01*
X153400414Y-53329888D02*
X153364700Y-53258460D01*
X153364700Y-53258460D02*
X153364700Y-53079888D01*
X153364700Y-53079888D02*
X153328985Y-53008460D01*
X153150414Y-52651317D02*
X153650414Y-52651317D01*
X153221842Y-52651317D02*
X153186128Y-52615603D01*
X153186128Y-52615603D02*
X153150414Y-52544174D01*
X153150414Y-52544174D02*
X153150414Y-52437031D01*
X153150414Y-52437031D02*
X153186128Y-52365603D01*
X153186128Y-52365603D02*
X153257557Y-52329889D01*
X153257557Y-52329889D02*
X153650414Y-52329889D01*
D11*
X21250000Y-58210000D02*
X21250000Y-57560000D01*
X20130000Y-57560000D02*
X22370000Y-57560000D01*
X22370000Y-57560000D02*
X22370000Y-53320000D01*
X20130000Y-56960000D02*
X22370000Y-56960000D01*
X20130000Y-56840000D02*
X22370000Y-56840000D01*
X20130000Y-56720000D02*
X22370000Y-56720000D01*
X20130000Y-53320000D02*
X20130000Y-57560000D01*
X22370000Y-53320000D02*
X20130000Y-53320000D01*
X21250000Y-52670000D02*
X21250000Y-53320000D01*
X21250000Y-47460000D02*
X21250000Y-46810000D01*
X20130000Y-46810000D02*
X22370000Y-46810000D01*
X22370000Y-46810000D02*
X22370000Y-42570000D01*
X20130000Y-46210000D02*
X22370000Y-46210000D01*
X20130000Y-46090000D02*
X22370000Y-46090000D01*
X20130000Y-45970000D02*
X22370000Y-45970000D01*
X20130000Y-42570000D02*
X20130000Y-46810000D01*
X22370000Y-42570000D02*
X20130000Y-42570000D01*
X21250000Y-41920000D02*
X21250000Y-42570000D01*
X27750000Y-68250000D02*
X32250000Y-68250000D01*
X32250000Y-68250000D02*
X32250000Y-72750000D01*
X32250000Y-72750000D02*
X27750000Y-72750000D01*
X27750000Y-72750000D02*
X27750000Y-68250000D01*
X38750000Y-75000000D02*
X34250000Y-75000000D01*
X34250000Y-75000000D02*
X34250000Y-70500000D01*
X34250000Y-70500000D02*
X38750000Y-70500000D01*
X38750000Y-70500000D02*
X38750000Y-75000000D01*
X117300000Y-38730000D02*
X117300000Y-38080000D01*
X116180000Y-38080000D02*
X118420000Y-38080000D01*
X118420000Y-38080000D02*
X118420000Y-33840000D01*
X116180000Y-37480000D02*
X118420000Y-37480000D01*
X116180000Y-37360000D02*
X118420000Y-37360000D01*
X116180000Y-37240000D02*
X118420000Y-37240000D01*
X116180000Y-33840000D02*
X116180000Y-38080000D01*
X118420000Y-33840000D02*
X116180000Y-33840000D01*
X117300000Y-33190000D02*
X117300000Y-33840000D01*
X79300000Y-38730000D02*
X79300000Y-38080000D01*
X78180000Y-38080000D02*
X80420000Y-38080000D01*
X80420000Y-38080000D02*
X80420000Y-33840000D01*
X78180000Y-37480000D02*
X80420000Y-37480000D01*
X78180000Y-37360000D02*
X80420000Y-37360000D01*
X78180000Y-37240000D02*
X80420000Y-37240000D01*
X78180000Y-33840000D02*
X78180000Y-38080000D01*
X80420000Y-33840000D02*
X78180000Y-33840000D01*
X79300000Y-33190000D02*
X79300000Y-33840000D01*
X60300000Y-57730000D02*
X60300000Y-57080000D01*
X59180000Y-57080000D02*
X61420000Y-57080000D01*
X61420000Y-57080000D02*
X61420000Y-52840000D01*
X59180000Y-56480000D02*
X61420000Y-56480000D01*
X59180000Y-56360000D02*
X61420000Y-56360000D01*
X59180000Y-56240000D02*
X61420000Y-56240000D01*
X59180000Y-52840000D02*
X59180000Y-57080000D01*
X61420000Y-52840000D02*
X59180000Y-52840000D01*
X60300000Y-52190000D02*
X60300000Y-52840000D01*
X98300000Y-76730000D02*
X98300000Y-76080000D01*
X97180000Y-76080000D02*
X99420000Y-76080000D01*
X99420000Y-76080000D02*
X99420000Y-71840000D01*
X97180000Y-75480000D02*
X99420000Y-75480000D01*
X97180000Y-75360000D02*
X99420000Y-75360000D01*
X97180000Y-75240000D02*
X99420000Y-75240000D01*
X97180000Y-71840000D02*
X97180000Y-76080000D01*
X99420000Y-71840000D02*
X97180000Y-71840000D01*
X98300000Y-71190000D02*
X98300000Y-71840000D01*
X41300000Y-57730000D02*
X41300000Y-57080000D01*
X40180000Y-57080000D02*
X42420000Y-57080000D01*
X42420000Y-57080000D02*
X42420000Y-52840000D01*
X40180000Y-56480000D02*
X42420000Y-56480000D01*
X40180000Y-56360000D02*
X42420000Y-56360000D01*
X40180000Y-56240000D02*
X42420000Y-56240000D01*
X40180000Y-52840000D02*
X40180000Y-57080000D01*
X42420000Y-52840000D02*
X40180000Y-52840000D01*
X41300000Y-52190000D02*
X41300000Y-52840000D01*
X117300000Y-57730000D02*
X117300000Y-57080000D01*
X116180000Y-57080000D02*
X118420000Y-57080000D01*
X118420000Y-57080000D02*
X118420000Y-52840000D01*
X116180000Y-56480000D02*
X118420000Y-56480000D01*
X116180000Y-56360000D02*
X118420000Y-56360000D01*
X116180000Y-56240000D02*
X118420000Y-56240000D01*
X116180000Y-52840000D02*
X116180000Y-57080000D01*
X118420000Y-52840000D02*
X116180000Y-52840000D01*
X117300000Y-52190000D02*
X117300000Y-52840000D01*
X60300000Y-76730000D02*
X60300000Y-76080000D01*
X59180000Y-76080000D02*
X61420000Y-76080000D01*
X61420000Y-76080000D02*
X61420000Y-71840000D01*
X59180000Y-75480000D02*
X61420000Y-75480000D01*
X59180000Y-75360000D02*
X61420000Y-75360000D01*
X59180000Y-75240000D02*
X61420000Y-75240000D01*
X59180000Y-71840000D02*
X59180000Y-76080000D01*
X61420000Y-71840000D02*
X59180000Y-71840000D01*
X60300000Y-71190000D02*
X60300000Y-71840000D01*
X60300000Y-38730000D02*
X60300000Y-38080000D01*
X59180000Y-38080000D02*
X61420000Y-38080000D01*
X61420000Y-38080000D02*
X61420000Y-33840000D01*
X59180000Y-37480000D02*
X61420000Y-37480000D01*
X59180000Y-37360000D02*
X61420000Y-37360000D01*
X59180000Y-37240000D02*
X61420000Y-37240000D01*
X59180000Y-33840000D02*
X59180000Y-38080000D01*
X61420000Y-33840000D02*
X59180000Y-33840000D01*
X60300000Y-33190000D02*
X60300000Y-33840000D01*
X117300000Y-76730000D02*
X117300000Y-76080000D01*
X116180000Y-76080000D02*
X118420000Y-76080000D01*
X118420000Y-76080000D02*
X118420000Y-71840000D01*
X116180000Y-75480000D02*
X118420000Y-75480000D01*
X116180000Y-75360000D02*
X118420000Y-75360000D01*
X116180000Y-75240000D02*
X118420000Y-75240000D01*
X116180000Y-71840000D02*
X116180000Y-76080000D01*
X118420000Y-71840000D02*
X116180000Y-71840000D01*
X117300000Y-71190000D02*
X117300000Y-71840000D01*
X79300000Y-76730000D02*
X79300000Y-76080000D01*
X78180000Y-76080000D02*
X80420000Y-76080000D01*
X80420000Y-76080000D02*
X80420000Y-71840000D01*
X78180000Y-75480000D02*
X80420000Y-75480000D01*
X78180000Y-75360000D02*
X80420000Y-75360000D01*
X78180000Y-75240000D02*
X80420000Y-75240000D01*
X78180000Y-71840000D02*
X78180000Y-76080000D01*
X80420000Y-71840000D02*
X78180000Y-71840000D01*
X79300000Y-71190000D02*
X79300000Y-71840000D01*
X136300000Y-76730000D02*
X136300000Y-76080000D01*
X135180000Y-76080000D02*
X137420000Y-76080000D01*
X137420000Y-76080000D02*
X137420000Y-71840000D01*
X135180000Y-75480000D02*
X137420000Y-75480000D01*
X135180000Y-75360000D02*
X137420000Y-75360000D01*
X135180000Y-75240000D02*
X137420000Y-75240000D01*
X135180000Y-71840000D02*
X135180000Y-76080000D01*
X137420000Y-71840000D02*
X135180000Y-71840000D01*
X136300000Y-71190000D02*
X136300000Y-71840000D01*
X79300000Y-57730000D02*
X79300000Y-57080000D01*
X78180000Y-57080000D02*
X80420000Y-57080000D01*
X80420000Y-57080000D02*
X80420000Y-52840000D01*
X78180000Y-56480000D02*
X80420000Y-56480000D01*
X78180000Y-56360000D02*
X80420000Y-56360000D01*
X78180000Y-56240000D02*
X80420000Y-56240000D01*
X78180000Y-52840000D02*
X78180000Y-57080000D01*
X80420000Y-52840000D02*
X78180000Y-52840000D01*
X79300000Y-52190000D02*
X79300000Y-52840000D01*
X41300000Y-76730000D02*
X41300000Y-76080000D01*
X40180000Y-76080000D02*
X42420000Y-76080000D01*
X42420000Y-76080000D02*
X42420000Y-71840000D01*
X40180000Y-75480000D02*
X42420000Y-75480000D01*
X40180000Y-75360000D02*
X42420000Y-75360000D01*
X40180000Y-75240000D02*
X42420000Y-75240000D01*
X40180000Y-71840000D02*
X40180000Y-76080000D01*
X42420000Y-71840000D02*
X40180000Y-71840000D01*
X41300000Y-71190000D02*
X41300000Y-71840000D01*
X98300000Y-57730000D02*
X98300000Y-57080000D01*
X97180000Y-57080000D02*
X99420000Y-57080000D01*
X99420000Y-57080000D02*
X99420000Y-52840000D01*
X97180000Y-56480000D02*
X99420000Y-56480000D01*
X97180000Y-56360000D02*
X99420000Y-56360000D01*
X97180000Y-56240000D02*
X99420000Y-56240000D01*
X97180000Y-52840000D02*
X97180000Y-57080000D01*
X99420000Y-52840000D02*
X97180000Y-52840000D01*
X98300000Y-52190000D02*
X98300000Y-52840000D01*
X41300000Y-38730000D02*
X41300000Y-38080000D01*
X40180000Y-38080000D02*
X42420000Y-38080000D01*
X42420000Y-38080000D02*
X42420000Y-33840000D01*
X40180000Y-37480000D02*
X42420000Y-37480000D01*
X40180000Y-37360000D02*
X42420000Y-37360000D01*
X40180000Y-37240000D02*
X42420000Y-37240000D01*
X40180000Y-33840000D02*
X40180000Y-38080000D01*
X42420000Y-33840000D02*
X40180000Y-33840000D01*
X41300000Y-33190000D02*
X41300000Y-33840000D01*
X98300000Y-38730000D02*
X98300000Y-38080000D01*
X97180000Y-38080000D02*
X99420000Y-38080000D01*
X99420000Y-38080000D02*
X99420000Y-33840000D01*
X97180000Y-37480000D02*
X99420000Y-37480000D01*
X97180000Y-37360000D02*
X99420000Y-37360000D01*
X97180000Y-37240000D02*
X99420000Y-37240000D01*
X97180000Y-33840000D02*
X97180000Y-38080000D01*
X99420000Y-33840000D02*
X97180000Y-33840000D01*
X98300000Y-33190000D02*
X98300000Y-33840000D01*
D10*
X42800000Y-43400000D02*
X43800000Y-43400000D01*
X42800000Y-44400000D02*
X42800000Y-43400000D01*
X42800000Y-57400000D02*
X42800000Y-56400000D01*
X43800000Y-57400000D02*
X42800000Y-57400000D01*
X55800000Y-43400000D02*
X56800000Y-43400000D01*
X56800000Y-43400000D02*
X56800000Y-44400000D01*
X56800000Y-56400000D02*
X56800000Y-57400000D01*
X56800000Y-57400000D02*
X55800000Y-57400000D01*
X94800000Y-57400000D02*
X93800000Y-57400000D01*
X94800000Y-56400000D02*
X94800000Y-57400000D01*
X94800000Y-43400000D02*
X94800000Y-44400000D01*
X93800000Y-43400000D02*
X94800000Y-43400000D01*
X81800000Y-57400000D02*
X80800000Y-57400000D01*
X80800000Y-57400000D02*
X80800000Y-56400000D01*
X80800000Y-44400000D02*
X80800000Y-43400000D01*
X80800000Y-43400000D02*
X81800000Y-43400000D01*
X118800000Y-62400000D02*
X119800000Y-62400000D01*
X118800000Y-63400000D02*
X118800000Y-62400000D01*
X118800000Y-76400000D02*
X118800000Y-75400000D01*
X119800000Y-76400000D02*
X118800000Y-76400000D01*
X131800000Y-62400000D02*
X132800000Y-62400000D01*
X132800000Y-62400000D02*
X132800000Y-63400000D01*
X132800000Y-75400000D02*
X132800000Y-76400000D01*
X132800000Y-76400000D02*
X131800000Y-76400000D01*
X61800000Y-62400000D02*
X62800000Y-62400000D01*
X61800000Y-63400000D02*
X61800000Y-62400000D01*
X61800000Y-76400000D02*
X61800000Y-75400000D01*
X62800000Y-76400000D02*
X61800000Y-76400000D01*
X74800000Y-62400000D02*
X75800000Y-62400000D01*
X75800000Y-62400000D02*
X75800000Y-63400000D01*
X75800000Y-75400000D02*
X75800000Y-76400000D01*
X75800000Y-76400000D02*
X74800000Y-76400000D01*
X99800000Y-24400000D02*
X100800000Y-24400000D01*
X99800000Y-25400000D02*
X99800000Y-24400000D01*
X99800000Y-38400000D02*
X99800000Y-37400000D01*
X100800000Y-38400000D02*
X99800000Y-38400000D01*
X112800000Y-24400000D02*
X113800000Y-24400000D01*
X113800000Y-24400000D02*
X113800000Y-25400000D01*
X113800000Y-37400000D02*
X113800000Y-38400000D01*
X113800000Y-38400000D02*
X112800000Y-38400000D01*
X99800000Y-62400000D02*
X100800000Y-62400000D01*
X99800000Y-63400000D02*
X99800000Y-62400000D01*
X99800000Y-76400000D02*
X99800000Y-75400000D01*
X100800000Y-76400000D02*
X99800000Y-76400000D01*
X112800000Y-62400000D02*
X113800000Y-62400000D01*
X113800000Y-62400000D02*
X113800000Y-63400000D01*
X113800000Y-75400000D02*
X113800000Y-76400000D01*
X113800000Y-76400000D02*
X112800000Y-76400000D01*
X137800000Y-62400000D02*
X138800000Y-62400000D01*
X137800000Y-63400000D02*
X137800000Y-62400000D01*
X137800000Y-76400000D02*
X137800000Y-75400000D01*
X138800000Y-76400000D02*
X137800000Y-76400000D01*
X150800000Y-62400000D02*
X151800000Y-62400000D01*
X151800000Y-62400000D02*
X151800000Y-63400000D01*
X151800000Y-75400000D02*
X151800000Y-76400000D01*
X151800000Y-76400000D02*
X150800000Y-76400000D01*
X80800000Y-24400000D02*
X81800000Y-24400000D01*
X80800000Y-25400000D02*
X80800000Y-24400000D01*
X80800000Y-38400000D02*
X80800000Y-37400000D01*
X81800000Y-38400000D02*
X80800000Y-38400000D01*
X93800000Y-24400000D02*
X94800000Y-24400000D01*
X94800000Y-24400000D02*
X94800000Y-25400000D01*
X94800000Y-37400000D02*
X94800000Y-38400000D01*
X94800000Y-38400000D02*
X93800000Y-38400000D01*
X118800000Y-24400000D02*
X119800000Y-24400000D01*
X118800000Y-25400000D02*
X118800000Y-24400000D01*
X118800000Y-38400000D02*
X118800000Y-37400000D01*
X119800000Y-38400000D02*
X118800000Y-38400000D01*
X131800000Y-24400000D02*
X132800000Y-24400000D01*
X132800000Y-24400000D02*
X132800000Y-25400000D01*
X132800000Y-37400000D02*
X132800000Y-38400000D01*
X132800000Y-38400000D02*
X131800000Y-38400000D01*
X99800000Y-43400000D02*
X100800000Y-43400000D01*
X99800000Y-44400000D02*
X99800000Y-43400000D01*
X99800000Y-57400000D02*
X99800000Y-56400000D01*
X100800000Y-57400000D02*
X99800000Y-57400000D01*
X112800000Y-43400000D02*
X113800000Y-43400000D01*
X113800000Y-43400000D02*
X113800000Y-44400000D01*
X113800000Y-56400000D02*
X113800000Y-57400000D01*
X113800000Y-57400000D02*
X112800000Y-57400000D01*
X61800000Y-43400000D02*
X62800000Y-43400000D01*
X61800000Y-44400000D02*
X61800000Y-43400000D01*
X61800000Y-57400000D02*
X61800000Y-56400000D01*
X62800000Y-57400000D02*
X61800000Y-57400000D01*
X74800000Y-43400000D02*
X75800000Y-43400000D01*
X75800000Y-43400000D02*
X75800000Y-44400000D01*
X75800000Y-56400000D02*
X75800000Y-57400000D01*
X75800000Y-57400000D02*
X74800000Y-57400000D01*
D11*
X152300000Y-50300000D02*
X152300000Y-37300000D01*
X152300000Y-37300000D02*
X137300000Y-37300000D01*
X137300000Y-50300000D02*
X152300000Y-50300000D01*
X137300000Y-37300000D02*
X137300000Y-50300000D01*
D10*
X118800000Y-43400000D02*
X119800000Y-43400000D01*
X118800000Y-44400000D02*
X118800000Y-43400000D01*
X118800000Y-57400000D02*
X118800000Y-56400000D01*
X119800000Y-57400000D02*
X118800000Y-57400000D01*
X131800000Y-43400000D02*
X132800000Y-43400000D01*
X132800000Y-43400000D02*
X132800000Y-44400000D01*
X132800000Y-56400000D02*
X132800000Y-57400000D01*
X132800000Y-57400000D02*
X131800000Y-57400000D01*
X42800000Y-24400000D02*
X43800000Y-24400000D01*
X42800000Y-25400000D02*
X42800000Y-24400000D01*
X42800000Y-38400000D02*
X42800000Y-37400000D01*
X43800000Y-38400000D02*
X42800000Y-38400000D01*
X55800000Y-24400000D02*
X56800000Y-24400000D01*
X56800000Y-24400000D02*
X56800000Y-25400000D01*
X56800000Y-37400000D02*
X56800000Y-38400000D01*
X56800000Y-38400000D02*
X55800000Y-38400000D01*
X61800000Y-24400000D02*
X62800000Y-24400000D01*
X61800000Y-25400000D02*
X61800000Y-24400000D01*
X61800000Y-38400000D02*
X61800000Y-37400000D01*
X62800000Y-38400000D02*
X61800000Y-38400000D01*
X74800000Y-24400000D02*
X75800000Y-24400000D01*
X75800000Y-24400000D02*
X75800000Y-25400000D01*
X75800000Y-37400000D02*
X75800000Y-38400000D01*
X75800000Y-38400000D02*
X74800000Y-38400000D01*
X40010000Y-33070000D02*
X22230000Y-33070000D01*
X22230000Y-33070000D02*
X22230000Y-66090000D01*
X24770000Y-35610000D02*
X22230000Y-35610000D01*
X24770000Y-35610000D02*
X24770000Y-38150000D01*
X24770000Y-38150000D02*
X22230000Y-38150000D01*
X40010000Y-66090000D02*
X40010000Y-33070000D01*
X22230000Y-66090000D02*
X40010000Y-66090000D01*
X42800000Y-62400000D02*
X43800000Y-62400000D01*
X42800000Y-63400000D02*
X42800000Y-62400000D01*
X42800000Y-76400000D02*
X42800000Y-75400000D01*
X43800000Y-76400000D02*
X42800000Y-76400000D01*
X55800000Y-62400000D02*
X56800000Y-62400000D01*
X56800000Y-62400000D02*
X56800000Y-63400000D01*
X56800000Y-75400000D02*
X56800000Y-76400000D01*
X56800000Y-76400000D02*
X55800000Y-76400000D01*
X80800000Y-62400000D02*
X81800000Y-62400000D01*
X80800000Y-63400000D02*
X80800000Y-62400000D01*
X80800000Y-76400000D02*
X80800000Y-75400000D01*
X81800000Y-76400000D02*
X80800000Y-76400000D01*
X93800000Y-62400000D02*
X94800000Y-62400000D01*
X94800000Y-62400000D02*
X94800000Y-63400000D01*
X94800000Y-75400000D02*
X94800000Y-76400000D01*
X94800000Y-76400000D02*
X93800000Y-76400000D01*
D12*
X23500000Y-36880000D03*
D13*
X23500000Y-39420000D03*
X23500000Y-41960000D03*
X23500000Y-44500000D03*
X23500000Y-47040000D03*
X23500000Y-49580000D03*
X23500000Y-52120000D03*
X23500000Y-54660000D03*
X23500000Y-57200000D03*
X23500000Y-59740000D03*
X23500000Y-62280000D03*
X23500000Y-64820000D03*
X38740000Y-36880000D03*
X38740000Y-39420000D03*
X38740000Y-41960000D03*
X38740000Y-44500000D03*
X38740000Y-47040000D03*
X38740000Y-49580000D03*
X38740000Y-52120000D03*
X38740000Y-54660000D03*
X38740000Y-57200000D03*
X38740000Y-59740000D03*
X38740000Y-62280000D03*
X38740000Y-64820000D03*
%LPC*%
D14*
X21250000Y-59250000D03*
D15*
X21250000Y-51630000D03*
D14*
X21250000Y-48500000D03*
D15*
X21250000Y-40880000D03*
X32250000Y-67250000D03*
X32250000Y-73750000D03*
X27750000Y-67250000D03*
X27750000Y-73750000D03*
X34250000Y-69500000D03*
X34250000Y-76000000D03*
X38750000Y-76000000D03*
X38750000Y-69500000D03*
D14*
X117300000Y-39770000D03*
D15*
X117300000Y-32150000D03*
D14*
X79300000Y-39770000D03*
D15*
X79300000Y-32150000D03*
D14*
X60300000Y-58770000D03*
D15*
X60300000Y-51150000D03*
D14*
X98300000Y-77770000D03*
D15*
X98300000Y-70150000D03*
D14*
X41300000Y-58770000D03*
D15*
X41300000Y-51150000D03*
D14*
X117300000Y-58770000D03*
D15*
X117300000Y-51150000D03*
D14*
X60300000Y-77770000D03*
D15*
X60300000Y-70150000D03*
D14*
X60300000Y-39770000D03*
D15*
X60300000Y-32150000D03*
D14*
X117300000Y-77770000D03*
D15*
X117300000Y-70150000D03*
D14*
X79300000Y-77770000D03*
D15*
X79300000Y-70150000D03*
D14*
X136300000Y-77770000D03*
D15*
X136300000Y-70150000D03*
D14*
X79300000Y-58770000D03*
D15*
X79300000Y-51150000D03*
D14*
X41300000Y-77770000D03*
D15*
X41300000Y-70150000D03*
D14*
X98300000Y-58770000D03*
D15*
X98300000Y-51150000D03*
D14*
X41300000Y-39770000D03*
D15*
X41300000Y-32150000D03*
D14*
X98300000Y-39770000D03*
D15*
X98300000Y-32150000D03*
D16*
X49800000Y-50400000D03*
D17*
X47200000Y-56150000D03*
D18*
X47260000Y-45320000D03*
X52340000Y-45320000D03*
D17*
X52400000Y-56150000D03*
X45400000Y-55100000D03*
D18*
X45990000Y-47860000D03*
X53610000Y-47860000D03*
D17*
X54200000Y-55100000D03*
X92200000Y-55100000D03*
D18*
X91610000Y-47860000D03*
X83990000Y-47860000D03*
D17*
X83400000Y-55100000D03*
X90400000Y-56150000D03*
D18*
X90340000Y-45320000D03*
X85260000Y-45320000D03*
D17*
X85200000Y-56150000D03*
D16*
X87800000Y-50400000D03*
X125800000Y-69400000D03*
D17*
X123200000Y-75150000D03*
D18*
X123260000Y-64320000D03*
X128340000Y-64320000D03*
D17*
X128400000Y-75150000D03*
X121400000Y-74100000D03*
D18*
X121990000Y-66860000D03*
X129610000Y-66860000D03*
D17*
X130200000Y-74100000D03*
D16*
X68800000Y-69400000D03*
D17*
X66200000Y-75150000D03*
D18*
X66260000Y-64320000D03*
X71340000Y-64320000D03*
D17*
X71400000Y-75150000D03*
X64400000Y-74100000D03*
D18*
X64990000Y-66860000D03*
X72610000Y-66860000D03*
D17*
X73200000Y-74100000D03*
D16*
X106800000Y-31400000D03*
D17*
X104200000Y-37150000D03*
D18*
X104260000Y-26320000D03*
X109340000Y-26320000D03*
D17*
X109400000Y-37150000D03*
X102400000Y-36100000D03*
D18*
X102990000Y-28860000D03*
X110610000Y-28860000D03*
D17*
X111200000Y-36100000D03*
D16*
X106800000Y-69400000D03*
D17*
X104200000Y-75150000D03*
D18*
X104260000Y-64320000D03*
X109340000Y-64320000D03*
D17*
X109400000Y-75150000D03*
X102400000Y-74100000D03*
D18*
X102990000Y-66860000D03*
X110610000Y-66860000D03*
D17*
X111200000Y-74100000D03*
D16*
X144800000Y-69400000D03*
D17*
X142200000Y-75150000D03*
D18*
X142260000Y-64320000D03*
X147340000Y-64320000D03*
D17*
X147400000Y-75150000D03*
X140400000Y-74100000D03*
D18*
X140990000Y-66860000D03*
X148610000Y-66860000D03*
D17*
X149200000Y-74100000D03*
D16*
X87800000Y-31400000D03*
D17*
X85200000Y-37150000D03*
D18*
X85260000Y-26320000D03*
X90340000Y-26320000D03*
D17*
X90400000Y-37150000D03*
X83400000Y-36100000D03*
D18*
X83990000Y-28860000D03*
X91610000Y-28860000D03*
D17*
X92200000Y-36100000D03*
D16*
X125800000Y-31400000D03*
D17*
X123200000Y-37150000D03*
D18*
X123260000Y-26320000D03*
X128340000Y-26320000D03*
D17*
X128400000Y-37150000D03*
X121400000Y-36100000D03*
D18*
X121990000Y-28860000D03*
X129610000Y-28860000D03*
D17*
X130200000Y-36100000D03*
D16*
X106800000Y-50400000D03*
D17*
X104200000Y-56150000D03*
D18*
X104260000Y-45320000D03*
X109340000Y-45320000D03*
D17*
X109400000Y-56150000D03*
X102400000Y-55100000D03*
D18*
X102990000Y-47860000D03*
X110610000Y-47860000D03*
D17*
X111200000Y-55100000D03*
D16*
X68800000Y-50400000D03*
D17*
X66200000Y-56150000D03*
D18*
X66260000Y-45320000D03*
X71340000Y-45320000D03*
D17*
X71400000Y-56150000D03*
X64400000Y-55100000D03*
D18*
X64990000Y-47860000D03*
X72610000Y-47860000D03*
D17*
X73200000Y-55100000D03*
D19*
X152300000Y-43300000D03*
D20*
X148300000Y-48300000D03*
X147300000Y-45800000D03*
X146300000Y-48300000D03*
X145300000Y-45800000D03*
X144300000Y-48300000D03*
X143300000Y-45800000D03*
X142300000Y-48300000D03*
X141300000Y-45800000D03*
D19*
X137300000Y-43300000D03*
D16*
X125800000Y-50400000D03*
D17*
X123200000Y-56150000D03*
D18*
X123260000Y-45320000D03*
X128340000Y-45320000D03*
D17*
X128400000Y-56150000D03*
X121400000Y-55100000D03*
D18*
X121990000Y-47860000D03*
X129610000Y-47860000D03*
D17*
X130200000Y-55100000D03*
D16*
X49800000Y-31400000D03*
D17*
X47200000Y-37150000D03*
D18*
X47260000Y-26320000D03*
X52340000Y-26320000D03*
D17*
X52400000Y-37150000D03*
X45400000Y-36100000D03*
D18*
X45990000Y-28860000D03*
X53610000Y-28860000D03*
D17*
X54200000Y-36100000D03*
D16*
X68800000Y-31400000D03*
D17*
X66200000Y-37150000D03*
D18*
X66260000Y-26320000D03*
X71340000Y-26320000D03*
D17*
X71400000Y-37150000D03*
X64400000Y-36100000D03*
D18*
X64990000Y-28860000D03*
X72610000Y-28860000D03*
D17*
X73200000Y-36100000D03*
D12*
X23500000Y-36880000D03*
D13*
X23500000Y-39420000D03*
X23500000Y-41960000D03*
X23500000Y-44500000D03*
X23500000Y-47040000D03*
X23500000Y-49580000D03*
X23500000Y-52120000D03*
X23500000Y-54660000D03*
X23500000Y-57200000D03*
X23500000Y-59740000D03*
X23500000Y-62280000D03*
X23500000Y-64820000D03*
X38740000Y-36880000D03*
X38740000Y-39420000D03*
X38740000Y-41960000D03*
X38740000Y-44500000D03*
X38740000Y-47040000D03*
X38740000Y-49580000D03*
X38740000Y-52120000D03*
X38740000Y-54660000D03*
X38740000Y-57200000D03*
X38740000Y-59740000D03*
X38740000Y-62280000D03*
X38740000Y-64820000D03*
D16*
X49800000Y-69400000D03*
D17*
X47200000Y-75150000D03*
D18*
X47260000Y-64320000D03*
X52340000Y-64320000D03*
D17*
X52400000Y-75150000D03*
X45400000Y-74100000D03*
D18*
X45990000Y-66860000D03*
X53610000Y-66860000D03*
D17*
X54200000Y-74100000D03*
D16*
X87800000Y-69400000D03*
D17*
X85200000Y-75150000D03*
D18*
X85260000Y-64320000D03*
X90340000Y-64320000D03*
D17*
X90400000Y-75150000D03*
X83400000Y-74100000D03*
D18*
X83990000Y-66860000D03*
X91610000Y-66860000D03*
D17*
X92200000Y-74100000D03*
D19*
X137300000Y-50400000D03*
D20*
X141300000Y-55400000D03*
X142300000Y-52900000D03*
X143300000Y-55400000D03*
X144300000Y-52900000D03*
X145300000Y-55400000D03*
X146300000Y-52900000D03*
X147300000Y-55400000D03*
X148300000Y-52900000D03*
D19*
X152300000Y-50400000D03*
%LPD*%
M02*
