M48
; DRILL file {KiCad 7.0.7} date Sat Sep 30 21:04:57 2023
; FORMAT={-:-/ absolute / metric / decimal}
; #@! TF.CreationDate,2023-09-30T21:04:57+10:00
; #@! TF.GenerationSoftware,Kicad,Pcbnew,7.0.7
; #@! TF.FileFunction,Plated,1,2,PTH
FMAT,2
METRIC
; #@! TA.AperFunction,Plated,PTH,ComponentDrill
T1C0.800
; #@! TA.AperFunction,Plated,PTH,ComponentDrill
T2C1.000
; #@! TA.AperFunction,Plated,PTH,ComponentDrill
T3C1.092
; #@! TA.AperFunction,Plated,PTH,ComponentDrill
T4C1.200
; #@! TA.AperFunction,Plated,PTH,ComponentDrill
T5C1.499
%
G90
G05
T1
X21.25Y-40.88
X21.25Y-48.5
X21.25Y-51.63
X21.25Y-59.25
X27.75Y-67.25
X27.75Y-73.75
X32.25Y-67.25
X32.25Y-73.75
X34.25Y-69.5
X34.25Y-76.0
X38.75Y-69.5
X38.75Y-76.0
X41.3Y-32.15
X41.3Y-39.77
X41.3Y-51.15
X41.3Y-58.77
X41.3Y-70.15
X41.3Y-77.77
X60.3Y-32.15
X60.3Y-39.77
X60.3Y-51.15
X60.3Y-58.77
X60.3Y-70.15
X60.3Y-77.77
X79.3Y-32.15
X79.3Y-39.77
X79.3Y-51.15
X79.3Y-58.77
X79.3Y-70.15
X79.3Y-77.77
X98.3Y-32.15
X98.3Y-39.77
X98.3Y-51.15
X98.3Y-58.77
X98.3Y-70.15
X98.3Y-77.77
X117.3Y-32.15
X117.3Y-39.77
X117.3Y-51.15
X117.3Y-58.77
X117.3Y-70.15
X117.3Y-77.77
X136.3Y-70.15
X136.3Y-77.77
T2
X141.3Y-45.8
X141.3Y-55.4
X142.3Y-48.3
X142.3Y-52.9
X143.3Y-45.8
X143.3Y-55.4
X144.3Y-48.3
X144.3Y-52.9
X145.3Y-45.8
X145.3Y-55.4
X146.3Y-48.3
X146.3Y-52.9
X147.3Y-45.8
X147.3Y-55.4
X148.3Y-48.3
X148.3Y-52.9
T3
X23.5Y-36.88
X23.5Y-39.42
X23.5Y-41.96
X23.5Y-44.5
X23.5Y-47.04
X23.5Y-49.58
X23.5Y-52.12
X23.5Y-54.66
X23.5Y-57.2
X23.5Y-59.74
X23.5Y-62.28
X23.5Y-64.82
X38.74Y-36.88
X38.74Y-39.42
X38.74Y-41.96
X38.74Y-44.5
X38.74Y-47.04
X38.74Y-49.58
X38.74Y-52.12
X38.74Y-54.66
X38.74Y-57.2
X38.74Y-59.74
X38.74Y-62.28
X38.74Y-64.82
T4
X45.4Y-36.1
X45.4Y-55.1
X45.4Y-74.1
X47.2Y-37.15
X47.2Y-56.15
X47.2Y-75.15
X52.4Y-37.15
X52.4Y-56.15
X52.4Y-75.15
X54.2Y-36.1
X54.2Y-55.1
X54.2Y-74.1
X64.4Y-36.1
X64.4Y-55.1
X64.4Y-74.1
X66.2Y-37.15
X66.2Y-56.15
X66.2Y-75.15
X71.4Y-37.15
X71.4Y-56.15
X71.4Y-75.15
X73.2Y-36.1
X73.2Y-55.1
X73.2Y-74.1
X83.4Y-36.1
X83.4Y-55.1
X83.4Y-74.1
X85.2Y-37.15
X85.2Y-56.15
X85.2Y-75.15
X90.4Y-37.15
X90.4Y-56.15
X90.4Y-75.15
X92.2Y-36.1
X92.2Y-55.1
X92.2Y-74.1
X102.4Y-36.1
X102.4Y-55.1
X102.4Y-74.1
X104.2Y-37.15
X104.2Y-56.15
X104.2Y-75.15
X109.4Y-37.15
X109.4Y-56.15
X109.4Y-75.15
X111.2Y-36.1
X111.2Y-55.1
X111.2Y-74.1
X121.4Y-36.1
X121.4Y-55.1
X121.4Y-74.1
X123.2Y-37.15
X123.2Y-56.15
X123.2Y-75.15
X128.4Y-37.15
X128.4Y-56.15
X128.4Y-75.15
X130.2Y-36.1
X130.2Y-55.1
X130.2Y-74.1
X140.4Y-74.1
X142.2Y-75.15
X147.4Y-75.15
X149.2Y-74.1
T5
X45.99Y-28.86
X45.99Y-47.86
X45.99Y-66.86
X47.26Y-26.32
X47.26Y-45.32
X47.26Y-64.32
X52.34Y-26.32
X52.34Y-45.32
X52.34Y-64.32
X53.61Y-28.86
X53.61Y-47.86
X53.61Y-66.86
X64.99Y-28.86
X64.99Y-47.86
X64.99Y-66.86
X66.26Y-26.32
X66.26Y-45.32
X66.26Y-64.32
X71.34Y-26.32
X71.34Y-45.32
X71.34Y-64.32
X72.61Y-28.86
X72.61Y-47.86
X72.61Y-66.86
X83.99Y-28.86
X83.99Y-47.86
X83.99Y-66.86
X85.26Y-26.32
X85.26Y-45.32
X85.26Y-64.32
X90.34Y-26.32
X90.34Y-45.32
X90.34Y-64.32
X91.61Y-28.86
X91.61Y-47.86
X91.61Y-66.86
X102.99Y-28.86
X102.99Y-47.86
X102.99Y-66.86
X104.26Y-26.32
X104.26Y-45.32
X104.26Y-64.32
X109.34Y-26.32
X109.34Y-45.32
X109.34Y-64.32
X110.61Y-28.86
X110.61Y-47.86
X110.61Y-66.86
X121.99Y-28.86
X121.99Y-47.86
X121.99Y-66.86
X123.26Y-26.32
X123.26Y-45.32
X123.26Y-64.32
X128.34Y-26.32
X128.34Y-45.32
X128.34Y-64.32
X129.61Y-28.86
X129.61Y-47.86
X129.61Y-66.86
X140.99Y-66.86
X142.26Y-64.32
X147.34Y-64.32
X148.61Y-66.86
T0
M30
