G04 #@! TF.GenerationSoftware,KiCad,Pcbnew,7.0.7*
G04 #@! TF.CreationDate,2023-09-30T21:04:22+10:00*
G04 #@! TF.ProjectId,skink,736b696e-6b2e-46b6-9963-61645f706362,rev?*
G04 #@! TF.SameCoordinates,Original*
G04 #@! TF.FileFunction,Copper,L2,Bot*
G04 #@! TF.FilePolarity,Positive*
%FSLAX46Y46*%
G04 Gerber Fmt 4.6, Leading zero omitted, Abs format (unit mm)*
G04 Created by KiCad (PCBNEW 7.0.7) date 2023-09-30 21:04:22*
%MOMM*%
%LPD*%
G01*
G04 APERTURE LIST*
G04 #@! TA.AperFunction,ComponentPad*
%ADD10R,1.600000X1.600000*%
G04 #@! TD*
G04 #@! TA.AperFunction,ComponentPad*
%ADD11O,1.600000X1.600000*%
G04 #@! TD*
G04 #@! TA.AperFunction,ComponentPad*
%ADD12C,1.700000*%
G04 #@! TD*
G04 #@! TA.AperFunction,ComponentPad*
%ADD13C,2.286000*%
G04 #@! TD*
G04 #@! TA.AperFunction,ComponentPad*
%ADD14C,1.500000*%
G04 #@! TD*
G04 #@! TA.AperFunction,ComponentPad*
%ADD15R,1.752600X1.752600*%
G04 #@! TD*
G04 #@! TA.AperFunction,ComponentPad*
%ADD16C,1.752600*%
G04 #@! TD*
G04 #@! TA.AperFunction,Conductor*
%ADD17C,0.250000*%
G04 #@! TD*
G04 #@! TA.AperFunction,Conductor*
%ADD18C,0.200000*%
G04 #@! TD*
G04 APERTURE END LIST*
D10*
X21250000Y-59250000D03*
D11*
X21250000Y-51630000D03*
D10*
X21250000Y-48500000D03*
D11*
X21250000Y-40880000D03*
X32250000Y-67250000D03*
X32250000Y-73750000D03*
X27750000Y-67250000D03*
X27750000Y-73750000D03*
X34250000Y-69500000D03*
X34250000Y-76000000D03*
X38750000Y-76000000D03*
X38750000Y-69500000D03*
D10*
X117300000Y-39770000D03*
D11*
X117300000Y-32150000D03*
D10*
X79300000Y-39770000D03*
D11*
X79300000Y-32150000D03*
D10*
X60300000Y-58770000D03*
D11*
X60300000Y-51150000D03*
D10*
X98300000Y-77770000D03*
D11*
X98300000Y-70150000D03*
D10*
X41300000Y-58770000D03*
D11*
X41300000Y-51150000D03*
D10*
X117300000Y-58770000D03*
D11*
X117300000Y-51150000D03*
D10*
X60300000Y-77770000D03*
D11*
X60300000Y-70150000D03*
D10*
X60300000Y-39770000D03*
D11*
X60300000Y-32150000D03*
D10*
X117300000Y-77770000D03*
D11*
X117300000Y-70150000D03*
D10*
X79300000Y-77770000D03*
D11*
X79300000Y-70150000D03*
D10*
X136300000Y-77770000D03*
D11*
X136300000Y-70150000D03*
D10*
X79300000Y-58770000D03*
D11*
X79300000Y-51150000D03*
D10*
X41300000Y-77770000D03*
D11*
X41300000Y-70150000D03*
D10*
X98300000Y-58770000D03*
D11*
X98300000Y-51150000D03*
D10*
X41300000Y-39770000D03*
D11*
X41300000Y-32150000D03*
D10*
X98300000Y-39770000D03*
D11*
X98300000Y-32150000D03*
D12*
X47200000Y-56150000D03*
D13*
X47260000Y-45320000D03*
X52340000Y-45320000D03*
D12*
X52400000Y-56150000D03*
X45400000Y-55100000D03*
D13*
X45990000Y-47860000D03*
X53610000Y-47860000D03*
D12*
X54200000Y-55100000D03*
X92200000Y-55100000D03*
D13*
X91610000Y-47860000D03*
X83990000Y-47860000D03*
D12*
X83400000Y-55100000D03*
X90400000Y-56150000D03*
D13*
X90340000Y-45320000D03*
X85260000Y-45320000D03*
D12*
X85200000Y-56150000D03*
X123200000Y-75150000D03*
D13*
X123260000Y-64320000D03*
X128340000Y-64320000D03*
D12*
X128400000Y-75150000D03*
X121400000Y-74100000D03*
D13*
X121990000Y-66860000D03*
X129610000Y-66860000D03*
D12*
X130200000Y-74100000D03*
X66200000Y-75150000D03*
D13*
X66260000Y-64320000D03*
X71340000Y-64320000D03*
D12*
X71400000Y-75150000D03*
X64400000Y-74100000D03*
D13*
X64990000Y-66860000D03*
X72610000Y-66860000D03*
D12*
X73200000Y-74100000D03*
X104200000Y-37150000D03*
D13*
X104260000Y-26320000D03*
X109340000Y-26320000D03*
D12*
X109400000Y-37150000D03*
X102400000Y-36100000D03*
D13*
X102990000Y-28860000D03*
X110610000Y-28860000D03*
D12*
X111200000Y-36100000D03*
X104200000Y-75150000D03*
D13*
X104260000Y-64320000D03*
X109340000Y-64320000D03*
D12*
X109400000Y-75150000D03*
X102400000Y-74100000D03*
D13*
X102990000Y-66860000D03*
X110610000Y-66860000D03*
D12*
X111200000Y-74100000D03*
X142200000Y-75150000D03*
D13*
X142260000Y-64320000D03*
X147340000Y-64320000D03*
D12*
X147400000Y-75150000D03*
X140400000Y-74100000D03*
D13*
X140990000Y-66860000D03*
X148610000Y-66860000D03*
D12*
X149200000Y-74100000D03*
X85200000Y-37150000D03*
D13*
X85260000Y-26320000D03*
X90340000Y-26320000D03*
D12*
X90400000Y-37150000D03*
X83400000Y-36100000D03*
D13*
X83990000Y-28860000D03*
X91610000Y-28860000D03*
D12*
X92200000Y-36100000D03*
X123200000Y-37150000D03*
D13*
X123260000Y-26320000D03*
X128340000Y-26320000D03*
D12*
X128400000Y-37150000D03*
X121400000Y-36100000D03*
D13*
X121990000Y-28860000D03*
X129610000Y-28860000D03*
D12*
X130200000Y-36100000D03*
X104200000Y-56150000D03*
D13*
X104260000Y-45320000D03*
X109340000Y-45320000D03*
D12*
X109400000Y-56150000D03*
X102400000Y-55100000D03*
D13*
X102990000Y-47860000D03*
X110610000Y-47860000D03*
D12*
X111200000Y-55100000D03*
X66200000Y-56150000D03*
D13*
X66260000Y-45320000D03*
X71340000Y-45320000D03*
D12*
X71400000Y-56150000D03*
X64400000Y-55100000D03*
D13*
X64990000Y-47860000D03*
X72610000Y-47860000D03*
D12*
X73200000Y-55100000D03*
D14*
X148300000Y-48300000D03*
X147300000Y-45800000D03*
X146300000Y-48300000D03*
X145300000Y-45800000D03*
X144300000Y-48300000D03*
X143300000Y-45800000D03*
X142300000Y-48300000D03*
X141300000Y-45800000D03*
D12*
X123200000Y-56150000D03*
D13*
X123260000Y-45320000D03*
X128340000Y-45320000D03*
D12*
X128400000Y-56150000D03*
X121400000Y-55100000D03*
D13*
X121990000Y-47860000D03*
X129610000Y-47860000D03*
D12*
X130200000Y-55100000D03*
X47200000Y-37150000D03*
D13*
X47260000Y-26320000D03*
X52340000Y-26320000D03*
D12*
X52400000Y-37150000D03*
X45400000Y-36100000D03*
D13*
X45990000Y-28860000D03*
X53610000Y-28860000D03*
D12*
X54200000Y-36100000D03*
X66200000Y-37150000D03*
D13*
X66260000Y-26320000D03*
X71340000Y-26320000D03*
D12*
X71400000Y-37150000D03*
X64400000Y-36100000D03*
D13*
X64990000Y-28860000D03*
X72610000Y-28860000D03*
D12*
X73200000Y-36100000D03*
D15*
X23500000Y-36880000D03*
D16*
X23500000Y-39420000D03*
X23500000Y-41960000D03*
X23500000Y-44500000D03*
X23500000Y-47040000D03*
X23500000Y-49580000D03*
X23500000Y-52120000D03*
X23500000Y-54660000D03*
X23500000Y-57200000D03*
X23500000Y-59740000D03*
X23500000Y-62280000D03*
X23500000Y-64820000D03*
X38740000Y-36880000D03*
X38740000Y-39420000D03*
X38740000Y-41960000D03*
X38740000Y-44500000D03*
X38740000Y-47040000D03*
X38740000Y-49580000D03*
X38740000Y-52120000D03*
X38740000Y-54660000D03*
X38740000Y-57200000D03*
X38740000Y-59740000D03*
X38740000Y-62280000D03*
X38740000Y-64820000D03*
D12*
X47200000Y-75150000D03*
D13*
X47260000Y-64320000D03*
X52340000Y-64320000D03*
D12*
X52400000Y-75150000D03*
X45400000Y-74100000D03*
D13*
X45990000Y-66860000D03*
X53610000Y-66860000D03*
D12*
X54200000Y-74100000D03*
X85200000Y-75150000D03*
D13*
X85260000Y-64320000D03*
X90340000Y-64320000D03*
D12*
X90400000Y-75150000D03*
X83400000Y-74100000D03*
D13*
X83990000Y-66860000D03*
X91610000Y-66860000D03*
D12*
X92200000Y-74100000D03*
D14*
X141300000Y-55400000D03*
X142300000Y-52900000D03*
X143300000Y-55400000D03*
X144300000Y-52900000D03*
X145300000Y-55400000D03*
X146300000Y-52900000D03*
X147300000Y-55400000D03*
X148300000Y-52900000D03*
D17*
X36500000Y-67250000D02*
X38740000Y-65010000D01*
X32250000Y-67250000D02*
X36500000Y-67250000D01*
X34250000Y-69500000D02*
X36500000Y-67250000D01*
X38740000Y-65010000D02*
X38740000Y-64820000D01*
X34250000Y-69500000D02*
X34250000Y-76000000D01*
D18*
X27750000Y-67250000D02*
X27750000Y-73750000D01*
D17*
X32250000Y-67250000D02*
X32250000Y-73750000D01*
X34350000Y-36190000D02*
X23500000Y-47040000D01*
X45995228Y-23350000D02*
X34350000Y-34995228D01*
X130259188Y-23350000D02*
X45995228Y-23350000D01*
X135350000Y-28440812D02*
X130259188Y-23350000D01*
X135350000Y-35140812D02*
X135350000Y-28440812D01*
X144934188Y-44725000D02*
X135350000Y-35140812D01*
X146225000Y-44725000D02*
X144934188Y-44725000D01*
X147300000Y-45800000D02*
X146225000Y-44725000D01*
X34350000Y-34995228D02*
X34350000Y-36190000D01*
X134900000Y-28627208D02*
X134900000Y-35327208D01*
X130072792Y-23800000D02*
X134900000Y-28627208D01*
X46181624Y-23800000D02*
X130072792Y-23800000D01*
X34800000Y-35181624D02*
X46181624Y-23800000D01*
X34800000Y-38280000D02*
X34800000Y-35181624D01*
X23500000Y-49580000D02*
X34800000Y-38280000D01*
X134900000Y-35327208D02*
X145300000Y-45727208D01*
X145300000Y-45727208D02*
X145300000Y-45800000D01*
X134450000Y-35513604D02*
X143300000Y-44363604D01*
X46368020Y-24250000D02*
X129886396Y-24250000D01*
X35250000Y-35368020D02*
X46368020Y-24250000D01*
X129886396Y-24250000D02*
X134450000Y-28813604D01*
X134450000Y-28813604D02*
X134450000Y-35513604D01*
X35250000Y-40370000D02*
X35250000Y-35368020D01*
X143300000Y-44363604D02*
X143300000Y-45800000D01*
X23500000Y-52120000D02*
X35250000Y-40370000D01*
X141300000Y-43000000D02*
X141300000Y-45800000D01*
X134000000Y-35700000D02*
X141300000Y-43000000D01*
X134000000Y-29000000D02*
X134000000Y-35700000D01*
X129700000Y-24700000D02*
X134000000Y-29000000D01*
X46554416Y-24700000D02*
X129700000Y-24700000D01*
X35700000Y-42460000D02*
X35700000Y-35554416D01*
X23500000Y-54660000D02*
X35700000Y-42460000D01*
X35700000Y-35554416D02*
X46554416Y-24700000D01*
X147340000Y-61440000D02*
X141300000Y-55400000D01*
X147340000Y-64320000D02*
X147340000Y-61440000D01*
X117300000Y-58770000D02*
X133993604Y-58770000D01*
X132513604Y-42500000D02*
X141388604Y-51375000D01*
X36150000Y-44550000D02*
X36150000Y-35740812D01*
X123300000Y-42500000D02*
X132513604Y-42500000D01*
X23500000Y-57200000D02*
X36150000Y-44550000D01*
X115128700Y-34328700D02*
X123300000Y-42500000D01*
X98300000Y-39770000D02*
X99425000Y-40895000D01*
X99425000Y-57645000D02*
X99425000Y-59300000D01*
X37562112Y-34328700D02*
X115128700Y-34328700D01*
X146775000Y-51375000D02*
X148300000Y-52900000D01*
X99425000Y-57645000D02*
X98300000Y-58770000D01*
X36150000Y-35740812D02*
X37562112Y-34328700D01*
X99425000Y-59300000D02*
X99425000Y-76645000D01*
X99955000Y-58770000D02*
X99425000Y-59300000D01*
X99425000Y-76645000D02*
X98300000Y-77770000D01*
X133993604Y-58770000D02*
X141388604Y-51375000D01*
X141388604Y-51375000D02*
X146775000Y-51375000D01*
X117300000Y-58770000D02*
X99955000Y-58770000D01*
X99425000Y-40895000D02*
X99425000Y-57645000D01*
X80425000Y-57645000D02*
X80425000Y-76645000D01*
X37748508Y-34778700D02*
X36600000Y-35927208D01*
X80425000Y-40895000D02*
X80425000Y-57645000D01*
X79300000Y-39770000D02*
X78175000Y-38645000D01*
X43476687Y-38645000D02*
X39610387Y-34778700D01*
X80425000Y-57645000D02*
X79300000Y-58770000D01*
X79300000Y-39770000D02*
X80425000Y-38645000D01*
X39610387Y-34778700D02*
X37748508Y-34778700D01*
X36600000Y-35927208D02*
X36600000Y-46640000D01*
X78175000Y-38645000D02*
X43476687Y-38645000D01*
X80425000Y-76645000D02*
X79300000Y-77770000D01*
X80425000Y-38645000D02*
X116175000Y-38645000D01*
X36600000Y-46640000D02*
X23500000Y-59740000D01*
X116175000Y-38645000D02*
X117300000Y-39770000D01*
X79300000Y-39770000D02*
X80425000Y-40895000D01*
X60300000Y-77770000D02*
X61425000Y-78895000D01*
X61425000Y-40895000D02*
X61425000Y-57645000D01*
X61425000Y-57645000D02*
X61425000Y-76645000D01*
X134700000Y-73500000D02*
X130430000Y-77770000D01*
X37050000Y-36113604D02*
X37050000Y-48730000D01*
X141575000Y-51825000D02*
X134700000Y-58700000D01*
X37934904Y-35228700D02*
X37050000Y-36113604D01*
X37050000Y-48730000D02*
X23500000Y-62280000D01*
X61425000Y-76645000D02*
X60300000Y-77770000D01*
X61425000Y-57645000D02*
X60300000Y-58770000D01*
X134700000Y-58700000D02*
X134700000Y-73500000D01*
X130430000Y-77770000D02*
X117300000Y-77770000D01*
X116175000Y-78895000D02*
X117300000Y-77770000D01*
X144300000Y-52900000D02*
X143225000Y-51825000D01*
X143225000Y-51825000D02*
X141575000Y-51825000D01*
X61425000Y-78895000D02*
X116175000Y-78895000D01*
X60300000Y-39770000D02*
X61425000Y-40895000D01*
X39423991Y-35228700D02*
X37934904Y-35228700D01*
X43965291Y-39770000D02*
X39423991Y-35228700D01*
X60300000Y-39770000D02*
X43965291Y-39770000D01*
X137500000Y-56639340D02*
X137500000Y-76570000D01*
X38121300Y-35678700D02*
X37500000Y-36300000D01*
X142300000Y-52900000D02*
X141239340Y-52900000D01*
X37500000Y-50820000D02*
X23500000Y-64820000D01*
X134725000Y-79345000D02*
X136300000Y-77770000D01*
X41300000Y-39770000D02*
X42425000Y-40895000D01*
X42425000Y-40895000D02*
X42425000Y-57645000D01*
X137500000Y-76570000D02*
X136300000Y-77770000D01*
X41300000Y-39770000D02*
X41300000Y-37741105D01*
X39237595Y-35678700D02*
X38121300Y-35678700D01*
X141239340Y-52900000D02*
X137500000Y-56639340D01*
X42425000Y-57645000D02*
X42425000Y-76645000D01*
X42425000Y-57645000D02*
X41300000Y-58770000D01*
X37500000Y-36300000D02*
X37500000Y-50820000D01*
X42425000Y-76645000D02*
X41300000Y-77770000D01*
X41300000Y-37741105D02*
X39237595Y-35678700D01*
X42875000Y-79345000D02*
X134725000Y-79345000D01*
X41300000Y-77770000D02*
X42875000Y-79345000D01*
X148360660Y-55400000D02*
X147300000Y-55400000D01*
X147845280Y-50925000D02*
X149400000Y-52479720D01*
X144925000Y-50925000D02*
X147845280Y-50925000D01*
X149400000Y-52479720D02*
X149400000Y-54360660D01*
X149400000Y-54360660D02*
X148360660Y-55400000D01*
X142300000Y-48300000D02*
X144925000Y-50925000D01*
X147922056Y-56475000D02*
X146375000Y-56475000D01*
X149850000Y-54547056D02*
X147922056Y-56475000D01*
X148031676Y-50475000D02*
X149850000Y-52293324D01*
X146475000Y-50475000D02*
X148031676Y-50475000D01*
X149850000Y-52293324D02*
X149850000Y-54547056D01*
X144300000Y-48300000D02*
X146475000Y-50475000D01*
X146375000Y-56475000D02*
X145300000Y-55400000D01*
X146300000Y-48300000D02*
X146493072Y-48300000D01*
X146493072Y-48300000D02*
X150300000Y-52106928D01*
X148108452Y-56925000D02*
X144825000Y-56925000D01*
X150300000Y-54733452D02*
X148108452Y-56925000D01*
X150300000Y-52106928D02*
X150300000Y-54733452D01*
X144825000Y-56925000D02*
X143300000Y-55400000D01*
X150750000Y-50750000D02*
X150750000Y-54919848D01*
X150750000Y-54919848D02*
X148294848Y-57375000D01*
X148300000Y-48300000D02*
X150750000Y-50750000D01*
X143275000Y-57375000D02*
X141300000Y-55400000D01*
X148294848Y-57375000D02*
X143275000Y-57375000D01*
M02*
