%TF.GenerationSoftware,KiCad,Pcbnew,(6.0.8)*%
%TF.CreationDate,2023-04-06T15:32:16+10:00*%
%TF.ProjectId,drazie,6472617a-6965-42e6-9b69-6361645f7063,rev?*%
%TF.SameCoordinates,Original*%
%TF.FileFunction,Drillmap*%
%TF.FilePolarity,Positive*%
%FSLAX45Y45*%
G04 Gerber Fmt 4.5, Leading zero omitted, Abs format (unit mm)*
G04 Created by KiCad (PCBNEW (6.0.8)) date 2023-04-06 15:32:16*
%MOMM*%
%LPD*%
G01*
G04 APERTURE LIST*
%ADD10C,0.100000*%
%ADD11C,0.200000*%
%ADD12C,0.150000*%
%ADD13C,0.170180*%
%ADD14C,0.398780*%
G04 APERTURE END LIST*
D10*
X5900000Y-9050000D02*
X5900000Y-9200000D01*
X1350000Y-8950000D02*
X5800000Y-8950000D01*
X1250000Y-1350000D02*
X1250000Y-8850000D01*
X20800000Y-1250000D02*
X1350000Y-1250000D01*
X20900000Y-1350000D02*
X20900000Y-11150000D01*
X15200000Y-11250000D02*
X20800000Y-11250000D01*
X15100000Y-10600000D02*
X15100000Y-11150000D01*
X11700000Y-10500000D02*
X15000000Y-10500000D01*
X11600000Y-10300000D02*
X11600000Y-10400000D01*
X11500000Y-10200000D02*
X5800000Y-10200000D01*
X20800000Y-11250000D02*
G75*
G03*
X20900000Y-11150000I0J100000D01*
G01*
X20900000Y-1350000D02*
G75*
G03*
X20800000Y-1250000I-100000J0D01*
G01*
X1350000Y-1250000D02*
G75*
G03*
X1250000Y-1350000I0J-100000D01*
G01*
X1250000Y-8850000D02*
G75*
G03*
X1350000Y-8950000I100000J0D01*
G01*
X5900000Y-9050000D02*
G75*
G03*
X5800000Y-8950000I-100000J0D01*
G01*
X5700000Y-9850000D02*
X5700000Y-10100000D01*
X5889443Y-9244721D02*
X5710557Y-9805279D01*
X5889443Y-9244721D02*
G75*
G03*
X5900000Y-9200000I-89443J44721D01*
G01*
X5710557Y-9805279D02*
G75*
G03*
X5700000Y-9850000I89443J-44721D01*
G01*
X5700000Y-10100000D02*
G75*
G03*
X5800000Y-10200000I100000J0D01*
G01*
X11600000Y-10300000D02*
G75*
G03*
X11500000Y-10200000I-100000J0D01*
G01*
X11600000Y-10400000D02*
G75*
G03*
X11700000Y-10500000I100000J0D01*
G01*
X15100000Y-10600000D02*
G75*
G03*
X15000000Y-10500000I-100000J0D01*
G01*
X15100000Y-11150000D02*
G75*
G03*
X15200000Y-11250000I100000J0D01*
G01*
D11*
D12*
X19785000Y-5195000D02*
X19935000Y-5345000D01*
X19935000Y-5195000D02*
X19785000Y-5345000D01*
X20485000Y-5195000D02*
X20635000Y-5345000D01*
X20635000Y-5195000D02*
X20485000Y-5345000D01*
D13*
X1777090Y-2200000D02*
G75*
G03*
X1777090Y-2200000I-85090J0D01*
G01*
X1777090Y-4100000D02*
G75*
G03*
X1777090Y-4100000I-85090J0D01*
G01*
X1777090Y-6000000D02*
G75*
G03*
X1777090Y-6000000I-85090J0D01*
G01*
X1777090Y-7900000D02*
G75*
G03*
X1777090Y-7900000I-85090J0D01*
G01*
X2793090Y-2200000D02*
G75*
G03*
X2793090Y-2200000I-85090J0D01*
G01*
X2793090Y-4100000D02*
G75*
G03*
X2793090Y-4100000I-85090J0D01*
G01*
X2793090Y-6000000D02*
G75*
G03*
X2793090Y-6000000I-85090J0D01*
G01*
X2793090Y-7900000D02*
G75*
G03*
X2793090Y-7900000I-85090J0D01*
G01*
X3677090Y-2200000D02*
G75*
G03*
X3677090Y-2200000I-85090J0D01*
G01*
X3677090Y-4100000D02*
G75*
G03*
X3677090Y-4100000I-85090J0D01*
G01*
X3677090Y-6000000D02*
G75*
G03*
X3677090Y-6000000I-85090J0D01*
G01*
X3677090Y-7900000D02*
G75*
G03*
X3677090Y-7900000I-85090J0D01*
G01*
X4693090Y-2200000D02*
G75*
G03*
X4693090Y-2200000I-85090J0D01*
G01*
X4693090Y-4100000D02*
G75*
G03*
X4693090Y-4100000I-85090J0D01*
G01*
X4693090Y-6000000D02*
G75*
G03*
X4693090Y-6000000I-85090J0D01*
G01*
X4693090Y-7900000D02*
G75*
G03*
X4693090Y-7900000I-85090J0D01*
G01*
X5577090Y-2200000D02*
G75*
G03*
X5577090Y-2200000I-85090J0D01*
G01*
X5577090Y-4100000D02*
G75*
G03*
X5577090Y-4100000I-85090J0D01*
G01*
X5577090Y-6000000D02*
G75*
G03*
X5577090Y-6000000I-85090J0D01*
G01*
X5577090Y-7900000D02*
G75*
G03*
X5577090Y-7900000I-85090J0D01*
G01*
X6593090Y-2200000D02*
G75*
G03*
X6593090Y-2200000I-85090J0D01*
G01*
X6593090Y-4100000D02*
G75*
G03*
X6593090Y-4100000I-85090J0D01*
G01*
X6593090Y-6000000D02*
G75*
G03*
X6593090Y-6000000I-85090J0D01*
G01*
X6593090Y-7900000D02*
G75*
G03*
X6593090Y-7900000I-85090J0D01*
G01*
X7977090Y-2200000D02*
G75*
G03*
X7977090Y-2200000I-85090J0D01*
G01*
X7977090Y-4100000D02*
G75*
G03*
X7977090Y-4100000I-85090J0D01*
G01*
X7977090Y-6000000D02*
G75*
G03*
X7977090Y-6000000I-85090J0D01*
G01*
X7977090Y-7900000D02*
G75*
G03*
X7977090Y-7900000I-85090J0D01*
G01*
X8993090Y-2200000D02*
G75*
G03*
X8993090Y-2200000I-85090J0D01*
G01*
X8993090Y-4100000D02*
G75*
G03*
X8993090Y-4100000I-85090J0D01*
G01*
X8993090Y-6000000D02*
G75*
G03*
X8993090Y-6000000I-85090J0D01*
G01*
X8993090Y-7900000D02*
G75*
G03*
X8993090Y-7900000I-85090J0D01*
G01*
X9877090Y-2200000D02*
G75*
G03*
X9877090Y-2200000I-85090J0D01*
G01*
X9877090Y-4100000D02*
G75*
G03*
X9877090Y-4100000I-85090J0D01*
G01*
X9877090Y-6000000D02*
G75*
G03*
X9877090Y-6000000I-85090J0D01*
G01*
X9877090Y-7900000D02*
G75*
G03*
X9877090Y-7900000I-85090J0D01*
G01*
X10893090Y-2200000D02*
G75*
G03*
X10893090Y-2200000I-85090J0D01*
G01*
X10893090Y-4100000D02*
G75*
G03*
X10893090Y-4100000I-85090J0D01*
G01*
X10893090Y-6000000D02*
G75*
G03*
X10893090Y-6000000I-85090J0D01*
G01*
X10893090Y-7900000D02*
G75*
G03*
X10893090Y-7900000I-85090J0D01*
G01*
X11777090Y-2200000D02*
G75*
G03*
X11777090Y-2200000I-85090J0D01*
G01*
X11777090Y-4100000D02*
G75*
G03*
X11777090Y-4100000I-85090J0D01*
G01*
X11777090Y-6000000D02*
G75*
G03*
X11777090Y-6000000I-85090J0D01*
G01*
X11777090Y-7900000D02*
G75*
G03*
X11777090Y-7900000I-85090J0D01*
G01*
X12793090Y-2200000D02*
G75*
G03*
X12793090Y-2200000I-85090J0D01*
G01*
X12793090Y-4100000D02*
G75*
G03*
X12793090Y-4100000I-85090J0D01*
G01*
X12793090Y-6000000D02*
G75*
G03*
X12793090Y-6000000I-85090J0D01*
G01*
X12793090Y-7900000D02*
G75*
G03*
X12793090Y-7900000I-85090J0D01*
G01*
X13677090Y-2200000D02*
G75*
G03*
X13677090Y-2200000I-85090J0D01*
G01*
X13677090Y-4100000D02*
G75*
G03*
X13677090Y-4100000I-85090J0D01*
G01*
X13677090Y-6000000D02*
G75*
G03*
X13677090Y-6000000I-85090J0D01*
G01*
X13677090Y-7900000D02*
G75*
G03*
X13677090Y-7900000I-85090J0D01*
G01*
X14693090Y-2200000D02*
G75*
G03*
X14693090Y-2200000I-85090J0D01*
G01*
X14693090Y-4100000D02*
G75*
G03*
X14693090Y-4100000I-85090J0D01*
G01*
X14693090Y-6000000D02*
G75*
G03*
X14693090Y-6000000I-85090J0D01*
G01*
X14693090Y-7900000D02*
G75*
G03*
X14693090Y-7900000I-85090J0D01*
G01*
X15577090Y-2200000D02*
G75*
G03*
X15577090Y-2200000I-85090J0D01*
G01*
X15577090Y-4100000D02*
G75*
G03*
X15577090Y-4100000I-85090J0D01*
G01*
X15577090Y-6000000D02*
G75*
G03*
X15577090Y-6000000I-85090J0D01*
G01*
X15577090Y-7900000D02*
G75*
G03*
X15577090Y-7900000I-85090J0D01*
G01*
X15627090Y-10300000D02*
G75*
G03*
X15627090Y-10300000I-85090J0D01*
G01*
X16593090Y-2200000D02*
G75*
G03*
X16593090Y-2200000I-85090J0D01*
G01*
X16593090Y-4100000D02*
G75*
G03*
X16593090Y-4100000I-85090J0D01*
G01*
X16593090Y-6000000D02*
G75*
G03*
X16593090Y-6000000I-85090J0D01*
G01*
X16593090Y-7900000D02*
G75*
G03*
X16593090Y-7900000I-85090J0D01*
G01*
X16643090Y-10300000D02*
G75*
G03*
X16643090Y-10300000I-85090J0D01*
G01*
X17477090Y-2200000D02*
G75*
G03*
X17477090Y-2200000I-85090J0D01*
G01*
X17477090Y-4100000D02*
G75*
G03*
X17477090Y-4100000I-85090J0D01*
G01*
X17477090Y-6000000D02*
G75*
G03*
X17477090Y-6000000I-85090J0D01*
G01*
X17477090Y-7900000D02*
G75*
G03*
X17477090Y-7900000I-85090J0D01*
G01*
X17527090Y-10300000D02*
G75*
G03*
X17527090Y-10300000I-85090J0D01*
G01*
X18493090Y-2200000D02*
G75*
G03*
X18493090Y-2200000I-85090J0D01*
G01*
X18493090Y-4100000D02*
G75*
G03*
X18493090Y-4100000I-85090J0D01*
G01*
X18493090Y-6000000D02*
G75*
G03*
X18493090Y-6000000I-85090J0D01*
G01*
X18493090Y-7900000D02*
G75*
G03*
X18493090Y-7900000I-85090J0D01*
G01*
X18543090Y-10300000D02*
G75*
G03*
X18543090Y-10300000I-85090J0D01*
G01*
X19427090Y-10300000D02*
G75*
G03*
X19427090Y-10300000I-85090J0D01*
G01*
X20443090Y-10300000D02*
G75*
G03*
X20443090Y-10300000I-85090J0D01*
G01*
D14*
X2200000Y-2000610D02*
X2200000Y-2399390D01*
X2000610Y-2200000D02*
X2399390Y-2200000D01*
X2200000Y-3900610D02*
X2200000Y-4299390D01*
X2000610Y-4100000D02*
X2399390Y-4100000D01*
X2200000Y-5800610D02*
X2200000Y-6199390D01*
X2000610Y-6000000D02*
X2399390Y-6000000D01*
X2200000Y-7700610D02*
X2200000Y-8099390D01*
X2000610Y-7900000D02*
X2399390Y-7900000D01*
X4100000Y-2000610D02*
X4100000Y-2399390D01*
X3900610Y-2200000D02*
X4299390Y-2200000D01*
X4100000Y-3900610D02*
X4100000Y-4299390D01*
X3900610Y-4100000D02*
X4299390Y-4100000D01*
X4100000Y-5800610D02*
X4100000Y-6199390D01*
X3900610Y-6000000D02*
X4299390Y-6000000D01*
X4100000Y-7700610D02*
X4100000Y-8099390D01*
X3900610Y-7900000D02*
X4299390Y-7900000D01*
X6000000Y-2000610D02*
X6000000Y-2399390D01*
X5800610Y-2200000D02*
X6199390Y-2200000D01*
X6000000Y-3900610D02*
X6000000Y-4299390D01*
X5800610Y-4100000D02*
X6199390Y-4100000D01*
X6000000Y-5800610D02*
X6000000Y-6199390D01*
X5800610Y-6000000D02*
X6199390Y-6000000D01*
X6000000Y-7700610D02*
X6000000Y-8099390D01*
X5800610Y-7900000D02*
X6199390Y-7900000D01*
X8400000Y-2000610D02*
X8400000Y-2399390D01*
X8200610Y-2200000D02*
X8599390Y-2200000D01*
X8400000Y-3900610D02*
X8400000Y-4299390D01*
X8200610Y-4100000D02*
X8599390Y-4100000D01*
X8400000Y-5800610D02*
X8400000Y-6199390D01*
X8200610Y-6000000D02*
X8599390Y-6000000D01*
X8400000Y-7700610D02*
X8400000Y-8099390D01*
X8200610Y-7900000D02*
X8599390Y-7900000D01*
X10300000Y-2000610D02*
X10300000Y-2399390D01*
X10100610Y-2200000D02*
X10499390Y-2200000D01*
X10300000Y-3900610D02*
X10300000Y-4299390D01*
X10100610Y-4100000D02*
X10499390Y-4100000D01*
X10300000Y-5800610D02*
X10300000Y-6199390D01*
X10100610Y-6000000D02*
X10499390Y-6000000D01*
X10300000Y-7700610D02*
X10300000Y-8099390D01*
X10100610Y-7900000D02*
X10499390Y-7900000D01*
X12200000Y-2000610D02*
X12200000Y-2399390D01*
X12000610Y-2200000D02*
X12399390Y-2200000D01*
X12200000Y-3900610D02*
X12200000Y-4299390D01*
X12000610Y-4100000D02*
X12399390Y-4100000D01*
X12200000Y-5800610D02*
X12200000Y-6199390D01*
X12000610Y-6000000D02*
X12399390Y-6000000D01*
X12200000Y-7700610D02*
X12200000Y-8099390D01*
X12000610Y-7900000D02*
X12399390Y-7900000D01*
X14100000Y-2000610D02*
X14100000Y-2399390D01*
X13900610Y-2200000D02*
X14299390Y-2200000D01*
X14100000Y-3900610D02*
X14100000Y-4299390D01*
X13900610Y-4100000D02*
X14299390Y-4100000D01*
X14100000Y-5800610D02*
X14100000Y-6199390D01*
X13900610Y-6000000D02*
X14299390Y-6000000D01*
X14100000Y-7700610D02*
X14100000Y-8099390D01*
X13900610Y-7900000D02*
X14299390Y-7900000D01*
X16000000Y-2000610D02*
X16000000Y-2399390D01*
X15800610Y-2200000D02*
X16199390Y-2200000D01*
X16000000Y-3900610D02*
X16000000Y-4299390D01*
X15800610Y-4100000D02*
X16199390Y-4100000D01*
X16000000Y-5800610D02*
X16000000Y-6199390D01*
X15800610Y-6000000D02*
X16199390Y-6000000D01*
X16000000Y-7700610D02*
X16000000Y-8099390D01*
X15800610Y-7900000D02*
X16199390Y-7900000D01*
X16050000Y-10100610D02*
X16050000Y-10499390D01*
X15850610Y-10300000D02*
X16249390Y-10300000D01*
X17900000Y-2000610D02*
X17900000Y-2399390D01*
X17700610Y-2200000D02*
X18099390Y-2200000D01*
X17900000Y-3900610D02*
X17900000Y-4299390D01*
X17700610Y-4100000D02*
X18099390Y-4100000D01*
X17900000Y-5800610D02*
X17900000Y-6199390D01*
X17700610Y-6000000D02*
X18099390Y-6000000D01*
X17900000Y-7700610D02*
X17900000Y-8099390D01*
X17700610Y-7900000D02*
X18099390Y-7900000D01*
X17950000Y-10100610D02*
X17950000Y-10499390D01*
X17750610Y-10300000D02*
X18149390Y-10300000D01*
X19850000Y-10100610D02*
X19850000Y-10499390D01*
X19650610Y-10300000D02*
X20049390Y-10300000D01*
D11*
X1502619Y-11565476D02*
X1502619Y-11365476D01*
X1550238Y-11365476D01*
X1578809Y-11375000D01*
X1597857Y-11394048D01*
X1607381Y-11413095D01*
X1616905Y-11451190D01*
X1616905Y-11479762D01*
X1607381Y-11517857D01*
X1597857Y-11536905D01*
X1578809Y-11555952D01*
X1550238Y-11565476D01*
X1502619Y-11565476D01*
X1702619Y-11565476D02*
X1702619Y-11432143D01*
X1702619Y-11470238D02*
X1712143Y-11451190D01*
X1721667Y-11441667D01*
X1740714Y-11432143D01*
X1759762Y-11432143D01*
X1826428Y-11565476D02*
X1826428Y-11432143D01*
X1826428Y-11365476D02*
X1816905Y-11375000D01*
X1826428Y-11384524D01*
X1835952Y-11375000D01*
X1826428Y-11365476D01*
X1826428Y-11384524D01*
X1950238Y-11565476D02*
X1931190Y-11555952D01*
X1921667Y-11536905D01*
X1921667Y-11365476D01*
X2055000Y-11565476D02*
X2035952Y-11555952D01*
X2026428Y-11536905D01*
X2026428Y-11365476D01*
X2283571Y-11565476D02*
X2283571Y-11365476D01*
X2350238Y-11508333D01*
X2416905Y-11365476D01*
X2416905Y-11565476D01*
X2597857Y-11565476D02*
X2597857Y-11460714D01*
X2588333Y-11441667D01*
X2569286Y-11432143D01*
X2531190Y-11432143D01*
X2512143Y-11441667D01*
X2597857Y-11555952D02*
X2578810Y-11565476D01*
X2531190Y-11565476D01*
X2512143Y-11555952D01*
X2502619Y-11536905D01*
X2502619Y-11517857D01*
X2512143Y-11498809D01*
X2531190Y-11489286D01*
X2578810Y-11489286D01*
X2597857Y-11479762D01*
X2693095Y-11432143D02*
X2693095Y-11632143D01*
X2693095Y-11441667D02*
X2712143Y-11432143D01*
X2750238Y-11432143D01*
X2769286Y-11441667D01*
X2778810Y-11451190D01*
X2788333Y-11470238D01*
X2788333Y-11527381D01*
X2778810Y-11546428D01*
X2769286Y-11555952D01*
X2750238Y-11565476D01*
X2712143Y-11565476D01*
X2693095Y-11555952D01*
X2874048Y-11546428D02*
X2883571Y-11555952D01*
X2874048Y-11565476D01*
X2864524Y-11555952D01*
X2874048Y-11546428D01*
X2874048Y-11565476D01*
X2874048Y-11441667D02*
X2883571Y-11451190D01*
X2874048Y-11460714D01*
X2864524Y-11451190D01*
X2874048Y-11441667D01*
X2874048Y-11460714D01*
D12*
X1095000Y-11820000D02*
X1245000Y-11970000D01*
X1245000Y-11820000D02*
X1095000Y-11970000D01*
D11*
X1607381Y-11985476D02*
X1493095Y-11985476D01*
X1550238Y-11985476D02*
X1550238Y-11785476D01*
X1531190Y-11814048D01*
X1512143Y-11833095D01*
X1493095Y-11842619D01*
X1693095Y-11966428D02*
X1702619Y-11975952D01*
X1693095Y-11985476D01*
X1683571Y-11975952D01*
X1693095Y-11966428D01*
X1693095Y-11985476D01*
X1883571Y-11785476D02*
X1788333Y-11785476D01*
X1778809Y-11880714D01*
X1788333Y-11871190D01*
X1807381Y-11861667D01*
X1855000Y-11861667D01*
X1874048Y-11871190D01*
X1883571Y-11880714D01*
X1893095Y-11899762D01*
X1893095Y-11947381D01*
X1883571Y-11966428D01*
X1874048Y-11975952D01*
X1855000Y-11985476D01*
X1807381Y-11985476D01*
X1788333Y-11975952D01*
X1778809Y-11966428D01*
X2016905Y-11785476D02*
X2035952Y-11785476D01*
X2055000Y-11795000D01*
X2064524Y-11804524D01*
X2074048Y-11823571D01*
X2083571Y-11861667D01*
X2083571Y-11909286D01*
X2074048Y-11947381D01*
X2064524Y-11966428D01*
X2055000Y-11975952D01*
X2035952Y-11985476D01*
X2016905Y-11985476D01*
X1997857Y-11975952D01*
X1988333Y-11966428D01*
X1978809Y-11947381D01*
X1969286Y-11909286D01*
X1969286Y-11861667D01*
X1978809Y-11823571D01*
X1988333Y-11804524D01*
X1997857Y-11795000D01*
X2016905Y-11785476D01*
X2207381Y-11785476D02*
X2226429Y-11785476D01*
X2245476Y-11795000D01*
X2255000Y-11804524D01*
X2264524Y-11823571D01*
X2274048Y-11861667D01*
X2274048Y-11909286D01*
X2264524Y-11947381D01*
X2255000Y-11966428D01*
X2245476Y-11975952D01*
X2226429Y-11985476D01*
X2207381Y-11985476D01*
X2188333Y-11975952D01*
X2178810Y-11966428D01*
X2169286Y-11947381D01*
X2159762Y-11909286D01*
X2159762Y-11861667D01*
X2169286Y-11823571D01*
X2178810Y-11804524D01*
X2188333Y-11795000D01*
X2207381Y-11785476D01*
X2359762Y-11985476D02*
X2359762Y-11852143D01*
X2359762Y-11871190D02*
X2369286Y-11861667D01*
X2388333Y-11852143D01*
X2416905Y-11852143D01*
X2435952Y-11861667D01*
X2445476Y-11880714D01*
X2445476Y-11985476D01*
X2445476Y-11880714D02*
X2455000Y-11861667D01*
X2474048Y-11852143D01*
X2502619Y-11852143D01*
X2521667Y-11861667D01*
X2531190Y-11880714D01*
X2531190Y-11985476D01*
X2626429Y-11985476D02*
X2626429Y-11852143D01*
X2626429Y-11871190D02*
X2635952Y-11861667D01*
X2655000Y-11852143D01*
X2683571Y-11852143D01*
X2702619Y-11861667D01*
X2712143Y-11880714D01*
X2712143Y-11985476D01*
X2712143Y-11880714D02*
X2721667Y-11861667D01*
X2740714Y-11852143D01*
X2769286Y-11852143D01*
X2788333Y-11861667D01*
X2797857Y-11880714D01*
X2797857Y-11985476D01*
X3188333Y-11775952D02*
X3016905Y-12033095D01*
X3445476Y-11785476D02*
X3464524Y-11785476D01*
X3483571Y-11795000D01*
X3493095Y-11804524D01*
X3502619Y-11823571D01*
X3512143Y-11861667D01*
X3512143Y-11909286D01*
X3502619Y-11947381D01*
X3493095Y-11966428D01*
X3483571Y-11975952D01*
X3464524Y-11985476D01*
X3445476Y-11985476D01*
X3426428Y-11975952D01*
X3416905Y-11966428D01*
X3407381Y-11947381D01*
X3397857Y-11909286D01*
X3397857Y-11861667D01*
X3407381Y-11823571D01*
X3416905Y-11804524D01*
X3426428Y-11795000D01*
X3445476Y-11785476D01*
X3597857Y-11966428D02*
X3607381Y-11975952D01*
X3597857Y-11985476D01*
X3588333Y-11975952D01*
X3597857Y-11966428D01*
X3597857Y-11985476D01*
X3731190Y-11785476D02*
X3750238Y-11785476D01*
X3769286Y-11795000D01*
X3778809Y-11804524D01*
X3788333Y-11823571D01*
X3797857Y-11861667D01*
X3797857Y-11909286D01*
X3788333Y-11947381D01*
X3778809Y-11966428D01*
X3769286Y-11975952D01*
X3750238Y-11985476D01*
X3731190Y-11985476D01*
X3712143Y-11975952D01*
X3702619Y-11966428D01*
X3693095Y-11947381D01*
X3683571Y-11909286D01*
X3683571Y-11861667D01*
X3693095Y-11823571D01*
X3702619Y-11804524D01*
X3712143Y-11795000D01*
X3731190Y-11785476D01*
X3978809Y-11785476D02*
X3883571Y-11785476D01*
X3874048Y-11880714D01*
X3883571Y-11871190D01*
X3902619Y-11861667D01*
X3950238Y-11861667D01*
X3969286Y-11871190D01*
X3978809Y-11880714D01*
X3988333Y-11899762D01*
X3988333Y-11947381D01*
X3978809Y-11966428D01*
X3969286Y-11975952D01*
X3950238Y-11985476D01*
X3902619Y-11985476D01*
X3883571Y-11975952D01*
X3874048Y-11966428D01*
X4083571Y-11985476D02*
X4121667Y-11985476D01*
X4140714Y-11975952D01*
X4150238Y-11966428D01*
X4169286Y-11937857D01*
X4178809Y-11899762D01*
X4178809Y-11823571D01*
X4169286Y-11804524D01*
X4159762Y-11795000D01*
X4140714Y-11785476D01*
X4102619Y-11785476D01*
X4083571Y-11795000D01*
X4074048Y-11804524D01*
X4064524Y-11823571D01*
X4064524Y-11871190D01*
X4074048Y-11890238D01*
X4083571Y-11899762D01*
X4102619Y-11909286D01*
X4140714Y-11909286D01*
X4159762Y-11899762D01*
X4169286Y-11890238D01*
X4178809Y-11871190D01*
X4369286Y-11985476D02*
X4255000Y-11985476D01*
X4312143Y-11985476D02*
X4312143Y-11785476D01*
X4293095Y-11814048D01*
X4274048Y-11833095D01*
X4255000Y-11842619D01*
X4445476Y-11785476D02*
X4445476Y-11823571D01*
X4521667Y-11785476D02*
X4521667Y-11823571D01*
X4816905Y-12061667D02*
X4807381Y-12052143D01*
X4788333Y-12023571D01*
X4778810Y-12004524D01*
X4769286Y-11975952D01*
X4759762Y-11928333D01*
X4759762Y-11890238D01*
X4769286Y-11842619D01*
X4778810Y-11814048D01*
X4788333Y-11795000D01*
X4807381Y-11766428D01*
X4816905Y-11756905D01*
X4883571Y-11804524D02*
X4893095Y-11795000D01*
X4912143Y-11785476D01*
X4959762Y-11785476D01*
X4978810Y-11795000D01*
X4988333Y-11804524D01*
X4997857Y-11823571D01*
X4997857Y-11842619D01*
X4988333Y-11871190D01*
X4874048Y-11985476D01*
X4997857Y-11985476D01*
X5235952Y-11985476D02*
X5235952Y-11785476D01*
X5321667Y-11985476D02*
X5321667Y-11880714D01*
X5312143Y-11861667D01*
X5293095Y-11852143D01*
X5264524Y-11852143D01*
X5245476Y-11861667D01*
X5235952Y-11871190D01*
X5445476Y-11985476D02*
X5426429Y-11975952D01*
X5416905Y-11966428D01*
X5407381Y-11947381D01*
X5407381Y-11890238D01*
X5416905Y-11871190D01*
X5426429Y-11861667D01*
X5445476Y-11852143D01*
X5474048Y-11852143D01*
X5493095Y-11861667D01*
X5502619Y-11871190D01*
X5512143Y-11890238D01*
X5512143Y-11947381D01*
X5502619Y-11966428D01*
X5493095Y-11975952D01*
X5474048Y-11985476D01*
X5445476Y-11985476D01*
X5626428Y-11985476D02*
X5607381Y-11975952D01*
X5597857Y-11956905D01*
X5597857Y-11785476D01*
X5778809Y-11975952D02*
X5759762Y-11985476D01*
X5721667Y-11985476D01*
X5702619Y-11975952D01*
X5693095Y-11956905D01*
X5693095Y-11880714D01*
X5702619Y-11861667D01*
X5721667Y-11852143D01*
X5759762Y-11852143D01*
X5778809Y-11861667D01*
X5788333Y-11880714D01*
X5788333Y-11899762D01*
X5693095Y-11918809D01*
X5864524Y-11975952D02*
X5883571Y-11985476D01*
X5921667Y-11985476D01*
X5940714Y-11975952D01*
X5950238Y-11956905D01*
X5950238Y-11947381D01*
X5940714Y-11928333D01*
X5921667Y-11918809D01*
X5893095Y-11918809D01*
X5874048Y-11909286D01*
X5864524Y-11890238D01*
X5864524Y-11880714D01*
X5874048Y-11861667D01*
X5893095Y-11852143D01*
X5921667Y-11852143D01*
X5940714Y-11861667D01*
X6016905Y-12061667D02*
X6026428Y-12052143D01*
X6045476Y-12023571D01*
X6055000Y-12004524D01*
X6064524Y-11975952D01*
X6074048Y-11928333D01*
X6074048Y-11890238D01*
X6064524Y-11842619D01*
X6055000Y-11814048D01*
X6045476Y-11795000D01*
X6026428Y-11766428D01*
X6016905Y-11756905D01*
X6378809Y-12061667D02*
X6369286Y-12052143D01*
X6350238Y-12023571D01*
X6340714Y-12004524D01*
X6331190Y-11975952D01*
X6321667Y-11928333D01*
X6321667Y-11890238D01*
X6331190Y-11842619D01*
X6340714Y-11814048D01*
X6350238Y-11795000D01*
X6369286Y-11766428D01*
X6378809Y-11756905D01*
X6455000Y-11852143D02*
X6455000Y-11985476D01*
X6455000Y-11871190D02*
X6464524Y-11861667D01*
X6483571Y-11852143D01*
X6512143Y-11852143D01*
X6531190Y-11861667D01*
X6540714Y-11880714D01*
X6540714Y-11985476D01*
X6664524Y-11985476D02*
X6645476Y-11975952D01*
X6635952Y-11966428D01*
X6626428Y-11947381D01*
X6626428Y-11890238D01*
X6635952Y-11871190D01*
X6645476Y-11861667D01*
X6664524Y-11852143D01*
X6693095Y-11852143D01*
X6712143Y-11861667D01*
X6721667Y-11871190D01*
X6731190Y-11890238D01*
X6731190Y-11947381D01*
X6721667Y-11966428D01*
X6712143Y-11975952D01*
X6693095Y-11985476D01*
X6664524Y-11985476D01*
X6788333Y-11852143D02*
X6864524Y-11852143D01*
X6816905Y-11785476D02*
X6816905Y-11956905D01*
X6826428Y-11975952D01*
X6845476Y-11985476D01*
X6864524Y-11985476D01*
X7083571Y-11852143D02*
X7083571Y-12052143D01*
X7083571Y-11861667D02*
X7102619Y-11852143D01*
X7140714Y-11852143D01*
X7159762Y-11861667D01*
X7169286Y-11871190D01*
X7178809Y-11890238D01*
X7178809Y-11947381D01*
X7169286Y-11966428D01*
X7159762Y-11975952D01*
X7140714Y-11985476D01*
X7102619Y-11985476D01*
X7083571Y-11975952D01*
X7293095Y-11985476D02*
X7274048Y-11975952D01*
X7264524Y-11956905D01*
X7264524Y-11785476D01*
X7455000Y-11985476D02*
X7455000Y-11880714D01*
X7445476Y-11861667D01*
X7426428Y-11852143D01*
X7388333Y-11852143D01*
X7369286Y-11861667D01*
X7455000Y-11975952D02*
X7435952Y-11985476D01*
X7388333Y-11985476D01*
X7369286Y-11975952D01*
X7359762Y-11956905D01*
X7359762Y-11937857D01*
X7369286Y-11918809D01*
X7388333Y-11909286D01*
X7435952Y-11909286D01*
X7455000Y-11899762D01*
X7521667Y-11852143D02*
X7597857Y-11852143D01*
X7550238Y-11785476D02*
X7550238Y-11956905D01*
X7559762Y-11975952D01*
X7578809Y-11985476D01*
X7597857Y-11985476D01*
X7740714Y-11975952D02*
X7721667Y-11985476D01*
X7683571Y-11985476D01*
X7664524Y-11975952D01*
X7655000Y-11956905D01*
X7655000Y-11880714D01*
X7664524Y-11861667D01*
X7683571Y-11852143D01*
X7721667Y-11852143D01*
X7740714Y-11861667D01*
X7750238Y-11880714D01*
X7750238Y-11899762D01*
X7655000Y-11918809D01*
X7921667Y-11985476D02*
X7921667Y-11785476D01*
X7921667Y-11975952D02*
X7902619Y-11985476D01*
X7864524Y-11985476D01*
X7845476Y-11975952D01*
X7835952Y-11966428D01*
X7826428Y-11947381D01*
X7826428Y-11890238D01*
X7835952Y-11871190D01*
X7845476Y-11861667D01*
X7864524Y-11852143D01*
X7902619Y-11852143D01*
X7921667Y-11861667D01*
X7997857Y-12061667D02*
X8007381Y-12052143D01*
X8026428Y-12023571D01*
X8035952Y-12004524D01*
X8045476Y-11975952D01*
X8055000Y-11928333D01*
X8055000Y-11890238D01*
X8045476Y-11842619D01*
X8035952Y-11814048D01*
X8026428Y-11795000D01*
X8007381Y-11766428D01*
X7997857Y-11756905D01*
D13*
X1245000Y-12165000D02*
G75*
G03*
X1245000Y-12165000I-85090J0D01*
G01*
D11*
X1607381Y-12255476D02*
X1493095Y-12255476D01*
X1550238Y-12255476D02*
X1550238Y-12055476D01*
X1531190Y-12084048D01*
X1512143Y-12103095D01*
X1493095Y-12112619D01*
X1693095Y-12236428D02*
X1702619Y-12245952D01*
X1693095Y-12255476D01*
X1683571Y-12245952D01*
X1693095Y-12236428D01*
X1693095Y-12255476D01*
X1769286Y-12055476D02*
X1902619Y-12055476D01*
X1816905Y-12255476D01*
X2016905Y-12055476D02*
X2035952Y-12055476D01*
X2055000Y-12065000D01*
X2064524Y-12074524D01*
X2074048Y-12093571D01*
X2083571Y-12131667D01*
X2083571Y-12179286D01*
X2074048Y-12217381D01*
X2064524Y-12236428D01*
X2055000Y-12245952D01*
X2035952Y-12255476D01*
X2016905Y-12255476D01*
X1997857Y-12245952D01*
X1988333Y-12236428D01*
X1978809Y-12217381D01*
X1969286Y-12179286D01*
X1969286Y-12131667D01*
X1978809Y-12093571D01*
X1988333Y-12074524D01*
X1997857Y-12065000D01*
X2016905Y-12055476D01*
X2159762Y-12074524D02*
X2169286Y-12065000D01*
X2188333Y-12055476D01*
X2235952Y-12055476D01*
X2255000Y-12065000D01*
X2264524Y-12074524D01*
X2274048Y-12093571D01*
X2274048Y-12112619D01*
X2264524Y-12141190D01*
X2150238Y-12255476D01*
X2274048Y-12255476D01*
X2359762Y-12255476D02*
X2359762Y-12122143D01*
X2359762Y-12141190D02*
X2369286Y-12131667D01*
X2388333Y-12122143D01*
X2416905Y-12122143D01*
X2435952Y-12131667D01*
X2445476Y-12150714D01*
X2445476Y-12255476D01*
X2445476Y-12150714D02*
X2455000Y-12131667D01*
X2474048Y-12122143D01*
X2502619Y-12122143D01*
X2521667Y-12131667D01*
X2531190Y-12150714D01*
X2531190Y-12255476D01*
X2626429Y-12255476D02*
X2626429Y-12122143D01*
X2626429Y-12141190D02*
X2635952Y-12131667D01*
X2655000Y-12122143D01*
X2683571Y-12122143D01*
X2702619Y-12131667D01*
X2712143Y-12150714D01*
X2712143Y-12255476D01*
X2712143Y-12150714D02*
X2721667Y-12131667D01*
X2740714Y-12122143D01*
X2769286Y-12122143D01*
X2788333Y-12131667D01*
X2797857Y-12150714D01*
X2797857Y-12255476D01*
X3188333Y-12045952D02*
X3016905Y-12303095D01*
X3445476Y-12055476D02*
X3464524Y-12055476D01*
X3483571Y-12065000D01*
X3493095Y-12074524D01*
X3502619Y-12093571D01*
X3512143Y-12131667D01*
X3512143Y-12179286D01*
X3502619Y-12217381D01*
X3493095Y-12236428D01*
X3483571Y-12245952D01*
X3464524Y-12255476D01*
X3445476Y-12255476D01*
X3426428Y-12245952D01*
X3416905Y-12236428D01*
X3407381Y-12217381D01*
X3397857Y-12179286D01*
X3397857Y-12131667D01*
X3407381Y-12093571D01*
X3416905Y-12074524D01*
X3426428Y-12065000D01*
X3445476Y-12055476D01*
X3597857Y-12236428D02*
X3607381Y-12245952D01*
X3597857Y-12255476D01*
X3588333Y-12245952D01*
X3597857Y-12236428D01*
X3597857Y-12255476D01*
X3731190Y-12055476D02*
X3750238Y-12055476D01*
X3769286Y-12065000D01*
X3778809Y-12074524D01*
X3788333Y-12093571D01*
X3797857Y-12131667D01*
X3797857Y-12179286D01*
X3788333Y-12217381D01*
X3778809Y-12236428D01*
X3769286Y-12245952D01*
X3750238Y-12255476D01*
X3731190Y-12255476D01*
X3712143Y-12245952D01*
X3702619Y-12236428D01*
X3693095Y-12217381D01*
X3683571Y-12179286D01*
X3683571Y-12131667D01*
X3693095Y-12093571D01*
X3702619Y-12074524D01*
X3712143Y-12065000D01*
X3731190Y-12055476D01*
X3969286Y-12055476D02*
X3931190Y-12055476D01*
X3912143Y-12065000D01*
X3902619Y-12074524D01*
X3883571Y-12103095D01*
X3874048Y-12141190D01*
X3874048Y-12217381D01*
X3883571Y-12236428D01*
X3893095Y-12245952D01*
X3912143Y-12255476D01*
X3950238Y-12255476D01*
X3969286Y-12245952D01*
X3978809Y-12236428D01*
X3988333Y-12217381D01*
X3988333Y-12169762D01*
X3978809Y-12150714D01*
X3969286Y-12141190D01*
X3950238Y-12131667D01*
X3912143Y-12131667D01*
X3893095Y-12141190D01*
X3883571Y-12150714D01*
X3874048Y-12169762D01*
X4055000Y-12055476D02*
X4188333Y-12055476D01*
X4102619Y-12255476D01*
X4302619Y-12055476D02*
X4321667Y-12055476D01*
X4340714Y-12065000D01*
X4350238Y-12074524D01*
X4359762Y-12093571D01*
X4369286Y-12131667D01*
X4369286Y-12179286D01*
X4359762Y-12217381D01*
X4350238Y-12236428D01*
X4340714Y-12245952D01*
X4321667Y-12255476D01*
X4302619Y-12255476D01*
X4283571Y-12245952D01*
X4274048Y-12236428D01*
X4264524Y-12217381D01*
X4255000Y-12179286D01*
X4255000Y-12131667D01*
X4264524Y-12093571D01*
X4274048Y-12074524D01*
X4283571Y-12065000D01*
X4302619Y-12055476D01*
X4445476Y-12055476D02*
X4445476Y-12093571D01*
X4521667Y-12055476D02*
X4521667Y-12093571D01*
X4816905Y-12331667D02*
X4807381Y-12322143D01*
X4788333Y-12293571D01*
X4778810Y-12274524D01*
X4769286Y-12245952D01*
X4759762Y-12198333D01*
X4759762Y-12160238D01*
X4769286Y-12112619D01*
X4778810Y-12084048D01*
X4788333Y-12065000D01*
X4807381Y-12036428D01*
X4816905Y-12026905D01*
X4874048Y-12055476D02*
X5007381Y-12055476D01*
X4921667Y-12255476D01*
X5112143Y-12141190D02*
X5093095Y-12131667D01*
X5083571Y-12122143D01*
X5074048Y-12103095D01*
X5074048Y-12093571D01*
X5083571Y-12074524D01*
X5093095Y-12065000D01*
X5112143Y-12055476D01*
X5150238Y-12055476D01*
X5169286Y-12065000D01*
X5178810Y-12074524D01*
X5188333Y-12093571D01*
X5188333Y-12103095D01*
X5178810Y-12122143D01*
X5169286Y-12131667D01*
X5150238Y-12141190D01*
X5112143Y-12141190D01*
X5093095Y-12150714D01*
X5083571Y-12160238D01*
X5074048Y-12179286D01*
X5074048Y-12217381D01*
X5083571Y-12236428D01*
X5093095Y-12245952D01*
X5112143Y-12255476D01*
X5150238Y-12255476D01*
X5169286Y-12245952D01*
X5178810Y-12236428D01*
X5188333Y-12217381D01*
X5188333Y-12179286D01*
X5178810Y-12160238D01*
X5169286Y-12150714D01*
X5150238Y-12141190D01*
X5426429Y-12255476D02*
X5426429Y-12055476D01*
X5512143Y-12255476D02*
X5512143Y-12150714D01*
X5502619Y-12131667D01*
X5483571Y-12122143D01*
X5455000Y-12122143D01*
X5435952Y-12131667D01*
X5426429Y-12141190D01*
X5635952Y-12255476D02*
X5616905Y-12245952D01*
X5607381Y-12236428D01*
X5597857Y-12217381D01*
X5597857Y-12160238D01*
X5607381Y-12141190D01*
X5616905Y-12131667D01*
X5635952Y-12122143D01*
X5664524Y-12122143D01*
X5683571Y-12131667D01*
X5693095Y-12141190D01*
X5702619Y-12160238D01*
X5702619Y-12217381D01*
X5693095Y-12236428D01*
X5683571Y-12245952D01*
X5664524Y-12255476D01*
X5635952Y-12255476D01*
X5816905Y-12255476D02*
X5797857Y-12245952D01*
X5788333Y-12226905D01*
X5788333Y-12055476D01*
X5969286Y-12245952D02*
X5950238Y-12255476D01*
X5912143Y-12255476D01*
X5893095Y-12245952D01*
X5883571Y-12226905D01*
X5883571Y-12150714D01*
X5893095Y-12131667D01*
X5912143Y-12122143D01*
X5950238Y-12122143D01*
X5969286Y-12131667D01*
X5978809Y-12150714D01*
X5978809Y-12169762D01*
X5883571Y-12188809D01*
X6055000Y-12245952D02*
X6074048Y-12255476D01*
X6112143Y-12255476D01*
X6131190Y-12245952D01*
X6140714Y-12226905D01*
X6140714Y-12217381D01*
X6131190Y-12198333D01*
X6112143Y-12188809D01*
X6083571Y-12188809D01*
X6064524Y-12179286D01*
X6055000Y-12160238D01*
X6055000Y-12150714D01*
X6064524Y-12131667D01*
X6083571Y-12122143D01*
X6112143Y-12122143D01*
X6131190Y-12131667D01*
X6207381Y-12331667D02*
X6216905Y-12322143D01*
X6235952Y-12293571D01*
X6245476Y-12274524D01*
X6255000Y-12245952D01*
X6264524Y-12198333D01*
X6264524Y-12160238D01*
X6255000Y-12112619D01*
X6245476Y-12084048D01*
X6235952Y-12065000D01*
X6216905Y-12036428D01*
X6207381Y-12026905D01*
X6569286Y-12331667D02*
X6559762Y-12322143D01*
X6540714Y-12293571D01*
X6531190Y-12274524D01*
X6521667Y-12245952D01*
X6512143Y-12198333D01*
X6512143Y-12160238D01*
X6521667Y-12112619D01*
X6531190Y-12084048D01*
X6540714Y-12065000D01*
X6559762Y-12036428D01*
X6569286Y-12026905D01*
X6645476Y-12122143D02*
X6645476Y-12255476D01*
X6645476Y-12141190D02*
X6655000Y-12131667D01*
X6674048Y-12122143D01*
X6702619Y-12122143D01*
X6721667Y-12131667D01*
X6731190Y-12150714D01*
X6731190Y-12255476D01*
X6855000Y-12255476D02*
X6835952Y-12245952D01*
X6826428Y-12236428D01*
X6816905Y-12217381D01*
X6816905Y-12160238D01*
X6826428Y-12141190D01*
X6835952Y-12131667D01*
X6855000Y-12122143D01*
X6883571Y-12122143D01*
X6902619Y-12131667D01*
X6912143Y-12141190D01*
X6921667Y-12160238D01*
X6921667Y-12217381D01*
X6912143Y-12236428D01*
X6902619Y-12245952D01*
X6883571Y-12255476D01*
X6855000Y-12255476D01*
X6978809Y-12122143D02*
X7055000Y-12122143D01*
X7007381Y-12055476D02*
X7007381Y-12226905D01*
X7016905Y-12245952D01*
X7035952Y-12255476D01*
X7055000Y-12255476D01*
X7274048Y-12122143D02*
X7274048Y-12322143D01*
X7274048Y-12131667D02*
X7293095Y-12122143D01*
X7331190Y-12122143D01*
X7350238Y-12131667D01*
X7359762Y-12141190D01*
X7369286Y-12160238D01*
X7369286Y-12217381D01*
X7359762Y-12236428D01*
X7350238Y-12245952D01*
X7331190Y-12255476D01*
X7293095Y-12255476D01*
X7274048Y-12245952D01*
X7483571Y-12255476D02*
X7464524Y-12245952D01*
X7455000Y-12226905D01*
X7455000Y-12055476D01*
X7645476Y-12255476D02*
X7645476Y-12150714D01*
X7635952Y-12131667D01*
X7616905Y-12122143D01*
X7578809Y-12122143D01*
X7559762Y-12131667D01*
X7645476Y-12245952D02*
X7626428Y-12255476D01*
X7578809Y-12255476D01*
X7559762Y-12245952D01*
X7550238Y-12226905D01*
X7550238Y-12207857D01*
X7559762Y-12188809D01*
X7578809Y-12179286D01*
X7626428Y-12179286D01*
X7645476Y-12169762D01*
X7712143Y-12122143D02*
X7788333Y-12122143D01*
X7740714Y-12055476D02*
X7740714Y-12226905D01*
X7750238Y-12245952D01*
X7769286Y-12255476D01*
X7788333Y-12255476D01*
X7931190Y-12245952D02*
X7912143Y-12255476D01*
X7874048Y-12255476D01*
X7855000Y-12245952D01*
X7845476Y-12226905D01*
X7845476Y-12150714D01*
X7855000Y-12131667D01*
X7874048Y-12122143D01*
X7912143Y-12122143D01*
X7931190Y-12131667D01*
X7940714Y-12150714D01*
X7940714Y-12169762D01*
X7845476Y-12188809D01*
X8112143Y-12255476D02*
X8112143Y-12055476D01*
X8112143Y-12245952D02*
X8093095Y-12255476D01*
X8055000Y-12255476D01*
X8035952Y-12245952D01*
X8026428Y-12236428D01*
X8016905Y-12217381D01*
X8016905Y-12160238D01*
X8026428Y-12141190D01*
X8035952Y-12131667D01*
X8055000Y-12122143D01*
X8093095Y-12122143D01*
X8112143Y-12131667D01*
X8188333Y-12331667D02*
X8197857Y-12322143D01*
X8216905Y-12293571D01*
X8226428Y-12274524D01*
X8235952Y-12245952D01*
X8245476Y-12198333D01*
X8245476Y-12160238D01*
X8235952Y-12112619D01*
X8226428Y-12084048D01*
X8216905Y-12065000D01*
X8197857Y-12036428D01*
X8188333Y-12026905D01*
X1145000Y-12355180D02*
X1145000Y-12555180D01*
X1045000Y-12455180D02*
X1245000Y-12455180D01*
X1483571Y-12345656D02*
X1607381Y-12345656D01*
X1540714Y-12421847D01*
X1569286Y-12421847D01*
X1588333Y-12431370D01*
X1597857Y-12440894D01*
X1607381Y-12459942D01*
X1607381Y-12507561D01*
X1597857Y-12526608D01*
X1588333Y-12536132D01*
X1569286Y-12545656D01*
X1512143Y-12545656D01*
X1493095Y-12536132D01*
X1483571Y-12526608D01*
X1693095Y-12526608D02*
X1702619Y-12536132D01*
X1693095Y-12545656D01*
X1683571Y-12536132D01*
X1693095Y-12526608D01*
X1693095Y-12545656D01*
X1797857Y-12545656D02*
X1835952Y-12545656D01*
X1855000Y-12536132D01*
X1864524Y-12526608D01*
X1883571Y-12498037D01*
X1893095Y-12459942D01*
X1893095Y-12383751D01*
X1883571Y-12364704D01*
X1874048Y-12355180D01*
X1855000Y-12345656D01*
X1816905Y-12345656D01*
X1797857Y-12355180D01*
X1788333Y-12364704D01*
X1778809Y-12383751D01*
X1778809Y-12431370D01*
X1788333Y-12450418D01*
X1797857Y-12459942D01*
X1816905Y-12469466D01*
X1855000Y-12469466D01*
X1874048Y-12459942D01*
X1883571Y-12450418D01*
X1893095Y-12431370D01*
X2007381Y-12431370D02*
X1988333Y-12421847D01*
X1978809Y-12412323D01*
X1969286Y-12393275D01*
X1969286Y-12383751D01*
X1978809Y-12364704D01*
X1988333Y-12355180D01*
X2007381Y-12345656D01*
X2045476Y-12345656D01*
X2064524Y-12355180D01*
X2074048Y-12364704D01*
X2083571Y-12383751D01*
X2083571Y-12393275D01*
X2074048Y-12412323D01*
X2064524Y-12421847D01*
X2045476Y-12431370D01*
X2007381Y-12431370D01*
X1988333Y-12440894D01*
X1978809Y-12450418D01*
X1969286Y-12469466D01*
X1969286Y-12507561D01*
X1978809Y-12526608D01*
X1988333Y-12536132D01*
X2007381Y-12545656D01*
X2045476Y-12545656D01*
X2064524Y-12536132D01*
X2074048Y-12526608D01*
X2083571Y-12507561D01*
X2083571Y-12469466D01*
X2074048Y-12450418D01*
X2064524Y-12440894D01*
X2045476Y-12431370D01*
X2197857Y-12431370D02*
X2178810Y-12421847D01*
X2169286Y-12412323D01*
X2159762Y-12393275D01*
X2159762Y-12383751D01*
X2169286Y-12364704D01*
X2178810Y-12355180D01*
X2197857Y-12345656D01*
X2235952Y-12345656D01*
X2255000Y-12355180D01*
X2264524Y-12364704D01*
X2274048Y-12383751D01*
X2274048Y-12393275D01*
X2264524Y-12412323D01*
X2255000Y-12421847D01*
X2235952Y-12431370D01*
X2197857Y-12431370D01*
X2178810Y-12440894D01*
X2169286Y-12450418D01*
X2159762Y-12469466D01*
X2159762Y-12507561D01*
X2169286Y-12526608D01*
X2178810Y-12536132D01*
X2197857Y-12545656D01*
X2235952Y-12545656D01*
X2255000Y-12536132D01*
X2264524Y-12526608D01*
X2274048Y-12507561D01*
X2274048Y-12469466D01*
X2264524Y-12450418D01*
X2255000Y-12440894D01*
X2235952Y-12431370D01*
X2359762Y-12545656D02*
X2359762Y-12412323D01*
X2359762Y-12431370D02*
X2369286Y-12421847D01*
X2388333Y-12412323D01*
X2416905Y-12412323D01*
X2435952Y-12421847D01*
X2445476Y-12440894D01*
X2445476Y-12545656D01*
X2445476Y-12440894D02*
X2455000Y-12421847D01*
X2474048Y-12412323D01*
X2502619Y-12412323D01*
X2521667Y-12421847D01*
X2531190Y-12440894D01*
X2531190Y-12545656D01*
X2626429Y-12545656D02*
X2626429Y-12412323D01*
X2626429Y-12431370D02*
X2635952Y-12421847D01*
X2655000Y-12412323D01*
X2683571Y-12412323D01*
X2702619Y-12421847D01*
X2712143Y-12440894D01*
X2712143Y-12545656D01*
X2712143Y-12440894D02*
X2721667Y-12421847D01*
X2740714Y-12412323D01*
X2769286Y-12412323D01*
X2788333Y-12421847D01*
X2797857Y-12440894D01*
X2797857Y-12545656D01*
X3188333Y-12336132D02*
X3016905Y-12593275D01*
X3445476Y-12345656D02*
X3464524Y-12345656D01*
X3483571Y-12355180D01*
X3493095Y-12364704D01*
X3502619Y-12383751D01*
X3512143Y-12421847D01*
X3512143Y-12469466D01*
X3502619Y-12507561D01*
X3493095Y-12526608D01*
X3483571Y-12536132D01*
X3464524Y-12545656D01*
X3445476Y-12545656D01*
X3426428Y-12536132D01*
X3416905Y-12526608D01*
X3407381Y-12507561D01*
X3397857Y-12469466D01*
X3397857Y-12421847D01*
X3407381Y-12383751D01*
X3416905Y-12364704D01*
X3426428Y-12355180D01*
X3445476Y-12345656D01*
X3597857Y-12526608D02*
X3607381Y-12536132D01*
X3597857Y-12545656D01*
X3588333Y-12536132D01*
X3597857Y-12526608D01*
X3597857Y-12545656D01*
X3797857Y-12545656D02*
X3683571Y-12545656D01*
X3740714Y-12545656D02*
X3740714Y-12345656D01*
X3721667Y-12374228D01*
X3702619Y-12393275D01*
X3683571Y-12402799D01*
X3978809Y-12345656D02*
X3883571Y-12345656D01*
X3874048Y-12440894D01*
X3883571Y-12431370D01*
X3902619Y-12421847D01*
X3950238Y-12421847D01*
X3969286Y-12431370D01*
X3978809Y-12440894D01*
X3988333Y-12459942D01*
X3988333Y-12507561D01*
X3978809Y-12526608D01*
X3969286Y-12536132D01*
X3950238Y-12545656D01*
X3902619Y-12545656D01*
X3883571Y-12536132D01*
X3874048Y-12526608D01*
X4055000Y-12345656D02*
X4188333Y-12345656D01*
X4102619Y-12545656D01*
X4302619Y-12345656D02*
X4321667Y-12345656D01*
X4340714Y-12355180D01*
X4350238Y-12364704D01*
X4359762Y-12383751D01*
X4369286Y-12421847D01*
X4369286Y-12469466D01*
X4359762Y-12507561D01*
X4350238Y-12526608D01*
X4340714Y-12536132D01*
X4321667Y-12545656D01*
X4302619Y-12545656D01*
X4283571Y-12536132D01*
X4274048Y-12526608D01*
X4264524Y-12507561D01*
X4255000Y-12469466D01*
X4255000Y-12421847D01*
X4264524Y-12383751D01*
X4274048Y-12364704D01*
X4283571Y-12355180D01*
X4302619Y-12345656D01*
X4445476Y-12345656D02*
X4445476Y-12383751D01*
X4521667Y-12345656D02*
X4521667Y-12383751D01*
X4816905Y-12621847D02*
X4807381Y-12612323D01*
X4788333Y-12583751D01*
X4778810Y-12564704D01*
X4769286Y-12536132D01*
X4759762Y-12488513D01*
X4759762Y-12450418D01*
X4769286Y-12402799D01*
X4778810Y-12374228D01*
X4788333Y-12355180D01*
X4807381Y-12326608D01*
X4816905Y-12317085D01*
X4874048Y-12345656D02*
X4997857Y-12345656D01*
X4931190Y-12421847D01*
X4959762Y-12421847D01*
X4978810Y-12431370D01*
X4988333Y-12440894D01*
X4997857Y-12459942D01*
X4997857Y-12507561D01*
X4988333Y-12526608D01*
X4978810Y-12536132D01*
X4959762Y-12545656D01*
X4902619Y-12545656D01*
X4883571Y-12536132D01*
X4874048Y-12526608D01*
X5093095Y-12545656D02*
X5131190Y-12545656D01*
X5150238Y-12536132D01*
X5159762Y-12526608D01*
X5178810Y-12498037D01*
X5188333Y-12459942D01*
X5188333Y-12383751D01*
X5178810Y-12364704D01*
X5169286Y-12355180D01*
X5150238Y-12345656D01*
X5112143Y-12345656D01*
X5093095Y-12355180D01*
X5083571Y-12364704D01*
X5074048Y-12383751D01*
X5074048Y-12431370D01*
X5083571Y-12450418D01*
X5093095Y-12459942D01*
X5112143Y-12469466D01*
X5150238Y-12469466D01*
X5169286Y-12459942D01*
X5178810Y-12450418D01*
X5188333Y-12431370D01*
X5426429Y-12545656D02*
X5426429Y-12345656D01*
X5512143Y-12545656D02*
X5512143Y-12440894D01*
X5502619Y-12421847D01*
X5483571Y-12412323D01*
X5455000Y-12412323D01*
X5435952Y-12421847D01*
X5426429Y-12431370D01*
X5635952Y-12545656D02*
X5616905Y-12536132D01*
X5607381Y-12526608D01*
X5597857Y-12507561D01*
X5597857Y-12450418D01*
X5607381Y-12431370D01*
X5616905Y-12421847D01*
X5635952Y-12412323D01*
X5664524Y-12412323D01*
X5683571Y-12421847D01*
X5693095Y-12431370D01*
X5702619Y-12450418D01*
X5702619Y-12507561D01*
X5693095Y-12526608D01*
X5683571Y-12536132D01*
X5664524Y-12545656D01*
X5635952Y-12545656D01*
X5816905Y-12545656D02*
X5797857Y-12536132D01*
X5788333Y-12517085D01*
X5788333Y-12345656D01*
X5969286Y-12536132D02*
X5950238Y-12545656D01*
X5912143Y-12545656D01*
X5893095Y-12536132D01*
X5883571Y-12517085D01*
X5883571Y-12440894D01*
X5893095Y-12421847D01*
X5912143Y-12412323D01*
X5950238Y-12412323D01*
X5969286Y-12421847D01*
X5978809Y-12440894D01*
X5978809Y-12459942D01*
X5883571Y-12478989D01*
X6055000Y-12536132D02*
X6074048Y-12545656D01*
X6112143Y-12545656D01*
X6131190Y-12536132D01*
X6140714Y-12517085D01*
X6140714Y-12507561D01*
X6131190Y-12488513D01*
X6112143Y-12478989D01*
X6083571Y-12478989D01*
X6064524Y-12469466D01*
X6055000Y-12450418D01*
X6055000Y-12440894D01*
X6064524Y-12421847D01*
X6083571Y-12412323D01*
X6112143Y-12412323D01*
X6131190Y-12421847D01*
X6207381Y-12621847D02*
X6216905Y-12612323D01*
X6235952Y-12583751D01*
X6245476Y-12564704D01*
X6255000Y-12536132D01*
X6264524Y-12488513D01*
X6264524Y-12450418D01*
X6255000Y-12402799D01*
X6245476Y-12374228D01*
X6235952Y-12355180D01*
X6216905Y-12326608D01*
X6207381Y-12317085D01*
X6569286Y-12621847D02*
X6559762Y-12612323D01*
X6540714Y-12583751D01*
X6531190Y-12564704D01*
X6521667Y-12536132D01*
X6512143Y-12488513D01*
X6512143Y-12450418D01*
X6521667Y-12402799D01*
X6531190Y-12374228D01*
X6540714Y-12355180D01*
X6559762Y-12326608D01*
X6569286Y-12317085D01*
X6645476Y-12412323D02*
X6645476Y-12545656D01*
X6645476Y-12431370D02*
X6655000Y-12421847D01*
X6674048Y-12412323D01*
X6702619Y-12412323D01*
X6721667Y-12421847D01*
X6731190Y-12440894D01*
X6731190Y-12545656D01*
X6855000Y-12545656D02*
X6835952Y-12536132D01*
X6826428Y-12526608D01*
X6816905Y-12507561D01*
X6816905Y-12450418D01*
X6826428Y-12431370D01*
X6835952Y-12421847D01*
X6855000Y-12412323D01*
X6883571Y-12412323D01*
X6902619Y-12421847D01*
X6912143Y-12431370D01*
X6921667Y-12450418D01*
X6921667Y-12507561D01*
X6912143Y-12526608D01*
X6902619Y-12536132D01*
X6883571Y-12545656D01*
X6855000Y-12545656D01*
X6978809Y-12412323D02*
X7055000Y-12412323D01*
X7007381Y-12345656D02*
X7007381Y-12517085D01*
X7016905Y-12536132D01*
X7035952Y-12545656D01*
X7055000Y-12545656D01*
X7274048Y-12412323D02*
X7274048Y-12612323D01*
X7274048Y-12421847D02*
X7293095Y-12412323D01*
X7331190Y-12412323D01*
X7350238Y-12421847D01*
X7359762Y-12431370D01*
X7369286Y-12450418D01*
X7369286Y-12507561D01*
X7359762Y-12526608D01*
X7350238Y-12536132D01*
X7331190Y-12545656D01*
X7293095Y-12545656D01*
X7274048Y-12536132D01*
X7483571Y-12545656D02*
X7464524Y-12536132D01*
X7455000Y-12517085D01*
X7455000Y-12345656D01*
X7645476Y-12545656D02*
X7645476Y-12440894D01*
X7635952Y-12421847D01*
X7616905Y-12412323D01*
X7578809Y-12412323D01*
X7559762Y-12421847D01*
X7645476Y-12536132D02*
X7626428Y-12545656D01*
X7578809Y-12545656D01*
X7559762Y-12536132D01*
X7550238Y-12517085D01*
X7550238Y-12498037D01*
X7559762Y-12478989D01*
X7578809Y-12469466D01*
X7626428Y-12469466D01*
X7645476Y-12459942D01*
X7712143Y-12412323D02*
X7788333Y-12412323D01*
X7740714Y-12345656D02*
X7740714Y-12517085D01*
X7750238Y-12536132D01*
X7769286Y-12545656D01*
X7788333Y-12545656D01*
X7931190Y-12536132D02*
X7912143Y-12545656D01*
X7874048Y-12545656D01*
X7855000Y-12536132D01*
X7845476Y-12517085D01*
X7845476Y-12440894D01*
X7855000Y-12421847D01*
X7874048Y-12412323D01*
X7912143Y-12412323D01*
X7931190Y-12421847D01*
X7940714Y-12440894D01*
X7940714Y-12459942D01*
X7845476Y-12478989D01*
X8112143Y-12545656D02*
X8112143Y-12345656D01*
X8112143Y-12536132D02*
X8093095Y-12545656D01*
X8055000Y-12545656D01*
X8035952Y-12536132D01*
X8026428Y-12526608D01*
X8016905Y-12507561D01*
X8016905Y-12450418D01*
X8026428Y-12431370D01*
X8035952Y-12421847D01*
X8055000Y-12412323D01*
X8093095Y-12412323D01*
X8112143Y-12421847D01*
X8188333Y-12621847D02*
X8197857Y-12612323D01*
X8216905Y-12583751D01*
X8226428Y-12564704D01*
X8235952Y-12536132D01*
X8245476Y-12488513D01*
X8245476Y-12450418D01*
X8235952Y-12402799D01*
X8226428Y-12374228D01*
X8216905Y-12355180D01*
X8197857Y-12326608D01*
X8188333Y-12317085D01*
M02*
