M48
; DRILL file {KiCad (6.0.8)} date Thu Apr  6 15:32:06 2023
; FORMAT={-:-/ absolute / metric / decimal}
; #@! TF.CreationDate,2023-04-06T15:32:06+10:00
; #@! TF.GenerationSoftware,Kicad,Pcbnew,(6.0.8)
; #@! TF.FileFunction,NonPlated,1,2,NPTH
FMAT,2
METRIC
; #@! TA.AperFunction,NonPlated,NPTH,ComponentDrill
T1C1.500
; #@! TA.AperFunction,NonPlated,NPTH,ComponentDrill
T2C1.702
; #@! TA.AperFunction,NonPlated,NPTH,ComponentDrill
T3C3.988
%
G90
G05
T1
X198.6Y-52.7
X205.6Y-52.7
T2
X16.92Y-22.0
X16.92Y-41.0
X16.92Y-60.0
X16.92Y-79.0
X27.08Y-22.0
X27.08Y-41.0
X27.08Y-60.0
X27.08Y-79.0
X35.92Y-22.0
X35.92Y-41.0
X35.92Y-60.0
X35.92Y-79.0
X46.08Y-22.0
X46.08Y-41.0
X46.08Y-60.0
X46.08Y-79.0
X54.92Y-22.0
X54.92Y-41.0
X54.92Y-60.0
X54.92Y-79.0
X65.08Y-22.0
X65.08Y-41.0
X65.08Y-60.0
X65.08Y-79.0
X78.92Y-22.0
X78.92Y-41.0
X78.92Y-60.0
X78.92Y-79.0
X89.08Y-22.0
X89.08Y-41.0
X89.08Y-60.0
X89.08Y-79.0
X97.92Y-22.0
X97.92Y-41.0
X97.92Y-60.0
X97.92Y-79.0
X108.08Y-22.0
X108.08Y-41.0
X108.08Y-60.0
X108.08Y-79.0
X116.92Y-22.0
X116.92Y-41.0
X116.92Y-60.0
X116.92Y-79.0
X127.08Y-22.0
X127.08Y-41.0
X127.08Y-60.0
X127.08Y-79.0
X135.92Y-22.0
X135.92Y-41.0
X135.92Y-60.0
X135.92Y-79.0
X146.08Y-22.0
X146.08Y-41.0
X146.08Y-60.0
X146.08Y-79.0
X154.92Y-22.0
X154.92Y-41.0
X154.92Y-60.0
X154.92Y-79.0
X155.42Y-103.0
X165.08Y-22.0
X165.08Y-41.0
X165.08Y-60.0
X165.08Y-79.0
X165.58Y-103.0
X173.92Y-22.0
X173.92Y-41.0
X173.92Y-60.0
X173.92Y-79.0
X174.42Y-103.0
X184.08Y-22.0
X184.08Y-41.0
X184.08Y-60.0
X184.08Y-79.0
X184.58Y-103.0
X193.42Y-103.0
X203.58Y-103.0
T3
X22.0Y-22.0
X22.0Y-41.0
X22.0Y-60.0
X22.0Y-79.0
X41.0Y-22.0
X41.0Y-41.0
X41.0Y-60.0
X41.0Y-79.0
X60.0Y-22.0
X60.0Y-41.0
X60.0Y-60.0
X60.0Y-79.0
X84.0Y-22.0
X84.0Y-41.0
X84.0Y-60.0
X84.0Y-79.0
X103.0Y-22.0
X103.0Y-41.0
X103.0Y-60.0
X103.0Y-79.0
X122.0Y-22.0
X122.0Y-41.0
X122.0Y-60.0
X122.0Y-79.0
X141.0Y-22.0
X141.0Y-41.0
X141.0Y-60.0
X141.0Y-79.0
X160.0Y-22.0
X160.0Y-41.0
X160.0Y-60.0
X160.0Y-79.0
X160.5Y-103.0
X179.0Y-22.0
X179.0Y-41.0
X179.0Y-60.0
X179.0Y-79.0
X179.5Y-103.0
X198.5Y-103.0
T0
M30
