M48
; DRILL file {KiCad (6.0.8)} date Thu Apr  6 15:32:05 2023
; FORMAT={-:-/ absolute / metric / decimal}
; #@! TF.CreationDate,2023-04-06T15:32:05+10:00
; #@! TF.GenerationSoftware,Kicad,Pcbnew,(6.0.8)
; #@! TF.FileFunction,Plated,1,2,PTH
FMAT,2
METRIC
; #@! TA.AperFunction,Plated,PTH,ViaDrill
T1C0.400
; #@! TA.AperFunction,Plated,PTH,ComponentDrill
T2C0.400
; #@! TA.AperFunction,Plated,PTH,ComponentDrill
T3C0.800
; #@! TA.AperFunction,Plated,PTH,ComponentDrill
T4C0.900
; #@! TA.AperFunction,Plated,PTH,ComponentDrill
T5C1.000
; #@! TA.AperFunction,Plated,PTH,ComponentDrill
T6C1.100
; #@! TA.AperFunction,Plated,PTH,ComponentDrill
T7C1.499
; #@! TA.AperFunction,Plated,PTH,ComponentDrill
T8C2.000
%
G90
G05
T1
X156.0Y-83.0
X156.0Y-89.5
X175.0Y-85.5
X175.0Y-89.5
X189.5Y-87.5
X190.5Y-87.5
X191.5Y-87.5
X192.5Y-87.5
T2
X197.5Y-18.289
X197.5Y-20.829
X197.5Y-23.369
X197.5Y-25.909
X197.5Y-28.449
X197.5Y-30.989
X197.5Y-33.529
X197.5Y-36.069
X197.5Y-38.609
X197.5Y-41.149
X197.5Y-43.689
X197.5Y-46.229
X199.024Y-18.289
X199.024Y-20.829
X199.024Y-23.369
X199.024Y-25.909
X199.024Y-28.449
X199.024Y-30.989
X199.024Y-33.529
X199.024Y-36.069
X199.024Y-38.609
X199.024Y-41.149
X199.024Y-43.689
X199.024Y-46.229
T3
X58.88Y-100.0
X59.88Y-97.0
X60.88Y-94.0
X61.88Y-91.0
X66.5Y-100.0
X67.5Y-97.0
X68.5Y-94.0
X68.88Y-100.0
X69.5Y-91.0
X69.88Y-97.0
X70.88Y-94.0
X71.88Y-91.0
X76.5Y-100.0
X77.5Y-97.0
X78.5Y-94.0
X78.88Y-100.0
X79.5Y-91.0
X79.88Y-97.0
X80.88Y-94.0
X81.88Y-91.0
X86.5Y-100.0
X87.5Y-97.0
X88.5Y-94.0
X88.88Y-99.993
X89.5Y-91.0
X89.88Y-96.993
X90.88Y-93.993
X91.88Y-90.993
X96.5Y-99.993
X97.5Y-96.993
X98.5Y-93.993
X98.88Y-100.0
X99.5Y-90.993
X99.88Y-97.0
X100.88Y-94.0
X101.88Y-91.0
X106.5Y-100.0
X107.5Y-97.0
X108.5Y-94.0
X108.88Y-100.0
X109.5Y-91.0
X109.88Y-97.0
X110.88Y-94.0
X111.88Y-91.0
X116.5Y-100.0
X117.5Y-97.0
X117.88Y-103.0
X118.5Y-94.0
X118.88Y-100.0
X119.5Y-91.0
X119.88Y-97.0
X120.88Y-94.0
X121.88Y-91.0
X125.5Y-103.0
X126.5Y-100.0
X127.5Y-97.0
X127.88Y-103.0
X128.5Y-94.0
X128.88Y-100.0
X129.5Y-91.0
X129.88Y-97.0
X130.88Y-94.0
X131.88Y-91.0
X135.5Y-103.0
X136.5Y-100.0
X137.5Y-97.0
X137.88Y-103.0
X138.5Y-94.0
X138.88Y-100.0
X139.5Y-91.0
X139.88Y-97.0
X140.88Y-94.0
X141.88Y-91.0
X145.5Y-103.0
X146.5Y-100.0
X147.5Y-97.0
X148.5Y-94.0
X149.5Y-91.0
T5
X196.5Y-62.0
X196.5Y-76.5
X199.0Y-62.0
X201.5Y-62.0
X201.5Y-76.5
T6
X190.642Y-18.289
X190.642Y-18.289
X190.642Y-20.829
X190.642Y-23.369
X190.642Y-25.909
X190.642Y-28.449
X190.642Y-30.989
X190.642Y-33.529
X190.642Y-36.069
X190.642Y-38.609
X190.642Y-41.149
X190.642Y-43.689
X190.642Y-46.229
X205.882Y-18.289
X205.882Y-18.289
X205.882Y-20.829
X205.882Y-23.369
X205.882Y-25.909
X205.882Y-28.449
X205.882Y-30.989
X205.882Y-33.529
X205.882Y-36.069
X205.882Y-38.609
X205.882Y-41.149
X205.882Y-43.689
X205.882Y-46.229
T7
X18.19Y-19.46
X18.19Y-38.46
X18.19Y-57.46
X18.19Y-76.46
X19.46Y-16.92
X19.46Y-35.92
X19.46Y-54.92
X19.46Y-73.92
X24.54Y-16.92
X24.54Y-35.92
X24.54Y-54.92
X24.54Y-73.92
X25.81Y-19.46
X25.81Y-38.46
X25.81Y-57.46
X25.81Y-76.46
X37.19Y-19.46
X37.19Y-38.46
X37.19Y-57.46
X37.19Y-76.46
X38.46Y-16.92
X38.46Y-35.92
X38.46Y-54.92
X38.46Y-73.92
X43.54Y-16.92
X43.54Y-35.92
X43.54Y-54.92
X43.54Y-73.92
X44.81Y-19.46
X44.81Y-38.46
X44.81Y-57.46
X44.81Y-76.46
X56.19Y-19.46
X56.19Y-38.46
X56.19Y-57.46
X56.19Y-76.46
X57.46Y-16.92
X57.46Y-35.92
X57.46Y-54.92
X57.46Y-73.92
X62.54Y-16.92
X62.54Y-35.92
X62.54Y-54.92
X62.54Y-73.92
X63.81Y-19.46
X63.81Y-38.46
X63.81Y-57.46
X63.81Y-76.46
X80.19Y-19.46
X80.19Y-38.46
X80.19Y-57.46
X80.19Y-76.46
X81.46Y-16.92
X81.46Y-35.92
X81.46Y-54.92
X81.46Y-73.92
X86.54Y-16.92
X86.54Y-35.92
X86.54Y-54.92
X86.54Y-73.92
X87.81Y-19.46
X87.81Y-38.46
X87.81Y-57.46
X87.81Y-76.46
X99.19Y-19.46
X99.19Y-38.46
X99.19Y-57.46
X99.19Y-76.46
X100.46Y-16.92
X100.46Y-35.92
X100.46Y-54.92
X100.46Y-73.92
X105.54Y-16.92
X105.54Y-35.92
X105.54Y-54.92
X105.54Y-73.92
X106.81Y-19.46
X106.81Y-38.46
X106.81Y-57.46
X106.81Y-76.46
X118.19Y-19.46
X118.19Y-38.46
X118.19Y-57.46
X118.19Y-76.46
X119.46Y-16.92
X119.46Y-35.92
X119.46Y-54.92
X119.46Y-73.92
X124.54Y-16.92
X124.54Y-35.92
X124.54Y-54.92
X124.54Y-73.92
X125.81Y-19.46
X125.81Y-38.46
X125.81Y-57.46
X125.81Y-76.46
X137.19Y-19.46
X137.19Y-38.46
X137.19Y-57.46
X137.19Y-76.46
X138.46Y-16.92
X138.46Y-35.92
X138.46Y-54.92
X138.46Y-73.92
X143.54Y-16.92
X143.54Y-35.92
X143.54Y-54.92
X143.54Y-73.92
X144.81Y-19.46
X144.81Y-38.46
X144.81Y-57.46
X144.81Y-76.46
X156.19Y-19.46
X156.19Y-38.46
X156.19Y-57.46
X156.19Y-76.46
X156.69Y-100.46
X157.46Y-16.92
X157.46Y-35.92
X157.46Y-54.92
X157.46Y-73.92
X157.96Y-97.92
X162.54Y-16.92
X162.54Y-35.92
X162.54Y-54.92
X162.54Y-73.92
X163.04Y-97.92
X163.81Y-19.46
X163.81Y-38.46
X163.81Y-57.46
X163.81Y-76.46
X164.31Y-100.46
X175.19Y-19.46
X175.19Y-38.46
X175.19Y-57.46
X175.19Y-76.46
X175.69Y-100.46
X176.46Y-16.92
X176.46Y-35.92
X176.46Y-54.92
X176.46Y-73.92
X176.96Y-97.92
X181.54Y-16.92
X181.54Y-35.92
X181.54Y-54.92
X181.54Y-73.92
X182.04Y-97.92
X182.81Y-19.46
X182.81Y-38.46
X182.81Y-57.46
X182.81Y-76.46
X183.31Y-100.46
X194.69Y-100.46
X195.96Y-97.92
X201.04Y-97.92
X202.31Y-100.46
T4
X196.2Y-50.4G85X195.6Y-50.4
G05
X197.3Y-55.0G85X196.7Y-55.0
G05
X201.3Y-55.0G85X200.7Y-55.0
G05
X204.3Y-55.0G85X203.7Y-55.0
G05
T8
X193.4Y-69.25G85X193.4Y-69.75
G05
X204.6Y-69.25G85X204.6Y-69.75
G05
T0
M30
