%TF.GenerationSoftware,KiCad,Pcbnew,(6.0.8)*%
%TF.CreationDate,2023-04-06T15:31:32+10:00*%
%TF.ProjectId,drazie,6472617a-6965-42e6-9b69-6361645f7063,rev?*%
%TF.SameCoordinates,Original*%
%TF.FileFunction,Legend,Bot*%
%TF.FilePolarity,Positive*%
%FSLAX46Y46*%
G04 Gerber Fmt 4.6, Leading zero omitted, Abs format (unit mm)*
G04 Created by KiCad (PCBNEW (6.0.8)) date 2023-04-06 15:31:32*
%MOMM*%
%LPD*%
G01*
G04 APERTURE LIST*
G04 Aperture macros list*
%AMFreePoly0*
4,1,6,0.600000,0.200000,0.000000,-0.400000,-0.600000,0.200000,-0.600000,0.400000,0.600000,0.400000,0.600000,0.200000,0.600000,0.200000,$1*%
%AMFreePoly1*
4,1,6,0.600000,-0.250000,-0.600000,-0.250000,-0.600000,1.000000,0.000000,0.400000,0.600000,1.000000,0.600000,-0.250000,0.600000,-0.250000,$1*%
G04 Aperture macros list end*
%ADD10C,0.150000*%
%ADD11C,0.120000*%
%ADD12C,0.450000*%
%ADD13C,0.250000*%
%ADD14C,0.100000*%
%ADD15O,1.600000X1.600000*%
%ADD16R,1.600000X1.600000*%
%ADD17C,2.000000*%
%ADD18R,2.500000X3.000000*%
%ADD19R,2.000000X2.000000*%
%ADD20C,1.600000*%
%ADD21FreePoly0,90.000000*%
%ADD22FreePoly0,270.000000*%
%ADD23FreePoly1,90.000000*%
%ADD24FreePoly1,270.000000*%
%ADD25C,2.286000*%
%ADD26C,1.701800*%
%ADD27C,3.987800*%
%ADD28C,1.500000*%
%ADD29O,2.200000X1.600000*%
G04 APERTURE END LIST*
D10*
X202261904Y-23952380D02*
X202261904Y-23285714D01*
X202261904Y-23476190D02*
X202214285Y-23380952D01*
X202166666Y-23333333D01*
X202071428Y-23285714D01*
X201976190Y-23285714D01*
X201690476Y-23904761D02*
X201595238Y-23952380D01*
X201404761Y-23952380D01*
X201309523Y-23904761D01*
X201261904Y-23809523D01*
X201261904Y-23761904D01*
X201309523Y-23666666D01*
X201404761Y-23619047D01*
X201547619Y-23619047D01*
X201642857Y-23571428D01*
X201690476Y-23476190D01*
X201690476Y-23428571D01*
X201642857Y-23333333D01*
X201547619Y-23285714D01*
X201404761Y-23285714D01*
X201309523Y-23333333D01*
X200976190Y-23285714D02*
X200595238Y-23285714D01*
X200833333Y-22952380D02*
X200833333Y-23809523D01*
X200785714Y-23904761D01*
X200690476Y-23952380D01*
X200595238Y-23952380D01*
X207642857Y-15404761D02*
X207547619Y-15452380D01*
X207357142Y-15452380D01*
X207261904Y-15404761D01*
X207214285Y-15309523D01*
X207214285Y-15261904D01*
X207261904Y-15166666D01*
X207357142Y-15119047D01*
X207500000Y-15119047D01*
X207595238Y-15071428D01*
X207642857Y-14976190D01*
X207642857Y-14928571D01*
X207595238Y-14833333D01*
X207500000Y-14785714D01*
X207357142Y-14785714D01*
X207261904Y-14833333D01*
X206785714Y-15452380D02*
X206785714Y-14452380D01*
X206357142Y-15452380D02*
X206357142Y-14928571D01*
X206404761Y-14833333D01*
X206500000Y-14785714D01*
X206642857Y-14785714D01*
X206738095Y-14833333D01*
X206785714Y-14880952D01*
X205738095Y-15452380D02*
X205833333Y-15404761D01*
X205880952Y-15357142D01*
X205928571Y-15261904D01*
X205928571Y-14976190D01*
X205880952Y-14880952D01*
X205833333Y-14833333D01*
X205738095Y-14785714D01*
X205595238Y-14785714D01*
X205500000Y-14833333D01*
X205452380Y-14880952D01*
X205404761Y-14976190D01*
X205404761Y-15261904D01*
X205452380Y-15357142D01*
X205500000Y-15404761D01*
X205595238Y-15452380D01*
X205738095Y-15452380D01*
X204976190Y-15452380D02*
X204976190Y-14785714D01*
X204976190Y-14976190D02*
X204928571Y-14880952D01*
X204880952Y-14833333D01*
X204785714Y-14785714D01*
X204690476Y-14785714D01*
X204500000Y-14785714D02*
X204119047Y-14785714D01*
X204357142Y-14452380D02*
X204357142Y-15309523D01*
X204309523Y-15404761D01*
X204214285Y-15452380D01*
X204119047Y-15452380D01*
X203023809Y-14785714D02*
X203023809Y-15785714D01*
X203023809Y-14833333D02*
X202928571Y-14785714D01*
X202738095Y-14785714D01*
X202642857Y-14833333D01*
X202595238Y-14880952D01*
X202547619Y-14976190D01*
X202547619Y-15261904D01*
X202595238Y-15357142D01*
X202642857Y-15404761D01*
X202738095Y-15452380D01*
X202928571Y-15452380D01*
X203023809Y-15404761D01*
X201690476Y-15452380D02*
X201690476Y-14928571D01*
X201738095Y-14833333D01*
X201833333Y-14785714D01*
X202023809Y-14785714D01*
X202119047Y-14833333D01*
X201690476Y-15404761D02*
X201785714Y-15452380D01*
X202023809Y-15452380D01*
X202119047Y-15404761D01*
X202166666Y-15309523D01*
X202166666Y-15214285D01*
X202119047Y-15119047D01*
X202023809Y-15071428D01*
X201785714Y-15071428D01*
X201690476Y-15023809D01*
X200785714Y-15452380D02*
X200785714Y-14452380D01*
X200785714Y-15404761D02*
X200880952Y-15452380D01*
X201071428Y-15452380D01*
X201166666Y-15404761D01*
X201214285Y-15357142D01*
X201261904Y-15261904D01*
X201261904Y-14976190D01*
X201214285Y-14880952D01*
X201166666Y-14833333D01*
X201071428Y-14785714D01*
X200880952Y-14785714D01*
X200785714Y-14833333D01*
X200357142Y-15404761D02*
X200261904Y-15452380D01*
X200071428Y-15452380D01*
X199976190Y-15404761D01*
X199928571Y-15309523D01*
X199928571Y-15261904D01*
X199976190Y-15166666D01*
X200071428Y-15119047D01*
X200214285Y-15119047D01*
X200309523Y-15071428D01*
X200357142Y-14976190D01*
X200357142Y-14928571D01*
X200309523Y-14833333D01*
X200214285Y-14785714D01*
X200071428Y-14785714D01*
X199976190Y-14833333D01*
X198595238Y-15452380D02*
X198690476Y-15404761D01*
X198738095Y-15357142D01*
X198785714Y-15261904D01*
X198785714Y-14976190D01*
X198738095Y-14880952D01*
X198690476Y-14833333D01*
X198595238Y-14785714D01*
X198452380Y-14785714D01*
X198357142Y-14833333D01*
X198309523Y-14880952D01*
X198261904Y-14976190D01*
X198261904Y-15261904D01*
X198309523Y-15357142D01*
X198357142Y-15404761D01*
X198452380Y-15452380D01*
X198595238Y-15452380D01*
X197833333Y-14785714D02*
X197833333Y-15452380D01*
X197833333Y-14880952D02*
X197785714Y-14833333D01*
X197690476Y-14785714D01*
X197547619Y-14785714D01*
X197452380Y-14833333D01*
X197404761Y-14928571D01*
X197404761Y-15452380D01*
X195738095Y-14785714D02*
X195738095Y-15452380D01*
X196166666Y-14785714D02*
X196166666Y-15309523D01*
X196119047Y-15404761D01*
X196023809Y-15452380D01*
X195880952Y-15452380D01*
X195785714Y-15404761D01*
X195738095Y-15357142D01*
X195261904Y-14785714D02*
X195261904Y-15452380D01*
X195261904Y-14880952D02*
X195214285Y-14833333D01*
X195119047Y-14785714D01*
X194976190Y-14785714D01*
X194880952Y-14833333D01*
X194833333Y-14928571D01*
X194833333Y-15452380D01*
X193928571Y-15452380D02*
X193928571Y-14452380D01*
X193928571Y-15404761D02*
X194023809Y-15452380D01*
X194214285Y-15452380D01*
X194309523Y-15404761D01*
X194357142Y-15357142D01*
X194404761Y-15261904D01*
X194404761Y-14976190D01*
X194357142Y-14880952D01*
X194309523Y-14833333D01*
X194214285Y-14785714D01*
X194023809Y-14785714D01*
X193928571Y-14833333D01*
X193071428Y-15404761D02*
X193166666Y-15452380D01*
X193357142Y-15452380D01*
X193452380Y-15404761D01*
X193500000Y-15309523D01*
X193500000Y-14928571D01*
X193452380Y-14833333D01*
X193357142Y-14785714D01*
X193166666Y-14785714D01*
X193071428Y-14833333D01*
X193023809Y-14928571D01*
X193023809Y-15023809D01*
X193500000Y-15119047D01*
X192595238Y-15452380D02*
X192595238Y-14785714D01*
X192595238Y-14976190D02*
X192547619Y-14880952D01*
X192500000Y-14833333D01*
X192404761Y-14785714D01*
X192309523Y-14785714D01*
X192023809Y-15404761D02*
X191928571Y-15452380D01*
X191738095Y-15452380D01*
X191642857Y-15404761D01*
X191595238Y-15309523D01*
X191595238Y-15261904D01*
X191642857Y-15166666D01*
X191738095Y-15119047D01*
X191880952Y-15119047D01*
X191976190Y-15071428D01*
X192023809Y-14976190D01*
X192023809Y-14928571D01*
X191976190Y-14833333D01*
X191880952Y-14785714D01*
X191738095Y-14785714D01*
X191642857Y-14833333D01*
X191166666Y-15452380D02*
X191166666Y-14785714D01*
X191166666Y-14452380D02*
X191214285Y-14500000D01*
X191166666Y-14547619D01*
X191119047Y-14500000D01*
X191166666Y-14452380D01*
X191166666Y-14547619D01*
X190261904Y-15452380D02*
X190261904Y-14452380D01*
X190261904Y-15404761D02*
X190357142Y-15452380D01*
X190547619Y-15452380D01*
X190642857Y-15404761D01*
X190690476Y-15357142D01*
X190738095Y-15261904D01*
X190738095Y-14976190D01*
X190690476Y-14880952D01*
X190642857Y-14833333D01*
X190547619Y-14785714D01*
X190357142Y-14785714D01*
X190261904Y-14833333D01*
X189404761Y-15404761D02*
X189500000Y-15452380D01*
X189690476Y-15452380D01*
X189785714Y-15404761D01*
X189833333Y-15309523D01*
X189833333Y-14928571D01*
X189785714Y-14833333D01*
X189690476Y-14785714D01*
X189500000Y-14785714D01*
X189404761Y-14833333D01*
X189357142Y-14928571D01*
X189357142Y-15023809D01*
X189833333Y-15119047D01*
X198500000Y-69500000D02*
X199500000Y-69500000D01*
X199000000Y-69000000D02*
X199000000Y-70000000D01*
X202000000Y-69500000D02*
G75*
G03*
X202000000Y-69500000I-3000000J0D01*
G01*
X195702380Y-64214285D02*
X195035714Y-64214285D01*
X195226190Y-64214285D02*
X195130952Y-64261904D01*
X195083333Y-64309523D01*
X195035714Y-64404761D01*
X195035714Y-64500000D01*
X195702380Y-64976190D02*
X195654761Y-64880952D01*
X195607142Y-64833333D01*
X195511904Y-64785714D01*
X195226190Y-64785714D01*
X195130952Y-64833333D01*
X195083333Y-64880952D01*
X195035714Y-64976190D01*
X195035714Y-65119047D01*
X195083333Y-65214285D01*
X195130952Y-65261904D01*
X195226190Y-65309523D01*
X195511904Y-65309523D01*
X195607142Y-65261904D01*
X195654761Y-65214285D01*
X195702380Y-65119047D01*
X195702380Y-64976190D01*
X195035714Y-65595238D02*
X195035714Y-65976190D01*
X194702380Y-65738095D02*
X195559523Y-65738095D01*
X195654761Y-65785714D01*
X195702380Y-65880952D01*
X195702380Y-65976190D01*
X195702380Y-66738095D02*
X195178571Y-66738095D01*
X195083333Y-66690476D01*
X195035714Y-66595238D01*
X195035714Y-66404761D01*
X195083333Y-66309523D01*
X195654761Y-66738095D02*
X195702380Y-66642857D01*
X195702380Y-66404761D01*
X195654761Y-66309523D01*
X195559523Y-66261904D01*
X195464285Y-66261904D01*
X195369047Y-66309523D01*
X195321428Y-66404761D01*
X195321428Y-66642857D01*
X195273809Y-66738095D01*
X195702380Y-67214285D02*
X195035714Y-67214285D01*
X195226190Y-67214285D02*
X195130952Y-67261904D01*
X195083333Y-67309523D01*
X195035714Y-67404761D01*
X195035714Y-67500000D01*
X195035714Y-67738095D02*
X195702380Y-67976190D01*
X195035714Y-68214285D02*
X195702380Y-67976190D01*
X195940476Y-67880952D01*
X195988095Y-67833333D01*
X196035714Y-67738095D01*
X195654761Y-69738095D02*
X195702380Y-69642857D01*
X195702380Y-69452380D01*
X195654761Y-69357142D01*
X195559523Y-69309523D01*
X195178571Y-69309523D01*
X195083333Y-69357142D01*
X195035714Y-69452380D01*
X195035714Y-69642857D01*
X195083333Y-69738095D01*
X195178571Y-69785714D01*
X195273809Y-69785714D01*
X195369047Y-69309523D01*
X195035714Y-70214285D02*
X195702380Y-70214285D01*
X195130952Y-70214285D02*
X195083333Y-70261904D01*
X195035714Y-70357142D01*
X195035714Y-70500000D01*
X195083333Y-70595238D01*
X195178571Y-70642857D01*
X195702380Y-70642857D01*
X195654761Y-71547619D02*
X195702380Y-71452380D01*
X195702380Y-71261904D01*
X195654761Y-71166666D01*
X195607142Y-71119047D01*
X195511904Y-71071428D01*
X195226190Y-71071428D01*
X195130952Y-71119047D01*
X195083333Y-71166666D01*
X195035714Y-71261904D01*
X195035714Y-71452380D01*
X195083333Y-71547619D01*
X195702380Y-72119047D02*
X195654761Y-72023809D01*
X195607142Y-71976190D01*
X195511904Y-71928571D01*
X195226190Y-71928571D01*
X195130952Y-71976190D01*
X195083333Y-72023809D01*
X195035714Y-72119047D01*
X195035714Y-72261904D01*
X195083333Y-72357142D01*
X195130952Y-72404761D01*
X195226190Y-72452380D01*
X195511904Y-72452380D01*
X195607142Y-72404761D01*
X195654761Y-72357142D01*
X195702380Y-72261904D01*
X195702380Y-72119047D01*
X195702380Y-73309523D02*
X194702380Y-73309523D01*
X195654761Y-73309523D02*
X195702380Y-73214285D01*
X195702380Y-73023809D01*
X195654761Y-72928571D01*
X195607142Y-72880952D01*
X195511904Y-72833333D01*
X195226190Y-72833333D01*
X195130952Y-72880952D01*
X195083333Y-72928571D01*
X195035714Y-73023809D01*
X195035714Y-73214285D01*
X195083333Y-73309523D01*
X195654761Y-74166666D02*
X195702380Y-74071428D01*
X195702380Y-73880952D01*
X195654761Y-73785714D01*
X195559523Y-73738095D01*
X195178571Y-73738095D01*
X195083333Y-73785714D01*
X195035714Y-73880952D01*
X195035714Y-74071428D01*
X195083333Y-74166666D01*
X195178571Y-74214285D01*
X195273809Y-74214285D01*
X195369047Y-73738095D01*
X195702380Y-74642857D02*
X195035714Y-74642857D01*
X195226190Y-74642857D02*
X195130952Y-74690476D01*
X195083333Y-74738095D01*
X195035714Y-74833333D01*
X195035714Y-74928571D01*
X205250000Y-76250000D02*
X205250000Y-71500000D01*
X202750000Y-76250000D02*
X205250000Y-76250000D01*
X192750000Y-76250000D02*
X195250000Y-76250000D01*
X192750000Y-76000000D02*
X192750000Y-76250000D01*
X192750000Y-71500000D02*
X192750000Y-76000000D01*
X192750000Y-62750000D02*
X192750000Y-67500000D01*
X195250000Y-62750000D02*
X192750000Y-62750000D01*
X205250000Y-62750000D02*
X205250000Y-67500000D01*
X203000000Y-62750000D02*
X205250000Y-62750000D01*
D11*
%TO.C,R*%
X123115000Y-101880000D02*
X123115000Y-104120000D01*
X119475000Y-104120000D02*
X119475000Y-101880000D01*
X122995000Y-101880000D02*
X122995000Y-104120000D01*
X118825000Y-103000000D02*
X119475000Y-103000000D01*
X123715000Y-101880000D02*
X123715000Y-104120000D01*
X123715000Y-104120000D02*
X119475000Y-104120000D01*
X124365000Y-103000000D02*
X123715000Y-103000000D01*
X119475000Y-101880000D02*
X123715000Y-101880000D01*
X122875000Y-101880000D02*
X122875000Y-104120000D01*
D10*
%TO.C,MCU1*%
X204612000Y-19559000D02*
X207152000Y-19559000D01*
X207152000Y-19559000D02*
X207152000Y-17019000D01*
X204612000Y-17019000D02*
X207152000Y-17019000D01*
X204612000Y-17019000D02*
X204612000Y-19559000D01*
%TD*%
%LPC*%
X204928571Y-90952380D02*
X204928571Y-89952380D01*
X204928571Y-90333333D02*
X204833333Y-90285714D01*
X204642857Y-90285714D01*
X204547619Y-90333333D01*
X204500000Y-90380952D01*
X204452380Y-90476190D01*
X204452380Y-90761904D01*
X204500000Y-90857142D01*
X204547619Y-90904761D01*
X204642857Y-90952380D01*
X204833333Y-90952380D01*
X204928571Y-90904761D01*
X204119047Y-90285714D02*
X203880952Y-90952380D01*
X203642857Y-90285714D02*
X203880952Y-90952380D01*
X203976190Y-91190476D01*
X204023809Y-91238095D01*
X204119047Y-91285714D01*
X202071428Y-90285714D02*
X202071428Y-91095238D01*
X202119047Y-91190476D01*
X202166666Y-91238095D01*
X202261904Y-91285714D01*
X202404761Y-91285714D01*
X202500000Y-91238095D01*
X202071428Y-90904761D02*
X202166666Y-90952380D01*
X202357142Y-90952380D01*
X202452380Y-90904761D01*
X202500000Y-90857142D01*
X202547619Y-90761904D01*
X202547619Y-90476190D01*
X202500000Y-90380952D01*
X202452380Y-90333333D01*
X202357142Y-90285714D01*
X202166666Y-90285714D01*
X202071428Y-90333333D01*
X201595238Y-90285714D02*
X201595238Y-90952380D01*
X201595238Y-90380952D02*
X201547619Y-90333333D01*
X201452380Y-90285714D01*
X201309523Y-90285714D01*
X201214285Y-90333333D01*
X201166666Y-90428571D01*
X201166666Y-90952380D01*
X200261904Y-90952380D02*
X200261904Y-90428571D01*
X200309523Y-90333333D01*
X200404761Y-90285714D01*
X200595238Y-90285714D01*
X200690476Y-90333333D01*
X200261904Y-90904761D02*
X200357142Y-90952380D01*
X200595238Y-90952380D01*
X200690476Y-90904761D01*
X200738095Y-90809523D01*
X200738095Y-90714285D01*
X200690476Y-90619047D01*
X200595238Y-90571428D01*
X200357142Y-90571428D01*
X200261904Y-90523809D01*
X199880952Y-90285714D02*
X199690476Y-90952380D01*
X199500000Y-90476190D01*
X199309523Y-90952380D01*
X199119047Y-90285714D01*
X198738095Y-90952380D02*
X198738095Y-90285714D01*
X198738095Y-90380952D02*
X198690476Y-90333333D01*
X198595238Y-90285714D01*
X198452380Y-90285714D01*
X198357142Y-90333333D01*
X198309523Y-90428571D01*
X198309523Y-90952380D01*
X198309523Y-90428571D02*
X198261904Y-90333333D01*
X198166666Y-90285714D01*
X198023809Y-90285714D01*
X197928571Y-90333333D01*
X197880952Y-90428571D01*
X197880952Y-90952380D01*
X196976190Y-90952380D02*
X196976190Y-90428571D01*
X197023809Y-90333333D01*
X197119047Y-90285714D01*
X197309523Y-90285714D01*
X197404761Y-90333333D01*
X196976190Y-90904761D02*
X197071428Y-90952380D01*
X197309523Y-90952380D01*
X197404761Y-90904761D01*
X197452380Y-90809523D01*
X197452380Y-90714285D01*
X197404761Y-90619047D01*
X197309523Y-90571428D01*
X197071428Y-90571428D01*
X196976190Y-90523809D01*
X196500000Y-90285714D02*
X196500000Y-90952380D01*
X196500000Y-90380952D02*
X196452380Y-90333333D01*
X196357142Y-90285714D01*
X196214285Y-90285714D01*
X196119047Y-90333333D01*
X196071428Y-90428571D01*
X196071428Y-90952380D01*
D12*
X203207500Y-82442142D02*
X203207500Y-79442142D01*
X203207500Y-82299285D02*
X203493214Y-82442142D01*
X204064642Y-82442142D01*
X204350357Y-82299285D01*
X204493214Y-82156428D01*
X204636071Y-81870714D01*
X204636071Y-81013571D01*
X204493214Y-80727857D01*
X204350357Y-80585000D01*
X204064642Y-80442142D01*
X203493214Y-80442142D01*
X203207500Y-80585000D01*
X201778928Y-82442142D02*
X201778928Y-80442142D01*
X201778928Y-81013571D02*
X201636071Y-80727857D01*
X201493214Y-80585000D01*
X201207500Y-80442142D01*
X200921785Y-80442142D01*
X198636071Y-82442142D02*
X198636071Y-80870714D01*
X198778928Y-80585000D01*
X199064642Y-80442142D01*
X199636071Y-80442142D01*
X199921785Y-80585000D01*
X198636071Y-82299285D02*
X198921785Y-82442142D01*
X199636071Y-82442142D01*
X199921785Y-82299285D01*
X200064642Y-82013571D01*
X200064642Y-81727857D01*
X199921785Y-81442142D01*
X199636071Y-81299285D01*
X198921785Y-81299285D01*
X198636071Y-81156428D01*
X197493214Y-80442142D02*
X195921785Y-80442142D01*
X197493214Y-82442142D01*
X195921785Y-82442142D01*
X194778928Y-82442142D02*
X194778928Y-80442142D01*
X194778928Y-79442142D02*
X194921785Y-79585000D01*
X194778928Y-79727857D01*
X194636071Y-79585000D01*
X194778928Y-79442142D01*
X194778928Y-79727857D01*
X192207500Y-82299285D02*
X192493214Y-82442142D01*
X193064642Y-82442142D01*
X193350357Y-82299285D01*
X193493214Y-82013571D01*
X193493214Y-80870714D01*
X193350357Y-80585000D01*
X193064642Y-80442142D01*
X192493214Y-80442142D01*
X192207500Y-80585000D01*
X192064642Y-80870714D01*
X192064642Y-81156428D01*
X193493214Y-81442142D01*
X204493214Y-87272142D02*
X204493214Y-85272142D01*
X204493214Y-85843571D02*
X204350357Y-85557857D01*
X204207500Y-85415000D01*
X203921785Y-85272142D01*
X203636071Y-85272142D01*
X201493214Y-87129285D02*
X201778928Y-87272142D01*
X202350357Y-87272142D01*
X202636071Y-87129285D01*
X202778928Y-86843571D01*
X202778928Y-85700714D01*
X202636071Y-85415000D01*
X202350357Y-85272142D01*
X201778928Y-85272142D01*
X201493214Y-85415000D01*
X201350357Y-85700714D01*
X201350357Y-85986428D01*
X202778928Y-86272142D01*
X200350357Y-85272142D02*
X199636071Y-87272142D01*
X198921785Y-85272142D01*
X196207500Y-87272142D02*
X197921785Y-87272142D01*
X197064642Y-87272142D02*
X197064642Y-84272142D01*
X197350357Y-84700714D01*
X197636071Y-84986428D01*
X197921785Y-85129285D01*
D13*
%TO.C,MCU1*%
X199149000Y-43689000D02*
G75*
G03*
X199149000Y-43689000I-125000J0D01*
G01*
X197625000Y-20829000D02*
G75*
G03*
X197625000Y-20829000I-125000J0D01*
G01*
X197625000Y-41149000D02*
G75*
G03*
X197625000Y-41149000I-125000J0D01*
G01*
X197625000Y-36069000D02*
G75*
G03*
X197625000Y-36069000I-125000J0D01*
G01*
X197625000Y-38609000D02*
G75*
G03*
X197625000Y-38609000I-125000J0D01*
G01*
X199149000Y-33529000D02*
G75*
G03*
X199149000Y-33529000I-125000J0D01*
G01*
X199149000Y-41149000D02*
G75*
G03*
X199149000Y-41149000I-125000J0D01*
G01*
X197625000Y-25909000D02*
G75*
G03*
X197625000Y-25909000I-125000J0D01*
G01*
X199149000Y-20829000D02*
G75*
G03*
X199149000Y-20829000I-125000J0D01*
G01*
X197625000Y-33529000D02*
G75*
G03*
X197625000Y-33529000I-125000J0D01*
G01*
X197625000Y-46229000D02*
G75*
G03*
X197625000Y-46229000I-125000J0D01*
G01*
X199149000Y-23369000D02*
G75*
G03*
X199149000Y-23369000I-125000J0D01*
G01*
X199149000Y-25909000D02*
G75*
G03*
X199149000Y-25909000I-125000J0D01*
G01*
X199149000Y-36069000D02*
G75*
G03*
X199149000Y-36069000I-125000J0D01*
G01*
X197625000Y-43689000D02*
G75*
G03*
X197625000Y-43689000I-125000J0D01*
G01*
X197625000Y-23369000D02*
G75*
G03*
X197625000Y-23369000I-125000J0D01*
G01*
X199149000Y-38609000D02*
G75*
G03*
X199149000Y-38609000I-125000J0D01*
G01*
X199149000Y-18289000D02*
G75*
G03*
X199149000Y-18289000I-125000J0D01*
G01*
X199149000Y-30989000D02*
G75*
G03*
X199149000Y-30989000I-125000J0D01*
G01*
X199149000Y-46229000D02*
G75*
G03*
X199149000Y-46229000I-125000J0D01*
G01*
X199149000Y-28449000D02*
G75*
G03*
X199149000Y-28449000I-125000J0D01*
G01*
X197625000Y-30989000D02*
G75*
G03*
X197625000Y-30989000I-125000J0D01*
G01*
X197625000Y-28449000D02*
G75*
G03*
X197625000Y-28449000I-125000J0D01*
G01*
X197625000Y-18289000D02*
G75*
G03*
X197625000Y-18289000I-125000J0D01*
G01*
G36*
X204358000Y-41657000D02*
G01*
X203342000Y-41657000D01*
X203342000Y-40641000D01*
X204358000Y-40641000D01*
X204358000Y-41657000D01*
G37*
D14*
X204358000Y-41657000D02*
X203342000Y-41657000D01*
X203342000Y-40641000D01*
X204358000Y-40641000D01*
X204358000Y-41657000D01*
G36*
X204358000Y-39117000D02*
G01*
X203342000Y-39117000D01*
X203342000Y-38101000D01*
X204358000Y-38101000D01*
X204358000Y-39117000D01*
G37*
X204358000Y-39117000D02*
X203342000Y-39117000D01*
X203342000Y-38101000D01*
X204358000Y-38101000D01*
X204358000Y-39117000D01*
G36*
X193182000Y-23877000D02*
G01*
X192166000Y-23877000D01*
X192166000Y-22861000D01*
X193182000Y-22861000D01*
X193182000Y-23877000D01*
G37*
X193182000Y-23877000D02*
X192166000Y-23877000D01*
X192166000Y-22861000D01*
X193182000Y-22861000D01*
X193182000Y-23877000D01*
G36*
X193182000Y-26417000D02*
G01*
X192166000Y-26417000D01*
X192166000Y-25401000D01*
X193182000Y-25401000D01*
X193182000Y-26417000D01*
G37*
X193182000Y-26417000D02*
X192166000Y-26417000D01*
X192166000Y-25401000D01*
X193182000Y-25401000D01*
X193182000Y-26417000D01*
G36*
X193182000Y-36577000D02*
G01*
X192166000Y-36577000D01*
X192166000Y-35561000D01*
X193182000Y-35561000D01*
X193182000Y-36577000D01*
G37*
X193182000Y-36577000D02*
X192166000Y-36577000D01*
X192166000Y-35561000D01*
X193182000Y-35561000D01*
X193182000Y-36577000D01*
G36*
X204358000Y-34037000D02*
G01*
X203342000Y-34037000D01*
X203342000Y-33021000D01*
X204358000Y-33021000D01*
X204358000Y-34037000D01*
G37*
X204358000Y-34037000D02*
X203342000Y-34037000D01*
X203342000Y-33021000D01*
X204358000Y-33021000D01*
X204358000Y-34037000D01*
G36*
X193182000Y-28957000D02*
G01*
X192166000Y-28957000D01*
X192166000Y-27941000D01*
X193182000Y-27941000D01*
X193182000Y-28957000D01*
G37*
X193182000Y-28957000D02*
X192166000Y-28957000D01*
X192166000Y-27941000D01*
X193182000Y-27941000D01*
X193182000Y-28957000D01*
G36*
X193182000Y-21337000D02*
G01*
X192166000Y-21337000D01*
X192166000Y-20321000D01*
X193182000Y-20321000D01*
X193182000Y-21337000D01*
G37*
X193182000Y-21337000D02*
X192166000Y-21337000D01*
X192166000Y-20321000D01*
X193182000Y-20321000D01*
X193182000Y-21337000D01*
G36*
X193182000Y-34037000D02*
G01*
X192166000Y-34037000D01*
X192166000Y-33021000D01*
X193182000Y-33021000D01*
X193182000Y-34037000D01*
G37*
X193182000Y-34037000D02*
X192166000Y-34037000D01*
X192166000Y-33021000D01*
X193182000Y-33021000D01*
X193182000Y-34037000D01*
G36*
X204358000Y-44197000D02*
G01*
X203342000Y-44197000D01*
X203342000Y-43181000D01*
X204358000Y-43181000D01*
X204358000Y-44197000D01*
G37*
X204358000Y-44197000D02*
X203342000Y-44197000D01*
X203342000Y-43181000D01*
X204358000Y-43181000D01*
X204358000Y-44197000D01*
G36*
X204358000Y-26417000D02*
G01*
X203342000Y-26417000D01*
X203342000Y-25401000D01*
X204358000Y-25401000D01*
X204358000Y-26417000D01*
G37*
X204358000Y-26417000D02*
X203342000Y-26417000D01*
X203342000Y-25401000D01*
X204358000Y-25401000D01*
X204358000Y-26417000D01*
G36*
X204358000Y-46737000D02*
G01*
X203342000Y-46737000D01*
X203342000Y-45721000D01*
X204358000Y-45721000D01*
X204358000Y-46737000D01*
G37*
X204358000Y-46737000D02*
X203342000Y-46737000D01*
X203342000Y-45721000D01*
X204358000Y-45721000D01*
X204358000Y-46737000D01*
G36*
X204358000Y-21337000D02*
G01*
X203342000Y-21337000D01*
X203342000Y-20321000D01*
X204358000Y-20321000D01*
X204358000Y-21337000D01*
G37*
X204358000Y-21337000D02*
X203342000Y-21337000D01*
X203342000Y-20321000D01*
X204358000Y-20321000D01*
X204358000Y-21337000D01*
G36*
X193182000Y-18797000D02*
G01*
X192166000Y-18797000D01*
X192166000Y-17781000D01*
X193182000Y-17781000D01*
X193182000Y-18797000D01*
G37*
X193182000Y-18797000D02*
X192166000Y-18797000D01*
X192166000Y-17781000D01*
X193182000Y-17781000D01*
X193182000Y-18797000D01*
G36*
X204358000Y-31497000D02*
G01*
X203342000Y-31497000D01*
X203342000Y-30481000D01*
X204358000Y-30481000D01*
X204358000Y-31497000D01*
G37*
X204358000Y-31497000D02*
X203342000Y-31497000D01*
X203342000Y-30481000D01*
X204358000Y-30481000D01*
X204358000Y-31497000D01*
G36*
X193182000Y-44197000D02*
G01*
X192166000Y-44197000D01*
X192166000Y-43181000D01*
X193182000Y-43181000D01*
X193182000Y-44197000D01*
G37*
X193182000Y-44197000D02*
X192166000Y-44197000D01*
X192166000Y-43181000D01*
X193182000Y-43181000D01*
X193182000Y-44197000D01*
G36*
X204358000Y-36577000D02*
G01*
X203342000Y-36577000D01*
X203342000Y-35561000D01*
X204358000Y-35561000D01*
X204358000Y-36577000D01*
G37*
X204358000Y-36577000D02*
X203342000Y-36577000D01*
X203342000Y-35561000D01*
X204358000Y-35561000D01*
X204358000Y-36577000D01*
G36*
X193182000Y-46737000D02*
G01*
X192166000Y-46737000D01*
X192166000Y-45721000D01*
X193182000Y-45721000D01*
X193182000Y-46737000D01*
G37*
X193182000Y-46737000D02*
X192166000Y-46737000D01*
X192166000Y-45721000D01*
X193182000Y-45721000D01*
X193182000Y-46737000D01*
G36*
X193182000Y-41657000D02*
G01*
X192166000Y-41657000D01*
X192166000Y-40641000D01*
X193182000Y-40641000D01*
X193182000Y-41657000D01*
G37*
X193182000Y-41657000D02*
X192166000Y-41657000D01*
X192166000Y-40641000D01*
X193182000Y-40641000D01*
X193182000Y-41657000D01*
G36*
X193182000Y-31497000D02*
G01*
X192166000Y-31497000D01*
X192166000Y-30481000D01*
X193182000Y-30481000D01*
X193182000Y-31497000D01*
G37*
X193182000Y-31497000D02*
X192166000Y-31497000D01*
X192166000Y-30481000D01*
X193182000Y-30481000D01*
X193182000Y-31497000D01*
G36*
X204358000Y-28957000D02*
G01*
X203342000Y-28957000D01*
X203342000Y-27941000D01*
X204358000Y-27941000D01*
X204358000Y-28957000D01*
G37*
X204358000Y-28957000D02*
X203342000Y-28957000D01*
X203342000Y-27941000D01*
X204358000Y-27941000D01*
X204358000Y-28957000D01*
G36*
X193182000Y-39117000D02*
G01*
X192166000Y-39117000D01*
X192166000Y-38101000D01*
X193182000Y-38101000D01*
X193182000Y-39117000D01*
G37*
X193182000Y-39117000D02*
X192166000Y-39117000D01*
X192166000Y-38101000D01*
X193182000Y-38101000D01*
X193182000Y-39117000D01*
G36*
X204358000Y-23877000D02*
G01*
X203342000Y-23877000D01*
X203342000Y-22861000D01*
X204358000Y-22861000D01*
X204358000Y-23877000D01*
G37*
X204358000Y-23877000D02*
X203342000Y-23877000D01*
X203342000Y-22861000D01*
X204358000Y-22861000D01*
X204358000Y-23877000D01*
G36*
X204358000Y-18797000D02*
G01*
X203342000Y-18797000D01*
X203342000Y-17781000D01*
X204358000Y-17781000D01*
X204358000Y-18797000D01*
G37*
X204358000Y-18797000D02*
X203342000Y-18797000D01*
X203342000Y-17781000D01*
X204358000Y-17781000D01*
X204358000Y-18797000D01*
%TD*%
D15*
%TO.C,R*%
X127880000Y-103000000D03*
D16*
X135500000Y-103000000D03*
%TD*%
D15*
%TO.C,R*%
X117880000Y-103000000D03*
D16*
X125500000Y-103000000D03*
%TD*%
D15*
%TO.C,R*%
X137880000Y-103000000D03*
D16*
X145500000Y-103000000D03*
%TD*%
D17*
%TO.C,rotary encoder*%
X196500000Y-76500000D03*
X201500000Y-76500000D03*
D18*
X204600000Y-69500000D03*
X193400000Y-69500000D03*
D17*
X199000000Y-62000000D03*
X196500000Y-62000000D03*
D19*
X201500000Y-62000000D03*
%TD*%
D15*
%TO.C,R*%
X139880000Y-97000000D03*
D16*
X147500000Y-97000000D03*
%TD*%
D15*
%TO.C,R*%
X141880000Y-91000000D03*
D16*
X149500000Y-91000000D03*
%TD*%
D15*
%TO.C,R*%
X140880000Y-94000000D03*
D16*
X148500000Y-94000000D03*
%TD*%
D15*
%TO.C,R*%
X138880000Y-100000000D03*
D16*
X146500000Y-100000000D03*
%TD*%
D15*
%TO.C,R*%
X129880000Y-97000000D03*
D16*
X137500000Y-97000000D03*
%TD*%
D15*
%TO.C,R*%
X131880000Y-91000000D03*
D16*
X139500000Y-91000000D03*
%TD*%
D15*
%TO.C,R*%
X130880000Y-94000000D03*
D16*
X138500000Y-94000000D03*
%TD*%
D15*
%TO.C,R*%
X128880000Y-100000000D03*
D16*
X136500000Y-100000000D03*
%TD*%
D15*
%TO.C,R*%
X119880000Y-97000000D03*
D16*
X127500000Y-97000000D03*
%TD*%
D15*
%TO.C,R*%
X121880000Y-91000000D03*
D16*
X129500000Y-91000000D03*
%TD*%
D15*
%TO.C,R*%
X120880000Y-94000000D03*
D16*
X128500000Y-94000000D03*
%TD*%
D15*
%TO.C,R*%
X118880000Y-100000000D03*
D16*
X126500000Y-100000000D03*
%TD*%
D15*
%TO.C,R*%
X109880000Y-97000000D03*
D16*
X117500000Y-97000000D03*
%TD*%
D15*
%TO.C,R*%
X111880000Y-91000000D03*
D16*
X119500000Y-91000000D03*
%TD*%
D15*
%TO.C,R*%
X110880000Y-94000000D03*
D16*
X118500000Y-94000000D03*
%TD*%
D15*
%TO.C,R*%
X108880000Y-100000000D03*
D16*
X116500000Y-100000000D03*
%TD*%
D15*
%TO.C,R*%
X99880000Y-97000000D03*
D16*
X107500000Y-97000000D03*
%TD*%
D15*
%TO.C,R*%
X101880000Y-91000000D03*
D16*
X109500000Y-91000000D03*
%TD*%
D15*
%TO.C,R*%
X100880000Y-94000000D03*
D16*
X108500000Y-94000000D03*
%TD*%
D15*
%TO.C,R*%
X98880000Y-100000000D03*
D16*
X106500000Y-100000000D03*
%TD*%
D15*
%TO.C,R*%
X89880000Y-96992834D03*
D16*
X97500000Y-96992834D03*
%TD*%
D15*
%TO.C,R*%
X91880000Y-90992834D03*
D16*
X99500000Y-90992834D03*
%TD*%
D15*
%TO.C,R*%
X90880000Y-93992834D03*
D16*
X98500000Y-93992834D03*
%TD*%
D15*
%TO.C,R*%
X88880000Y-99992834D03*
D16*
X96500000Y-99992834D03*
%TD*%
D15*
%TO.C,R*%
X58880000Y-100000000D03*
D16*
X66500000Y-100000000D03*
%TD*%
D15*
%TO.C,R*%
X59880000Y-97000000D03*
D16*
X67500000Y-97000000D03*
%TD*%
D15*
%TO.C,R*%
X60880000Y-94000000D03*
D16*
X68500000Y-94000000D03*
%TD*%
D15*
%TO.C,R*%
X61880000Y-91000000D03*
D16*
X69500000Y-91000000D03*
%TD*%
D15*
%TO.C,R*%
X68880000Y-100000000D03*
D16*
X76500000Y-100000000D03*
%TD*%
D15*
%TO.C,R*%
X69880000Y-97000000D03*
D16*
X77500000Y-97000000D03*
%TD*%
D15*
%TO.C,R*%
X70880000Y-94000000D03*
D16*
X78500000Y-94000000D03*
%TD*%
D15*
%TO.C,R*%
X71880000Y-91000000D03*
D16*
X79500000Y-91000000D03*
%TD*%
D15*
%TO.C,R*%
X78880000Y-100000000D03*
D16*
X86500000Y-100000000D03*
%TD*%
D15*
%TO.C,R*%
X79880000Y-97000000D03*
D16*
X87500000Y-97000000D03*
%TD*%
D15*
%TO.C,R*%
X80880000Y-94000000D03*
D16*
X88500000Y-94000000D03*
%TD*%
D15*
%TO.C,R*%
X81880000Y-91000000D03*
D16*
X89500000Y-91000000D03*
%TD*%
D20*
%TO.C,MCU1*%
X190642000Y-28449000D03*
X190642000Y-41149000D03*
X190642000Y-18289000D03*
X205882000Y-18289000D03*
D21*
X192420000Y-18289000D03*
X192420000Y-20829000D03*
D16*
X205882000Y-18289000D03*
D22*
X204104000Y-46229000D03*
D20*
X190642000Y-43689000D03*
D21*
X192420000Y-41149000D03*
D20*
X190642000Y-20829000D03*
D22*
X204104000Y-33529000D03*
D20*
X205882000Y-36069000D03*
X190642000Y-23369000D03*
D22*
X204104000Y-23369000D03*
X204104000Y-18289000D03*
X204104000Y-36069000D03*
D20*
X190642000Y-46229000D03*
D21*
X192420000Y-23369000D03*
D20*
X190642000Y-33529000D03*
X205882000Y-33529000D03*
D22*
X204104000Y-41149000D03*
D20*
X190642000Y-25909000D03*
D22*
X204104000Y-25909000D03*
D21*
X192420000Y-38609000D03*
X192420000Y-30989000D03*
X192420000Y-28449000D03*
D22*
X204104000Y-38609000D03*
D20*
X205882000Y-46229000D03*
D22*
X204104000Y-20829000D03*
X204104000Y-43689000D03*
D21*
X192420000Y-36069000D03*
D20*
X205882000Y-41149000D03*
X205882000Y-30989000D03*
D21*
X192420000Y-46229000D03*
D20*
X205882000Y-20829000D03*
D21*
X192420000Y-25909000D03*
D20*
X190642000Y-36069000D03*
X205882000Y-38609000D03*
D21*
X192420000Y-43689000D03*
D20*
X190642000Y-30989000D03*
X205882000Y-25909000D03*
D21*
X192420000Y-33529000D03*
D20*
X205882000Y-23369000D03*
X190642000Y-38609000D03*
X205882000Y-43689000D03*
X205882000Y-28449000D03*
D22*
X204104000Y-30989000D03*
X204104000Y-28449000D03*
D23*
X193436000Y-18289000D03*
X193436000Y-20829000D03*
X193436000Y-23369000D03*
X193436000Y-25909000D03*
X193436000Y-28449000D03*
X193436000Y-30989000D03*
X193436000Y-33529000D03*
X193436000Y-36069000D03*
X193436000Y-38609000D03*
X193436000Y-41149000D03*
X193436000Y-43689000D03*
X193436000Y-46229000D03*
D24*
X203088000Y-46229000D03*
X203088000Y-43689000D03*
X203088000Y-41149000D03*
X203088000Y-38609000D03*
X203088000Y-36069000D03*
X203088000Y-33529000D03*
X203088000Y-30989000D03*
X203088000Y-28449000D03*
X203088000Y-25909000D03*
X203088000Y-23369000D03*
X203088000Y-20829000D03*
X203088000Y-18289000D03*
%TD*%
D25*
%TO.C,S14*%
X144810000Y-76460000D03*
X137190000Y-76460000D03*
X138460000Y-73920000D03*
X143540000Y-73920000D03*
D26*
X146080000Y-79000000D03*
D27*
X141000000Y-79000000D03*
D26*
X135920000Y-79000000D03*
%TD*%
D25*
%TO.C,S14*%
X106810000Y-76460000D03*
X99190000Y-76460000D03*
X100460000Y-73920000D03*
X105540000Y-73920000D03*
D26*
X108080000Y-79000000D03*
D27*
X103000000Y-79000000D03*
D26*
X97920000Y-79000000D03*
%TD*%
D25*
%TO.C,S14*%
X163810000Y-76460000D03*
X156190000Y-76460000D03*
X157460000Y-73920000D03*
X162540000Y-73920000D03*
D26*
X165080000Y-79000000D03*
D27*
X160000000Y-79000000D03*
D26*
X154920000Y-79000000D03*
%TD*%
D25*
%TO.C,S14*%
X87810000Y-76460000D03*
X80190000Y-76460000D03*
X81460000Y-73920000D03*
X86540000Y-73920000D03*
D26*
X89080000Y-79000000D03*
D27*
X84000000Y-79000000D03*
D26*
X78920000Y-79000000D03*
%TD*%
D25*
%TO.C,S14*%
X182810000Y-76460000D03*
X175190000Y-76460000D03*
X176460000Y-73920000D03*
X181540000Y-73920000D03*
D26*
X184080000Y-79000000D03*
D27*
X179000000Y-79000000D03*
D26*
X173920000Y-79000000D03*
%TD*%
D25*
%TO.C,S14*%
X125810000Y-76460000D03*
X118190000Y-76460000D03*
X119460000Y-73920000D03*
X124540000Y-73920000D03*
D26*
X127080000Y-79000000D03*
D27*
X122000000Y-79000000D03*
D26*
X116920000Y-79000000D03*
%TD*%
D25*
%TO.C,S14*%
X163810000Y-57460000D03*
X156190000Y-57460000D03*
X157460000Y-54920000D03*
X162540000Y-54920000D03*
D26*
X165080000Y-60000000D03*
D27*
X160000000Y-60000000D03*
D26*
X154920000Y-60000000D03*
%TD*%
D25*
%TO.C,S14*%
X87810000Y-57460000D03*
X80190000Y-57460000D03*
X81460000Y-54920000D03*
X86540000Y-54920000D03*
D26*
X89080000Y-60000000D03*
D27*
X84000000Y-60000000D03*
D26*
X78920000Y-60000000D03*
%TD*%
D25*
%TO.C,S14*%
X182810000Y-57460000D03*
X175190000Y-57460000D03*
X176460000Y-54920000D03*
X181540000Y-54920000D03*
D26*
X184080000Y-60000000D03*
D27*
X179000000Y-60000000D03*
D26*
X173920000Y-60000000D03*
%TD*%
D25*
%TO.C,S14*%
X144810000Y-57460000D03*
X137190000Y-57460000D03*
X138460000Y-54920000D03*
X143540000Y-54920000D03*
D26*
X146080000Y-60000000D03*
D27*
X141000000Y-60000000D03*
D26*
X135920000Y-60000000D03*
%TD*%
D25*
%TO.C,S14*%
X125810000Y-57460000D03*
X118190000Y-57460000D03*
X119460000Y-54920000D03*
X124540000Y-54920000D03*
D26*
X127080000Y-60000000D03*
D27*
X122000000Y-60000000D03*
D26*
X116920000Y-60000000D03*
%TD*%
D25*
%TO.C,S14*%
X106810000Y-57460000D03*
X99190000Y-57460000D03*
X100460000Y-54920000D03*
X105540000Y-54920000D03*
D26*
X108080000Y-60000000D03*
D27*
X103000000Y-60000000D03*
D26*
X97920000Y-60000000D03*
%TD*%
%TO.C,S14*%
X16920000Y-79000000D03*
D27*
X22000000Y-79000000D03*
D26*
X27080000Y-79000000D03*
D25*
X24540000Y-73920000D03*
X19460000Y-73920000D03*
X18190000Y-76460000D03*
X25810000Y-76460000D03*
%TD*%
%TO.C,S14*%
X183310000Y-100460000D03*
X175690000Y-100460000D03*
X176960000Y-97920000D03*
X182040000Y-97920000D03*
D26*
X184580000Y-103000000D03*
D27*
X179500000Y-103000000D03*
D26*
X174420000Y-103000000D03*
%TD*%
D25*
%TO.C,S14*%
X164310000Y-100460000D03*
X156690000Y-100460000D03*
X157960000Y-97920000D03*
X163040000Y-97920000D03*
D26*
X165580000Y-103000000D03*
D27*
X160500000Y-103000000D03*
D26*
X155420000Y-103000000D03*
%TD*%
D25*
%TO.C,S14*%
X202310000Y-100460000D03*
X194690000Y-100460000D03*
X195960000Y-97920000D03*
X201040000Y-97920000D03*
D26*
X203580000Y-103000000D03*
D27*
X198500000Y-103000000D03*
D26*
X193420000Y-103000000D03*
%TD*%
D25*
%TO.C,S14*%
X182810000Y-19460000D03*
X175190000Y-19460000D03*
X176460000Y-16920000D03*
X181540000Y-16920000D03*
D26*
X184080000Y-22000000D03*
D27*
X179000000Y-22000000D03*
D26*
X173920000Y-22000000D03*
%TD*%
D25*
%TO.C,S14*%
X182810000Y-38460000D03*
X175190000Y-38460000D03*
X176460000Y-35920000D03*
X181540000Y-35920000D03*
D26*
X184080000Y-41000000D03*
D27*
X179000000Y-41000000D03*
D26*
X173920000Y-41000000D03*
%TD*%
D25*
%TO.C,S14*%
X163810000Y-19460000D03*
X156190000Y-19460000D03*
X157460000Y-16920000D03*
X162540000Y-16920000D03*
D26*
X165080000Y-22000000D03*
D27*
X160000000Y-22000000D03*
D26*
X154920000Y-22000000D03*
%TD*%
D25*
%TO.C,S14*%
X163810000Y-38460000D03*
X156190000Y-38460000D03*
X157460000Y-35920000D03*
X162540000Y-35920000D03*
D26*
X165080000Y-41000000D03*
D27*
X160000000Y-41000000D03*
D26*
X154920000Y-41000000D03*
%TD*%
D25*
%TO.C,S14*%
X144810000Y-19460000D03*
X137190000Y-19460000D03*
X138460000Y-16920000D03*
X143540000Y-16920000D03*
D26*
X146080000Y-22000000D03*
D27*
X141000000Y-22000000D03*
D26*
X135920000Y-22000000D03*
%TD*%
D25*
%TO.C,S14*%
X144810000Y-38460000D03*
X137190000Y-38460000D03*
X138460000Y-35920000D03*
X143540000Y-35920000D03*
D26*
X146080000Y-41000000D03*
D27*
X141000000Y-41000000D03*
D26*
X135920000Y-41000000D03*
%TD*%
D25*
%TO.C,S14*%
X125810000Y-19460000D03*
X118190000Y-19460000D03*
X119460000Y-16920000D03*
X124540000Y-16920000D03*
D26*
X127080000Y-22000000D03*
D27*
X122000000Y-22000000D03*
D26*
X116920000Y-22000000D03*
%TD*%
D25*
%TO.C,S14*%
X125810000Y-38460000D03*
X118190000Y-38460000D03*
X119460000Y-35920000D03*
X124540000Y-35920000D03*
D26*
X127080000Y-41000000D03*
D27*
X122000000Y-41000000D03*
D26*
X116920000Y-41000000D03*
%TD*%
D25*
%TO.C,S14*%
X106810000Y-19460000D03*
X99190000Y-19460000D03*
X100460000Y-16920000D03*
X105540000Y-16920000D03*
D26*
X108080000Y-22000000D03*
D27*
X103000000Y-22000000D03*
D26*
X97920000Y-22000000D03*
%TD*%
D25*
%TO.C,S14*%
X106810000Y-38460000D03*
X99190000Y-38460000D03*
X100460000Y-35920000D03*
X105540000Y-35920000D03*
D26*
X108080000Y-41000000D03*
D27*
X103000000Y-41000000D03*
D26*
X97920000Y-41000000D03*
%TD*%
D25*
%TO.C,S14*%
X87810000Y-19460000D03*
X80190000Y-19460000D03*
X81460000Y-16920000D03*
X86540000Y-16920000D03*
D26*
X89080000Y-22000000D03*
D27*
X84000000Y-22000000D03*
D26*
X78920000Y-22000000D03*
%TD*%
D25*
%TO.C,S14*%
X87810000Y-38460000D03*
X80190000Y-38460000D03*
X81460000Y-35920000D03*
X86540000Y-35920000D03*
D26*
X89080000Y-41000000D03*
D27*
X84000000Y-41000000D03*
D26*
X78920000Y-41000000D03*
%TD*%
D25*
%TO.C,S14*%
X63810000Y-19460000D03*
X56190000Y-19460000D03*
X57460000Y-16920000D03*
X62540000Y-16920000D03*
D26*
X65080000Y-22000000D03*
D27*
X60000000Y-22000000D03*
D26*
X54920000Y-22000000D03*
%TD*%
D25*
%TO.C,S14*%
X63810000Y-38460000D03*
X56190000Y-38460000D03*
X57460000Y-35920000D03*
X62540000Y-35920000D03*
D26*
X65080000Y-41000000D03*
D27*
X60000000Y-41000000D03*
D26*
X54920000Y-41000000D03*
%TD*%
%TO.C,S14*%
X54920000Y-79000000D03*
D27*
X60000000Y-79000000D03*
D26*
X65080000Y-79000000D03*
D25*
X62540000Y-73920000D03*
X57460000Y-73920000D03*
X56190000Y-76460000D03*
X63810000Y-76460000D03*
%TD*%
D26*
%TO.C,S14*%
X54920000Y-60000000D03*
D27*
X60000000Y-60000000D03*
D26*
X65080000Y-60000000D03*
D25*
X62540000Y-54920000D03*
X57460000Y-54920000D03*
X56190000Y-57460000D03*
X63810000Y-57460000D03*
%TD*%
%TO.C,S14*%
X44810000Y-19460000D03*
X37190000Y-19460000D03*
X38460000Y-16920000D03*
X43540000Y-16920000D03*
D26*
X46080000Y-22000000D03*
D27*
X41000000Y-22000000D03*
D26*
X35920000Y-22000000D03*
%TD*%
D25*
%TO.C,S14*%
X44810000Y-38460000D03*
X37190000Y-38460000D03*
X38460000Y-35920000D03*
X43540000Y-35920000D03*
D26*
X46080000Y-41000000D03*
D27*
X41000000Y-41000000D03*
D26*
X35920000Y-41000000D03*
%TD*%
%TO.C,S14*%
X35920000Y-79000000D03*
D27*
X41000000Y-79000000D03*
D26*
X46080000Y-79000000D03*
D25*
X43540000Y-73920000D03*
X38460000Y-73920000D03*
X37190000Y-76460000D03*
X44810000Y-76460000D03*
%TD*%
D26*
%TO.C,S14*%
X35920000Y-60000000D03*
D27*
X41000000Y-60000000D03*
D26*
X46080000Y-60000000D03*
D25*
X43540000Y-54920000D03*
X38460000Y-54920000D03*
X37190000Y-57460000D03*
X44810000Y-57460000D03*
%TD*%
%TO.C,S14*%
X25810000Y-19460000D03*
X18190000Y-19460000D03*
X19460000Y-16920000D03*
X24540000Y-16920000D03*
D26*
X27080000Y-22000000D03*
D27*
X22000000Y-22000000D03*
D26*
X16920000Y-22000000D03*
%TD*%
D25*
%TO.C,S14*%
X25810000Y-38460000D03*
X18190000Y-38460000D03*
X19460000Y-35920000D03*
X24540000Y-35920000D03*
D26*
X27080000Y-41000000D03*
D27*
X22000000Y-41000000D03*
D26*
X16920000Y-41000000D03*
%TD*%
%TO.C,S14*%
X16920000Y-60000000D03*
D27*
X22000000Y-60000000D03*
D26*
X27080000Y-60000000D03*
D25*
X24540000Y-54920000D03*
X19460000Y-54920000D03*
X18190000Y-57460000D03*
X25810000Y-57460000D03*
%TD*%
D28*
%TO.C,trrs jack*%
X198600000Y-52700000D03*
X205600000Y-52700000D03*
D29*
X195900000Y-50400000D03*
X197000000Y-55000000D03*
X201000000Y-55000000D03*
X204000000Y-55000000D03*
%TD*%
M02*
