G04 #@! TF.GenerationSoftware,KiCad,Pcbnew,(6.0.8)*
G04 #@! TF.CreationDate,2023-06-20T19:58:12+10:00*
G04 #@! TF.ProjectId,thorny_devil,74686f72-6e79-45f6-9465-76696c2e6b69,rev?*
G04 #@! TF.SameCoordinates,Original*
G04 #@! TF.FileFunction,Legend,Bot*
G04 #@! TF.FilePolarity,Positive*
%FSLAX46Y46*%
G04 Gerber Fmt 4.6, Leading zero omitted, Abs format (unit mm)*
G04 Created by KiCad (PCBNEW (6.0.8)) date 2023-06-20 19:58:12*
%MOMM*%
%LPD*%
G01*
G04 APERTURE LIST*
%ADD10C,0.150000*%
%ADD11C,1.752600*%
%ADD12R,1.752600X1.752600*%
%ADD13C,0.052500*%
%ADD14C,0.300000*%
%ADD15O,1.600000X1.600000*%
G04 APERTURE END LIST*
D10*
G36*
X112866117Y-51694544D02*
G01*
X110921573Y-52578427D01*
X111805456Y-50633883D01*
X113750000Y-49750000D01*
X112866117Y-51694544D01*
G37*
X112866117Y-51694544D02*
X110921573Y-52578427D01*
X111805456Y-50633883D01*
X113750000Y-49750000D01*
X112866117Y-51694544D01*
G36*
X120194544Y-50633883D02*
G01*
X121078427Y-52578427D01*
X119133883Y-51694544D01*
X118250000Y-49750000D01*
X120194544Y-50633883D01*
G37*
X120194544Y-50633883D02*
X121078427Y-52578427D01*
X119133883Y-51694544D01*
X118250000Y-49750000D01*
X120194544Y-50633883D01*
G36*
X120194544Y-44116117D02*
G01*
X118250000Y-45000000D01*
X119133883Y-43055456D01*
X121078427Y-42171573D01*
X120194544Y-44116117D01*
G37*
X120194544Y-44116117D02*
X118250000Y-45000000D01*
X119133883Y-43055456D01*
X121078427Y-42171573D01*
X120194544Y-44116117D01*
G36*
X112866117Y-43055456D02*
G01*
X113750000Y-45000000D01*
X111805456Y-44116117D01*
X110921573Y-42171573D01*
X112866117Y-43055456D01*
G37*
X112866117Y-43055456D02*
X113750000Y-45000000D01*
X111805456Y-44116117D01*
X110921573Y-42171573D01*
X112866117Y-43055456D01*
G36*
X116750001Y-42250000D02*
G01*
X116000000Y-44250000D01*
X115249999Y-42250000D01*
X116000000Y-40250000D01*
X116750001Y-42250000D01*
G37*
X116750001Y-42250000D02*
X116000000Y-44250000D01*
X115249999Y-42250000D01*
X116000000Y-40250000D01*
X116750001Y-42250000D01*
G36*
X112750000Y-47500000D02*
G01*
X110750000Y-48250001D01*
X108750000Y-47500000D01*
X110750000Y-46749999D01*
X112750000Y-47500000D01*
G37*
X112750000Y-47500000D02*
X110750000Y-48250001D01*
X108750000Y-47500000D01*
X110750000Y-46749999D01*
X112750000Y-47500000D01*
G36*
X123250000Y-47500000D02*
G01*
X121250000Y-48250001D01*
X119250000Y-47500000D01*
X121250000Y-46749999D01*
X123250000Y-47500000D01*
G37*
X123250000Y-47500000D02*
X121250000Y-48250001D01*
X119250000Y-47500000D01*
X121250000Y-46749999D01*
X123250000Y-47500000D01*
D11*
X108380000Y-41030000D03*
X108380000Y-43570000D03*
X108380000Y-46110000D03*
X108380000Y-48650000D03*
X108380000Y-51190000D03*
X108380000Y-53730000D03*
X108380000Y-56270000D03*
X108380000Y-58810000D03*
X108380000Y-61350000D03*
X108380000Y-63890000D03*
X108380000Y-66430000D03*
X108380000Y-68970000D03*
X123620000Y-41030000D03*
X123620000Y-43570000D03*
X123620000Y-46110000D03*
X123620000Y-48650000D03*
X123620000Y-51190000D03*
X123620000Y-53730000D03*
X123620000Y-56270000D03*
X123620000Y-58810000D03*
X123620000Y-61350000D03*
X123620000Y-63890000D03*
X123620000Y-66430000D03*
D12*
X123620000Y-68970000D03*
D11*
X141342102Y-65157898D03*
X139546051Y-66953949D03*
X143138154Y-63361846D03*
X137750000Y-68750000D03*
X90657898Y-65157898D03*
X92453949Y-66953949D03*
X94250000Y-68750000D03*
X88861846Y-63361846D03*
%LPC*%
D10*
G36*
X116750000Y-52500000D02*
G01*
X116000000Y-54500000D01*
X115250000Y-52500000D01*
X116000000Y-50500000D01*
X116750000Y-52500000D01*
G37*
X116750000Y-52500000D02*
X116000000Y-54500000D01*
X115250000Y-52500000D01*
X116000000Y-50500000D01*
X116750000Y-52500000D01*
D13*
X101964285Y-72226190D02*
X101964285Y-71726190D01*
X101964285Y-71916666D02*
X101916666Y-71892857D01*
X101821428Y-71892857D01*
X101773809Y-71916666D01*
X101750000Y-71940476D01*
X101726190Y-71988095D01*
X101726190Y-72130952D01*
X101750000Y-72178571D01*
X101773809Y-72202380D01*
X101821428Y-72226190D01*
X101916666Y-72226190D01*
X101964285Y-72202380D01*
X101559523Y-71892857D02*
X101440476Y-72226190D01*
X101321428Y-71892857D02*
X101440476Y-72226190D01*
X101488095Y-72345238D01*
X101511904Y-72369047D01*
X101559523Y-72392857D01*
X100535714Y-71892857D02*
X100535714Y-72297619D01*
X100559523Y-72345238D01*
X100583333Y-72369047D01*
X100630952Y-72392857D01*
X100702380Y-72392857D01*
X100750000Y-72369047D01*
X100535714Y-72202380D02*
X100583333Y-72226190D01*
X100678571Y-72226190D01*
X100726190Y-72202380D01*
X100750000Y-72178571D01*
X100773809Y-72130952D01*
X100773809Y-71988095D01*
X100750000Y-71940476D01*
X100726190Y-71916666D01*
X100678571Y-71892857D01*
X100583333Y-71892857D01*
X100535714Y-71916666D01*
X100297619Y-71892857D02*
X100297619Y-72226190D01*
X100297619Y-71940476D02*
X100273809Y-71916666D01*
X100226190Y-71892857D01*
X100154761Y-71892857D01*
X100107142Y-71916666D01*
X100083333Y-71964285D01*
X100083333Y-72226190D01*
X99630952Y-72226190D02*
X99630952Y-71964285D01*
X99654761Y-71916666D01*
X99702380Y-71892857D01*
X99797619Y-71892857D01*
X99845238Y-71916666D01*
X99630952Y-72202380D02*
X99678571Y-72226190D01*
X99797619Y-72226190D01*
X99845238Y-72202380D01*
X99869047Y-72154761D01*
X99869047Y-72107142D01*
X99845238Y-72059523D01*
X99797619Y-72035714D01*
X99678571Y-72035714D01*
X99630952Y-72011904D01*
X99440476Y-71892857D02*
X99345238Y-72226190D01*
X99250000Y-71988095D01*
X99154761Y-72226190D01*
X99059523Y-71892857D01*
X98869047Y-72226190D02*
X98869047Y-71892857D01*
X98869047Y-71940476D02*
X98845238Y-71916666D01*
X98797619Y-71892857D01*
X98726190Y-71892857D01*
X98678571Y-71916666D01*
X98654761Y-71964285D01*
X98654761Y-72226190D01*
X98654761Y-71964285D02*
X98630952Y-71916666D01*
X98583333Y-71892857D01*
X98511904Y-71892857D01*
X98464285Y-71916666D01*
X98440476Y-71964285D01*
X98440476Y-72226190D01*
X97988095Y-72226190D02*
X97988095Y-71964285D01*
X98011904Y-71916666D01*
X98059523Y-71892857D01*
X98154761Y-71892857D01*
X98202380Y-71916666D01*
X97988095Y-72202380D02*
X98035714Y-72226190D01*
X98154761Y-72226190D01*
X98202380Y-72202380D01*
X98226190Y-72154761D01*
X98226190Y-72107142D01*
X98202380Y-72059523D01*
X98154761Y-72035714D01*
X98035714Y-72035714D01*
X97988095Y-72011904D01*
X97750000Y-71892857D02*
X97750000Y-72226190D01*
X97750000Y-71940476D02*
X97726190Y-71916666D01*
X97678571Y-71892857D01*
X97607142Y-71892857D01*
X97559523Y-71916666D01*
X97535714Y-71964285D01*
X97535714Y-72226190D01*
D14*
X136476190Y-58211428D02*
X135714285Y-58211428D01*
X136190476Y-57544761D02*
X136190476Y-59259047D01*
X136095238Y-59449523D01*
X135904761Y-59544761D01*
X135714285Y-59544761D01*
X135047619Y-59544761D02*
X135047619Y-57544761D01*
X134190476Y-59544761D02*
X134190476Y-58497142D01*
X134285714Y-58306666D01*
X134476190Y-58211428D01*
X134761904Y-58211428D01*
X134952380Y-58306666D01*
X135047619Y-58401904D01*
X132952380Y-59544761D02*
X133142857Y-59449523D01*
X133238095Y-59354285D01*
X133333333Y-59163809D01*
X133333333Y-58592380D01*
X133238095Y-58401904D01*
X133142857Y-58306666D01*
X132952380Y-58211428D01*
X132666666Y-58211428D01*
X132476190Y-58306666D01*
X132380952Y-58401904D01*
X132285714Y-58592380D01*
X132285714Y-59163809D01*
X132380952Y-59354285D01*
X132476190Y-59449523D01*
X132666666Y-59544761D01*
X132952380Y-59544761D01*
X131428571Y-59544761D02*
X131428571Y-58211428D01*
X131428571Y-58592380D02*
X131333333Y-58401904D01*
X131238095Y-58306666D01*
X131047619Y-58211428D01*
X130857142Y-58211428D01*
X130190476Y-58211428D02*
X130190476Y-59544761D01*
X130190476Y-58401904D02*
X130095238Y-58306666D01*
X129904761Y-58211428D01*
X129619047Y-58211428D01*
X129428571Y-58306666D01*
X129333333Y-58497142D01*
X129333333Y-59544761D01*
X128571428Y-58211428D02*
X128095238Y-59544761D01*
X127619047Y-58211428D02*
X128095238Y-59544761D01*
X128285714Y-60020952D01*
X128380952Y-60116190D01*
X128571428Y-60211428D01*
X134190476Y-62764761D02*
X134190476Y-60764761D01*
X134190476Y-62669523D02*
X134380952Y-62764761D01*
X134761904Y-62764761D01*
X134952380Y-62669523D01*
X135047619Y-62574285D01*
X135142857Y-62383809D01*
X135142857Y-61812380D01*
X135047619Y-61621904D01*
X134952380Y-61526666D01*
X134761904Y-61431428D01*
X134380952Y-61431428D01*
X134190476Y-61526666D01*
X132476190Y-62669523D02*
X132666666Y-62764761D01*
X133047619Y-62764761D01*
X133238095Y-62669523D01*
X133333333Y-62479047D01*
X133333333Y-61717142D01*
X133238095Y-61526666D01*
X133047619Y-61431428D01*
X132666666Y-61431428D01*
X132476190Y-61526666D01*
X132380952Y-61717142D01*
X132380952Y-61907619D01*
X133333333Y-62098095D01*
X131714285Y-61431428D02*
X131238095Y-62764761D01*
X130761904Y-61431428D01*
X130000000Y-62764761D02*
X130000000Y-61431428D01*
X130000000Y-60764761D02*
X130095238Y-60860000D01*
X130000000Y-60955238D01*
X129904761Y-60860000D01*
X130000000Y-60764761D01*
X130000000Y-60955238D01*
X128761904Y-62764761D02*
X128952380Y-62669523D01*
X129047619Y-62479047D01*
X129047619Y-60764761D01*
X102714285Y-61154761D02*
X102714285Y-59821428D01*
X102714285Y-60202380D02*
X102619047Y-60011904D01*
X102523809Y-59916666D01*
X102333333Y-59821428D01*
X102142857Y-59821428D01*
X100714285Y-61059523D02*
X100904761Y-61154761D01*
X101285714Y-61154761D01*
X101476190Y-61059523D01*
X101571428Y-60869047D01*
X101571428Y-60107142D01*
X101476190Y-59916666D01*
X101285714Y-59821428D01*
X100904761Y-59821428D01*
X100714285Y-59916666D01*
X100619047Y-60107142D01*
X100619047Y-60297619D01*
X101571428Y-60488095D01*
X99952380Y-59821428D02*
X99476190Y-61154761D01*
X99000000Y-59821428D01*
X97190476Y-61154761D02*
X98333333Y-61154761D01*
X97761904Y-61154761D02*
X97761904Y-59154761D01*
X97952380Y-59440476D01*
X98142857Y-59630952D01*
X98333333Y-59726190D01*
D11*
X108380000Y-41030000D03*
X108380000Y-43570000D03*
X108380000Y-46110000D03*
X108380000Y-48650000D03*
X108380000Y-51190000D03*
X108380000Y-53730000D03*
X108380000Y-56270000D03*
X108380000Y-58810000D03*
X108380000Y-61350000D03*
X108380000Y-63890000D03*
X108380000Y-66430000D03*
X108380000Y-68970000D03*
X123620000Y-41030000D03*
X123620000Y-43570000D03*
X123620000Y-46110000D03*
X123620000Y-48650000D03*
X123620000Y-51190000D03*
X123620000Y-53730000D03*
X123620000Y-56270000D03*
X123620000Y-58810000D03*
X123620000Y-61350000D03*
X123620000Y-63890000D03*
X123620000Y-66430000D03*
D12*
X123620000Y-68970000D03*
D11*
X141342102Y-65157898D03*
X139546051Y-66953949D03*
X143138154Y-63361846D03*
X137750000Y-68750000D03*
X90657898Y-65157898D03*
X92453949Y-66953949D03*
X94250000Y-68750000D03*
X88861846Y-63361846D03*
D15*
X138000000Y-42500000D03*
X144500000Y-42500000D03*
X138000000Y-47000000D03*
X144500000Y-47000000D03*
X138000000Y-61000000D03*
X144500000Y-61000000D03*
X138000000Y-56500000D03*
X144500000Y-56500000D03*
X87500000Y-61000000D03*
X94000000Y-61000000D03*
X94000000Y-56500000D03*
X87500000Y-56500000D03*
X132000000Y-48500000D03*
X132000000Y-55000000D03*
X136500000Y-55000000D03*
X136500000Y-48500000D03*
X150500000Y-55000000D03*
X150500000Y-48500000D03*
X146000000Y-55000000D03*
X146000000Y-48500000D03*
X103000000Y-70500000D03*
X96500000Y-70500000D03*
X103000000Y-66000000D03*
X96500000Y-66000000D03*
X94000000Y-42500000D03*
X87500000Y-42500000D03*
X94000000Y-47000000D03*
X87500000Y-47000000D03*
X106000000Y-40500000D03*
X99500000Y-40500000D03*
X106000000Y-45000000D03*
X99500000Y-45000000D03*
X95500000Y-55000000D03*
X95500000Y-48500000D03*
X100000000Y-48500000D03*
X100000000Y-55000000D03*
X81500000Y-55000000D03*
X81500000Y-48500000D03*
X86000000Y-48500000D03*
X86000000Y-55000000D03*
X129000000Y-70500000D03*
X135500000Y-70500000D03*
X135500000Y-66000000D03*
X129000000Y-66000000D03*
X126000000Y-40500000D03*
X132500000Y-40500000D03*
X132500000Y-45000000D03*
X126000000Y-45000000D03*
M02*
