G04 #@! TF.GenerationSoftware,KiCad,Pcbnew,(6.0.8)*
G04 #@! TF.CreationDate,2023-06-20T19:58:12+10:00*
G04 #@! TF.ProjectId,thorny_devil,74686f72-6e79-45f6-9465-76696c2e6b69,rev?*
G04 #@! TF.SameCoordinates,Original*
G04 #@! TF.FileFunction,Legend,Top*
G04 #@! TF.FilePolarity,Positive*
%FSLAX46Y46*%
G04 Gerber Fmt 4.6, Leading zero omitted, Abs format (unit mm)*
G04 Created by KiCad (PCBNEW (6.0.8)) date 2023-06-20 19:58:12*
%MOMM*%
%LPD*%
G01*
G04 APERTURE LIST*
%ADD10C,0.150000*%
%ADD11C,0.120000*%
%ADD12C,1.752600*%
%ADD13R,1.752600X1.752600*%
%ADD14C,0.300000*%
%ADD15C,0.052500*%
%ADD16O,1.600000X1.600000*%
G04 APERTURE END LIST*
D10*
X116547619Y-50380952D02*
X115833333Y-50380952D01*
X115690476Y-50333333D01*
X115595238Y-50238095D01*
X115547619Y-50095238D01*
X115547619Y-50000000D01*
X115547619Y-51333333D02*
X115547619Y-50857142D01*
X116547619Y-50857142D01*
X115642857Y-52238095D02*
X115595238Y-52190476D01*
X115547619Y-52047619D01*
X115547619Y-51952380D01*
X115595238Y-51809523D01*
X115690476Y-51714285D01*
X115785714Y-51666666D01*
X115976190Y-51619047D01*
X116119047Y-51619047D01*
X116309523Y-51666666D01*
X116404761Y-51714285D01*
X116500000Y-51809523D01*
X116547619Y-51952380D01*
X116547619Y-52047619D01*
X116500000Y-52190476D01*
X116452380Y-52238095D01*
X116547619Y-52952380D02*
X115833333Y-52952380D01*
X115690476Y-52904761D01*
X115595238Y-52809523D01*
X115547619Y-52666666D01*
X115547619Y-52571428D01*
X115547619Y-53904761D02*
X115547619Y-53428571D01*
X116547619Y-53428571D01*
X115642857Y-54809523D02*
X115595238Y-54761904D01*
X115547619Y-54619047D01*
X115547619Y-54523809D01*
X115595238Y-54380952D01*
X115690476Y-54285714D01*
X115785714Y-54238095D01*
X115976190Y-54190476D01*
X116119047Y-54190476D01*
X116309523Y-54238095D01*
X116404761Y-54285714D01*
X116500000Y-54380952D01*
X116547619Y-54523809D01*
X116547619Y-54619047D01*
X116500000Y-54761904D01*
X116452380Y-54809523D01*
X116547619Y-55523809D02*
X115833333Y-55523809D01*
X115690476Y-55476190D01*
X115595238Y-55380952D01*
X115547619Y-55238095D01*
X115547619Y-55142857D01*
X115547619Y-56476190D02*
X115547619Y-56000000D01*
X116547619Y-56000000D01*
X115642857Y-57380952D02*
X115595238Y-57333333D01*
X115547619Y-57190476D01*
X115547619Y-57095238D01*
X115595238Y-56952380D01*
X115690476Y-56857142D01*
X115785714Y-56809523D01*
X115976190Y-56761904D01*
X116119047Y-56761904D01*
X116309523Y-56809523D01*
X116404761Y-56857142D01*
X116500000Y-56952380D01*
X116547619Y-57095238D01*
X116547619Y-57190476D01*
X116500000Y-57333333D01*
X116452380Y-57380952D01*
X116547619Y-58095238D02*
X115833333Y-58095238D01*
X115690476Y-58047619D01*
X115595238Y-57952380D01*
X115547619Y-57809523D01*
X115547619Y-57714285D01*
X115547619Y-59047619D02*
X115547619Y-58571428D01*
X116547619Y-58571428D01*
X115642857Y-59952380D02*
X115595238Y-59904761D01*
X115547619Y-59761904D01*
X115547619Y-59666666D01*
X115595238Y-59523809D01*
X115690476Y-59428571D01*
X115785714Y-59380952D01*
X115976190Y-59333333D01*
X116119047Y-59333333D01*
X116309523Y-59380952D01*
X116404761Y-59428571D01*
X116500000Y-59523809D01*
X116547619Y-59666666D01*
X116547619Y-59761904D01*
X116500000Y-59904761D01*
X116452380Y-59952380D01*
X107110000Y-72780000D02*
X124890000Y-72780000D01*
X124890000Y-72780000D02*
X124890000Y-39760000D01*
X107110000Y-39760000D02*
X107110000Y-72780000D01*
X122350000Y-67700000D02*
X124890000Y-67700000D01*
X122350000Y-70240000D02*
X122350000Y-67700000D01*
X124890000Y-39760000D02*
X107110000Y-39760000D01*
X122350000Y-70240000D02*
X124890000Y-70240000D01*
D11*
X139000000Y-47000000D02*
X143500000Y-47000000D01*
X143500000Y-47000000D02*
X143500000Y-42500000D01*
X143500000Y-42500000D02*
X139000000Y-42500000D01*
X139000000Y-42500000D02*
X139000000Y-47000000D01*
X143500000Y-56500000D02*
X139000000Y-56500000D01*
X139000000Y-56500000D02*
X139000000Y-61000000D01*
X139000000Y-61000000D02*
X143500000Y-61000000D01*
X143500000Y-61000000D02*
X143500000Y-56500000D01*
X93000000Y-56500000D02*
X88500000Y-56500000D01*
X88500000Y-56500000D02*
X88500000Y-61000000D01*
X88500000Y-61000000D02*
X93000000Y-61000000D01*
X93000000Y-61000000D02*
X93000000Y-56500000D01*
X136500000Y-54000000D02*
X132000000Y-54000000D01*
X132000000Y-54000000D02*
X132000000Y-49500000D01*
X132000000Y-49500000D02*
X136500000Y-49500000D01*
X136500000Y-49500000D02*
X136500000Y-54000000D01*
X146000000Y-49500000D02*
X150500000Y-49500000D01*
X150500000Y-49500000D02*
X150500000Y-54000000D01*
X150500000Y-54000000D02*
X146000000Y-54000000D01*
X146000000Y-54000000D02*
X146000000Y-49500000D01*
X102000000Y-66000000D02*
X97500000Y-66000000D01*
X97500000Y-66000000D02*
X97500000Y-70500000D01*
X97500000Y-70500000D02*
X102000000Y-70500000D01*
X102000000Y-70500000D02*
X102000000Y-66000000D01*
X88500000Y-47000000D02*
X93000000Y-47000000D01*
X93000000Y-47000000D02*
X93000000Y-42500000D01*
X93000000Y-42500000D02*
X88500000Y-42500000D01*
X88500000Y-42500000D02*
X88500000Y-47000000D01*
X100500000Y-45000000D02*
X105000000Y-45000000D01*
X105000000Y-45000000D02*
X105000000Y-40500000D01*
X105000000Y-40500000D02*
X100500000Y-40500000D01*
X100500000Y-40500000D02*
X100500000Y-45000000D01*
X95500000Y-49500000D02*
X100000000Y-49500000D01*
X100000000Y-49500000D02*
X100000000Y-54000000D01*
X100000000Y-54000000D02*
X95500000Y-54000000D01*
X95500000Y-54000000D02*
X95500000Y-49500000D01*
X86000000Y-54000000D02*
X81500000Y-54000000D01*
X81500000Y-54000000D02*
X81500000Y-49500000D01*
X81500000Y-49500000D02*
X86000000Y-49500000D01*
X86000000Y-49500000D02*
X86000000Y-54000000D01*
X134500000Y-66000000D02*
X130000000Y-66000000D01*
X130000000Y-66000000D02*
X130000000Y-70500000D01*
X130000000Y-70500000D02*
X134500000Y-70500000D01*
X134500000Y-70500000D02*
X134500000Y-66000000D01*
X127000000Y-45000000D02*
X131500000Y-45000000D01*
X131500000Y-45000000D02*
X131500000Y-40500000D01*
X131500000Y-40500000D02*
X127000000Y-40500000D01*
X127000000Y-40500000D02*
X127000000Y-45000000D01*
D12*
X108380000Y-41030000D03*
X108380000Y-43570000D03*
X108380000Y-46110000D03*
X108380000Y-48650000D03*
X108380000Y-51190000D03*
X108380000Y-53730000D03*
X108380000Y-56270000D03*
X108380000Y-58810000D03*
X108380000Y-61350000D03*
X108380000Y-63890000D03*
X108380000Y-66430000D03*
X108380000Y-68970000D03*
X123620000Y-41030000D03*
X123620000Y-43570000D03*
X123620000Y-46110000D03*
X123620000Y-48650000D03*
X123620000Y-51190000D03*
X123620000Y-53730000D03*
X123620000Y-56270000D03*
X123620000Y-58810000D03*
X123620000Y-61350000D03*
X123620000Y-63890000D03*
X123620000Y-66430000D03*
D13*
X123620000Y-68970000D03*
D12*
X141342102Y-65157898D03*
X139546051Y-66953949D03*
X143138154Y-63361846D03*
X137750000Y-68750000D03*
X90657898Y-65157898D03*
X92453949Y-66953949D03*
X94250000Y-68750000D03*
X88861846Y-63361846D03*
%LPC*%
D14*
X95523809Y-58211428D02*
X96285714Y-58211428D01*
X95809523Y-57544761D02*
X95809523Y-59259047D01*
X95904761Y-59449523D01*
X96095238Y-59544761D01*
X96285714Y-59544761D01*
X96952380Y-59544761D02*
X96952380Y-57544761D01*
X97809523Y-59544761D02*
X97809523Y-58497142D01*
X97714285Y-58306666D01*
X97523809Y-58211428D01*
X97238095Y-58211428D01*
X97047619Y-58306666D01*
X96952380Y-58401904D01*
X99047619Y-59544761D02*
X98857142Y-59449523D01*
X98761904Y-59354285D01*
X98666666Y-59163809D01*
X98666666Y-58592380D01*
X98761904Y-58401904D01*
X98857142Y-58306666D01*
X99047619Y-58211428D01*
X99333333Y-58211428D01*
X99523809Y-58306666D01*
X99619047Y-58401904D01*
X99714285Y-58592380D01*
X99714285Y-59163809D01*
X99619047Y-59354285D01*
X99523809Y-59449523D01*
X99333333Y-59544761D01*
X99047619Y-59544761D01*
X100571428Y-59544761D02*
X100571428Y-58211428D01*
X100571428Y-58592380D02*
X100666666Y-58401904D01*
X100761904Y-58306666D01*
X100952380Y-58211428D01*
X101142857Y-58211428D01*
X101809523Y-58211428D02*
X101809523Y-59544761D01*
X101809523Y-58401904D02*
X101904761Y-58306666D01*
X102095238Y-58211428D01*
X102380952Y-58211428D01*
X102571428Y-58306666D01*
X102666666Y-58497142D01*
X102666666Y-59544761D01*
X103428571Y-58211428D02*
X103904761Y-59544761D01*
X104380952Y-58211428D02*
X103904761Y-59544761D01*
X103714285Y-60020952D01*
X103619047Y-60116190D01*
X103428571Y-60211428D01*
X97809523Y-62764761D02*
X97809523Y-60764761D01*
X97809523Y-62669523D02*
X97619047Y-62764761D01*
X97238095Y-62764761D01*
X97047619Y-62669523D01*
X96952380Y-62574285D01*
X96857142Y-62383809D01*
X96857142Y-61812380D01*
X96952380Y-61621904D01*
X97047619Y-61526666D01*
X97238095Y-61431428D01*
X97619047Y-61431428D01*
X97809523Y-61526666D01*
X99523809Y-62669523D02*
X99333333Y-62764761D01*
X98952380Y-62764761D01*
X98761904Y-62669523D01*
X98666666Y-62479047D01*
X98666666Y-61717142D01*
X98761904Y-61526666D01*
X98952380Y-61431428D01*
X99333333Y-61431428D01*
X99523809Y-61526666D01*
X99619047Y-61717142D01*
X99619047Y-61907619D01*
X98666666Y-62098095D01*
X100285714Y-61431428D02*
X100761904Y-62764761D01*
X101238095Y-61431428D01*
X102000000Y-62764761D02*
X102000000Y-61431428D01*
X102000000Y-60764761D02*
X101904761Y-60860000D01*
X102000000Y-60955238D01*
X102095238Y-60860000D01*
X102000000Y-60764761D01*
X102000000Y-60955238D01*
X103238095Y-62764761D02*
X103047619Y-62669523D01*
X102952380Y-62479047D01*
X102952380Y-60764761D01*
X129285714Y-61154761D02*
X129285714Y-59821428D01*
X129285714Y-60202380D02*
X129380952Y-60011904D01*
X129476190Y-59916666D01*
X129666666Y-59821428D01*
X129857142Y-59821428D01*
X131285714Y-61059523D02*
X131095238Y-61154761D01*
X130714285Y-61154761D01*
X130523809Y-61059523D01*
X130428571Y-60869047D01*
X130428571Y-60107142D01*
X130523809Y-59916666D01*
X130714285Y-59821428D01*
X131095238Y-59821428D01*
X131285714Y-59916666D01*
X131380952Y-60107142D01*
X131380952Y-60297619D01*
X130428571Y-60488095D01*
X132047619Y-59821428D02*
X132523809Y-61154761D01*
X133000000Y-59821428D01*
X134809523Y-61154761D02*
X133666666Y-61154761D01*
X134238095Y-61154761D02*
X134238095Y-59154761D01*
X134047619Y-59440476D01*
X133857142Y-59630952D01*
X133666666Y-59726190D01*
D15*
X130035714Y-72226190D02*
X130035714Y-71726190D01*
X130035714Y-71916666D02*
X130083333Y-71892857D01*
X130178571Y-71892857D01*
X130226190Y-71916666D01*
X130250000Y-71940476D01*
X130273809Y-71988095D01*
X130273809Y-72130952D01*
X130250000Y-72178571D01*
X130226190Y-72202380D01*
X130178571Y-72226190D01*
X130083333Y-72226190D01*
X130035714Y-72202380D01*
X130440476Y-71892857D02*
X130559523Y-72226190D01*
X130678571Y-71892857D02*
X130559523Y-72226190D01*
X130511904Y-72345238D01*
X130488095Y-72369047D01*
X130440476Y-72392857D01*
X131464285Y-71892857D02*
X131464285Y-72297619D01*
X131440476Y-72345238D01*
X131416666Y-72369047D01*
X131369047Y-72392857D01*
X131297619Y-72392857D01*
X131250000Y-72369047D01*
X131464285Y-72202380D02*
X131416666Y-72226190D01*
X131321428Y-72226190D01*
X131273809Y-72202380D01*
X131250000Y-72178571D01*
X131226190Y-72130952D01*
X131226190Y-71988095D01*
X131250000Y-71940476D01*
X131273809Y-71916666D01*
X131321428Y-71892857D01*
X131416666Y-71892857D01*
X131464285Y-71916666D01*
X131702380Y-71892857D02*
X131702380Y-72226190D01*
X131702380Y-71940476D02*
X131726190Y-71916666D01*
X131773809Y-71892857D01*
X131845238Y-71892857D01*
X131892857Y-71916666D01*
X131916666Y-71964285D01*
X131916666Y-72226190D01*
X132369047Y-72226190D02*
X132369047Y-71964285D01*
X132345238Y-71916666D01*
X132297619Y-71892857D01*
X132202380Y-71892857D01*
X132154761Y-71916666D01*
X132369047Y-72202380D02*
X132321428Y-72226190D01*
X132202380Y-72226190D01*
X132154761Y-72202380D01*
X132130952Y-72154761D01*
X132130952Y-72107142D01*
X132154761Y-72059523D01*
X132202380Y-72035714D01*
X132321428Y-72035714D01*
X132369047Y-72011904D01*
X132559523Y-71892857D02*
X132654761Y-72226190D01*
X132750000Y-71988095D01*
X132845238Y-72226190D01*
X132940476Y-71892857D01*
X133130952Y-72226190D02*
X133130952Y-71892857D01*
X133130952Y-71940476D02*
X133154761Y-71916666D01*
X133202380Y-71892857D01*
X133273809Y-71892857D01*
X133321428Y-71916666D01*
X133345238Y-71964285D01*
X133345238Y-72226190D01*
X133345238Y-71964285D02*
X133369047Y-71916666D01*
X133416666Y-71892857D01*
X133488095Y-71892857D01*
X133535714Y-71916666D01*
X133559523Y-71964285D01*
X133559523Y-72226190D01*
X134011904Y-72226190D02*
X134011904Y-71964285D01*
X133988095Y-71916666D01*
X133940476Y-71892857D01*
X133845238Y-71892857D01*
X133797619Y-71916666D01*
X134011904Y-72202380D02*
X133964285Y-72226190D01*
X133845238Y-72226190D01*
X133797619Y-72202380D01*
X133773809Y-72154761D01*
X133773809Y-72107142D01*
X133797619Y-72059523D01*
X133845238Y-72035714D01*
X133964285Y-72035714D01*
X134011904Y-72011904D01*
X134250000Y-71892857D02*
X134250000Y-72226190D01*
X134250000Y-71940476D02*
X134273809Y-71916666D01*
X134321428Y-71892857D01*
X134392857Y-71892857D01*
X134440476Y-71916666D01*
X134464285Y-71964285D01*
X134464285Y-72226190D01*
D12*
X108380000Y-41030000D03*
X108380000Y-43570000D03*
X108380000Y-46110000D03*
X108380000Y-48650000D03*
X108380000Y-51190000D03*
X108380000Y-53730000D03*
X108380000Y-56270000D03*
X108380000Y-58810000D03*
X108380000Y-61350000D03*
X108380000Y-63890000D03*
X108380000Y-66430000D03*
X108380000Y-68970000D03*
X123620000Y-41030000D03*
X123620000Y-43570000D03*
X123620000Y-46110000D03*
X123620000Y-48650000D03*
X123620000Y-51190000D03*
X123620000Y-53730000D03*
X123620000Y-56270000D03*
X123620000Y-58810000D03*
X123620000Y-61350000D03*
X123620000Y-63890000D03*
X123620000Y-66430000D03*
D13*
X123620000Y-68970000D03*
D12*
X141342102Y-65157898D03*
X139546051Y-66953949D03*
X143138154Y-63361846D03*
X137750000Y-68750000D03*
X90657898Y-65157898D03*
X92453949Y-66953949D03*
X94250000Y-68750000D03*
X88861846Y-63361846D03*
D16*
X138000000Y-42500000D03*
X144500000Y-42500000D03*
X138000000Y-47000000D03*
X144500000Y-47000000D03*
X138000000Y-61000000D03*
X144500000Y-61000000D03*
X138000000Y-56500000D03*
X144500000Y-56500000D03*
X87500000Y-61000000D03*
X94000000Y-61000000D03*
X94000000Y-56500000D03*
X87500000Y-56500000D03*
X132000000Y-48500000D03*
X132000000Y-55000000D03*
X136500000Y-55000000D03*
X136500000Y-48500000D03*
X150500000Y-55000000D03*
X150500000Y-48500000D03*
X146000000Y-55000000D03*
X146000000Y-48500000D03*
X103000000Y-70500000D03*
X96500000Y-70500000D03*
X103000000Y-66000000D03*
X96500000Y-66000000D03*
X94000000Y-42500000D03*
X87500000Y-42500000D03*
X94000000Y-47000000D03*
X87500000Y-47000000D03*
X106000000Y-40500000D03*
X99500000Y-40500000D03*
X106000000Y-45000000D03*
X99500000Y-45000000D03*
X95500000Y-55000000D03*
X95500000Y-48500000D03*
X100000000Y-48500000D03*
X100000000Y-55000000D03*
X81500000Y-55000000D03*
X81500000Y-48500000D03*
X86000000Y-48500000D03*
X86000000Y-55000000D03*
X129000000Y-70500000D03*
X135500000Y-70500000D03*
X135500000Y-66000000D03*
X129000000Y-66000000D03*
X126000000Y-40500000D03*
X132500000Y-40500000D03*
X132500000Y-45000000D03*
X126000000Y-45000000D03*
M02*
