M48
; DRILL file {KiCad (6.0.8)} date Tue Jun 20 19:58:30 2023
; FORMAT={-:-/ absolute / metric / decimal}
; #@! TF.CreationDate,2023-06-20T19:58:30+10:00
; #@! TF.GenerationSoftware,Kicad,Pcbnew,(6.0.8)
; #@! TF.FileFunction,Plated,1,2,PTH
FMAT,2
METRIC
; #@! TA.AperFunction,Plated,PTH,ViaDrill
T1C0.400
; #@! TA.AperFunction,Plated,PTH,ComponentDrill
T2C0.800
; #@! TA.AperFunction,Plated,PTH,ComponentDrill
T3C1.092
%
G90
G05
T1
X116.0Y-43.0
T2
X81.5Y-48.5
X81.5Y-55.0
X86.0Y-48.5
X86.0Y-55.0
X87.5Y-42.5
X87.5Y-47.0
X87.5Y-56.5
X87.5Y-61.0
X94.0Y-42.5
X94.0Y-47.0
X94.0Y-56.5
X94.0Y-61.0
X95.5Y-48.5
X95.5Y-55.0
X96.5Y-66.0
X96.5Y-70.5
X99.5Y-40.5
X99.5Y-45.0
X100.0Y-48.5
X100.0Y-55.0
X103.0Y-66.0
X103.0Y-70.5
X106.0Y-40.5
X106.0Y-45.0
X126.0Y-40.5
X126.0Y-45.0
X129.0Y-66.0
X129.0Y-70.5
X132.0Y-48.5
X132.0Y-55.0
X132.5Y-40.5
X132.5Y-45.0
X135.5Y-66.0
X135.5Y-70.5
X136.5Y-48.5
X136.5Y-55.0
X138.0Y-42.5
X138.0Y-47.0
X138.0Y-56.5
X138.0Y-61.0
X144.5Y-42.5
X144.5Y-47.0
X144.5Y-56.5
X144.5Y-61.0
X146.0Y-48.5
X146.0Y-55.0
X150.5Y-48.5
X150.5Y-55.0
T3
X88.862Y-63.362
X90.658Y-65.158
X92.454Y-66.954
X94.25Y-68.75
X108.38Y-41.03
X108.38Y-43.57
X108.38Y-46.11
X108.38Y-48.65
X108.38Y-51.19
X108.38Y-53.73
X108.38Y-56.27
X108.38Y-58.81
X108.38Y-61.35
X108.38Y-63.89
X108.38Y-66.43
X108.38Y-68.97
X123.62Y-41.03
X123.62Y-43.57
X123.62Y-46.11
X123.62Y-48.65
X123.62Y-51.19
X123.62Y-53.73
X123.62Y-56.27
X123.62Y-58.81
X123.62Y-61.35
X123.62Y-63.89
X123.62Y-66.43
X123.62Y-68.97
X137.75Y-68.75
X139.546Y-66.954
X141.342Y-65.158
X143.138Y-63.362
T0
M30
